<svg id="Greyscale_copy" data-name="Greyscale copy" xmlns="http://www.w3.org/2000/svg" viewBox="0 0 178 107"><defs><style>.cls-1,.cls-2{fill:#999;}.cls-2{fill-rule:evenodd;}</style></defs><title>cifs-logo-booster juice</title><path class="cls-1" d="M39.21,50.56a2.58,2.58,0,0,1-1.62,2.19A1.49,1.49,0,0,1,36,51.84a3.44,3.44,0,0,1,0-2.06A4.59,4.59,0,0,1,37,48a1.15,1.15,0,0,1,1.56-.36,8.09,8.09,0,0,1,.63,3m-16.69-.7v-1.7a5.53,5.53,0,0,1,2.62-.28c1.34.07,2,.56,1.91,1.34a2.26,2.26,0,0,1-1.49,2.26l-2.68.36a4.52,4.52,0,0,1-.36-2m7.57-2.41a5.15,5.15,0,0,0-2.83-1.55l-3.53-.36L21,45.4c-.21.07-.42.35-.78,1a29.85,29.85,0,0,0,.07,3.32l.85,14.43c.21,2.69.28,4,.28,4.1l4.88.14L31.15,68a12.35,12.35,0,0,0,4-1.34,4.14,4.14,0,0,0,2.12-2.76c.15-2.69-.42-4.67-2-5.87a10.2,10.2,0,0,0-4.88-2.48,3.81,3.81,0,0,0,1.27-2,9,9,0,0,0,.07-2,8.87,8.87,0,0,0-1.7-4.17m16.12,9.12a1.17,1.17,0,0,1-1.41-.77A2.4,2.4,0,0,1,44.73,54a3.59,3.59,0,0,1,.85-1.84,1.3,1.3,0,0,1,1.41-.5,6.4,6.4,0,0,1,.64,2.83c.07.57-.43,1.28-1.42,2.12m12.45-8.76a6.4,6.4,0,0,0-1.2-2.62l-2-.07a18.68,18.68,0,0,0-4,4.45c-.78,1.35-.29,3.11,1.69,5.52a2.49,2.49,0,0,1-.07,2.54l-1.55,2.48A2.77,2.77,0,0,0,51,62c0,.64.78,1,2.19,1.2l.64.14a5,5,0,0,0,1.84-2,11.58,11.58,0,0,0,1.13-2.9,6.09,6.09,0,0,0-1.13-5.8,2.07,2.07,0,0,1,.57-2.9,18,18,0,0,1,2.4-2m-8,6.15a5.16,5.16,0,0,0-.85-2.69l-1.91-2.69a2.46,2.46,0,0,0-3.75.5,9.76,9.76,0,0,0-2,4.52,6.69,6.69,0,0,0,.71,4.46A2.64,2.64,0,0,0,45,59.26a4.63,4.63,0,0,0,2.76-.42,4,4,0,0,0,2.12-2.05A6.19,6.19,0,0,0,50.67,54M24.86,60.18l-.78-.35-.28-1.42V57.14l1.55-.35,2.55-.15,2.4.5a2,2,0,0,1,1.49,1.13,2.18,2.18,0,0,1-.85,1.63,3.35,3.35,0,0,1-1.84.56l-2.19-.07-2.05-.21m11-15.2a8.51,8.51,0,0,0-2.26,4.66,7.26,7.26,0,0,0,.49,5,2.61,2.61,0,0,0,2,1.35,4.16,4.16,0,0,0,2.62-.22A5.77,5.77,0,0,0,40.91,54a5.34,5.34,0,0,0,1.27-2.83c.14-1.77-.63-4-2.47-6.51a2.6,2.6,0,0,0-3.89.36"/><path class="cls-1" d="M63.19,44.2a1.62,1.62,0,0,0-.71.71l-.43,2.82-.07,1-.49.92-.64-.21-.7-.28a1.92,1.92,0,0,0-.85.35,1.53,1.53,0,0,0-.71.64c-.64,1.13-.85,1.91-.71,2.26a.69.69,0,0,0,.71.64l1.27.07c.43-.07.78,0,.92.28a12.3,12.3,0,0,0-.07,4.53c.14,1,1.13,1.69,3.11,2.19l1.2-.28a2,2,0,0,0,1.14-.92,1.12,1.12,0,0,0-.22-1.13l-.63-.85a2.7,2.7,0,0,1-1.77-1.42A4.74,4.74,0,0,1,63.82,53l1.63-.14,1.2.14c.85,0,1.34-.14,1.49-.35a1.13,1.13,0,0,0,.42-1.07l-.21-1.27c0-.14-.21-.14-.36-.14l-.56-.14L66.72,50l-1.34.07H64.25l.35-1.7c.21-.78.35-1.27.49-1.63s.22-.49.15-.56l-.64-.85c-.21-.07-.35-.28-.42-.71l-.29-.56-.7.14m7.7,6.65a9.07,9.07,0,0,0-2.54,3.32,7.28,7.28,0,0,0-.71,3.61,5.31,5.31,0,0,0,1.27,3.11,7.15,7.15,0,0,0,1.91,1.41,9.46,9.46,0,0,0,1.56.57.91.91,0,0,0,.85-.36l.35-.56-.28-.78-.21-.92-.64-.64-.78-.42a1.11,1.11,0,0,1-.56-.71A1.53,1.53,0,0,1,71,57.14l3.53-1.63.71-.49c.07-1.91-.28-3.26-1.06-4a2.83,2.83,0,0,0-3.26-.14m12.24,4.88-.64-1.21c-.35-.21-.85-.07-1.41.21a18.49,18.49,0,0,0-1.77,1.14l-1.49,1.27-.84.49-.43-.56-.07-.5c-.07-.28-.21-.35-.35-.21l-1.28,1c-.35.28-.35.71-.21,1.42a4.19,4.19,0,0,1,.78,2L75.56,63A3.57,3.57,0,0,0,76,64.78a2,2,0,0,0,1.76.7l.85-.07c.64-.07,1-.35,1.06-.7A10.57,10.57,0,0,0,79.45,62a2.84,2.84,0,0,1,.14-2,8,8,0,0,1,3.54-3c.28-.29.28-.71,0-1.27M73.3,53c.14.35,0,.7-.43,1.2a4.73,4.73,0,0,1-2.12,1.27c-.35.14-.42-.35-.14-1.34a4,4,0,0,1,1-2.12l1.13.14a.91.91,0,0,1,.57.85"/><path class="cls-1" d="M80.44,55.23,79,56.5l-.78.5-.5-.57-.49-.49c-.43.28-.92.49-1.28.7a1.55,1.55,0,0,0-.14,1.42,3.59,3.59,0,0,1,.71,2.12l.14,2.19a4.16,4.16,0,0,0,.57,1.7c.21.5.85.71,1.69.78l.57-.14a.72.72,0,0,0,.35-.5,9.48,9.48,0,0,1,.92-4.95,7.71,7.71,0,0,1,3.54-2.83,1.28,1.28,0,0,0,0-1.41l-.57-1.13a1.77,1.77,0,0,0-1.55.21,8.41,8.41,0,0,0-1.7,1.13m-6.86-3.89a1.46,1.46,0,0,1,.64.85,1.69,1.69,0,0,1-.43,1.27,6,6,0,0,1-2.19,1.27c-.28.15-.42-.28-.14-1.34a3.28,3.28,0,0,1,1.06-2.12l1.06.07m-1.84-1.27a10.14,10.14,0,0,0-2.54,3.32A8.17,8.17,0,0,0,68.49,57a6.4,6.4,0,0,0,1.27,3.11,6.73,6.73,0,0,0,3.33,2h.21L74,60.6a2.43,2.43,0,0,0-.07-1.2l-.64-.56-.71-.43-.71-.7a4,4,0,0,1-.07-1.35l3.61-1.63.64-.56c.07-1.84-.29-3.18-1.06-4s-1.91-.71-3.26-.14m-8.13-5.8-.42,2.83-.08,1-.42.92-1.63.21a3.32,3.32,0,0,0-1.34.28,5.49,5.49,0,0,0-.78,2.26.83.83,0,0,0,.71.64H61a1.11,1.11,0,0,1,.92.35,17.19,17.19,0,0,0-.14,4.53C62,58.2,63,59,65,59.4c.57,0,1.06-.35,1.35-1.2s.42-1.41.07-1.91a3.58,3.58,0,0,1-1.7-1.48A4.86,4.86,0,0,1,65,52.33l1.63-.14,1.2.14a.71.71,0,0,0,.71-.42l.21-1.63-.07-.21-.35-.5-.43-.21H66.58l-1.13.07L66,47l.22-1.21A1.53,1.53,0,0,0,66,44.48a2.68,2.68,0,0,0-2.4-.21m-7.14.21a18.69,18.69,0,0,0-4,4.46c-.78,1.27-.21,3.11,1.69,5.51A2.22,2.22,0,0,1,54.06,57l-1.48,2.4a3.56,3.56,0,0,0-.64,2c.14.57,1,.92,2.62,1.2a7.92,7.92,0,0,0,3.25-4.73,6.13,6.13,0,0,0-1.13-5.8,2.08,2.08,0,0,1,.57-2.9,19.44,19.44,0,0,1,2.4-2,6.53,6.53,0,0,0-1.2-2.62l-2-.07M48.9,47.59A2.6,2.6,0,0,0,47.06,47a3.47,3.47,0,0,0-1.84,1.13,9.16,9.16,0,0,0-2,4.52,7.1,7.1,0,0,0,.64,4.6c.71,1.34,2.19,1.56,4.31.78A6.36,6.36,0,0,0,51,53.25a8,8,0,0,0-.56-3.18,5.79,5.79,0,0,0-1.49-2.48m-.85,3.19a6.32,6.32,0,0,1,.64,2.68,2.55,2.55,0,0,1-1.42,2.19c-.77.08-1.27-.14-1.48-.77A3,3,0,0,1,45.72,53a4,4,0,0,1,.85-1.77,1.17,1.17,0,0,1,1.48-.42m-5.94-4.46a4.4,4.4,0,0,0-1.48-2.55,2.76,2.76,0,0,0-1.91-.63,2.49,2.49,0,0,0-2,.92,9.14,9.14,0,0,0-2.27,4.66,7.76,7.76,0,0,0,.5,5c.71,1.49,2.33,1.84,4.6,1.14a6.45,6.45,0,0,0,3-5,9.38,9.38,0,0,0-.5-3.54m-2.54.28a10,10,0,0,1,.56,3,2.62,2.62,0,0,1-1.62,2.27,1.46,1.46,0,0,1-1.56-1,3.41,3.41,0,0,1,0-2.05A2.84,2.84,0,0,1,38,47a1.25,1.25,0,0,1,1.56-.43M28.25,44.91a7.74,7.74,0,0,0-3.39-.08l-3.68.64.14,3.33,1.13,18,.22.28.28.14,4.45.14,4.74-.28a13.43,13.43,0,0,0,4-1.41,4,4,0,0,0,2.12-2.76c.22-2.62-.42-4.6-1.9-5.87a13.27,13.27,0,0,0-4.95-2.48,3.88,3.88,0,0,0,1.27-1.91,8.77,8.77,0,0,0,.14-2,7.9,7.9,0,0,0-1.77-4.1,5,5,0,0,0-2.83-1.62m-2.12,2c1.34.14,2,.56,2,1.41a2.33,2.33,0,0,1-1.49,2.19l-2.82.43a12.07,12.07,0,0,1-.29-2.05,3.48,3.48,0,0,1,.07-1.63,5.07,5.07,0,0,1,2.55-.35m-.64,12.16c-.21-.07-.35-.14-.35-.21l-.35-1.35V56.08l1.55-.28,2.55-.07,2.4.42a2.83,2.83,0,0,1,1.49,1.13,2.1,2.1,0,0,1-.85,1.7,4.24,4.24,0,0,1-1.84.49L27.9,59.4l-2-.21-.43-.14"/><path class="cls-2" d="M83.13,57c.28-.29.28-.71,0-1.27l-.64-1.21c-.35-.21-.85-.07-1.41.21a18.49,18.49,0,0,0-1.77,1.14l-1.49,1.27-.84.49-.43-.56-.07-.5c-.07-.28-.21-.35-.35-.21l-1.28,1c-.35.28-.35.71-.21,1.42a4.19,4.19,0,0,1,.78,2L75.56,63A3.57,3.57,0,0,0,76,64.78a2,2,0,0,0,1.76.7l.85-.07c.64-.07,1-.35,1.06-.7A10.57,10.57,0,0,0,79.45,62a2.84,2.84,0,0,1,.14-2,8,8,0,0,1,3.54-3Z"/><path class="cls-2" d="M74.15,51a2.83,2.83,0,0,0-3.26-.14,9.07,9.07,0,0,0-2.54,3.32,7.26,7.26,0,0,0-.71,3.6,5.31,5.31,0,0,0,1.27,3.12,7,7,0,0,0,1.91,1.41,9.46,9.46,0,0,0,1.56.57.91.91,0,0,0,.85-.36l.35-.56-.28-.78-.21-.92-.64-.64-.78-.42a1.11,1.11,0,0,1-.56-.71A1.53,1.53,0,0,1,71,57.14l3.53-1.63.71-.49c.07-1.91-.29-3.26-1.06-4ZM71.6,52.05l1.13.14a.91.91,0,0,1,.57.85c.14.35,0,.7-.43,1.2a4.73,4.73,0,0,1-2.12,1.27c-.35.14-.42-.35-.14-1.34a4,4,0,0,1,1-2.12Z"/><path class="cls-2" d="M64.18,44.62l-.29-.56-.7.14a1.62,1.62,0,0,0-.71.71l-.43,2.82-.07,1-.49.92-.64-.21-.7-.28a1.92,1.92,0,0,0-.85.35,1.53,1.53,0,0,0-.71.64c-.64,1.13-.85,1.91-.71,2.26a.69.69,0,0,0,.71.64l1.27.07c.43-.07.78,0,.92.28a12.3,12.3,0,0,0-.07,4.53c.14,1,1.13,1.69,3.11,2.19l1.2-.28a2,2,0,0,0,1.14-.92,1.12,1.12,0,0,0-.22-1.13l-.63-.85a2.7,2.7,0,0,1-1.77-1.42A4.74,4.74,0,0,1,63.82,53l1.63-.14,1.2.14c.85,0,1.34-.14,1.49-.35a1.13,1.13,0,0,0,.42-1.07l-.21-1.27c0-.14-.21-.14-.36-.14l-.56-.14L66.72,50l-1.34.07H64.25l.35-1.7c.21-.78.35-1.27.49-1.63s.22-.49.15-.56l-.64-.85c-.21-.07-.35-.28-.42-.71Z"/><path class="cls-2" d="M56.26,49.78a18,18,0,0,1,2.4-2,6.4,6.4,0,0,0-1.2-2.62l-2-.07a18.68,18.68,0,0,0-4,4.45c-.78,1.35-.29,3.11,1.69,5.52a2.49,2.49,0,0,1-.07,2.54l-1.55,2.48A2.77,2.77,0,0,0,51,62c0,.64.78,1,2.19,1.2l.64.14a5,5,0,0,0,1.84-2,11.58,11.58,0,0,0,1.13-2.9,6.09,6.09,0,0,0-1.13-5.8,2.08,2.08,0,0,1,.57-2.9Z"/><path class="cls-2" d="M49.89,56.79A6.19,6.19,0,0,0,50.67,54a5.16,5.16,0,0,0-.85-2.69l-1.91-2.69a2.46,2.46,0,0,0-3.75.5,9.76,9.76,0,0,0-2,4.52,6.69,6.69,0,0,0,.71,4.46A2.64,2.64,0,0,0,45,59.26a4.63,4.63,0,0,0,2.76-.42,4,4,0,0,0,2.12-2.05ZM44.73,54a3.59,3.59,0,0,1,.85-1.84,1.3,1.3,0,0,1,1.41-.5,6.4,6.4,0,0,1,.64,2.83c.07.57-.43,1.28-1.42,2.12a1.17,1.17,0,0,1-1.41-.77A2.4,2.4,0,0,1,44.73,54Z"/><path class="cls-2" d="M39.71,44.62a2.6,2.6,0,0,0-3.89.36,8.51,8.51,0,0,0-2.26,4.66,7.26,7.26,0,0,0,.49,5,2.61,2.61,0,0,0,2,1.35,4.23,4.23,0,0,0,2.62-.21A5.89,5.89,0,0,0,40.91,54a5.34,5.34,0,0,0,1.27-2.83c.14-1.77-.63-4-2.47-6.51ZM36,51.84a3.44,3.44,0,0,1,0-2.06A4.59,4.59,0,0,1,37,48a1.15,1.15,0,0,1,1.56-.36,8.09,8.09,0,0,1,.63,3,2.58,2.58,0,0,1-1.62,2.19A1.49,1.49,0,0,1,36,51.84Z"/><path class="cls-2" d="M31.79,51.62a8.87,8.87,0,0,0-1.7-4.17,5.15,5.15,0,0,0-2.83-1.55l-3.53-.36L21,45.4c-.21.07-.42.35-.78,1a29.85,29.85,0,0,0,.07,3.32l.85,14.43c.21,2.69.29,4,.29,4.1l4.87.14L31.15,68a12.35,12.35,0,0,0,4-1.34l1.42-1.21a4.63,4.63,0,0,0,.71-1.55c.14-2.69-.43-4.67-2-5.87a10.2,10.2,0,0,0-4.88-2.48,3.81,3.81,0,0,0,1.27-2,9,9,0,0,0,.07-2Zm-8.91.22a4.52,4.52,0,0,1-.36-2v-1.7a2.6,2.6,0,0,1,.92-.21l1.7-.07c1.34.07,2,.56,1.91,1.34l-.21,1.2a2.37,2.37,0,0,1-1.28,1.06l-2.68.36Zm4,8.55-2.05-.21-.78-.35-.28-1.42V57.14l1-.28.56-.07,2.55-.15,2.4.5a2,2,0,0,1,1.49,1.13l-.21.92-.64.71a3.35,3.35,0,0,1-1.84.56l-2.19-.07Z"/><path class="cls-2" d="M82.14,54.1a8.41,8.41,0,0,0-1.7,1.13L79,56.5l-.78.5-.5-.57-.49-.49c-.43.28-.92.49-1.27.7a1.52,1.52,0,0,0-.15,1.42,3.59,3.59,0,0,1,.71,2.12l.14,2.19a4.16,4.16,0,0,0,.57,1.7c.21.5.85.71,1.7.78l.56-.14a.72.72,0,0,0,.35-.5,9.48,9.48,0,0,1,.92-4.95,7.71,7.71,0,0,1,3.54-2.83,1.28,1.28,0,0,0,0-1.41l-.57-1.13a1.77,1.77,0,0,0-1.55.21Z"/><path class="cls-2" d="M75,50.21c-.85-.71-1.91-.71-3.26-.14a10.14,10.14,0,0,0-2.54,3.32A8.17,8.17,0,0,0,68.49,57a6.4,6.4,0,0,0,1.27,3.11,6.73,6.73,0,0,0,3.33,2h.21L74,60.6a2.43,2.43,0,0,0-.07-1.2l-.64-.56-.71-.43-.71-.7a4,4,0,0,1-.07-1.35l3.61-1.63.64-.56c.07-1.84-.29-3.18-1.06-4Zm-2.48,1.06,1.06.07a1.46,1.46,0,0,1,.64.85,1.69,1.69,0,0,1-.43,1.27,6,6,0,0,1-2.19,1.27c-.28.15-.42-.28-.14-1.34a3.32,3.32,0,0,1,1.06-2.12Z"/><path class="cls-2" d="M66.23,45.75A1.53,1.53,0,0,0,66,44.48a2.68,2.68,0,0,0-2.4-.21l-.42,2.83-.08,1-.42.92-1.63.21a3.32,3.32,0,0,0-1.34.28,5.49,5.49,0,0,0-.78,2.26.83.83,0,0,0,.71.64H61a1.11,1.11,0,0,1,.92.35,17.18,17.18,0,0,0-.14,4.53C62,58.2,63,59,65,59.4c.57,0,1.06-.35,1.35-1.2s.42-1.41.07-1.91a3.58,3.58,0,0,1-1.7-1.48A4.86,4.86,0,0,1,65,52.33l1.63-.14,1.2.14a.71.71,0,0,0,.71-.42,3.33,3.33,0,0,0,.14-1.84l-.35-.5-.43-.21H66.58l-1.13.07L66,47l.22-1.21Z"/><path class="cls-2" d="M58.45,44.55l-2-.07a18.92,18.92,0,0,0-4,4.46c-.78,1.27-.21,3.11,1.69,5.51A2.22,2.22,0,0,1,54.06,57l-1.48,2.4a3.56,3.56,0,0,0-.64,2c.14.57,1,.92,2.62,1.2a7.92,7.92,0,0,0,3.25-4.73,6.13,6.13,0,0,0-1.13-5.8,2.08,2.08,0,0,1,.57-2.9,19.44,19.44,0,0,1,2.4-2,6.46,6.46,0,0,0-1.2-2.62Z"/><path class="cls-2" d="M50.39,50.07a5.79,5.79,0,0,0-1.49-2.48A2.6,2.6,0,0,0,47.06,47a3.47,3.47,0,0,0-1.84,1.13,9.16,9.16,0,0,0-2,4.52,7.1,7.1,0,0,0,.64,4.6c.71,1.34,2.19,1.56,4.31.78A6.36,6.36,0,0,0,51,53.25a8,8,0,0,0-.56-3.18ZM46.57,51.2a1.17,1.17,0,0,1,1.48-.42,6.32,6.32,0,0,1,.64,2.68,2.55,2.55,0,0,1-1.42,2.19c-.77.08-1.27-.14-1.48-.77A3,3,0,0,1,45.72,53a4,4,0,0,1,.85-1.77Z"/><path class="cls-2" d="M42.61,49.86a9.38,9.38,0,0,0-.5-3.54,4.4,4.4,0,0,0-1.48-2.55,2.74,2.74,0,0,0-1.91-.63,2.49,2.49,0,0,0-2,.92,9,9,0,0,0-2.26,4.66,7.69,7.69,0,0,0,.49,5c.71,1.49,2.33,1.84,4.6,1.14a6.45,6.45,0,0,0,3-5Zm-4.1,2a1.46,1.46,0,0,1-1.56-1,3.41,3.41,0,0,1,0-2.05A2.88,2.88,0,0,1,38,47a1.25,1.25,0,0,1,1.56-.43,10,10,0,0,1,.56,3,2.62,2.62,0,0,1-1.62,2.27Z"/><path class="cls-2" d="M31.08,46.53a5,5,0,0,0-2.83-1.62,7.74,7.74,0,0,0-3.39-.08l-3.68.64.14,3.33,1.13,18,.22.28.28.14,4.45.14,4.74-.28a13.43,13.43,0,0,0,4-1.41,4,4,0,0,0,2.12-2.76c.22-2.62-.42-4.6-1.9-5.87a13.27,13.27,0,0,0-4.95-2.48,3.88,3.88,0,0,0,1.27-1.91,8.77,8.77,0,0,0,.14-2,8,8,0,0,0-1.77-4.1Zm-7.5.71a5.07,5.07,0,0,1,2.55-.35c1.34.14,2,.56,2,1.41a2.33,2.33,0,0,1-1.49,2.19l-2.82.43a12.07,12.07,0,0,1-.29-2.05,3.48,3.48,0,0,1,.07-1.63Zm2.34,11.95-.43-.14c-.21-.07-.35-.14-.35-.21l-.35-1.35V56.08l1.55-.28,2.55-.07,2.4.42a2.83,2.83,0,0,1,1.49,1.13,2.1,2.1,0,0,1-.85,1.7,4.24,4.24,0,0,1-1.84.49L27.9,59.4l-2-.21Z"/><path class="cls-1" d="M80.44,55.23,79,56.5l-.78.5-.5-.57-.49-.49c-.43.28-.92.49-1.28.7a1.55,1.55,0,0,0-.14,1.42,3.59,3.59,0,0,1,.71,2.12l.14,2.19a4.16,4.16,0,0,0,.57,1.7c.21.5.85.71,1.69.78l.57-.14a.72.72,0,0,0,.35-.5,9.48,9.48,0,0,1,.92-4.95,7.71,7.71,0,0,1,3.54-2.83,1.28,1.28,0,0,0,0-1.41l-.57-1.13a1.77,1.77,0,0,0-1.55.21,8.41,8.41,0,0,0-1.7,1.13m-6.86-3.89a1.46,1.46,0,0,1,.64.85,1.69,1.69,0,0,1-.43,1.27,6,6,0,0,1-2.19,1.27c-.28.15-.42-.28-.14-1.34a3.28,3.28,0,0,1,1.06-2.12l1.06.07m-1.84-1.27a10.14,10.14,0,0,0-2.54,3.32A8.17,8.17,0,0,0,68.49,57a6.4,6.4,0,0,0,1.27,3.11,6.73,6.73,0,0,0,3.33,2h.21L74,60.6a2.43,2.43,0,0,0-.07-1.2l-.64-.56-.71-.43-.71-.7a4,4,0,0,1-.07-1.35l3.61-1.63.64-.56c.07-1.84-.29-3.18-1.06-4s-1.91-.71-3.26-.14M66,44.48a2.68,2.68,0,0,0-2.4-.21l-.42,2.83-.08,1-.42.92-1.63.21a3.32,3.32,0,0,0-1.34.28,5.49,5.49,0,0,0-.78,2.26.83.83,0,0,0,.71.64H61a1.11,1.11,0,0,1,.92.35,17.19,17.19,0,0,0-.14,4.53C62,58.2,63,59,65,59.4c.57,0,1.06-.35,1.35-1.2s.42-1.41.07-1.91a3.58,3.58,0,0,1-1.7-1.48A4.86,4.86,0,0,1,65,52.33l1.63-.14,1.2.14a.71.71,0,0,0,.71-.42,3.33,3.33,0,0,0,.14-1.84l-.35-.5-.43-.21H66.58l-1.13.07L66,47l.22-1.21A1.53,1.53,0,0,0,66,44.48m-9.54,0a18.69,18.69,0,0,0-4,4.46c-.78,1.27-.21,3.11,1.69,5.51A2.22,2.22,0,0,1,54.06,57l-1.48,2.4a3.56,3.56,0,0,0-.64,2c.14.57,1,.92,2.62,1.2a7.92,7.92,0,0,0,3.25-4.73,6.13,6.13,0,0,0-1.13-5.8,2.08,2.08,0,0,1,.57-2.9,19.44,19.44,0,0,1,2.4-2,6.53,6.53,0,0,0-1.2-2.62l-2-.07M48.9,47.59A2.6,2.6,0,0,0,47.06,47a3.47,3.47,0,0,0-1.84,1.13,9.16,9.16,0,0,0-2,4.52,7.1,7.1,0,0,0,.64,4.6c.71,1.34,2.19,1.56,4.31.78A6.36,6.36,0,0,0,51,53.25a8,8,0,0,0-.56-3.18,5.79,5.79,0,0,0-1.49-2.48m-.85,3.19a6.32,6.32,0,0,1,.64,2.68,2.55,2.55,0,0,1-1.42,2.19c-.77.08-1.27-.14-1.48-.77A3,3,0,0,1,45.72,53a4,4,0,0,1,.85-1.77,1.17,1.17,0,0,1,1.48-.42m-5.94-4.46a4.4,4.4,0,0,0-1.48-2.55,2.76,2.76,0,0,0-1.91-.63,2.49,2.49,0,0,0-2,.92,9.14,9.14,0,0,0-2.27,4.66,7.76,7.76,0,0,0,.5,5c.71,1.49,2.33,1.84,4.6,1.14a6.45,6.45,0,0,0,3-5,9.38,9.38,0,0,0-.5-3.54M37,50.85a3.41,3.41,0,0,1,0-2.05A2.84,2.84,0,0,1,38,47a1.25,1.25,0,0,1,1.56-.43,10,10,0,0,1,.56,3,2.62,2.62,0,0,1-1.62,2.27,1.46,1.46,0,0,1-1.56-1M36.6,65.48a3.74,3.74,0,0,0,1.69-2.54c.22-2.62-.42-4.6-1.91-5.87a13.13,13.13,0,0,0-5-2.48,3.84,3.84,0,0,0,1.28-1.91,8.77,8.77,0,0,0,.14-2,8,8,0,0,0-1.77-4.1,5,5,0,0,0-2.83-1.62,7.74,7.74,0,0,0-3.39-.08l-3.4.64m5.17,5-2.83.43a12.07,12.07,0,0,1-.29-2.05L23.44,48m8.14,11.24-1.49.28L27.9,59.4l-2-.21-.43-.14c-.21-.07-.35-.14-.35-.21l-.35-1.35v-.63"/><path class="cls-2" d="M82.14,54.1a8.41,8.41,0,0,0-1.7,1.13L79,56.5l-.78.5-.5-.57-.49-.49c-.43.28-.92.49-1.27.7a1.52,1.52,0,0,0-.15,1.42,3.59,3.59,0,0,1,.71,2.12l.14,2.19a4.16,4.16,0,0,0,.57,1.7c.21.5.85.71,1.7.78l.56-.14a.72.72,0,0,0,.35-.5,9.48,9.48,0,0,1,.92-4.95,7.71,7.71,0,0,1,3.54-2.83,1.28,1.28,0,0,0,0-1.41l-.57-1.13a1.77,1.77,0,0,0-1.55.21Z"/><path class="cls-2" d="M75,50.21c-.85-.71-1.91-.71-3.26-.14a10.14,10.14,0,0,0-2.54,3.32A8.17,8.17,0,0,0,68.49,57a6.4,6.4,0,0,0,1.27,3.11,6.73,6.73,0,0,0,3.33,2h.21L74,60.6a2.43,2.43,0,0,0-.07-1.2l-.64-.56-.71-.43-.71-.7a4,4,0,0,1-.07-1.35l3.61-1.63.64-.56c.07-1.84-.29-3.18-1.06-4Zm-2.48,1.06,1.06.07a1.46,1.46,0,0,1,.64.85,1.69,1.69,0,0,1-.43,1.27,6,6,0,0,1-2.19,1.27c-.28.15-.42-.28-.14-1.34a3.32,3.32,0,0,1,1.06-2.12Z"/><path class="cls-2" d="M66.23,45.75A1.53,1.53,0,0,0,66,44.48a2.68,2.68,0,0,0-2.4-.21l-.42,2.83-.08,1-.42.92-1.63.21a3.32,3.32,0,0,0-1.34.28,5.49,5.49,0,0,0-.78,2.26.83.83,0,0,0,.71.64H61a1.11,1.11,0,0,1,.92.35,17.18,17.18,0,0,0-.14,4.53C62,58.2,63,59,65,59.4c.57,0,1.06-.35,1.35-1.2s.42-1.41.07-1.91a3.58,3.58,0,0,1-1.7-1.48A4.86,4.86,0,0,1,65,52.33l1.63-.14,1.2.14a.71.71,0,0,0,.71-.42,3.33,3.33,0,0,0,.14-1.84l-.35-.5-.43-.21H66.58l-1.13.07L66,47l.22-1.21Z"/><path class="cls-2" d="M58.45,44.55l-2-.07a18.92,18.92,0,0,0-4,4.46c-.78,1.27-.21,3.11,1.69,5.51A2.22,2.22,0,0,1,54.06,57l-1.48,2.4a3.56,3.56,0,0,0-.64,2c.14.57,1,.92,2.62,1.2a7.92,7.92,0,0,0,3.25-4.73,6.13,6.13,0,0,0-1.13-5.8,2.08,2.08,0,0,1,.57-2.9,19.44,19.44,0,0,1,2.4-2,6.46,6.46,0,0,0-1.2-2.62Z"/><path class="cls-2" d="M50.39,50.07a5.79,5.79,0,0,0-1.49-2.48A2.6,2.6,0,0,0,47.06,47a3.47,3.47,0,0,0-1.84,1.13,9.16,9.16,0,0,0-2,4.52,7.1,7.1,0,0,0,.64,4.6c.71,1.34,2.19,1.56,4.31.78A6.36,6.36,0,0,0,51,53.25a8,8,0,0,0-.56-3.18ZM46.57,51.2a1.17,1.17,0,0,1,1.48-.42,6.32,6.32,0,0,1,.64,2.68,2.55,2.55,0,0,1-1.42,2.19c-.77.08-1.27-.14-1.48-.77A3,3,0,0,1,45.72,53a4,4,0,0,1,.85-1.77Z"/><path class="cls-2" d="M42.61,49.86a9.38,9.38,0,0,0-.5-3.54,4.4,4.4,0,0,0-1.48-2.55,2.74,2.74,0,0,0-1.91-.63,2.49,2.49,0,0,0-2,.92,9,9,0,0,0-2.26,4.66,7.69,7.69,0,0,0,.49,5c.71,1.49,2.33,1.84,4.6,1.14a6.45,6.45,0,0,0,3-5ZM38,47a1.25,1.25,0,0,1,1.56-.43,10,10,0,0,1,.56,3,2.62,2.62,0,0,1-1.62,2.27,1.46,1.46,0,0,1-1.56-1,3.44,3.44,0,0,1,0-2.06A2.88,2.88,0,0,1,38,47Z"/><path class="cls-2" d="M31.08,46.53a5,5,0,0,0-2.83-1.62,7.74,7.74,0,0,0-3.39-.08l-3.68.64.14,3.33.85,14.42.21,4.17h5l4.74-.28a13.43,13.43,0,0,0,4-1.41,4,4,0,0,0,2.12-2.76c.22-2.62-.42-4.6-1.91-5.87a13.13,13.13,0,0,0-5-2.48,3.84,3.84,0,0,0,1.28-1.91,8.77,8.77,0,0,0,.14-2,8,8,0,0,0-1.77-4.1ZM23.8,50.92a12.07,12.07,0,0,1-.29-2.05,3.3,3.3,0,0,1,.08-1.63,5,5,0,0,1,2.54-.35c1.34.14,2,.56,2,1.41a2.32,2.32,0,0,1-1.48,2.19l-2.83.43Zm2.12,8.27-.43-.14c-.21-.07-.35-.14-.35-.21l-.35-1.35V56.08l1.55-.28,2.55-.07,2.4.42a2.83,2.83,0,0,1,1.49,1.13,2.1,2.1,0,0,1-.85,1.7,4.24,4.24,0,0,1-1.84.49L27.9,59.4l-2-.21Z"/><path class="cls-1" d="M152.82,54a1.46,1.46,0,0,1-.07,1.2,4.65,4.65,0,0,1-1.7,1.49c-.21.14-.42-.28-.49-1.27a3.25,3.25,0,0,1,.35-2.13H152a1.11,1.11,0,0,1,.85.71m-7.36-6V46.46A3.62,3.62,0,0,0,143,47a5.71,5.71,0,0,0-2.34,2.12A18.15,18.15,0,0,0,138.39,56a10.56,10.56,0,0,0,1.06,6.37,4.19,4.19,0,0,0,2.62,2,6.62,6.62,0,0,0,3,.28,3,3,0,0,0,1.2-.35l.14-.64.07-1.27A1.53,1.53,0,0,0,145.46,61c-2.4-1.06-3.46-2.19-3.11-3.46s1.42-2.27,3.25-3.47c.29-.49.29-1.62-.14-3.46a7.68,7.68,0,0,1,0-2.55m-9.83-3.53c-.35-.08-.7.14-1.13.56a4.24,4.24,0,0,0-1,1.34,6.11,6.11,0,0,0-.42,2.55,4.29,4.29,0,0,0,.7,2.26,1.42,1.42,0,0,0,1.14.36l1.27-.36c.56-.56.85-1.69.78-3.39s-.57-2.83-1.35-3.32m.64,8a16.23,16.23,0,0,0-2.83-.71,1.85,1.85,0,0,0-.78.85A2.81,2.81,0,0,0,132.1,54a19.53,19.53,0,0,0,.28,3.18c.21,1.35.42,2.41.64,3.26l.49,1.76a5.17,5.17,0,0,0,1.49-.56c.77-.5,1.27-.78,1.34-1l.28-4a7.76,7.76,0,0,0-.07-2.26l.07-1.06a1,1,0,0,0-.35-.92m-7-4.6-.5.14-.56.85a12.85,12.85,0,0,0-.85,4,5.63,5.63,0,0,1-1.2,3.54c-1.2.85-1.91,1.06-2.12.63a3.34,3.34,0,0,1-.07-2l.63-3,.5-1.69c.14-.71.21-1.07.07-1.28l-2.55.14-1,1.28A4.5,4.5,0,0,0,121,52a16.56,16.56,0,0,0-.22,3.4v4.24c.43,2.19,1.28,3,2.34,2.69a6.62,6.62,0,0,1,3.25-.5l.28.78.14.42.43.07,1.2-.07h2.12c.43-.07.64-.14.64-.35L131,62l-.5-1.69a5.1,5.1,0,0,1-.42-2c.07-1.28.14-2.83.28-4.81s.42-3.54.64-5a4.41,4.41,0,0,0-1.77-.64m-16.62-4.38-.64.35-.28.35a42.31,42.31,0,0,0,1.42,4.67,37.7,37.7,0,0,1,1.27,6.22,12.19,12.19,0,0,1-.43,5.38c-.56,1.55-1.91,2.26-4.1,2.12-.21-.07-.42-.35-.35-.85l-.07-.92c-.14-.21-.5-.28-1-.35l-1.13.07A3,3,0,0,0,106,61.87c-.49.78-.7,1.27-.63,1.63a2.5,2.5,0,0,0,1.2,1.91,7.32,7.32,0,0,0,2.54,1.06l1.28.21h1.34a6,6,0,0,0,3.4-1A7.27,7.27,0,0,0,117,63.5a11.14,11.14,0,0,0,1.77-5.59,31.65,31.65,0,0,0-.35-6.72l-1.06-6.93a2,2,0,0,0-1.2-.63l-.92-.29-1-.21a2.92,2.92,0,0,0-1.56.36M148.93,51l-1.27,2.41a6.47,6.47,0,0,0-.5,2.75,14.18,14.18,0,0,0,.35,2.69,10.64,10.64,0,0,0,.92,2.48,7.14,7.14,0,0,0,6.93,4l.64-.29c.42-.21.64-.42.71-.7l-.22-1.21-.21-1.2-1-.49-.92-.43c-.14,0-.21.14-.35.36l-.5.28a1.72,1.72,0,0,1-1-.64,2.45,2.45,0,0,1-.77-1.41l3.18-2.9.85-1.13.07-1.2a4.47,4.47,0,0,0-1.63-1.63L152.39,52l-1.76-1.13a1.39,1.39,0,0,0-1.7.14"/><path class="cls-1" d="M153,54.16a3.09,3.09,0,0,1-1.63,1.49c-.28.21-.42-.21-.56-1.27a3.82,3.82,0,0,1,.35-2.05l1.06-.08a1.26,1.26,0,0,1,.85.71,1.24,1.24,0,0,1-.07,1.2m-11.39-5.09a16.28,16.28,0,0,0-2.12,6.37,10.85,10.85,0,0,0,1,6.43,4.05,4.05,0,0,0,2.2,2,6.25,6.25,0,0,0,3.46.29l.28-.78.22-1.13a1.75,1.75,0,0,0,.28-.92,1,1,0,0,0-.57-1c-2.26-1.06-3.25-2.13-3-3.33s1.42-2.33,3.33-3.53c.28-.5.21-1.63-.15-3.47a16.53,16.53,0,0,0-1-3.39c-1.48-.22-2.75.56-4,2.47m-7.35-3.18a5.46,5.46,0,0,0-.43,2.55,3.92,3.92,0,0,0,.71,2.19l1.84.07a4.46,4.46,0,0,0,.71-3.18,3.61,3.61,0,0,0-1.28-2.9c-.7,0-1.2.42-1.55,1.27m3.18,7.92a1.8,1.8,0,0,0-1.06-1.13,14.55,14.55,0,0,0-2.9-.71c-.35.07-.42.5-.42,1.49l.28,3.18.49,3.25.57,1.7c.28.07.78-.14,1.56-.57l1.34-1a35.74,35.74,0,0,1,.21-4,4.68,4.68,0,0,0-.07-2.26m-6.22-6.51-.92.08-.71.28c-.35.14-.56.21-.63.35a15.94,15.94,0,0,0-.78,4,5.3,5.3,0,0,1-1.13,3.54c-1.28.85-2,1.06-2.12.63a2.72,2.72,0,0,1-.08-2.05l.57-3c.35-1.06.35-1.76,0-2.12l-2.55.14a3,3,0,0,0-1,2,12.6,12.6,0,0,0-.21,3.4v4.24c.43,2.12,1.2,3,2.34,2.69a8.3,8.3,0,0,1,3.18-.57l.21,1,.14.57c.14.21.28.28.64.28l1.41-.07h1.49a10,10,0,0,1-.14-1.63l.07-3.67.28-4.81.64-5-.71-.36m-18.32-3.67c.22.85.71,2.4,1.42,4.73a38.89,38.89,0,0,1,1.27,6.16,11,11,0,0,1-.42,5.37c-.57,1.49-1.91,2.26-4.11,2.19A4.75,4.75,0,0,1,109.54,61a1.73,1.73,0,0,0-1.34-.42c-1.21.92-1.7,1.7-1.63,2.4a2.6,2.6,0,0,0,1.13,1.84,11,11,0,0,0,2.62,1.2l2.61.29A8,8,0,0,0,118.24,63a12,12,0,0,0,1.69-5.65,24.63,24.63,0,0,0-.35-6.72l-1.06-6.86a1.81,1.81,0,0,0-1.2-.64L115.48,43l-1.7.21c-.56.14-.85.29-.85.43M149,51.19a8.06,8.06,0,0,0-1.2,4.46,8.51,8.51,0,0,0,1,4.24,7.85,7.85,0,0,0,3,3.18,5.16,5.16,0,0,0,1.76.92l2.27.36.7-.07V62.37a1.8,1.8,0,0,0-.56-1.28,1.87,1.87,0,0,0-.92-.42l-1.13-.35-1-.57a4,4,0,0,1-.78-1.48l3.18-2.83.43-.85c-.78-2.19-1.84-3.61-3.12-4.1l-2-.21a2.55,2.55,0,0,0-1.55.91"/><path class="cls-2" d="M150.63,50.84a1.39,1.39,0,0,0-1.7.14l-1.27,2.41a6.47,6.47,0,0,0-.5,2.75,14.18,14.18,0,0,0,.35,2.69,10.64,10.64,0,0,0,.92,2.48,7.14,7.14,0,0,0,6.93,4l.64-.29c.42-.21.64-.42.71-.7l-.22-1.21-.21-1.2-1-.49-.92-.43c-.14,0-.21.14-.35.36l-.5.28a1.72,1.72,0,0,1-1-.64,2.45,2.45,0,0,1-.77-1.41l3.18-2.9.85-1.13.07-1.2a4.47,4.47,0,0,0-1.63-1.63L152.39,52l-1.76-1.13Zm.28,2.47H152a1.12,1.12,0,0,1,.85.71,1.46,1.46,0,0,1-.07,1.2,4.65,4.65,0,0,1-1.7,1.49c-.21.14-.43-.28-.5-1.27a3.3,3.3,0,0,1,.36-2.13Z"/><path class="cls-2" d="M145.46,50.56a7.68,7.68,0,0,1,0-2.55V46.46A3.62,3.62,0,0,0,143,47a5.71,5.71,0,0,0-2.34,2.12A18.21,18.21,0,0,0,138.39,56a10.56,10.56,0,0,0,1.06,6.37,4.19,4.19,0,0,0,2.62,2,6.62,6.62,0,0,0,3,.28,3,3,0,0,0,1.2-.35l.14-.64.07-1.27A1.53,1.53,0,0,0,145.46,61c-2.4-1.06-3.46-2.19-3.11-3.46s1.42-2.27,3.25-3.47c.29-.49.29-1.62-.14-3.46Z"/><path class="cls-2" d="M137,47.8c-.07-1.7-.57-2.83-1.35-3.32-.35-.08-.7.14-1.13.56a4.24,4.24,0,0,0-1,1.34,6.11,6.11,0,0,0-.42,2.55,4.29,4.29,0,0,0,.7,2.26,1.42,1.42,0,0,0,1.14.36l1.27-.36c.56-.56.85-1.69.78-3.39Z"/><path class="cls-2" d="M136.62,53.39a1,1,0,0,0-.35-.92,16.23,16.23,0,0,0-2.83-.71,1.85,1.85,0,0,0-.78.85A2.81,2.81,0,0,0,132.1,54a19.53,19.53,0,0,0,.28,3.18c.21,1.35.42,2.41.64,3.26l.49,1.76a5.17,5.17,0,0,0,1.49-.56c.77-.5,1.27-.78,1.34-1l.28-4a7.76,7.76,0,0,0-.07-2.26l.07-1.06Z"/><path class="cls-2" d="M131,48.51a4.41,4.41,0,0,0-1.77-.64l-.5.14-.56.85a12.85,12.85,0,0,0-.85,4,5.69,5.69,0,0,1-1.2,3.54c-1.2.85-1.91,1.06-2.12.63a3.41,3.41,0,0,1-.08-2l.64-3,.5-1.69c.14-.71.21-1.07.07-1.28l-2.55.14-1,1.28A4.77,4.77,0,0,0,121,52a17.34,17.34,0,0,0-.21,3.4v4.24c.43,2.19,1.28,3,2.34,2.69a6.62,6.62,0,0,1,3.25-.5l.28.78.14.42.43.07,1.2-.07h2.12c.43-.07.64-.14.64-.35L131,62l-.5-1.69a5.1,5.1,0,0,1-.42-2c.07-1.28.14-2.83.28-4.81s.42-3.54.64-5Z"/><path class="cls-2" d="M114.21,43.13a2.92,2.92,0,0,0-1.56.36l-.64.35-.28.35a42.31,42.31,0,0,0,1.42,4.67,37.7,37.7,0,0,1,1.27,6.22,12.19,12.19,0,0,1-.43,5.38c-.56,1.55-1.91,2.26-4.1,2.12-.21-.07-.42-.35-.35-.85l-.07-.92c-.14-.21-.5-.28-1-.35l-1.13.07A3,3,0,0,0,106,61.87c-.49.78-.7,1.27-.63,1.63a2.5,2.5,0,0,0,1.2,1.91,7.32,7.32,0,0,0,2.54,1.06l1.28.21h1.34a6,6,0,0,0,3.4-1A7.27,7.27,0,0,0,117,63.5a11.14,11.14,0,0,0,1.77-5.59,31.65,31.65,0,0,0-.35-6.72l-1.06-6.93a2,2,0,0,0-1.21-.63l-.91-.29-1-.21Z"/><path class="cls-2" d="M150.56,50.27a2.6,2.6,0,0,0-1.56.92,8.06,8.06,0,0,0-1.2,4.46,8.51,8.51,0,0,0,1,4.24,7.85,7.85,0,0,0,3,3.18,5.1,5.1,0,0,0,1.77.92l2.26.36.71-.07V62.37a1.81,1.81,0,0,0-.57-1.28,1.87,1.87,0,0,0-.92-.42l-1.13-.35-1-.57a4.12,4.12,0,0,1-.78-1.48l3.18-2.83.43-.85c-.78-2.19-1.84-3.61-3.11-4.1l-2.05-.22ZM153.1,53a1.24,1.24,0,0,1-.07,1.2,3.09,3.09,0,0,1-1.63,1.49c-.28.21-.42-.21-.56-1.27a3.82,3.82,0,0,1,.35-2.05l1.06-.08a1.26,1.26,0,0,1,.85.71Z"/><path class="cls-2" d="M145.6,46.6c-1.48-.22-2.75.56-4,2.47a16.28,16.28,0,0,0-2.12,6.37,10.85,10.85,0,0,0,1,6.43,4,4,0,0,0,2.2,2,6.16,6.16,0,0,0,3.46.28l.28-.77.22-1.13a1.75,1.75,0,0,0,.28-.92,1,1,0,0,0-.57-1c-2.26-1.06-3.25-2.13-3-3.33s1.42-2.33,3.33-3.53c.28-.5.21-1.63-.15-3.47a16.53,16.53,0,0,0-1-3.39Z"/><path class="cls-2" d="M135.85,44.62c-.71,0-1.21.42-1.56,1.27a5.32,5.32,0,0,0-.42,2.55,3.91,3.91,0,0,0,.7,2.19l1.84.07a4.46,4.46,0,0,0,.71-3.18,3.63,3.63,0,0,0-1.27-2.9Z"/><path class="cls-2" d="M137.54,56.07a4.68,4.68,0,0,0-.07-2.26,1.83,1.83,0,0,0-1.06-1.13,14.55,14.55,0,0,0-2.9-.71c-.35.07-.42.5-.42,1.49l.28,3.18.49,3.25.57,1.7c.28.07.78-.14,1.56-.57l1.34-1a35.74,35.74,0,0,1,.21-4Z"/><path class="cls-2" d="M132,47.66l-.71-.36-.92.08-.71.28c-.35.14-.56.21-.63.35a15.94,15.94,0,0,0-.78,4,5.3,5.3,0,0,1-1.13,3.54c-1.28.85-2,1.06-2.13.64a2.81,2.81,0,0,1-.07-2.06l.57-3c.35-1.06.35-1.76,0-2.12l-2.55.14a3,3,0,0,0-1,2,12.6,12.6,0,0,0-.21,3.4v4.24c.43,2.12,1.2,3,2.33,2.69a8.38,8.38,0,0,1,3.19-.57l.21,1,.14.57c.14.21.28.28.64.28l1.41-.07h1.49a8.88,8.88,0,0,1-.15-1.63l.08-3.67.28-4.81.64-5Z"/><path class="cls-2" d="M113.78,43.2c-.56.14-.85.29-.85.43.22.85.71,2.4,1.42,4.73a38.89,38.89,0,0,1,1.27,6.16,11,11,0,0,1-.42,5.37c-.57,1.49-1.91,2.26-4.11,2.19A4.75,4.75,0,0,1,109.54,61a1.73,1.73,0,0,0-1.34-.42c-1.21.92-1.7,1.7-1.63,2.4a2.6,2.6,0,0,0,1.13,1.84,11,11,0,0,0,2.62,1.2l2.61.29A8,8,0,0,0,118.24,63a12,12,0,0,0,1.69-5.65,24.63,24.63,0,0,0-.35-6.72l-1.06-6.86a1.81,1.81,0,0,0-1.2-.64L115.48,43l-1.7.21Z"/><path class="cls-1" d="M153,54.16a3.09,3.09,0,0,1-1.63,1.49c-.28.21-.42-.21-.56-1.27a3.82,3.82,0,0,1,.35-2.05l1.06-.08a1.26,1.26,0,0,1,.85.71,1.24,1.24,0,0,1-.07,1.2m-11.39-5.09a16.28,16.28,0,0,0-2.12,6.37,10.85,10.85,0,0,0,1,6.43,4.05,4.05,0,0,0,2.2,2,6.25,6.25,0,0,0,3.46.29l.28-.78.22-1.13a1.75,1.75,0,0,0,.28-.92,1,1,0,0,0-.57-1c-2.26-1.06-3.25-2.13-3-3.33s1.42-2.33,3.33-3.53c.28-.5.21-1.63-.15-3.47a16.53,16.53,0,0,0-1-3.39c-1.48-.22-2.75.56-4,2.47m-7.35-3.18a5.46,5.46,0,0,0-.43,2.55,3.92,3.92,0,0,0,.71,2.19l1.84.07a4.46,4.46,0,0,0,.71-3.18,3.61,3.61,0,0,0-1.28-2.9c-.7,0-1.2.42-1.55,1.27m3.18,7.92a1.8,1.8,0,0,0-1.06-1.13,14.55,14.55,0,0,0-2.9-.71c-.35.07-.42.5-.42,1.49l.28,3.18.49,3.25.57,1.7c.28.07.78-.14,1.56-.57l1.34-1a35.74,35.74,0,0,1,.21-4,4.68,4.68,0,0,0-.07-2.26m-6.22-6.51-.92.08-.71.28c-.35.14-.56.21-.63.35a15.94,15.94,0,0,0-.78,4,5.3,5.3,0,0,1-1.13,3.54c-1.28.85-2,1.06-2.12.63a2.72,2.72,0,0,1-.08-2.05l.57-3c.35-1.06.35-1.76,0-2.12l-2.55.14a3,3,0,0,0-1,2,12.6,12.6,0,0,0-.21,3.4v4.24c.43,2.12,1.2,3,2.34,2.69a8.3,8.3,0,0,1,3.18-.57l.21,1,.14.57c.14.21.28.28.64.28l1.41-.07h1.49a10,10,0,0,1-.14-1.63l.07-3.67.28-4.81.64-5-.71-.36m-18.32-3.67c.22.85.71,2.4,1.42,4.73a38.89,38.89,0,0,1,1.27,6.16,11,11,0,0,1-.42,5.37c-.57,1.49-1.91,2.26-4.11,2.19A4.75,4.75,0,0,1,109.54,61a1.73,1.73,0,0,0-1.34-.42c-1.21.92-1.7,1.7-1.63,2.4a2.6,2.6,0,0,0,1.13,1.84,11,11,0,0,0,2.62,1.2l2.61.29A8,8,0,0,0,118.24,63a12,12,0,0,0,1.69-5.65,24.63,24.63,0,0,0-.35-6.72l-1.06-6.86a1.81,1.81,0,0,0-1.2-.64L115.48,43l-1.7.21c-.56.14-.85.29-.85.43M149,51.19a8.06,8.06,0,0,0-1.2,4.46,8.51,8.51,0,0,0,1,4.24,7.85,7.85,0,0,0,3,3.18,5.16,5.16,0,0,0,1.76.92l2.27.36.7-.07V62.37a1.8,1.8,0,0,0-.56-1.28,1.87,1.87,0,0,0-.92-.42l-1.13-.35-1-.57a4,4,0,0,1-.78-1.48l3.18-2.83.43-.85c-.78-2.19-1.84-3.61-3.12-4.1l-2-.21a2.55,2.55,0,0,0-1.55.91"/><path class="cls-2" d="M150.56,50.27a2.6,2.6,0,0,0-1.56.92,8.06,8.06,0,0,0-1.2,4.46,8.51,8.51,0,0,0,1,4.24,7.85,7.85,0,0,0,3,3.18,5.1,5.1,0,0,0,1.77.92l2.26.36.71-.07V62.37a1.81,1.81,0,0,0-.57-1.28,1.87,1.87,0,0,0-.92-.42l-1.13-.35-1-.57a4.12,4.12,0,0,1-.78-1.48l3.18-2.83.43-.85c-.78-2.19-1.84-3.61-3.11-4.1l-2.05-.22ZM153.1,53a1.24,1.24,0,0,1-.07,1.2,3.09,3.09,0,0,1-1.63,1.49c-.28.21-.42-.21-.56-1.27a3.82,3.82,0,0,1,.35-2.05l1.06-.08a1.26,1.26,0,0,1,.85.71Z"/><polygon class="cls-2" points="155.29 58.34 155.29 58.62 155.58 58.62 155.58 59.47 155.93 59.47 155.93 58.62 156.28 58.62 156.28 58.34 155.29 58.34 155.29 58.34"/><polygon class="cls-2" points="156.92 58.34 156.35 58.34 156.35 59.47 156.71 59.47 156.71 58.55 156.71 58.55 156.85 59.47 157.2 59.47 157.41 58.55 157.41 58.55 157.41 59.47 157.77 59.47 157.77 58.34 157.2 58.34 157.06 58.97 156.92 58.34 156.92 58.34"/><path class="cls-2" d="M145.6,46.6c-1.48-.22-2.75.56-4,2.47a16.28,16.28,0,0,0-2.12,6.37,10.85,10.85,0,0,0,1,6.43,4,4,0,0,0,2.2,2,6.16,6.16,0,0,0,3.46.28l.28-.77.22-1.13a1.75,1.75,0,0,0,.28-.92,1,1,0,0,0-.57-1c-2.26-1.06-3.25-2.13-3-3.33s1.42-2.33,3.33-3.53c.28-.5.21-1.63-.15-3.47a16.53,16.53,0,0,0-1-3.39Z"/><path class="cls-2" d="M134.57,50.63l1.84.07a4.46,4.46,0,0,0,.71-3.18,3.61,3.61,0,0,0-1.28-2.9c-.7,0-1.2.42-1.55,1.27a5.46,5.46,0,0,0-.43,2.55,4,4,0,0,0,.71,2.19Z"/><path class="cls-2" d="M137.54,56.07a4.68,4.68,0,0,0-.07-2.26,1.83,1.83,0,0,0-1.06-1.13,14.55,14.55,0,0,0-2.9-.71c-.35.07-.42.5-.42,1.49l.28,3.18.49,3.25.57,1.7c.28.07.78-.14,1.56-.57l1.34-1a35.74,35.74,0,0,1,.21-4Z"/><path class="cls-2" d="M132,47.66l-.71-.36-.92.08-.71.28c-.35.14-.56.21-.63.35a15.94,15.94,0,0,0-.78,4,5.3,5.3,0,0,1-1.13,3.54c-1.28.85-2,1.06-2.13.64a2.81,2.81,0,0,1-.07-2.06l.57-3c.35-1.06.35-1.76,0-2.12l-2.55.14a3,3,0,0,0-1,2,12.6,12.6,0,0,0-.21,3.4v4.24c.43,2.12,1.2,3,2.33,2.69a8.38,8.38,0,0,1,3.19-.57l.21,1,.14.57c.14.21.28.28.64.28l1.41-.07h1.49a8.88,8.88,0,0,1-.15-1.63l.08-3.67.28-4.81.64-5Z"/><path class="cls-2" d="M113.78,43.2c-.56.14-.85.29-.85.43.22.85.71,2.4,1.42,4.73a38.89,38.89,0,0,1,1.27,6.16,11,11,0,0,1-.42,5.37c-.57,1.49-1.91,2.26-4.11,2.19A4.75,4.75,0,0,1,109.54,61a1.73,1.73,0,0,0-1.34-.42c-1.21.92-1.7,1.7-1.63,2.4a2.6,2.6,0,0,0,1.13,1.84,11,11,0,0,0,2.62,1.2l2.61.29A8,8,0,0,0,118.24,63a12,12,0,0,0,1.69-5.65,24.63,24.63,0,0,0-.35-6.72l-1.06-6.86a1.81,1.81,0,0,0-1.2-.64L115.48,43l-1.7.21Z"/><path class="cls-2" d="M108.11,38.61l.71-.22a10.67,10.67,0,0,0-4.6-1h-1.13a14.52,14.52,0,0,1,4,.92l.21.07.85.22Z"/><path class="cls-2" d="M108,40.44l2.19-.35a6.45,6.45,0,0,0-2.33-.56l-2.48-.15,2.2-.63a33.34,33.34,0,0,0-9.34.85l2.34.14,2.12-.21,5.09.56-5,.71.35.28,3-.28,1.84-.36Z"/><polygon class="cls-2" points="107.33 41.36 105.71 40.8 106.13 40.8 103.09 41.08 103.59 41.79 107.33 41.36 107.33 41.36"/><polygon class="cls-2" points="107.47 41.44 107.33 41.36 103.59 41.79 103.8 42.35 104.5 42.28 105.5 42.14 108.54 41.79 107.47 41.44 107.47 41.44"/><path class="cls-2" d="M107.26,38.39l-.21-.07-2.76-.21-4.59.42-.15.08-1.41,1h.07a33.34,33.34,0,0,1,9.34-.85l.56-.14-.85-.22Z"/><path class="cls-2" d="M104.29,38.11l2.76.21a14.52,14.52,0,0,0-4-.92l-3.53.29,1.48.07.07.07a13,13,0,0,0-1.41.7l4.59-.42Z"/><polygon class="cls-2" points="105.5 42.14 104.5 42.28 109.17 42.14 108.54 41.79 105.5 42.14 105.5 42.14"/><polygon class="cls-2" points="101.68 40.16 102.74 40.8 107.76 40.09 102.67 39.52 100.55 39.74 101.68 40.16 101.68 40.16"/><polygon class="cls-2" points="101.61 47.94 101.54 48.01 104.86 47.87 102.03 47.52 101.96 47.52 101.68 47.87 101.61 47.94 101.61 47.94"/><path class="cls-2" d="M101.11,48.58l-.28.49,3,.14.42-.14-.63-.35a4.89,4.89,0,0,1,2.12-.5l-.85-.35-3.33.14-.42.57Z"/><path class="cls-2" d="M103.8,49.21l-3-.14-.36.85-.07.5h.07a6.67,6.67,0,0,1,3.33-1.21Z"/><path class="cls-2" d="M100.26,52.61l-.21.78,1,.21,2.33.92h.08l.84-.36a1.38,1.38,0,0,0-.28-.56l-.14-.14-3.61-.85Z"/><path class="cls-2" d="M99.91,53.81l-.21.5a8.23,8.23,0,0,1,3.11.56,5.05,5.05,0,0,0-2.9-1.06Z"/><path class="cls-2" d="M100.05,53.39l-.14.42a5.05,5.05,0,0,1,2.9,1.06,8.23,8.23,0,0,0-3.11-.56l-.43.56a17.26,17.26,0,0,1,3.61.85l.56.14v-.07c-.21-.5-.56-.78-.84-.78a5,5,0,0,1,.77-.49L101,53.6l-1-.21Z"/><path class="cls-2" d="M100.33,51.48l-.07,1.13,3.61.85-.36-.22.71-.21.64-.14c0-.42-.35-.85-1.2-1.2.35.35.14.78-.64,1.27.78-.49,1-.92.64-1.27l-.64-.36-.21-.14L100.4,51l-.07.5Z"/><path class="cls-2" d="M100.4,50.56V51l2.41.21-.29-.07a7.88,7.88,0,0,0-2.12-.56Z"/><path class="cls-2" d="M106.41,58.41c.15-.15-.56-.5-2-1.06l-.63.14.63-.14-.49-.15-2.33-1.13c0-.14.21-.28.77-.21h1.06l-.56-.14a17.26,17.26,0,0,0-3.61-.85l-.21.21a2.82,2.82,0,0,1-2.76.71l-1.41.14-4,.14.63.07,2.2.15c5.09.21,8.41.91,9.83,2.05l2.82.07Z"/><path class="cls-2" d="M100.26,57.84l-.21-.14,3.54.64c-1.42-1.14-4.74-1.84-9.83-2.05l-2.2-.15,1.49.29a5.84,5.84,0,0,1,2.26.63l-3.39-.28-3.47-.35.5-.14-1,.14h0a4.41,4.41,0,0,0-1.06.7,5.93,5.93,0,0,1,4.17.57l5.23-.35,4,.49Z"/><path class="cls-2" d="M100.26,59.82l-.07-.64.78.15a12.37,12.37,0,0,0-3.18-.85l-5.52-.29,2.41.36,4.31.56L93.9,58.9l.56.21h.64a33.86,33.86,0,0,1,5.16.71Z"/><path class="cls-2" d="M100.26,60.74v-.92a33.86,33.86,0,0,0-5.16-.71h-.64c.78.36,1.63.85,2.62,1.35l1.56.56.91.14,1.14.22-.43-.64Z"/><path class="cls-2" d="M98.28,61l.36.07-1.56-.56.42.21L95.1,60H95L94.18,60l1.2.78.78.64a22,22,0,0,1,3.75.85l-.64-.57-1-.71Z"/><path class="cls-2" d="M97.72,62.51h.77l1.49-.07-.07-.21a22,22,0,0,0-3.75-.85l.92.42-2.48-.71-2-.28-2-.14,1.63,1.27-.92-.07-.92-.14c.14,0,.5.28,1.06.78l.43.28.49.43.07.14a7.43,7.43,0,0,0-2.47-1h0l.21.07-2-.57.28.28-.28-.28L88,61.8l.35,1a5.49,5.49,0,0,1,2.76.92,5.49,5.49,0,0,0-2.76-.92v.07l.14.28,1,.5-1-.5.43.57a1.92,1.92,0,0,1-1.21-.35l-.56-.57h-.28l.77,1.13.36.36h1.2a5.06,5.06,0,0,1,1.91.63,2.34,2.34,0,0,1,1.41,0l1.77.21-1.06-.35-1.27-.49,1.27.49,1.06.35-1.06-1.48a2.77,2.77,0,0,1,1.91,1l.35-.21a3.09,3.09,0,0,0-2.68-1.13,3.09,3.09,0,0,1,2.68,1.13l.92-.36.21-.07L96,63.5a8.77,8.77,0,0,0-3.11-1.35A8.77,8.77,0,0,1,96,63.5l.63.49,1.21-.35c0-.14-.15-.35-.43-.64l-.64-.42,1-.07a6.37,6.37,0,0,0-4.39-1.27,6.37,6.37,0,0,1,4.39,1.27Z"/><path class="cls-2" d="M101,59.33l1.2.28c-.14-.57-.78-1.2-1.91-1.77l-4-.49-5.23.35.64.35.56.14,5.52.29a12.37,12.37,0,0,1,3.18.85Z"/><path class="cls-2" d="M93.54,53.6l-.28-.5-1.48.57L88.66,55l1.42.21,1.48-.07-1.69.78-.92.35-.5.15,3.47.35,3.39.28a5.84,5.84,0,0,0-2.26-.63l-1.49-.29-.63-.07,4-.14,1.41-.14-.14-.07-.71-.28-.35-.07-2.9-.15,2-.56-.35-.36-2.19.43a4.21,4.21,0,0,1,1.83-1.13Z"/><path class="cls-2" d="M93.54,53.6a4.21,4.21,0,0,0-1.83,1.13l2.19-.42-.36-.71Z"/><polygon class="cls-2" points="94.39 54.73 94.25 54.66 92.2 55.22 95.1 55.37 95.45 55.44 94.39 54.73 94.39 54.73"/><path class="cls-2" d="M94.46,59.11l-.56-.21,5.09.21-4.31-.56-2.41-.36-.56-.14-1-.35-.36-.14.21.21.71.42,1.27.5,1,.28-.14.14-2.12.15L91,59.18,90.29,59l-1.13-.7.71.77.42.22.35.14.92.35,1.06.35L90.22,60l-2.4-.42v-.07H87.6l.15.07,1.13,1,.21.14,1.2.85-.71.21h-.21l-1.06-.35a3.22,3.22,0,0,0,1.7,1h0a7.43,7.43,0,0,1,2.47,1l-.07-.14-.49-.43-.43-.28c-.56-.5-.92-.78-1.06-.78l.92.14.92.07-1.62-1.27h-.08l-.56-.5h.35a21.28,21.28,0,0,1,3.4.64l.85.28,2.47.71-.92-.42-.78-.64L94.18,60a2.13,2.13,0,0,0-.49-.35L95,60h.07l2.41.64-.43-.21c-1-.5-1.84-1-2.62-1.35Z"/><path class="cls-2" d="M91.56,55.15l-1.48.07L88.66,55l3.12-1.34c-1.91.64-3.82,1.41-5.87,2.33l3.67-.63c-.21.14-.63.42-1.27.77l-.35.29h0l1-.14.92-.36,1.69-.78Z"/><polygon class="cls-2" points="93.4 59.11 93.55 58.97 92.56 58.69 92.63 58.76 90.29 58.97 91 59.19 93.4 59.11 93.4 59.11"/><polygon class="cls-2" points="91 59.19 91.28 59.26 93.4 59.11 91 59.19 91 59.19"/><polygon class="cls-2" points="90.08 59.68 90.22 59.96 92.63 60.1 91.56 59.75 90.08 59.68 90.08 59.68"/><polygon class="cls-2" points="90.64 59.4 90.29 59.26 89.94 59.26 90.08 59.68 91.56 59.75 90.64 59.4 90.64 59.4"/><path class="cls-2" d="M90.57,60.67h.07l2,.14,2,.28-.85-.28a21.28,21.28,0,0,0-3.4-.64l.21.5Z"/><path class="cls-2" d="M93.69,59.61a2.13,2.13,0,0,1,.49.35L95,60l-1.34-.42Z"/><polygon class="cls-2" points="89.87 59.04 89.8 59.04 89.94 59.26 90.29 59.26 89.87 59.04 89.87 59.04"/><polygon class="cls-2" points="89.09 60.67 88.52 60.67 89.23 61.52 89.58 61.73 90.29 61.52 89.09 60.67 89.09 60.67"/><polygon class="cls-2" points="88.52 60.67 89.09 60.67 88.45 60.6 88.52 60.67 88.52 60.67"/><polygon class="cls-2" points="86.83 62.79 87.11 62.79 86.47 62.08 86.83 62.79 86.83 62.79"/><polygon class="cls-2" points="89.58 61.73 89.23 61.52 89.37 61.66 89.37 61.73 89.51 61.73 89.58 61.73 89.58 61.73"/><path class="cls-2" d="M88,64.28l.14.21c.78.21,1.27.42,1.34.63-.07-.21-.56-.42-1.34-.63a9.72,9.72,0,0,1,.71,1.2l.77.42-.77-.42v.07l-2.62.07,1.13.07a2.49,2.49,0,0,1,1,.5,5.64,5.64,0,0,1-2.12.92A15.78,15.78,0,0,0,92.41,66h-.07l-.92-.84L90.86,65l.21-.07a5,5,0,0,0-1.91-.63Z"/><path class="cls-2" d="M86.19,67.32h-.14l.64.35.77.35a1.57,1.57,0,0,1-.56.22l-.21.14-.36.28.5.57h.63l2.48-.64.35-.35L89.44,68c-1.34,0-2-.14-1.84-.49-.14.35.5.49,1.84.49l-.78-.21c0-.14.71-.28,2.06-.42,1.55-.14,2.4-.36,2.61-.64a.56.56,0,0,0,.21-.64L92.41,66a15.78,15.78,0,0,1-6.22,1.28Z"/><polygon class="cls-2" points="86.26 68.59 86.33 68.66 86.69 68.38 86.26 68.59 86.26 68.59"/><polygon class="cls-2" points="89.8 68.73 89.94 68.59 87.46 69.23 86.83 69.23 86.9 69.37 87.61 69.44 87.82 69.44 88.03 69.79 89.37 69.08 89.8 68.73 89.8 68.73"/><path class="cls-2" d="M89.23,69.23l.14-.15L88,69.79l-.07.07-.14.43.14.14,2.54-.21c.57-.15.78-.29.57-.43l-.5-.14-1.06-.14,1.06.14-1.34-.42Z"/><path class="cls-2" d="M88.88,71.06l.07.22.63.07.71-.07c-.21-.14-.28-.29-.07-.43l.14-.14-1.48.35Z"/><path class="cls-2" d="M88.81,70.85l.07.21,1.48-.35,1.42-.64-.71-.28c.21.14,0,.28-.57.43L88,70.43l.85.42Z"/><path class="cls-2" d="M89.58,71.35,89,71.28l-.07.28-.36.42,1.42.29c.63-.07,1-.22,1.13-.57l-.78.07h-.92l.92-.49h0l-.71.07Z"/><polygon class="cls-2" points="90.29 71.77 91.07 71.7 91.07 71.49 90.29 71.28 89.37 71.77 90.29 71.77 90.29 71.77"/><path class="cls-2" d="M90,42.07l.14-.14,1.56-1.13-1.7.35-1.63.43.57-1-.14.14a9.74,9.74,0,0,0-2.62,2.19l1.27.07-1.27-.07L85,44.33h0l-1.28,2.13.92-.85.08-.07A17.31,17.31,0,0,1,90,42.07Z"/><polygon class="cls-2" points="88.81 40.73 88.95 40.59 89.02 40.52 88.81 40.73 88.81 40.73"/><path class="cls-2" d="M85.62,44.83l-.07.14A15.69,15.69,0,0,1,89,42.85l.21-.07.78-.71a17.5,17.5,0,0,0-5.31,3.47l.92-.71Z"/><path class="cls-2" d="M85.48,45h.07l2-1-.63.71-.57.42-.92.92.71-.28,1.34-.43-1.91,1.49.78-.43L87,46.1l-.14.07-.85.78-.43.49-.84.78.84-.56,2.2-1.21h0v-.84h-.07l.07-.14.35-.85-.57.21.57-.64.28-.21.78-1.2-.21.07A15.69,15.69,0,0,0,85.55,45Z"/><polygon class="cls-2" points="85.55 44.97 85.27 45.47 86.9 44.69 87.53 43.98 85.55 44.97 85.55 44.97"/><path class="cls-2" d="M85.41,46l.92-.92.57-.42-1.63.78a16.44,16.44,0,0,1-1.06,1.62l1.91-1.34-.71.28Z"/><polygon class="cls-2" points="87.6 44.83 88.17 44.62 88.31 44.12 88.17 44.19 87.6 44.83 87.6 44.83"/><polygon class="cls-2" points="88.31 44.12 88.45 43.98 88.17 44.19 88.31 44.12 88.31 44.12"/><path class="cls-2" d="M88.45,48.22l-.28-.35v-.21a5.25,5.25,0,0,0-2,1.84l.78-.14,1.55-1.14Z"/><path class="cls-2" d="M87.18,50.27l.85-.21-1.77,1.7,3.68-2A3.25,3.25,0,0,1,89,49l-2.26.78-.57.78,1-.29Z"/><polygon class="cls-2" points="86.9 49.35 86.97 49.43 86.75 49.78 89.02 49 88.45 48.22 86.9 49.35 86.9 49.35"/><polygon class="cls-2" points="89.3 50.84 89.94 50.63 90.01 50.56 91.07 50.27 90.5 50.06 89.3 50.84 89.3 50.84"/><path class="cls-2" d="M89.8,52.61a7,7,0,0,0-1.14,1.48,18,18,0,0,1,4.46-1.34l-.5-1.06L91.35,52,90,52.75l.35-.35-.56.21Z"/><polygon class="cls-2" points="92.63 51.69 92.41 51.48 91.35 52.04 92.63 51.69 92.63 51.69"/><polygon class="cls-2" points="92.41 51.48 92.13 50.98 92.06 50.91 90.36 52.4 90.01 52.75 91.35 52.04 92.41 51.48 92.41 51.48"/><polygon class="cls-2" points="90.86 50.77 91.78 50.63 91.56 50.42 91.07 50.27 90.01 50.56 89.94 50.63 90.86 50.77 90.86 50.77"/><polygon class="cls-2" points="91.78 50.63 90.86 50.77 91.85 50.98 90.15 52.25 89.8 52.61 90.36 52.4 92.06 50.91 91.78 50.63 91.78 50.63"/><path class="cls-1" d="M107.26,38.39l.85.22.57.14h-1.13a33.34,33.34,0,0,0-9.34.85M88,70.43l2.54-.21c.57-.15.78-.29.57-.43l-.5-.14-1.06-.14m10.19-31,4.59-.43,2.76.21m2.55,4.53q2.43-1.38-1.06-1.06l-3,.35-1,.14-.7.07m-.07,1.77a60.74,60.74,0,0,1,6.22-.07,11.64,11.64,0,0,0-4.53-.85l-1.62-.14m-.21-1.27,3.74-.43,2-.21-3.25-.35-3,.28m-2.55-1.34,2.13-.21,5.09.56-5,.71m2.19,10.11c3-.85,2.76-1.34-.78-1.7h-.35l-3-.14m1.7,2a4.8,4.8,0,0,0-2.06-.7h-.07M103,53c.78-.49,1-.92.64-1.27l-.43-.35-.42-.15L100.4,51m3.26,3.75-.29-.21L101,53.6l-1-.21m5.87.92-2-.85-3.61-.85M102,47.52a15.58,15.58,0,0,1,5.23.56l-2.4-.21-3.33.14m5.52-.78c2.12-1,1.27-1.34-2.76-.84l-1.76.21m.49-.78,3.54-.21-3.33-.29m.57,12.17.63-.14c1.42-.36,1.14-.85-1-1.49l-.56-.14a17.26,17.26,0,0,0-3.61-.85m-1.7,9.19c.71.07,1.14-.07,1.07-.42s-.29-.64-.85-1.06l-.07-.07a6.37,6.37,0,0,0-4.39-1.27m-1.06-3.05,5.52.29a12.37,12.37,0,0,1,3.18.85c1.2.49,1.91,1.06,2.12,1.83a10.67,10.67,0,0,0-2.83-1.34,33.86,33.86,0,0,0-5.16-.71h-.64m1.7,2.27a22,22,0,0,1,3.75.85,11.43,11.43,0,0,1,1.62.84,6.73,6.73,0,0,0-2.89-2l-1.56-.56m-5.52-4.32,2.2.15c5.09.21,8.41.91,9.83,2.05a1.49,1.49,0,0,1,.77,1,11.42,11.42,0,0,0-4.1-1.49l-4-.49-5.23.35h-.36m9-3.39a8.23,8.23,0,0,1,3.11.56,5.05,5.05,0,0,0-2.9-1.06M89,40.59l-.14.14a6.44,6.44,0,0,0-2.41,1.41c-.35.36-.49.57-.21.78l1.27.07m5.66,22.77-.71.28a15.78,15.78,0,0,1-6.22,1.28m2.12-23.2-.14.07M90,42.07a17.5,17.5,0,0,0-5.31,3.47l-.56.7,1.13-.77,1.63-.78M89,49l-2.27.78-.35.14.5-.56,1.55-1.14m-.14,5.24,1.49-.85.56-.21m-4.74-4.95c.07-.36.5-.78,1.28-1.28m-.36,2.34c-.56-.29-.85-.5-.92-.85m6.16,3-.92.14-1.63.49m3.39.43L91.35,52m-4.6.21a23.64,23.64,0,0,1,3.47-2.33m1.34,9.83-1.48-.07-2.26-.14m4.1,3.25.49.43m-1.77-2.55,2,.14,2,.28M95.1,60H95L94.18,60M91,59.18l2.4-.07m4.53,6.79A4.85,4.85,0,0,0,96.59,64L96,63.5a8.77,8.77,0,0,0-3.11-1.35M87.53,57.7c-1.13-.57-1-1.06.43-1.27h0l1-.14m-1.13,4.8c0-.14.28-.28.7-.42h.57M87.6,59.54h.15m-.22,4.81-.07-.07c-1.2-.29-1.77-.57-1.91-.78-.07-.5.36-.71,1.28-.71H88m-.14-1.7c-.85-.14-1.28-.07-1.28.29s.43.77,1.28,1.34l.14.07m1.62-1.06-.35-.21L89,61.45l-1.13-.36m.63,1.06-.28-.28c-.35-.35-.42-.56-.35-.78m.14,1.7h.35a5.49,5.49,0,0,1,2.76.92M88,62.79l.49.35,1,.5m.85-4.38h-.35l-2.12.21m1.76,6.64-.77-.42-1.21-.28c-.56-.07-.84-.36-.7-.71l.63-.35m1.91.77c-.07-.21-.56-.42-1.34-.63l-.57-.14m0,0,.43-.07h1.2a5.06,5.06,0,0,1,1.91.63l.35.29m-2,3.88L88,69.79l-.28.07c-.64.36-.64.21-.15-.42m3.33-1.2-1,.35-2.48.64h-.63c-.71.07-.92-.15-.5-.57l.36-.28M88.38,71l.5.07,1.48-.35m.71,1-.78.07h-.92l.92-.49.28-.07-.28.07-.71.07L89,71.28h-.43m-.92-3.75c-.14.35.5.49,1.84.49l1.27-.14c2.27-.21,3.19-.56,2.83-.92m.92-1.84h-.21l-1.06-.35-1.27-.49m3.53,1.41c1.06.21,1.14-.21.15-1.2l-.15-.07a3.09,3.09,0,0,0-2.68-1.13m-2.2-5.52a4,4,0,0,0-1.2.49l1.91-.07"/><path class="cls-1" d="M98.42,37.62l4.67-.22a14.52,14.52,0,0,1,4,.92l.21.07m-22,5.94H85c-1.28-.14-1.35-.7-.14-1.76a12.29,12.29,0,0,1,5-2.69"/><path class="cls-2" d="M98.68,35.44l.28-.35.15-.36a8.59,8.59,0,0,0-2.27,1.06l-2,1.42h0L93.66,36a3.42,3.42,0,0,0-1.41-.64l-.57.71.35.28h.57a1,1,0,0,1,.78.35,1,1,0,0,1,.42.71,15.65,15.65,0,0,0-5.09.85l1.7,1.06-.64.57-.56.49-.15.21h-.14l-.56,1L90,41.1l1.7-.36L90.12,42l-.14.07-.7.7-.85,1.14-.07.21-.22.49-.28.85v.14l-.07.78v.07l.35,1.2.08.15.21.42L89,49l.92.78.36.14.21.14.56.21.5.14.56.5.29.49.21.36.49,1.06.08.07.14.21.21.49.42.64.36.43.07.07,1.13.7.64.29.21.07A2.74,2.74,0,0,0,99,55.1l.28-.21.42-.64.22-.49.14-.36.14-.7.14-1.21V51l.07-.43V50l.36-.92.35-.5.35-.56.07-.07.07-.14.29-.29.07-.07.56-.85.43-.77.28-.5.5-1.2.07-1.06-.07-.5v-.21l-.22-.56-.49-.71-.35-.35a6.54,6.54,0,0,0-1.07-.57l-1.13-.43-2.26-.14h-.07l1.41-1,.15-.07a9.8,9.8,0,0,1,1.41-.71l-.07-.07-1.56-.07-1.06-.07-.85-.07,1.06-2.12Zm-2.4,1.63.14-.14.14-.08.21-.07.78-.56.35-.07-.49.7-.64,1.42.5.07h.49l.22-.07h.77l-2,1.2-.14.07-.07.14v.14l.07.43.14.14v.21l.36.36-.36-.08h-1l-.42.08-.14.14-.36.21-.07.14-.14.07-.21.28-.07.07-.07.15-.14.14V42l.14-.78V41l-.07-.22H94l-.07.07-.21.15h-.07l-.14.07-.64.42-.07.07-.07.07-.14.07h-.07l.14-.35.07-.21.14-.29.07-.14.36-.63h-.07L93.09,40h-.21l-.14-.07H92.6l-.07.08h-.64l-1.27.21.21-.14,2.34-.92.14-.14h.14l.07-.15h.07l-.21-.07h-.14L93,38.69h-.14l-.49-.07h-.21l-1-.21L91,38.34l-.21-.07h.28l.22-.07L92.6,38h.14l.21-.07h1.42l.07.22.14.56-.21.85-.07.5h.07l.07.07h.35l.14-.07.22-.08.07-.07h.07l.21-.14.07-.07.14-.14.07-.07.29-.28.07-.14V39l-.07-.22-.22-.42-.35-.43-.14-.14.14-.14.14-.07.64-.49Zm3.11,3.67H100l.78.22.5.21.21.14.35.35.36.5.21.56.14.71v.28l-.14.64-.21.42-2.48,3.82-.28.85-.14.92v.43l.07.42v.42l-.07.36-.5,1.06-.42.71L98,53.9,97.9,54l-.07.07-.56.28-.64.14h-.28l-.14-.07h-.15l-.42-.14L95,53.83l-.42-.5L94.37,53l-1-2.2-.64-.91-.35-.22-.15-.28L92,49.23,91,48.66l-.21-.14L89.84,48l-.35-.36-.29-.49L89.06,46v-.57l.07-.56.15-.5.14-.21.35-.64.5-.85.35-.42.56-.57.5-.21v1.34l.14.29.07.14a.15.15,0,0,0,.14-.14l.36-.29.49-.56.36-.35-.08.28v.42l.15.85v.21l.14.29.07-.22.14-.14.07-.14.14-.14.07-.07.22-.35.14-.08.21-.28.14-.14.07-.14.57-.43.21-.14h.21l.14-.14h.5l.21-.07h.28l.22.07H98l.49.14h.42l-.21-.14.14-.07-.21-.14-.14-.07-.14-.07-.07-.07-.14-.29v-.07Z"/><path class="cls-2" d="M100,40.74H98.12v.07l.14.29.07.07.14.07.14.07.22.14-.15.07.22.14h-.43L98,41.52h-.92l-.22-.07h-.28l-.21.07h-.5l-.14.14H95.5l-.21.15-.57.42-.07.14-.14.14-.21.29-.14.07-.22.35-.07.07-.14.14-.07.14-.14.14-.07.22-.14-.29v-.21l-.14-.85v-.42l.07-.28-.36.35-.49.57-.36.28a.15.15,0,0,1-.14.14l-.07-.14-.14-.28V41.45l-.5.21-.56.57-.35.42-.5.85-.35.64-.14.21-.15.5-.07.56V46l.15,1.13.28.49.35.36.92.56.21.14,1.06.57.22.14.14.28.35.22.64.92,1,2.19.21.35.42.5.64.49.43.14h.14l.14.08h.28l.64-.14.56-.28L97.9,54,98,53.9l.29-.14.42-.71.5-1.06.07-.35v-.43l-.07-.42v-.43l.14-.92.28-.85,2.48-3.81.21-.43.14-.64v-.28l-.14-.71-.21-.56-.36-.5-.35-.35-.21-.14-.5-.21-.78-.22Zm.22,1.84-.14-.14h.21v.07h.14l.07.07.14.07.07.07.14.07.15.08.07.07.07.14.07.14.14.07v.14l.14.14.07.07v.5l.07.14v.07l-.07.28-.28.57-.14.28-.5.43-.92.92-.84,1-.22.56-.07-.64.14-.56.36-.57,1.13-1.48.28-.5.14-.28v-1l-.14-.21-.21-.43-.07-.14Zm-2.69-.78h.14l.14.08v.84l-.14.22-.07.07h-.21l-.07-.07h0l-.07-.07v-.15l-.07-.07v-.14l-.08-.14L97.2,42l.07-.22h.21Zm1.13,1.63.07.07v.43l.07.07v.28l-.07.14v.21h-.07l-.07.07-.07.07h-.21L98,44.63,98,44.14v-.21l.07-.15.08-.14.14-.14.07-.07h.28Zm-2.76,3.33v.35l.07.07v.28l-.07.07v.36l-.07.07-.14.07-.14.07L95.36,48l-.22-.14v-.07l-.07-.08V47.6l.07-.21V47l.15-.14.07-.07.14-.15h.28l.07.15Zm1.56-.64v-.07l.21-.21.21-.08h.07l.08.08v.63l-.08.14-.14.29V47h-.14V47h-.07v.07h-.07L97.41,47h-.07L97.27,47l-.07-.14v-.22l.07-.21.14-.28Zm.21,2.26v.28l.07.15-.07.07V49l-.07.35-.14.07h-.14l-.07-.07-.15-.07.07-.28v-.14l.08-.29.07-.07v-.07l.21-.07h.07l.07.07Zm-.42,2.76.28-.21.14-.07.36-.22.07-.07.14-.14.07-.07.07-.14.14-.07.07-.14.07-.21.07.35.14.42v.5l-.14.85-.35.77-.21.36-.14.14-.08.07-.14.07-.14.07h-.07l-.28.07H97.2l-.14.07h-.29l-.14-.07h-.14l-.35-.07h.07l.07-.07.63-.21.36-.21-.07-.07h-.5l-.14-.07V52.7h.35v-.08l.15-.07.14-.07h.07l.21-.07.07-.07h.07l.14-.21h.08l-.22-.07h-.14L97.13,52l-.07-.14L97,51.78h.28l.21-.08.07-.07.21-.07.15-.07.07-.07h0l.21-.14h-1l-.07-.07h0l.07-.07Zm-1.35-1.06v.35l-.07.28h-.07l-.07.08h-.21l-.29-.15L95,50.08l.14-.5.15-.35.14-.07.21.28.14.43.07.21Zm-4.17-6.72v.21l.14.36V44H92l.08.14.14.07.07.07.14.07.07.14.07.14.07.15.07.28v.14l.07.21-.07.14v.22l-.07.14v.21l-.07.14-.14.28-.21.29-.29.28h-.07l-.14.14h-.14l-.14.07-.14.07h-.43l-.14-.07-.14-.07-.21-.14-.22-.21-.07-.07L90,46.68l-.07-.14V46.4l-.07-.21v-.64l.07-.21.29-.64.07-.07.35-.35.21-.14.07-.07.07-.14v-.15l.08-.14.07-.14.07-.14.14-.14h.14v.07h.07l.07.07Zm3.11.07.14.14.14.22.08.35.14.49-.07.22-.07.21v.07l-.08.07-.07.07h0l-.07.07h-.35l-.14-.07-.07-.07v-.14L94.29,45l-.07-.14v-.22l.07-.42.08-.21.42-.57Zm-2.05,3h.14l.07.14.07.22.15.35.07.42-.07.43L93,48H93l-.07.07h-.07L92.67,48,92.6,48l-.07-.29-.14-.42v-.14l.07-.21.14-.36v-.07l.14-.07Zm1.49,2.76v.21l.07.14v.14l-.07.15-.07.07-.08.07h-.14l-.07-.07V49.8l-.21-.08v-.14l-.07-.14.07-.14V49l.07-.07h0v-.07h.14V48.8H94V49l.08.07.14.14Zm.92,2.33h.21l.07.14.07.15V52l-.07.42-.07.07-.14-.07h-.07L95,52.2l-.07-.07.07-.35.08-.15.07-.14Z"/><polygon class="cls-2" points="100.03 42.44 100.17 42.58 100.24 42.72 100.45 43.15 100.59 43.36 100.59 43.57 100.59 43.78 100.59 44 100.59 44.35 100.45 44.63 100.17 45.13 99.03 46.61 98.68 47.18 98.54 47.74 98.61 48.38 98.82 47.82 99.67 46.83 100.59 45.91 101.09 45.48 101.23 45.2 101.51 44.63 101.58 44.35 101.58 44.28 101.51 44.14 101.51 43.93 101.51 43.64 101.44 43.57 101.3 43.43 101.3 43.29 101.16 43.22 101.08 43.08 101.01 42.94 100.94 42.87 100.8 42.8 100.66 42.72 100.59 42.65 100.45 42.58 100.38 42.51 100.38 42.51 100.24 42.51 100.24 42.44 100.03 42.44 100.03 42.44"/><polygon class="cls-2" points="97.62 41.8 97.48 41.8 97.41 41.8 97.27 41.8 97.2 42.02 97.05 42.37 97.13 42.51 97.13 42.65 97.19 42.72 97.19 42.87 97.27 42.94 97.27 42.94 97.34 43.01 97.55 43.01 97.62 42.94 97.76 42.72 97.76 42.51 97.76 42.02 97.76 41.88 97.62 41.8 97.62 41.8 97.62 41.8"/><polygon class="cls-2" points="98.68 43.5 98.61 43.43 98.47 43.43 98.33 43.43 98.33 43.43 98.26 43.5 98.11 43.64 98.04 43.78 97.97 43.93 97.97 44 97.97 44.14 98.04 44.63 98.26 44.77 98.47 44.77 98.54 44.7 98.61 44.63 98.68 44.63 98.68 44.49 98.68 44.42 98.75 44.28 98.75 44 98.68 43.93 98.68 43.78 98.68 43.5 98.68 43.5 98.68 43.5"/><polygon class="cls-2" points="95.85 46.97 95.85 46.76 95.78 46.61 95.64 46.61 95.5 46.61 95.36 46.76 95.29 46.83 95.14 46.97 95.14 47.25 95.14 47.39 95.07 47.6 95.07 47.74 95.14 47.82 95.14 47.89 95.36 48.03 95.5 48.1 95.64 48.03 95.78 47.96 95.85 47.89 95.85 47.82 95.85 47.74 95.85 47.6 95.85 47.53 95.92 47.46 95.92 47.18 95.85 47.11 95.85 46.97 95.85 46.97"/><polygon class="cls-2" points="97.41 46.05 97.41 46.12 97.27 46.4 97.2 46.61 97.2 46.83 97.27 46.97 97.34 47.04 97.41 47.04 97.48 47.11 97.55 47.11 97.55 47.04 97.62 47.04 97.62 46.97 97.76 46.97 97.76 46.9 97.91 46.61 97.98 46.47 97.98 45.84 97.91 45.76 97.83 45.76 97.62 45.84 97.41 46.05 97.41 46.05"/><polygon class="cls-2" points="97.62 48.66 97.62 48.38 97.55 48.31 97.48 48.31 97.27 48.38 97.27 48.45 97.19 48.52 97.13 48.8 97.13 48.95 97.05 49.23 97.2 49.3 97.27 49.37 97.27 49.37 97.41 49.37 97.55 49.3 97.62 48.95 97.62 48.88 97.69 48.8 97.62 48.66 97.62 48.66"/><polygon class="cls-2" points="97.48 50.93 97.2 51.14 97.13 51.21 97.13 51.21 97.2 51.28 97.27 51.28 97.34 51.28 97.83 51.28 97.91 51.28 98.19 51.28 97.97 51.42 97.97 51.42 97.9 51.49 97.76 51.56 97.55 51.63 97.48 51.71 97.27 51.78 96.98 51.78 97.06 51.85 97.13 51.99 97.48 52.06 97.62 52.06 97.83 52.13 97.76 52.13 97.62 52.34 97.55 52.34 97.48 52.41 97.27 52.48 97.2 52.48 97.06 52.55 96.91 52.63 96.91 52.7 96.84 52.7 96.7 52.7 96.56 52.7 96.56 52.77 96.7 52.84 96.77 52.84 96.84 52.84 97.2 52.84 97.27 52.91 96.91 53.12 96.28 53.33 96.21 53.4 96.14 53.4 96.49 53.48 96.63 53.48 96.77 53.55 97.06 53.55 97.2 53.48 97.27 53.48 97.55 53.4 97.62 53.4 97.76 53.33 97.9 53.26 97.97 53.19 98.12 53.05 98.33 52.7 98.68 51.92 98.82 51.07 98.82 50.58 98.68 50.15 98.61 49.8 98.54 50.01 98.47 50.15 98.33 50.22 98.26 50.36 98.19 50.43 98.05 50.58 97.97 50.65 97.62 50.86 97.48 50.93 97.48 50.93"/><polygon class="cls-2" points="95.85 50.43 95.85 50.08 95.78 49.87 95.64 49.44 95.43 49.16 95.29 49.23 95.14 49.58 95 50.08 95.14 50.64 95.43 50.78 95.64 50.79 95.71 50.72 95.78 50.72 95.85 50.43 95.85 50.43"/><polygon class="cls-2" points="91.68 43.57 91.68 43.36 91.61 43.36 91.54 43.29 91.47 43.29 91.47 43.22 91.33 43.22 91.19 43.36 91.11 43.5 91.04 43.64 90.97 43.78 90.97 43.93 90.9 44.07 90.83 44.35 90.83 44.49 90.9 44.7 91.04 44.99 91.11 44.99 91.18 45.06 91.33 45.13 91.4 45.13 91.61 44.99 91.68 44.92 91.75 44.85 91.75 44.28 91.82 44.07 91.82 44 91.82 43.93 91.68 43.57 91.68 43.57"/><path class="cls-2" d="M90.9,44.7l-.07-.21v-.14l.07-.28-.07.07-.21.14-.35.35-.07.07-.29.64-.07.21v.64l.07.21v.14l.07.14.07.15.07.07.22.21.21.14.14.07.14.07h.43l.14-.07.14-.07h.14l.14-.14h.07l.29-.28.21-.29.14-.28.07-.14v-.21l.07-.14v-.22l.07-.14-.07-.21v-.14l-.07-.29-.07-.14-.07-.14-.07-.14-.14-.07-.07-.07L92,44.14,92,44h-.14v.07l-.07.21v.57l-.07.07-.07.07-.21.14h-.07l-.15-.07L91.11,45H91l-.14-.29ZM91,46.19v.28l.15.36V47l-.08.21h-.21v-.07h-.07L90.69,47l-.07-.07v-.43l.07-.07.07-.07.07-.07h.07l.07-.07Z"/><polygon class="cls-2" points="90.97 46.4 90.97 46.19 90.9 46.26 90.83 46.26 90.76 46.33 90.69 46.4 90.62 46.47 90.62 46.54 90.62 46.68 90.62 46.83 90.62 46.9 90.69 46.97 90.76 47.11 90.83 47.11 90.83 47.18 90.97 47.18 91.04 47.18 91.11 46.97 91.11 46.83 90.97 46.47 90.97 46.4 90.97 46.4"/><polygon class="cls-2" points="94.93 43.57 94.79 43.43 94.37 44 94.3 44.21 94.23 44.63 94.23 44.7 94.23 44.84 94.3 44.99 94.37 45.06 94.37 45.2 94.44 45.27 94.58 45.34 94.72 45.34 94.79 45.34 94.86 45.34 94.94 45.34 95.01 45.27 95.01 45.27 95.08 45.2 95.15 45.13 95.15 45.06 95.22 44.85 95.29 44.63 95.15 44.14 95.08 43.78 94.93 43.57 94.93 43.57"/><polygon class="cls-2" points="92.74 46.4 92.74 46.4 92.6 46.47 92.6 46.54 92.46 46.9 92.39 47.11 92.39 47.25 92.53 47.67 92.6 47.96 92.67 48.03 92.81 48.1 92.88 48.1 92.95 48.03 93.03 48.03 93.17 47.96 93.24 47.53 93.17 47.11 93.03 46.76 92.95 46.54 92.88 46.4 92.74 46.4 92.74 46.4"/><polygon class="cls-2" points="94.23 49.3 94.23 49.16 94.08 49.02 94.02 48.95 94.02 48.8 93.87 48.8 93.87 48.88 93.8 48.88 93.73 48.88 93.73 48.95 93.73 48.95 93.66 49.02 93.66 49.23 93.66 49.3 93.59 49.44 93.66 49.58 93.66 49.66 93.66 49.73 93.87 49.8 93.87 49.87 93.94 49.94 94.08 49.94 94.16 49.87 94.23 49.8 94.3 49.66 94.3 49.51 94.23 49.37 94.23 49.3 94.23 49.3"/><polygon class="cls-2" points="95.29 51.49 95.15 51.49 95.08 51.63 95 51.78 94.93 52.13 95 52.2 95.14 52.41 95.22 52.41 95.36 52.48 95.43 52.41 95.5 51.99 95.5 51.85 95.5 51.78 95.43 51.63 95.36 51.49 95.29 51.49 95.29 51.49"/></svg>