<svg id="Greyscale_copy" data-name="Greyscale copy" xmlns="http://www.w3.org/2000/svg" viewBox="0 0 178 107"><defs><style>.cls-1{fill:#999;}.cls-2{fill:#ccc;}</style></defs><title>cifs-logo-harveys</title><path class="cls-1" d="M81.87,22.73c18.36-1.36,37.08,3.81,45.94,13.54,2.7,2.95,6.95,10.67,2.26,14.56-2.73,2.27-6.42.39-10.46.61-2.31.13-4.63,1.31-6.77,1.23-2.72-.1-5.22-2-7.38-2.05C101.38,50.44,98,53.17,94,52.88c-3.29-.24-6.22-3.46-9.65-3.9-6.39-.81-15.28,1.83-21.12,2.67-9.37,1.34-21.14,2-20.51-8.41a13.77,13.77,0,0,1,3.49-7.59c6.06-7,21.72-11.89,35.68-12.92"/><path class="cls-2" d="M81.87,22.73c18.36-1.36,37.08,3.81,45.94,13.54,2.7,2.95,6.95,10.67,2.26,14.56-2.73,2.27-6.42.39-10.46.61-2.31.13-4.63,1.31-6.77,1.23-2.72-.1-5.22-2-7.38-2.05C101.38,50.44,98,53.17,94,52.88c-3.29-.24-6.22-3.46-9.65-3.9-6.39-.81-15.28,1.83-21.12,2.67-9.37,1.34-21.14,2-20.51-8.41a13.77,13.77,0,0,1,3.49-7.59C52.25,28.61,67.91,23.76,81.87,22.73Z"/><path class="cls-1" d="M43.64,47.47s.54-14,26.45-19.11c5.35-.91,36.09-6.19,54.85,10.7,0,0,4.23,4.08,4.29,6.66.05,1.18,0,4.12-3.2,4s-4.87-2.24-6.34-2.24c-2.28,0-3,3-6.18,3s-3.89-4.89-7.2-4.89-6.82,4.82-11.64,4.82-3.92-7.18-10-7.18-17.06,6.4-28.34,6.4-12.56-1.24-12.66-2.14"/><path class="cls-1" d="M57.2,40.31a1.85,1.85,0,0,1,1.67,1.84,2.46,2.46,0,0,1-2.71,2.27c-1.77,0-2.64-.81-2.64-1.5a.6.6,0,0,1,.67-.55c.16,0,1,.08,1.23.08.79,0,1.36-.23,1.36-1.58,0-.37.09-.56.42-.56"/><path class="cls-1" d="M68.1,34.32a1.7,1.7,0,0,1,1.66,1.5c0,1.47-1.48,2.42-3.08,2.42s-2.1-.67-2.1-.9.15-.26.52-.26c1.61,0,3.12-.93,2.55-2.25-.15-.35,0-.51.45-.51"/><path class="cls-1" d="M97,29.75a1.65,1.65,0,0,1,1.82,1.36c0,1.56-1.47,2.56-3.3,2.56-1.47,0-2.27-.7-2.27-1.19,0-.11.12-.35.48-.39,1.49-.16,2.69-.45,2.54-1.73,0-.32.27-.61.73-.61"/><path class="cls-1" d="M83.63,30.72c.84,0,2.1.54,2.1,1.66s-1.25,1.71-2.65,1.71c-1.6,0-2.5-.77-2.5-1.06,0-.13.13-.17.4-.21.65-.09,2.49-.12,2.52-.92,0-.36-.2-.56-.2-.93,0-.21.15-.25.33-.25"/><path class="cls-1" d="M113.36,35.52c.78,0,1.91.63,1.91,1.53,0,1.14-1,1.8-2.26,1.8s-2.22-.67-2.22-1.16a.46.46,0,0,1,.46-.46c1.5-.1,2.06-.25,2-.66A1.34,1.34,0,0,0,113,36c-.23-.29.13-.5.36-.5"/><path class="cls-1" d="M90.12,35.82a1.38,1.38,0,0,1,1.25,1.36c0,1-.87,1.46-1.89,1.46S88,38,88,37.68c0-.18.11-.25.39-.27,1.23-.1,1.59-.32,1.41-1.2a.31.31,0,0,1,.33-.39"/><path class="cls-1" d="M56.88,55.79v.63c-.39,0-.87,0-.87.55v6.08c0,.5.48.55.82.55v.6H51.47v-.6c.43,0,.87-.05.87-.55V60.68H49.13v2.37c0,.5.44.55.86.55v.6h-5.4v-.6c.39,0,.86-.05.86-.55V57c0-.5-.47-.55-.86-.55v-.63H50v.63c-.42,0-.86,0-.86.55v2.31h3.21V57c0-.5-.44-.55-.87-.55v-.63Z"/><path class="cls-1" d="M69.19,62.56l-2.94-6.77H60.39v.62c.57,0,.73.18.73.39a2.21,2.21,0,0,1-.25.86l-2.18,4.82c-.43.94-.67,1.11-1.24,1.11v.61h4v-.6c-.36,0-.78,0-.77-.36A4.63,4.63,0,0,1,61.1,62h3.77a3.53,3.53,0,0,1,.45,1.32c0,.28-.49.33-.79.33v.6h5.88v-.61c-.67,0-.91-.35-1.22-1m-6.14-5.11,1.31,3.21H61.63L63,57.45Z"/><path class="cls-1" d="M88,55.79v.61c-.49,0-.75.17-.75.47a3.63,3.63,0,0,0,.37,1.29l1.48,3.62h.07s1.21-3,1.45-3.66A3.78,3.78,0,0,0,91,56.87c0-.33-.2-.46-.71-.46v-.62h4.13v.6c-.35,0-.74,0-1.16.94s-3,6.87-3,6.87H86.45s-2.74-5.75-3.17-6.64-.69-1.16-1.15-1.16v-.61Z"/><path class="cls-1" d="M102.76,61.34h-.67c-.09-.55-.25-.87-1.12-.87H99.56v2.41h2.92c1.1,0,1.78-.27,1.85-1.18H105v2.5H95v-.61c.39,0,.86-.05.86-.55V57c0-.59-.47-.59-.81-.59v-.6h9.47V58h-.63c0-.4-.46-1-1.48-1h-2.8v2.15H101c.87,0,1-.33,1.12-.88h.67v3Z"/><path class="cls-1" d="M110.7,55.79v.61c-.46,0-.62.22-.61.42a2.07,2.07,0,0,0,.33.81c.35.61,1.31,2.12,1.31,2.12h0s.92-1.57,1.21-2.09a2.07,2.07,0,0,0,.31-.83c0-.27-.17-.43-.63-.43v-.61h3.77v.6a1.11,1.11,0,0,0-.82.56l-2.84,4.43V63c0,.48.42.57.88.57v.6H108v-.6c.44,0,.92-.09.92-.57V61.42L106,57c-.35-.56-.56-.62-.92-.62v-.63Z"/><path class="cls-1" d="M116.68,59.22a2.37,2.37,0,0,0,.78-2V55.79h2.06v.68a2.88,2.88,0,0,1-1.08,2.36,3.71,3.71,0,0,1-1.49.74Z"/><path class="cls-1" d="M120,61.47h.75c.09,1.07,1.47,1.7,3.22,1.7,1.27,0,2.14-.3,2.14-.89s-.67-.69-2.46-1.15c-2.36-.61-3.66-1.3-3.66-2.83,0-1.37,1.38-2.6,4.77-2.6a13.42,13.42,0,0,1,3.85.5v2.15h-.7c-.16-.82-1.46-1.38-3-1.38-1.07,0-1.81.2-1.81.74s.66.76,2.44,1.17c2.71.63,3.72,1.4,3.72,2.79,0,1.91-2.08,2.85-5.21,2.85a11.07,11.07,0,0,1-4.09-.78V61.47Z"/><path class="cls-1" d="M76.41,60.89c.76,1,1.46,2.09,2.25,3.31h4.26v-.6A1.41,1.41,0,0,1,81.77,63c-.71-.88-1.5-1.87-2.19-2.69,1.22-.32,2.25-1.08,2.25-2.16a2.27,2.27,0,0,0-1.72-2,10.76,10.76,0,0,0-3.44-.41H71v.64c.35,0,.83,0,.83.55v6.07c0,.5-.48.55-.82.55v.6h5.27v-.6c-.35,0-.77-.1-.81-.48V60.89ZM76.06,57c1.42,0,2.2.45,2.2,1.3s-.76,1.33-2.19,1.35h-.59V57Z"/><path class="cls-2" d="M39.83,68.67c3.64-.13,7,1.21,10.87,1.44,19.55,1.16,23.81-1.45,34.66-2.26,7.14-.53,11.37,1,17.23,1.44a99.68,99.68,0,0,0,11.48,0c5.78-.22,18.53-3.35,19.28,3.07.5,4.31-5.39,8.68-8.82,10.26-7.22,3.33-17.41,1.33-26.66.61A127.31,127.31,0,0,0,83.72,83c-15.41.53-32.1,4.25-40.61-3.7-2.37-2.21-5.4-6.48-3.28-10.66"/><path class="cls-1" d="M41,73.11c2,3.33,7.23,7.52,16.12,7.57C74.45,80,77.49,80,88.07,80S102.39,81,112.4,81.24,126,78,128.4,76.43s3.57-4.58.39-5.2-8.95,1.68-17.85,2S93.21,71.45,88.46,71.4s-15.22,1.84-28.19,2.35-20.1-4.51-20.1-4.51A6.14,6.14,0,0,0,41,73.11"/><polygon class="cls-1" points="128.8 82.26 128.01 82.26 128.01 81.99 129.89 81.99 129.89 82.26 129.11 82.26 129.11 84.33 128.8 84.33 128.8 82.26"/><polygon class="cls-1" points="130.16 81.99 130.59 81.99 131.32 83.97 132.06 81.99 132.5 81.99 132.5 84.33 132.19 84.33 132.19 82.38 132.19 82.38 131.46 84.33 131.19 84.33 130.47 82.38 130.45 82.38 130.45 84.33 130.16 84.33 130.16 81.99"/><polygon class="cls-1" points="133.67 81.94 133.9 81.94 132.93 84.39 132.69 84.39 133.67 81.94"/><polygon class="cls-1" points="134.11 81.99 134.53 81.99 135.27 83.97 136.01 81.99 136.45 81.99 136.45 84.33 136.15 84.33 136.15 82.38 136.14 82.38 135.41 84.33 135.14 84.33 134.41 82.38 134.4 82.38 134.4 84.33 134.11 84.33 134.11 81.99"/><path class="cls-1" d="M137,82h.8a1,1,0,0,1,1.13,1.13c0,.77-.35,1.21-1.13,1.21H137Zm.31,2.09h.52c.22,0,.79-.06.79-.92,0-.56-.21-.9-.78-.9h-.53Z"/></svg>