<svg id="Greyscale_copy" data-name="Greyscale copy" xmlns="http://www.w3.org/2000/svg" viewBox="0 0 178 107"><defs><style>.cls-1{fill:#999;}.cls-1,.cls-2{fill-rule:evenodd;}.cls-2{fill:#fff;}</style></defs><title>cifs-logo-shoppers</title><polygon class="cls-1" points="152.4 61.33 153.42 61.33 153.42 61.51 153.06 61.51 153.06 62.23 152.77 62.23 152.77 61.51 152.4 61.51 152.4 61.33 152.4 61.33"/><path class="cls-1" d="M155,61.33v.9h-.28l0-.64v-.06a.92.92,0,0,0,0,.09l-.23.61h-.25l-.22-.58,0-.16a.91.91,0,0,1,0,.17l0,.57h-.29v-.9h.43l.19.5,0,.15a.81.81,0,0,1,0-.11l.19-.54Z"/><path class="cls-1" d="M150.17,60.46c-5.09,5.09-12.34,6.11-16.18,2.26s-2.83-11.08,2.27-16.18,12.33-6.1,16.17-2.26,2.83,11.09-2.26,16.18Z"/><path class="cls-2" d="M148.12,62.21H137.87a1,1,0,0,1-1-.71,1,1,0,0,1,.37-1.15l3.15-2.29a1,1,0,0,1,1.63.83,1,1,0,0,1-.42.83l-.6.43h5.7l-9.12-7a1,1,0,0,1-.4-.85,1,1,0,0,1,1-1h11.54a1,1,0,0,1,.63,1.82l-3,2.51a1,1,0,0,1-1.45-.13,1,1,0,0,1-.24-.65,1.06,1.06,0,0,1,.37-.8l.84-.69h-5.59l9.07,6.93a12.76,12.76,0,0,1-2.21,1.91Zm-9.89-13.87H149.7a1,1,0,1,1,0,2H138.23a1,1,0,1,1,0-2Z"/><path class="cls-2" d="M146.45,45.84l1.76-1.15a1,1,0,1,1,1.14,1.73l-1.76,1.16a1,1,0,1,1-1.14-1.74Z"/><path class="cls-1" d="M64.62,56.69h2.32a5.89,5.89,0,0,1,3.16.65,2.41,2.41,0,0,1,1,2.06A2.9,2.9,0,0,1,71,60.46c-.68,1.71-2.71,1.74-3.47,1.75H64.62V56.69Zm1.84,1.17V61.1H67c1,0,2.31-.06,2.31-1.64a1.47,1.47,0,0,0-.39-1.11,2.29,2.29,0,0,0-1.75-.49Z"/><path class="cls-1" d="M72.17,56.7h3.59c1.9,0,2.65.82,2.65,1.76,0,1.11-1,1.41-1.5,1.55l1.68,2.2h-2l-1.44-2H74v2H72.17V56.7Zm1.82,1v1.49H75.5c.26,0,1.09,0,1.09-.76s-.67-.73-1-.73Z"/><path class="cls-1" d="M113.42,56.7H117c1.9,0,2.65.82,2.65,1.76,0,1.11-1,1.41-1.5,1.55l1.68,2.2h-2l-1.44-2h-1.15v2h-1.83V56.7Zm1.83,1v1.49h1.51c.25,0,1.09,0,1.09-.76s-.67-.73-1-.73Z"/><path class="cls-1" d="M85.57,56.69v3.08a2.34,2.34,0,0,1-.43,1.56,3.77,3.77,0,0,1-2.71,1,4.77,4.77,0,0,1-1.69-.3,2,2,0,0,1-1.39-2.26V56.69h1.83v3.44a1.14,1.14,0,0,0,.14.69,1.55,1.55,0,0,0,1.17.37c1.24,0,1.24-.64,1.25-1.07V56.69Z"/><path class="cls-1" d="M92,61.69a3.41,3.41,0,0,1-2.14.64c-2,0-3.28-1.25-3.28-2.87,0-1.78,1.52-3,3.59-3a4.21,4.21,0,0,1,3.2,1.28L92,58.41a2,2,0,0,0-1.69-.78,1.71,1.71,0,0,0-1.91,1.79,1.75,1.75,0,0,0,.58,1.4,2.19,2.19,0,0,0,1.33.4,2.3,2.3,0,0,0,1-.21,1,1,0,0,0,.59-.82H90.23v-1H93.4v3.07H92v-.52Z"/><path class="cls-1" d="M104.86,56.69v5.52h-1.74l.11-3.93,0-.56-.06.2a5,5,0,0,1-.19.58l-1.37,3.71h-1.57l-1.32-3.55-.31-1c0,.43,0,.53.06,1l.09,3.48H96.84V56.69h2.64l1.11,3.09.26.89c.1-.39.11-.42.19-.68l1.17-3.3Z"/><path class="cls-1" d="M110.08,56.69l2.69,5.52h-1.94l-.37-.89h-2.68l-.36.89h-1.94l2.71-5.52Zm-1,1.31c-.09.29-.19.57-.3.85s-.43,1.07-.59,1.48h1.84l-1-2.33Z"/><polygon class="cls-1" points="119.9 56.69 126.13 56.69 126.13 57.79 123.93 57.79 123.93 62.21 122.11 62.21 122.11 57.79 119.9 57.79 119.9 56.69 119.9 56.69"/><polygon class="cls-1" points="36.67 44.53 40.66 44.53 40.66 48.06 44.46 48.06 44.46 44.53 48.48 44.53 48.48 54.23 44.46 54.23 44.46 50.49 40.66 50.49 40.66 54.23 36.67 54.23 36.67 44.53 36.67 44.53"/><path class="cls-1" d="M63.32,49.29c0,2.45-1.88,5.26-6.82,5.26-5.16,0-6.72-2.94-6.72-5.15,0-2.78,2.23-5.23,6.79-5.23,5,0,6.75,2.81,6.75,5.12Zm-9.54.09a2.46,2.46,0,0,0,2.79,2.71,2.56,2.56,0,0,0,2.73-2.8A3,3,0,0,0,59.07,48a2.66,2.66,0,0,0-2.5-1.39,2.56,2.56,0,0,0-2.79,2.76Z"/><path class="cls-1" d="M64.62,44.53h7.21a5.6,5.6,0,0,1,3.59.89,2.76,2.76,0,0,1,1.06,2.27,3,3,0,0,1-1.2,2.47,5.44,5.44,0,0,1-3.59.91H68.62v3.16h-4v-9.7Zm4,2V49h2.29a5.11,5.11,0,0,0,.66-.07,1.18,1.18,0,0,0,1-1.18c0-1.14-1.16-1.2-1.66-1.23Z"/><path class="cls-1" d="M77.59,44.53h7.22a5.63,5.63,0,0,1,3.59.89,2.75,2.75,0,0,1,1,2.27,2.94,2.94,0,0,1-1.19,2.47,5.47,5.47,0,0,1-3.59.91H81.59v3.16h-4v-9.7Zm4,2V49h2.29a4.93,4.93,0,0,0,.66-.07,1.17,1.17,0,0,0,1-1.18c0-1.14-1.16-1.2-1.66-1.23Z"/><polygon class="cls-1" points="90.56 44.53 100.54 44.53 100.54 46.66 94.56 46.66 94.56 48.1 100.14 48.1 100.14 50.21 94.56 50.21 94.56 52.13 101.07 52.13 101.07 54.23 90.56 54.23 90.56 44.53 90.56 44.53"/><path class="cls-1" d="M102.33,44.53h6.29a11.21,11.21,0,0,1,3.11.29,2.93,2.93,0,0,1,2.18,2.8c0,1.43-1,2.25-2.59,2.7l3.07,3.91H110l-2.45-3.42h-1.18v3.42h-4v-9.7Zm4,2v2.27H108c.66,0,1.92,0,1.92-1.13s-1.25-1.14-1.94-1.14Z"/><path class="cls-1" d="M117.17,50.88c.74,1.08,2.46,1.28,3.6,1.28.68,0,1.81-.16,1.81-.73,0-.31-.22-.52-.78-.61l-3.2-.53c-2.2-.37-3.43-1.37-3.43-2.83,0-2,2.29-3.25,5.57-3.25a8.46,8.46,0,0,1,5.67,1.72l-2.51,1.61a4.6,4.6,0,0,0-3.3-1c-.68,0-1.43.14-1.43.63s.65.57,1.73.75c2.8.46,5.6.75,5.6,3.15,0,2-2.1,3.44-6,3.44-2.61,0-4.82-.51-6.43-2.13l3-1.51Z"/><path class="cls-1" d="M26.07,50.88c.75,1.08,2.46,1.28,3.61,1.28.67,0,1.8-.16,1.8-.73,0-.31-.22-.52-.78-.61l-3.2-.53c-2.2-.37-3.43-1.37-3.43-2.83,0-2,2.29-3.25,5.57-3.25a8.46,8.46,0,0,1,5.67,1.72l-2.5,1.61a4.64,4.64,0,0,0-3.31-1c-.68,0-1.43.14-1.43.63s.65.57,1.74.75c2.79.46,5.59.75,5.59,3.15,0,2-2.1,3.44-5.95,3.44-2.61,0-4.81-.51-6.43-2.13l3.05-1.51Z"/></svg>