<svg id="Greyscale_copy" data-name="Greyscale copy" xmlns="http://www.w3.org/2000/svg" viewBox="0 0 178 107"><defs><style>.cls-1{fill:#fff;}.cls-2{fill:#999;}</style></defs><title>cifs-logo-bp</title><path class="cls-1" d="M89,94.07A40.57,40.57,0,1,0,48,53.49,40.79,40.79,0,0,0,89,94.07Z"/><path class="cls-2" d="M112.3,23.3a19.82,19.82,0,0,1,2.78,2.79c-3.44-1.9-7.21-3.4-11.63-2.69a23.79,23.79,0,0,0-3.52.66,6.31,6.31,0,0,0-2-5.25,9,9,0,0,0-4.51-1.63,5.81,5.81,0,0,1,1.88,4.93A2.39,2.39,0,0,1,93.63,24a4.25,4.25,0,0,1-4-.61,3.46,3.46,0,0,1-1.72-3.51l.16-.41a2.77,2.77,0,0,0,.9,1.18,1.39,1.39,0,0,0,1.06,0,.68.68,0,0,0,.33-.64c-.08-1.16-1.31-1.78-2.29-2.06a14.2,14.2,0,0,0-7.21.18c2.87,2,6.14,4.66,6.88,8.13a6.69,6.69,0,0,1,.49,2.19,15.09,15.09,0,0,0-8.84-6.72c-3.36-.59-7.29-1.06-10.65-.21a36.35,36.35,0,0,1,16-5.74A37.51,37.51,0,0,1,112.3,23.3Z"/><path class="cls-2" d="M58.5,30.7,57.43,32a38.59,38.59,0,0,0-6.14,14.39c-.9,7.51-.66,15.67,2.62,22a18,18,0,0,1,.33-5.56c1.06-3.51,2.62-7,5.81-9.46a6.79,6.79,0,0,1-2.62,0c-1.55-.37-2.53-1.88-3.11-3.21-.49-1.6-.74-3.8.08-5.34a4.88,4.88,0,0,0,1.56,3,3.73,3.73,0,0,0,3.6.57,4.29,4.29,0,0,0,2.29-4.25,3.64,3.64,0,0,0-2.94-2.63c.24.44.82.92.41,1.46a.67.67,0,0,1-.74.16,2.49,2.49,0,0,1-1-1.62,18.72,18.72,0,0,1,.9-10.84Z"/><path class="cls-2" d="M89.94,39.68a10.43,10.43,0,0,1-5.16,5.71l.09.11A21.26,21.26,0,0,1,90,51.72a49,49,0,0,0-.08-12Z"/><path class="cls-2" d="M126,45.39c-.65,4.54-2.7,9-6.88,11.62-3.6,2.09-9.17,2.42-12.77.15,1.14,3,3.93,6.13,7.12,6.72,1.15.25,2.54-.14,3.52.48a4.15,4.15,0,0,1,1.31,3c.08,3.1-2.37,5.94-5.07,7a5.4,5.4,0,0,1-5.74-1,4.69,4.69,0,0,1-.81-4,3.3,3.3,0,0,1,2.62-2.17,2.91,2.91,0,0,1,3.11,1.25,2.18,2.18,0,0,1,.17,2.22.9.9,0,0,1-.5.56c.25-1,.41-2.14-.41-2.85a3.08,3.08,0,0,0-2.94-.13,1.33,1.33,0,0,0-.74,1.08,3.31,3.31,0,0,0,.74,3.57,3.85,3.85,0,0,0,4.17.13,3.67,3.67,0,0,0,1.64-3.35,4.56,4.56,0,0,0-2.37-4.16,6,6,0,0,0-6.47,1c-1.89,2.17-1.81,5.25-.66,7.76a7.74,7.74,0,0,0,7.45,3.5c6.47-.72,11.3-7.18,12.94-12.93C127.28,59,128,51.38,126,45.39Z"/><path class="cls-2" d="M108,78.45c-.09,3.17-2.62,5.83-5.33,7.16-2,1-4.91,1.12-6.63-.41a3,3,0,0,1-1-2.54,2,2,0,0,1,1.14-1.4,1.51,1.51,0,0,1,1.48.32,1,1,0,0,1,.33.79,1.18,1.18,0,0,1-.66,1.09,1.3,1.3,0,0,1-1.06,0c.08.1.08.22.16.33a3.11,3.11,0,0,0,3.11,1.45,2.94,2.94,0,0,0,2-1.94,3.78,3.78,0,0,0-1.39-3.64A4.86,4.86,0,0,0,96,79.14c-2.29,1.08-3.6,3-5.4,4.78-1.15.93-2.22,2-3.61,2.41a6.5,6.5,0,0,0,1.15-2.45,3,3,0,0,0-.82-2.5,4.09,4.09,0,0,0-4.1-.92,3.73,3.73,0,0,0-2.78,2.84L81,83a1.24,1.24,0,0,1,1.22.07,1.14,1.14,0,0,1,.25,1.23c-.9,1.41-2.78,1.44-4.42,1.53a26.86,26.86,0,0,1-13.84-3.7,38,38,0,0,0,11.71,7c5.65,2.22,12.61,2.52,18.83,1.48a34.06,34.06,0,0,0,21.87-11.35,12.35,12.35,0,0,1-7.53,2.45A3.31,3.31,0,0,0,108,78.45Z"/><path class="cls-2" d="M115.16,27.48c5.49,3.57,10.4,9.38,9.91,16.43-.57,4.79-2.7,9.82-7.37,11.84a14,14,0,0,1-12-.5c-4-3-5.15-8.36-3.92-13.07.73-2.54,2.94-5,5.73-5.36A5.53,5.53,0,0,1,113.28,39a7.9,7.9,0,0,1,.41,8.45,5.11,5.11,0,0,1-5.16,2.4,3.65,3.65,0,0,1-3.11-2.06,6.2,6.2,0,0,1,.9-6.17,2.4,2.4,0,0,1,2.46-.89,2.6,2.6,0,0,1,1.88,1.3,4.51,4.51,0,0,1-.16,3.25c.73-.1,1.3-1,1.47-1.69a4.26,4.26,0,0,0-1.23-3.87,3.72,3.72,0,0,0-3.52-.59c-2.54,1.05-3.44,3.78-3.36,6.38a5.56,5.56,0,0,0,3,5.2,6.79,6.79,0,0,0,7.29-1.86c2.87-3.3,2.78-8.94.74-12.65-1.56-3.45-5.16-6.94-9.18-7a5,5,0,0,0-4.09,1.74,6.41,6.41,0,0,0-1.23,4.25l-.33,10.5v4.84l.33,11.58a57.89,57.89,0,0,0,3.28,17c-2.79-1.87-7.21-1.72-10.24-.27l-1.8,1.13a69.61,69.61,0,0,0,1.47-12.6l.09-6.71L93,51.13l-.41-6.9A81,81,0,0,0,89.2,25.62a57.17,57.17,0,0,0,9.18.3l6.47-.55c3.68,0,7.36.05,10.31,2.11Z"/><path class="cls-2" d="M86.83,28.66a12.33,12.33,0,0,1,2.29,8.39,10.67,10.67,0,0,1-7,8.09C89.62,50.78,93.3,60,90.68,69.21,88.31,77.36,79.62,82.37,71.52,83A16.49,16.49,0,0,1,60.3,79.08c-4.26-3.84-5.73-9.22-5.08-14.93a15,15,0,0,1,10-11.55A13,13,0,0,1,78.4,56.37c3.19,3.43,3.19,9.33,1.72,13.57A8.93,8.93,0,0,1,73,75.59a10.49,10.49,0,0,1-8.76-3.27,11.14,11.14,0,0,1-1.15-11,7.11,7.11,0,0,1,6-4.34c2.29.12,4.59.84,5.9,2.91a8.23,8.23,0,0,1,.82,7.54,4.66,4.66,0,0,1-3.2,3.05,4.91,4.91,0,0,1-5.16-2.09,5.65,5.65,0,0,1-.08-6,3.38,3.38,0,0,1,3.28-1.55A3.47,3.47,0,0,1,72.91,62c.25-.57-.17-1.08-.49-1.52a4.1,4.1,0,0,0-3.6-1,5.09,5.09,0,0,0-3.44,3.37,7.5,7.5,0,0,0,1.39,7.6,6.67,6.67,0,0,0,6.14,1.79,6,6,0,0,0,4.42-3.78c1.31-2.94,1.15-7.17-1-9.71a9.11,9.11,0,0,0-9.34-3,9.63,9.63,0,0,0-6.88,7.14,12.46,12.46,0,0,0,4,12.91c3.36,2.59,8.76,2.57,12.44.84C82,74,83.88,68.15,83.47,62.3c-.73-5.5-2.29-10.92-6.88-14.58a7.54,7.54,0,0,0-6-1.24,6.36,6.36,0,0,0,.57,4.91,13.18,13.18,0,0,0-7.21,0,11.87,11.87,0,0,0-2.54,1.09c2-5,1.72-11.34,1.4-17-.33-1.73-.25-3.66-.82-5.26a1.59,1.59,0,0,0-1.47-.86,2.11,2.11,0,0,0-1.07.28c3.52-5.68,10-8,16.62-6.89a17.11,17.11,0,0,1,10.73,5.93ZM79,36.31a9.45,9.45,0,0,0-.82-5,3.56,3.56,0,0,0-2.29-1.89,2.57,2.57,0,0,0-2.7.83,11.91,11.91,0,0,0-2.54,9.25A3.63,3.63,0,0,0,73,42.34c1.88,0,2.87-.14,4.26-1.58A10.34,10.34,0,0,0,79,36.31Z"/></svg>