<svg id="Greyscale_copy" data-name="Greyscale copy" xmlns="http://www.w3.org/2000/svg" xmlns:xlink="http://www.w3.org/1999/xlink" viewBox="0 0 178 107"><defs><style>.cls-1{fill:none;}.cls-2{fill:#696969;}.cls-3{clip-path:url(#clip-path);}.cls-4{fill:#999;}</style><clipPath id="clip-path"><rect class="cls-1" x="13.05" y="27.99" width="151.91" height="51.01"/></clipPath></defs><title>cifs-logo-the keg</title><g id="g160833"><path id="path160835" class="cls-2" d="M17.53,32.09H160.47V74.41H17.53ZM18,73.94H160V32.56H18Z"/></g><g id="g160837"><g class="cls-3"><g id="g160839"><g id="g160845"><g id="g160847"><path id="path160849" class="cls-4" d="M41.18,44.59H38.64a.31.31,0,0,1-.32-.31V42.91a.31.31,0,0,1,.32-.31h7.27a.31.31,0,0,1,.32.31v1.37a.31.31,0,0,1-.32.31H43.37v9.34a.33.33,0,0,1-.32.32H41.5a.33.33,0,0,1-.32-.32Z"/></g></g><g id="g160851"><g id="g160853"><path id="path160855" class="cls-4" d="M54.24,42.91a.33.33,0,0,1,.32-.31h1.55a.31.31,0,0,1,.31.31v4.41h5.44V42.91a.31.31,0,0,1,.31-.31H63.7a.33.33,0,0,1,.32.31v11a.33.33,0,0,1-.32.32H62.17a.31.31,0,0,1-.31-.32V49.34H56.42v4.59a.31.31,0,0,1-.31.32H54.56a.33.33,0,0,1-.32-.32Z"/></g></g><g id="g160857"><g id="g160859"><path id="path160861" class="cls-4" d="M72.83,42.91a.31.31,0,0,1,.32-.31h6.78a.31.31,0,0,1,.31.31v1.37a.31.31,0,0,1-.31.31H75v2.73h4.11a.33.33,0,0,1,.32.32V49a.32.32,0,0,1-.32.32H75v2.91h4.93a.31.31,0,0,1,.31.32v1.36a.31.31,0,0,1-.31.32H73.15a.32.32,0,0,1-.32-.32Z"/></g></g><g id="g160863"><g id="g160865"><path id="path160867" class="cls-4" d="M96.55,43a.39.39,0,0,1,.4-.4h1.47a.41.41,0,0,1,.4.4v4.49L103,42.76a.42.42,0,0,1,.32-.16H105a.35.35,0,0,1,.26.6l-4.35,4.89,4.67,5.57a.37.37,0,0,1-.3.59h-1.82a.38.38,0,0,1-.3-.12l-4.34-5.36v5.08a.41.41,0,0,1-.4.4H97a.4.4,0,0,1-.4-.4Z"/></g></g><g id="g160869"><g id="g160871"><path id="path160873" class="cls-4" d="M114,42.91a.32.32,0,0,1,.32-.31h6.78a.32.32,0,0,1,.32.31v1.37a.32.32,0,0,1-.32.31h-4.93v2.73h4.11a.33.33,0,0,1,.32.32V49a.32.32,0,0,1-.32.32h-4.11v2.91h4.93a.32.32,0,0,1,.32.32v1.36a.32.32,0,0,1-.32.32h-6.78a.32.32,0,0,1-.32-.32Z"/></g></g><g id="g160875"><g id="g160877"><path id="path160879" class="cls-4" d="M135.53,42.43A6.26,6.26,0,0,1,139.59,44a.31.31,0,0,1,0,.46l-1,1.09a.3.3,0,0,1-.44,0,3.73,3.73,0,0,0-2.51-1,3.84,3.84,0,0,0,0,7.67,5.35,5.35,0,0,0,2-.41V50.4h-1.34a.3.3,0,0,1-.31-.3V48.79a.3.3,0,0,1,.31-.32h3.2a.31.31,0,0,1,.3.32v4.26a.32.32,0,0,1-.13.27,8.45,8.45,0,0,1-4.13,1.08,6,6,0,0,1,0-12"/></g></g><g id="g160881"><g id="g160883"><path id="path160885" class="cls-4" d="M38.55,63l.25-.43a.16.16,0,0,1,.24,0,2.41,2.41,0,0,0,1.07.43.59.59,0,0,0,.64-.54c0-.36-.3-.61-.89-.85s-1.34-.69-1.34-1.53a1.42,1.42,0,0,1,1.6-1.36,2.43,2.43,0,0,1,1.41.48.17.17,0,0,1,0,.23l-.27.4c-.06.09-.17.15-.25.09a2.32,2.32,0,0,0-1-.39.57.57,0,0,0-.63.5c0,.33.26.55.84.79s1.48.68,1.48,1.6a1.49,1.49,0,0,1-1.63,1.4,2.31,2.31,0,0,1-1.56-.55c-.06-.07-.1-.1,0-.22"/></g></g><g id="g160887"><g id="g160889"><path id="path160891" class="cls-4" d="M46.31,59.57H45.23a.13.13,0,0,1-.13-.13v-.58a.13.13,0,0,1,.13-.14h3.1a.14.14,0,0,1,.13.14v.58a.13.13,0,0,1-.13.13H47.24v4a.14.14,0,0,1-.13.14h-.66a.15.15,0,0,1-.14-.14Z"/></g></g><g id="g160893"><g id="g160895"><path id="path160897" class="cls-4" d="M52.17,58.86a.14.14,0,0,1,.14-.14h2.88a.13.13,0,0,1,.13.14v.58a.13.13,0,0,1-.13.13h-2.1v1.16h1.75a.15.15,0,0,1,.14.14v.59a.14.14,0,0,1-.14.13H53.09v1.24h2.1a.13.13,0,0,1,.13.13v.58a.13.13,0,0,1-.13.14H52.31a.14.14,0,0,1-.14-.14Z"/></g></g><g id="g160899"><g id="g160901"><path id="path160903" class="cls-4" d="M61.72,62,61,60.43h0L60.3,62Zm-3,1.5,2.2-4.76a.12.12,0,0,1,.12-.08h.07a.12.12,0,0,1,.12.08l2.18,4.76a.13.13,0,0,1-.12.19h-.62a.21.21,0,0,1-.2-.14l-.35-.77H60l-.34.77a.21.21,0,0,1-.21.14h-.61a.12.12,0,0,1-.12-.19"/></g></g><g id="g160905"><g id="g160907"><path id="path160909" class="cls-4" d="M67,58.89a.17.17,0,0,1,.17-.17h.62a.17.17,0,0,1,.17.17V60.8l1.79-2a.17.17,0,0,1,.13-.08h.71a.15.15,0,0,1,.11.26l-1.84,2.08,2,2.37a.16.16,0,0,1-.13.25h-.77a.18.18,0,0,1-.13,0l-1.85-2.28v2.16a.17.17,0,0,1-.17.17h-.62a.17.17,0,0,1-.17-.17Z"/></g></g><g id="g160911"><g id="g160913"><path id="path160915" class="cls-4" d="M74.57,58.86a.15.15,0,0,1,.14-.14h.66a.14.14,0,0,1,.13.14v1.87h2.31V58.86a.13.13,0,0,1,.13-.14h.65a.15.15,0,0,1,.14.14v4.68a.15.15,0,0,1-.14.14h-.65a.13.13,0,0,1-.13-.14V61.59H75.5v1.95a.14.14,0,0,1-.13.14h-.66a.15.15,0,0,1-.14-.14Z"/></g></g><g id="g160917"><g id="g160919"><path id="path160921" class="cls-4" d="M85.18,62.83a1.63,1.63,0,0,0,1.63-1.62,1.63,1.63,0,1,0-3.25,0,1.63,1.63,0,0,0,1.62,1.62m0-4.18a2.55,2.55,0,1,1-2.54,2.56,2.54,2.54,0,0,1,2.54-2.56"/></g></g><g id="g160923"><g id="g160925"><path id="path160927" class="cls-4" d="M91.56,58.86a.15.15,0,0,1,.14-.14h.67a.13.13,0,0,1,.13.14v2.89a1,1,0,1,0,2.06,0v-2.9a.14.14,0,0,1,.14-.14h.67a.15.15,0,0,1,.14.14V61.8a2,2,0,0,1-4,0Z"/></g></g><g id="g160929"><g id="g160931"><path id="path160933" class="cls-4" d="M99.41,63l.25-.43a.16.16,0,0,1,.24,0,2.41,2.41,0,0,0,1.07.43.59.59,0,0,0,.65-.54c0-.36-.31-.61-.9-.85s-1.33-.69-1.33-1.53A1.41,1.41,0,0,1,101,58.65a2.47,2.47,0,0,1,1.42.48.17.17,0,0,1,0,.23l-.27.4c-.06.09-.16.15-.25.09a2.21,2.21,0,0,0-1-.39.57.57,0,0,0-.63.5c0,.33.27.55.84.79s1.48.68,1.48,1.6a1.49,1.49,0,0,1-1.63,1.4,2.34,2.34,0,0,1-1.56-.55c-.06-.07-.1-.1,0-.22"/></g></g><g id="g160935"><g id="g160937"><path id="path160939" class="cls-4" d="M106.51,58.86a.14.14,0,0,1,.14-.14h2.88a.13.13,0,0,1,.13.14v.58a.13.13,0,0,1-.13.13h-2.1v1.16h1.75a.15.15,0,0,1,.14.14v.59a.14.14,0,0,1-.14.13h-1.75v1.24h2.1a.13.13,0,0,1,.13.13v.58a.13.13,0,0,1-.13.14h-2.88a.14.14,0,0,1-.14-.14Z"/></g></g><g id="g160941"><g id="g160943"><path id="path160945" class="cls-4" d="M115.08,61.56H114a.14.14,0,0,1-.14-.13V61a.14.14,0,0,1,.14-.13h1.06V59.83a.13.13,0,0,1,.14-.13h.39a.14.14,0,0,1,.14.13V60.9h1.07a.12.12,0,0,1,.12.13v.4a.12.12,0,0,1-.12.13h-1.07v1.06a.13.13,0,0,1-.14.12h-.39a.13.13,0,0,1-.14-.12Z"/></g></g><g id="g160947"><g id="g160949"><path id="path160951" class="cls-4" d="M122.79,62.84a.62.62,0,0,0,.63-.64.69.69,0,0,0-.72-.62h-.77v1.26Zm-.1-2a.6.6,0,0,0,.61-.63.57.57,0,0,0-.61-.6h-.76V60.8ZM121,58.86a.13.13,0,0,1,.13-.14h1.62a1.4,1.4,0,0,1,1.5,1.31,1.36,1.36,0,0,1-.78,1.13,1.27,1.27,0,0,1,.92,1.15,1.44,1.44,0,0,1-1.55,1.37h-1.71a.13.13,0,0,1-.13-.14Z"/></g></g><g id="g160953"><g id="g160955"><path id="path160957" class="cls-4" d="M130.77,62l-.7-1.56h0L129.35,62Zm-3.05,1.5,2.2-4.76a.12.12,0,0,1,.12-.08h.07a.12.12,0,0,1,.12.08l2.18,4.76a.13.13,0,0,1-.12.19h-.62a.21.21,0,0,1-.2-.14l-.35-.77H129l-.34.77a.21.21,0,0,1-.21.14h-.61a.12.12,0,0,1-.12-.19"/></g></g><g id="g160959"><g id="g160961"><path id="path160963" class="cls-4" d="M138.11,61a.71.71,0,0,0,0-1.41H137V61ZM136,58.86a.14.14,0,0,1,.13-.14h2a1.53,1.53,0,0,1,1.54,1.53,1.56,1.56,0,0,1-1,1.43l1,1.79a.14.14,0,0,1-.12.21h-.74a.12.12,0,0,1-.11-.07l-.94-1.87H137v1.8a.14.14,0,0,1-.13.14h-.66a.14.14,0,0,1-.13-.14Z"/></g></g><g id="g160965"><g id="g160967"><path id="path160969" class="cls-2" d="M140.94,43.8a.1.1,0,1,0,0-.2h-.19v.2Zm-.34-.31a0,0,0,0,1,0,0H141a.25.25,0,0,1,.26.25.23.23,0,0,1-.16.23c0,.08.07.16.11.23a0,0,0,0,1,0,.06H141s0,0,0,0l-.1-.25h-.14v.24a0,0,0,0,1,0,0h-.07a0,0,0,0,1,0,0Zm.27,1a.62.62,0,1,0-.61-.61.61.61,0,0,0,.61.61m0-1.37a.76.76,0,1,1-.76.76.76.76,0,0,1,.76-.76"/></g></g></g></g></g></svg>