<svg id="Greyscale_copy" data-name="Greyscale copy" xmlns="http://www.w3.org/2000/svg" viewBox="0 0 178 107"><defs><style>.cls-1{fill:#999;}</style></defs><title>cifs-logo-swiss chalet</title><path class="cls-1" d="M124.61,83.57h.71a4,4,0,0,0,.88,0,.52.52,0,0,0,.37-.52.54.54,0,0,0-.13-.37.68.68,0,0,0-.37-.18h-1.46v1.13Zm-1,2.59V81.68h2a3.76,3.76,0,0,1,1.12.12,1.14,1.14,0,0,1,.56.43,1.24,1.24,0,0,1,.21.71,1.16,1.16,0,0,1-.32.83,1.52,1.52,0,0,1-1,.41,2.41,2.41,0,0,1,.52.38,5.79,5.79,0,0,1,.55.73l.59.87H126.8l-.7-1a5.52,5.52,0,0,0-.52-.65.67.67,0,0,0-.29-.19,1.82,1.82,0,0,0-.49,0h-.19v1.87Zm7.45,0V81.68h1v4.48Zm4.56,0V81.72h1V85.4H139v.76Zm6.74,0V81.72h1V85.4h2.41v.76ZM118,84.51v-.75h2.09v1.78a2.58,2.58,0,0,1-.88.49,3.44,3.44,0,0,1-1.17.21,2.74,2.74,0,0,1-1.32-.3,2,2,0,0,1-.84-.84,2.57,2.57,0,0,1-.28-1.19,2.44,2.44,0,0,1,.31-1.25,2.07,2.07,0,0,1,.92-.83,2.62,2.62,0,0,1,1.15-.22,2.44,2.44,0,0,1,1.4.34,1.6,1.6,0,0,1,.65,1l-1,.17a.9.9,0,0,0-.38-.52,1.2,1.2,0,0,0-.7-.19,1.37,1.37,0,0,0-1,.37,1.53,1.53,0,0,0-.37,1.12,1.62,1.62,0,0,0,.38,1.19,1.28,1.28,0,0,0,1,.4,1.61,1.61,0,0,0,.61-.11,1.88,1.88,0,0,0,.53-.27v-.57ZM32.2,86.16V81.68h2a3.54,3.54,0,0,1,1.09.12,1.07,1.07,0,0,1,.55.43,1.24,1.24,0,0,1,.21.71,1.2,1.2,0,0,1-.31.83,1.5,1.5,0,0,1-.94.41,2.12,2.12,0,0,1,.51.38,4.4,4.4,0,0,1,.54.73l.58.87H35.3l-.68-1a7.43,7.43,0,0,0-.51-.65.7.7,0,0,0-.28-.19,1.79,1.79,0,0,0-.48,0h-.19v1.87Zm1-2.59h.7a3.64,3.64,0,0,0,.85,0,.49.49,0,0,0,.27-.19.52.52,0,0,0,.1-.33.49.49,0,0,0-.13-.37.62.62,0,0,0-.36-.18H33.16v1.13Zm6.19.38a2.78,2.78,0,0,1,.21-1.15,2.21,2.21,0,0,1,.44-.61,1.82,1.82,0,0,1,.61-.41,2.7,2.7,0,0,1,1-.17,2.25,2.25,0,0,1,1.66.61,2.62,2.62,0,0,1,0,3.4,2.26,2.26,0,0,1-1.66.62A2.3,2.3,0,0,1,40,85.63,2.27,2.27,0,0,1,39.35,84Zm1,0a1.61,1.61,0,0,0,.37,1.15,1.24,1.24,0,0,0,.94.39,1.21,1.21,0,0,0,.93-.39,1.66,1.66,0,0,0,.37-1.16,1.6,1.6,0,0,0-.36-1.15,1.21,1.21,0,0,0-.94-.38,1.25,1.25,0,0,0-1,.38,1.65,1.65,0,0,0-.36,1.16Zm8,2.24V82.44h-1.4v-.76h3.75v.76h-1.4v3.72Zm5.52,0V81.68h1v4.48ZM58,84.7l.93-.08a.94.94,0,0,0,1,.86,1.13,1.13,0,0,0,.69-.19.55.55,0,0,0,.23-.43.36.36,0,0,0-.1-.27.76.76,0,0,0-.34-.2l-.76-.19a2.67,2.67,0,0,1-1.07-.44,1.16,1.16,0,0,1-.44-.91,1.11,1.11,0,0,1,.21-.64,1.27,1.27,0,0,1,.58-.45,2.59,2.59,0,0,1,.93-.15,2.12,2.12,0,0,1,1.34.36,1.3,1.3,0,0,1,.47,1l-.95,0a.72.72,0,0,0-.27-.49.92.92,0,0,0-.6-.16,1.14,1.14,0,0,0-.65.17.31.31,0,0,0-.15.27.37.37,0,0,0,.14.28,2.67,2.67,0,0,0,.88.29,5.07,5.07,0,0,1,1,.33,1.3,1.3,0,0,1,.53.45,1.33,1.33,0,0,1,.18.72,1.29,1.29,0,0,1-.22.72,1.35,1.35,0,0,1-.64.5,3,3,0,0,1-1,.16,2.14,2.14,0,0,1-1.38-.39A1.7,1.7,0,0,1,58,84.7Zm7,0,.93-.08a1,1,0,0,0,.33.65,1.05,1.05,0,0,0,.69.21,1.14,1.14,0,0,0,.7-.19.55.55,0,0,0,.23-.43.36.36,0,0,0-.1-.27.76.76,0,0,0-.34-.2l-.76-.19a2.8,2.8,0,0,1-1.08-.44,1.15,1.15,0,0,1-.43-.91,1.18,1.18,0,0,1,.2-.64,1.35,1.35,0,0,1,.59-.45,2.59,2.59,0,0,1,.93-.15,2.07,2.07,0,0,1,1.33.36,1.31,1.31,0,0,1,.48,1l-1,0a.71.71,0,0,0-.26-.49.92.92,0,0,0-.6-.16,1.12,1.12,0,0,0-.65.17.31.31,0,0,0-.15.27.37.37,0,0,0,.14.28,2.68,2.68,0,0,0,.87.29,5,5,0,0,1,1,.33,1.27,1.27,0,0,1,.52.45,1.25,1.25,0,0,1,.19.72,1.29,1.29,0,0,1-.22.72,1.45,1.45,0,0,1-.64.5,3.05,3.05,0,0,1-1,.16,2.13,2.13,0,0,1-1.37-.39A1.7,1.7,0,0,1,65,84.7Zm7.22,1.46V81.68h3.49v.76H73.18v1h2.36v.76H73.18V85.4h2.63v.76Zm7,0V81.68h2a3.66,3.66,0,0,1,1.1.12,1.11,1.11,0,0,1,.55.43,1.31,1.31,0,0,1,.2.71,1.16,1.16,0,0,1-.31.83,1.49,1.49,0,0,1-.93.41,2.6,2.6,0,0,1,.51.38,6,6,0,0,1,.54.73l.57.87H82.31l-.69-1a8.12,8.12,0,0,0-.5-.65.73.73,0,0,0-.29-.19,1.79,1.79,0,0,0-.48,0h-.19v1.87Zm1-2.59h.7a3.8,3.8,0,0,0,.86,0,.5.5,0,0,0,.36-.52.49.49,0,0,0-.13-.37.62.62,0,0,0-.35-.18H80.16v1.13Zm6.36,2.59V81.68h1v4.48Zm4.44,0V81.68h3.5v.76H91.91v1h2.37v.76H91.91V85.4h2.64v.76Zm16.42-.55-.55.67a3.27,3.27,0,0,1-.79-.52,1.86,1.86,0,0,1-.62.36,2.28,2.28,0,0,1-.78.12,1.8,1.8,0,0,1-1.35-.47,1.18,1.18,0,0,1-.35-.84,1.21,1.21,0,0,1,.27-.77,2.28,2.28,0,0,1,.83-.6,2,2,0,0,1-.37-.52,1,1,0,0,1-.13-.46.87.87,0,0,1,.35-.69,1.55,1.55,0,0,1,1-.28,1.44,1.44,0,0,1,1,.29.93.93,0,0,1,.35.73.89.89,0,0,1-.17.51,2.34,2.34,0,0,1-.7.55l.66.83a2.06,2.06,0,0,0,.21-.51l.83.17a4.25,4.25,0,0,1-.22.61,1.93,1.93,0,0,1-.19.32,3.24,3.24,0,0,0,.4.29,2.38,2.38,0,0,0,.35.21Zm-2.5-2.43.25-.18a.52.52,0,0,0,.27-.39.34.34,0,0,0-.13-.28.52.52,0,0,0-.36-.12.49.49,0,0,0-.34.1.3.3,0,0,0-.13.24.61.61,0,0,0,.21.38l.23.25Zm-.36.93a1.24,1.24,0,0,0-.48.36.74.74,0,0,0-.16.43.56.56,0,0,0,.2.45.73.73,0,0,0,.52.18,1.2,1.2,0,0,0,.42-.08,1.7,1.7,0,0,0,.43-.26l-.93-1.08ZM54.33,42.75l-3-3.12c5.71-.39,7.27-3.64,2.71-7.79-3.88-3.52-5.13-9.08,2-11.94l3.16,2.48c-1.25.54-3.35,1.15-4,2.6s.67,2.93,1.63,3.84a13.19,13.19,0,0,1,3.45,4.75l.21.66a7.41,7.41,0,0,1-.1,3.71,8.71,8.71,0,0,1-1.1,2,9.92,9.92,0,0,1-1.52,1.38,11.56,11.56,0,0,1-3.53,1.45Zm46.58-1.68h1v.71l-5.54-.09,0-20.65h4.48v20Zm-14.68-20h1.29v0L92,21,85.76,41.53l-4.23.09L77.87,26.21,73.48,41.53H68.63L63.35,21h4.57l3.34,14.07L75.3,21h5.32l3,14.31,3.33-13.64h-.68v-.62Zm-30,23.49-.69-.72a11.68,11.68,0,0,0,3.3-1.39,11.07,11.07,0,0,0,1.52-1.38,8.93,8.93,0,0,0,1.1-2,8,8,0,0,0,.29-1.87v-.08l0-.13,0-.13V35.2l0-.13v-.13l0-.13,0-.13,0-.14,0-.13,0-.14,0-.11c.21.4.41.8.59,1.24l.21.66a7.56,7.56,0,0,1-.1,3.72,8.64,8.64,0,0,1-1.1,2,9.92,9.92,0,0,1-1.52,1.38,11.66,11.66,0,0,1-3.53,1.45ZM56.33,26c.68-1.37,2.71-2,3.93-2.49l.92.67c-1.26.54-3.35,1.14-4,2.59a2.29,2.29,0,0,0-.11.58l0-.05L57,27.25l-.07-.1-.07-.09-.06-.1-.07-.09-.06-.1,0-.1-.05-.09,0-.09,0-.1,0-.09,0-.09,0-.09,0-.08Zm36.43-3.15,1.13,0L87.68,43.36l-4.24.09-.16-.68,3.48-.07,6-19.81Zm-11,0h.78l1.35,6.52-.37,1.54-1.76-8.06Zm-12.67,0h.76l1.73,7.3-.47,1.21-2-8.51Zm1.47,20.49-.17-.66h4.09l3.4-11.85.5,2.14-3,10.37Zm27.8.08v-.67h4.48v.66Zm3.56-2.89V22.87h.92V40.55Zm7.74,2.2-3-3.12c5.71-.39,7.28-3.64,2.71-7.79-3.87-3.52-5.12-9.08,2-11.94l3.16,2.48c-1.26.54-3.36,1.15-4,2.6s.68,2.93,1.64,3.84a13.31,13.31,0,0,1,3.45,4.75l.2.66a7.4,7.4,0,0,1-.09,3.71,8.75,8.75,0,0,1-1.11,2,9.48,9.48,0,0,1-1.52,1.38,11.46,11.46,0,0,1-3.53,1.45Zm1.92,1.83-.69-.72a11.44,11.44,0,0,0,3.3-1.39,11.07,11.07,0,0,0,1.52-1.38,9.39,9.39,0,0,0,1.11-2,8,8,0,0,0,.28-1.87v-.08l0-.13,0-.13,0-.13v-1.7l0-.13v-.13l0-.13,0-.14,0-.13,0-.14,0-.11a10.09,10.09,0,0,1,.59,1.24l.21.66a7.44,7.44,0,0,1-.1,3.72,8.64,8.64,0,0,1-1.1,2,9.92,9.92,0,0,1-1.52,1.38,11.56,11.56,0,0,1-3.53,1.45ZM111.66,26c.67-1.37,2.7-2,3.93-2.49l.91.67c-1.25.54-3.35,1.14-4,2.59a1.92,1.92,0,0,0-.11.58l0-.05-.07-.09-.07-.1-.07-.09-.07-.1-.06-.09-.06-.1-.06-.1,0-.09-.05-.09,0-.1,0-.09,0-.09,0-.09,0-.08ZM123,42.75l-3-3.12c5.71-.39,7.28-3.64,2.72-7.79-3.88-3.52-5.13-9.08,2-11.94l3.16,2.48c-1.26.54-3.36,1.15-4,2.6s.68,2.93,1.64,3.84A13.31,13.31,0,0,1,129,33.57l.2.66a7.4,7.4,0,0,1-.09,3.71,9.11,9.11,0,0,1-1.1,2,10,10,0,0,1-1.53,1.38A11.51,11.51,0,0,1,123,42.75Zm1.91,1.83-.69-.72a11.44,11.44,0,0,0,3.3-1.39A10.52,10.52,0,0,0,129,41.09a9,9,0,0,0,1.11-2,8,8,0,0,0,.28-1.87v-.08l0-.13,0-.13,0-.13v-1.7l0-.13v-.13l0-.13,0-.14,0-.13,0-.14,0-.11a11.85,11.85,0,0,1,.6,1.24l.2.66a7.33,7.33,0,0,1-.1,3.72,8.64,8.64,0,0,1-1.1,2,9.92,9.92,0,0,1-1.52,1.38,11.56,11.56,0,0,1-3.53,1.45ZM125,26c.67-1.37,2.7-2,3.93-2.49l.91.67c-1.25.54-3.35,1.14-4,2.59a2.29,2.29,0,0,0-.11.58l0-.05-.07-.09-.07-.1-.07-.09-.07-.1-.06-.09-.06-.1-.06-.1,0-.09,0-.09,0-.1,0-.09,0-.09,0-.09,0-.08ZM46.28,43.7C37.7,45.82,31.2,54.83,34.93,64.61c2,4.42,6.61,9,12.16,9.94L44.1,78c-8.71-1.72-15.64-7.69-15.66-19.17.87-12.15,6.53-15.61,14.87-19l3,3.81Zm7.08,3.83V57.59h7.11V47.53h4.94v23.9h.89v.63l-5.83,0V60.82H53.36V72.1H48.59v-24h-1v-.62c1.91,0,3.8,0,5.75,0Zm24-.25h7.23l6.28,25H84.32v-.63h1.07l-1.08-5.7H76.8l-1.07,5.7h.73v.63H71l6.39-25Zm5.91,15.29-2.84-10-2.67,10ZM102,47.44V68.77h8.29v3.49H97.12V48.12h-.74l0-.71,5.69,0Zm11,10h2V48.12h-.74v-.63H126.4l1.41,2.79h-8.16v7.15h7.26l-1.75,2.85h-5.51v9h9.16l-1,2.6H115V60.28h-3.25L113,57.45Zm17.8-10H147.4l-1.5,2.82-4.8-.09V71.39h.6v.75l-5.83,0L136,50.23l-6.47,0,1.34-2.82ZM59.23,62.32h-3.7V73.6H50.76v-1h3.77V61.32h4.62l.08,1Zm7.35,9.61V49h1V71.94Zm1,.63,0,1-5,0v-1l4.93,0ZM47.91,74.92l1.2.2-2.65,3.32-1.31,0,2.76-3.5Zm.54-29.72c-8.59,2.12-15.08,11.13-11.36,20.91A18.16,18.16,0,0,0,40.35,71a18.6,18.6,0,0,1-4.26-5.84c-3.72-9.78,2.77-18.79,11.36-20.91l1,1ZM55.53,49v7.9h-1V49ZM81.25,59.32l-.58,2.13-1.28,0,1.23-4.55.63,2.38Zm30.24,10.95h1v3.49H99.29v-1h12.2V70.27ZM104.2,48.94V68.15h-1V48.94Zm25.4,21.89H131l-1,2.6H117.19v-1H129l.62-1.6Zm-2.13-11.9h1.61l-1.75,2.85h-5.52v6.46h-1V60.78h5.52l1.14-1.85Zm1.05-7.15h-6.71v4.64h-1V50.78h7.25l.46,1Zm6.06,0h-4.22l.49-1h3.73v1Zm-48.53-3h.74l6.28,25H87.65v-1h4.42l-6-24ZM82.61,67.44H79l-.75,4H77l.94-5h4.64v1ZM78,72.79l-.07,1H73.18l.26-1h2.65l.52,0ZM148,48.94h1.53l-1.5,2.82-4.79-.09V71h-1V50.67l4.79.09,1-1.82Zm-4.76,23.6,0,1h-.73v0l-4.46,0v-1l5.15,0ZM30.58,76.44h4l.11.08.73.49.76.45.77.43.11,0H30.58v-1.5Zm20.31,0h96.67v1.5H49.76l0,0,1.16-1.46Z"/></svg>