<svg id="Greyscale_copy" data-name="Greyscale copy" xmlns="http://www.w3.org/2000/svg" viewBox="0 0 178 107"><defs><style>.cls-1{fill:#999;}.cls-2{fill:#fff;}</style></defs><title>cifs-logo-earls</title><path class="cls-1" d="M78.49,52.43a30.36,30.36,0,0,0-.18-4.77,3.66,3.66,0,0,0-4.46-3,4.25,4.25,0,0,0-1.87.75,2,2,0,0,0-.82,2c.06.5.16,1,.2,1.48A2.15,2.15,0,0,1,70.54,51a2.43,2.43,0,0,1-2.59.16,2.34,2.34,0,0,1-1.24-1.89,4.81,4.81,0,0,1,2.48-5.1A11.92,11.92,0,0,1,75,42.5a12.88,12.88,0,0,1,4.62.38,4.28,4.28,0,0,1,3.14,3.45A11.34,11.34,0,0,1,83,48.5c0,4.42,0,8.83,0,13.24a5.73,5.73,0,0,0,.19,1.37c.19.71.53.92,1.23.75.55-.14,1.07-.36,1.67-.57,0,.78.17,1.56-.51,2.25a5.31,5.31,0,0,1-3.22,1.84,3,3,0,0,1-3-1.37,19.57,19.57,0,0,1-1-1.76l-.45.36a10.52,10.52,0,0,1-5,2.46,6.58,6.58,0,0,1-4.78-.93,5.36,5.36,0,0,1-1.8-6.76A7.74,7.74,0,0,1,69.42,56a23.8,23.8,0,0,1,5.81-2.58C76.28,53.08,77.34,52.77,78.49,52.43Zm0,2.53A19,19,0,0,0,73,57a7.28,7.28,0,0,0-1.38,1.09,3.14,3.14,0,0,0,2.26,5.4,5.19,5.19,0,0,0,4.23-1.9,1.15,1.15,0,0,0,.35-.86c0-1.78,0-3.56,0-5.35C78.48,55.27,78.46,55.13,78.45,55Z"/><path class="cls-1" d="M64,52.45H50.17a12.59,12.59,0,0,0-1.5.1c-.61.09-.93.41-.91,1A10.43,10.43,0,0,0,51.6,62a6.78,6.78,0,0,0,7,1,13.76,13.76,0,0,0,3.84-2.3l.3-.23,1,.82a.74.74,0,0,1-.08.24,15.49,15.49,0,0,1-4.24,4.41,9.24,9.24,0,0,1-6.94,1.29c-4.54-.84-7.18-3.72-8.28-8.08a15.41,15.41,0,0,1,.67-9.78,10.68,10.68,0,0,1,6.07-6.28,9,9,0,0,1,10.39,2.62A11.29,11.29,0,0,1,64,52.07C64,52.17,64,52.28,64,52.45ZM58.3,50.14a.91.91,0,0,0,.05-.22,2.17,2.17,0,0,0,0-.26A6.11,6.11,0,0,0,56.6,46a4.45,4.45,0,0,0-5.87-.28,8.2,8.2,0,0,0-2.44,4.47Z"/><path class="cls-1" d="M108.63,33.56h-3.38a9.38,9.38,0,0,1,0-1.2c0-.14.24-.3.39-.35,1.63-.53,3.27-1,4.9-1.56a6,6,0,0,1,2.39-.51l.49,0v.69q0,14.93,0,29.85a11.52,11.52,0,0,0,.2,2,2.81,2.81,0,0,0,2.5,2.43l.77.12v1.69h-12V65.12c.19,0,.38-.08.56-.1a3.21,3.21,0,0,0,3-3,14.4,14.4,0,0,0,.12-1.86q0-12.86,0-25.72Z"/><path class="cls-1" d="M132.58,49.65h-1.44c-.19-.58-.35-1.13-.56-1.65a5.34,5.34,0,0,0-3.16-3.29,5.41,5.41,0,0,0-3.06-.19,2.65,2.65,0,0,0-1.82,3.88,3.21,3.21,0,0,0,1.21,1.46q1.86,1.19,3.76,2.27a25.42,25.42,0,0,1,4.49,3,6.55,6.55,0,0,1,.1,9.88,9,9,0,0,1-6.31,2.36,11.77,11.77,0,0,1-6.37-2.09c-1-.62-1-.62-1-1.78v-5h1.49c0,.19.1.39.14.59A8.6,8.6,0,0,0,122,63.25,5.47,5.47,0,0,0,128,64.62a3.2,3.2,0,0,0,2-3,3.49,3.49,0,0,0-1.57-3.21c-.83-.58-1.72-1.08-2.59-1.59-1.27-.74-2.56-1.43-3.81-2.19a10.12,10.12,0,0,1-2.81-2.53,5.77,5.77,0,0,1,1.46-8.4,9.12,9.12,0,0,1,5.82-1.42A14.81,14.81,0,0,1,132.27,44c.21.11.39.22.39.51,0,1.63,0,3.25,0,4.88A1.55,1.55,0,0,1,132.58,49.65Z"/><path class="cls-1" d="M100.32,65.08v1.71H87.43V65.1l.81-.11a2.74,2.74,0,0,0,2.33-1.8A6.71,6.71,0,0,0,91,60.73c0-2,0-4.07,0-6.11V46.13H87.58V44.69l1.22-.41c1.74-.58,3.48-1.18,5.24-1.72a8.36,8.36,0,0,1,1.64-.14v3.92l.11,0a2.94,2.94,0,0,0,.31-.3A20,20,0,0,1,99,43.34a4.86,4.86,0,0,1,.68-.43,3.88,3.88,0,0,1,5,1,3.11,3.11,0,0,1-.17,4,2.11,2.11,0,0,1-2.37.49,7.11,7.11,0,0,1-1.35-.85c-.31-.21-.58-.48-.88-.69a1.34,1.34,0,0,0-1.52,0,6.37,6.37,0,0,0-1.69,1.54l0,.05a4.09,4.09,0,0,0-1,2.81c.08,3.16,0,6.32,0,9.48A7.56,7.56,0,0,0,96,62.75,3,3,0,0,0,99,65.08C99.4,65.11,99.82,65.08,100.32,65.08Z"/><path class="cls-1" d="M103.49,77h-.94l-2.17-3.08-.09,0v3h-.94V72.23c.83-.22,1-.16,1.44.5L102.37,75a.55.55,0,0,1,.06.22l.15-.11V72.18h.91Z"/><path class="cls-1" d="M91.25,72.18V77h-1V75H88.14v2h-1V72.18h1V74h2.11V72.18Z"/><path class="cls-1" d="M117.42,76.94V72.18a8.47,8.47,0,0,1,2.31,0,1.07,1.07,0,0,1,.92.86,1.15,1.15,0,0,1-.45,1.23l-.15.14a1.29,1.29,0,0,1,.82,1.2,1.12,1.12,0,0,1-.8,1.14,5.42,5.42,0,0,1-1.15.19c-.42,0-.85,0-1.28,0Zm1-.81a7.64,7.64,0,0,0,.84,0,.51.51,0,0,0,.52-.51.54.54,0,0,0-.41-.65,8.86,8.86,0,0,0-1-.11Zm0-2c.44,0,.87.14,1.11-.28a.62.62,0,0,0,0-.58c-.27-.35-.67-.33-1.1-.24Z"/><path class="cls-1" d="M131.77,74.88l1.4,2.11a5.93,5.93,0,0,1-1,0,.71.71,0,0,1-.4-.29c-.3-.42-.56-.87-.86-1.29a2.42,2.42,0,0,0-.4-.38l-.12,0V77h-1.05V72.11c.79,0,1.54,0,2.27.12a1.19,1.19,0,0,1,1.09,1.09,1.28,1.28,0,0,1-.77,1.44Zm-1.35-.7c.46.06.91.17,1.17-.24a.79.79,0,0,0,0-.73,1,1,0,0,0-1.13-.19Z"/><path class="cls-1" d="M67.5,74.09a14.22,14.22,0,0,0,1.09-1.4c.36-.62.88-.61,1.57-.49-.32.42-.61.77-.88,1.13s-.69.71-.7,1.09.41.71.65,1.06l1,1.4a1.12,1.12,0,0,1-1.55-.42A13.32,13.32,0,0,0,67.47,75v2h-1V72.19l.93-.06A14.87,14.87,0,0,1,67.5,74.09Z"/><path class="cls-1" d="M124.38,72.16h1c.62,1.59,1.25,3.17,1.89,4.81h-1.14c-.11-.26-.23-.54-.35-.84h-1.87c-.11.27-.22.54-.35.84h-1Zm.49,1.26c-.22.65-.4,1.18-.61,1.76h1.24Z"/><path class="cls-1" d="M96.83,76.1V77H94V72.19h2.74c0,.24,0,.48,0,.81H95.06v1h1.5c0,.29,0,.51,0,.81H95.06V76.1Z"/><path class="cls-1" d="M84.43,75.87l.38.63a2.51,2.51,0,0,1-3.29-.09,2.75,2.75,0,0,1-.12-3.54,2.57,2.57,0,0,1,3.33-.38c-.12.22-.26.44-.4.69-.83-.32-1.62-.47-2.16.41a2,2,0,0,0,.17,2.17C82.78,76.25,83.34,76.29,84.43,75.87Z"/><path class="cls-1" d="M77.85,77H76.78v-3.9L75.48,73v-.8H79.1V73l-1.25.07Z"/><path class="cls-1" d="M72.36,72.18h1V77h-1Z"/><path class="cls-1" d="M110.05,72.94h.8c0,.19,0,.37,0,.56s0,.35,0,.58l1.19.1v.71l-1.18.09c0,.41,0,.79-.06,1.21h-.81c0-.41,0-.79-.06-1.21l-1.15-.08v-.72l1.15-.06C110,73.74,110,73.37,110.05,72.94Z"/><path class="cls-2" d="M78.45,55c0,.17,0,.31,0,.45,0,1.79,0,3.57,0,5.35a1.15,1.15,0,0,1-.35.86,5.19,5.19,0,0,1-4.23,1.9,3.14,3.14,0,0,1-2.26-5.4A7.28,7.28,0,0,1,73,57,19,19,0,0,1,78.45,55Z"/><path class="cls-2" d="M58.3,50.14h-10a8.2,8.2,0,0,1,2.44-4.47A4.45,4.45,0,0,1,56.6,46a6.11,6.11,0,0,1,1.74,3.71,2.17,2.17,0,0,1,0,.26A.91.91,0,0,1,58.3,50.14Z"/><path class="cls-2" d="M118.42,76.13V74.85a8.86,8.86,0,0,1,1,.11.54.54,0,0,1,.41.65.51.51,0,0,1-.52.51A7.64,7.64,0,0,1,118.42,76.13Z"/><path class="cls-2" d="M118.42,74.09V73c.43-.09.83-.11,1.1.24a.62.62,0,0,1,0,.58C119.29,74.23,118.86,74.08,118.42,74.09Z"/><path class="cls-2" d="M130.42,74.18V73a1,1,0,0,1,1.13.19.79.79,0,0,1,0,.73C131.33,74.35,130.88,74.24,130.42,74.18Z"/><path class="cls-2" d="M124.87,73.42l.63,1.76h-1.24C124.47,74.6,124.65,74.07,124.87,73.42Z"/></svg>