<svg id="Greyscale_copy" data-name="Greyscale copy" xmlns="http://www.w3.org/2000/svg" viewBox="0 0 178 107"><defs><style>.cls-1{fill:#fff;}.cls-2{fill:#999;}</style></defs><title>cifs-logo-a&amp;amp;w</title><path class="cls-1" d="M144.11,52.06a18.78,18.78,0,0,0-3.6-4.94,33.64,33.64,0,0,0-6.67-5.1l5.87-2.1L118.05,26.68l-1-.61-.46,1.08L114.93,31c-3.42-.33-7.26-.55-11.14-.65-1.5,0-3-.05-4.5-.05-2.71,0-5.36.06-7.89.18-16.07.76-30.8,3.8-41.48,8.56a40.62,40.62,0,0,0-12.43,8.07,19,19,0,0,0-3.6,4.94,13,13,0,0,0-1.38,5.56v.43A13.59,13.59,0,0,0,34,64a19.93,19.93,0,0,0,7.72,7.75c4.62,2.81,11,5,18.86,6.61a146,146,0,0,0,22.87,2.5h.47c1.08,0,2.14,0,3.17,0l1.91,0,1.91,0c1,0,2.09,0,3.16,0h.46a146,146,0,0,0,22.89-2.5c7.89-1.58,14.24-3.8,18.86-6.61A19.93,19.93,0,0,0,144,64a13.51,13.51,0,0,0,1.49-6v-.45a13,13,0,0,0-1.38-5.55"/><path class="cls-2" d="M118.54,29.17h0l-.63-.4-.29.69h0L116.09,33c-3.74-.4-8-.66-12.34-.77l-1.1,0h-.11c-.74,0-1.48,0-2.23,0H97.94l-2.3,0h0l-1.32,0h-.44l-2.38.1c-16.58.78-30.73,3.9-40.81,8.4a39.16,39.16,0,0,0-11.88,7.68c-2.8,2.84-4.4,6-4.45,9.23V58a11.9,11.9,0,0,0,1.29,5.16,18.16,18.16,0,0,0,7,7c4.75,2.89,11.15,5,18.26,6.37A143.56,143.56,0,0,0,83.51,79H84c13.35.33,20.37-1.55,20.42-1.57a.62.62,0,0,0,.46-.71.64.64,0,0,0-.67-.54l-1,0c-1.91.07-6.42.18-12,0-2.64-.07-5.53-.19-8.48-.4C70.36,75,61.53,73,55.46,70.4H47.1l2.47-3.2a16.23,16.23,0,0,1-3.87-3.69,8.42,8.42,0,0,1-1.76-5.07A6.32,6.32,0,0,1,45,55.1c1.23-1.93,3.55-3.81,6.72-5.5,4.76-2.53,11.43-4.62,19.18-6a128.17,128.17,0,0,1,22.88-1.91h.56l2.28,0A133.11,133.11,0,0,1,111.82,43l-.65,1.51-1.58,3.67,1.34-.41h0l24.56-8.17m-19.13-4.41c-3.78-.42-8.15-.7-12.65-.81-1.46,0-2.92,0-4.38,0-2.64,0-5.26,0-7.72.17A145.3,145.3,0,0,0,68.8,37.26c-7.37,1.54-13.72,3.18-20.88,6.64a39.12,39.12,0,0,0-9.5,6.34,13.41,13.41,0,0,1,1.5-1.65c8.35-8,27.35-14.22,51.62-15.36,2.53-.12,5.14-.18,7.75-.18a162.67,162.67,0,0,1,17,.86l.75,1.31Zm2.83-3.09-.55-1.77,14.18,8.66L130,38.57Z"/><path class="cls-2" d="M99.21,59.58a5.52,5.52,0,0,0-3.59-1.37c-.24,0-.51,0-.79,0a9.88,9.88,0,0,0-4.68,1.15,11.74,11.74,0,0,0-1.5.87,8.88,8.88,0,0,0-.81.61l-.08,0a5.7,5.7,0,0,1,1.3-1.52,8.47,8.47,0,0,1,5.65-1.78c.4,0,.8,0,1.21,0a7.36,7.36,0,0,1,3.09,1,2.58,2.58,0,0,1,.57.52c-.06-.36-.12-.72-.19-1.07h0A8,8,0,0,0,96,56.9c-2.69-.17-5.16.12-7.33,1.89a5.28,5.28,0,0,0-2.06,3.46,12.79,12.79,0,0,1,4-1.68c2.52-.56,4.06.18,4.47,1,.83,1.75-3,4.75-7.43,4.65-4-.1-5.37-2-5-3.88.68-3.26,4.8-4.92,4.8-4.92s-2-.79-1.18-2.52A4.43,4.43,0,0,1,90,53c3.92-.21,5.36,1.55,5.36,1.55a4.32,4.32,0,0,0-1.24-4.34,8,8,0,0,0-5.46-1.61c-2.54.14-5.86,1.06-7.86,3.8a6,6,0,0,0-.65,5.14,10.85,10.85,0,0,0-3.83,3.31c.07.34.14.68.2,1l0-.1c.07-.14.15-.28.23-.41l.11-.19.36-.48.28-.33.11-.12a9.45,9.45,0,0,1,.73-.7,10.82,10.82,0,0,1,1.44-1,5.92,5.92,0,0,1,.62-.35l.53-.26-.19-.56a5.52,5.52,0,0,1-.27-1.74,4.8,4.8,0,0,1,.82-2.8c1.82-2.5,4.94-3.39,7.36-3.52H89a7.16,7.16,0,0,1,4.66,1.46,3.58,3.58,0,0,1,1.15,2.59l0,0a4.68,4.68,0,0,0-.27-.4A5.71,5.71,0,0,0,94,52.2a3,3,0,0,0-.73-1A6.45,6.45,0,0,0,89,49.88h-.31c-1.42.09-4.89.57-6.86,3.27a4.65,4.65,0,0,0-.46,4,1.29,1.29,0,0,1-.66,1.58s-3.28,1.67-3.92,4.2a2.25,2.25,0,0,0,0,.22c.41,2.09.79,4,1.06,5.41A13.24,13.24,0,0,0,84,70.86,22.76,22.76,0,0,0,94.8,69.42a11.24,11.24,0,0,0,5.76-5l-.75-4.1a3.48,3.48,0,0,0-.6-.74M95.9,63.85a7.72,7.72,0,0,1-3.2,2.61,11.45,11.45,0,0,1-4.86,1.11h-.26a7.33,7.33,0,0,1-5-1.62,6.85,6.85,0,0,0,2,.5,8.49,8.49,0,0,0,3,.5h.24a10.69,10.69,0,0,0,5.46-1.51,6.08,6.08,0,0,0,2.16-2.07,4.8,4.8,0,0,0,1-1.12,3.32,3.32,0,0,1-.54,1.61"/><path class="cls-2" d="M131.78,49.31A4.06,4.06,0,0,0,128,51.13c-.42.75-4.56,8.57-4.56,8.57s-.74-7.69-.86-8.6a2.28,2.28,0,0,0-2.48-1.79h-3.6a3.56,3.56,0,0,0-3.38,1.83l-4.82,8.56s-1.18-7.58-1.36-8.38-1.07-2-3.18-2h-6s.76,4.23,1.55,8.67c.07.35.13.71.19,1.07s.16.85.23,1.27l.75,4.1c.28,1.57.51,2.79.62,3.31.48,2.33,2.31,2.67,3.87,2.67h2.06a4,4,0,0,0,3.49-1.87c.54-.82,4.73-7.54,4.73-7.54s.9,5.22,1.25,6.94a3.36,3.36,0,0,0,3.55,2.47h3A5.08,5.08,0,0,0,127,68l10.9-18.68m-38.2,1.56L98.65,50h5.14a2.64,2.64,0,0,1,2.21.88Zm16.82,0a2,2,0,0,0-2,1l-4.82,8.56a1.58,1.58,0,0,1-1.36.79,1.33,1.33,0,0,1-.28,0A1.54,1.54,0,0,1,106.8,60h.92a.71.71,0,0,0,.49.38.69.69,0,0,0,.71-.34s4.37-7.75,4.83-8.55a2.87,2.87,0,0,1,2.79-1.5h3.59a1.8,1.8,0,0,1,1.72.89Zm18.66,0h-3.41a2.55,2.55,0,0,0-2.38,1v0c-.41.73-4.52,8.46-4.56,8.54a1.56,1.56,0,0,1-2.91-.44h.92a.68.68,0,0,0,1.21,0s4.15-7.83,4.56-8.56A3.4,3.4,0,0,1,131.78,50h4.95Z"/><path class="cls-2" d="M77.83,68.52c-.27-1.36-.65-3.32-1.06-5.41-.08-.42-.16-.84-.25-1.26s-.13-.68-.2-1c-.72-3.76-1.42-7.39-1.57-8.31-.23-1.45-.57-3.21-.57-3.21H68.12c-3.08,0-5.4.95-6.93,2.87-.84,1.06-7.81,10.09-11.62,15L47.1,70.4h9.33l2.17-2.71H67l.41,2.72H78.2s-.15-.72-.37-1.88m-16.53-5,4.29-6,.87,6ZM72.89,50.87H68.12c-2.61,0-4.48.75-5.7,2.28-.83,1-7.72,10-11.54,14.92l-.6.77-1.79.88h0l1.64-2.13,4.12-5.33c3.37-4.37,6.9-8.94,7.48-9.66C63.11,50.87,65.17,50,68.12,50h5.5Z"/><path class="cls-2" d="M134.72,79l.86-2.25h.83v3.06h-.54V77.3h0l-1,2.49h-.38l-1-2.49h0v2.49H133V76.73h.83m-1.35.45h-.94v2.61H131V77.18h-.94v-.45h2.42Z"/></svg>