<svg id="Greyscale_copy" data-name="Greyscale copy" xmlns="http://www.w3.org/2000/svg" viewBox="0 0 178 107"><defs><style>.cls-1,.cls-2{fill:#999;}.cls-2{fill-rule:evenodd;}</style></defs><title>cifs-logo-courtyard marriott</title><path class="cls-1" d="M56.16,42.83a7.19,7.19,0,0,1-7.39,7.31A6.69,6.69,0,0,1,42,43.3a7.2,7.2,0,0,1,7.48-7.24A6.65,6.65,0,0,1,56.16,42.83Zm-11.24-.21c0,4.32,1.86,6.26,4.22,6.26,2.92,0,4.08-3.27,4.08-5.79,0-4.05-2-5.76-4.16-5.76C45.83,37.33,44.92,40.67,44.92,42.62Z"/><path class="cls-1" d="M40.45,47.54a5.57,5.57,0,0,1-3.85,1.34c-2.65,0-4.93-2.16-4.93-6.05,0-3.17,1.54-5.5,4.47-5.5a4.52,4.52,0,0,1,3.9,2,.18.18,0,0,0,.24,0l.44-.31a.29.29,0,0,0,.13-.24c0-.11-.06-2.81-.06-2.87s0-.13-.13-.13h-.48a.2.2,0,0,0-.17.11l-.41.56c-.08.13-.2.16-.47.08a8.88,8.88,0,0,0-3-.5c-4.2,0-7.39,3.11-7.39,6.92,0,4.25,3,7.16,7.46,7.16A9.47,9.47,0,0,0,40,49.63a.9.9,0,0,0,.43-.51c.1-.24.5-1.08.6-1.31S40.72,47.28,40.45,47.54Z"/><path class="cls-1" d="M81.82,46a6.91,6.91,0,0,0-2.31-2.51,3.65,3.65,0,0,0,3.23-3.82,3.28,3.28,0,0,0-3.58-3.34H66.63c-.19,0-.3.07-.33.15s-.15.37-.17.45,0,.25.23.29c1,.21,1.24.35,1.24,1.18v6.28c0,2.77-1.19,4.06-3.19,4.06-2.48,0-3-2.14-3-4.05V38.37a1.13,1.13,0,0,1,1-1.15.43.43,0,0,0,.34-.26c0-.05.07-.2.12-.33s0-.33-.25-.33h-5a.33.33,0,0,0-.33.15c0,.08-.1.24-.15.39s0,.31.21.35c1,.21,1.25.35,1.25,1.18v6.35c0,2.93,1.16,5.42,5.5,5.42,2.1,0,4.9-1,4.9-5.48v-6.2c0-.92.76-1.27,2-1.27s2,.27,2,1.34v9.29A1.12,1.12,0,0,1,72,49c-.25.05-.35.12-.41.27s-.09.25-.11.34,0,.33.25.33h4.93a.37.37,0,0,0,.36-.2c0-.1.1-.28.13-.35s0-.29-.23-.36c-.82-.19-1.22-.25-1.22-1.18v-4.2c3.18.57,4.94,5.62,5,5.82s.24.47.55.47H84c.13,0,.24-.08.24-.26v-.32c0-.19-.3-.31-.51-.45A17.89,17.89,0,0,1,81.82,46Zm-4.58-3.16H75.72V37.34H77.8c1.21,0,2.12.57,2.16,2.52A2.58,2.58,0,0,1,77.24,42.81Z"/><path class="cls-1" d="M102.58,47.82V45.55a4.09,4.09,0,0,1,.54-1.86s2.68-4.86,2.88-5.19a2.43,2.43,0,0,1,1.14-1.19c.44-.18.58-.25.63-.39s.09-.23.13-.33,0-.29-.19-.29h-3.59a.25.25,0,0,0-.23.15c0,.07-.08.21-.11.31a.21.21,0,0,0,.12.32c.07,0,.49.25.59.32a.67.67,0,0,1,.1.92c-.15.25-2.69,4.92-2.69,4.92s-2.13-4.31-2.35-4.77a.82.82,0,0,1,.12-1c.34-.28.67-.19.76-.47,0-.07.11-.31.15-.43s-.06-.24-.2-.24H85a.78.78,0,0,0-.69.24l-.42.72c-.13.21,0,.4.27.4h4.51V47.82a1.13,1.13,0,0,1-1,1.15c-.25.05-.34.12-.4.27s-.09.25-.12.34,0,.33.26.33h5a.36.36,0,0,0,.35-.2c0-.1.1-.28.13-.35s0-.29-.23-.36c-.83-.19-1.23-.25-1.23-1.18V37.66h3.47a2.08,2.08,0,0,1,1,.17,1.43,1.43,0,0,1,.6.68l3.28,6.3v3a1.12,1.12,0,0,1-1,1.15c-.24.05-.34.12-.4.27s-.09.25-.12.34,0,.33.26.33h4.93a.36.36,0,0,0,.36-.2c0-.1.1-.28.13-.35s0-.29-.23-.36C103,48.81,102.58,48.75,102.58,47.82Z"/><path class="cls-1" d="M133.84,48.91A11.39,11.39,0,0,1,131.65,46a7.19,7.19,0,0,0-1.93-2.38,4,4,0,0,0,3.12-4,3.3,3.3,0,0,0-3.59-3.34H122c-.18,0-.29.05-.34.15a4,4,0,0,0-.14.39c-.07.17,0,.31.21.35,1,.22,1.38.51,1.38,1.34V42c-.9,0-1.87-.06-2.48-.06a19.15,19.15,0,0,0-4.06.49c-.72-1.79-1.39-3.5-1.6-4.09s.12-1,1-1.14a.4.4,0,0,0,.36-.27l.14-.35c.09-.24,0-.31-.27-.31h-5.61c-.26,0-.39,0-.46.23l-.1.26c-.08.19,0,.34.22.43a2.6,2.6,0,0,1,.87.4,1.15,1.15,0,0,1,.35,1.48l-3.35,8.59c-.41,1-.53,1.09-1.35,1.28-.29.08-.44.1-.51.3l-.12.29c-.11.27,0,.35.25.35h3.39a.37.37,0,0,0,.4-.28l.09-.24c.05-.12,0-.24-.18-.32a2.77,2.77,0,0,1-.6-.33,10.88,10.88,0,0,1,5.07-4.42l1.33,3.49c.39,1.18-.67,1-.84,1.4l-.18.4c-.09.24.08.3.27.3h4.58c.22,0,.38,0,.48-.19l.2-.43c0-.16-.07-.28-.26-.33-1-.25-1.08-.32-1.46-1.27-.25-.59-1-2.37-1.71-4.24a14.58,14.58,0,0,1,3.46-.49,12.74,12.74,0,0,1,2.69.24v4.62a1.13,1.13,0,0,1-1,1.15c-.25.05-.34.12-.41.27l-.11.34c-.07.21,0,.33.26.33h4.93a.35.35,0,0,0,.35-.2c0-.1.1-.28.14-.35s0-.29-.23-.36c-.84-.19-1.23-.25-1.23-1.18V43.9a6.6,6.6,0,0,1,3.59,2.7,15.79,15.79,0,0,1,1.33,2.56c.19.42.29.75.71.75h2.65a.23.23,0,0,0,.25-.26v-.32C134.33,49.14,134.05,49,133.84,48.91Zm-23.31-4.07,2.11-5.43,1.42,3.76A18.1,18.1,0,0,0,110.53,44.84Zm17.68-1.92c-.38-.11-1.4-.37-2.41-.57v-5h2.08c1.22,0,2.1.57,2.15,2.52A2.89,2.89,0,0,1,128.21,42.92Z"/><path class="cls-1" d="M139.39,37.47h2.23c3,0,4.7,1.5,4.7,5.36,0,3.46-1.42,6.14-4.45,6.14-1.48,0-2.48-.34-2.48-1.82Zm-3.84-1.17c-.17,0-.29.05-.33.15s-.1.24-.16.39,0,.31.22.35c1,.22,1.38.51,1.38,1.34V48.64c0,.59.19.92.52,1a14.79,14.79,0,0,0,4.71.47,7.24,7.24,0,0,0,7.37-7.35c0-3.93-1.73-6.49-7.27-6.49h-6.44"/><path class="cls-2" d="M60.3,68a6.44,6.44,0,0,1-1-.12L57.7,70.52a3.62,3.62,0,0,0,2.07.67c1.81,0,3-1.79,5.23-6.83L67.67,70h3.56l-1.68-3.83,1-2L73.12,70h3.42l-6-13.15-2.75,1.37L70,63.14,69,65.06,65.1,56.55,62.21,58l2.39,5.12h0l-.93,1.9C63,66.35,61.67,68,60.3,68Z"/><path class="cls-2" d="M83.2,67.22v-5.3a2.85,2.85,0,0,0-.53-1.85,2.51,2.51,0,0,0-2.26-.88,5.91,5.91,0,0,0-2.56.51,1.32,1.32,0,0,0-.64.78,6.69,6.69,0,0,0-.42,1.65,5.28,5.28,0,0,1,2.5-1.43c.81-.12,1.36,0,1.36.48s-.23.5-.6.68A23.33,23.33,0,0,0,77.49,63,2.84,2.84,0,0,0,76,65.82a2.65,2.65,0,0,0,2.27,2.75,3.47,3.47,0,0,0,2.42-1.14,2,2,0,0,0,.51,1h2.44A2.21,2.21,0,0,1,83.2,67.22Zm-3-.65a1.46,1.46,0,0,1-1,.33c-.56,0-.87-.58-.87-1.35a3.18,3.18,0,0,1,.34-1.4A1.94,1.94,0,0,1,80.08,63c.34,0,.47.12.52.55a10.9,10.9,0,0,1,0,1.14C80.63,66,80.59,66.25,80.16,66.57Z"/><path class="cls-2" d="M95.57,59.29A1.78,1.78,0,0,1,97,60L96,61.61a1.42,1.42,0,0,0-1.82,0v4.87a2.72,2.72,0,0,0,.57,2H92.26a2,2,0,0,1-.71-1.56V60.41a1.52,1.52,0,0,0-.32-1h2.54a1.43,1.43,0,0,1,.31.6A2.26,2.26,0,0,1,95.57,59.29Z"/><path class="cls-2" d="M100.57,61.2v5.24a2.81,2.81,0,0,0,.57,2H98.71A2,2,0,0,1,98,66.9V60.41a1.52,1.52,0,0,0-.33-1h2.5A2.93,2.93,0,0,1,100.57,61.2Z"/><path class="cls-2" d="M89.19,59.29a1.78,1.78,0,0,1,1.46.66l-1.07,1.66a1.43,1.43,0,0,0-1.83,0v4.87a2.72,2.72,0,0,0,.58,2H85.89a2,2,0,0,1-.71-1.56V60.41a1.52,1.52,0,0,0-.33-1h2.54a1.44,1.44,0,0,1,.32.6A2.22,2.22,0,0,1,89.19,59.29Z"/><path class="cls-2" d="M109.16,61.36a5.45,5.45,0,0,0-2.12-2c-.69-.37-1.1-.36-2.61.35a4.61,4.61,0,0,0-1.78,1.4,3,3,0,0,0-.32,1.23,21.63,21.63,0,0,0,0,3c.15,2,2.17,3,2.9,3.19,1.29.42,2.77-.94,3.16-1.33a3.09,3.09,0,0,0,1.14-2c0-.43,0-.92,0-1.54A5.38,5.38,0,0,0,109.16,61.36Zm-2.54,5.31c-.2.36-.43.54-.74.53s-.65-.35-.86-1a15,15,0,0,1-.17-3.34,4.22,4.22,0,0,1,.38-1.85.76.76,0,0,1,.89-.43c.44.13.86.79.94,2.7C107.15,65.38,106.87,66.24,106.62,66.67Z"/><path class="cls-2" d="M113.83,60.07v6.37a2.76,2.76,0,0,0,.58,2h-2.49a2,2,0,0,1-.7-1.56V60.07h-1.44l.31-.85h1.13v-1.9l2.61-1v2.87h1.27l-.32.85Z"/><path class="cls-2" d="M119.38,60.07v6.37a2.76,2.76,0,0,0,.58,2h-2.49a2,2,0,0,1-.7-1.56V60.07h-1.44l.32-.85h1.12v-1.9l2.61-1v2.87h1.27l-.32.85Z"/></svg>