<svg id="Greyscale_copy" data-name="Greyscale copy" xmlns="http://www.w3.org/2000/svg" viewBox="0 0 178 107"><defs><style>.cls-1{fill:#999;}</style></defs><title>cifs-logo-tim hortons</title><path class="cls-1" d="M152.6,63c0-2.21-2.2-3.87-.21-6.73a1.06,1.06,0,0,0,0-1.13A17.9,17.9,0,0,0,151,52.73c-3.77,2.68-9.16,12.92-10.43,12.91s-.27-4.28,2-7.94c.56-.94.33-1,.19-1.27a11.13,11.13,0,0,0-1-1.47c-.24-.19-.52-.56-1,0s-6.42,5.77-7.65,7.08c.67-1.55,2.09-4.13,2.52-4.89s.19-1.12-.09-1.45-1.08-1.32-1.41-1.56-.52-.28-1,.23a16.47,16.47,0,0,1-5.37,3.8c.67-4.61-7.65-9.67-12.16,3.58-2.78,3.2-5.94,4.6-4.75,1.36.7-1.85,3.17-7.36,5.17-11.49,3.91-.15,8.63-.28,11.42-.2.38,0,.59,0,.7-.15a.4.4,0,0,0,0-.39v0a6.94,6.94,0,0,0-.28-1.2v0a.86.86,0,0,0-.92-.62c-1.15,0-5.7.25-10,.54.45-.88.84-1.62,1.14-2.14a1.21,1.21,0,0,0-.14-1.31,9.66,9.66,0,0,0-1.68-1.75c-.38-.24-.66-.14-1,.56-.46,1-1.27,2.84-2.23,4.93l-2.92.25c-.62.05-1,.71-1.19,1a.43.43,0,0,1,0,.07h0a.5.5,0,0,0,0,.51.53.53,0,0,0,.52.18c.24,0,1.27-.1,2.75-.18-1.48,3.17-3.16,6.62-4.48,8.85-3.55,5.45-6.14,4.73-5.14,2a51.08,51.08,0,0,1,3.84-7.52c.33-.56.42-1.22-.66-1.22s-1.79-.86-1.5-2.64c.15-1-.56-1.42-1-.62-1.19,2.26-4.44,5.54-6,6.05.24-1.64-1.21-3.81-5.73-3.82-1,0-3.23,0-5.88.08,2.24-4.76,4.29-8.85,4.5-9.17A.78.78,0,0,0,90,43a11.41,11.41,0,0,0-1.64-1.46.71.71,0,0,0-1,.23c-1.93,3.53-3.76,7.49-5.41,11.35-2.38.08-4.88.17-7.12.28,2-4.59,3.91-8.88,4.57-10.38.24-.47.38-.8,0-1.23a21.51,21.51,0,0,0-2-1.7.68.68,0,0,0-1.13.33c-.87,1.87-3.52,7.89-5.87,13.28l-1.14.11c-1.5.18-1.27,1.41,0,1.32h.57c-1.88,4.29-3.43,7.86-3.51,8.08a1.51,1.51,0,0,0,.18,1.74,16.57,16.57,0,0,0,1.93,1.8c.33.24.61.19.89-.42.8-2,2.52-6,4.33-10.18,2.57,1.47,4.21,4.47,3.91,8.74,0,.47-.19,1,.14,1.32a9.93,9.93,0,0,0,1.17.9c.62.28.85-.18,1-.65a129,129,0,0,1,5.09-12c2.33-.09,4.26-.13,4.83-.07C83,58.93,83.83,67,89.81,67c3.85,0,7.11-5.37,7.27-8.85a18.27,18.27,0,0,0,5-4,2.7,2.7,0,0,0,.51,1.18c-6.14,8-4.64,11.09-1.16,11.1s5.14-2.43,6.08-3.65c-1.28,4.28,3.66,5.28,8,.54,1.35,6.3,9.63,4.4,12-4A16.88,16.88,0,0,0,132,57a52.91,52.91,0,0,0-3.69,7c-.24.43-.1.66.23,1a16,16,0,0,0,1.5,1.37c.28.28.71.24,1.18-.33,3.3-3.75,6.8-7,7.36-7.55-2.26,2.58-3.08,8.6,1.06,8.62,3.25,0,2.78-3,9.35-10.7-2.18,5.12.31,6,.31,7.76,0,2.59-2.93,2.25-2.92-.52,0-.38-.14-.85-.61,0s-.71,1.17-.9,1.5-.14.61.23.85C147.84,67.93,152.59,67.28,152.6,63Zm-73.5-2.9c-.7-2.12-2.24-4.62-3.75-5.09,1.36-.15,3.62-.3,6-.43C80.53,56.43,79.78,58.3,79.1,60.05Zm11.66,4.18c-2.63,0-3.28-4.25,1.2-7.48a2.68,2.68,0,0,0,3.38,2C95.21,60.5,93.37,64.23,90.76,64.23ZM122,57.45c.39,1.84,1.74,2.42,3.37,2.31C122.44,69.15,115.34,63.82,122,57.45ZM34.92,45.68c-2.25,4.4-7,15.38-8.88,20.5-.25.64-.81,1-1.69.36S23,65.37,22.55,65s-.5-.6-.24-1.26A198.62,198.62,0,0,1,31.07,45c-1.57,0-7.37.66-8.71.77-.33,0-.45-.16-.71-.54-.42-.59-1-1.78-.65-2.25a228.7,228.7,0,0,1,28-2c.62,0,.74.45.82.82s.25,1.18.32,1.55,0,.62-.66.62-8.51.23-13.85.58Zm-.67,20.14c-1,.2-1.44-.25-2.77-1-.6-.35-.78-.63-.57-1.19a81.67,81.67,0,0,1,4.89-11,.62.62,0,0,1,1-.23c.52.5,1.24,1.24,1.6,1.65a1,1,0,0,1,.11,1.4l-2.89,6.5c-1.45,3.27,2.25,1.22,5.46-3.12l3.51-5.48c.18-.3.49-.29.83-.1s1.74,1.14,1.95,1.33.27.39,0,.85-2.68,5.77-3,6.77a53.28,53.28,0,0,1,7.36-8.24c.45-.37.64-.17.88,0s1.62,1.34,1.82,1.5a.68.68,0,0,1,.05,1,38.3,38.3,0,0,0-2.16,6,73.85,73.85,0,0,1,6.55-7.46,1,1,0,0,1,1.38,0,18.24,18.24,0,0,1,1.5,1.34c.25.32.2.4-.06.78-3,4.61-3.83,8.61-.9,7.85-1.41,3.27-6.32,1.86-5.19-1.65a19,19,0,0,1,2-5C55,60.17,52,64.62,51.13,66a.58.58,0,0,1-.77.11c-.66-.35-1.86-.91-2.26-1.18s-.25-.76,0-1.18,1.7-5.18,2.42-6.11A63.09,63.09,0,0,0,43,66c-.22.32-.49.37-.94.24s-1.44-.77-1.83-1-.59-.42-.32-.94c.79-1.81,2-4.42,2.31-5C42.18,59.34,38.63,64.94,34.25,65.82Zm7.19-15.54a2.37,2.37,0,1,1-1-3.33A2.46,2.46,0,0,1,41.44,50.28Z"/><path class="cls-1" d="M157.11,65.78a1.29,1.29,0,1,1-1.28-1.25A1.26,1.26,0,0,1,157.11,65.78Zm-2.25,0a1,1,0,1,0,1-1A1,1,0,0,0,154.86,65.78Zm.77.66h-.29V65.19a2,2,0,0,1,.48,0,.78.78,0,0,1,.43.09.34.34,0,0,1,.13.27.32.32,0,0,1-.26.29v0a.39.39,0,0,1,.23.3.82.82,0,0,0,.09.32h-.32a1.59,1.59,0,0,1-.1-.31c0-.14-.09-.2-.25-.2h-.14Zm0-.71h.13c.16,0,.29-.06.29-.18s-.08-.2-.26-.2a.51.51,0,0,0-.16,0Z"/></svg>