<svg id="Greyscale_copy" data-name="Greyscale copy" xmlns="http://www.w3.org/2000/svg" viewBox="0 0 178 107"><defs><style>.cls-1{fill:none;}.cls-2{fill:#fff;}.cls-3{fill:#999;}.cls-4{fill:#ccc;}</style></defs><title>cifs-logo-dq</title><rect class="cls-1" x="37.41" y="18.88" width="103.17" height="69.24"/><path class="cls-2" d="M101.81,83.75a29.32,29.32,0,0,0,4.82-2.16c1.09-.57,2.18-1.21,3.24-1.9C118.45,74.17,125,67.11,129.7,62c1.38-1.5,2.56-2.78,3.64-3.87a57.34,57.34,0,0,1,4.45-3.9l2.28-1.78-2.28-1.78a58.46,58.46,0,0,1-4.44-3.9c-.57-.57-1.16-1.19-1.8-1.87l.19-.8,3.41-14.56-1.64-.79c-10.31-5-22.37-7.88-32.58-7.93h0a40.4,40.4,0,0,0-12.16-1.84c-4.9-.05-12.17,1.05-17.89,4.3-1.09.58-2.19,1.22-3.24,1.9C59,30.66,52.52,37.72,47.77,42.87c-1.37,1.49-2.56,2.78-3.63,3.86-1.83,1.84-4.42,3.87-4.45,3.9l-2.27,1.78,2.27,1.78a56.06,56.06,0,0,1,4.44,3.9c.57.56,1.16,1.18,1.79,1.85l-.16.73L45,63.9,42.35,75.22,44,76a81.08,81.08,0,0,0,30.32,7.88l2.13.12a41.08,41.08,0,0,0,25.16-.19Z"/><path class="cls-3" d="M132,48.4c-5-5-12.45-14.49-23.25-21.45-1-.65-2.07-1.27-3.15-1.84-5.11-2.9-12-4.09-16.9-4s-11.8,1.13-16.9,4c-1.08.57-2.13,1.19-3.15,1.84-10.8,7-18.25,16.41-23.25,21.45-2,2-4.69,4.11-4.69,4.11a60.37,60.37,0,0,1,4.69,4.11c5,5,12.45,14.48,23.25,21.44,1,.65,2.07,1.27,3.15,1.84,5.1,2.9,12,4.1,16.9,4s11.79-1.14,16.9-4c1.08-.57,2.12-1.19,3.14-1.84,10.8-7,18.26-16.41,23.26-21.44a59.12,59.12,0,0,1,4.68-4.11S134,50.37,132,48.4"/><path class="cls-2" d="M61.58,36.65H75.69c9.14,0,15.45,2.53,14.47,11.36S85,65.74,73.27,65.74H56.79l.57-2.62,1.42-.25,5.56-23.35L61,39.23ZM69,62.58a16.15,16.15,0,0,0,2.89.2c7.07,0,8.89-16.49,8.65-19.07-.32-3.53-2-4.11-3.77-4.11H74.43Z"/><path class="cls-2" d="M117.84,65.69a6.53,6.53,0,0,1-2.52.7c-2.34,0-2.34-.84-3.43-2.38,5.83-3.24,9.44-9.84,9.44-17.43,0-6.88-5.36-10.66-14.29-10.66-10,0-18.19,9.16-18.45,18.25-.22,7.71,3.57,12.2,14.42,12.08a17.08,17.08,0,0,0,2.47-.16c1.33,3.24,2.38,4.63,6.77,4.63a10.24,10.24,0,0,0,4.86-1.22l.77-3.35ZM107,59.32a9.59,9.59,0,0,0-4.84-1.52l-.67,2.91a3.2,3.2,0,0,1,2.66,2.1,2.78,2.78,0,0,1-1.58.49c-2.72,0-3.86-1.49-4-3.45-.27-3.15,2.67-21,8.45-21,2.72,0,3.85,1.5,4,3.45.19,2.2-1.2,11.55-4,17"/><path class="cls-4" d="M130.69,40.19C119.92,32.78,103,27.31,89.16,27.61A58.22,58.22,0,0,0,73,30.21c6.92-4.37,16.32-7.17,26.71-7.4,10.65-.23,23.14,2.9,33.23,7.76Z"/><path class="cls-4" d="M46.67,64.82C57.43,72.23,74.4,77.71,88.19,77.4a58.29,58.29,0,0,0,16.17-2.6C97.44,79.17,88,82,77.64,82.2,67,82.44,54.5,79.3,44.41,74.44Z"/><path class="cls-2" d="M118.29,62.46a2,2,0,1,1,2,2.08,2,2,0,0,1-2-2.08m2,1.74a1.73,1.73,0,1,0-1.63-1.74,1.65,1.65,0,0,0,1.63,1.74m-.43-.53h-.34v-2.4h.87c.55,0,.81.21.81.68a.62.62,0,0,1-.59.66l.65,1.06h-.39l-.61-1h-.4Zm.41-1.36c.3,0,.56,0,.56-.39s-.25-.35-.5-.35h-.48v.74Z"/></svg>