<svg id="Greyscale_copy" data-name="Greyscale copy" xmlns="http://www.w3.org/2000/svg" viewBox="0 0 178 107"><defs><style>.cls-1{fill:#999;fill-rule:evenodd;}</style></defs><title>cifs-logo-subway</title><path class="cls-1" d="M79.62,48.23H78.14l-1,3.54h1.23a2.66,2.66,0,0,0,2.31-1.67l.07-.2A1.15,1.15,0,0,0,79.62,48.23Z"/><path class="cls-1" d="M77.39,56H75.9l-1,3.43h1.92a2,2,0,0,0,2-1.62l0-.19A1.37,1.37,0,0,0,77.39,56Z"/><polygon class="cls-1" points="112.7 56.65 113.94 49.15 109.92 56.65 112.7 56.65"/><path class="cls-1" d="M144.18,47.79c-2.1-3.43-4.2-6.82-6.3-10.27-.28-.46-.29-.46-.46.07l-1.28,3.94c-.12.39-.06.38-.46.34-2.82-.27-6,1.42-8.3,4.19-.28.32-.24.25-.31-.17-.17-1.19-.34-2.41-.51-3.61,0-.35-.1-.37-.45-.37H85.91c-.27,0-.28.05-.31.32s-.06.44-.09.69,0,.26-.3,0c-.64-.52-1.6-1.06-4.76-1.06h-22c-.29,0-.26,0-.34.27s-.16.47-.23.7c-.13.39-.09.32-.43.1a10.49,10.49,0,0,0-9.74-.11c-3.4,1.72-5.88,5.43-4.64,10.78.1.44.11.38-.31.56l-8.83,3.71c-.55.23-.7.27-.39.76l6.63,11c.16.23.25.23.35,0,.47-1.34.92-2.66,1.39-4,1.73.88,7.5.74,11.2-2.7,1,2,3.37,3.16,6,3.16A11.59,11.59,0,0,0,65.87,64l-.3.91c-.22.68-.18.7.57.7h8.5c3.11,0,6-.47,8.09-2.22.41-.33.48-.46.4.21,0,.46-.09.73-.14,1.19-.09.8-.13.82.7.82H106.5c.81,0,.75,0,1.13-.68l1.13-2.11c.1-.18.1-.34.32-.34h.19c.27,0,.18.06.14.31-.11.73-.23,1.46-.35,2.19s-.08.63.61.63H130c.9,0,1.5-.42,1.5-1.61v-2.3a1.1,1.1,0,0,0-1.23-1.25h-2.14c-.56,0-.53.1-.32-.43a23.4,23.4,0,0,1,4.59-7.38c.26-.28.38-.37.41-.35s-.09.39-.18.69c-.28.88-.1.81.75.46l10.54-4.35C144.92,48.65,144.77,48.75,144.18,47.79Zm-16,14.54h.4l.41,1.18.41-1.18h.41v1.48h-.27V62.59l-.42,1.22h-.27l-.41-1.22v1.22h-.26Zm-75.65-7.9a5.23,5.23,0,0,1,.6,5.31c-1.21,2.58-4.56,4.34-7.76,4.4a24.6,24.6,0,0,1-4.66-.53l-.75,2.28q-2-3.36-4-6.72l7.19-3c-.29.86-.57,1.73-.85,2.59,1.14.76,4.44,1.19,5-.52.42-1-.46-2-1.33-3.26-1-1.5-2-3.36-1.22-5.83a7.91,7.91,0,0,1,7.37-5.55,8.58,8.58,0,0,1,5,1.45l-2,4.1c-1.18-.84-3.73-1.54-4.6.13C49.51,51.08,51.61,53.08,52.51,54.43Zm6.77,9.93c-4.28,0-5.77-2.83-4.47-6.8,1.53-4.63,3-9.1,4.52-13.73h5.31c-1.49,4.52-3.12,9.49-4.61,14-.66,2,2,2,2.69-.05,1.48-4.51,3.11-9.46,4.6-14h5.5L68.29,57.58A9.46,9.46,0,0,1,59.28,64.36Zm16.94-.45H67.87q3.31-10,6.61-20.08h7.44c5.48,0,4.44,7.73-.07,9.67C87.35,57.55,82.3,63.91,76.22,63.91Zm17.73,0,2.12-12.73L90.14,63.91H85.06l2.33-20.08h5l-2.11,12.6,6-12.6h4.46L98.66,56.3l5.82-12.47h5.15L98.87,63.91Zm17.54,0,.56-3.35h-4.22L106,63.91h-4.8L112,43.83h7.11l-2.33,20.08ZM128,62.33v.22h-.52v1.26h-.28V62.55h-.52v-.22Zm7.4-11.75.79-2.44c-1.26-1-8.16,3.47-11.75,15.77h-5.6l2.91-8.84q-.88-5.62-1.75-11.24h4.86c.35,2.48.71,5,1.07,7.43,3.49-5.1,6.46-8,11.68-7.43.25-.74.5-1.48.74-2.23,1.26,2,2.51,4.1,3.78,6.15Z"/></svg>