<svg id="Greyscale_copy" data-name="Greyscale copy" xmlns="http://www.w3.org/2000/svg" viewBox="0 0 178 107"><defs><style>.cls-1{fill:#999;}</style></defs><title>cifs-logo-arbys</title><path class="cls-1" d="M90.83,32a2.67,2.67,0,0,0-.38-2.35c-.53-1.2-1.15-2.36-1.65-3.57a5,5,0,0,1,6.28-6.57,10.46,10.46,0,0,1,5,3.78,29.25,29.25,0,0,1,4.74,10.57,56.68,56.68,0,0,1,1.75,12.36c0,1.31.13,2.62.17,3.93a10.48,10.48,0,0,1-.09,1.17H103a3.88,3.88,0,0,1-.14-.66c-.1-2.06-.13-4.12-.27-6.18a44.6,44.6,0,0,0-2.86-13.69,16,16,0,0,0-3-5,6.14,6.14,0,0,0-2.6-1.83c-.52-.16-1-.29-1.43.17s-.13,1,.06,1.43c.33.73.76,1.4,1.15,2.1a7.6,7.6,0,0,1,1,4,5.31,5.31,0,0,1-1.56,3.66,4,4,0,0,1-5.47.17,17.86,17.86,0,0,1-2.81-3.68c-.47-.76-.92-1.53-1.46-2.24-.86-1.12-1.52-1.12-2.54-.13A14,14,0,0,0,78,34.89a39.14,39.14,0,0,0-2,8.74c-.29,2.37-.57,4.74-.87,7.11a3.45,3.45,0,0,1-.26.67c-1,0-2.1,0-3.17,0-.48,0-.64-.3-.58-.76.7-5.94,1.38-11.9,3.5-17.56a20.85,20.85,0,0,1,3.46-6.24,11.26,11.26,0,0,1,2.28-2.08,3.56,3.56,0,0,1,5,.5,21.16,21.16,0,0,1,3.17,4.29c.42.67.87,1.33,1.33,2C90,31.81,90,31.79,90.83,32Z"/><path class="cls-1" d="M110.08,75.35l1.86-2.82a4,4,0,0,1,3,4.2,5.72,5.72,0,0,1-1.36,3.61,14.11,14.11,0,0,1-5.21,3.74,41.77,41.77,0,0,1-11.89,3.18,70.83,70.83,0,0,1-12.09.48,46.78,46.78,0,0,1-13.11-2.21,16.87,16.87,0,0,1-4.79-2.32,10,10,0,0,1-2.25-2.29c-1.76-2.59-.91-5.83,2.11-7.52a11.93,11.93,0,0,1,5.27-1.33,27.33,27.33,0,0,1,7.8.88,54.54,54.54,0,0,1,9.68,3.33,6.51,6.51,0,0,1,.74.39,1.67,1.67,0,0,1,.81,1.81A1.86,1.86,0,0,1,89,79.86a4.58,4.58,0,0,1-1.76-.32,58.35,58.35,0,0,0-7-2.56,26.75,26.75,0,0,0-8.62-1,10.14,10.14,0,0,0-3.14.63c-1.55.6-1.74,2-.45,3.07a12,12,0,0,0,2.61,1.64,32.35,32.35,0,0,0,8.49,2.35,59.51,59.51,0,0,0,12.93.47,40.53,40.53,0,0,0,14.06-3,12.23,12.23,0,0,0,3.5-2.06C111.16,77.59,111.22,77.15,110.08,75.35Z"/><path class="cls-1" d="M62,68.53V65.28L64,65l-.69-2H57.1l-.68,2,2,.25V68.4a30.79,30.79,0,0,1-7.51.08V65.34a1.5,1.5,0,0,1,.49-.15c.8.06,1.17-.39,1.42-1.09.85-2.33,1.73-4.65,2.6-7,.63-1.66,1.28-3.31,2-5.08l-1.92-.17a9.38,9.38,0,0,1-.09-2.94c0-.2.42-.55.65-.56,1.64,0,3.29-.05,4.93,0a2,2,0,0,1,1.84,1.5c.67,1.84,1.41,3.67,2.09,5.51q1.62,4.34,3.19,8.7c.24.68.57,1.15,1.42,1a.63.63,0,0,1,.81.69c0,.88,0,1.77,0,2.62A49.85,49.85,0,0,1,62,68.53Zm.24-8.8C61.56,58,61,56.46,60.41,55c0-.06-.16-.08-.35-.18a33.69,33.69,0,0,0-1.61,4.95Z"/><path class="cls-1" d="M83.54,52.09l-1.09-.2c-.06-.12-.15-.2-.15-.28,0-.75,0-1.5,0-2.25s.1-1,1-1c1.17,0,2.34,0,3.52,0,1,0,1.07.08,1.08,1.16,0,1.83,0,3.66,0,5.5,0,.36,0,.73.06,1.19l.54-.35a5.8,5.8,0,0,1,9.25,4,13.54,13.54,0,0,1-.05,4.07,6,6,0,0,1-9.58,3.63c-.07-.06-.17-.06-.35-.12l-.28,1.16c-1.72.1-3.48,0-5.3.05-.36-1.16-.07-2.26-.19-3.43l1.61-.29Zm9.92,9.41a9,9,0,0,0-.52-1.66,2.36,2.36,0,0,0-2.41-1.38A2.39,2.39,0,0,0,88.32,60a4.16,4.16,0,0,0,.11,3.79A2.25,2.25,0,0,0,90.33,65C92.27,65.18,93.38,63.82,93.46,61.5Z"/><path class="cls-1" d="M98.75,73c.31-.47.52-.83.77-1.16.39-.52.81-1,1.23-1.54.55.33,1,.65,1.51.89a1.64,1.64,0,0,0,2.43-.86c.23-.49.58-1,.38-1.56-.07,0-.11-.1-.15-.09-1.69.24-2.23-.78-2.65-2.18-.76-2.51-1.67-5-2.53-7.44a4.88,4.88,0,0,0-.25-.53l-1.4-.17c0-.89,0-1.77,0-2.65s.13-.89.91-.9c1.37,0,2.73,0,4.09,0h1.71a7.86,7.86,0,0,1,.13,3.15c0,.25-.47.49-.86.85.46,1.72.94,3.56,1.44,5.41.11.41.33.68.88.47a7.62,7.62,0,0,0,.35-.84c.54-1.74,1.07-3.48,1.62-5.28l-1.22-.27V54.89c.45,0,.86-.07,1.27-.07,1.74,0,3.47,0,5.21,0,.89,0,1,.1,1,1s0,1.67,0,2.56l-1.4.18a1.13,1.13,0,0,0-.2.29q-2.12,5.79-4.22,11.6c-.11.3-.21.62-.33.92-1.48,3.84-5.39,5-8.7,2.48C99.44,73.58,99.16,73.34,98.75,73Z"/><path class="cls-1" d="M123.87,56c.34-1.12.34-1.13,1.22-1.14q.63,0,1.26,0c.13,0,.25.11.5.24v4.91h-3.24a2.36,2.36,0,0,0-2.7-2c-.75,0-1.23.31-1.36.79a1.24,1.24,0,0,0,1,1.34c1.1.39,2.22.72,3.33,1.08l.8.25a3.15,3.15,0,0,1,2.35,2.7,3.6,3.6,0,0,1-1.43,3.47,5.46,5.46,0,0,1-4,1,6.87,6.87,0,0,1-3.89-1.36l-.27,1.17h-2.77a21.77,21.77,0,0,1-.06-5h3.12c.18.24.38.55.61.84a3.46,3.46,0,0,0,3.18,1c.41-.14.89-.32.83-.82a1.23,1.23,0,0,0-.61-.84c-.72-.32-1.5-.49-2.26-.74a16.22,16.22,0,0,1-2.37-.83,3.24,3.24,0,0,1-1.82-3.87A4.49,4.49,0,0,1,117,55.62a5.9,5.9,0,0,1,6.23-.08C123.42,55.67,123.59,55.82,123.87,56Z"/><path class="cls-1" d="M71.12,68.54v-3.2l1.2-.34V58.56l-1-.23a6.26,6.26,0,0,1,0-3.51h4.18c.61,0,.81.34.79.91,0,.79,0,1.58,0,2.72.37-.58.58-.87.75-1.18,1.1-1.86,2.93-2.37,4.87-2.64a.67.67,0,0,1,.76.67c0,1.25,0,2.51,0,3.91h-1.5a4.64,4.64,0,0,0-2.32.45,3.37,3.37,0,0,0-2,3c0,.74,0,1.48,0,2.19,1.54.29,1.54.29,1.54,1.79v1.75A33.58,33.58,0,0,1,71.12,68.54Z"/><path class="cls-1" d="M116,53.17a2.17,2.17,0,0,0-2.44-1.76c-.84,0-1.67,0-2.58,0a15.69,15.69,0,0,1-.1-3.6c0-.2.41-.56.64-.57a29.63,29.63,0,0,1,3.65,0,1.94,1.94,0,0,1,1.73,2A8.36,8.36,0,0,1,116,53.17Z"/></svg>