<svg id="Greyscale_copy" data-name="Greyscale copy" xmlns="http://www.w3.org/2000/svg" viewBox="0 0 178 107"><defs><style>.cls-1{fill:#999;}</style></defs><title>cifs-logo-kernels</title><path class="cls-1" d="M142.48,25.58c-1.88.54-5.65,3.9-5.65,5,0,.41-.58,1-1.3,1.39a6.24,6.24,0,0,0,1.39,11.66,9,9,0,0,1,3,1.52c1.39,1.08,1.93,1.17,6.46,1.26,5.33.13,6.68-.27,8.34-2.38s1.66-3.9.36-6.59A16.18,16.18,0,0,1,153.73,33,8.86,8.86,0,0,0,142.48,25.58ZM148,27.82c2.69,1.39,3.67,2.92,3.94,6.06a6.27,6.27,0,0,0,1,3.49,4.55,4.55,0,0,1,.72,5,4,4,0,0,1-4.66,2.24,11.19,11.19,0,0,0-4.89,0c-1.61.22-2.06.09-3.4-1.12A5.32,5.32,0,0,0,138,42.08c-1.61,0-4.26-2.6-4.26-4.21a4.65,4.65,0,0,1,2.87-4.35c1.12-.41,1.62-.9,1.8-1.75.31-1.62,2.64-3.9,4.43-4.44A5.76,5.76,0,0,1,148,27.82Z"/><path class="cls-1" d="M141.81,28.72a9,9,0,0,0-2.42,2.51c-.86,1.44-.86,1.48,0,2.11s.72.63-1,.67c-3.37,0-4.94,3.36-2.83,6,1.21,1.57,3.54,1.66,3.59.13,0-.85.09-.81.49.36,1.35,3.81,5.25,4.8,7.67,1.88l.85-1-.27,1.16c-.23,1-.09,1.26.76,1.48,1.61.41,2,.32,3.41-.89a3.59,3.59,0,0,0-2.24-6.46c-1.08,0-1.71-.18-1.53-.45s.85-.45,1.57-.45c1.79,0,2.15-1.52,1-4.17a5.64,5.64,0,0,0-5.38-3.76A4.35,4.35,0,0,0,141.81,28.72Z"/><path class="cls-1" d="M22.61,38.13c-.76.77-.76,30.89,0,31.65s4.26.72,4.66,0a11.88,11.88,0,0,0,.22-3.45c-.09-3.19,1.12-8.34,1.75-7.27a44.8,44.8,0,0,1,1.12,4.94c1.17,6.27,1.21,6.27,3.54,6.27,3.23,0,3.23-.22,1-9.37l-2-8.07,1.66-6.77c1.3-5.15,1.57-6.94,1.21-7.53-.63-1-3.45-1.25-4.17-.36-.32.36-1.21,3.72-2,7.4S28,52.39,27.81,52.39s-.36-3.23-.36-7.13c0-7.84,0-7.66-2.87-7.66A3.25,3.25,0,0,0,22.61,38.13Z"/><path class="cls-1" d="M39.64,38c-.45.27-.58,3.63-.54,16,0,8.56.14,15.73.27,16,.36.63,9.78.49,10.4-.14s.72-4,0-4.75a5.79,5.79,0,0,0-2.91-.54H44.48V56.42h1.26c2,0,2.37-.53,2.24-3.18l-.13-2.42-1.66-.13-1.71-.14V43h2.38a5.79,5.79,0,0,0,2.91-.54c.9-.9.68-3.86-.31-4.4S40.49,37.46,39.64,38Z"/><path class="cls-1" d="M53.54,38c-.4.26-.54,3.85-.45,16.27l.14,15.87,1.92.13c3.1.23,3.23-.09,3.23-7,0-6,0-6,1-5.87s1,.36,1.26,5.83c.27,6.72.53,7.17,3.49,7l2.07-.13-.18-6.73c-.14-6.27-.23-6.81-1.17-7.75l-1-1.08,1-1c1-1,1.07-1.43,1.07-6.1,0-7.89-1.25-9.41-8.07-9.72A15.14,15.14,0,0,0,53.54,38Zm6.86,9.72c0,3.86,0,4-1,4.17s-1,0-1-4.17,0-4.3,1-4.17S60.4,43.83,60.4,47.68Z"/><path class="cls-1" d="M69.63,38.22c-.36.41-.49,5.07-.4,16.23l.13,15.65,1.08.13a6.57,6.57,0,0,0,2.11-.09l1.07-.27v-8.2c0-4.62.18-7.89.41-7.49s1.34,3.9,2.51,7.85a74.32,74.32,0,0,0,2.55,7.71c.58.72,3.59.76,4.31,0s.76-30.88,0-31.65a3.44,3.44,0,0,0-3.23-.26c-.63.22-.72,1.43-.72,8.6,0,4.58-.18,8.16-.36,7.94s-1.34-3.9-2.55-8.07-2.38-7.89-2.6-8.21C73.35,37.42,70.26,37.46,69.63,38.22Z"/><path class="cls-1" d="M87.56,38.22c-.35.41-.49,5.07-.4,16.23L87.3,70.1l4.88.13c3.18.09,5.07,0,5.47-.4.76-.63.85-4,.09-4.8a5.79,5.79,0,0,0-2.91-.54H92.45V56.42h1.3a2.53,2.53,0,0,0,2.74-2.73c0-2.2-.72-3.09-2.47-3.09H92.45V43l2.82-.13,2.78-.14.14-1.93c.22-3-.23-3.22-5.52-3.22C89.31,37.6,87.92,37.78,87.56,38.22Z"/><path class="cls-1" d="M101.51,38c-.41.31-.54,3.85-.45,16.27l.13,15.87,4.89.13c3.18.09,5.06,0,5.47-.4.76-.63.85-4,.09-4.8a5.87,5.87,0,0,0-2.92-.54h-2.37V51.58c0-9.46-.14-13-.54-13.45C105.18,37.51,102.4,37.42,101.51,38Z"/><path class="cls-1" d="M116.93,38.45c-4.13,2.73-4.44,9.77-.63,14.7l3.45,4.35c2.33,3,3,6.23,1.62,7.31a4,4,0,0,1-1.17.58c-.81,0-1.75-1.52-1.75-2.73,0-1.57-1.61-2.42-3.67-2-1.48.36-2,1.66-1.53,4.17.36,2.24,1.53,3.72,3.9,4.93a6.83,6.83,0,0,0,9.59-2.87c2.11-4.43,1.17-8-3.72-14.61-3.58-4.75-4.48-6.9-3.67-8.47,1-1.84,3.14-.72,3.14,1.7,0,1.61.94,2.15,3.4,1.84,1.26-.14,1.3-.23,1.44-2.69.18-3-.68-4.93-2.74-6.19S118.72,37.28,116.93,38.45Z"/><path class="cls-1" d="M149.07,50c-.4,1.12,2.55,25.46,3.14,25.82a.91.91,0,0,0,1.07-.22c.45-.45.27-3-.76-12-.72-6.28-1.43-12.11-1.57-12.91C150.68,49.16,149.56,48.71,149.07,50Z"/><path class="cls-1" d="M137,50.69A100.5,100.5,0,0,0,135.31,62c-.68,5.92-1.35,11.56-1.48,12.6-.23,1.88.4,2.73,1.52,2.06.58-.36,3.5-24.79,3.14-25.82C138.13,50,137.55,50,137,50.69Z"/><path class="cls-1" d="M142,55.62c-.14.31-.18,6.32-.14,13.36.14,12.41.18,12.77,1,12.77s.9-.31.9-13.22c0-12.24-.05-13.23-.81-13.36A.89.89,0,0,0,142,55.62Z"/></svg>