<?xml version="1.0" encoding="iso-8859-1"?>
<!-- Generator: Adobe Illustrator 20.0.0, SVG Export Plug-In . SVG Version: 6.00 Build 0)  -->
<svg version="1.1" id="Layer_1" xmlns="http://www.w3.org/2000/svg" xmlns:xlink="http://www.w3.org/1999/xlink" x="0px" y="0px"
	 width="40px" height="40px" viewBox="-27.5 203.084 40 40" style="enable-background:new -27.5 203.084 40 40;"
	 xml:space="preserve">
<style type="text/css">
	.st0{fill:#8E9FBC;}
	.st1{fill:#009898;}
	.st2{fill:#029696;}
	.st3{fill:#8E9FBC;stroke:#8E9FBC;stroke-width:0.1864;stroke-linecap:round;stroke-linejoin:round;stroke-miterlimit:10;}
</style>
<g>
	<path class="st0" d="M10.285,214.927c-0.234-0.502-0.494-0.99-0.771-1.47l-1.209,1.773c0.086,0.168,0.18,0.331,0.26,0.502
		c1.102,2.355,1.66,4.877,1.66,7.498c0,9.77-7.947,17.717-17.717,17.717c-9.768,0-17.715-7.947-17.715-17.717
		c0-9.768,7.947-17.715,17.715-17.715c3.029,0,6.018,0.776,8.643,2.246c0.25,0.141,0.49,0.297,0.732,0.449l1.18-1.504
		c-0.323-0.207-0.647-0.415-0.982-0.604c-2.909-1.628-6.219-2.488-9.572-2.488c-10.816,0-19.616,8.799-19.616,19.615
		c0,10.816,8.8,19.617,19.616,19.617c10.816,0,19.617-8.801,19.617-19.617C12.125,220.329,11.506,217.534,10.285,214.927z"/>
	<path class="st0" d="M-6.283,233.802c-0.227,0-0.445-0.09-0.606-0.254l-14.689-14.938c-0.169-0.172-0.256-0.406-0.243-0.646
		c0.014-0.239,0.128-0.462,0.316-0.612l3.754-3.026c0.307-0.249,0.746-0.253,1.057-0.007l7.859,6.154
		c2.889-3.357,9.572-10.523,18.805-16.699c0.197-0.133,0.441-0.176,0.672-0.12c0.231,0.056,0.428,0.206,0.543,0.415l1.375,2.482
		c0.184,0.331,0.125,0.744-0.143,1.012c-8.398,8.412-15.496,19.518-17.908,25.697c-0.105,0.27-0.338,0.467-0.621,0.523
		C-6.17,233.796-6.227,233.802-6.283,233.802z M-19.71,218.087l13.133,13.355c2.802-6.379,9.486-16.629,17.34-24.625l-0.615-1.111
		c-9.267,6.353-15.797,13.609-18.215,16.488c-0.295,0.351-0.814,0.405-1.176,0.121l-7.97-6.242L-19.71,218.087z"/>
</g>
</svg>
