<?xml version="1.0" encoding="iso-8859-1"?>
<!-- Generator: Adobe Illustrator 19.1.0, SVG Export Plug-In . SVG Version: 6.00 Build 0)  -->
<svg version="1.1" id="Layer_1" xmlns="http://www.w3.org/2000/svg" xmlns:xlink="http://www.w3.org/1999/xlink" x="0px" y="0px"
	 viewBox="-60.251 150.256 40 40" style="enable-background:new -60.251 150.256 40 40;" xml:space="preserve">
<style type="text/css">
	.st0{fill:#8E9FBC;}
	.st1{fill:#009898;}
	.st2{fill:#8E9FBC;stroke:#8E9FBC;stroke-width:0.3403;stroke-linecap:round;stroke-linejoin:round;stroke-miterlimit:10;}
	.st3{fill:#8E9FBC;stroke:#8E9FBC;stroke-width:0.3391;stroke-linecap:round;stroke-linejoin:round;stroke-miterlimit:10;}
</style>
<g>
	<g>
		<g>
			<g>
				<path class="st0" d="M-36.972,162.452h4.021l-4.021-4.02V162.452z M-31.226,163.88h-0.021h-6.438
					c-0.396,0-0.713-0.319-0.713-0.713v-6.455v-0.006c-0.002-0.394,0.317-0.713,0.713-0.713c0.197,0,0.379,0.082,0.508,0.213
					l6.455,6.455h0.002c0.277,0.279,0.277,0.732,0,1.01C-30.86,163.811-31.042,163.88-31.226,163.88L-31.226,163.88z"/>
				<path class="st0" d="M-31.226,163.956h-6.459c-0.434,0-0.787-0.354-0.787-0.789v-6.455c-0.002-0.215,0.08-0.414,0.229-0.562
					c0.148-0.15,0.348-0.232,0.559-0.232c0.211,0,0.414,0.086,0.562,0.238l6.445,6.445c0.004,0.002,0.008,0.005,0.01,0.009
					c0.307,0.308,0.307,0.808,0,1.116C-30.817,163.874-31.017,163.956-31.226,163.956z M-37.685,156.067
					c-0.172,0-0.332,0.066-0.453,0.188c-0.119,0.121-0.187,0.281-0.184,0.451v6.461c0,0.352,0.284,0.639,0.637,0.639h6.459
					c0.17,0,0.332-0.066,0.453-0.188c0.244-0.246,0.248-0.646,0.008-0.896c-0.004-0.002-0.006-0.005-0.01-0.009l-6.455-6.455
					C-37.349,156.138-37.515,156.067-37.685,156.067z M-32.95,162.527h-4.021c-0.041,0-0.073-0.034-0.073-0.075v-4.02
					c0-0.03,0.018-0.058,0.047-0.069c0.024-0.012,0.059-0.005,0.08,0.016l4.02,4.021c0.022,0.021,0.029,0.055,0.019,0.082
					C-32.892,162.509-32.919,162.527-32.95,162.527z M-36.896,162.376h3.766l-3.766-3.765V162.376z"/>
			</g>
		</g>
		<g>
			<g>
				<path class="st0" d="M-37.981,157.421h-17.173v31.428h23.214v-25.387L-37.981,157.421L-37.981,157.421z M-55.868,155.993h18.184
					c0.197,0,0.379,0.082,0.508,0.213l6.455,6.455h0.002c0.139,0.141,0.209,0.322,0.209,0.506l0,0v26.396
					c0,0.393-0.32,0.714-0.715,0.714h-24.643c-0.395,0-0.715-0.32-0.715-0.714v-32.857
					C-56.583,156.312-56.262,155.993-55.868,155.993L-55.868,155.993z"/>
				<path class="st0" d="M-31.226,190.354h-24.643c-0.436,0-0.79-0.354-0.79-0.789v-32.858c0-0.435,0.354-0.789,0.79-0.789h18.184
					c0.211,0,0.414,0.086,0.562,0.238l6.444,6.445c0.005,0.002,0.009,0.005,0.013,0.009c0.145,0.151,0.229,0.349,0.229,0.558v26.397
					C-30.437,190-30.79,190.354-31.226,190.354z M-55.868,156.067c-0.352,0-0.639,0.286-0.639,0.639v32.858
					c0,0.354,0.287,0.639,0.64,0.639h24.642c0.354,0,0.64-0.285,0.64-0.639v-26.397c0-0.166-0.062-0.324-0.179-0.444
					c-0.004-0.002-0.006-0.005-0.01-0.009l-6.455-6.455c-0.119-0.122-0.285-0.191-0.455-0.191H-55.868z M-31.94,188.924h-23.214
					c-0.041,0-0.075-0.034-0.075-0.075v-31.428c0-0.043,0.034-0.075,0.075-0.075h17.173c0.02,0,0.039,0.008,0.053,0.023l6.041,6.041
					c0.016,0.014,0.023,0.033,0.023,0.053v25.387C-31.864,188.89-31.899,188.924-31.94,188.924z M-55.08,188.773h23.066v-25.28
					l-5.998-5.998H-55.08V188.773z"/>
			</g>
		</g>
	</g>
	<g>
		<g>
			<path class="st0" d="M-30.265,156.745h4.021l-4.021-4.021V156.745z M-24.519,158.173h-0.021h-6.44
				c-0.394,0-0.711-0.319-0.711-0.713v-6.455v-0.006c-0.002-0.394,0.316-0.713,0.711-0.713c0.199,0,0.381,0.082,0.51,0.213
				l6.455,6.457h0.002c0.277,0.278,0.277,0.73,0,1.01C-24.153,158.104-24.335,158.173-24.519,158.173L-24.519,158.173z"/>
			<path class="st0" d="M-24.519,158.249h-6.461c-0.435,0-0.787-0.355-0.787-0.789v-6.455c0-0.215,0.08-0.414,0.228-0.562
				c0.15-0.15,0.348-0.232,0.559-0.232c0.213,0,0.414,0.084,0.565,0.236l6.445,6.447c0.004,0.002,0.008,0.005,0.01,0.009
				c0.307,0.308,0.307,0.81,0,1.116C-24.11,158.167-24.31,158.249-24.519,158.249z M-30.98,150.36c-0.17,0-0.33,0.066-0.451,0.188
				c-0.12,0.121-0.186,0.281-0.186,0.451v6.461c0,0.352,0.285,0.64,0.637,0.64h6.461c0.17,0,0.332-0.065,0.453-0.187
				c0.246-0.246,0.248-0.645,0.008-0.896c-0.004-0.002-0.006-0.005-0.01-0.008l-6.455-6.457
				C-30.644,150.429-30.806,150.36-30.98,150.36z M-26.243,156.819h-4.021c-0.041,0-0.073-0.033-0.073-0.074v-4.02
				c0-0.03,0.019-0.058,0.047-0.069c0.024-0.012,0.06-0.005,0.08,0.016l4.021,4.021c0.021,0.021,0.029,0.055,0.019,0.082
				C-26.185,156.802-26.212,156.819-26.243,156.819z M-30.189,156.669h3.767l-3.767-3.764V156.669z"/>
		</g>
	</g>
	<g>
		<rect x="-51.72" y="169.081" class="st0" width="15.93" height="1.5"/>
	</g>
	<g>
		<rect x="-51.72" y="172.756" class="st0" width="15.93" height="1.5"/>
	</g>
	<g>
		<rect x="-51.72" y="176.433" class="st0" width="15.93" height="1.5"/>
	</g>
	<g>
		<rect x="-51.72" y="180.109" class="st0" width="15.93" height="1.5"/>
	</g>
	<g>
		<path class="st0" d="M-24.013,156.954h-0.002l-6.455-6.455c-0.129-0.133-0.311-0.215-0.51-0.215h-18.182
			c-0.395,0-0.715,0.32-0.715,0.715v5.85h1.428v-5.137h17.173l6.041,6.043v25.387h-5.979v1.431h6.694
			c0.396,0,0.713-0.32,0.713-0.716V157.46C-23.806,157.276-23.876,157.093-24.013,156.954z"/>
		<path class="st0" d="M-24.519,184.646h-6.695c-0.041,0-0.074-0.033-0.074-0.073v-1.431c0-0.042,0.033-0.076,0.074-0.076h5.906
			v-25.279l-5.998-5.998h-17.066v5.062c0,0.042-0.035,0.075-0.076,0.075h-1.428c-0.041,0-0.074-0.034-0.074-0.075v-5.851
			c0-0.435,0.354-0.789,0.789-0.789h18.182c0.213,0,0.414,0.084,0.565,0.236l6.445,6.447c0.004,0.002,0.008,0.005,0.012,0.009
			c0.146,0.15,0.228,0.349,0.228,0.558v26.397C-23.73,184.291-24.085,184.646-24.519,184.646z M-31.138,184.496h6.619
			c0.352,0,0.639-0.287,0.639-0.64V157.46c0-0.166-0.062-0.323-0.178-0.444c-0.004-0.002-0.006-0.005-0.01-0.009l-6.455-6.455
			c-0.121-0.125-0.283-0.192-0.457-0.192h-18.182c-0.354,0-0.639,0.287-0.639,0.64v5.774h1.277v-5.062
			c0-0.041,0.033-0.074,0.074-0.074h17.175c0.02,0,0.039,0.008,0.053,0.021l6.041,6.043c0.016,0.014,0.022,0.032,0.022,0.053v25.387
			c0,0.041-0.034,0.073-0.075,0.073h-5.904V184.496z"/>
	</g>
</g>
</svg>
