<?xml version="1.0" encoding="iso-8859-1"?>
<!-- Generator: Adobe Illustrator 19.1.0, SVG Export Plug-In . SVG Version: 6.00 Build 0)  -->
<svg version="1.1" id="Layer_1" xmlns="http://www.w3.org/2000/svg" xmlns:xlink="http://www.w3.org/1999/xlink" x="0px" y="0px"
	 viewBox="-180.5 154.833 40 30.75" style="enable-background:new -180.5 154.833 40 30.75;" xml:space="preserve">
<style type="text/css">
	.st0{fill:#8E9FBC;}
	.st1{fill:#009898;}
	.st2{fill:#8E9FBC;stroke:#8E9FBC;stroke-width:0.3403;stroke-linecap:round;stroke-linejoin:round;stroke-miterlimit:10;}
	.st3{fill:#8E9FBC;stroke:#8E9FBC;stroke-width:0.3391;stroke-linecap:round;stroke-linejoin:round;stroke-miterlimit:10;}
</style>
<path class="st0" d="M-141.941,179.396h-37.118c-0.795,0-1.441-0.645-1.441-1.441v-21.681c0-0.795,0.646-1.441,1.441-1.441h37.118
	c0.797,0,1.441,0.646,1.441,1.441v21.681C-140.499,178.752-141.145,179.396-141.941,179.396z M-178.778,177.676h36.557v-21.121
	h-36.557V177.676z"/>
<path class="st0" d="M-141.941,185.59h-37.118c-0.795,0-1.441-0.648-1.441-1.443v-2.475c0-0.793,0.646-1.441,1.441-1.441h13.703
	c0.475,0,0.861,0.387,0.861,0.861v0.27h7.724v-0.27c0-0.475,0.385-0.861,0.861-0.861h13.969c0.797,0,1.441,0.648,1.441,1.441v2.475
	C-140.499,184.941-141.145,185.59-141.941,185.59z M-178.778,183.867h36.557v-1.914h-12.863c-0.142,0.646-0.72,1.131-1.405,1.131
	h-8.287c-0.688,0-1.265-0.484-1.409-1.131h-12.593V183.867z"/>
<g>
	<rect x="-173.518" y="161.569" class="st0" width="26.014" height="1.576"/>
</g>
<g>
	<rect x="-173.518" y="166.302" class="st0" width="26.014" height="1.577"/>
</g>
<g>
	<rect x="-173.518" y="171.035" class="st0" width="26.014" height="1.578"/>
</g>
</svg>
