<?xml version="1.0" encoding="utf-8"?>
<!-- Generator: Adobe Illustrator 25.2.3, SVG Export Plug-In . SVG Version: 6.00 Build 0)  -->
<svg version="1.1" id="Layer_1" xmlns="http://www.w3.org/2000/svg" xmlns:xlink="http://www.w3.org/1999/xlink" x="0px" y="0px"
	 viewBox="0 0 71 75" style="enable-background:new 0 0 71 75;" xml:space="preserve">
<style type="text/css">
	.st0{clip-path:url(#SVGID_2_);}
	.st1{fill:#8E9FBC;}
</style>
<g>
	<defs>
		<rect id="SVGID_1_" width="70.2" height="75"/>
	</defs>
	<clipPath id="SVGID_2_">
		<use xlink:href="#SVGID_1_"  style="overflow:visible;"/>
	</clipPath>
	<g class="st0">
		<path class="st1" d="M16.5,23.3c0.4,5,2.5,9.3,5.8,12.6c3.5,3.3,8.3,5.4,12.8,5.4c5.2-0.2,9.5-2.1,12.8-5.2
			c3.3-3.1,5.2-7.4,5.6-12.6c0-0.4,0-1,0-1.9c0-1,0-2.5,0-3.1c0-6.6-1.9-11.4-5.8-14.5c-3.1-2.5-7.4-3.9-12.8-3.9h-0.2
			c-5.6,0.2-9.9,1.4-12.8,3.9C18.2,7,16.3,12,16.3,18.6c0,0.6,0,1.9,0,3.1C16.5,22.5,16.5,23.1,16.5,23.3z M35.1,4.1
			c4.5,0.2,8.1,1.2,10.3,3.1c2.9,2.3,4.1,6,4.1,11.2c0,0.6,0,1.9,0,2.9c0,0.6,0,1.2,0,1.7c-0.4,4.3-1.9,7.6-4.3,10.1
			c-2.5,2.5-6,3.7-10.1,3.9c-3.5,0-7.2-1.4-9.9-4.1c-2.7-2.5-4.1-6-4.5-9.9c0-0.2,0-0.8,0-1.7c0-1,0-2.3,0-2.9
			c0-5.2,1.4-8.9,4.1-11.4C27.1,5.4,30.6,4.3,35.1,4.1z"/>
		<path class="st1" d="M65.1,49c-1.9-2.9-3.9-5.4-6.6-7.4c0,0,0-0.2-0.2-0.2c-2.3-1.7-4.5-3.1-7-3.9c-0.8-0.4-1.9,0-2.5,0.6
			c-0.4,0.4-0.8,0.8-1,1.2c-0.4,0.4-0.8,0.8-1.2,1.2c-1.7,1.4-3.7,2.5-5.6,3.3h-0.2c-1.9,0.6-3.7,0.8-5.6,1c-2.1,0-3.9-0.4-5.6-1
			h-0.2c-2.1-0.8-3.9-1.9-5.6-3.3c-0.4-0.4-0.8-0.8-1.2-1.2c-0.4-0.4-0.8-0.8-1-1.2c-0.6-0.6-1.7-1-2.5-0.6c-2.5,0.8-4.8,2.3-7,3.9
			c0,0,0,0.2-0.2,0.2C9.3,43.6,7,46.1,5.2,49C1.9,54.3,0,60.5,0,67.1v0.6c0,1.9,0.6,3.7,1.9,5.2c1.2,1.4,2.9,2.3,4.8,2.3h11.8h16.7
			h16.5h11.8c1.9,0,3.5-0.8,4.8-2.3c1.2-1.4,1.9-3.1,1.9-5.2v-0.6C70.2,60.5,68.4,54.3,65.1,49z M65.9,67.6c0,0.8-0.2,1.7-0.8,2.3
			c-0.4,0.6-1,0.8-1.7,0.8H50H34.7H20H6.6c-0.6,0-1.2-0.2-1.7-0.8c-0.4-0.4-0.8-1.2-0.8-2.3v-0.6c0-5.8,1.4-11.2,4.5-15.9
			c2.7-4.1,6.2-7.2,10.1-9.3c1.9,2.1,4.1,3.5,6.6,4.8c1,0.4,1.9,0.8,2.9,1c2.3,0.6,4.3,1,6.6,1h0.2c2.3,0,4.3-0.4,6.6-1
			c1-0.4,2.1-0.6,2.9-1c2.5-1.2,4.8-2.7,6.6-4.8c4.1,1.9,7.6,5.2,10.1,9.3c2.9,4.8,4.5,10.1,4.5,15.9V67.6z"/>
	</g>
</g>
</svg>
