<?xml version="1.0" encoding="iso-8859-1"?>
<!-- Generator: Adobe Illustrator 19.1.0, SVG Export Plug-In . SVG Version: 6.00 Build 0)  -->
<svg version="1.1" xmlns="http://www.w3.org/2000/svg" xmlns:xlink="http://www.w3.org/1999/xlink" x="0px" y="0px"
	 viewBox="0 0 40 51.438" style="enable-background:new 0 0 40 51.438;" xml:space="preserve">
<style type="text/css">
	.st0{display:none;opacity:0.25;}
	.st1{display:inline;}
	.st2{fill:#8E9FBC;}
	.st3{fill:#8E9FBC;}
	.st4{fill:#DDDDDD;}
	.st5{fill:#FFFFFF;}
</style>
<g id="Backgrounds" class="st0">
	<rect x="-20" y="-14.281" class="st1" width="80" height="80"/>
</g>
<g id="Icons">
	<g id="lock">
		<path class="st2" d="M36.636,51.438H3.362C1.508,51.438,0,49.929,0,48.076v-20.57c0-1.854,1.508-3.361,3.362-3.361h33.274
			c1.855,0,3.364,1.508,3.364,3.361v20.57C40,49.929,38.491,51.438,36.636,51.438z M3.362,26.711c-0.439,0-0.796,0.356-0.796,0.795
			v20.57c0,0.439,0.357,0.796,0.796,0.796h33.274c0.439,0,0.797-0.357,0.797-0.796v-20.57c0-0.439-0.358-0.795-0.797-0.795H3.362z"
			/>
		<path class="st2" d="M33.519,26.711h-5.264c-0.71,0-1.283-0.575-1.283-1.284v-9.651c0-3.845-3.128-6.971-6.972-6.971
			c-3.844,0-6.97,3.127-6.97,6.971v9.652c0,0.709-0.574,1.284-1.283,1.284H6.482c-0.708,0-1.283-0.575-1.283-1.284V14.8
			C5.199,6.64,11.838,0,20,0c8.162,0,14.802,6.64,14.802,14.8v10.627C34.802,26.136,34.226,26.711,33.519,26.711z M29.537,24.144
			h2.699V14.8c0-6.745-5.49-12.234-12.236-12.234c-6.746,0-12.234,5.488-12.234,12.234v9.344h2.697v-8.369
			c0-5.259,4.278-9.538,9.536-9.538c5.259,0,9.537,4.279,9.537,9.538L29.537,24.144L29.537,24.144z"/>
	</g>
</g>
</svg>
