<?xml version="1.0" encoding="iso-8859-1"?>
<!-- Generator: Adobe Illustrator 19.1.0, SVG Export Plug-In . SVG Version: 6.00 Build 0)  -->
<svg version="1.1" id="Layer_1" xmlns="http://www.w3.org/2000/svg" xmlns:xlink="http://www.w3.org/1999/xlink" x="0px" y="0px"
	 viewBox="-60.313 91.168 40 37.916" style="enable-background:new -60.313 91.168 40 37.916;" xml:space="preserve">
<style type="text/css">
	.st0{fill:#8E9FBC;}
	.st1{fill:#8E9FBC;}
	.st2{fill:#8E9FBC;stroke:#8E9FBC;stroke-width:0.3403;stroke-linecap:round;stroke-linejoin:round;stroke-miterlimit:10;}
	.st3{fill:#8E9FBC;stroke:#8E9FBC;stroke-width:0.3391;stroke-linecap:round;stroke-linejoin:round;stroke-miterlimit:10;}
</style>
<g>
	<g>
		<path class="st1" d="M-32.973,98.319h4.466l-4.466-4.464V98.319z M-26.592,99.906h-0.022h-7.151c-0.438,0-0.791-0.355-0.791-0.793
			v-7.167V91.94c-0.002-0.438,0.353-0.793,0.791-0.793c0.22,0,0.421,0.091,0.565,0.237l7.169,7.169h0.001
			c0.309,0.311,0.309,0.812,0,1.123C-26.187,99.828-26.389,99.906-26.592,99.906L-26.592,99.906z"/>
	</g>
	<g>
		<path class="st1" d="M-34.094,92.732h-19.07v34.9h25.779V99.441L-34.094,92.732L-34.094,92.732z M-53.958,91.147h20.192
			c0.22,0,0.421,0.091,0.565,0.237l7.169,7.169h0.001c0.153,0.155,0.231,0.357,0.231,0.561l0,0v29.314
			c0,0.438-0.354,0.793-0.793,0.793h-27.365c-0.437,0-0.793-0.355-0.793-0.793V91.94C-54.751,91.502-54.395,91.147-53.958,91.147
			L-53.958,91.147z"/>
	</g>
	<g>
		<rect x="-50.576" y="115.008" class="st1" width="11.093" height="1.43"/>
	</g>
	<g>
		<rect x="-50.576" y="119.239" class="st1" width="20.602" height="1.431"/>
	</g>
	<g>
		<rect x="-50.576" y="123.47" class="st1" width="20.602" height="1.428"/>
	</g>
	<g>
		<path class="st1" d="M-41.455,98.093c-0.862-0.861-2.051-1.395-3.365-1.395c-1.312,0-2.502,0.533-3.365,1.395
			c-0.86,0.86-1.393,2.05-1.393,3.363c0,1.314,0.533,2.503,1.393,3.365c0.862,0.861,2.051,1.395,3.365,1.395
			c1.314,0,2.502-0.533,3.365-1.395c0.86-0.862,1.392-2.051,1.392-3.365C-40.063,100.142-40.594,98.953-41.455,98.093z
			 M-44.819,95.311c1.697,0,3.233,0.688,4.347,1.801c1.112,1.112,1.799,2.647,1.799,4.345c0,1.697-0.687,3.233-1.799,4.346
			c-1.113,1.112-2.65,1.801-4.347,1.801c-1.696,0-3.233-0.688-4.345-1.801c-1.112-1.112-1.801-2.648-1.801-4.346
			c0-1.697,0.688-3.233,1.801-4.345C-48.053,95.999-46.515,95.311-44.819,95.311z"/>
	</g>
	<g>
		<path class="st1" d="M-41.465,106.136c-0.071-0.319-0.389-0.521-0.708-0.449c-0.32,0.072-0.521,0.389-0.45,0.709l0.993,4.388
			l-2.775-2.687l-0.414,0.425l0.414-0.426c-0.236-0.229-0.613-0.222-0.84,0.013c-0.006,0.007-0.011,0.012-0.017,0.018l-2.745,2.657
			l0.991-4.388c0.072-0.32-0.128-0.637-0.448-0.709c-0.32-0.071-0.637,0.13-0.709,0.449l-1.419,6.281
			c-0.062,0.201-0.017,0.43,0.141,0.592c0.229,0.235,0.605,0.241,0.84,0.013l-0.413-0.426l0.413,0.424l3.792-3.672l3.761,3.642
			c0.14,0.158,0.357,0.234,0.576,0.186c0.321-0.072,0.521-0.391,0.45-0.712h-0.001L-41.465,106.136L-41.465,106.136z"/>
	</g>
</g>
</svg>
