<?xml version="1.0" encoding="utf-8"?>
<!-- Generator: Adobe Illustrator 24.2.1, SVG Export Plug-In . SVG Version: 6.00 Build 0)  -->
<svg version="1.1" id="Layer_1" xmlns="http://www.w3.org/2000/svg" xmlns:xlink="http://www.w3.org/1999/xlink" x="0px" y="0px"
	 viewBox="0 0 80 72" style="enable-background:new 0 0 80 72;" xml:space="preserve">
<style type="text/css">
	.st0{fill-rule:evenodd;clip-rule:evenodd;fill:#FFDD72;}
	.st1{fill:none;stroke:#000000;stroke-width:4;stroke-linejoin:round;}
	.st2{fill:none;stroke:#000000;stroke-width:4;stroke-linecap:round;stroke-linejoin:round;}
</style>
<desc>Created with Sketch.</desc>
<g id="Page-1">
	<g id="IC---LP02" transform="translate(-798.000000, -687.000000)">
		<g id="Group-18" transform="translate(800.000000, 689.000000)">
			<g id="Group-14" transform="translate(27.000000, 19.000000)">
				<circle id="Oval-Copy" class="st0" cx="25.5" cy="25.5" r="25.5"/>
			</g>
			<g id="Group-853">
				<path id="Stroke-6803" class="st1" d="M59.7,30c0,16.4-13.3,29.7-29.7,29.7C13.6,59.7,0.3,46.4,0.3,30C0.3,13.6,13.6,0.3,30,0.3
					C46.4,0.3,59.7,13.6,59.7,30L59.7,30z"/>
				<path id="Stroke-6804" class="st2" d="M23.3,36.7c0,3.7,3,6.7,6.7,6.7s6.7-3,6.7-6.7c0-3.7-3-6.7-6.7-6.7s-6.7-3-6.7-6.7
					c0-3.7,3-6.7,6.7-6.7s6.7,3,6.7,6.7"/>
				<line id="Stroke-6805" class="st2" x1="30" y1="12.5" x2="30" y2="47.5"/>
			</g>
		</g>
	</g>
</g>
</svg>
