<?xml version="1.0" encoding="utf-8"?>
<!-- Generator: Adobe Illustrator 24.2.1, SVG Export Plug-In . SVG Version: 6.00 Build 0)  -->
<svg version="1.1" id="Layer_1" xmlns="http://www.w3.org/2000/svg" xmlns:xlink="http://www.w3.org/1999/xlink" x="0px" y="0px"
	 viewBox="0 0 72 72" style="enable-background:new 0 0 72 72;" xml:space="preserve">
<style type="text/css">
	.st0{fill-rule:evenodd;clip-rule:evenodd;fill:#FFDD72;}
	.st1{fill:none;stroke:#000000;stroke-width:4;stroke-linecap:round;stroke-linejoin:round;}
</style>
<desc>Created with Sketch.</desc>
<g id="Page-1">
	<g id="IC---LP02" transform="translate(-482.000000, -933.000000)">
		<g id="Group-20" transform="translate(484.000000, 935.000000)">
			<g id="Icon---Certificate" transform="translate(19.000000, 19.000000)">
				<g id="Group-5">
					<path id="Oval" class="st0" d="M24.5,50.5c13.8,0,26-11.2,26-25s-11.2-25-25-25s-25,11.2-25,25S10.7,50.5,24.5,50.5z"/>
				</g>
			</g>
			<g id="Group-200">
				<path id="Stroke-643" class="st1" d="M28,55.8C12.7,55.8,0.2,43.3,0.2,28C0.2,12.7,12.7,0.2,28,0.2S55.8,12.7,55.8,28
					C55.8,43.3,43.3,55.8,28,55.8z"/>
				<path id="Stroke-644" class="st1" d="M36.4,28c0,4.7-3.8,8.4-8.4,8.4s-8.4-3.8-8.4-8.4c0-4.7,3.8-8.4,8.4-8.4S36.4,23.3,36.4,28
					L36.4,28z"/>
				<path id="Stroke-645" class="st1" d="M36.4,42.6c-2.5,1.4-5.4,2.3-8.4,2.3c-9.3,0-16.9-7.6-16.9-16.9S18.7,11.1,28,11.1
					c22.9,0,21.7,25.3,12.1,25.3c-3.6,0-3.6-2.4-3.6-3.6V20.8"/>
			</g>
		</g>
	</g>
</g>
</svg>
