<?xml version="1.0" encoding="UTF-8"?>
<svg width="235px" height="42px" viewBox="0 0 235 42" version="1.1" xmlns="http://www.w3.org/2000/svg" xmlns:xlink="http://www.w3.org/1999/xlink">
    <!-- Generator: Sketch 58 (84663) - https://sketch.com -->
    <title>Logo</title>
    <desc>Created with Sketch.</desc>
    <g id="Page-1" stroke="none" stroke-width="1" fill="none" fill-rule="evenodd">
        <g id="IC03---Home-01-COMP" transform="translate(-99.000000, -99.000000)" fill-rule="nonzero">
            <g id="Logo" transform="translate(99.000000, 99.000000)">
                <g id="Group" transform="translate(21.000000, 0.000000)" fill="#FFD65A">
                    <path d="M0.176,39.231 C-0.1545,40.608 0.734,41.7355 2.15,41.737 L32.2825,41.7685015 C33.6985,41.77 35.127,40.6445 35.4575,39.268 L41.6165,13.5895 C41.9465,12.2125 41.51,10.1685 40.6455,9.047 L35.4355,2.286 C34.5715,1.1645 32.7055,0.245 31.29,0.243 L12.1095,0.215997337 C10.6935,0.214 9.265,1.339 8.9345,2.7155 L0.176,39.231 Z M36.9495,10.918 L31.237,10.926 L32.5645,5.39 L36.9495,10.918 Z M31.69,37.719 L4.679,37.711 L12.7015,4.2635 L28.699,4.251 L26.7365,12.434 C26.4065,13.811 27.2945,14.9375 28.7105,14.9375 L37.1545,14.9375 L31.69,37.719 Z" id="Shape"></path>
                    <path d="M15.358,18.9695 C14.2185,18.9695 13.0695,19.876 12.8045,20.984 C12.539,22.092 13.2545,22.9985 14.3935,22.9985 L29.036,22.9985 C30.1755,22.9985 31.325,22.092 31.591,20.984 C31.857,19.876 31.142,18.9695 30.0025,18.9695 L15.358,18.9695 Z" id="Path"></path>
                    <path d="M22.5005,12.9655 C22.7665,11.8575 22.0515,10.951 20.912,10.951 L17.2815,10.951 C16.142,10.951 14.993,11.8575 14.7275,12.9655 C14.462,14.0735 15.177,14.98 16.3165,14.98 L19.9455,14.98 C21.085,14.98 22.235,14.0735 22.5005,12.9655 Z" id="Path"></path>
                    <path d="M10.873,29.0385 C10.608,30.1465 11.323,31.053 12.4625,31.053 L27.1045,31.053 C28.244,31.053 29.394,30.1465 29.6595,29.0385 C29.925,27.9305 29.2105,27.0239998 28.071,27.0239998 L13.427,27.0239998 C12.2875,27.0235 11.138,27.93 10.873,29.0385 Z" id="Path"></path>
                </g>
                <path d="M17.3623369,26.9999982 L2.59343794,27.0153408 C1.45840455,27.0163304 0.315890705,27.9139052 0.0540750061,29.0098966 C-0.207740693,30.1053931 0.506891492,31.0009888 1.64142619,30.9999982 L16.3993538,30.9846602 C17.5343872,30.9836706 18.6793945,30.0865906 18.9442024,28.9915888 C19.209509,27.8936183 18.4973703,26.9985174 17.3623369,26.9999982 Z" id="Path" fill="#FFD65A"></path>
                <path d="M19.3529772,18.9999992 L7.6092604,19.0089194 C6.46723848,19.0099104 5.31769336,19.9087085 5.05438133,21.0061935 C4.79106929,22.1036785 5.50978576,23.0009901 6.65180768,22.9999992 L18.3839889,22.9895941 C19.5255093,22.9886032 20.6770606,22.090796 20.9433819,20.994302 C21.2107063,19.8953306 20.4944976,18.9990099 19.3529772,18.9999992 Z" id="Path" fill="#FFD65A"></path>
                <path d="M21.3690442,10.9999992 L12.6045897,11.0104072 C11.472715,11.0118938 10.3264374,11.9103077 10.0572509,13.0074331 C9.78806438,14.1045585 10.4943065,15.0009903 11.6261811,14.9999992 L20.4100051,14.9900884 C21.5403898,14.9886018 22.6807076,14.0906834 22.9444309,12.9940535 C23.2086509,11.8949459 22.4994289,10.9990097 21.3690442,10.9999992 Z" id="Path" fill="#FFD65A"></path>
                <g id="Group" transform="translate(70.000000, 7.000000)" fill="#FFFFFF">
                    <path d="M10.5936018,2.4765 C10.5800608,2.6735 10.5359271,3.0265 10.4566869,3.3205 L5.07989362,26.109 C4.71227964,27.6995 3.82709726,28.5235 2.52765957,28.5235 C1.14948328,28.5235 0.342537994,27.6795 0.435820669,26.3445 C0.449361702,26.148 0.49399696,25.795 0.573738602,25.5005 L5.95203647,2.692 C6.31764438,1.122 7.20232523,0.2975 8.50176292,0.2975 C9.88044073,0.298 10.687386,1.142 10.5936018,2.4765 Z" id="Path"></path>
                    <path d="M30.6483739,15.5495 L28.1452888,26.267 C27.783693,27.778 26.9235866,28.5245 25.663769,28.5245 C24.344772,28.5245 23.5518693,27.7585 23.6411398,26.483 C23.6546809,26.2865 23.6978116,25.9525 23.7579939,25.659 L26.0263678,16.041 C26.1131307,15.6485 26.158769,15.276 26.1833435,14.922 C26.3523556,12.508 24.8934347,11.409 22.5307751,11.409 C20.9354407,11.409 19.1294681,11.8995 18.1234195,12.4885 L14.8740729,26.268 C14.5320365,27.779 13.6724316,28.5255 12.412614,28.5255 C11.0735562,28.5255 10.3002128,27.7595 10.3894833,26.484 C10.4035258,26.2875 10.446155,25.9535 10.5063374,25.66 L13.7877812,11.704 C14.1533891,10.1335 14.4964286,9.741 15.6233435,9.1125 C17.3836778,8.151 20.1149544,7.1105 23.1862614,7.1105 C27.9120821,7.1105 31.1829939,9.6035 30.8951216,14 C30.8610182,14.4895 30.7647264,15.0195 30.6483739,15.5495 Z" id="Path"></path>
                    <path d="M40.3021277,28.7005 C37.4279179,28.7005 34.5918237,27.5815 33.2141489,26.4425 C32.4678875,25.854 32.176003,25.245 32.225152,24.5385 C32.2993769,23.479 33.2081307,22.595 34.3300304,22.595 C35.0191185,22.595 35.5672796,22.9285 36.1119301,23.302 C37.0231915,24.0675 38.8050912,24.7735 40.8332371,24.7735 C42.9005015,24.7735 44.3152888,23.969 44.423617,22.4185 C44.5118845,21.162 43.7074468,20.5535 41.2073708,19.71 C37.2077508,18.3355 35.0737842,16.765 35.3019757,13.507 C35.5632675,9.7775 38.7609574,7.1275 43.6051368,7.1275 C46.5781459,7.1275 48.4969605,8.129 49.3941793,8.816 C50.0526748,9.2475 50.6785714,9.876 50.6138754,10.7985 C50.5301216,11.996 49.6434347,12.84 48.5606535,12.84 C47.9106839,12.84 47.4432675,12.4865 46.873541,12.192 C46.0470365,11.6225 44.7822036,11.132 43.0885714,11.132 C40.9621277,11.132 39.7960942,12.0355 39.70231,13.37 C39.6090274,14.7045 40.7565046,15.195 43.2540729,16.079 C46.7511702,17.315 49.1368997,18.67 48.8826292,22.301 C48.6198328,26.051 45.0475076,28.7005 40.3021277,28.7005 Z" id="Path"></path>
                    <path d="M65.07269,11.5645 L59.5790426,11.5645 L57.2224012,21.595 C57.1341337,22.007 57.0704407,22.3605 57.0498784,22.655 C56.9661246,23.8525 57.6461854,24.5395 59.083541,24.5395 C60.1076444,24.5395 60.8092705,24.3625 61.3333587,24.186 C61.8348784,24.049 62.2160334,23.9505 62.6694073,23.9505 C63.6538906,23.9505 64.4904255,24.657 64.4121884,25.7755 C64.3414742,26.777 63.777766,27.523 62.3845441,28.0135 C61.2952432,28.3865 59.6191641,28.701 58.320228,28.701 C54.500152,28.701 52.1766109,26.7375 52.4238602,23.205 C52.4569605,22.7335 52.5306839,22.243 52.6645897,21.7325 L56.5869757,5.088 C56.9485714,3.577 57.8071733,2.8505 59.0669909,2.8505 C60.4055471,2.8505 61.1803951,3.596 61.0896201,4.8915 C61.076079,5.088 61.0344529,5.402 60.9742705,5.696 L60.5735562,7.4825 L65.3585562,7.4825 C66.8942097,7.4825 67.6264286,8.2675 67.5391641,9.5235 C67.4493921,10.7995 66.6083435,11.5645 65.07269,11.5645 Z" id="Path"></path>
                    <path d="M66.5381307,22.4195 C66.8420517,18.0815 70.5372492,15.6475 75.6372036,15.6475 C77.3503951,15.6475 79.0846505,15.903 80.6253191,16.393 L80.988921,14.862 C81.129848,14.2535 81.1534195,13.9195 81.1794985,13.5465 C81.293845,11.9175 80.227614,11.113 78.0615502,11.113 C76.407538,11.113 74.921535,11.525 73.918997,11.7805 C73.3397416,11.898 72.9194681,11.9965 72.5257751,11.9965 C71.5608511,11.9965 70.7007447,11.3485 70.7353495,10.289 C70.7619301,9.072 71.6115046,8.464 72.6802432,8.11 C74.2575228,7.521 76.6292097,7.109 78.4206383,7.109 C83.2643161,7.109 85.9489514,9.2685 85.6821429,13.0765 C85.6405167,13.6655 85.5377052,14.294 85.3922644,14.961 L82.9654103,25.148 C82.766307,26.0315 82.6218693,26.4045 81.7642705,26.836 C79.8700304,27.739 77.2425684,28.701 73.8362462,28.701 C68.677614,28.7005 66.292386,25.9325 66.5381307,22.4195 Z M78.8037994,24.1265 L79.8765502,19.4945 C78.3935562,19.0235 77.1287234,18.8075 75.848845,18.8075 C73.0729331,18.8075 70.9891185,19.887 70.8251216,22.223 C70.7037538,23.95 71.9685866,25.0100004 74.3508055,25.0100004 C76.0444377,25.0105 77.7099848,24.5585 78.8037994,24.1265 Z" id="Shape"></path>
                    <path d="M89.0042097,17.944 C89.1195593,16.0205 90.0313222,11.9965 90.6567173,10.093 C92.6552736,4.0475 97.6754863,0.1215 104.016201,0.1215 C108.426565,0.1215 112.054559,2.3 113.24266,5.5785 C113.596733,6.4225 113.792325,7.0115 113.713085,7.8555 C113.623815,9.1315 112.501413,9.975 111.261155,9.975 C109.843359,9.975 109.538936,8.974 109.100106,7.934 C108.451641,5.9515 106.710365,4.3815 103.481079,4.3815 C99.5431459,4.3815 96.5591033,7.0705 95.3022948,10.9565 C94.6372796,13.135 93.9501976,15.9225 93.8152888,17.846 C93.5439666,21.713 95.6764286,24.441 100.126413,24.441 C102.863207,24.441 104.862766,23.165 106.394909,20.967 C107.066444,20.1035 107.756535,19.24 108.878936,19.24 C109.924103,19.22 110.937173,19.9265 110.860942,21.301 C110.810289,22.302 110.101641,23.4205 109.072523,24.343 C106.79462,27.0715 103.333131,28.701 99.4343161,28.701 C92.7595897,28.7005 88.5939666,24.3625 89.0042097,17.944 Z" id="Path"></path>
                    <path d="M129.017462,19.6125 L118.384742,19.6125 L118.300486,19.966 C118.21272,20.378 118.167082,20.7505 118.149529,21.006 C117.983024,23.381 119.71728,24.755 122.434514,24.755 C124.305182,24.755 125.539422,24.2845 126.577067,23.813 C127.064544,23.5965 127.476292,23.342 128.12576,23.342 C129.071125,23.342 129.8881,24.0485 129.812371,25.128 C129.736641,26.2075 128.820866,26.9145 127.820334,27.4245 C126.475258,28.0725 124.265061,28.701 122.276535,28.701 C116.920304,28.701 113.577173,25.835 113.925228,20.869 C114.04459,19.161 114.666976,16.747 115.09076,15.196 C116.659514,9.6615 121.071884,7.109 125.403009,7.109 C129.675957,7.109 133.092812,9.4845 132.743754,14.47 C132.704134,15.0395 132.655988,15.726 132.186565,17.375 C131.564179,19.5145 131.301383,19.6125 129.017462,19.6125 Z M128.574119,14.411 C128.736109,12.0945 127.189924,10.838 124.886444,10.838 C122.031292,10.838 119.973556,12.6635 119.097903,16.452 L127.604179,16.452 C128.076611,16.452 128.15886,16.393 128.296778,15.8435 C128.452249,15.3135 128.546535,14.803 128.574119,14.411 Z" id="Shape"></path>
                    <path d="M150.111884,9.6805 C150.035152,10.7795 149.155988,11.8 148.014027,11.8 C147.620334,11.8 147.383617,11.8 146.763739,11.663 C146.335441,11.5845 145.772736,11.4665 144.946231,11.4665 C142.976763,11.4665 141.743526,12.487 141.299681,14.3315 L138.494681,26.266 C138.132584,27.777 137.272979,28.5235 136.013161,28.5235 C134.674103,28.5235 133.901261,27.7575 133.990532,26.482 C134.004574,26.2855 134.047204,25.9515 134.106884,25.658 L136.906869,13.802 C137.891353,9.582 140.919529,7.1085 145.251657,7.1085 C146.334438,7.1085 147.564164,7.2655 148.200091,7.462 C149.552188,7.8355 150.193632,8.522 150.111884,9.6805 Z" id="Path"></path>
                    <path d="M162.425198,11.5645 L156.93155,11.5645 L154.574909,21.595 C154.486641,22.007 154.422948,22.3605 154.402386,22.655 C154.318632,23.8525 154.998693,24.5395 156.436049,24.5395 C157.460152,24.5395 158.161778,24.3625 158.685866,24.186 C159.187386,24.049 159.568541,23.9505 160.021915,23.9505 C161.006398,23.9505 161.842933,24.657 161.764696,25.7755 C161.693982,26.777 161.130274,27.523 159.737052,28.0135 C158.647751,28.3865 156.971672,28.701 155.672736,28.701 C151.85266,28.701 149.529119,26.7375 149.776368,23.205 C149.809468,22.7335 149.883191,22.243 150.017097,21.7325 L153.939483,5.088 C154.301079,3.577 155.159681,2.8505 156.419498,2.8505 C157.758055,2.8505 158.532903,3.596 158.442128,4.8915 C158.428587,5.088 158.38696,5.402 158.326778,5.696 L157.926064,7.4825 L162.711064,7.4825 C164.246717,7.4825 164.978936,8.2675 164.891672,9.5235 C164.8019,10.7995 163.961353,11.5645 162.425198,11.5645 Z" id="Path"></path>
                </g>
            </g>
        </g>
    </g>
</svg>