<?xml version="1.0" encoding="UTF-8"?>
<svg width="179px" height="32px" viewBox="0 0 179 32" version="1.1" xmlns="http://www.w3.org/2000/svg" xmlns:xlink="http://www.w3.org/1999/xlink">
    <!-- Generator: Sketch 58 (84663) - https://sketch.com -->
    <title>Group 2</title>
    <desc>Created with Sketch.</desc>
    <g id="Symbols" stroke="none" stroke-width="1" fill="none" fill-rule="evenodd">
        <g id="Footer" transform="translate(-101.000000, -100.000000)" fill-rule="nonzero">
            <g id="Group-8">
                <g id="Group-2" transform="translate(101.000000, 100.000000)">
                    <g id="Group" transform="translate(16.000000, 0.000000)" fill="#FFD65A">
                        <path d="M0.136,30.0331429 C-0.115809524,31.0822857 0.561142857,31.9413333 1.64,31.9424762 L24.5973333,31.9664773 C25.6761905,31.967619 26.7645714,31.1100952 27.016,30.0613333 L31.7085714,10.4975238 C31.96,9.44838095 31.6274286,7.89104762 30.9687619,7.03657143 L26.9992381,1.88533333 C26.3409524,1.03085714 24.9192381,0.330285714 23.8407619,0.328761905 L9.22742857,0.308188448 C8.14857143,0.306666667 7.06019048,1.16380952 6.8087619,2.21257143 L0.136,30.0331429 Z M28.1531429,8.46247619 L23.8007619,8.46857143 L24.8121905,4.25066667 L28.1531429,8.46247619 Z M24.1462857,28.8815238 L3.5672381,28.8754286 L9.67961905,3.39238095 L21.8678095,3.38285714 L20.3725714,9.61752381 C20.1211429,10.6666667 20.7977143,11.5249524 21.8765714,11.5249524 L28.3100952,11.5249524 L24.1462857,28.8815238 Z" id="Shape"></path>
                        <path d="M11.7028571,14.5961905 C10.8350476,14.5961905 9.9592381,15.2868571 9.75733333,16.1310476 C9.55542857,16.9752381 10.1001905,17.6659048 10.968,17.6659048 L22.1238095,17.6659048 C22.992,17.6659048 23.8678095,16.9752381 24.0704762,16.1310476 C24.2731429,15.2868571 23.728381,14.5961905 22.8601905,14.5961905 L11.7028571,14.5961905 Z" id="Path"></path>
                        <path d="M17.1447619,10.0220952 C17.3474286,9.17790476 16.8026667,8.4872381 15.9344762,8.4872381 L13.168381,8.4872381 C12.3005714,8.4872381 11.4247619,9.17790476 11.2228571,10.0220952 C11.0209524,10.8662857 11.5653333,11.5569524 12.4335238,11.5569524 L15.1980952,11.5569524 C16.0662857,11.5569524 16.9424762,10.8662857 17.1447619,10.0220952 Z" id="Path"></path>
                        <path d="M8.28571429,22.2678095 C8.08380952,23.112 8.62857143,23.8026667 9.4967619,23.8026667 L20.6521905,23.8026667 C21.520381,23.8026667 22.3961905,23.112 22.5988571,22.2678095 C22.8015238,21.423619 22.2567619,20.7329522 21.3885714,20.7329522 L10.231619,20.7329522 C9.36342857,20.7325714 8.488,21.423619 8.28571429,22.2678095 Z" id="Path"></path>
                    </g>
                    <path d="M14.956343,22.491465 C15.1654018,21.6702137 14.603187,20.9988881 13.707108,21 L2.04745101,21.0115056 C1.15137201,21.0122478 0.249387399,21.6854289 0.0426907943,22.5074224 C-0.16400581,23.329416 0.400177493,24.0007416 1.29586278,24 L12.9464645,23.9884952 C13.8425435,23.987753 14.7464967,23.3149429 14.9555555,22.4936916 L14.956343,22.491465 Z" id="Path" fill="#FFD65A"></path>
                    <path d="M15.9582875,16.4938685 C16.1580347,15.6714979 15.6208613,14.9992574 14.7646942,15 L5.95700665,15.0066896 C5.10046336,15.0074328 4.23827749,15.6815314 4.04078727,16.5046451 C3.84329706,17.3277589 4.38235131,18.0007426 5.2388946,18 L14.0383064,17.9921956 C14.8944735,17.9914524 15.758164,17.318097 15.9579113,16.4957265 L15.9582875,16.4938685 Z" id="Path" fill="#FFD65A"></path>
                    <path d="M16.9576366,9.49386655 C17.1605007,8.67129245 16.6149453,7.99925721 15.7454186,8 L9.0035305,8.00780634 C8.1328577,8.00892144 7.25110569,8.68281518 7.04403914,9.50576098 C6.8369726,10.3287068 7.38023575,11.0011137 8.25090855,11 L15.0073142,10.9925646 C15.8768409,10.9914495 16.7540084,10.3179275 16.9568725,9.49535335 L16.9576366,9.49386655 Z" id="Path" fill="#FFD65A"></path>
                    <g id="Group" transform="translate(53.000000, 5.000000)" fill="#0E0E0E">
                        <path d="M8.09195745,2.02248276 C8.08161702,2.17155172 8.04753191,2.43972414 7.98702128,2.66275862 L3.88110638,19.9505862 C3.60076596,21.1567931 2.92519149,21.7818966 1.93251064,21.7818966 C0.880085106,21.7818966 0.263489362,21.1416207 0.334723404,20.1292414 C0.34506383,19.9801724 0.379148936,19.7123793 0.440042553,19.4889655 L4.54710638,2.18634483 C4.82629787,0.994931034 5.50187234,0.369448276 6.49417021,0.369448276 C7.54697872,0.369827586 8.16319149,1.01010345 8.09195745,2.02248276 Z" id="Path"></path>
                        <path d="M23.4061277,11.9395517 L21.4950638,20.070069 C21.2185532,21.2163448 20.5621277,21.7822759 19.6000851,21.7822759 C18.5928511,21.7822759 17.9869787,21.2015517 18.0555319,20.2335517 C18.0658723,20.0844828 18.0988085,19.8314828 18.144766,19.608069 L19.8765957,12.3116552 C19.9428511,12.0138966 19.9777021,11.730931 19.9964681,11.4627586 C20.1255319,9.63106897 19.0118298,8.79734483 17.207617,8.79734483 C15.9889787,8.79734483 14.6098723,9.16944828 13.841617,9.61627586 L11.3602979,20.0696897 C11.0987234,21.2159655 10.4426809,21.7818966 9.4806383,21.7818966 C8.45808511,21.7818966 7.86714894,21.2011724 7.93570213,20.2331724 C7.94604255,20.0841034 7.97859574,19.8311034 8.02493617,19.6076897 L10.530383,9.02037931 C10.8095745,7.82934483 11.0711489,7.53158621 11.9320851,7.0547931 C13.2767234,6.32537931 15.3620426,5.53603448 17.7074043,5.53603448 C21.3162128,5.53603448 23.814383,7.42727586 23.5941702,10.7625517 C23.5685106,11.1354138 23.4949787,11.5374828 23.4061277,11.9395517 Z" id="Path"></path>
                        <path d="M30.7773191,21.9161724 C28.5828511,21.9161724 26.4171064,21.0672759 25.3646809,20.2035862 C24.7948085,19.7567586 24.5719149,19.2951379 24.6098298,18.7591724 C24.6661277,17.9550345 25.3600851,17.2851724 26.2171915,17.2851724 C26.7430213,17.2851724 27.161617,17.5381724 27.5775319,17.8211379 C28.2734043,18.4018621 29.6341277,18.9378276 31.1828936,18.9378276 C32.7615319,18.9378276 33.8419149,18.3271379 33.9250213,17.1508966 C33.9920426,16.198069 33.3777447,15.7364483 31.4685957,15.0961724 C28.4147234,14.0538276 26.784766,12.8627931 26.9590213,10.3908276 C27.1585532,7.56155172 29.6004255,5.55158621 33.299617,5.55158621 C35.5699149,5.55158621 37.0351915,6.31096552 37.7203404,6.83213793 C38.2231915,7.15986207 38.7011489,7.63627586 38.6521277,8.33610345 C38.5877872,9.24455172 37.9110638,9.88482759 37.0842128,9.88482759 C36.5878723,9.88482759 36.2305532,9.61665517 35.7954894,9.39324138 C35.1647234,8.96158621 34.1984681,8.58910345 32.9051489,8.58910345 C31.2813191,8.58910345 30.3912766,9.27413793 30.3196596,10.2868966 C30.2480426,11.2992759 31.1242979,11.6713793 33.0315319,12.3416207 C35.7024255,13.2796552 37.5238723,14.3072069 37.3300851,17.0617586 C37.1290213,19.9058276 34.4014468,21.9161724 30.7773191,21.9161724 Z" id="Path"></path>
                        <path d="M49.6922553,8.91682759 L45.4971064,8.91682759 L43.6978723,16.5257931 C43.6304681,16.8383448 43.5814468,17.1065172 43.5657447,17.329931 C43.5017872,18.2383793 44.0214894,18.7595517 45.1191064,18.7595517 C45.9011489,18.7595517 46.4365532,18.6256552 46.836766,18.4917586 C47.2201277,18.3874483 47.5111915,18.3131034 47.8570213,18.3131034 C48.6088085,18.3131034 49.247617,18.849069 49.1878723,19.6979655 C49.1342553,20.4573448 48.7034043,21.0232759 47.6398723,21.3953793 C46.8076596,21.6783448 45.5281277,21.9165517 44.5358298,21.9165517 C41.6186809,21.9165517 39.8443404,20.4273793 40.0331489,17.7471724 C40.0584255,17.3898621 40.1147234,17.0173793 40.2169787,16.6301034 L43.2122553,4.00286207 C43.488766,2.8562069 44.1440426,2.30544828 45.1060851,2.30544828 C46.1282553,2.30544828 46.7203404,2.87137931 46.6506383,3.85417241 C46.6402979,4.00324138 46.6088936,4.24144828 46.5625532,4.46448276 L46.2565532,5.81937931 L49.9105532,5.81937931 C51.083234,5.81937931 51.642766,6.41527586 51.5757447,7.36810345 C51.5075745,8.33610345 50.8649362,8.91682759 49.6922553,8.91682759 Z" id="Path"></path>
                        <path d="M50.8113191,17.1512759 C51.0430213,13.8607586 53.8648085,12.0142759 57.7593191,12.0142759 C59.0675745,12.0142759 60.3922979,12.2077241 61.5684255,12.5802069 L61.8460851,11.4187586 C61.9537021,10.9571379 61.9717021,10.7037586 61.992,10.4211724 C62.0789362,9.18537931 61.2651064,8.57468966 59.6110213,8.57468966 C58.3479574,8.57468966 57.2131915,8.88762069 56.447234,9.08068966 C56.0048936,9.1702069 55.6839574,9.24455172 55.3833191,9.24455172 C54.6464681,9.24455172 53.9896596,8.75334483 54.0164681,7.94882759 C54.036766,7.02596552 54.6855319,6.56434483 55.5012766,6.29617241 C56.7057447,5.84972414 58.5168511,5.5367931 59.8848511,5.5367931 C63.5836596,5.5367931 65.6341277,7.17465517 65.43,10.0638621 C65.3985957,10.5103103 65.3197021,10.9867241 65.2086383,11.4934828 L63.3557872,19.2215517 C63.2033617,19.8917931 63.0930638,20.1747586 62.4381702,20.5021034 C60.9916596,21.1871379 58.985234,21.9165517 56.3844255,21.9165517 C52.4447234,21.9161724 50.6232766,19.8166897 50.8113191,17.1512759 Z M60.1778298,18.4466207 L60.9966383,14.9326897 C59.8641702,14.5753793 58.8982979,14.4111379 57.9209362,14.4111379 C55.8011489,14.4111379 54.2098723,15.2304483 54.0846383,17.0022069 C53.9923404,18.3127241 54.9578298,19.1168621 56.7769787,19.1168621 C58.0702979,19.1168621 59.3425532,18.7743448 60.1778298,18.4466207 Z" id="Shape"></path>
                        <path d="M67.9668511,13.7564483 C68.0545532,12.2972414 68.7508085,9.24455172 69.228766,7.80013793 C70.7545532,3.21427586 74.5885532,0.235931034 79.4305532,0.235931034 C82.7984681,0.235931034 85.5685532,1.88858621 86.4758298,4.37534483 C86.7462128,5.01562069 86.8955745,5.46244828 86.8350638,6.10272414 C86.7665106,7.07034483 85.9094043,7.711 84.9622979,7.711 C83.879617,7.711 83.6475319,6.95162069 83.3120426,6.16227586 C82.8168511,4.65831034 81.4871489,3.46727586 79.0211489,3.46727586 C76.014,3.46727586 73.7352766,5.5072069 72.7755319,8.45558621 C72.2680851,10.1082414 71.7430213,12.2228966 71.64,13.6821034 C71.4331915,16.6153103 73.061617,18.6852069 76.4597872,18.6852069 C78.5497021,18.6852069 80.0762553,17.7175862 81.2462553,16.0497586 C81.7590638,15.3943103 82.2860426,14.7392414 83.1431489,14.7392414 C83.9412766,14.724069 84.7152766,15.2604138 84.6570638,16.3027586 C84.618383,17.0621379 84.077234,17.9110345 83.2913617,18.6104828 C81.5514894,20.6803793 78.9081702,21.9161724 75.9308936,21.9161724 C70.8345957,21.9161724 67.6531915,18.6256552 67.9668511,13.7564483 Z" id="Path"></path>
                        <path d="M98.5216596,15.0218276 L90.4021277,15.0218276 L90.3381702,15.29 C90.2711489,15.602931 90.2359149,15.8855172 90.2225106,16.0793448 C90.0953617,17.881069 91.4200851,18.9234138 93.4950638,18.9234138 C94.9235745,18.9234138 95.8657021,18.5661034 96.6580851,18.2084138 C97.0303404,18.044931 97.344766,17.8511034 97.8411064,17.8511034 C98.5630213,17.8511034 99.1868936,18.3874483 99.1286809,19.206 C99.071234,20.0253103 98.3715319,20.5608966 97.6074894,20.9481724 C96.5803404,21.4393793 94.8925532,21.9161724 93.3740426,21.9161724 C89.2838298,21.9161724 86.7308936,19.7423448 86.9966809,15.9746552 C87.0882128,14.6793103 87.5631064,12.8476207 87.8867234,11.6713793 C89.0846809,7.47241379 92.4541277,5.53641379 95.7615319,5.53641379 C99.0245106,5.53641379 101.634128,7.33813793 101.367574,11.1206207 C101.336936,11.5522759 101.30017,12.0734483 100.941702,13.3244138 C100.466426,14.9474828 100.265745,15.0218276 98.5216596,15.0218276 Z M98.1831064,11.0758621 C98.3068085,9.31889655 97.1260851,8.36568966 95.3670638,8.36568966 C93.186766,8.36568966 91.6154043,9.75055172 90.9467234,12.6245862 L97.4424255,12.6245862 C97.8031915,12.6245862 97.866383,12.5798276 97.9713191,12.1629655 C98.0900426,11.7608966 98.1620426,11.3736207 98.1831064,11.0758621 Z" id="Shape"></path>
                        <path d="M114.630511,7.4872069 C114.571532,8.32093103 113.90017,9.09548276 113.028128,9.09548276 C112.727489,9.09548276 112.546723,9.09548276 112.073362,8.99155172 C111.746298,8.932 111.316596,8.84248276 110.685447,8.84248276 C109.181489,8.84248276 108.239745,9.61665517 107.900809,11.0163103 L105.759191,20.0696897 C105.482298,21.2159655 104.826255,21.7818966 103.864213,21.7818966 C102.84166,21.7818966 102.251106,21.2011724 102.31966,20.2331724 C102.33,20.0841034 102.362936,19.8311034 102.408511,19.6076897 L104.546298,10.6138621 C105.298468,7.41248276 107.610511,5.53603448 110.918681,5.53603448 C111.745532,5.53603448 112.684596,5.65513793 113.170213,5.8042069 C114.202723,6.08755172 114.692553,6.60872414 114.630511,7.4872069 Z" id="Path"></path>
                        <path d="M124.032255,8.91682759 L119.837106,8.91682759 L118.037872,16.5257931 C117.970468,16.8383448 117.921447,17.1065172 117.905745,17.329931 C117.841787,18.2383793 118.361489,18.7595517 119.459106,18.7595517 C120.241149,18.7595517 120.776553,18.6256552 121.176766,18.4917586 C121.560128,18.3874483 121.851191,18.3131034 122.197021,18.3131034 C122.948809,18.3131034 123.587617,18.849069 123.527872,19.6979655 C123.474255,20.4573448 123.043404,21.0232759 121.979872,21.3953793 C121.14766,21.6783448 119.867745,21.9165517 118.876213,21.9165517 C115.959064,21.9165517 114.18434,20.4273793 114.373149,17.7471724 C114.398426,17.3898621 114.454723,17.0173793 114.556979,16.6301034 L117.552255,4.00286207 C117.828766,2.8562069 118.484043,2.30544828 119.446085,2.30544828 C120.468255,2.30544828 121.06034,2.87137931 120.991021,3.85417241 C120.980298,4.00324138 120.948511,4.24144828 120.902553,4.46448276 L120.596553,5.81937931 L124.250553,5.81937931 C125.423234,5.81937931 125.982766,6.41527586 125.915745,7.36810345 C125.847957,8.33610345 125.205319,8.91682759 124.032255,8.91682759 Z" id="Path"></path>
                    </g>
                </g>
            </g>
        </g>
    </g>
</svg>