<?xml version="1.0" encoding="utf-8"?>
<!-- Generator: Adobe Illustrator 24.2.1, SVG Export Plug-In . SVG Version: 6.00 Build 0)  -->
<svg version="1.1" id="Layer_1" xmlns="http://www.w3.org/2000/svg" xmlns:xlink="http://www.w3.org/1999/xlink" x="0px" y="0px"
	 viewBox="0 0 80 72" style="enable-background:new 0 0 80 72;" xml:space="preserve">
<style type="text/css">
	.st0{fill-rule:evenodd;clip-rule:evenodd;fill:#FFDD72;}
	.st1{fill:none;stroke:#14141B;stroke-width:4;stroke-linecap:round;stroke-linejoin:round;}
</style>
<desc>Created with Sketch.</desc>
<g id="Page-1">
	<g id="IC---LP02" transform="translate(-614.000000, -678.000000)">
		<g id="Group-17" transform="translate(616.000000, 680.000000)">
			<circle id="Oval-Copy" class="st0" cx="52.5" cy="44.5" r="25.5"/>
			<g id="Group-1050">
				<path id="Stroke-435" class="st1" d="M51.5,39.3L51.5,39.3c2.3,0,4.2,1.9,4.2,4.2c0,2.3-1.9,4.2-4.2,4.2h-2.8
					c2.3,0,4.2,1.9,4.2,4.2c0,2.3-1.9,4.2-4.2,4.2H30.6c-11.1,0-8.3-5.6-30.6-5.6v-25h8.3c9.7,0,20.9-9,20.9-22.3
					c0-4.4,8.3-5,8.3,3.4c0,5.6-2.8,16.1-2.8,16.1H57c2.3,0,4.2,1.9,4.2,4.2c0,2.3-1.9,4.2-4.2,4.2h-2.8c2.3,0,4.2,1.9,4.2,4.2
					c0,2.3-1.9,4.2-4.2,4.2H51.5"/>
			</g>
		</g>
	</g>
</g>
</svg>
