<?xml version="1.0" encoding="utf-8"?>
<!-- Generator: Adobe Illustrator 24.2.1, SVG Export Plug-In . SVG Version: 6.00 Build 0)  -->
<svg version="1.1" id="Layer_1" xmlns="http://www.w3.org/2000/svg" xmlns:xlink="http://www.w3.org/1999/xlink" x="0px" y="0px"
	 viewBox="0 0 91 87" style="enable-background:new 0 0 91 87;" xml:space="preserve">
<style type="text/css">
	.st0{fill-rule:evenodd;clip-rule:evenodd;fill:#FFDD72;}
	.st1{fill:none;stroke:#14141B;stroke-width:4;stroke-linecap:round;stroke-linejoin:round;}
	.st2{fill-rule:evenodd;clip-rule:evenodd;fill:#14141B;stroke:#FFFFFF;stroke-width:4;}
	.st3{enable-background:new    ;}
	.st4{fill:#FFFFFF;}
</style>
<desc>Created with Sketch.</desc>
<g id="Page-1">
	<g id="IC---LP02" transform="translate(-552.000000, -460.000000)">
		<g id="Group-15" transform="translate(556.000000, 464.000000)">
			<g id="Group-19" transform="translate(17.000000, 13.000000)">
				<g id="Group-5" transform="translate(19.000000, 19.000000)">
					<path id="Oval" class="st0" d="M24.5,50.5c13.8,0,26-11.2,26-25s-11.2-25-25-25s-25,11.2-25,25S10.7,50.5,24.5,50.5z"/>
				</g>
				<g id="wedding-certificate">
					<g id="Outline_Icons">
						<g id="Group">
							<polyline id="Path" class="st1" points="30.4,48 0.2,48 0.2,0.2 26.8,0.2 38.9,11.5 38.9,18.4 							"/>
							<polyline id="Path_1_" class="st1" points="26.8,1.3 26.8,11.5 37.7,11.5 							"/>
							<ellipse id="Oval_1_" class="st1" cx="44.9" cy="37.3" rx="10.9" ry="9.9"/>
							<polyline id="Path_2_" class="st1" points="50.8,45.8 53.4,56.5 36.5,56.5 39,45.8 							"/>
							<line id="Path_3_" class="st1" x1="8.7" y1="20.4" x2="20.8" y2="20.4"/>
							<line id="Path_4_" class="st1" x1="8.7" y1="29" x2="25.6" y2="29"/>
							<line id="Path_5_" class="st1" x1="8.7" y1="37.9" x2="25.6" y2="37.9"/>
						</g>
					</g>
				</g>
			</g>
			<g id="Group-11">
				<circle id="Oval_2_" class="st2" cx="15" cy="15" r="17"/>
				<g id="Group-9" transform="translate(10.909091, 5.454545)">
					<g class="st3">
						<path class="st4" d="M7.5,5.7c0,0.3-0.1,0.5-0.3,0.7L4.8,8.9c0.2,0,0.3,0,0.4,0c1.7,0.1,2.9,1.3,2.9,3c0,2.6-2.3,4.1-6,4.1
							c-0.2,0-0.5,0-0.7,0c-0.4,0-0.7-0.3-0.7-0.7c0-0.4,0.3-0.6,0.6-0.6c0.2,0,0.5,0,1,0c2.7,0,4.5-1,4.5-2.8c0-1.2-0.9-2-2.2-2
							c-0.6,0-0.9,0.1-1.2,0.1c-0.3,0-0.6-0.3-0.6-0.6c0-0.2,0.1-0.3,0.2-0.5l2.8-3l0,0H1.4C1,6.1,0.7,5.8,0.7,5.4
							C0.7,5,1,4.8,1.4,4.8h5.1C7.1,4.8,7.5,5.2,7.5,5.7z"/>
					</g>
				</g>
			</g>
		</g>
	</g>
</g>
</svg>
