<?xml version="1.0" encoding="utf-8"?>
<!-- Generator: Adobe Illustrator 24.2.1, SVG Export Plug-In . SVG Version: 6.00 Build 0)  -->
<svg version="1.1" id="Layer_1" xmlns="http://www.w3.org/2000/svg" xmlns:xlink="http://www.w3.org/1999/xlink" x="0px" y="0px"
	 viewBox="0 0 91 87" style="enable-background:new 0 0 91 87;" xml:space="preserve">
<style type="text/css">
	.st0{fill-rule:evenodd;clip-rule:evenodd;fill:#FFDD72;}
	.st1{fill:none;stroke:#14141B;stroke-width:4;stroke-linecap:round;stroke-linejoin:round;}
	.st2{fill:#14141B;}
	.st3{fill-rule:evenodd;clip-rule:evenodd;fill:#14141B;stroke:#FFFFFF;stroke-width:4;}
	.st4{enable-background:new    ;}
	.st5{fill:#FFFFFF;}
</style>
<desc>Created with Sketch.</desc>
<g id="Page-1">
	<g id="IC01---LP" transform="translate(-465.000000, -781.000000)">
		<g id="Group-13" transform="translate(469.000000, 785.000000)">
			<g id="Icon---Window-Check" transform="translate(15.000000, 12.000000)">
				<path id="Oval" class="st0" d="M46.5,71C60.6,71,72,59.6,72,45.5S60.6,20,46.5,20S21,31.4,21,45.5S32.4,71,46.5,71z"/>
				<g id="window-check">
					<g id="Outline_Icons">
						<g id="Group">
							<g transform="translate(29.333333, 29.333333)">
								<circle id="Oval_1_" class="st1" cx="17.3" cy="16" r="16"/>
								<polyline id="Path" class="st1" points="25.3,10.7 14.7,21.3 9.3,16 								"/>
							</g>
							<g id="Path_1_">
								<line class="st1" x1="1.3" y1="12" x2="54.7" y2="12"/>
								<path class="st2" d="M9.3,5.3C8.6,5.3,8,5.9,8,6.7S8.6,8,9.3,8s1.3-0.6,1.3-1.3S10.1,5.3,9.3,5.3L9.3,5.3z"/>
								<path class="st2" d="M14.7,5.3c-0.7,0-1.3,0.6-1.3,1.3S13.9,8,14.7,8S16,7.4,16,6.7S15.4,5.3,14.7,5.3L14.7,5.3z"/>
								<path class="st2" d="M20,5.3c-0.7,0-1.3,0.6-1.3,1.3S19.3,8,20,8s1.3-0.6,1.3-1.3S20.7,5.3,20,5.3L20,5.3z"/>
								<path class="st1" d="M22.7,44h-16c-2.9,0-5.3-2.4-5.3-5.3v-32c0-2.9,2.4-5.3,5.3-5.3h42.7c2.9,0,5.3,2.4,5.3,5.3v16"/>
							</g>
						</g>
					</g>
				</g>
			</g>
			<g id="Group-11">
				<circle id="Oval_2_" class="st3" cx="15" cy="15" r="17"/>
				<g id="Group-9" transform="translate(10.909091, 4.454545)">
					<g class="st4">
						<path class="st5" d="M8.1,7.7c0,1.5-0.6,2.3-2.5,3.7c-2.2,1.6-3.1,2.3-3.1,3.3h5.3c0.4,0,0.7,0.3,0.7,0.6
							C8.3,15.7,8,16,7.7,16H1.9c-0.6,0-0.9-0.3-0.9-0.9c0-1.4,0.8-2.5,2.5-3.7c1.6-1.2,2.3-1.7,2.7-2.1c0.5-0.5,0.6-1,0.6-1.4
							c0-1.1-0.9-1.9-2.2-1.9c-1.2,0-1.9,0.5-2.4,1.1C2,7.2,1.9,7.4,1.6,7.4c-0.4,0-0.6-0.3-0.6-0.6c0-0.2,0.1-0.3,0.2-0.5
							c0.6-0.7,1.7-1.6,3.3-1.6C6.8,4.7,8.1,6.1,8.1,7.7z"/>
					</g>
				</g>
			</g>
		</g>
	</g>
</g>
</svg>
