<?xml version="1.0" encoding="utf-8"?>
<!-- Generator: Adobe Illustrator 24.2.1, SVG Export Plug-In . SVG Version: 6.00 Build 0)  -->
<svg version="1.1" id="Layer_1" xmlns="http://www.w3.org/2000/svg" xmlns:xlink="http://www.w3.org/1999/xlink" x="0px" y="0px"
	 viewBox="0 0 94 88" style="enable-background:new 0 0 94 88;" xml:space="preserve">
<style type="text/css">
	.st0{fill-rule:evenodd;clip-rule:evenodd;fill:#FFDD72;}
	.st1{fill:none;stroke:#14141B;stroke-width:4;stroke-linecap:round;stroke-linejoin:round;}
	.st2{fill-rule:evenodd;clip-rule:evenodd;fill:#14141B;stroke:#FFFFFF;stroke-width:4;}
	.st3{enable-background:new    ;}
	.st4{fill:#FFFFFF;}
</style>
<desc>Created with Sketch.</desc>
<g id="Page-1">
	<g id="IC01---LP" transform="translate(-158.000000, -781.000000)">
		<g id="Group-6" transform="translate(162.000000, 785.000000)">
			<g id="Icon---Laptop" transform="translate(12.000000, 14.000000)">
				<circle id="Oval" class="st0" cx="52.5" cy="44.5" r="25.5"/>
				<g id="computer-notebook-2">
					<g id="Outline_Icons_1_">
						<g id="Outline_Icons">
							<g id="Group">
								<path id="Path" class="st1" d="M3,39V4.2C3,1.9,4.9,0,7.1,0h49.7C59.1,0,61,1.9,61,4.2V39"/>
								<path id="Path_1_" class="st1" d="M39,39v2.7H25V39H0v5.3C0,45.8,1.2,47,2.8,47h58.4c1.5,0,2.8-1.2,2.8-2.7V39H39z"/>
							</g>
						</g>
					</g>
				</g>
			</g>
			<g id="Group-11">
				<circle id="Oval_1_" class="st2" cx="15" cy="15" r="17"/>
				<g id="Group-9" transform="translate(11.818182, 5.454545)">
					<g class="st3">
						<path class="st4" d="M5.1,5.5v9.9c0,0.4-0.3,0.7-0.6,0.7c-0.3,0-0.6-0.3-0.6-0.7v-9l-2,1.1C1.7,7.5,1.6,7.6,1.4,7.6
							c-0.4,0-0.6-0.3-0.6-0.6c0-0.2,0.1-0.5,0.4-0.6l2.5-1.4c0.2-0.1,0.4-0.2,0.6-0.2C4.7,4.7,5.1,5,5.1,5.5z"/>
					</g>
				</g>
			</g>
		</g>
	</g>
</g>
</svg>
