<?xml version="1.0" encoding="utf-8"?>
<!-- Generator: Adobe Illustrator 22.1.0, SVG Export Plug-In . SVG Version: 6.00 Build 0)  -->
<svg version="1.1" id="Layer_1" xmlns="http://www.w3.org/2000/svg" xmlns:xlink="http://www.w3.org/1999/xlink" x="0px" y="0px"
	 viewBox="0 0 292.6 64.6" style="enable-background:new 0 0 292.6 64.6;" xml:space="preserve">
<style type="text/css">
	.st0{clip-path:url(#SVGID_2_);}
	.st1{clip-path:url(#SVGID_4_);fill:#212449;}
	.st2{clip-path:url(#SVGID_4_);fill:#D50F34;}
</style>
<g id="Stacked_Wide_-_Full_Color_1_">
	<g>
		<defs>
			<rect id="SVGID_1_" width="292.6" height="64.6"/>
		</defs>
		<clipPath id="SVGID_2_">
			<use xlink:href="#SVGID_1_"  style="overflow:visible;"/>
		</clipPath>
		<g class="st0">
			<defs>
				<rect id="SVGID_3_" y="0" width="292.6" height="64.6"/>
			</defs>
			<clipPath id="SVGID_4_">
				<use xlink:href="#SVGID_3_"  style="overflow:visible;"/>
			</clipPath>
			<path class="st1" d="M79.7,11.9c1.9-1.9,4.2-2.8,7.1-2.8c2.4,0,4.5,0.6,6.3,1.9c0.3,0.2,0.5,0.5,0.5,0.8c0,0.2-0.1,0.5-0.2,0.7
				l-0.5,0.8c-0.2,0.4-0.5,0.5-0.8,0.5c-0.2,0-0.5-0.1-0.8-0.2c-1.4-0.9-2.8-1.4-4.3-1.4c-2,0-3.6,0.6-4.7,1.9
				c-1.1,1.3-1.7,2.8-1.7,4.7c0,1.9,0.6,3.5,1.7,4.9c1.2,1.3,2.8,2,4.7,2c1.6,0,3.2-0.6,4.7-1.7c0.3-0.2,0.5-0.3,0.8-0.3
				c0.3,0,0.5,0.2,0.8,0.5l0.5,0.7c0.2,0.2,0.3,0.5,0.3,0.7c0,0.3-0.2,0.6-0.5,0.8c-2,1.6-4.2,2.4-6.8,2.4c-3,0-5.4-0.9-7.2-2.8
				c-1.8-1.9-2.7-4.3-2.7-7.2C76.9,16.1,77.8,13.8,79.7,11.9"/>
			<path class="st1" d="M97.7,20.9c1.8-0.6,3.4-0.8,5.2-0.8h0.6v-0.3c0-1.6-0.9-2.4-2.6-2.4c-0.9,0-1.9,0.3-2.9,0.8
				c-0.2,0.1-0.5,0.2-0.6,0.2c-0.4,0-0.7-0.2-0.9-0.6l-0.3-0.5c-0.1-0.2-0.2-0.5-0.2-0.6c0-0.4,0.2-0.6,0.6-0.9
				c1.5-0.8,3-1.1,4.5-1.1c3.6,0,5.7,2,5.7,5.5v7.5c0,0.8-0.4,1.1-1.1,1.1h-0.9c-0.7,0-1.1-0.4-1.1-1.1v-0.5l0.1-0.6h-0.1
				c-0.1,0.1-0.1,0.3-0.6,0.9c-0.6,0.7-1.9,1.7-3.7,1.7c-1.3,0-2.4-0.4-3.2-1.1c-0.9-0.8-1.3-1.8-1.3-3C94.8,22.9,96,21.6,97.7,20.9
				 M100.3,26.3c0.9,0,1.7-0.4,2.3-1.1c0.6-0.8,0.9-1.6,0.9-2.5v-0.5h-0.6c-3.1,0-4.7,0.8-4.7,2.3C98.2,25.5,99,26.3,100.3,26.3"/>
			<path class="st1" d="M109.5,16c0-0.8,0.4-1.1,1.1-1.1h1.1c0.7,0,1.1,0.4,1.1,1.1v0.8l-0.1,0.6h0.1c0.8-1.5,2.4-2.9,4.9-2.9
				c3.2,0,4.8,1.8,4.8,5.2v7.7c0,0.8-0.4,1.1-1.1,1.1h-1.2c-0.8,0-1.1-0.4-1.1-1.1v-7c0-1.8-0.5-2.8-2.2-2.8c-1.2,0-2.2,0.4-2.9,1.3
				c-0.7,0.9-1.1,1.9-1.1,3.2v5.3c0,0.8-0.4,1.1-1.1,1.1h-1.2c-0.7,0-1.1-0.4-1.1-1.1V16z"/>
			<path class="st1" d="M127,20.9c1.8-0.6,3.4-0.8,5.2-0.8h0.6v-0.3c0-1.6-0.9-2.4-2.6-2.4c-0.9,0-1.9,0.3-2.9,0.8
				c-0.2,0.1-0.5,0.2-0.6,0.2c-0.4,0-0.7-0.2-0.9-0.6l-0.3-0.5c-0.1-0.2-0.2-0.5-0.2-0.6c0-0.4,0.2-0.6,0.6-0.9
				c1.5-0.8,3-1.1,4.5-1.1c3.6,0,5.7,2,5.7,5.5v7.5c0,0.8-0.4,1.1-1.1,1.1h-0.9c-0.7,0-1.1-0.4-1.1-1.1v-0.5l0.1-0.6H133
				c-0.1,0.1-0.1,0.3-0.6,0.9c-0.6,0.7-1.9,1.7-3.7,1.7c-1.3,0-2.4-0.4-3.2-1.1c-0.9-0.8-1.3-1.8-1.3-3
				C124.1,22.9,125.3,21.6,127,20.9 M129.6,26.3c0.9,0,1.7-0.4,2.3-1.1c0.6-0.8,0.9-1.6,0.9-2.5v-0.5h-0.6c-3.1,0-4.7,0.8-4.7,2.3
				C127.5,25.5,128.3,26.3,129.6,26.3"/>
			<path class="st1" d="M139.7,16.5c1.2-1.3,2.7-2,4.5-2c2.4,0,3.6,1.2,3.9,1.8l0.1,0.2h0.1c0-0.2-0.1-0.5-0.1-0.8v-5.1
				c0-0.8,0.4-1.1,1.1-1.1h1.2c0.7,0,1.1,0.4,1.1,1.1v16.9c0,0.8-0.4,1.1-1.1,1.1h-1c-0.7,0-1.1-0.4-1.1-1v-0.5l0.1-0.5h-0.1
				c-0.1,0.1-0.1,0.3-0.6,0.8c-0.6,0.7-1.8,1.5-3.7,1.5c-1.9,0-3.3-0.7-4.5-2c-1.1-1.3-1.7-3.1-1.7-5.2
				C138,19.6,138.6,17.8,139.7,16.5 M144.9,26.1c1.9,0,3.5-1.5,3.5-4.4c0-1.2-0.3-2.1-0.9-3c-0.6-0.8-1.4-1.3-2.5-1.3
				c-1.9,0-3.5,1.6-3.5,4.3C141.5,24.3,142.9,26.1,144.9,26.1"/>
			<path class="st1" d="M155.7,12.5c-0.7,0-1.1-0.4-1.1-1.1v-0.8c0-0.8,0.4-1.1,1.1-1.1h1.2c0.8,0,1.1,0.4,1.1,1.1v0.8
				c0,0.7-0.4,1.1-1.1,1.1H155.7z M154.6,16c0-0.8,0.4-1.1,1.1-1.1h1.2c0.7,0,1.1,0.4,1.1,1.1v11.5c0,0.8-0.4,1.1-1.1,1.1h-1.2
				c-0.7,0-1.1-0.4-1.1-1.1V16z"/>
			<path class="st1" d="M162.7,20.9c1.8-0.6,3.4-0.8,5.2-0.8h0.6v-0.3c0-1.6-0.9-2.4-2.6-2.4c-0.9,0-1.9,0.3-2.9,0.8
				c-0.2,0.1-0.5,0.2-0.6,0.2c-0.4,0-0.7-0.2-0.9-0.6l-0.3-0.5c-0.1-0.2-0.2-0.5-0.2-0.6c0-0.4,0.2-0.6,0.6-0.9
				c1.5-0.8,3-1.1,4.5-1.1c3.6,0,5.7,2,5.7,5.5v7.5c0,0.8-0.4,1.1-1.1,1.1h-0.9c-0.7,0-1.1-0.4-1.1-1.1v-0.5l0.1-0.6h-0.1
				c-0.1,0.1-0.1,0.3-0.6,0.9c-0.6,0.7-1.9,1.7-3.7,1.7c-1.3,0-2.4-0.4-3.2-1.1c-0.9-0.8-1.3-1.8-1.3-3
				C159.8,22.9,161,21.6,162.7,20.9 M165.3,26.3c0.9,0,1.7-0.4,2.3-1.1c0.6-0.8,0.9-1.6,0.9-2.5v-0.5h-0.6c-3.1,0-4.7,0.8-4.7,2.3
				C163.2,25.5,164,26.3,165.3,26.3"/>
			<path class="st1" d="M174.5,16c0-0.8,0.4-1.1,1.1-1.1h1.1c0.7,0,1.1,0.4,1.1,1.1v0.8l-0.1,0.6h0.1c0.8-1.5,2.4-2.9,4.9-2.9
				c3.2,0,4.8,1.8,4.8,5.2v7.7c0,0.8-0.4,1.1-1.1,1.1h-1.2c-0.8,0-1.1-0.4-1.1-1.1v-7c0-1.8-0.5-2.8-2.2-2.8c-1.2,0-2.2,0.4-2.9,1.3
				c-0.7,0.9-1.1,1.9-1.1,3.2v5.3c0,0.8-0.4,1.1-1.1,1.1h-1.2c-0.7,0-1.1-0.4-1.1-1.1V16z"/>
			<path class="st1" d="M196.9,10.6c0-0.8,0.4-1.1,1.1-1.1h1.2c0.7,0,1.1,0.4,1.1,1.1v16.9c0,0.8-0.4,1.1-1.1,1.1H198
				c-0.7,0-1.1-0.4-1.1-1.1V10.6z"/>
			<path class="st1" d="M203.5,16c0-0.8,0.4-1.1,1.1-1.1h1.1c0.7,0,1.1,0.4,1.1,1.1v0.8l-0.1,0.6h0.1c0.8-1.5,2.4-2.9,4.9-2.9
				c3.2,0,4.8,1.8,4.8,5.2v7.7c0,0.8-0.4,1.1-1.1,1.1h-1.2c-0.8,0-1.1-0.4-1.1-1.1v-7c0-1.8-0.5-2.8-2.2-2.8c-1.2,0-2.2,0.4-2.9,1.3
				c-0.7,0.9-1.1,1.9-1.1,3.2v5.3c0,0.8-0.4,1.1-1.1,1.1h-1.2c-0.7,0-1.1-0.4-1.1-1.1V16z"/>
			<path class="st1" d="M218.3,26.8c0-0.2,0.1-0.5,0.3-0.8l0.3-0.5c0.2-0.3,0.5-0.5,0.8-0.5c0.2,0,0.5,0.1,0.7,0.2
				c1.2,0.6,2.2,0.9,3.1,0.9c1.2,0,1.9-0.5,1.9-1.4c0-0.8-1.1-1.4-2.4-1.8c-1.9-0.6-4.4-1.5-4.4-4.3c0-1.3,0.5-2.3,1.5-3
				c1-0.7,2.3-1.1,3.8-1.1c1.4,0,2.6,0.3,3.8,1c0.4,0.2,0.6,0.5,0.6,0.8c0,0.2-0.1,0.4-0.2,0.7l-0.3,0.5c-0.2,0.4-0.5,0.6-0.9,0.6
				c-0.2,0-0.4-0.1-0.6-0.2c-1-0.5-1.9-0.7-2.6-0.7c-1.2,0-1.9,0.5-1.9,1.3c0,0.8,1.1,1.4,2.4,1.8c1.9,0.6,4.5,1.6,4.4,4.3
				c0,1.2-0.5,2.2-1.5,3.1c-0.9,0.8-2.2,1.2-3.8,1.2c-1.7,0-3.2-0.5-4.6-1.4C218.5,27.3,218.3,27.1,218.3,26.8"/>
			<path class="st1" d="M231.5,17.8h-0.7c-0.7,0-1.1-0.4-1.1-1.1v-0.5c0-0.8,0.4-1.1,1.1-1.1h0.8v-2.8c0-0.8,0.4-1.1,1.1-1.1h1.1
				c0.8,0,1.1,0.4,1.1,1.1V15h2c0.8,0,1.1,0.4,1.1,1.1v0.5c0,0.8-0.4,1.1-1.1,1.1h-2v5.4c0,1.5,0.7,2.4,2.2,2.6
				c0.8,0.1,1.1,0.4,1.1,1.1v0.8c0,0.8-0.5,1.1-1.4,1.1c-1.4,0-2.7-0.4-3.8-1.2c-1.1-0.8-1.6-2.1-1.6-3.8V17.8z"/>
			<path class="st1" d="M241.1,12.5c-0.7,0-1.1-0.4-1.1-1.1v-0.8c0-0.8,0.4-1.1,1.1-1.1h1.2c0.8,0,1.1,0.4,1.1,1.1v0.8
				c0,0.7-0.4,1.1-1.1,1.1H241.1z M240,16c0-0.8,0.4-1.1,1.1-1.1h1.2c0.7,0,1.1,0.4,1.1,1.1v11.5c0,0.8-0.4,1.1-1.1,1.1h-1.2
				c-0.7,0-1.1-0.4-1.1-1.1V16z"/>
			<path class="st1" d="M247.1,17.8h-0.7c-0.7,0-1.1-0.4-1.1-1.1v-0.5c0-0.8,0.4-1.1,1.1-1.1h0.8v-2.8c0-0.8,0.4-1.1,1.1-1.1h1.1
				c0.8,0,1.1,0.4,1.1,1.1V15h2c0.8,0,1.1,0.4,1.1,1.1v0.5c0,0.8-0.4,1.1-1.1,1.1h-2v5.4c0,1.5,0.7,2.4,2.2,2.6
				c0.8,0.1,1.1,0.4,1.1,1.1v0.8c0,0.8-0.5,1.1-1.4,1.1c-1.4,0-2.7-0.4-3.8-1.2c-1.1-0.8-1.6-2.1-1.6-3.8V17.8z"/>
			<path class="st1" d="M255.4,16c0-0.8,0.4-1.1,1.1-1.1h1.2c0.8,0,1.1,0.4,1.1,1.1v7c0,1.8,0.5,2.8,2.1,2.8c1.2,0,2.1-0.5,2.8-1.4
				c0.7-0.9,1.1-2,1.1-3.3V16c0-0.8,0.4-1.1,1.1-1.1h1.2c0.8,0,1.1,0.4,1.1,1.1v11.5c0,0.8-0.4,1.1-1.1,1.1h-1.1
				c-0.7,0-1.1-0.4-1.1-1.1v-0.8l0.1-0.6H265c-0.7,1.5-2.6,2.9-4.8,2.9c-3.2,0-4.8-1.8-4.8-5.2V16z"/>
			<path class="st1" d="M271.9,17.8h-0.7c-0.7,0-1.1-0.4-1.1-1.1v-0.5c0-0.8,0.4-1.1,1.1-1.1h0.8v-2.8c0-0.8,0.4-1.1,1.1-1.1h1.1
				c0.8,0,1.1,0.4,1.1,1.1V15h2c0.8,0,1.1,0.4,1.1,1.1v0.5c0,0.8-0.4,1.1-1.1,1.1h-2v5.4c0,1.5,0.7,2.4,2.2,2.6
				c0.8,0.1,1.1,0.4,1.1,1.1v0.8c0,0.8-0.5,1.1-1.4,1.1c-1.4,0-2.7-0.4-3.8-1.2c-1.1-0.8-1.6-2.1-1.6-3.8V17.8z"/>
			<path class="st1" d="M281.4,16.5c1.3-1.4,3-2,5.1-2c1.9,0,3.4,0.6,4.5,1.8c1.1,1.2,1.6,2.8,1.6,4.7c0,0.6-0.5,1.2-1.2,1.2H283
				c0.2,2.4,1.9,3.8,4.1,3.8c1,0,2-0.3,3-0.9c0.2-0.1,0.5-0.2,0.7-0.2c0.4,0,0.6,0.2,0.8,0.5l0.3,0.5c0.1,0.2,0.2,0.5,0.2,0.6
				c0,0.4-0.2,0.6-0.6,0.9c-1.4,0.9-3,1.4-4.7,1.4c-2.2,0-4-0.7-5.4-2.1c-1.4-1.4-2-3.1-2-5.1C279.5,19.6,280.1,17.9,281.4,16.5
				 M289.2,20.2c0-1.9-1.2-3.1-2.8-3.1c-1.7,0-3,1.2-3.3,3.1H289.2z"/>
			<path class="st1" d="M89.6,52.2c-1.5,1.4-3.2,2-5.4,2c-2.1,0-3.9-0.7-5.4-2c-1.5-1.4-2.2-3.1-2.2-5.2c0-2.1,0.7-3.8,2.2-5.2
				c1.5-1.4,3.2-2.1,5.4-2.1c2.1,0,3.9,0.7,5.4,2.1c1.5,1.4,2.2,3.1,2.2,5.2C91.8,49.1,91.1,50.8,89.6,52.2 M81.3,50.1
				c0.8,0.8,1.8,1.2,2.9,1.2c1.2,0,2.1-0.4,2.9-1.2c0.8-0.8,1.2-1.8,1.2-3.1c0-1.2-0.4-2.3-1.2-3.1c-0.8-0.8-1.8-1.2-2.9-1.2
				c-1.1,0-2.1,0.4-2.9,1.2c-0.8,0.8-1.2,1.8-1.2,3.1C80.1,48.3,80.5,49.3,81.3,50.1"/>
			<path class="st1" d="M94.4,43h-0.7c-0.7,0-1.1-0.4-1.1-1.1v-0.5c0-0.8,0.4-1.1,1.1-1.1h0.7v-0.6c0-1.6,0.6-3,1.4-3.7
				c1.3-1.1,2.9-1.4,3.8-1.4h0.4c0.7,0,1.1,0.4,1.1,1.1v0.7c0,0.7-0.4,1.1-1.2,1.1c-0.5,0-0.9,0.1-1.4,0.4c-0.5,0.3-0.8,0.9-0.8,1.9
				v0.5h1.8c0.7,0,1.1,0.4,1.1,1.1v0.5c0,0.8-0.4,1.1-1.1,1.1h-1.8v9.7c0,0.8-0.4,1.1-1.1,1.1h-1.2c-0.7,0-1.1-0.4-1.1-1.1V43z"/>
			<path class="st1" d="M109,35.8c0-0.8,0.4-1.1,1.1-1.1h8.8c0.8,0,1.1,0.4,1.1,1.1v0.8c0,0.7-0.4,1.1-1.1,1.1h-6.4v5.4h5.2
				c0.8,0,1.1,0.4,1.1,1.1V45c0,0.8-0.4,1.1-1.1,1.1h-5.2v6.6c0,0.8-0.4,1.1-1.1,1.1h-1.2c-0.7,0-1.1-0.4-1.1-1.1V35.8z"/>
			<path class="st1" d="M133.5,52.2c-1.5,1.4-3.2,2-5.4,2s-3.9-0.7-5.4-2c-1.5-1.4-2.2-3.1-2.2-5.2c0-2.1,0.7-3.8,2.2-5.2
				c1.5-1.4,3.2-2.1,5.4-2.1s3.9,0.7,5.4,2.1c1.5,1.4,2.2,3.1,2.2,5.2C135.7,49.1,135,50.8,133.5,52.2 M125.2,50.1
				c0.8,0.8,1.8,1.2,2.9,1.2c1.2,0,2.1-0.4,2.9-1.2c0.8-0.8,1.2-1.8,1.2-3.1c0-1.2-0.4-2.3-1.2-3.1c-0.8-0.8-1.8-1.2-2.9-1.2
				s-2.1,0.4-2.9,1.2c-0.8,0.8-1.2,1.8-1.2,3.1C124.1,48.3,124.4,49.3,125.2,50.1"/>
			<path class="st1" d="M149.8,52.2c-1.5,1.4-3.2,2-5.4,2s-3.9-0.7-5.4-2c-1.5-1.4-2.2-3.1-2.2-5.2c0-2.1,0.7-3.8,2.2-5.2
				c1.5-1.4,3.2-2.1,5.4-2.1s3.9,0.7,5.4,2.1c1.5,1.4,2.2,3.1,2.2,5.2C152,49.1,151.3,50.8,149.8,52.2 M141.5,50.1
				c0.8,0.8,1.8,1.2,2.9,1.2s2.1-0.4,2.9-1.2c0.8-0.8,1.2-1.8,1.2-3.1c0-1.2-0.4-2.3-1.2-3.1c-0.8-0.8-1.8-1.2-2.9-1.2
				c-1.1,0-2.1,0.4-2.9,1.2c-0.8,0.8-1.2,1.8-1.2,3.1C140.3,48.3,140.7,49.3,141.5,50.1"/>
			<path class="st1" d="M154.9,41.8c1.2-1.3,2.7-2,4.5-2c2.4,0,3.6,1.2,3.9,1.8l0.1,0.2h0.1c0-0.2-0.1-0.5-0.1-0.8v-5.1
				c0-0.8,0.4-1.1,1.1-1.1h1.2c0.7,0,1.1,0.4,1.1,1.1v16.9c0,0.8-0.4,1.1-1.1,1.1h-1c-0.7,0-1.1-0.4-1.1-1v-0.5l0.1-0.5h-0.1
				c-0.1,0.1-0.1,0.3-0.6,0.8c-0.6,0.7-1.8,1.5-3.7,1.5c-1.9,0-3.4-0.7-4.5-2c-1.1-1.3-1.7-3.1-1.7-5.2
				C153.2,44.8,153.7,43.1,154.9,41.8 M160.1,51.3c1.9,0,3.5-1.5,3.5-4.4c0-1.2-0.3-2.1-0.9-3c-0.6-0.8-1.4-1.3-2.5-1.3
				c-1.9,0-3.5,1.6-3.5,4.3C156.6,49.6,158,51.3,160.1,51.3"/>
			<path class="st1" d="M175.3,51.4c0-0.2,0.1-0.5,0.3-0.7l0.6-0.9c0.2-0.3,0.5-0.5,0.8-0.5c0.2,0,0.5,0.1,0.8,0.2
				c1.4,0.9,2.6,1.4,3.9,1.4c1.8,0,2.9-0.9,2.9-2.2c0-3.6-8.9-2.9-8.9-8.9c0-1.6,0.6-3,1.8-4c1.2-1,2.8-1.5,4.6-1.5
				c2.1,0,3.9,0.7,4.9,1.5c0.4,0.2,0.5,0.5,0.5,0.9c0,0.2-0.1,0.4-0.2,0.6l-0.5,0.9c-0.2,0.4-0.5,0.6-0.8,0.6
				c-0.2,0-0.4-0.1-0.7-0.2c-1.2-0.7-2.3-1.1-3.3-1.1c-0.9,0-1.6,0.2-2.1,0.6c-0.5,0.4-0.8,0.9-0.8,1.6s0.3,1.2,0.9,1.7
				c1.2,0.9,3.1,1.5,4.9,2.4c1.8,0.8,3.2,2.4,3.2,4.7c0,1.6-0.6,3-1.7,4.1c-1.1,1.1-2.7,1.6-4.6,1.6c-2.4,0-4.6-1-5.9-1.9
				C175.5,52,175.3,51.7,175.3,51.4"/>
			<path class="st1" d="M192.1,46.2c1.8-0.6,3.4-0.8,5.2-0.8h0.6v-0.3c0-1.6-0.9-2.4-2.6-2.4c-0.9,0-1.9,0.3-2.9,0.8
				c-0.2,0.1-0.5,0.2-0.6,0.2c-0.4,0-0.7-0.2-0.9-0.6l-0.3-0.5c-0.1-0.2-0.2-0.5-0.2-0.6c0-0.4,0.2-0.6,0.6-0.9
				c1.5-0.8,3-1.1,4.5-1.1c3.6,0,5.7,2,5.7,5.5v7.5c0,0.8-0.4,1.1-1.1,1.1h-0.9c-0.7,0-1.1-0.4-1.1-1.1v-0.5l0.1-0.6h-0.1
				c-0.1,0.1-0.1,0.3-0.6,0.9c-0.6,0.7-1.9,1.7-3.7,1.7c-1.3,0-2.4-0.4-3.2-1.1c-0.9-0.8-1.3-1.8-1.3-3
				C189.2,48.2,190.4,46.8,192.1,46.2 M194.7,51.6c0.9,0,1.7-0.4,2.3-1.1c0.6-0.8,0.9-1.6,0.9-2.5v-0.5h-0.6c-3.1,0-4.7,0.8-4.7,2.3
				C192.6,50.8,193.4,51.6,194.7,51.6"/>
			<path class="st1" d="M204.5,43h-0.7c-0.7,0-1.1-0.4-1.1-1.1v-0.5c0-0.8,0.4-1.1,1.1-1.1h0.7v-0.6c0-1.6,0.6-3,1.4-3.7
				c1.4-1.1,2.9-1.4,3.8-1.4h0.4c0.7,0,1.1,0.4,1.1,1.1v0.7c0,0.7-0.4,1.1-1.2,1.1c-0.5,0-0.9,0.1-1.4,0.4c-0.5,0.3-0.8,0.9-0.8,1.9
				v0.5h1.8c0.7,0,1.1,0.4,1.1,1.1v0.5c0,0.8-0.4,1.1-1.1,1.1H208v9.7c0,0.8-0.4,1.1-1.1,1.1h-1.2c-0.7,0-1.1-0.4-1.1-1.1V43z"/>
			<path class="st1" d="M213.2,41.8c1.3-1.4,3-2,5.1-2c1.9,0,3.4,0.6,4.5,1.8c1.1,1.2,1.6,2.8,1.6,4.7c0,0.6-0.5,1.2-1.2,1.2h-8.4
				c0.2,2.4,1.9,3.8,4.1,3.8c1,0,2-0.3,3-0.9c0.2-0.1,0.5-0.2,0.7-0.2c0.4,0,0.6,0.2,0.8,0.5l0.3,0.5c0.1,0.2,0.2,0.5,0.2,0.6
				c0,0.4-0.2,0.6-0.6,0.9c-1.4,0.9-3,1.4-4.7,1.4c-2.2,0-4-0.7-5.4-2.1c-1.4-1.4-2-3.1-2-5.1C211.3,44.9,211.9,43.1,213.2,41.8
				 M221,45.4c0-1.9-1.2-3.1-2.8-3.1c-1.7,0-3,1.2-3.3,3.1H221z"/>
			<path class="st1" d="M227,43h-0.7c-0.7,0-1.1-0.4-1.1-1.1v-0.5c0-0.8,0.4-1.1,1.1-1.1h0.8v-2.8c0-0.8,0.4-1.1,1.1-1.1h1.1
				c0.8,0,1.1,0.4,1.1,1.1v2.8h2c0.8,0,1.1,0.4,1.1,1.1v0.5c0,0.8-0.4,1.1-1.1,1.1h-2v5.4c0,1.5,0.7,2.4,2.2,2.6
				c0.8,0.1,1.1,0.4,1.1,1.1v0.8c0,0.8-0.5,1.1-1.4,1.1c-1.4,0-2.7-0.4-3.8-1.2c-1.1-0.8-1.6-2.1-1.6-3.8V43z"/>
			<path class="st1" d="M234.5,57.1c0.2-0.4,0.5-0.6,0.9-0.6c0.1,0,0.2,0,0.3,0c0.4,0.2,0.7,0.2,1,0.2c0.9,0,1.8-0.8,2.2-1.8
				l0.5-1.2l-5.2-12.2c-0.1-0.2-0.1-0.4-0.1-0.6c0-0.1,0-0.3,0.1-0.4c0.2-0.2,0.5-0.4,0.9-0.4h1.5c0.6,0,1.1,0.3,1.3,0.9l2.6,7
				l0.5,1.9h0.1c0.2-0.7,0.3-1.3,0.5-1.8l2.4-7.1c0.2-0.6,0.6-0.9,1.3-0.9h1.4c0.4,0,0.7,0.1,0.9,0.4c0.1,0.1,0.1,0.3,0.1,0.5
				c0,0.1,0,0.3-0.1,0.5L241.7,56c-0.9,2.4-2.8,3.6-5,3.6c-0.6,0-1.2-0.1-1.9-0.4c-0.3-0.1-0.5-0.3-0.6-0.6c0-0.1-0.1-0.2-0.1-0.3
				c0-0.2,0.1-0.4,0.2-0.6L234.5,57.1z"/>
			<path class="st2" d="M48.9,49.9c-0.3-0.8-0.1-1.7,0.6-2.3l16.2-13.4c0.2-0.2,0.4-0.5,0.3-0.8c-0.1-0.3-0.3-0.6-0.6-0.7l-2-0.6
				c-1-0.3-1.6-1.4-1.3-2.4l1.9-7c0.1-0.3,0-0.6-0.2-0.8c-0.2-0.2-0.5-0.3-0.8-0.2l-7.1,1.6c-1.1,0.2-2.1-0.4-2.4-1.4l-0.6-2
				c-0.1-0.3-0.3-0.5-0.6-0.6c-0.3-0.1-0.6,0-0.8,0.3L44.5,27c-0.4,0.4-0.9,0.5-1.4,0.3c-0.5-0.2-0.7-0.8-0.6-1.3l3-16.6
				c0.1-0.3-0.1-0.6-0.3-0.8c-0.3-0.2-0.6-0.2-0.9-0.1L41,9.9c-1,0.4-2.1,0.1-2.6-0.9l-4.7-8.6C33.6,0.2,33.3,0,33,0
				s-0.6,0.2-0.8,0.5l-4.7,8.6c-0.5,0.9-1.6,1.3-2.6,0.9l-3.2-1.4c-0.3-0.1-0.6-0.1-0.9,0.1c-0.3,0.2-0.4,0.5-0.3,0.8l3,16.6
				c0.1,0.5-0.2,1-0.6,1.3c-0.5,0.2-1.1,0.1-1.4-0.3l-6.9-7.7c-0.2-0.2-0.5-0.3-0.8-0.3c-0.3,0.1-0.6,0.3-0.6,0.6l-0.6,2
				c-0.3,1-1.3,1.7-2.4,1.4l-7.1-1.6c-0.3-0.1-0.6,0-0.8,0.2C2.1,22,2,22.3,2.1,22.6l1.9,7c0.3,1-0.3,2.1-1.3,2.4l-2,0.6
				C0.3,32.8,0.1,33,0,33.3s0.1,0.6,0.3,0.8l16.2,13.4c0.7,0.6,0.9,1.5,0.6,2.3l-1.3,3.3c-0.1,0.3-0.1,0.6,0.1,0.8
				c0.2,0.2,0.4,0.4,0.7,0.4h10.9c0.4,0,0.7-0.3,0.8-0.6c0.5-1.7,0.8-4.7,0.8-7c0-0.2-0.1-0.5-0.3-0.7c-0.2-0.2-0.4-0.2-0.7-0.2
				c-6.8,0.9-12-6.1-12.9-12.8c0-0.3,0.1-0.6,0.2-0.8c0.2-0.2,0.5-0.3,0.8-0.4c6-0.1,12.8,3.3,14.2,8.9c0,0,0,0,0,0
				c1.2,4.5,1,15.3,0.7,22.9c0,0.2,0.1,0.5,0.2,0.6c0.2,0.2,0.4,0.3,0.6,0.3h1.8c0.2,0,0.5-0.1,0.6-0.3c0.2-0.2,0.3-0.4,0.2-0.6
				c-0.2-7.6-0.4-18.4,0.7-22.9c0,0,0,0,0,0h0c1.4-5.6,8.2-8.9,14.2-8.9c0.3,0,0.6,0.1,0.8,0.4c0.2,0.2,0.3,0.5,0.2,0.8
				c-0.9,6.7-6.1,13.7-12.9,12.8c-0.2,0-0.5,0-0.7,0.2c-0.2,0.2-0.3,0.4-0.3,0.7c0,2.3,0.3,5.1,0.8,7c0.1,0.4,0.4,0.7,0.8,0.7h10.8
				c0.3,0,0.6-0.1,0.7-0.4c0.2-0.2,0.2-0.5,0.1-0.8L48.9,49.9z M34.1,34.7C33.7,34.9,33.4,35,33,35c-0.4,0-0.7-0.1-1.1-0.3
				c-6.7-4.5-4.8-14.4,0.2-20.1c0.2-0.2,0.5-0.4,0.8-0.4c0.3,0,0.6,0.1,0.8,0.4C38.9,20.3,40.8,30.2,34.1,34.7"/>
		</g>
	</g>
</g>
</svg>
