<?xml version="1.0" encoding="utf-8"?>
<!-- Generator: Adobe Illustrator 22.1.0, SVG Export Plug-In . SVG Version: 6.00 Build 0)  -->
<svg version="1.1" id="Layer_1" xmlns="http://www.w3.org/2000/svg" xmlns:xlink="http://www.w3.org/1999/xlink" x="0px" y="0px"
	 viewBox="0 0 493 70.9" style="enable-background:new 0 0 493 70.9;" xml:space="preserve">
<style type="text/css">
	.st0{clip-path:url(#SVGID_2_);}
	.st1{clip-path:url(#SVGID_4_);fill:#FFFFFF;}
</style>
<g id="Full_Width_-_White_1_">
	<g>
		<defs>
			<rect id="SVGID_1_" y="0" width="493" height="70.9"/>
		</defs>
		<clipPath id="SVGID_2_">
			<use xlink:href="#SVGID_1_"  style="overflow:visible;"/>
		</clipPath>
		<g class="st0">
			<defs>
				<rect id="SVGID_3_" y="0" width="493" height="70.9"/>
			</defs>
			<clipPath id="SVGID_4_">
				<use xlink:href="#SVGID_3_"  style="overflow:visible;"/>
			</clipPath>
			<path class="st1" d="M85.4,26.3c2-2,4.6-3.1,7.8-3.1c2.6,0,4.9,0.7,6.8,2.1c0.3,0.3,0.5,0.6,0.5,0.9c0,0.2-0.1,0.5-0.3,0.8
				l-0.5,0.9c-0.2,0.4-0.5,0.6-0.9,0.6c-0.3,0-0.5-0.1-0.8-0.3c-1.5-1-3.1-1.5-4.7-1.5c-2.2,0-3.9,0.7-5.2,2.1
				c-1.2,1.4-1.9,3.1-1.9,5.1c0,2.1,0.6,3.8,1.9,5.3c1.3,1.4,3,2.2,5.2,2.2c1.7,0,3.4-0.6,5.1-1.8c0.3-0.2,0.6-0.3,0.9-0.3
				c0.3,0,0.6,0.2,0.9,0.5l0.6,0.8c0.2,0.3,0.3,0.5,0.3,0.8c0,0.3-0.2,0.6-0.5,0.9c-2.2,1.7-4.6,2.6-7.4,2.6c-3.2,0-5.9-1-7.8-3.1
				c-2-2.1-3-4.7-3-7.8C82.3,30.9,83.3,28.4,85.4,26.3"/>
			<path class="st1" d="M104.5,36.2c1.9-0.7,3.7-0.9,5.6-0.9h0.6v-0.4c0-1.8-0.9-2.7-2.8-2.7c-1,0-2.1,0.3-3.1,0.9
				c-0.3,0.1-0.5,0.2-0.7,0.2c-0.4,0-0.7-0.2-0.9-0.7l-0.3-0.6c-0.1-0.3-0.2-0.5-0.2-0.7c0-0.4,0.2-0.7,0.7-0.9
				c1.6-0.8,3.2-1.2,4.9-1.2c3.9,0,6.2,2.2,6.2,6v8.2c0,0.8-0.4,1.2-1.2,1.2h-1c-0.8,0-1.2-0.4-1.2-1.2v-0.6l0.1-0.6H111
				c-0.1,0.1-0.1,0.3-0.7,1c-0.7,0.8-2,1.8-4,1.8c-1.4,0-2.6-0.4-3.5-1.2c-1-0.9-1.4-1.9-1.4-3.3C101.3,38.3,102.6,36.9,104.5,36.2
				 M107.3,42.1c1,0,1.8-0.4,2.5-1.2c0.6-0.8,1-1.7,1-2.7v-0.6h-0.6c-3.4,0-5.1,0.9-5.1,2.5C105,41.1,105.9,42.1,107.3,42.1"/>
			<path class="st1" d="M116.8,30.8c0-0.8,0.4-1.2,1.2-1.2h1.2c0.8,0,1.2,0.4,1.2,1.2v0.9l-0.1,0.7h0.1c0.8-1.7,2.6-3.2,5.3-3.2
				c3.5,0,5.2,1.9,5.2,5.7v8.4c0,0.8-0.4,1.2-1.2,1.2h-1.3c-0.8,0-1.2-0.4-1.2-1.2v-7.7c0-2-0.6-3.1-2.4-3.1c-1.3,0-2.4,0.5-3.2,1.4
				c-0.8,0.9-1.2,2.1-1.2,3.5v5.8c0,0.8-0.4,1.2-1.2,1.2H118c-0.8,0-1.2-0.4-1.2-1.2V30.8z"/>
			<path class="st1" d="M135.2,36.2c1.9-0.7,3.7-0.9,5.6-0.9h0.6v-0.4c0-1.8-0.9-2.7-2.8-2.7c-1,0-2.1,0.3-3.1,0.9
				c-0.3,0.1-0.5,0.2-0.7,0.2c-0.4,0-0.7-0.2-0.9-0.7l-0.3-0.6c-0.1-0.3-0.2-0.5-0.2-0.7c0-0.4,0.2-0.7,0.7-0.9
				c1.6-0.8,3.2-1.2,4.9-1.2c3.9,0,6.2,2.2,6.2,6v8.2c0,0.8-0.4,1.2-1.2,1.2h-1c-0.8,0-1.2-0.4-1.2-1.2v-0.6l0.1-0.6h-0.1
				c-0.1,0.1-0.1,0.3-0.7,1c-0.7,0.8-2,1.8-4,1.8c-1.4,0-2.6-0.4-3.5-1.2c-1-0.9-1.4-1.9-1.4-3.3C132.1,38.3,133.4,36.9,135.2,36.2
				 M138.1,42.1c1,0,1.8-0.4,2.5-1.2c0.6-0.8,1-1.7,1-2.7v-0.6h-0.6c-3.4,0-5.1,0.9-5.1,2.5C135.8,41.1,136.7,42.1,138.1,42.1"/>
			<path class="st1" d="M148.5,31.4c1.3-1.4,2.9-2.2,4.9-2.2c2.6,0,4,1.3,4.2,1.9l0.1,0.2h0.1c0-0.3-0.1-0.5-0.1-0.9v-5.6
				c0-0.8,0.4-1.2,1.2-1.2h1.3c0.8,0,1.2,0.4,1.2,1.2v18.5c0,0.8-0.4,1.2-1.2,1.2h-1.1c-0.8,0-1.2-0.4-1.2-1.1v-0.6l0.1-0.5h-0.1
				c-0.1,0.1-0.1,0.3-0.7,0.9c-0.6,0.8-2,1.7-4,1.7c-2,0-3.7-0.7-4.9-2.2c-1.2-1.4-1.8-3.4-1.8-5.7
				C146.7,34.7,147.3,32.8,148.5,31.4 M154.2,41.8c2.1,0,3.8-1.6,3.8-4.7c0-1.3-0.3-2.3-1-3.2c-0.6-0.9-1.6-1.4-2.8-1.4
				c-2.1,0-3.8,1.8-3.8,4.7C150.4,39.9,151.9,41.8,154.2,41.8"/>
			<path class="st1" d="M165.3,27c-0.8,0-1.2-0.4-1.2-1.2v-0.9c0-0.8,0.4-1.2,1.2-1.2h1.3c0.8,0,1.2,0.4,1.2,1.2v0.9
				c0,0.8-0.4,1.2-1.2,1.2H165.3z M164.1,30.8c0-0.8,0.4-1.2,1.2-1.2h1.3c0.8,0,1.2,0.4,1.2,1.2v12.6c0,0.8-0.4,1.2-1.2,1.2h-1.3
				c-0.8,0-1.2-0.4-1.2-1.2V30.8z"/>
			<path class="st1" d="M172.4,36.2c1.9-0.7,3.7-0.9,5.6-0.9h0.6v-0.4c0-1.8-0.9-2.7-2.8-2.7c-1,0-2.1,0.3-3.1,0.9
				c-0.3,0.1-0.5,0.2-0.7,0.2c-0.4,0-0.7-0.2-0.9-0.7l-0.3-0.6c-0.1-0.3-0.2-0.5-0.2-0.7c0-0.4,0.2-0.7,0.7-0.9
				c1.6-0.8,3.2-1.2,4.9-1.2c3.9,0,6.2,2.2,6.2,6v8.2c0,0.8-0.4,1.2-1.2,1.2h-1c-0.8,0-1.2-0.4-1.2-1.2v-0.6l0.1-0.6h-0.1
				c-0.1,0.1-0.1,0.3-0.7,1c-0.7,0.8-2,1.8-4,1.8c-1.4,0-2.6-0.4-3.5-1.2c-1-0.9-1.4-1.9-1.4-3.3C169.2,38.3,170.5,36.9,172.4,36.2
				 M175.2,42.1c1,0,1.8-0.4,2.5-1.2c0.6-0.8,1-1.7,1-2.7v-0.6h-0.6c-3.4,0-5.1,0.9-5.1,2.5C173,41.1,173.8,42.1,175.2,42.1"/>
			<path class="st1" d="M184.7,30.8c0-0.8,0.4-1.2,1.2-1.2h1.1c0.8,0,1.2,0.4,1.2,1.2v0.9l-0.1,0.7h0.1c0.8-1.7,2.6-3.2,5.3-3.2
				c3.5,0,5.2,1.9,5.2,5.7v8.4c0,0.8-0.4,1.2-1.2,1.2h-1.3c-0.8,0-1.2-0.4-1.2-1.2v-7.7c0-2-0.6-3.1-2.4-3.1c-1.3,0-2.4,0.5-3.2,1.4
				c-0.8,0.9-1.2,2.1-1.2,3.5v5.8c0,0.8-0.4,1.2-1.2,1.2h-1.3c-0.8,0-1.2-0.4-1.2-1.2V30.8z"/>
			<path class="st1" d="M207.9,24.9c0-0.8,0.4-1.2,1.2-1.2h1.4c0.8,0,1.2,0.4,1.2,1.2v18.5c0,0.8-0.4,1.2-1.2,1.2h-1.4
				c-0.8,0-1.2-0.4-1.2-1.2V24.9z"/>
			<path class="st1" d="M214.6,30.8c0-0.8,0.4-1.2,1.2-1.2h1.1c0.8,0,1.2,0.4,1.2,1.2v0.9l-0.1,0.7h0.1c0.8-1.7,2.6-3.2,5.3-3.2
				c3.5,0,5.2,1.9,5.2,5.7v8.4c0,0.8-0.4,1.2-1.2,1.2h-1.3c-0.8,0-1.2-0.4-1.2-1.2v-7.7c0-2-0.6-3.1-2.4-3.1c-1.3,0-2.4,0.5-3.2,1.4
				c-0.8,0.9-1.2,2.1-1.2,3.5v5.8c0,0.8-0.4,1.2-1.2,1.2h-1.3c-0.8,0-1.2-0.4-1.2-1.2V30.8z"/>
			<path class="st1" d="M230.1,42.5c0-0.3,0.1-0.5,0.3-0.8l0.4-0.5c0.3-0.4,0.6-0.5,0.9-0.5c0.2,0,0.5,0.1,0.8,0.2
				c1.3,0.7,2.4,1,3.4,1c1.3,0,2.1-0.6,2.1-1.5c0-0.9-1.1-1.5-2.7-1.9c-2.1-0.7-4.8-1.7-4.8-4.7c0-1.4,0.5-2.5,1.6-3.3
				c1.1-0.8,2.5-1.2,4.1-1.2c1.5,0,2.9,0.4,4.2,1.1c0.4,0.2,0.6,0.5,0.6,0.9c0,0.2-0.1,0.5-0.2,0.7l-0.3,0.5
				c-0.2,0.4-0.5,0.6-0.9,0.6c-0.2,0-0.4-0.1-0.7-0.2c-1.1-0.5-2-0.7-2.9-0.7c-1.4,0-2,0.5-2,1.5c0,0.9,1.2,1.5,2.6,1.9
				c2.1,0.6,4.9,1.7,4.8,4.7c0,1.3-0.5,2.4-1.6,3.3c-1,0.9-2.4,1.3-4.1,1.3c-1.8,0-3.5-0.5-5-1.5C230.3,43.1,230.1,42.8,230.1,42.5"
				/>
			<path class="st1" d="M243.9,32.7h-0.8c-0.8,0-1.2-0.4-1.2-1.2V31c0-0.8,0.4-1.2,1.2-1.2h0.9v-3.1c0-0.8,0.4-1.2,1.2-1.2h1.2
				c0.8,0,1.2,0.4,1.2,1.2v3.1h2.2c0.8,0,1.2,0.4,1.2,1.2v0.5c0,0.8-0.4,1.2-1.2,1.2h-2.2v5.8c0,1.7,0.8,2.6,2.4,2.8
				c0.9,0.1,1.2,0.4,1.2,1.2v0.9c0,0.8-0.5,1.2-1.5,1.2c-1.6,0-2.9-0.4-4.1-1.4c-1.2-0.9-1.8-2.3-1.8-4.2V32.7z"/>
			<path class="st1" d="M253.8,27c-0.8,0-1.2-0.4-1.2-1.2v-0.9c0-0.8,0.4-1.2,1.2-1.2h1.3c0.8,0,1.2,0.4,1.2,1.2v0.9
				c0,0.8-0.4,1.2-1.2,1.2H253.8z M252.6,30.8c0-0.8,0.4-1.2,1.2-1.2h1.3c0.8,0,1.2,0.4,1.2,1.2v12.6c0,0.8-0.4,1.2-1.2,1.2h-1.3
				c-0.8,0-1.2-0.4-1.2-1.2V30.8z"/>
			<path class="st1" d="M259.7,32.7h-0.8c-0.8,0-1.2-0.4-1.2-1.2V31c0-0.8,0.4-1.2,1.2-1.2h0.9v-3.1c0-0.8,0.4-1.2,1.2-1.2h1.2
				c0.8,0,1.2,0.4,1.2,1.2v3.1h2.2c0.8,0,1.2,0.4,1.2,1.2v0.5c0,0.8-0.4,1.2-1.2,1.2h-2.2v5.8c0,1.7,0.8,2.6,2.4,2.8
				c0.9,0.1,1.2,0.4,1.2,1.2v0.9c0,0.8-0.5,1.2-1.5,1.2c-1.6,0-2.9-0.4-4.1-1.4c-1.2-0.9-1.8-2.3-1.8-4.2V32.7z"/>
			<path class="st1" d="M268.2,30.8c0-0.8,0.4-1.2,1.2-1.2h1.3c0.8,0,1.2,0.4,1.2,1.2v7.7c0,2,0.6,3.1,2.3,3.1
				c1.3,0,2.3-0.5,3.1-1.5c0.8-1,1.1-2.2,1.1-3.6v-5.7c0-0.8,0.4-1.2,1.2-1.2h1.3c0.8,0,1.2,0.4,1.2,1.2v12.6c0,0.8-0.4,1.2-1.2,1.2
				h-1.1c-0.8,0-1.2-0.4-1.2-1.2v-0.9l0.1-0.7h-0.1c-0.8,1.7-2.8,3.2-5.2,3.2c-3.5,0-5.2-1.9-5.2-5.7V30.8z"/>
			<path class="st1" d="M285.6,32.7h-0.8c-0.8,0-1.2-0.4-1.2-1.2V31c0-0.8,0.4-1.2,1.2-1.2h0.9v-3.1c0-0.8,0.4-1.2,1.2-1.2h1.2
				c0.8,0,1.2,0.4,1.2,1.2v3.1h2.2c0.8,0,1.2,0.4,1.2,1.2v0.5c0,0.8-0.4,1.2-1.2,1.2h-2.2v5.8c0,1.7,0.8,2.6,2.4,2.8
				c0.9,0.1,1.2,0.4,1.2,1.2v0.9c0,0.8-0.5,1.2-1.5,1.2c-1.6,0-2.9-0.4-4.1-1.4c-1.2-0.9-1.8-2.3-1.8-4.2V32.7z"/>
			<path class="st1" d="M295.4,31.4c1.4-1.5,3.2-2.2,5.5-2.2c2.1,0,3.7,0.7,4.9,2c1.2,1.3,1.8,3,1.8,5.2c0,0.7-0.6,1.3-1.3,1.3h-9.2
				c0.2,2.6,2.1,4.1,4.5,4.1c1.1,0,2.2-0.3,3.2-1c0.3-0.1,0.5-0.2,0.7-0.2c0.4,0,0.7,0.2,0.9,0.6l0.4,0.6c0.1,0.3,0.2,0.5,0.2,0.7
				c0,0.4-0.2,0.7-0.6,0.9c-1.6,1-3.3,1.5-5.1,1.5c-2.4,0-4.4-0.8-5.9-2.3c-1.5-1.5-2.2-3.4-2.2-5.6C293.3,34.7,294,32.8,295.4,31.4
				 M303.9,35.3c0-2-1.3-3.3-3-3.3c-1.9,0-3.3,1.3-3.6,3.3H303.9z"/>
			<path class="st1" d="M328.5,42.7c-1.6,1.5-3.5,2.2-5.9,2.2c-2.3,0-4.3-0.7-5.9-2.2c-1.6-1.5-2.4-3.4-2.4-5.7
				c0-2.3,0.8-4.2,2.4-5.6c1.6-1.5,3.5-2.2,5.9-2.2c2.3,0,4.3,0.7,5.9,2.2c1.6,1.5,2.4,3.4,2.4,5.6
				C330.9,39.3,330.1,41.2,328.5,42.7 M319.4,40.4c0.9,0.9,1.9,1.3,3.2,1.3c1.3,0,2.3-0.4,3.2-1.3c0.9-0.9,1.3-2,1.3-3.4
				c0-1.4-0.4-2.5-1.3-3.4c-0.9-0.9-1.9-1.3-3.2-1.3c-1.2,0-2.3,0.4-3.2,1.3c-0.9,0.9-1.3,2-1.3,3.4
				C318.2,38.4,318.6,39.5,319.4,40.4"/>
			<path class="st1" d="M333.1,32.7h-0.7c-0.8,0-1.2-0.4-1.2-1.2V31c0-0.8,0.4-1.2,1.2-1.2h0.7V29c0-1.8,0.7-3.3,1.6-4
				c1.5-1.2,3.2-1.5,4.2-1.5h0.4c0.8,0,1.2,0.4,1.2,1.2v0.8c0,0.7-0.4,1.1-1.3,1.2c-0.6,0-0.9,0.1-1.5,0.4c-0.6,0.3-0.9,1-0.9,2v0.6
				h2c0.8,0,1.2,0.4,1.2,1.2v0.5c0,0.8-0.4,1.2-1.2,1.2h-2v10.6c0,0.8-0.4,1.2-1.2,1.2h-1.3c-0.8,0-1.2-0.4-1.2-1.2V32.7z"/>
			<path class="st1" d="M347.9,24.9c0-0.8,0.4-1.2,1.2-1.2h9.6c0.8,0,1.2,0.4,1.2,1.2v0.8c0,0.8-0.4,1.2-1.2,1.2h-7v5.9h5.7
				c0.8,0,1.2,0.4,1.2,1.2v0.8c0,0.8-0.4,1.2-1.2,1.2h-5.7v7.2c0,0.8-0.4,1.2-1.2,1.2h-1.4c-0.8,0-1.2-0.4-1.2-1.2V24.9z"/>
			<path class="st1" d="M374.1,42.7c-1.6,1.5-3.5,2.2-5.9,2.2c-2.3,0-4.3-0.7-5.9-2.2c-1.6-1.5-2.4-3.4-2.4-5.7
				c0-2.3,0.8-4.2,2.4-5.6c1.6-1.5,3.5-2.2,5.9-2.2c2.3,0,4.3,0.7,5.9,2.2c1.6,1.5,2.4,3.4,2.4,5.6
				C376.5,39.3,375.7,41.2,374.1,42.7 M365,40.4c0.9,0.9,1.9,1.3,3.2,1.3c1.3,0,2.3-0.4,3.2-1.3c0.9-0.9,1.3-2,1.3-3.4
				c0-1.4-0.4-2.5-1.3-3.4c-0.9-0.9-1.9-1.3-3.2-1.3c-1.2,0-2.3,0.4-3.2,1.3c-0.9,0.9-1.3,2-1.3,3.4C363.7,38.4,364.1,39.5,365,40.4
				"/>
			<path class="st1" d="M391.2,42.7c-1.6,1.5-3.5,2.2-5.9,2.2c-2.3,0-4.3-0.7-5.9-2.2c-1.6-1.5-2.4-3.4-2.4-5.7
				c0-2.3,0.8-4.2,2.4-5.6c1.6-1.5,3.5-2.2,5.9-2.2c2.3,0,4.3,0.7,5.9,2.2c1.6,1.5,2.4,3.4,2.4,5.6
				C393.6,39.3,392.8,41.2,391.2,42.7 M382.2,40.4c0.9,0.9,1.9,1.3,3.2,1.3c1.3,0,2.3-0.4,3.2-1.3c0.9-0.9,1.3-2,1.3-3.4
				c0-1.4-0.4-2.5-1.3-3.4c-0.9-0.9-1.9-1.3-3.2-1.3c-1.2,0-2.3,0.4-3.2,1.3c-0.9,0.9-1.3,2-1.3,3.4
				C380.9,38.4,381.3,39.5,382.2,40.4"/>
			<path class="st1" d="M396.2,31.4c1.3-1.4,2.9-2.2,4.9-2.2c2.6,0,4,1.3,4.2,1.9l0.1,0.2h0.1c0-0.3-0.1-0.5-0.1-0.9v-5.6
				c0-0.8,0.4-1.2,1.2-1.2h1.3c0.8,0,1.2,0.4,1.2,1.2v18.5c0,0.8-0.4,1.2-1.2,1.2h-1.1c-0.8,0-1.2-0.4-1.2-1.1v-0.6l0.1-0.5h-0.1
				c-0.1,0.1-0.1,0.3-0.7,0.9c-0.6,0.8-2,1.7-4,1.7c-2,0-3.7-0.7-4.9-2.2c-1.2-1.4-1.8-3.4-1.8-5.7
				C394.3,34.7,394.9,32.8,396.2,31.4 M401.8,41.8c2.1,0,3.8-1.6,3.8-4.7c0-1.3-0.3-2.3-1-3.2c-0.6-0.9-1.6-1.4-2.8-1.4
				c-2.1,0-3.8,1.8-3.8,4.7C398.1,39.9,399.6,41.8,401.8,41.8"/>
			<path class="st1" d="M417.3,41.9c0-0.3,0.1-0.5,0.3-0.8l0.6-0.9c0.2-0.3,0.5-0.5,0.9-0.5c0.3,0,0.5,0.1,0.8,0.2
				c1.5,1,2.9,1.5,4.2,1.5c1.9,0,3.1-1,3.1-2.4c0-4-9.8-3.2-9.8-9.7c0-1.8,0.7-3.3,2-4.4c1.3-1.1,3-1.7,5-1.7c2.2,0,4.3,0.8,5.4,1.6
				c0.4,0.3,0.6,0.6,0.6,1c0,0.2-0.1,0.4-0.2,0.7l-0.5,1c-0.2,0.4-0.5,0.6-0.9,0.6c-0.2,0-0.5-0.1-0.8-0.2c-1.3-0.8-2.5-1.2-3.6-1.2
				c-1,0-1.7,0.2-2.3,0.6c-0.6,0.4-0.9,1-0.9,1.7c0,0.7,0.3,1.3,1,1.8c1.3,1,3.4,1.7,5.3,2.6c1.9,0.9,3.4,2.7,3.4,5.1
				c0,1.8-0.6,3.2-1.9,4.4c-1.2,1.2-2.9,1.8-5,1.8c-2.6,0-5-1.1-6.4-2.1C417.5,42.5,417.3,42.2,417.3,41.9"/>
			<path class="st1" d="M435,36.2c1.9-0.7,3.7-0.9,5.6-0.9h0.6v-0.4c0-1.8-0.9-2.7-2.8-2.7c-1,0-2.1,0.3-3.1,0.9
				c-0.3,0.1-0.5,0.2-0.7,0.2c-0.4,0-0.7-0.2-0.9-0.7l-0.3-0.6c-0.1-0.3-0.2-0.5-0.2-0.7c0-0.4,0.2-0.7,0.7-0.9
				c1.6-0.8,3.2-1.2,4.9-1.2c3.9,0,6.2,2.2,6.2,6v8.2c0,0.8-0.4,1.2-1.2,1.2h-1c-0.8,0-1.2-0.4-1.2-1.2v-0.6l0.1-0.6h-0.1
				c-0.1,0.1-0.1,0.3-0.7,1c-0.7,0.8-2,1.8-4,1.8c-1.4,0-2.6-0.4-3.5-1.2c-1-0.9-1.4-1.9-1.4-3.3C431.8,38.3,433.1,36.9,435,36.2
				 M437.8,42.1c1,0,1.8-0.4,2.5-1.2c0.6-0.8,1-1.7,1-2.7v-0.6h-0.6c-3.4,0-5.1,0.9-5.1,2.5C435.6,41.1,436.4,42.1,437.8,42.1"/>
			<path class="st1" d="M448,32.7h-0.7c-0.8,0-1.2-0.4-1.2-1.2V31c0-0.8,0.4-1.2,1.2-1.2h0.7V29c0-1.8,0.7-3.3,1.6-4
				c1.5-1.2,3.2-1.5,4.2-1.5h0.4c0.8,0,1.2,0.4,1.2,1.2v0.8c0,0.7-0.4,1.1-1.3,1.2c-0.6,0-0.9,0.1-1.5,0.4c-0.6,0.3-0.9,1-0.9,2v0.6
				h2c0.8,0,1.2,0.4,1.2,1.2v0.5c0,0.8-0.4,1.2-1.2,1.2h-2v10.6c0,0.8-0.4,1.2-1.2,1.2h-1.3c-0.8,0-1.2-0.4-1.2-1.2V32.7z"/>
			<path class="st1" d="M456.9,31.4c1.4-1.5,3.2-2.2,5.5-2.2c2.1,0,3.7,0.7,4.9,2c1.2,1.3,1.8,3,1.8,5.2c0,0.7-0.6,1.3-1.3,1.3h-9.2
				c0.2,2.6,2.1,4.1,4.5,4.1c1.1,0,2.2-0.3,3.2-1c0.3-0.1,0.5-0.2,0.7-0.2c0.4,0,0.7,0.2,0.9,0.6l0.4,0.6c0.1,0.3,0.2,0.5,0.2,0.7
				c0,0.4-0.2,0.7-0.6,0.9c-1.6,1-3.3,1.5-5.1,1.5c-2.4,0-4.4-0.8-5.9-2.3c-1.5-1.5-2.2-3.4-2.2-5.6
				C454.7,34.7,455.5,32.8,456.9,31.4 M465.3,35.3c0-2-1.3-3.3-3-3.3c-1.9,0-3.3,1.3-3.6,3.3H465.3z"/>
			<path class="st1" d="M471.3,32.7h-0.8c-0.8,0-1.2-0.4-1.2-1.2V31c0-0.8,0.4-1.2,1.2-1.2h0.9v-3.1c0-0.8,0.4-1.2,1.2-1.2h1.2
				c0.8,0,1.2,0.4,1.2,1.2v3.1h2.2c0.8,0,1.2,0.4,1.2,1.2v0.5c0,0.8-0.4,1.2-1.2,1.2h-2.2v5.8c0,1.7,0.8,2.6,2.4,2.8
				c0.9,0.1,1.2,0.4,1.2,1.2v0.9c0,0.8-0.5,1.2-1.5,1.2c-1.6,0-2.9-0.4-4.1-1.4c-1.2-0.9-1.8-2.3-1.8-4.2V32.7z"/>
			<path class="st1" d="M478.9,48.1c0.2-0.5,0.6-0.7,1-0.7c0.1,0,0.2,0,0.3,0c0.4,0.2,0.7,0.3,1.1,0.3c1,0,1.9-0.9,2.4-2l0.6-1.3
				L478.5,31c-0.1-0.2-0.1-0.4-0.1-0.6c0-0.1,0-0.3,0.1-0.4c0.2-0.3,0.5-0.4,1-0.4h1.6c0.7,0,1.2,0.3,1.4,1l2.8,7.7l0.6,2h0.1
				c0.2-0.8,0.4-1.4,0.5-2l2.7-7.7c0.2-0.7,0.6-1,1.4-1h1.5c0.4,0,0.8,0.1,1,0.4c0.1,0.1,0.1,0.3,0.1,0.5c0,0.1,0,0.3-0.1,0.5
				l-6.2,15.9c-1,2.6-3.1,4-5.4,4c-0.6,0-1.3-0.1-2.1-0.4c-0.4-0.1-0.6-0.4-0.7-0.6c0-0.1-0.1-0.2-0.1-0.3c0-0.2,0.1-0.4,0.2-0.6
				L478.9,48.1z"/>
			<path class="st1" d="M53.7,54.8c-0.3-0.9-0.1-1.9,0.6-2.5l17.7-14.8c0.3-0.2,0.4-0.6,0.3-0.9c-0.1-0.3-0.3-0.6-0.7-0.7l-2.2-0.7
				c-1.1-0.4-1.8-1.5-1.5-2.7l2.1-7.7c0.1-0.3,0-0.7-0.2-0.9c-0.2-0.2-0.6-0.3-0.9-0.3l-7.7,1.8c-1.2,0.3-2.3-0.4-2.6-1.6l-0.6-2.2
				c-0.1-0.3-0.4-0.6-0.7-0.7c-0.3-0.1-0.7,0-0.9,0.3l-7.5,8.4c-0.4,0.4-1,0.6-1.5,0.3c-0.5-0.3-0.8-0.8-0.7-1.4l3.3-18.2
				c0.1-0.4-0.1-0.7-0.4-0.9c-0.3-0.2-0.7-0.3-1-0.1L45,10.9c-1.1,0.5-2.3,0.1-2.9-1l-5.1-9.4C36.9,0.2,36.6,0,36.2,0
				c-0.4,0-0.7,0.2-0.8,0.5l-5.1,9.4c-0.6,1-1.8,1.4-2.9,1l-3.5-1.6c-0.3-0.1-0.7-0.1-1,0.1c-0.3,0.2-0.4,0.6-0.4,0.9l3.3,18.2
				c0.1,0.6-0.2,1.2-0.7,1.4c-0.5,0.3-1.2,0.1-1.5-0.3l-7.5-8.4c-0.2-0.3-0.6-0.4-0.9-0.3c-0.3,0.1-0.6,0.3-0.7,0.7l-0.6,2.2
				c-0.3,1.1-1.5,1.8-2.6,1.6l-7.7-1.8c-0.3-0.1-0.7,0-0.9,0.3c-0.2,0.2-0.3,0.6-0.2,0.9l2.1,7.7c0.3,1.1-0.3,2.3-1.5,2.7l-2.2,0.7
				C0.3,36,0.1,36.3,0,36.6c-0.1,0.3,0.1,0.7,0.3,0.9l17.7,14.8c0.7,0.6,1,1.6,0.6,2.5l-1.4,3.6c-0.1,0.3-0.1,0.6,0.1,0.9
				c0.2,0.3,0.5,0.4,0.8,0.4h12c0.4,0,0.8-0.3,0.9-0.7c0.5-1.8,0.9-5.1,0.9-7.7c0-0.3-0.1-0.5-0.3-0.7s-0.5-0.3-0.8-0.2
				c-7.4,1-13.2-6.7-14.1-14.1c0-0.3,0.1-0.6,0.3-0.9c0.2-0.2,0.5-0.4,0.8-0.4c6.6-0.1,14.1,3.6,15.6,9.7h0c0,0,0,0,0,0
				c1.3,5,1.1,16.8,0.8,25.1c0,0.3,0.1,0.5,0.3,0.7c0.2,0.2,0.4,0.3,0.7,0.3h2c0.3,0,0.5-0.1,0.7-0.3c0.2-0.2,0.3-0.4,0.3-0.7
				c-0.3-8.3-0.5-20.2,0.8-25.1l0,0h0c1.6-6.1,9-9.8,15.6-9.7c0.3,0,0.6,0.2,0.8,0.4c0.2,0.2,0.3,0.5,0.3,0.9
				c-0.9,7.3-6.7,15-14.1,14.1c-0.3,0-0.6,0-0.8,0.2c-0.2,0.2-0.3,0.4-0.3,0.7c0,2.5,0.4,5.6,0.9,7.7c0.1,0.4,0.5,0.7,0.9,0.7h11.9
				c0.3,0,0.6-0.2,0.8-0.4c0.2-0.3,0.2-0.6,0.1-0.9L53.7,54.8z M37.4,38.1c-0.3,0.2-0.8,0.4-1.2,0.4c-0.4,0-0.8-0.1-1.2-0.4
				c-7.4-5-5.3-15.8,0.3-22.1c0.2-0.3,0.6-0.4,0.9-0.4c0.3,0,0.7,0.1,0.9,0.4C42.7,22.3,44.8,33.1,37.4,38.1"/>
		</g>
	</g>
</g>
</svg>
