<svg xmlns="http://www.w3.org/2000/svg" xmlns:xlink="http://www.w3.org/1999/xlink" viewBox="0 0 494 80"><defs><style>.cls-1{fill:none;}.cls-2{fill:#fff;}.cls-3{fill:#f79f1a;}.cls-4{fill:#059bbf;}.cls-5{fill:#202121;opacity:0.15;isolation:isolate;}.cls-6{fill:#275798;}.cls-7{clip-path:url(#clip-path);}.cls-8{fill:#dcad3b;}.cls-9{fill:#bf352d;}.cls-10{fill:#306fc5;}.cls-11{fill:#34495e;}.cls-12{fill:#f26e21;}.cls-13{fill:#e7e8e3;}</style><clipPath id="clip-path"><rect class="cls-1" x="139.28" y="10.6" width="94.08" height="58.8"/></clipPath></defs><title>Asset 1</title><g id="Layer_2" data-name="Layer 2"><g id="Layer_2-2" data-name="Layer 2"><path class="cls-2" d="M116.05,73.14A6.86,6.86,0,0,1,109.19,80H6.86A6.86,6.86,0,0,1,0,73.14V6.86A6.86,6.86,0,0,1,6.86,0H109.19a6.86,6.86,0,0,1,6.86,6.86V73.14Z"/><path class="cls-3" d="M25.76,40.46,23,27.39c-.46-1.8-1.82-2.33-3.51-2.4H7l-.11.59C16.64,27.94,23.08,33.63,25.76,40.46Z"/><polygon class="cls-4" points="54.71 25.25 46.63 25.25 41.59 54.82 49.65 54.82 54.71 25.25"/><path class="cls-4" d="M30.68,54.79,43.37,25.27H34.83l-7.9,20.17-.84-3c-1.55-3.66-6-8.93-11.17-12.25L22.14,54.8Z"/><path class="cls-4" d="M77.73,45.15c0-3.35-2.13-5.91-6.77-8-2.83-1.37-4.55-2.28-4.53-3.66s1.46-2.54,4.62-2.54a14.85,14.85,0,0,1,6,1.13l.73.33L78.9,26a20.81,20.81,0,0,0-7.22-1.24c-8,0-13.58,4-13.63,9.76,0,4.25,4,6.62,7.06,8s4.2,2.36,4.18,3.66c0,2-2.51,2.88-4.82,2.88a16.87,16.87,0,0,1-7.6-1.55l-1-.47-1.13,6.63a25.48,25.48,0,0,0,9,1.57C72.16,55.26,77.67,51.3,77.73,45.15Z"/><path class="cls-4" d="M87.32,50.39H97.65c.24,1,1,4.43,1,4.43h7.48L99.58,25.28H93.35c-1.93,0-3.37.53-4.22,2.45l-12,27.1h8.48S87,51.19,87.32,50.39Zm5.53-14.32c0,.08.66-1.71,1.07-2.83l.55,2.55,1.86,8.55H89.64C90.31,42.64,92.85,36.07,92.85,36.07Z"/><path class="cls-4" d="M109.19,0H6.86A6.86,6.86,0,0,0,0,6.86V14H116.05V6.86A6.86,6.86,0,0,0,109.19,0Z"/><path class="cls-3" d="M109.19,80H6.86A6.86,6.86,0,0,1,0,73.14V66H116.05v7.11A6.86,6.86,0,0,1,109.19,80Z"/><path class="cls-5" d="M4.88,73.14V6.86A6.86,6.86,0,0,1,11.74,0H6.86A6.86,6.86,0,0,0,0,6.86V73.14A6.86,6.86,0,0,0,6.86,80h4.88A6.86,6.86,0,0,1,4.88,73.14Z"/><path class="cls-6" d="M242.05,73.14A6.86,6.86,0,0,1,235.2,80H132.91a6.86,6.86,0,0,1-6.86-6.86V6.86A6.86,6.86,0,0,1,132.91,0H235.2a6.86,6.86,0,0,1,6.85,6.86V73.14Z"/><path class="cls-5" d="M130.93,73.14V6.86A6.86,6.86,0,0,1,137.78,0h-4.87a6.86,6.86,0,0,0-6.86,6.86V73.14A6.86,6.86,0,0,0,132.91,80h4.87A6.86,6.86,0,0,1,130.93,73.14Z"/><g class="cls-7"><path class="cls-8" d="M227.19,40.37a24.48,24.48,0,0,1-48.95,0h0a24.48,24.48,0,1,1,48.95,0Z"/></g><g class="cls-7"><path class="cls-9" d="M169.71,15.6a24.77,24.77,0,0,0,.15,49.54h0a24.05,24.05,0,0,0,16.46-6.47h0a27.48,27.48,0,0,0,2.5-2.65h-5c-.66-.81-1.24-1.69-1.83-2.57h8.67a23.33,23.33,0,0,0,1.4-2.65H180.59c-.37-.88-.73-1.69-1-2.57h13.53a25.09,25.09,0,0,0,.66-13.15h-15a24.28,24.28,0,0,1,.74-2.58H193c-.29-.88-.66-1.76-1-2.64H180.52a28.77,28.77,0,0,1,1.39-2.58h8.68a18.14,18.14,0,0,0-1.91-2.64h-4.86a19.81,19.81,0,0,1,2.43-2.5,24.38,24.38,0,0,0-16.46-6.47h-.08Z"/></g><g class="cls-7"><path class="cls-2" d="M178.68,46.62l.29-2.21c-.14,0-.44.07-.66.07-.88,0-1-.51-.95-.88l.73-4.56h1.4l.29-2.49h-1.32l.29-1.55h-2.64c-.08.08-1.55,8.67-1.55,9.7a1.94,1.94,0,0,0,2.06,2.21,4.58,4.58,0,0,0,2.06-.29Z"/></g><g class="cls-7"><path class="cls-2" d="M184.12,38.6c1.47,0,1.17,1.69,1.17,1.84h-2.86c0-.15.22-1.84,1.69-1.84Zm-4.63,3.75c0,3.75,2.42,4.63,4.48,4.63a5.9,5.9,0,0,0,2.79-.44l.45-2.57a9,9,0,0,1-2.8.66c-2.79,0-2.28-2.13-2.28-2.13h5.3c.14-.81.29-1.62.36-2.43a3.5,3.5,0,0,0-3.74-3.82c-2.65,0-4.56,2.87-4.56,6.1Z"/></g><g class="cls-7"><path class="cls-2" d="M200.58,46.62l.44-2.87a5.4,5.4,0,0,1-2.13.66c-1.84,0-2.57-1.4-2.57-2.94,0-3.09,1.62-4.85,3.38-4.85a4.73,4.73,0,0,1,2.43.73l.44-2.79a9.88,9.88,0,0,0-2.94-.66c-3,0-6,2.65-6,7.57,0,3.31,1.55,5.44,4.71,5.44A7.89,7.89,0,0,0,200.58,46.62Z"/></g><g class="cls-7"><path class="cls-2" d="M164.94,42.21c.07.44-.3,2.49-1.84,2.49a1,1,0,0,1-1-.88v-.07c0-.74.37-1.62,2.28-1.62.22,0,.36.08.59.08Zm-.59-5.88a9.41,9.41,0,0,0-3.16.58l-.37,2.28a7.49,7.49,0,0,1,2.87-.44c.95,0,1.69.15,1.69.88a1.87,1.87,0,0,1-.08.66s-.73-.07-1.1-.07c-2.28,0-4.63,1-4.63,3.9a2.52,2.52,0,0,0,2.5,2.86,3.36,3.36,0,0,0,2.64-1.25l-.07,1h2.28l1-7.27c0-3.09-2.65-3.16-3.6-3.16Z"/></g><g class="cls-7"><path class="cls-2" d="M170.37,46.91c.59,0,4,.15,4-3.38,0-3.31-3.08-2.65-3.08-4,0-.66.51-.88,1.39-.88.37,0,1.77.14,1.77.14l.29-2.35a13.28,13.28,0,0,0-2.42-.22c-1.92,0-3.9.81-3.9,3.46,0,3,3.23,2.72,3.23,4,0,.88-.88.88-1.61.88a6,6,0,0,1-2.28-.44l-.37,2.27a6.32,6.32,0,0,0,3,.52Z"/></g><g class="cls-7"><path class="cls-2" d="M220.94,41.1c0,1.4-.66,3.24-2.13,3.24-.95,0-1.4-.81-1.4-2.06,0-2.06.89-3.38,2.06-3.38s1.47.66,1.47,2.2Zm1.25-6.83-.59,3.53a3.45,3.45,0,0,0-2.5-1.4c-2.35,0-4.41,2.94-4.41,6.25,0,2.13,1,4.26,3.24,4.26a3.26,3.26,0,0,0,2.42-1.1l-.14.95h2.57l2-12.49Z"/></g><g class="cls-7"><polygon class="cls-2" points="150.24 46.76 151.85 37.28 152.07 46.76 153.84 46.76 157.22 37.28 155.75 46.76 158.39 46.76 160.45 34.19 156.34 34.19 153.76 41.91 153.62 34.19 149.79 34.19 147.74 46.76 150.24 46.76"/></g><g class="cls-7"><path class="cls-2" d="M190.37,46.76c.73-4.33.88-7.94,2.72-7.27A11.29,11.29,0,0,1,194,36.4h-.51c-1.18,0-2.06,1.62-2.06,1.62l.22-1.47h-2.43l-1.61,10.21Z"/></g><g class="cls-7"><path class="cls-2" d="M207.2,42.21c.07.44-.3,2.49-1.84,2.49a1,1,0,0,1-1-.88v-.07c0-.74.37-1.62,2.28-1.62.22,0,.37.08.59.08Zm-.59-5.88a9.45,9.45,0,0,0-3.16.58l-.37,2.28a7.49,7.49,0,0,1,2.87-.44c1,0,1.69.15,1.69.88a2.12,2.12,0,0,1-.07.66s-.74-.07-1.11-.07c-2.28,0-4.63,1-4.63,3.9a2.52,2.52,0,0,0,2.5,2.86A3.38,3.38,0,0,0,207,45.73l-.08,1h2.28l1-7.2c0-3.16-2.64-3.23-3.6-3.23Z"/></g><g class="cls-7"><path class="cls-2" d="M212.27,46.76c.73-4.33.88-7.94,2.72-7.27a11.64,11.64,0,0,1,.95-3.09h-.51c-1.18,0-2.06,1.62-2.06,1.62l.22-1.47h-2.42l-1.62,10.21Z"/></g><path class="cls-10" d="M368.47,73.14A6.86,6.86,0,0,1,361.62,80H259.33a6.86,6.86,0,0,1-6.86-6.86V6.86A6.86,6.86,0,0,1,259.33,0H361.62a6.86,6.86,0,0,1,6.85,6.86V73.14Z"/><path class="cls-5" d="M257.35,73.14V6.86A6.86,6.86,0,0,1,264.2,0h-4.87a6.86,6.86,0,0,0-6.86,6.86V73.14A6.86,6.86,0,0,0,259.33,80h4.88A6.86,6.86,0,0,1,257.35,73.14Z"/><polygon class="cls-2" points="269.37 32.01 272.84 32.01 271.11 27.6 269.37 32.01"/><polygon class="cls-2" points="287.8 46.82 287.8 48.87 293.63 48.87 293.63 51.08 287.8 51.08 287.8 53.44 294.26 53.44 297.26 50.13 294.42 46.82 287.8 46.82"/><polygon class="cls-2" points="333.33 27.6 331.44 32.01 335.07 32.01 333.33 27.6"/><polygon class="cls-2" points="304.66 54.7 304.66 45.72 300.56 50.13 304.66 54.7"/><path class="cls-2" d="M312.38,48.24a1.59,1.59,0,0,0-1.73-1.42h-3.31v2.84h3.47C311.75,49.66,312.38,49.18,312.38,48.24Z"/><path class="cls-2" d="M323.41,49.34a1.24,1.24,0,0,0,.47-1.1.87.87,0,0,0-.47-1.1,3,3,0,0,0-1.26-.16H319V49.5h3.15A3,3,0,0,0,323.41,49.34Z"/><path class="cls-2" d="M346.09,23.51V25.4l-.94-1.89h-7.4V25.4l-.95-1.89H326.72a9.57,9.57,0,0,0-4.41.94v-.94h-7.09v.94a4.56,4.56,0,0,0-3-.94H286.86l-1.73,3.93-1.74-3.93h-8V25.4l-.79-1.89h-6.93l-3.15,7.4-3.63,8-.06.16H269l.06-.16.94-2.36h2.05L273,39.1h9.13V37.21l.79,1.89h4.57l.79-1.89V39.1h21.89V35h.32c.32,0,.32,0,.32.47v3.46h11.34V38a9.45,9.45,0,0,0,4.25.94h4.73l.94-2.52h2.21l.94,2.52h9.14V36.58l1.42,2.36h7.4V23.51Zm-53.4,13.23h-2.52V28.07l-.16.37h0l-3.67,8.31H284l-3.78-8.67v8.67h-5.35l-1.11-2.36h-5.35l-1.11,2.36h-2.77l4.66-11h3.94l4.41,10.56V25.71h4.18l.07.16h0l2,4.33,1.42,3.24,0-.17,3.15-7.56h4.26v11Zm10.87-8.67h-6.15v2.05h6v2.21h-6v2.2h6.15V36.9h-8.82V25.71h8.82v2.36Zm11.24,4.07h0a1.19,1.19,0,0,1,.15.18,3,3,0,0,1,.56,1.85v.07h0v2.48h-2.36V35.48a3.78,3.78,0,0,0-.47-2.21,1.37,1.37,0,0,0-.47-.31,3,3,0,0,0-1.42-.16H308v3.94h-2.68v-11h6a6.07,6.07,0,0,1,3.15.47,2.66,2.66,0,0,1,1.25,2.45,3.12,3.12,0,0,1-1.88,2.91A2.19,2.19,0,0,1,314.8,32.14Zm5.3,4.6h-2.68v-11h2.68Zm30.72,0h-3.47l-5-8.35v8.36H337L336,34.38H330.5l-.95,2.52h-3a5.52,5.52,0,0,1-3.78-1.26,5.54,5.54,0,0,1-1.42-4.26A6.48,6.48,0,0,1,322.78,27c.79-.94,2.2-1.26,3.94-1.26h2.52v2.36h-2.52a2.87,2.87,0,0,0-2.05.64,3.69,3.69,0,0,0-.79,2.52,3.41,3.41,0,0,0,.79,2.67,2.47,2.47,0,0,0,1.89.63h1.1l3.62-8.66h3.94l4.42,10.55V25.87h3.93l4.57,7.72V25.87h2.68V36.74Z"/><path class="cls-2" d="M312.55,30.3a.67.67,0,0,0,.12-.16,1.72,1.72,0,0,0,.22-1.19.77.77,0,0,0,0-.15,0,0,0,0,1,0,0h0a.89.89,0,0,0-.48-.54,3,3,0,0,0-1.26-.16H308V30.6h3.15a3,3,0,0,0,1.26-.16l.13-.1h0Z"/><path class="cls-2" d="M360.12,52.49a6.06,6.06,0,0,0-.79-3V42.41h0v-.47h-7.59a4.48,4.48,0,0,0-2.17.94v-.94h-7.25a5,5,0,0,0-3.15.94v-.94H326.24v.94a6.11,6.11,0,0,0-3.46-.94h-8.51v.94c-.79-.78-2.68-.94-3.62-.94H301.2L299,44.3l-2.05-2.36H282.76V57.85h13.87l2.27-2.28,2,2.28h8.82V54.23h.79a9.43,9.43,0,0,0,3.62-.48V58h7.09v-4.1h.32c.47,0,.47,0,.47.47V58h21.43a6.19,6.19,0,0,0,3.62-.95V58h6.77a7.06,7.06,0,0,0,3.78-.79A5.31,5.31,0,0,0,360.1,53s0-.11,0-.16h0C360.11,52.7,360.12,52.6,360.12,52.49Zm-49.63-.94h-3.15v4.09h-5.18l-3-3.46h0L299,52l-3.47,3.62H285.44v-11h10.24l2.8,3.06.59.64.08-.08,3.31-3.62h8.34c1.63,0,3.44.4,4.13,2.05a4.55,4.55,0,0,1,.13,1.1C315.06,50.92,312.85,51.55,310.49,51.55Zm15.75-.16a3.52,3.52,0,0,1,.48,2v2.2H324V54.23a3.54,3.54,0,0,0-.47-2.21c-.32-.47-.95-.47-1.89-.47h-2.84v4.09h-2.68V44.46h6a6.38,6.38,0,0,1,3.15.47,2.78,2.78,0,0,1,1.42,2.52,3.17,3.17,0,0,1-1.89,3A2.66,2.66,0,0,1,326.24,51.39Zm10.87-4.57H331v2h6v2.21h-6v2.2h6.14v2.36h-8.82V44.46h8.82Zm6.62,8.82h-5V53.28h5a1.34,1.34,0,0,0,1.1-.31,1.22,1.22,0,0,0,.32-.79,1.19,1.19,0,0,0-.32-.79,1.3,1.3,0,0,0-.94-.31c-2.52-.16-5.52,0-5.52-3.47,0-1.58.95-3.31,3.79-3.31h5.19V47h-4.88a2.29,2.29,0,0,0-1.1.16c-.32.15-.32.47-.32.79s.32.63.63.78a2,2,0,0,0,.95.16h1.42a4,4,0,0,1,3,1,3.26,3.26,0,0,1,.79,2.36C347.83,54.54,346.41,55.64,343.73,55.64Zm13.55-1.1a4.59,4.59,0,0,1-3.31,1.1h-5V53.28h5a1.34,1.34,0,0,0,1.1-.31,1.22,1.22,0,0,0,.32-.79,1.19,1.19,0,0,0-.32-.79,1.3,1.3,0,0,0-.94-.31c-2.52-.16-5.52,0-5.52-3.47a3.22,3.22,0,0,1,3-3.25,5.27,5.27,0,0,1,.82-.06h5.2V47h-4.89a2.29,2.29,0,0,0-1.1.16,1.17,1.17,0,0,0-.32.79c0,.47.16.63.63.78a2,2,0,0,0,.95.16h1.42a4.84,4.84,0,0,1,1.68.25,3.42,3.42,0,0,1,2.21,2.49,4.93,4.93,0,0,1,0,.57A3.2,3.2,0,0,1,357.28,54.54Z"/><path class="cls-11" d="M494,73.14A6.86,6.86,0,0,1,487.14,80H384.86A6.86,6.86,0,0,1,378,73.14V6.86A6.86,6.86,0,0,1,384.86,0H487.14A6.86,6.86,0,0,1,494,6.86V73.14Z"/><path class="cls-5" d="M382.87,73.14V6.86A6.86,6.86,0,0,1,389.73,0h-4.87A6.86,6.86,0,0,0,378,6.86V73.14A6.86,6.86,0,0,0,384.86,80h4.87A6.86,6.86,0,0,1,382.87,73.14Z"/><path class="cls-12" d="M448.1,40a8.4,8.4,0,0,0-8.49-8.47h0A8.52,8.52,0,1,0,448.1,40Z"/><path class="cls-13" d="M429.47,43.6a5.17,5.17,0,0,1-3.71,1.8,5.29,5.29,0,0,1-5.35-5.56,6.18,6.18,0,0,1,1.6-4.13h0a5,5,0,0,1,3.48-1.44,5.17,5.17,0,0,1,3.93,1.8V32.3a8.29,8.29,0,0,0-3.93-1,9.49,9.49,0,0,0-5.55,2.31h0a8.4,8.4,0,0,0-1.21,1.31,8.31,8.31,0,0,0,6.76,13.42h.16a9.19,9.19,0,0,0,3.93-1l-.11-3.77c-.05.06.06.11,0,.16Z"/><polygon class="cls-13" points="458.85 33.66 458.85 33.66 455.14 42.79 450.88 31.97 447.44 31.97 454.16 48.52 455.96 48.52 463.01 31.97 459.57 31.97 458.85 33.66"/><polygon class="cls-13" points="464.32 39.18 464.32 48.03 473.16 48.03 473.33 48.03 473.33 45.41 470.54 45.41 467.59 45.41 467.59 42.46 467.59 40.98 473.16 40.98 473.16 38.2 467.59 38.2 467.59 34.76 473.33 34.76 473.33 31.97 464.32 31.97 464.32 39.18"/><path class="cls-13" d="M390.26,32h-4.58V48h4.58a9,9,0,0,0,5.74-1.8A8.12,8.12,0,0,0,399,40C399,35.25,395.51,32,390.26,32ZM394,44.1a6.28,6.28,0,0,1-4.26,1.31h-1V34.76h.82c2,0,3.27.32,4.26,1.31a5.25,5.25,0,0,1,1.8,3.93A4.92,4.92,0,0,1,394,44.1Z"/><rect class="cls-13" x="400.42" y="31.97" width="3.11" height="16.06"/><path class="cls-13" d="M411.4,38.2c-2-.66-2.46-1.15-2.46-2a2.07,2.07,0,0,1,2.29-1.8,3.18,3.18,0,0,1,2.63,1.31l1.63-2.13a7.1,7.1,0,0,0-4.75-1.8,4.81,4.81,0,0,0-5.08,4.59c0,2.29,1,3.27,3.94,4.42a6.34,6.34,0,0,1,2.13,1,1.82,1.82,0,0,1,1,1.64,2.28,2.28,0,0,1-2.46,2.29,3.81,3.81,0,0,1-3.44-2.13l-2,2a6.44,6.44,0,0,0,5.58,3.11c3.27,0,5.56-2.13,5.56-5.24C416,40.66,415,39.51,411.4,38.2Z"/><path class="cls-13" d="M482.18,41.31a4.32,4.32,0,0,0,3.76-4.59c0-2.94-2.13-4.75-5.73-4.75h-4.75V48h3.11V41.64h.49L483.48,48h3.77Zm-2.63-2h-1V34.43h1c2,0,3.12.82,3.12,2.46S481.52,39.34,479.55,39.34Z"/></g></g></svg>