<?xml version="1.0" encoding="utf-8"?>
<!-- Generator: Adobe Illustrator 26.1.0, SVG Export Plug-In . SVG Version: 6.00 Build 0)  -->
<svg version="1.1" id="Layer_1" xmlns="http://www.w3.org/2000/svg" xmlns:xlink="http://www.w3.org/1999/xlink" x="0px" y="0px"
	 viewBox="0 0 2500 1911" style="enable-background:new 0 0 2500 1911;" xml:space="preserve">
<style type="text/css">
	.st0{fill:#9295C0;}
</style>
<path class="st0" d="M2246.8,0.6h-719.5c-53.2,0-96.4,43.2-96.4,96.4c0,16.6,3.6,32.1,11.5,45.8l361.2,625.5
	c17.2,29.9,49,48.3,83.5,48.4c35.7,0,66.8-19.5,83.5-48.4l361.1-625.5c7.9-13.6,11.5-29.2,11.5-45.8
	C2343.2,43.8,2300.1,0.6,2246.8,0.6L2246.8,0.6z"/>
<path class="st0" d="M2394.6,52.8c0-29.1,23.6-52.7,52.7-52.7c0,0,0,0,0.1,0c29.1,0,52.6,23.6,52.6,52.7c0,0,0,0,0,0
	c0,29.1-23.5,52.7-52.6,52.7c0,0,0,0,0,0C2418.3,105.6,2394.7,82,2394.6,52.8C2394.6,52.9,2394.6,52.8,2394.6,52.8L2394.6,52.8z
	 M2405.5,52.8c0.1,23.1,18.8,41.8,41.9,41.8c23-0.1,41.7-18.8,41.8-41.8c0-23.1-18.7-41.7-41.8-41.8
	C2424.3,11.1,2405.6,29.8,2405.5,52.8z"/>
<path class="st0" d="M2467.2,79.3h-5c-2,0-3-0.2-4.4-1.9l-14.3-17.9h-3.8v16.9c0,2.2-0.9,2.9-2.7,2.9h-3.5c-2.4,0-3.2-0.5-3.2-2.9
	V29.1c0-2.6,1.5-2.7,3.2-2.7h15.2c8.7,0,10.5,0.5,13.6,3.6c2.7,2.8,4,7.8,4,14.8c0,8.9-3.6,13.9-11.7,14.5l13.6,16.2
	C2469.7,77.4,2469.5,79.3,2467.2,79.3L2467.2,79.3z M2454.4,34.9c-2.1-1-12-0.6-14.7-0.6v17.4h10.1c3.6,0,5.3-0.6,6.2-1.8
	c0.6-0.9,1.1-1.9,1.1-5.8C2457.1,38.2,2456.2,35.8,2454.4,34.9z"/>
<path class="st0" d="M1126.5,888.7c0,0.1,0.1,0.1,0.1,0.2v-0.1L1126.5,888.7z M1760.5,900.7l-4-6.9l-446.6-773.6l-7.8-13.5
	C1264.2,41.2,1191.6,0.6,1110.9,0.6H742.6c-41.1,0-74.4,33.3-74.4,74.4c0,12.8,3,25,8.9,35.3l449.5,778.6
	c21.3,36.1,32.4,77.3,32.4,119.2c0,42.2-11.1,81.8-30.5,116.1l-390.9,677.1c-5.9,10.2-8.9,22.4-8.9,35.2c0,41.1,33.3,74.4,74.4,74.4
	c0,0,0,0,0,0H1181c80.6,0,153.3-40.5,191.2-106.2l7.8-13.5l375.9-651l7-12.1c19.2-33.2,28-71.2,28-111.6
	C1790.8,974.4,1780.1,934.6,1760.5,900.7L1760.5,900.7z"/>
<g>
	<path class="st0" d="M722,1215.2c-6.9,0-13.8,2.8-20,4c-21.1,4.6-44.6,9.2-69.8,9.2c-13.7,0-26.3-2.9-34.3-6.3
		c-17.7-8-19.4-30.3-18.9-59h139.6c20,0,24-3.4,24-34.9c0-36.7-3.4-72.7-21.1-98.4c-16.6-23.5-45.2-35.5-92.7-35.5
		c-50.3,0-81.8,13.2-99,37.8c-17.8,25.1-22.9,58.9-22.9,109.2c0,56.7,8,93.9,32.1,116.2c18.9,17.7,49.8,26.8,92.7,26.8
		c24.6,0,58.3-2.3,86.3-7.4c17.8-2.8,20.6-12,20.6-25.1c0-6.3,0-13.2-1.1-18.9C735.8,1225.5,730.6,1215.2,722,1215.2L722,1215.2z
		 M579,1107.6c0-41.7,8.6-56,49.8-56c38.9,0,44,14.8,44,50.3v10.9H579V1107.6L579,1107.6z M374.6,994.4c-30.9,0-58.4,10.3-77.3,19.4
		V908c0-10.9-4.5-24.6-22.3-24.6h-25.7c-16.6,0-25.2,5.2-25.2,24.6v346.1c0,13.7,4.6,22.8,20.6,22.8h30.3c17.7,0,22.3-9.7,22.3-25.7
		v-131.1c0-41,8.5-55,48.9-55c38.2,0,43.3,14.6,43.3,49.4v10.7h-0.2c0.1,5.5,0.1,11.8,0.1,18.8v107.2c0,17.2,5.7,25.7,20.6,25.7
		h30.4c17.7,0,22.3-9.7,22.3-25.7v-175.6C462.7,1038.4,445,994.4,374.6,994.4L374.6,994.4z M164.7,1063H103v115
		c0,26.9,1.2,37.2,3.4,41.7c1.7,2.9,4.6,4.6,8.6,4.6c16.1,0,33.7-8.6,46.9-8.6c12.6,0,15.5,9.7,15.5,16v20.6
		c0,21.2-5.8,26.9-24,28.6c-18.3,1.7-30.9,2.9-49.8,2.9c-60.7,0-73.8-22.3-73.8-90.4V1063h-16c-10.8,0-13.7-7.4-13.7-16.6v-24.6
		c0-14.3,5.7-18.9,15.4-18.9h14.3v-46.4c0-19.4,8-25.2,24.6-25.2h25.8c17.7,0,22.9,14.3,22.9,25.2v46.4H159
		c12.6,0,19.4,1.7,19.4,18.3v20C178.5,1060.7,175,1063,164.7,1063L164.7,1063z"/>
</g>
<g>
	<path class="st0" d="M1511.5,1730.5l43.9,74.2l41.4,23.9c5.7,3.3,6.9,7.6,3.7,13.2l-4.7,8.3c-3.7,6.4-7.1,8.2-13.9,4.3l-39.9-23
		l-91-1.1c-2.5,0.1-5-0.3-6.7-1.3c-4.8-2.7-3.6-8-1.8-11.1l6-10.4c3.3-5.8,6.6-6.5,11.2-6.4l62.3,1.3l-32.1-54.1
		c-2.3-3.9-3.2-7,0.2-12.8l4.9-8.5c2.9-5.1,6.9-5.8,10.6-3.7C1507.9,1724.8,1510.2,1728.3,1511.5,1730.5L1511.5,1730.5z
		 M1705.9,1659.5l-4.7,8.1c-3.3,5.8-7.4,6.2-13.1,3.5l-81.4-40.3c3.4,4,8.2,9.4,12,13.6c14.6,17.1,30.4,34.8,39.7,46.6
		c3.7,4.7,5.1,8.6,1.4,14.9l-2.9,5.1c-3.7,6.4-7.6,7-13.6,6.1c-14.9-2.2-38.3-6.7-60.4-10.7c-5.6-0.9-12.5-2.8-17.6-3.7l75.6,50.4
		c5.2,3.5,6.9,7.3,3.6,13l-4.7,8.1c-3.4,6-7.5,9-14.3,4.3l-106.6-74.7c-6.6-4.6-4.9-9.3-2.2-13.9l6.1-10.6c3.1-5.4,6.4-7.1,11.7-6.4
		c21.9,3.1,60.2,10.6,89.6,15.7c-19.2-22.9-44.8-52.3-58.5-69.7c-3.2-4.2-3.4-7.9-0.3-13.2l6.1-10.6c2.7-4.6,5.9-8.4,13.2-5
		l117.9,55C1709.9,1648.4,1709.3,1653.5,1705.9,1659.5L1705.9,1659.5z M1766.3,1558.3c-4.2,8.7-6.6,13.6-11.7,22.5
		c-4.1,7.2-9.7,15.5-15.5,21.4c-22.1,23-48.6,15.7-82-3.6c-56.7-32.7-56.9-56.8-35.2-94.4c5.2-8.9,8.3-13.5,13.7-21.4
		c5.1-7.6,8.2-8.6,12.6-6.1l6.3,3.7c6.9,4,8.5,6.5,5,12.6c-4.1,7.2-7.1,10.1-13,20.3c-3.6,6.2-8.8,16.5-9.4,22.6
		c-1.5,14.3,13.5,23.4,35.7,36.2c21.8,12.6,39.4,21.3,52.2,6.3c2.6-3.1,6.1-8.3,9.6-14.3c5.9-10.2,7-14.3,11-21.4
		c3.5-6.2,6.5-6,13.5-2l6.4,3.7C1769.5,1546.8,1770.3,1550.1,1766.3,1558.3z M1837,1432.3l-6.1,10.6c-3.5,6-7.3,6.1-12,5.2l-29-5.4
		c-4.6,8.4-8.1,14.6-13.1,23c-4.2,7.4-8.5,14.8-13,22l18.3,20.9c4.2,4.7,6.2,8,2.4,14.5l-5.1,8.9c-3.8,6.6-6.1,6.5-8.9,4.8
		c-1.2-0.6-3.2-2.6-5.1-5l-87.5-103.2c-4.7-5.6-6.2-9.3-2.1-16.4l4.5-7.9c4.1-7.2,8.1-7.7,15.1-6.5l136.4,23.3
		c1.2,0.2,2.4,0.4,3.4,0.9C1840,1424.7,1838.8,1429.2,1837,1432.3L1837,1432.3z M1711.4,1427.6l36.6,41.7c2.6-4.5,5.4-9.8,8.6-15.3
		c3.4-6,6-10,9.2-15.5L1711.4,1427.6z"/>
</g>
</svg>
