<?xml version="1.0" encoding="UTF-8"?><svg xmlns="http://www.w3.org/2000/svg" xmlns:xlink="http://www.w3.org/1999/xlink" viewBox="0 0 201.5 67.08"><defs><style>.g{fill:none;}.h{fill:#000b8c;}.i{fill:#fff;}.j{clip-path:url(#f);}.k{clip-path:url(#e);}</style><clipPath id="e"><rect class="g" width="201.5" height="67.08"/></clipPath><clipPath id="f"><rect class="g" y="0" width="201.5" height="67.08"/></clipPath></defs><g id="a"/><g id="b"><g id="c"><g id="d"><g class="k"><g class="j"><path class="h" d="M74.93,41.3c0-.69,.36-1.27,1.08-1.75,.34-.24,.74-.36,1.19-.36,.62,0,1.19,.26,1.7,.77,1.03,1.17,2.14,2.05,3.33,2.63,1.19,.59,2.61,.88,4.26,.88,1.31-.03,2.46-.34,3.46-.9,1-.57,1.5-1.49,1.5-2.76,0-1.17-.51-2.07-1.52-2.68-1.02-.62-2.5-1.19-4.47-1.7-1.93-.51-3.53-1.06-4.8-1.63-1.27-.57-2.35-1.39-3.23-2.48-.88-1.08-1.32-2.51-1.32-4.26,0-1.55,.44-2.91,1.32-4.08,.88-1.17,2.05-2.08,3.51-2.74,1.46-.65,3.05-.98,4.77-.98s3.3,.31,4.93,.93c1.64,.62,2.97,1.57,4,2.84,.41,.48,.62,.98,.62,1.5,0,.55-.28,1.08-.83,1.6-.34,.31-.77,.47-1.29,.47-.62,0-1.12-.21-1.5-.62-.72-.83-1.61-1.46-2.66-1.91-1.05-.45-2.21-.67-3.48-.67s-2.42,.27-3.33,.8c-.91,.53-1.37,1.44-1.37,2.71,.03,1.21,.56,2.1,1.57,2.68,1.02,.59,2.57,1.16,4.67,1.7,1.82,.48,3.34,1,4.54,1.55,1.2,.55,2.22,1.37,3.05,2.45,.83,1.08,1.24,2.5,1.24,4.26,0,1.62-.47,3.02-1.39,4.21-.93,1.19-2.14,2.1-3.64,2.73-1.5,.64-3.09,.96-4.78,.96-2.17,0-4.17-.38-6.01-1.14-1.84-.76-3.4-1.96-4.67-3.61-.31-.48-.46-.95-.46-1.39"/><path class="h" d="M123.24,33.95c-.48,.43-1.05,.64-1.7,.64h-18.17c.24,2.51,1.2,4.52,2.86,6.04,1.67,1.51,3.71,2.27,6.12,2.27,1.65,0,2.99-.24,4.03-.72,1.03-.48,1.94-1.1,2.74-1.86,.52-.31,1.01-.47,1.5-.47,.58,0,1.07,.21,1.47,.62,.39,.41,.59,.9,.59,1.44,0,.72-.34,1.38-1.03,1.96-1,1-2.32,1.84-3.97,2.53-1.65,.69-3.34,1.03-5.06,1.03-2.79,0-5.24-.59-7.36-1.76-2.12-1.17-3.75-2.8-4.9-4.9-1.15-2.1-1.73-4.47-1.73-7.12,0-2.89,.6-5.43,1.78-7.61,1.19-2.19,2.75-3.86,4.7-5.03,1.94-1.17,4.04-1.76,6.27-1.76s4.27,.57,6.19,1.7c1.93,1.14,3.48,2.7,4.65,4.7,1.17,2,1.77,4.23,1.81,6.71-.04,.62-.29,1.15-.77,1.58m-16.88-8.52c-1.41,1.08-2.34,2.76-2.79,5.03h15.23v-.41c-.17-1.82-.99-3.32-2.45-4.49-1.46-1.17-3.12-1.76-4.98-1.76s-3.6,.54-5.01,1.63"/><path class="h" d="M144.2,19.96c.65,.46,.98,1.04,.98,1.73,0,.83-.21,1.45-.65,1.88-.43,.43-.96,.65-1.57,.65-.31,0-.77-.1-1.39-.31-.72-.24-1.29-.36-1.7-.36-1.07,0-2.11,.37-3.12,1.11-1.02,.74-1.84,1.76-2.48,3.05-.64,1.29-.96,2.73-.96,4.31v12.44c0,.69-.23,1.27-.7,1.76-.46,.48-1.06,.72-1.78,.72s-1.31-.23-1.75-.7c-.45-.46-.67-1.06-.67-1.78V22.36c0-.69,.23-1.27,.7-1.75,.47-.48,1.04-.72,1.73-.72,.72,0,1.32,.24,1.78,.72,.47,.48,.7,1.07,.7,1.75v2.63c.76-1.69,1.89-3.05,3.41-4.1,1.51-1.05,3.23-1.59,5.16-1.63,.89,0,1.67,.23,2.32,.7"/><path class="h" d="M173.31,20.27c.45,.43,.67,.94,.67,1.52,0,.31-.12,.74-.36,1.29l-9.81,22.3c-.21,.45-.5,.81-.88,1.08-.38,.28-.79,.43-1.24,.47-.55,.07-1.06-.03-1.52-.31-.47-.28-.82-.69-1.06-1.24l-9.81-22.3c-.17-.52-.26-.95-.26-1.29,0-.55,.22-1.05,.67-1.5,.45-.45,1.03-.67,1.75-.67,.52,0,.98,.13,1.4,.39,.41,.26,.74,.65,.98,1.16l7.8,18.12,7.79-18.12c.48-1.03,1.22-1.55,2.22-1.55,.65,0,1.2,.22,1.65,.64"/><path class="h" d="M200.73,33.95c-.48,.43-1.05,.64-1.7,.64h-18.17c.24,2.51,1.2,4.52,2.87,6.04,1.67,1.51,3.71,2.27,6.12,2.27,1.65,0,2.99-.24,4.03-.72,1.03-.48,1.94-1.1,2.74-1.86,.52-.31,1.01-.47,1.5-.47,.58,0,1.07,.21,1.47,.62,.4,.41,.59,.9,.59,1.44,0,.72-.34,1.38-1.03,1.96-1,1-2.32,1.84-3.97,2.53-1.65,.69-3.34,1.03-5.06,1.03-2.79,0-5.24-.59-7.36-1.76-2.12-1.17-3.75-2.8-4.91-4.9-1.15-2.1-1.73-4.47-1.73-7.12,0-2.89,.59-5.43,1.78-7.61,1.19-2.19,2.75-3.86,4.7-5.03,1.94-1.17,4.04-1.76,6.27-1.76s4.27,.57,6.19,1.7c1.93,1.14,3.48,2.7,4.65,4.7,1.17,2,1.77,4.23,1.81,6.71-.04,.62-.29,1.15-.77,1.58m-16.88-8.52c-1.41,1.08-2.34,2.76-2.79,5.03h15.23v-.41c-.17-1.82-.99-3.32-2.45-4.49-1.46-1.17-3.12-1.76-4.98-1.76s-3.6,.54-5.01,1.63"/><path class="h" d="M59.58,65.58H7.5c-3.31,0-6-2.69-6-6V7.5C1.5,4.19,4.19,1.5,7.5,1.5H59.58c3.31,0,6,2.69,6,6V59.58c0,3.31-2.69,6-6,6"/><path class="h" d="M59.58,67.08H7.5c-4.14,0-7.5-3.36-7.5-7.5V7.5C0,3.36,3.36,0,7.5,0H59.58c4.14,0,7.5,3.36,7.5,7.5V59.58c0,4.14-3.36,7.5-7.5,7.5M7.5,3c-2.48,0-4.5,2.02-4.5,4.5V59.58c0,2.48,2.02,4.5,4.5,4.5H59.58c2.48,0,4.5-2.02,4.5-4.5V7.5c0-2.48-2.02-4.5-4.5-4.5H7.5Z"/><path class="i" d="M51.35,14.1c.73,.66,1.09,1.5,1.09,2.55v20.94c0,3.2-.79,6.04-2.38,8.5-1.59,2.47-3.81,4.4-6.68,5.78-2.86,1.39-6.13,2.08-9.81,2.08s-6.96-.69-9.84-2.08c-2.89-1.39-5.12-3.32-6.71-5.78-1.59-2.47-2.38-5.3-2.38-8.5V16.65c0-1,.41-1.84,1.23-2.52,.82-.68,1.86-1.01,3.13-1.01,1.09,0,2.04,.34,2.86,1.01,.82,.68,1.23,1.51,1.23,2.52v20.94c0,1.85,.48,3.5,1.43,4.95,.95,1.45,2.24,2.56,3.85,3.33,1.61,.77,3.35,1.16,5.21,1.16s3.78-.39,5.48-1.16c1.7-.77,3.07-1.88,4.09-3.33,1.02-1.45,1.53-3.09,1.53-4.95V16.65c0-1.04,.34-1.89,1.02-2.55,.68-.65,1.61-.98,2.79-.98s2.13,.33,2.86,.98"/></g></g></g></g></g></svg>