<?xml version="1.0" encoding="utf-8"?>
<!-- Generator: Adobe Illustrator 26.1.0, SVG Export Plug-In . SVG Version: 6.00 Build 0)  -->
<svg version="1.1" id="Layer_1" xmlns="http://www.w3.org/2000/svg" xmlns:xlink="http://www.w3.org/1999/xlink" x="0px" y="0px"
	 viewBox="0 0 20 22" style="enable-background:new 0 0 20 22;" xml:space="preserve">
<style type="text/css">
	.st0{fill:#000EB8;}
</style>
<path class="st0" d="M10,18c0.2,0,0.4-0.1,0.6-0.2c0.2-0.1,0.3-0.3,0.4-0.4C11,17.2,11,17,11,16.8c0-0.2-0.1-0.4-0.3-0.5
	c-0.1-0.1-0.3-0.2-0.5-0.3c-0.2,0-0.4,0-0.6,0.1c-0.2,0.1-0.3,0.2-0.4,0.4C9.1,16.6,9,16.8,9,17c0,0.3,0.1,0.5,0.3,0.7
	C9.5,17.9,9.7,18,10,18z M15,18c0.2,0,0.4-0.1,0.6-0.2c0.2-0.1,0.3-0.3,0.4-0.4C16,17.2,16,17,16,16.8c0-0.2-0.1-0.4-0.3-0.5
	c-0.1-0.1-0.3-0.2-0.5-0.3c-0.2,0-0.4,0-0.6,0.1c-0.2,0.1-0.3,0.2-0.4,0.4C14.1,16.6,14,16.8,14,17c0,0.3,0.1,0.5,0.3,0.7
	S14.7,18,15,18z M15,14c0.2,0,0.4-0.1,0.6-0.2c0.2-0.1,0.3-0.3,0.4-0.4C16,13.2,16,13,16,12.8s-0.1-0.4-0.3-0.5
	c-0.1-0.1-0.3-0.2-0.5-0.3s-0.4,0-0.6,0.1c-0.2,0.1-0.3,0.2-0.4,0.4C14.1,12.6,14,12.8,14,13c0,0.3,0.1,0.5,0.3,0.7S14.7,14,15,14z
	 M10,14c0.2,0,0.4-0.1,0.6-0.2c0.2-0.1,0.3-0.3,0.4-0.4C11,13.2,11,13,11,12.8s-0.1-0.4-0.3-0.5c-0.1-0.1-0.3-0.2-0.5-0.3
	s-0.4,0-0.6,0.1c-0.2,0.1-0.3,0.2-0.4,0.4C9.1,12.6,9,12.8,9,13c0,0.3,0.1,0.5,0.3,0.7C9.5,13.9,9.7,14,10,14z M17,2h-1V1
	c0-0.3-0.1-0.5-0.3-0.7C15.5,0.1,15.3,0,15,0s-0.5,0.1-0.7,0.3C14.1,0.5,14,0.7,14,1v1H6V1c0-0.3-0.1-0.5-0.3-0.7C5.5,0.1,5.3,0,5,0
	S4.5,0.1,4.3,0.3C4.1,0.5,4,0.7,4,1v1H3C2.2,2,1.4,2.3,0.9,2.9C0.3,3.4,0,4.2,0,5v14c0,0.8,0.3,1.6,0.9,2.1C1.4,21.7,2.2,22,3,22h14
	c0.8,0,1.6-0.3,2.1-0.9c0.6-0.6,0.9-1.3,0.9-2.1V5c0-0.8-0.3-1.6-0.9-2.1C18.6,2.3,17.8,2,17,2z M18,19c0,0.3-0.1,0.5-0.3,0.7
	S17.3,20,17,20H3c-0.3,0-0.5-0.1-0.7-0.3C2.1,19.5,2,19.3,2,19v-9h16V19z M18,8H2V5c0-0.3,0.1-0.5,0.3-0.7C2.5,4.1,2.7,4,3,4h1v1
	c0,0.3,0.1,0.5,0.3,0.7C4.5,5.9,4.7,6,5,6s0.5-0.1,0.7-0.3C5.9,5.5,6,5.3,6,5V4h8v1c0,0.3,0.1,0.5,0.3,0.7C14.5,5.9,14.7,6,15,6
	s0.5-0.1,0.7-0.3C15.9,5.5,16,5.3,16,5V4h1c0.3,0,0.5,0.1,0.7,0.3C17.9,4.5,18,4.7,18,5V8z M5,14c0.2,0,0.4-0.1,0.6-0.2
	c0.2-0.1,0.3-0.3,0.4-0.4C6,13.2,6,13,6,12.8c0-0.2-0.1-0.4-0.3-0.5c-0.1-0.1-0.3-0.2-0.5-0.3c-0.2,0-0.4,0-0.6,0.1
	c-0.2,0.1-0.3,0.2-0.4,0.4C4.1,12.6,4,12.8,4,13c0,0.3,0.1,0.5,0.3,0.7C4.5,13.9,4.7,14,5,14z M5,18c0.2,0,0.4-0.1,0.6-0.2
	c0.2-0.1,0.3-0.3,0.4-0.4C6,17.2,6,17,6,16.8c0-0.2-0.1-0.4-0.3-0.5c-0.1-0.1-0.3-0.2-0.5-0.3c-0.2,0-0.4,0-0.6,0.1
	c-0.2,0.1-0.3,0.2-0.4,0.4C4.1,16.6,4,16.8,4,17c0,0.3,0.1,0.5,0.3,0.7C4.5,17.9,4.7,18,5,18z"/>
</svg>
