<svg width="48" height="63" viewBox="0 0 48 63" fill="none" xmlns="http://www.w3.org/2000/svg">
<path d="M23.7504 41.8254C25.6755 41.8254 27.2361 40.2478 27.2361 38.3017C27.2361 36.3555 25.6755 34.7779 23.7504 34.7779C21.8253 34.7779 20.2646 36.3555 20.2646 38.3017C20.2646 40.2478 21.8253 41.8254 23.7504 41.8254Z" fill="white"/>
<path d="M24.7102 41.8254C26.1056 41.8254 27.2369 40.6819 27.2369 39.2712C27.2369 37.8606 26.1056 36.717 24.7102 36.717C23.3148 36.717 22.1836 37.8606 22.1836 39.2712C22.1836 40.6819 23.3148 41.8254 24.7102 41.8254Z" fill="#707BFF"/>
<path d="M23.7504 41.8254C25.6755 41.8254 27.2361 40.2478 27.2361 38.3017C27.2361 36.3555 25.6755 34.7779 23.7504 34.7779C21.8253 34.7779 20.2646 36.3555 20.2646 38.3017C20.2646 40.2478 21.8253 41.8254 23.7504 41.8254Z" stroke="#000B8F" stroke-width="2" stroke-linecap="round" stroke-linejoin="round"/>
<path d="M22.5169 1.64162C22.9237 1.56418 23.3367 1.52559 23.7507 1.52632C25.1315 1.53068 26.4768 1.96919 27.6001 2.78107C28.7234 3.59295 29.5691 4.73795 30.0199 6.05742C30.4706 7.37688 30.5042 8.80543 30.1159 10.145C29.7276 11.4847 28.9367 12.669 27.8528 13.5339C26.7689 14.3988 25.4458 14.9014 24.0667 14.9721C22.6876 15.0427 21.3209 14.6779 20.1561 13.9283C18.9912 13.1786 18.0859 12.0811 17.5656 10.7881C17.0453 9.49501 16.9358 8.07035 17.2523 6.71158" stroke="#000B8F" stroke-width="2" stroke-linecap="round" stroke-linejoin="round"/>
<path d="M18.0635 4.73819C18.5284 3.97249 19.1404 3.30879 19.8634 2.78625" stroke="#000B8F" stroke-width="2" stroke-linecap="round" stroke-linejoin="round"/>
<path d="M25.4834 35.0598L30.2451 27.6065" stroke="#000B8F" stroke-width="2" stroke-linecap="round" stroke-linejoin="round"/>
<path d="M12.1275 14.33L14.3521 18.2251L9.65015 20.9693L7.42561 17.0743C7.2211 16.7162 7.1657 16.2907 7.27156 15.8913C7.37742 15.492 7.63588 15.1514 7.99009 14.9447L10.0209 13.7594C10.3751 13.5527 10.7961 13.4967 11.1911 13.6037C11.5862 13.7107 11.923 13.9719 12.1275 14.33Z" fill="white"/>
<path d="M12.5992 16.2372L14.8238 20.1322L10.1219 22.8765L7.89731 18.9814C7.69281 18.6234 7.63738 18.1978 7.74324 17.7984C7.8491 17.399 8.10755 17.0585 8.46177 16.8517L10.4926 15.6665C10.8468 15.4597 11.2677 15.4037 11.6628 15.5107C12.0579 15.6178 12.3947 15.8791 12.5992 16.2372Z" fill="#707BFF"/>
<path d="M12.1275 14.33L14.3521 18.2251L9.65015 20.9693L7.42561 17.0743C7.2211 16.7162 7.1657 16.2907 7.27156 15.8913C7.37742 15.492 7.63588 15.1514 7.99009 14.9447L10.0209 13.7594C10.3751 13.5527 10.7961 13.4967 11.1911 13.6037C11.5862 13.7107 11.923 13.9719 12.1275 14.33V14.33Z" stroke="#000B8F" stroke-width="2" stroke-linecap="round" stroke-linejoin="round"/>
<path d="M23.7464 61.2724C17.9438 61.2739 12.3605 59.0313 8.14128 55.0044C3.92202 50.9775 1.38656 45.4714 1.05478 39.6151C0.723005 33.7588 2.62005 27.996 6.35694 23.5085C10.0938 19.0209 15.3874 16.1486 21.1523 15.4804V14.0026C21.1523 13.307 21.4256 12.64 21.9121 12.1482C22.3986 11.6564 23.0584 11.3801 23.7464 11.3801C24.4345 11.3801 25.0943 11.6564 25.5808 12.1482C26.0673 12.64 26.3406 13.307 26.3406 14.0026V17.9663C26.3429 18.3121 26.2774 18.655 26.148 18.9751C26.0187 19.2953 25.828 19.5864 25.5869 19.8318C25.3458 20.0771 25.059 20.2718 24.7431 20.4047C24.4272 20.5375 24.0885 20.6059 23.7464 20.6059H23.5352C19.4341 20.6566 15.4804 22.1593 12.3622 24.8525C9.24395 27.5457 7.15863 31.259 6.46896 35.346C5.7793 39.4331 6.52905 43.6352 8.58772 47.2212C10.6464 50.8071 13.8836 53.5499 17.7361 54.9721C21.5886 56.3944 25.8125 56.406 29.6727 55.0051C33.5328 53.6042 36.7848 50.8794 38.8629 47.3048C40.9409 43.7303 41.7134 39.5324 41.0458 35.4416C40.3782 31.3507 38.3128 27.626 35.2092 24.9156C34.7329 24.4504 34.4507 23.8186 34.4204 23.1497C34.39 22.4809 34.6138 21.8256 35.046 21.3183C35.4782 20.8109 36.086 20.4899 36.7448 20.421C37.4036 20.3521 38.0635 20.5405 38.5893 20.9476C42.096 24.0112 44.5921 28.0856 45.7427 32.6242C46.8934 37.1628 46.6438 41.9486 45.0272 46.3396C43.4106 50.7307 40.5043 54.517 36.6983 57.1907C32.8923 59.8643 28.3685 61.2976 23.7338 61.298L23.7464 61.2724Z" fill="#C2C7FF"/>
<path d="M36.8446 50.0775C38.3872 48.3227 39.5693 46.2755 40.3224 44.0547C41.0754 41.834 41.3843 39.4841 41.2309 37.1416C41.0776 34.7991 40.4652 32.5109 39.4293 30.4098C38.3934 28.3087 36.9547 26.4368 35.1968 24.9028C34.7205 24.4376 34.4382 23.8058 34.4079 23.1369C34.3775 22.4681 34.6013 21.8128 35.0335 21.3055C35.4657 20.7981 36.0735 20.4771 36.7323 20.4082C37.3911 20.3392 38.0511 20.5277 38.5769 20.9348C41.9945 23.9143 44.4574 27.8548 45.6519 32.2543C46.8464 36.6538 46.7183 41.3131 45.2842 45.6388C43.8501 49.9645 41.1748 53.7608 37.599 56.544C34.0232 59.3273 29.7088 60.9716 25.2053 61.2674C20.7019 61.5633 16.2133 60.4973 12.3112 58.2052C8.40915 55.9132 5.27026 52.4989 3.29442 48.3972C1.31858 44.2955 0.595185 39.6921 1.21641 35.1733C1.83763 30.6546 3.77538 26.4251 6.78274 23.0235" stroke="#000B8F" stroke-width="2" stroke-linecap="round" stroke-linejoin="round"/>
<path d="M33.1855 53.2382L33.3164 53.1527" stroke="#000B8F" stroke-width="2" stroke-linecap="round" stroke-linejoin="round"/>
<path d="M9.38092 20.5162C12.7434 17.73 16.8286 15.9817 21.148 15.4804V14.0026C21.148 13.307 21.4213 12.64 21.9078 12.1482C22.3943 11.6564 23.0541 11.3801 23.7422 11.3801C24.4302 11.3801 25.09 11.6564 25.5765 12.1482C26.063 12.64 26.3364 13.307 26.3364 14.0026V17.9663C26.3386 18.3118 26.2733 18.6543 26.1442 18.9742C26.0151 19.294 25.8247 19.585 25.5841 19.8303C25.3434 20.0755 25.0572 20.2703 24.7418 20.4034C24.4265 20.5366 24.0881 20.6054 23.7464 20.6059H23.5351C20.9343 20.6373 18.373 21.2532 16.0368 22.409C13.7005 23.5648 11.6478 25.2315 10.0276 27.2884C8.40733 29.3453 7.26011 31.7409 6.66893 34.3014C6.07774 36.862 6.0574 39.5234 6.60951 42.0929C7.16161 44.6624 8.27227 47.0754 9.86099 49.1573C11.4497 51.2392 13.4767 52.9377 15.7951 54.1297C18.1134 55.3218 20.6651 55.9775 23.2651 56.0493C25.8651 56.1212 28.4484 55.6074 30.8277 54.5452" stroke="#000B8F" stroke-width="2" stroke-linecap="round" stroke-linejoin="round"/>
<path d="M30.8914 20.9348C32.2331 20.9348 33.3208 19.8352 33.3208 18.4789C33.3208 17.1225 32.2331 16.0229 30.8914 16.0229C29.5496 16.0229 28.4619 17.1225 28.4619 18.4789C28.4619 19.8352 29.5496 20.9348 30.8914 20.9348Z" fill="#F1F1F9" stroke="#000B8F" stroke-width="2" stroke-linecap="round" stroke-linejoin="round"/>
<path d="M23.4932 23.4848V25.0182" stroke="#000B8F" stroke-width="2" stroke-linecap="round" stroke-linejoin="round"/>
<path d="M23.4932 51.0599V52.5933" stroke="#000B8F" stroke-width="2" stroke-linecap="round" stroke-linejoin="round"/>
<path d="M9.09375 38.0411H10.6106" stroke="#000B8F" stroke-width="2" stroke-linecap="round" stroke-linejoin="round"/>
<path d="M36.3711 38.0411H37.8879" stroke="#000B8F" stroke-width="2" stroke-linecap="round" stroke-linejoin="round"/>
<path d="M33.6708 27.7474L32.5977 28.8323" stroke="#000B8F" stroke-width="2" stroke-linecap="round" stroke-linejoin="round"/>
<path d="M14.3837 47.2457L13.3105 48.3306" stroke="#000B8F" stroke-width="2" stroke-linecap="round" stroke-linejoin="round"/>
<path d="M13.3105 27.7474L14.3837 28.8323" stroke="#000B8F" stroke-width="2" stroke-linecap="round" stroke-linejoin="round"/>
<path d="M32.5977 47.2457L33.6708 48.3306" stroke="#000B8F" stroke-width="2" stroke-linecap="round" stroke-linejoin="round"/>
</svg>
