<?xml version="1.0" encoding="utf-8"?>
<!-- Generator: Adobe Illustrator 26.1.0, SVG Export Plug-In . SVG Version: 6.00 Build 0)  -->
<svg version="1.1" id="Layer_1" xmlns="http://www.w3.org/2000/svg" xmlns:xlink="http://www.w3.org/1999/xlink" x="0px" y="0px"
	 viewBox="0 0 20.1 20" style="enable-background:new 0 0 20.1 20;" xml:space="preserve">
<style type="text/css">
	.st0{fill:#000B8F;}
</style>
<path class="st0" d="M12.4,15.3l-1.3,1.3V11c0-0.3-0.1-0.5-0.3-0.7S10.4,10,10.1,10s-0.5,0.1-0.7,0.3S9.1,10.7,9.1,11v5.6l-1.3-1.3
	c-0.1-0.1-0.2-0.2-0.3-0.2C7.4,15,7.2,15,7.1,15s-0.3,0-0.4,0.1c-0.1,0.1-0.2,0.1-0.3,0.2s-0.2,0.2-0.2,0.3
	c-0.1,0.1-0.1,0.3-0.1,0.4s0,0.3,0.1,0.4s0.1,0.2,0.2,0.3l3,3c0.1,0.1,0.2,0.2,0.3,0.2C9.8,20,10,20,10.1,20s0.3,0,0.4-0.1
	c0.1,0,0.2-0.1,0.3-0.2l3-3c0.2-0.2,0.3-0.4,0.3-0.7s-0.1-0.5-0.3-0.7c-0.2-0.2-0.4-0.3-0.7-0.3S12.6,15.1,12.4,15.3z M16.5,4.2
	c-0.6-1.4-1.7-2.6-3-3.3s-2.9-1-4.4-0.8s-2.9,0.9-4,2s-1.8,2.5-2,4c-1,0.2-1.8,0.8-2.4,1.6S-0.1,9.5,0,10.5c0.1,1,0.6,1.9,1.3,2.5
	c0.9,0.6,1.8,1,2.8,1c0.3,0,0.5-0.1,0.7-0.3s0.3-0.4,0.3-0.7S5,12.5,4.8,12.3S4.4,12,4.1,12c-0.5,0-1-0.2-1.4-0.6
	C2.3,11,2.1,10.5,2.1,10s0.2-1,0.6-1.4C3.1,8.2,3.6,8,4.1,8c0.3,0,0.5-0.1,0.7-0.3C5,7.5,5.1,7.3,5.1,7c0-1.2,0.4-2.3,1.2-3.2
	s1.8-1.5,3-1.7c1.2-0.2,2.4,0,3.4,0.6s1.8,1.6,2.2,2.7c0.1,0.2,0.2,0.3,0.3,0.4C15.3,6,15.4,6,15.6,6.1c0.7,0.1,1.3,0.5,1.7,1
	C17.7,7.6,18,8.3,18,8.9c0,0.7-0.2,1.3-0.6,1.9c-0.4,0.5-1,0.9-1.6,1.1c-0.1,0-0.2,0.1-0.4,0.2c-0.1,0.1-0.2,0.2-0.3,0.3
	C15,12.5,15,12.6,15,12.8c0,0.1,0,0.3,0,0.4c0,0.1,0.1,0.2,0.2,0.4c0.1,0.1,0.2,0.2,0.3,0.3c0.1,0.1,0.2,0.1,0.4,0.1
	c0.1,0,0.3,0,0.4,0c1.1-0.3,2-0.9,2.7-1.7c0.7-0.9,1-1.9,1.1-3c0-1.1-0.3-2.2-1-3C18.5,5.2,17.6,4.5,16.5,4.2z"/>
</svg>
