<?xml version="1.0" encoding="utf-8"?>
<!-- Generator: Adobe Illustrator 26.1.0, SVG Export Plug-In . SVG Version: 6.00 Build 0)  -->
<svg version="1.1" id="Layer_1" xmlns="http://www.w3.org/2000/svg" xmlns:xlink="http://www.w3.org/1999/xlink" x="0px" y="0px"
	 viewBox="0 0 16 20" style="enable-background:new 0 0 16 20;" xml:space="preserve">
<style type="text/css">
	.st0{fill:#000B8F;}
</style>
<path class="st0" d="M14,0H4C2.9,0,1.9,0.4,1.2,1.2C0.4,1.9,0,2.9,0,4v12c0,1.1,0.4,2.1,1.2,2.8C1.9,19.6,2.9,20,4,20h10
	c0.5,0,1-0.2,1.4-0.6C15.8,19,16,18.5,16,18V2c0-0.5-0.2-1-0.6-1.4C15,0.2,14.5,0,14,0z M2,4c0-0.5,0.2-1,0.6-1.4C3,2.2,3.5,2,4,2
	h10v10H4c-0.7,0-1.4,0.2-2,0.6V4z M4,18c-0.5,0-1-0.2-1.4-0.6C2.2,17,2,16.5,2,16s0.2-1,0.6-1.4C3,14.2,3.5,14,4,14h10v4H4z M6,6h4
	c0.3,0,0.5-0.1,0.7-0.3C10.9,5.5,11,5.3,11,5s-0.1-0.5-0.3-0.7C10.5,4.1,10.3,4,10,4H6C5.7,4,5.5,4.1,5.3,4.3C5.1,4.5,5,4.7,5,5
	s0.1,0.5,0.3,0.7C5.5,5.9,5.7,6,6,6z"/>
</svg>
