<svg width="64" height="63" viewBox="0 0 64 63" fill="none" xmlns="http://www.w3.org/2000/svg">
<path d="M34.4933 44.8071H3.90299H3.89223L3.88148 44.8073C3.52156 44.815 3.17659 44.6819 2.92164 44.4425C2.6698 44.206 2.52619 43.8856 2.51562 43.5517V43.2086H22.7489C22.8895 43.3803 23.0546 43.532 23.2396 43.6585C23.6306 43.9261 24.093 44.0698 24.5657 44.073V44.073H24.5725L31.3935 44.073L31.3961 44.073C31.8707 44.0718 32.3351 43.9285 32.7274 43.66L32.1626 42.8347L32.7274 43.66C32.9128 43.5331 33.0782 43.3809 33.2189 43.2086H33.3206L34.4933 44.8071Z" fill="white" stroke="#000B8F" stroke-width="2"/>
<path d="M49.9918 10.9507H5.96228C5.73412 10.9507 5.50819 10.9951 5.29745 11.081C5.0867 11.1669 4.89529 11.2927 4.73415 11.4514C4.57301 11.61 4.44531 11.7983 4.35838 12.0056C4.27145 12.2128 4.22699 12.435 4.22754 12.6591V42.2044H33.8318L51.7307 13.9703V12.6591C51.7313 12.4346 51.6867 12.2123 51.5995 12.0048C51.5123 11.7972 51.3842 11.6087 51.2226 11.4499C51.061 11.2912 50.8691 11.1654 50.6579 11.0797C50.4467 10.9941 50.2203 10.9501 49.9918 10.9507Z" fill="white"/>
<path d="M36.4672 45.8071H3.90299C3.28389 45.8204 2.68473 45.5918 2.2371 45.1715C1.78947 44.7511 1.52998 44.1734 1.51562 43.5652V42.2086H23.2925C23.3895 42.4612 23.5621 42.679 23.7875 42.8333C24.013 42.9876 24.2808 43.0712 24.5556 43.073H31.3767C31.6518 43.0723 31.9201 42.9892 32.1458 42.8347C32.3715 42.6802 32.5438 42.4619 32.6398 42.2086H33.8104" fill="#C2C7FF"/>
<path d="M36.4672 45.8071H3.90299C3.28389 45.8204 2.68473 45.5918 2.2371 45.1715C1.78947 44.7511 1.52998 44.1734 1.51562 43.5652V42.2086H23.2925C23.3895 42.4612 23.5621 42.679 23.7875 42.8333C24.013 42.9876 24.2808 43.0712 24.5556 43.073H31.3767C31.6518 43.0723 31.9201 42.9892 32.1458 42.8347C32.3715 42.6802 32.5438 42.4619 32.6398 42.2086H33.8104" stroke="#000B8F" stroke-width="2" stroke-linecap="round" stroke-linejoin="round"/>
<path d="M17.7051 10.9507H49.9914C50.2196 10.9507 50.4455 10.9951 50.6562 11.081C50.867 11.1669 51.0584 11.2927 51.2195 11.4514C51.3807 11.61 51.5084 11.7983 51.5953 12.0056C51.6822 12.2128 51.7267 12.435 51.7261 12.6591V15.7178" stroke="#000B8F" stroke-width="2" stroke-linecap="round" stroke-linejoin="round"/>
<path d="M12.9346 10.9508H13.4567" stroke="#000B8F" stroke-width="2" stroke-linecap="round" stroke-linejoin="round"/>
<path d="M33.8269 42.2044H4.22266V12.6591C4.22211 12.435 4.26656 12.2128 4.3535 12.0056C4.44043 11.7983 4.56813 11.61 4.72927 11.4514C4.89041 11.2927 5.08182 11.1669 5.29256 11.081C5.50331 10.9951 5.72923 10.9507 5.9574 10.9507H10.1006" stroke="#000B8F" stroke-width="2" stroke-linecap="round" stroke-linejoin="round"/>
<path d="M51.3261 48.7541H36.1093C35.5036 48.753 34.9232 48.516 34.4953 48.0949C34.0675 47.6738 33.8271 47.1032 33.8271 46.5083V19.1632C33.8271 18.5683 34.0675 17.9977 34.4953 17.5766C34.9232 17.1555 35.5036 16.9185 36.1093 16.9174H53.503C54.1093 16.9174 54.6908 17.154 55.1196 17.5752C55.5484 17.9964 55.7893 18.5675 55.7893 19.1632V25.5413" fill="white"/>
<path d="M51.3261 48.7541H36.1093C35.5036 48.753 34.9232 48.516 34.4953 48.0949C34.0675 47.6738 33.8271 47.1032 33.8271 46.5083V19.1632C33.8271 18.5683 34.0675 17.9977 34.4953 17.5766C34.9232 17.1555 35.5036 16.9185 36.1093 16.9174H53.503C54.1093 16.9174 54.6908 17.154 55.1196 17.5752C55.5484 17.9964 55.7893 18.5675 55.7893 19.1632V25.5413" stroke="#000B8F" stroke-width="2"/>
<path d="M34 42.2416H52L51.1734 49.1182H36.2443C35.6494 49.1173 35.0792 48.9251 34.6586 48.5837C34.2379 48.2423 34.0011 47.7795 34 47.2967V42.2416Z" fill="#C2C7FF" stroke="#000B8F" stroke-width="2"/>
<path d="M55.7896 18.946V20.6688H33.8232V18.946C33.8244 18.3507 34.0656 17.7801 34.4941 17.3592C34.9227 16.9382 35.5036 16.7012 36.1096 16.7001H53.5075C54.1131 16.7012 54.6935 16.9383 55.1214 17.3594C55.5493 17.7804 55.7896 18.351 55.7896 18.946Z" fill="#C2C7FF" stroke="#000B8F" stroke-width="2"/>
<path d="M44.8081 45.9994C45.036 45.9994 45.2208 45.8179 45.2208 45.5941C45.2208 45.3702 45.036 45.1887 44.8081 45.1887C44.5802 45.1887 44.3955 45.3702 44.3955 45.5941C44.3955 45.8179 44.5802 45.9994 44.8081 45.9994Z" stroke="#000B8F" stroke-width="2" stroke-linecap="round" stroke-linejoin="round"/>
<path d="M50.7853 26.5414H60.6042C61.0547 26.5414 61.3895 26.8956 61.3895 27.2952V48.1503C61.3895 48.5499 61.0547 48.9041 60.6042 48.9041H50.7853C50.3347 48.9041 50 48.5499 50 48.1503V27.2952C50 26.8956 50.3347 26.5414 50.7853 26.5414Z" fill="white" stroke="#000B8F" stroke-width="2"/>
<path d="M60.779 26.5238H50.9601C49.9741 26.5238 49.1748 27.309 49.1748 28.2776V49.1327C49.1748 50.1013 49.9741 50.8865 50.9601 50.8865H60.779C61.765 50.8865 62.5643 50.1013 62.5643 49.1327V28.2776C62.5643 27.309 61.765 26.5238 60.779 26.5238Z" fill="white" stroke="#000B8F" stroke-width="2"/>
<path d="M55.8654 47.7552C55.9863 47.7552 56.0844 47.6589 56.0844 47.5401C56.0844 47.4213 55.9863 47.325 55.8654 47.325C55.7445 47.325 55.6465 47.4213 55.6465 47.5401C55.6465 47.6589 55.7445 47.7552 55.8654 47.7552Z" stroke="#000B8F" stroke-width="2" stroke-linecap="round" stroke-linejoin="round"/>
</svg>
