<svg width="65" height="64" viewBox="0 0 65 64" fill="none" xmlns="http://www.w3.org/2000/svg">
<path d="M32.625 56.7C46.4321 56.7 57.625 45.5071 57.625 31.6999C57.625 17.8928 46.4321 6.69995 32.625 6.69995C18.8179 6.69995 7.625 17.8928 7.625 31.6999C7.625 45.5071 18.8179 56.7 32.625 56.7Z" fill="white"/>
<path d="M34.1377 56.6203C47.1093 56.6203 57.6249 46.1047 57.6249 33.133C57.6249 20.1614 47.1093 9.64575 34.1377 9.64575C21.166 9.64575 10.6504 20.1614 10.6504 33.133C10.6504 46.1047 21.166 56.6203 34.1377 56.6203Z" fill="#C2C7FF" stroke="#C2C7FF" stroke-width="1.5"/>
<path d="M24.7422 7.97375C24.9014 7.89413 25.1403 7.81451 25.2995 7.81451" stroke="#000B8F" stroke-width="1.5" stroke-linecap="round" stroke-linejoin="round"/>
<path d="M32.625 56.6203C18.8511 56.6203 7.625 45.4738 7.625 31.6203C7.625 21.7477 13.2779 13.3082 21.5581 9.16806" stroke="#000B8F" stroke-width="1.5" stroke-linecap="round" stroke-linejoin="round"/>
<path d="M33.3418 6.69995C46.7972 7.09804 57.6252 18.0853 57.6252 31.6999C57.6252 42.9261 50.3004 52.321 40.1093 55.5057" stroke="#000B8F" stroke-width="1.5" stroke-linecap="round" stroke-linejoin="round"/>
<path d="M26.3352 28.5152C27.4499 30.6649 29.7588 32.1777 32.3862 32.1777C36.2079 32.1777 39.2333 29.0726 39.2333 25.3305C39.2333 21.5885 36.1282 18.4834 32.3862 18.4834C28.5645 18.4834 25.5391 21.5885 25.5391 25.3305C25.5391 26.4452 25.7779 27.5598 26.3352 28.5152Z" fill="white"/>
<path d="M40.0291 33.2127C43.2138 35.6012 45.5227 38.7859 45.5227 42.4484C45.5227 43.563 44.4081 43.563 44.4081 43.563H35.889H30.7138H22.1947C22.1947 43.563 21.0801 43.563 21.0801 42.4484C21.0801 37.6713 24.8221 33.8496 29.3603 31.3815" fill="white"/>
<path d="M29.2015 31.3815C30.1569 31.8592 31.2715 32.1777 32.3862 32.1777C36.2079 32.1777 39.2333 29.0726 39.2333 25.3305C39.2333 21.5885 36.1282 18.4834 32.3862 18.4834C28.5645 18.4834 25.5391 21.5885 25.5391 25.3305C25.5391 26.1267 25.6983 26.8433 25.9372 27.5598" stroke="#000B8F" stroke-width="1.5" stroke-linecap="round" stroke-linejoin="round"/>
<path d="M40.0291 33.2127C43.2138 35.6012 45.5227 38.7859 45.5227 42.4484C45.5227 43.563 44.4081 43.563 44.4081 43.563H35.889H30.7138H22.1947C22.1947 43.563 21.0801 43.563 21.0801 42.4484C21.0801 37.6713 24.8221 33.8496 29.3603 31.3815" stroke="#000B8F" stroke-width="1.5" stroke-linecap="round" stroke-linejoin="round"/>
</svg>
