<svg width="14" height="14" viewBox="0 0 14 14" fill="none" xmlns="http://www.w3.org/2000/svg">
<path d="M6.99968 6.33331C6.82287 6.33331 6.6533 6.40355 6.52827 6.52858C6.40325 6.6536 6.33301 6.82317 6.33301 6.99998V9.66665C6.33301 9.84346 6.40325 10.013 6.52827 10.1381C6.6533 10.2631 6.82287 10.3333 6.99968 10.3333C7.17649 10.3333 7.34606 10.2631 7.47108 10.1381C7.59611 10.013 7.66634 9.84346 7.66634 9.66665V6.99998C7.66634 6.82317 7.59611 6.6536 7.47108 6.52858C7.34606 6.40355 7.17649 6.33331 6.99968 6.33331ZM7.25301 3.71998C7.0907 3.6533 6.90865 3.6533 6.74634 3.71998C6.66451 3.75171 6.58975 3.79929 6.52634 3.85998C6.46746 3.92478 6.4201 3.99919 6.38634 4.07998C6.34902 4.1591 6.33076 4.24586 6.33301 4.33331C6.3325 4.42105 6.34932 4.50803 6.3825 4.58925C6.41567 4.67048 6.46456 4.74435 6.52634 4.80665C6.59114 4.86553 6.66555 4.91289 6.74634 4.94665C6.84734 4.98814 6.95699 5.00419 7.06564 4.99339C7.1743 4.98259 7.27863 4.94526 7.36949 4.88469C7.46034 4.82412 7.53492 4.74217 7.58668 4.64603C7.63845 4.54989 7.6658 4.4425 7.66634 4.33331C7.66389 4.1568 7.59483 3.98774 7.47301 3.85998C7.40961 3.79929 7.33485 3.75171 7.25301 3.71998ZM6.99968 0.333313C5.68114 0.333313 4.3922 0.724306 3.29588 1.45685C2.19955 2.18939 1.34506 3.23058 0.840481 4.44876C0.335896 5.66693 0.203874 7.00738 0.461109 8.30058C0.718344 9.59379 1.35328 10.7817 2.28563 11.714C3.21798 12.6464 4.40587 13.2813 5.69908 13.5385C6.99228 13.7958 8.33273 13.6638 9.5509 13.1592C10.7691 12.6546 11.8103 11.8001 12.5428 10.7038C13.2753 9.60745 13.6663 8.31852 13.6663 6.99998C13.6663 6.1245 13.4939 5.25759 13.1589 4.44876C12.8238 3.63992 12.3328 2.90499 11.7137 2.28593C11.0947 1.66688 10.3597 1.17581 9.5509 0.840783C8.74206 0.505751 7.87516 0.333313 6.99968 0.333313ZM6.99968 12.3333C5.94484 12.3333 4.9137 12.0205 4.03664 11.4345C3.15957 10.8484 2.47599 10.0155 2.07232 9.04096C1.66865 8.06642 1.56303 6.99406 1.76882 5.9595C1.97461 4.92493 2.48256 3.97462 3.22844 3.22874C3.97432 2.48286 4.92463 1.97491 5.9592 1.76912C6.99376 1.56334 8.06612 1.66895 9.04066 2.07262C10.0152 2.47629 10.8481 3.15988 11.4342 4.03694C12.0202 4.914 12.333 5.94515 12.333 6.99998C12.333 8.41447 11.7711 9.77102 10.7709 10.7712C9.77072 11.7714 8.41417 12.3333 6.99968 12.3333Z" fill="#007A56"/>
</svg>
