<?xml version="1.0" encoding="utf-8"?>
<!-- Generator: Adobe Illustrator 26.1.0, SVG Export Plug-In . SVG Version: 6.00 Build 0)  -->
<svg version="1.1" id="Layer_1" xmlns="http://www.w3.org/2000/svg" xmlns:xlink="http://www.w3.org/1999/xlink" x="0px" y="0px"
	 viewBox="0 0 20 20" style="enable-background:new 0 0 20 20;" xml:space="preserve">
<style type="text/css">
	.st0{fill:#000B8F;}
</style>
<path class="st0" d="M17,0H3C2.2,0,1.4,0.3,0.9,0.9S0,2.2,0,3v14c0,0.8,0.3,1.6,0.9,2.1C1.4,19.7,2.2,20,3,20h14c0.2,0,0.3,0,0.5,0
	l0.3-0.1h0.1h0l0.4-0.1l0.1-0.1c0.1-0.1,0.2-0.1,0.3-0.2c0.1-0.1,0.3-0.2,0.4-0.3l0.1-0.1c0.1-0.1,0.2-0.2,0.3-0.3l0.1-0.1
	c0.1-0.1,0.1-0.2,0.2-0.3c0,0,0.1-0.1,0.1-0.2c0-0.1,0.1-0.2,0.1-0.4v-0.1C20,17.4,20,17.2,20,17V3c0-0.8-0.3-1.6-0.9-2.1
	C18.6,0.3,17.8,0,17,0z M3,18c-0.3,0-0.5-0.1-0.7-0.3C2.1,17.5,2,17.3,2,17v-4.3l3.3-3.3c0.1-0.1,0.2-0.2,0.3-0.2
	C5.7,9.1,5.9,9.1,6,9.1c0.1,0,0.3,0,0.4,0.1c0.1,0.1,0.2,0.1,0.3,0.2l8.6,8.6H3z M18,17c0,0.1,0,0.2-0.1,0.4c0,0,0,0.1-0.1,0.1
	c0,0-0.1,0.1-0.1,0.1l-5.4-5.4l0.9-0.9c0.1-0.1,0.2-0.2,0.3-0.2c0.1-0.1,0.3-0.1,0.4-0.1s0.3,0,0.4,0.1c0.1,0.1,0.2,0.1,0.3,0.2
	l3.3,3.3V17z M18,11.9L16.1,10c-0.6-0.5-1.3-0.8-2.1-0.8s-1.5,0.3-2.1,0.8L11,10.9L8.1,8C7.5,7.5,6.8,7.2,6,7.2S4.5,7.5,3.9,8L2,9.9
	V3c0-0.3,0.1-0.5,0.3-0.7C2.5,2.1,2.7,2,3,2h14c0.3,0,0.5,0.1,0.7,0.3C17.9,2.5,18,2.7,18,3V11.9z M11.5,4c-0.3,0-0.6,0.1-0.8,0.3
	c-0.2,0.2-0.4,0.4-0.6,0.7C10,5.2,10,5.5,10,5.8c0.1,0.3,0.2,0.6,0.4,0.8c0.2,0.2,0.5,0.4,0.8,0.4c0.3,0.1,0.6,0,0.9-0.1
	c0.3-0.1,0.5-0.3,0.7-0.6C12.9,6.1,13,5.8,13,5.5c0-0.4-0.2-0.8-0.4-1.1C12.3,4.2,11.9,4,11.5,4z"/>
</svg>
