<svg width="64" height="57" viewBox="0 0 64 57" fill="none" xmlns="http://www.w3.org/2000/svg">
<path d="M48.9637 14.9187H2.94029C1.67561 14.9187 0.650391 15.9439 0.650391 17.2086V53.6127C0.650391 54.8774 1.67561 55.9026 2.94029 55.9026H48.9637C50.2284 55.9026 51.2536 54.8774 51.2536 53.6127V17.2086C51.2536 15.9439 50.2284 14.9187 48.9637 14.9187Z" fill="white"/>
<path d="M48.9637 14.9187H2.94029C1.67561 14.9187 0.650391 15.9439 0.650391 17.2086V53.6127C0.650391 54.8774 1.67561 55.9026 2.94029 55.9026H48.9637C50.2284 55.9026 51.2536 54.8774 51.2536 53.6127V17.2086C51.2536 15.9439 50.2284 14.9187 48.9637 14.9187Z" fill="white"/>
<path d="M51.2581 52.6499V53.1789C51.257 53.7859 51.0153 54.3678 50.5861 54.797C50.1569 55.2262 49.5752 55.4678 48.9682 55.4689H2.94909C2.34212 55.4678 1.76035 55.2262 1.33116 54.797C0.901969 54.3678 0.660326 53.7859 0.65918 53.1789V52.6499H51.2581Z" fill="#F1F1F9"/>
<path d="M51.2583 18.7004V31.6766C49.0946 32.1954 46.8363 32.1729 44.6833 31.6112C42.5303 31.0495 40.5489 29.9659 38.9144 28.4561C37.2799 26.9464 36.0427 25.0571 35.3121 22.9554C34.5816 20.8536 34.3802 18.6042 34.7259 16.4061H48.964C49.5725 16.4061 50.1561 16.648 50.5863 17.0783C51.0166 17.5085 51.2583 18.0919 51.2583 18.7004Z" fill="#F1F1F9"/>
<path d="M15.4961 14.9187H15.6479" stroke="#000B8F" stroke-width="2" stroke-linecap="round" stroke-linejoin="round"/>
<path d="M20.5305 14.9187H48.9633C49.5718 14.9187 50.1553 15.1604 50.5856 15.5906C51.0158 16.0209 51.2576 16.6045 51.2576 17.213V53.6126C51.2564 54.2203 51.0142 54.8029 50.584 55.2322C50.1539 55.6615 49.571 55.9026 48.9633 55.9026H2.94855C2.34083 55.9026 1.75794 55.6615 1.32781 55.2322C0.897684 54.8029 0.655446 54.2203 0.654297 53.6126V17.213C0.654297 16.6045 0.896024 16.0209 1.32628 15.5906C1.75653 15.1604 2.34008 14.9187 2.94855 14.9187H11.102" stroke="#000B8F" stroke-width="2" stroke-linecap="round" stroke-linejoin="round"/>
<path d="M51.4744 18.7004V23.1762H0.654301V18.7004C0.653731 18.3993 0.712542 18.1012 0.827365 17.8228C0.942188 17.5445 1.11078 17.2916 1.32347 17.0785C1.53617 16.8654 1.78882 16.6964 2.06692 16.581C2.34503 16.4657 2.64313 16.4061 2.94421 16.4061H49.1802C49.4814 16.4061 49.7798 16.4655 50.0581 16.5808C50.3365 16.6961 50.5894 16.8652 50.8024 17.0783C51.0155 17.2913 51.1845 17.5441 51.2998 17.8224C51.415 18.1008 51.4744 18.3991 51.4744 18.7004Z" fill="#C2C7FF"/>
<path d="M50.4337 18.7004V23.1762H35.3802C34.5936 21.0111 34.3683 18.6819 34.7254 16.4061H48.1394C48.7479 16.4061 49.3315 16.648 49.7617 17.0783C50.192 17.5085 50.4337 18.0919 50.4337 18.7004Z" fill="#707BFF"/>
<path d="M0.654297 23.1762V17.213C0.654297 16.6045 0.896024 16.0209 1.32628 15.5906C1.75653 15.1604 2.34008 14.9187 2.94855 14.9187H9.08965" stroke="#000B8F" stroke-width="2" stroke-linecap="round" stroke-linejoin="round"/>
<path d="M4.19778 23.1761H4.01562" stroke="#000B8F" stroke-width="2" stroke-linecap="round" stroke-linejoin="round"/>
<path d="M12.5289 23.1761H6.87793" stroke="#000B8F" stroke-width="2" stroke-linecap="round" stroke-linejoin="round"/>
<path d="M19.7895 14.9187H48.964C49.5725 14.9187 50.156 15.1604 50.5863 15.5906C51.0165 16.0209 51.2583 16.6045 51.2583 17.213V23.1762H16.1855" stroke="#000B8F" stroke-width="2" stroke-linecap="round" stroke-linejoin="round"/>
<path d="M9.08105 14.9187H13.6001" stroke="#000B8F" stroke-width="2" stroke-linecap="round" stroke-linejoin="round"/>
<path d="M7.64551 30.345V29.7118C7.6455 29.5562 7.7071 29.4068 7.81677 29.2964C7.92645 29.1859 8.07536 29.1232 8.23103 29.1221H11.3449C11.4222 29.1221 11.4987 29.1373 11.57 29.167C11.6413 29.1967 11.706 29.2403 11.7604 29.2951C11.8149 29.3499 11.8579 29.415 11.8871 29.4865C11.9163 29.5581 11.931 29.6346 11.9304 29.7118V32.8214C11.931 32.8986 11.9163 32.9754 11.8871 33.0469C11.8579 33.1184 11.8149 33.1835 11.7604 33.2383C11.706 33.2932 11.6413 33.3365 11.57 33.3662C11.4987 33.3959 11.4222 33.4113 11.3449 33.4113H8.20065C8.05342 33.4113 7.91225 33.3528 7.80814 33.2487C7.70404 33.1446 7.64551 33.0033 7.64551 32.8561V31.6158" fill="#707BFF"/>
<path d="M19.5851 29.1221H16.4712C16.1479 29.1221 15.8857 29.3842 15.8857 29.7076V32.8215C15.8857 33.1448 16.1479 33.407 16.4712 33.407H19.5851C19.9085 33.407 20.1706 33.1448 20.1706 32.8215V29.7076C20.1706 29.3842 19.9085 29.1221 19.5851 29.1221Z" fill="#707BFF"/>
<path d="M27.8254 29.1221H24.7115C24.3881 29.1221 24.126 29.3842 24.126 29.7076V32.8215C24.126 33.1448 24.3881 33.407 24.7115 33.407H27.8254C28.1487 33.407 28.4109 33.1448 28.4109 32.8215V29.7076C28.4109 29.3842 28.1487 29.1221 27.8254 29.1221Z" fill="#707BFF"/>
<path d="M36.0705 29.1221H32.9566C32.6332 29.1221 32.3711 29.3842 32.3711 29.7076V32.8215C32.3711 33.1448 32.6332 33.407 32.9566 33.407H36.0705C36.3938 33.407 36.656 33.1448 36.656 32.8215V29.7076C36.656 29.3842 36.3938 29.1221 36.0705 29.1221Z" fill="#707BFF"/>
<path d="M44.3097 29.1221H41.1958C40.8725 29.1221 40.6104 29.3842 40.6104 29.7076V32.8215C40.6104 33.1448 40.8725 33.407 41.1958 33.407H44.3097C44.6331 33.407 44.8952 33.1448 44.8952 32.8215V29.7076C44.8952 29.3842 44.6331 29.1221 44.3097 29.1221Z" fill="#707BFF"/>
<path d="M11.3449 37.3059H8.23099C7.90764 37.3059 7.64551 37.568 7.64551 37.8914V41.0053C7.64551 41.3287 7.90764 41.5908 8.23099 41.5908H11.3449C11.6683 41.5908 11.9304 41.3287 11.9304 41.0053V37.8914C11.9304 37.568 11.6683 37.3059 11.3449 37.3059Z" fill="#707BFF"/>
<path d="M19.5851 37.3059H16.4712C16.1479 37.3059 15.8857 37.568 15.8857 37.8914V41.0053C15.8857 41.3287 16.1479 41.5908 16.4712 41.5908H19.5851C19.9085 41.5908 20.1706 41.3287 20.1706 41.0053V37.8914C20.1706 37.568 19.9085 37.3059 19.5851 37.3059Z" fill="#707BFF"/>
<path d="M28.4158 40.1987V41.014C28.4146 41.1689 28.3526 41.3172 28.243 41.4267C28.1335 41.5363 27.9852 41.5984 27.8303 41.5995H24.7164C24.6395 41.5995 24.5633 41.5843 24.4923 41.5549C24.4213 41.5254 24.3567 41.4824 24.3024 41.428C24.248 41.3736 24.2049 41.3091 24.1755 41.2381C24.146 41.167 24.1309 41.0909 24.1309 41.014V37.9C24.1303 37.823 24.1451 37.7466 24.1743 37.6753C24.2035 37.6041 24.2466 37.5392 24.3011 37.4848C24.3556 37.4303 24.4203 37.3871 24.4916 37.3579C24.5629 37.3287 24.6393 37.3141 24.7164 37.3147H27.8693C28.0142 37.3147 28.1532 37.3721 28.2557 37.4746C28.3582 37.5771 28.4158 37.7161 28.4158 37.8611V40.1987Z" fill="#707BFF"/>
<path d="M36.0705 37.3059H32.9566C32.6332 37.3059 32.3711 37.568 32.3711 37.8914V41.0053C32.3711 41.3287 32.6332 41.5908 32.9566 41.5908H36.0705C36.3938 41.5908 36.656 41.3287 36.656 41.0053V37.8914C36.656 37.568 36.3938 37.3059 36.0705 37.3059Z" fill="#707BFF"/>
<path d="M44.3097 37.3059H41.1958C40.8725 37.3059 40.6104 37.568 40.6104 37.8914V41.0053C40.6104 41.3287 40.8725 41.5908 41.1958 41.5908H44.3097C44.6331 41.5908 44.8952 41.3287 44.8952 41.0053V37.8914C44.8952 37.568 44.6331 37.3059 44.3097 37.3059Z" fill="#707BFF"/>
<path d="M11.3449 45.4854H8.23099C7.90764 45.4854 7.64551 45.7475 7.64551 46.0708V49.1847C7.64551 49.5081 7.90764 49.7702 8.23099 49.7702H11.3449C11.6683 49.7702 11.9304 49.5081 11.9304 49.1847V46.0708C11.9304 45.7475 11.6683 45.4854 11.3449 45.4854Z" fill="#707BFF"/>
<path d="M19.5851 45.4854H16.4712C16.1479 45.4854 15.8857 45.7475 15.8857 46.0708V49.1847C15.8857 49.5081 16.1479 49.7702 16.4712 49.7702H19.5851C19.9085 49.7702 20.1706 49.5081 20.1706 49.1847V46.0708C20.1706 45.7475 19.9085 45.4854 19.5851 45.4854Z" fill="#707BFF"/>
<path d="M27.8254 45.4854H24.7115C24.3881 45.4854 24.126 45.7475 24.126 46.0708V49.1847C24.126 49.5081 24.3881 49.7702 24.7115 49.7702H27.8254C28.1487 49.7702 28.4109 49.5081 28.4109 49.1847V46.0708C28.4109 45.7475 28.1487 45.4854 27.8254 45.4854Z" fill="#707BFF"/>
<path d="M32.3711 46.0275V49.1847C32.3711 49.3399 32.4328 49.4889 32.5426 49.5987C32.6524 49.7084 32.8013 49.7702 32.9566 49.7702H36.0705C36.1476 49.7708 36.2239 49.756 36.2952 49.7268C36.3665 49.6975 36.4313 49.6544 36.4858 49.5999C36.5403 49.5454 36.5834 49.4808 36.6126 49.4095C36.6418 49.3383 36.6566 49.2617 36.656 49.1847V46.0275C36.656 45.8837 36.5989 45.7458 36.4972 45.6442C36.3955 45.5425 36.2576 45.4854 36.1139 45.4854H32.9132C32.7694 45.4854 32.6316 45.5425 32.5299 45.6442C32.4283 45.7458 32.3711 45.8837 32.3711 46.0275Z" fill="#707BFF"/>
<path d="M42.415 3.73789C44.9328 2.08531 47.93 1.32001 50.9319 1.56308C53.9338 1.80615 56.7688 3.0437 58.9879 5.07984C61.2071 7.11599 62.6835 9.83441 63.1833 12.8044C63.6832 15.7743 63.178 18.8261 61.7476 21.4765C60.3173 24.1269 58.0436 26.2243 55.2867 27.4366C52.5298 28.6489 49.4472 28.9068 46.5271 28.1695C43.607 27.4322 41.0165 25.7419 39.1656 23.3661C37.3147 20.9902 36.3093 18.0648 36.3086 15.0531C36.3023 12.8075 36.8576 10.5959 37.9241 8.61969C38.9906 6.64347 40.5344 4.96521 42.415 3.73789Z" fill="#707BFF"/>
<path d="M45.5635 2.19429L45.9147 2.09434C47.9308 1.48891 50.0603 1.36147 52.1342 1.72205C54.2081 2.08264 56.1695 2.92136 57.863 4.17174" stroke="#000B8F" stroke-width="2" stroke-linecap="round" stroke-linejoin="round"/>
<path d="M63.2059 13.0581C63.3036 13.7186 63.3529 14.3855 63.3534 15.0531C63.3556 17.3326 62.7819 19.5755 61.6856 21.574C60.5892 23.5725 59.0058 25.2616 57.0822 26.4846C55.1587 27.7076 52.9573 28.4249 50.6825 28.5698C48.4076 28.7147 46.1331 28.2827 44.0699 27.3136C42.0067 26.3446 40.2217 24.8701 38.8807 23.0269C37.5396 21.1837 36.6859 19.0316 36.3988 16.7703C36.1117 14.5091 36.4005 12.2118 37.2384 10.0919C38.0763 7.9721 39.4362 6.0984 41.1917 4.64453" stroke="#000B8F" stroke-width="2" stroke-linecap="round" stroke-linejoin="round"/>
<path d="M60.9248 7.32043C61.0809 7.54162 61.2284 7.75415 61.3585 7.99702" stroke="#000B8F" stroke-width="2" stroke-linecap="round" stroke-linejoin="round"/>
<path d="M57.2779 20.123L49.4541 15.6516L50.7725 9.06384" stroke="white" stroke-width="2" stroke-linecap="round" stroke-linejoin="round"/>
<path d="M49.6754 16.5276C50.2814 16.5276 50.7726 16.0364 50.7726 15.4304C50.7726 14.8244 50.2814 14.3331 49.6754 14.3331C49.0694 14.3331 48.5781 14.8244 48.5781 15.4304C48.5781 16.0364 49.0694 16.5276 49.6754 16.5276Z" stroke="white" stroke-width="2" stroke-linecap="round" stroke-linejoin="round"/>
</svg>
