<?xml version="1.0" encoding="utf-8"?>
<!-- Generator: Adobe Illustrator 26.2.1, SVG Export Plug-In . SVG Version: 6.00 Build 0)  -->
<svg version="1.1" id="Layer_1" xmlns="http://www.w3.org/2000/svg" xmlns:xlink="http://www.w3.org/1999/xlink" x="0px" y="0px"
	 viewBox="0 0 26.7 26.7" style="enable-background:new 0 0 26.7 26.7;" xml:space="preserve">
<style type="text/css">
	.st0{fill:#007A56;}
</style>
<path class="st0" d="M13.3,12c-0.4,0-0.7,0.1-0.9,0.4C12.1,12.6,12,13,12,13.3v5.3c0,0.4,0.1,0.7,0.4,0.9c0.3,0.2,0.6,0.4,0.9,0.4
	c0.4,0,0.7-0.1,0.9-0.4c0.3-0.3,0.4-0.6,0.4-0.9v-5.3c0-0.4-0.1-0.7-0.4-0.9C14,12.1,13.7,12,13.3,12z M13.8,6.8
	c-0.3-0.1-0.7-0.1-1,0c-0.2,0.1-0.3,0.2-0.4,0.3c-0.1,0.1-0.2,0.3-0.3,0.4C12,7.7,12,7.8,12,8c0,0.2,0,0.3,0.1,0.5
	c0.1,0.2,0.2,0.3,0.3,0.4c0.1,0.1,0.3,0.2,0.4,0.3c0.2,0.1,0.4,0.1,0.6,0.1c0.2,0,0.4-0.1,0.6-0.2c0.2-0.1,0.3-0.3,0.4-0.5
	c0.1-0.2,0.2-0.4,0.2-0.6c0-0.4-0.1-0.7-0.4-0.9C14.2,6.9,14,6.8,13.8,6.8z M13.3,0c-2.6,0-5.2,0.8-7.4,2.2C3.7,3.7,2,5.8,1,8.2
	c-1,2.4-1.3,5.1-0.8,7.7c0.5,2.6,1.8,5,3.6,6.8c1.9,1.9,4.2,3.1,6.8,3.6c2.6,0.5,5.3,0.3,7.7-0.8c2.4-1,4.5-2.7,6-4.9
	c1.5-2.2,2.2-4.8,2.2-7.4c0-1.8-0.3-3.5-1-5.1C25,6.6,24,5.1,22.8,3.9c-1.2-1.2-2.7-2.2-4.3-2.9C16.8,0.3,15.1,0,13.3,0z M13.3,24
	c-2.1,0-4.2-0.6-5.9-1.8c-1.8-1.2-3.1-2.8-3.9-4.8s-1-4.1-0.6-6.2c0.4-2.1,1.4-4,2.9-5.5s3.4-2.5,5.5-2.9c2.1-0.4,4.2-0.2,6.2,0.6
	s3.6,2.2,4.8,3.9c1.2,1.8,1.8,3.8,1.8,5.9c0,2.8-1.1,5.5-3.1,7.5C18.9,22.9,16.2,24,13.3,24z"/>
</svg>
