<?xml version="1.0" encoding="utf-8"?>
<!-- Generator: Adobe Illustrator 26.1.0, SVG Export Plug-In . SVG Version: 6.00 Build 0)  -->
<svg version="1.1" id="Layer_1" xmlns="http://www.w3.org/2000/svg" xmlns:xlink="http://www.w3.org/1999/xlink" x="0px" y="0px"
	 viewBox="0 0 20 20" style="enable-background:new 0 0 20 20;" xml:space="preserve">
<style type="text/css">
	.st0{fill:#000EB8;}
</style>
<path class="st0" d="M10,0C8,0,6.1,0.6,4.4,1.7C2.8,2.8,1.5,4.3,0.8,6.2C0,8-0.2,10,0.2,12c0.4,1.9,1.3,3.7,2.7,5.1
	c1.4,1.4,3.2,2.4,5.1,2.7c1.9,0.4,4,0.2,5.8-0.6c1.8-0.8,3.4-2,4.5-3.7C19.4,13.9,20,12,20,10c0-1.3-0.3-2.6-0.8-3.8
	C18.7,5,18,3.9,17.1,2.9c-0.9-0.9-2-1.7-3.2-2.2C12.6,0.3,11.3,0,10,0z M10,18c-1.6,0-3.1-0.5-4.4-1.3c-1.3-0.9-2.3-2.1-2.9-3.6
	S1.8,10,2.2,8.4s1.1-3,2.2-4.1s2.5-1.9,4.1-2.2s3.2-0.2,4.6,0.5c1.5,0.6,2.7,1.6,3.6,2.9C17.5,6.9,18,8.4,18,10
	c0,2.1-0.8,4.2-2.3,5.7C14.2,17.2,12.1,18,10,18z M13.1,10.6L11,9.4V5c0-0.3-0.1-0.5-0.3-0.7C10.5,4.1,10.3,4,10,4
	C9.7,4,9.5,4.1,9.3,4.3C9.1,4.5,9,4.7,9,5v5c0,0,0,0.1,0,0.1c0,0.1,0,0.1,0.1,0.2c0,0.1,0,0.1,0.1,0.2c0,0.1,0.1,0.1,0.1,0.2
	l0.2,0.1l0.1,0.1l2.6,1.5c0.2,0.1,0.3,0.1,0.5,0.1c0.2,0,0.4-0.1,0.6-0.2c0.2-0.1,0.3-0.3,0.4-0.5c0.1-0.2,0-0.4,0-0.6
	C13.4,10.9,13.3,10.7,13.1,10.6L13.1,10.6z"/>
</svg>
