<?xml version="1.0" encoding="utf-8"?>
<!-- Generator: Adobe Illustrator 26.1.0, SVG Export Plug-In . SVG Version: 6.00 Build 0)  -->
<svg version="1.1" id="Layer_1" xmlns="http://www.w3.org/2000/svg" xmlns:xlink="http://www.w3.org/1999/xlink" x="0px" y="0px"
	 viewBox="0 0 10 12" style="enable-background:new 0 0 10 12;" xml:space="preserve">
<style type="text/css">
	.st0{fill:#000B8F;}
</style>
<path class="st0" d="M9.9,5.7c0-0.1-0.1-0.2-0.2-0.3L5.6,1.2C5.5,1.2,5.4,1.1,5.3,1.1S5.1,1,5,1C4.8,1,4.6,1.1,4.4,1.2
	C4.3,1.3,4.3,1.4,4.2,1.5c0,0.1-0.1,0.2-0.1,0.3c0,0.2,0.1,0.4,0.2,0.6l2.8,2.7H0.8c-0.2,0-0.4,0.1-0.6,0.2C0.1,5.6,0,5.8,0,6
	c0,0.2,0.1,0.4,0.2,0.6c0.2,0.2,0.4,0.2,0.6,0.2h6.3L4.4,9.6C4.3,9.7,4.3,9.7,4.2,9.8c0,0.1-0.1,0.2-0.1,0.3c0,0.1,0,0.2,0.1,0.3
	c0,0.1,0.1,0.2,0.2,0.3c0.1,0.1,0.2,0.1,0.3,0.2C4.8,11,4.9,11,5,11s0.2,0,0.3-0.1c0.1,0,0.2-0.1,0.3-0.2l4.2-4.2
	c0.1-0.1,0.1-0.2,0.2-0.3C10,6.1,10,5.9,9.9,5.7z"/>
</svg>
