<svg width="52" height="64" viewBox="0 0 52 64" fill="none" xmlns="http://www.w3.org/2000/svg">
<path d="M44.2586 31.5705C43.1824 30.6685 42.1923 29.6806 41.3744 28.5638C40.126 26.8886 39.1789 24.9987 37.6292 23.6672C34.9172 21.3477 30.9999 21.1759 27.4269 21.1329C21.8308 21.047 16.2346 20.9611 10.6384 20.8752C10.337 24.3974 9.69133 27.9625 7.79723 30.9262C7.58199 31.2269 7.36675 31.5705 7.10847 31.8712C2.20104 19.8014 5.04218 14.6041 10.4662 11.8121C8.57209 7.68863 8.48599 6.18527 8.48599 6.18527C8.48599 6.18527 20.4963 8.20406 24.6288 7.38796C29.8807 6.35708 37.9306 7.60272 40.9439 14.6041C43.742 15.7208 45.593 17.2242 46.7553 18.9423C47.358 23.5383 45.4208 28.4779 44.2586 31.5705Z" fill="#C2C7FF"/>
<path d="M8.22875 31.2699C8.1857 31.3128 8.14266 31.3988 8.09961 31.4417" stroke="#000B8F" stroke-width="1.37143" stroke-linecap="round" stroke-linejoin="round"/>
<path d="M43.3124 33.4175C43.4416 32.9451 43.5277 31.8712 43.4416 30.9263C43.4416 30.9263 43.1833 21.3907 29.7524 20.8753C16.3216 20.3598 15.0732 22.7652 10.8976 18.8994C12.189 20.8753 11.8446 24.3974 10.2949 27.7907" stroke="#000B8F" stroke-width="1.37143" stroke-linecap="round" stroke-linejoin="round"/>
<path d="M39.6953 51.286C40.8146 49.6967 41.5033 47.8497 41.6755 45.8739" stroke="#000B8F" stroke-width="1.37143" stroke-linecap="round" stroke-linejoin="round"/>
<path d="M6.76367 47.1625C7.06501 50.1692 8.52862 52.9182 10.8101 54.8511L20.5389 61.6807C22.8204 63.5706 26.0921 63.6135 28.4166 61.8095L33.0227 57.686" stroke="#000B8F" stroke-width="1.37143" stroke-linecap="round" stroke-linejoin="round"/>
<path d="M4.26775 33.4604C2.28756 34.0618 1.55575 34.0618 1.98622 37.4551C2.4167 40.8484 2.50279 42.996 3.01937 45.0578C3.53594 47.1195 5.73137 46.6041 5.73137 46.6041" stroke="#000B8F" stroke-width="1.37143" stroke-linecap="round" stroke-linejoin="round"/>
<path d="M43.4421 33.4604C45.4223 34.0618 46.1541 34.0618 45.7237 37.4551C45.2932 40.8484 45.2071 42.996 44.6905 45.0578C44.1739 47.1195 41.9785 46.6041 41.9785 46.6041" stroke="#000B8F" stroke-width="1.37143" stroke-linecap="round" stroke-linejoin="round"/>
<path d="M4.65507 33.2886C-1.97427 18.9423 1.08211 9.96514 7.28097 6.82957C5.25773 2.44836 5.12859 0.8591 5.12859 0.8591C5.12859 0.8591 18.0429 3.00675 22.4768 2.14769C28.116 1.03091 36.7686 2.36246 39.9972 9.83628C44.4311 11.5974 52.481 16.2363 44.9476 32.5155" stroke="#000B8F" stroke-width="1.37143" stroke-linecap="round" stroke-linejoin="round"/>
<path d="M46.4121 47.0765H43.2266V30.6685H46.4121C48.8658 30.6685 50.889 32.6443 50.889 35.1356V42.6524C50.889 45.1007 48.8658 47.0765 46.4121 47.0765Z" fill="white"/>
<path d="M45.8524 47.0766H43.2695V33.2886H45.8524C47.9187 33.2886 49.5545 34.9638 49.5545 36.9826V43.3826C49.5545 45.4014 47.8756 47.0766 45.8524 47.0766Z" fill="#707BFF"/>
<path fill-rule="evenodd" clip-rule="evenodd" d="M46.4121 47.0765H43.2266V30.6685H46.4121C48.8658 30.6685 50.889 32.6443 50.889 35.1356V42.6524C50.889 45.1007 48.8658 47.0765 46.4121 47.0765Z" stroke="#000B8F" stroke-width="1.37143" stroke-linecap="round" stroke-linejoin="round"/>
<path d="M25.748 53.992H41.1591C43.6989 53.992 45.7652 51.9303 45.7652 49.396V47.0766" stroke="#000B8F" stroke-width="1.37143" stroke-linecap="round" stroke-linejoin="round"/>
<path d="M26.9964 55.8819H22.9069C22.132 55.8819 21.4863 55.2376 21.4863 54.4645V53.5624C21.4863 52.7893 22.132 52.145 22.9069 52.145H26.9964C27.7713 52.145 28.417 52.7893 28.417 53.5624V54.4645C28.417 55.2376 27.7713 55.8819 26.9964 55.8819Z" fill="#707BFF" stroke="#000B8F" stroke-width="1.37143" stroke-linecap="round" stroke-linejoin="round"/>
</svg>
