<?xml version="1.0" encoding="utf-8"?>
<!-- Generator: Adobe Illustrator 26.1.0, SVG Export Plug-In . SVG Version: 6.00 Build 0)  -->
<svg version="1.1" id="Layer_1" xmlns="http://www.w3.org/2000/svg" xmlns:xlink="http://www.w3.org/1999/xlink" x="0px" y="0px"
	 viewBox="0 0 20 20" style="enable-background:new 0 0 20 20;" xml:space="preserve">
<style type="text/css">
	.st0{fill:#000EB8;}
</style>
<path class="st0" d="M19.4,6.6C19.4,6.6,19.4,6.6,19.4,6.6c-0.7-2-2-3.6-3.7-4.8C14.1,0.7,12.1,0,10,0C8,0,6,0.7,4.3,1.8
	C2.6,3,1.3,4.7,0.6,6.6c0,0,0,0,0,0c-0.8,2.2-0.8,4.5,0,6.7c0,0,0,0,0,0.1c0.7,1.9,2,3.6,3.7,4.8C6,19.3,8,20,10,20
	c2,0,4-0.6,5.7-1.8c1.7-1.2,3-2.8,3.7-4.8c0,0,0,0,0-0.1C20.2,11.2,20.2,8.8,19.4,6.6z M2.3,12c-0.3-1.3-0.3-2.7,0-4h1.9
	C4,9.3,4,10.7,4.1,12H2.3z M3.1,14h1.4c0.2,0.9,0.6,1.8,1,2.6C4.5,15.9,3.7,15,3.1,14z M4.5,6H3.1c0.6-1,1.4-1.9,2.4-2.6
	C5,4.2,4.7,5.1,4.5,6z M9,17.7c-1.2-0.9-2.1-2.2-2.4-3.7H9V17.7z M9,12H6.1C6,10.7,6,9.3,6.1,8H9V12z M9,6H6.6
	C6.9,4.5,7.8,3.2,9,2.3V6z M16.9,6h-1.4c-0.2-0.9-0.6-1.8-1-2.6C15.5,4.1,16.3,5,16.9,6z M11,2.3c1.2,0.9,2.1,2.2,2.4,3.7H11V2.3z
	 M11,17.7V14h2.4C13.1,15.5,12.2,16.8,11,17.7z M13.9,12H11V8h2.9C14,9.3,14,10.7,13.9,12z M14.6,16.6c0.4-0.8,0.8-1.7,1-2.6H17
	C16.4,15,15.5,15.9,14.6,16.6z M17.7,12h-1.9c0.1-0.7,0.1-1.3,0.1-2c0-0.7,0-1.3-0.1-2h1.9C18.1,9.3,18.1,10.7,17.7,12z"/>
</svg>
