<?xml version="1.0" encoding="utf-8"?>
<!-- Generator: Adobe Illustrator 26.1.0, SVG Export Plug-In . SVG Version: 6.00 Build 0)  -->
<svg version="1.1" id="Layer_1" xmlns="http://www.w3.org/2000/svg" xmlns:xlink="http://www.w3.org/1999/xlink" x="0px" y="0px"
	 viewBox="0 0 20 20" style="enable-background:new 0 0 20 20;" xml:space="preserve">
<style type="text/css">
	.st0{fill:#000EB8;}
</style>
<path class="st0" d="M12.7,6.8l-4.3,4.3L6.8,9.4C6.7,9.3,6.6,9.3,6.5,9.2C6.3,9.1,6.2,9.1,6.1,9.1c-0.1,0-0.3,0-0.4,0.1
	C5.5,9.2,5.4,9.3,5.3,9.4C5.2,9.5,5.1,9.6,5.1,9.7C5,9.9,5,10,5,10.1c0,0.1,0,0.3,0.1,0.4c0.1,0.1,0.1,0.2,0.2,0.3l2.3,2.4
	c0.1,0.1,0.2,0.2,0.3,0.2c0.1,0,0.3,0.1,0.4,0.1c0.3,0,0.5-0.1,0.7-0.3l5-5c0.1-0.1,0.2-0.2,0.2-0.3c0.1-0.1,0.1-0.3,0.1-0.4
	s0-0.3-0.1-0.4c-0.1-0.1-0.1-0.2-0.2-0.3c-0.2-0.2-0.4-0.3-0.7-0.3S12.9,6.6,12.7,6.8z M10,0C8,0,6.1,0.6,4.4,1.7
	C2.8,2.8,1.5,4.3,0.8,6.2C0,8-0.2,10,0.2,12c0.4,1.9,1.3,3.7,2.7,5.1c1.4,1.4,3.2,2.4,5.1,2.7c1.9,0.4,4,0.2,5.8-0.6
	c1.8-0.8,3.4-2,4.5-3.7C19.4,13.9,20,12,20,10c0-1.3-0.3-2.6-0.8-3.8C18.7,5,18,3.9,17.1,2.9c-0.9-0.9-2-1.7-3.2-2.2
	C12.6,0.3,11.3,0,10,0z M10,18c-1.6,0-3.1-0.5-4.4-1.3c-1.3-0.9-2.3-2.1-2.9-3.6S1.8,10,2.2,8.4s1.1-3,2.2-4.1s2.5-1.9,4.1-2.2
	s3.2-0.2,4.6,0.5c1.5,0.6,2.7,1.6,3.6,2.9C17.5,6.9,18,8.4,18,10c0,2.1-0.8,4.2-2.3,5.7C14.2,17.2,12.1,18,10,18z"/>
</svg>
