<?xml version="1.0" encoding="utf-8"?>
<!-- Generator: Adobe Illustrator 26.2.1, SVG Export Plug-In . SVG Version: 6.00 Build 0)  -->
<svg version="1.1" id="Layer_1" xmlns="http://www.w3.org/2000/svg" xmlns:xlink="http://www.w3.org/1999/xlink" x="0px" y="0px"
	 viewBox="0 0 29.3 18.7" style="enable-background:new 0 0 29.3 18.7;" xml:space="preserve">
<style type="text/css">
	.st0{fill:#007A56;}
</style>
<path class="st0" d="M6.7,8C6.4,8,6.1,8.1,5.9,8.2C5.7,8.4,5.5,8.6,5.4,8.8C5.3,9.1,5.3,9.3,5.4,9.6c0.1,0.3,0.2,0.5,0.4,0.7
	c0.2,0.2,0.4,0.3,0.7,0.4c0.3,0.1,0.5,0,0.8-0.1c0.2-0.1,0.5-0.3,0.6-0.5C7.9,9.9,8,9.6,8,9.3C8,9,7.9,8.6,7.6,8.4
	C7.4,8.1,7,8,6.7,8z M22.7,8c-0.3,0-0.5,0.1-0.7,0.2c-0.2,0.1-0.4,0.4-0.5,0.6c-0.1,0.2-0.1,0.5-0.1,0.8c0.1,0.3,0.2,0.5,0.4,0.7
	c0.2,0.2,0.4,0.3,0.7,0.4c0.3,0.1,0.5,0,0.8-0.1c0.2-0.1,0.5-0.3,0.6-0.5C23.9,9.9,24,9.6,24,9.3c0-0.4-0.1-0.7-0.4-0.9
	C23.4,8.1,23,8,22.7,8z M25.3,0H4C2.9,0,1.9,0.4,1.2,1.2C0.4,1.9,0,2.9,0,4v10.7c0,1.1,0.4,2.1,1.2,2.8c0.8,0.8,1.8,1.2,2.8,1.2
	h21.3c1.1,0,2.1-0.4,2.8-1.2c0.8-0.8,1.2-1.8,1.2-2.8V4c0-1.1-0.4-2.1-1.2-2.8C27.4,0.4,26.4,0,25.3,0z M26.7,14.7
	c0,0.4-0.1,0.7-0.4,0.9C26,15.9,25.7,16,25.3,16H4c-0.4,0-0.7-0.1-0.9-0.4c-0.3-0.3-0.4-0.6-0.4-0.9V4c0-0.4,0.1-0.7,0.4-0.9
	C3.3,2.8,3.6,2.7,4,2.7h21.3c0.4,0,0.7,0.1,0.9,0.4c0.2,0.3,0.4,0.6,0.4,0.9V14.7z M14.7,5.3c-0.8,0-1.6,0.2-2.2,0.7
	c-0.7,0.4-1.2,1.1-1.5,1.8c-0.3,0.7-0.4,1.5-0.2,2.3c0.2,0.8,0.5,1.5,1.1,2c0.6,0.6,1.3,0.9,2,1.1c0.8,0.2,1.6,0.1,2.3-0.2
	c0.7-0.3,1.4-0.8,1.8-1.5c0.4-0.7,0.7-1.4,0.7-2.2c0-1.1-0.4-2.1-1.2-2.8C16.7,5.8,15.7,5.3,14.7,5.3z M14.7,10.7
	c-0.3,0-0.5-0.1-0.7-0.2c-0.2-0.1-0.4-0.4-0.5-0.6c-0.1-0.2-0.1-0.5-0.1-0.8c0.1-0.3,0.2-0.5,0.4-0.7c0.2-0.2,0.4-0.3,0.7-0.4
	c0.3-0.1,0.5,0,0.8,0.1c0.2,0.1,0.5,0.3,0.6,0.5C15.9,8.8,16,9.1,16,9.3c0,0.4-0.1,0.7-0.4,0.9C15.4,10.5,15,10.7,14.7,10.7z"/>
</svg>
