<?xml version="1.0" encoding="utf-8"?>
<!-- Generator: Adobe Illustrator 26.1.0, SVG Export Plug-In . SVG Version: 6.00 Build 0)  -->
<svg version="1.1" id="Layer_1" xmlns="http://www.w3.org/2000/svg" xmlns:xlink="http://www.w3.org/1999/xlink" x="0px" y="0px"
	 viewBox="0 0 16 20" style="enable-background:new 0 0 16 20;" xml:space="preserve">
<style type="text/css">
	.st0{fill:#000EB8;}
</style>
<path class="st0" d="M16,6.9c0-0.1,0-0.2-0.1-0.3V6.6c0-0.1-0.1-0.2-0.2-0.3l-6-6C9.7,0.2,9.6,0.2,9.5,0.1c0,0-0.1,0-0.1,0
	C9.3,0.1,9.2,0,9.1,0H3C2.2,0,1.4,0.3,0.9,0.9C0.3,1.4,0,2.2,0,3v14c0,0.8,0.3,1.6,0.9,2.1C1.4,19.7,2.2,20,3,20h10
	c0.8,0,1.6-0.3,2.1-0.9c0.6-0.6,0.9-1.3,0.9-2.1V6.9C16,7,16,7,16,6.9z M10,3.4L12.6,6H11c-0.3,0-0.5-0.1-0.7-0.3
	C10.1,5.5,10,5.3,10,5V3.4z M14,17c0,0.3-0.1,0.5-0.3,0.7S13.3,18,13,18H3c-0.3,0-0.5-0.1-0.7-0.3C2.1,17.5,2,17.3,2,17V3
	c0-0.3,0.1-0.5,0.3-0.7C2.5,2.1,2.7,2,3,2h5v3c0,0.8,0.3,1.6,0.9,2.1C9.4,7.7,10.2,8,11,8h3V17z M10.3,10.3L7,13.6l-1.3-1.3
	C5.5,12.1,5.3,12,5,12s-0.5,0.1-0.7,0.3S4,12.7,4,13s0.1,0.5,0.3,0.7l2,2c0.1,0.1,0.2,0.2,0.3,0.2C6.7,16,6.9,16,7,16s0.3,0,0.4-0.1
	c0.1-0.1,0.2-0.1,0.3-0.2l4-4c0.2-0.2,0.3-0.4,0.3-0.7s-0.1-0.5-0.3-0.7S11.3,10,11,10S10.5,10.1,10.3,10.3z"/>
</svg>
