<svg width="58" height="65" viewBox="0 0 58 65" fill="none" xmlns="http://www.w3.org/2000/svg">
<path d="M33.0089 42.1903C40.2955 42.1903 46.2025 36.2833 46.2025 28.9967C46.2025 21.7102 40.2955 15.8032 33.0089 15.8032C25.7224 15.8032 19.8154 21.7102 19.8154 28.9967C19.8154 36.2833 25.7224 42.1903 33.0089 42.1903Z" fill="white"/>
<path d="M22.4229 29.2043V29.0011C22.4214 27.8374 22.6128 26.6815 22.9893 25.5804" stroke="#C2C7FF" stroke-width="2" stroke-linecap="round" stroke-linejoin="round"/>
<path d="M24.5068 35.3059C23.7412 34.2778 23.1697 33.1187 22.8203 31.8854" stroke="#C2C7FF" stroke-width="2" stroke-linecap="round" stroke-linejoin="round"/>
<path d="M26.5957 37.4205C26.3665 37.2476 26.1416 37.0616 25.9297 36.8713" stroke="#C2C7FF" stroke-width="2" stroke-linecap="round" stroke-linejoin="round"/>
<path d="M42.695 33.2734C42.1237 34.5632 41.3014 35.7264 40.2762 36.6952C39.2509 37.6641 38.0431 38.4192 36.7231 38.9167" stroke="#C2C7FF" stroke-width="2" stroke-linecap="round" stroke-linejoin="round"/>
<path d="M35.9663 18.8346C37.7157 19.3442 39.3043 20.2959 40.5791 21.5979C41.8538 22.8999 42.7716 24.5083 43.2442 26.2681" stroke="#C2C7FF" stroke-width="2" stroke-linecap="round" stroke-linejoin="round"/>
<path d="M30.0073 18.8476C30.4706 18.7089 30.9431 18.6034 31.4214 18.532" stroke="#C2C7FF" stroke-width="2" stroke-linecap="round" stroke-linejoin="round"/>
<path d="M32.6496 35.6475V34.4843C31.9276 34.4749 31.2153 34.3174 30.5566 34.0215C30.4232 33.9591 30.3179 33.8493 30.2611 33.7134C30.2043 33.5775 30.2002 33.4252 30.2496 33.2864C30.2769 33.21 30.3199 33.1401 30.3757 33.0812C30.4316 33.0223 30.4991 32.9757 30.574 32.9444C30.6488 32.913 30.7294 32.8977 30.8106 32.8993C30.8917 32.9009 30.9717 32.9193 31.0453 32.9534C31.6265 33.2185 32.2573 33.357 32.8961 33.3599C34.0853 33.3599 34.8896 32.6724 34.8896 31.7168C34.8896 30.7611 34.2366 30.2248 32.9955 29.7232C31.2874 29.0529 30.2323 28.2832 30.2323 26.8259C30.2323 25.4335 31.2183 24.3784 32.762 24.1275V22.9557C32.7615 22.8874 32.7745 22.8196 32.8004 22.7563C32.8262 22.6931 32.8644 22.6357 32.9127 22.5874C32.961 22.5391 33.0185 22.5009 33.0817 22.475C33.1449 22.4491 33.2126 22.4361 33.2809 22.4367C33.4186 22.4367 33.5506 22.4914 33.6479 22.5887C33.7452 22.686 33.7999 22.818 33.7999 22.9557V24.0583C34.3719 24.0701 34.9373 24.1843 35.469 24.3956C35.6103 24.4541 35.7229 24.5658 35.7828 24.7065C35.8426 24.8472 35.8449 25.0057 35.7891 25.148C35.7605 25.2215 35.7176 25.2887 35.6627 25.3453C35.6079 25.402 35.5424 25.4471 35.4699 25.4782C35.3974 25.5092 35.3194 25.5254 35.2405 25.5259C35.1617 25.5264 35.0835 25.5111 35.0107 25.481C34.5149 25.2801 33.9845 25.1788 33.4496 25.1827C32.1523 25.1827 31.6723 25.9524 31.6723 26.6227C31.6723 27.4875 32.2907 27.9199 33.748 28.534C35.4777 29.2389 36.3426 30.1081 36.3426 31.6C36.3426 32.9232 35.4215 34.1642 33.6961 34.4496V35.6735C33.6961 35.8111 33.6414 35.9431 33.5441 36.0404C33.4468 36.1378 33.3148 36.1924 33.1772 36.1924C33.106 36.1936 33.0354 36.1804 32.9697 36.1532C32.904 36.126 32.8445 36.0856 32.7951 36.0345C32.7456 35.9834 32.7071 35.9227 32.6821 35.8561C32.6571 35.7895 32.646 35.7185 32.6496 35.6475Z" fill="#000B8F"/>
<path d="M11.4821 52.3221C11.4821 52.3957 11.4821 52.4648 11.4821 52.5297C11.4821 52.5989 11.4821 52.6724 11.4821 52.7416C11.4734 52.6075 11.4734 52.4648 11.4821 52.3221Z" fill="#F1F1F9"/>
<path d="M38.505 53.9438H33.5796C32.4798 53.9438 31.425 53.5069 30.6472 52.7292C29.8695 51.9515 29.4326 50.8966 29.4326 49.7967C29.4326 48.6969 29.8695 47.6421 30.6472 46.8644C31.425 46.0867 32.4798 45.6498 33.5796 45.6498L55.1667 46.9168" fill="white"/>
<path d="M56.7706 57.0185L56.4117 56.9708L56.4939 56.9405L56.2344 50.0216C56.2208 49.6957 56.0849 49.387 55.8539 49.1568H55.8928H55.8322C55.6091 48.9448 55.3179 48.8192 55.0106 48.8022L33.5793 47.7168C32.5868 47.7171 31.6273 48.0733 30.8751 48.7207C30.1229 49.3682 29.6278 50.264 29.4798 51.2454C29.4666 51.174 29.458 51.1018 29.4539 51.0292V50.8087C29.4405 51.0189 29.4405 51.2298 29.4539 51.44C29.4351 51.6587 29.4351 51.8786 29.4539 52.0973L17.5144 44.8194C16.8864 44.4321 16.1666 44.2191 15.4289 44.2024C14.6912 44.1857 13.9625 44.3659 13.3176 44.7244C12.6727 45.083 12.1351 45.607 11.76 46.2424C11.3849 46.8778 11.1859 47.6017 11.1836 48.3395C11.1897 48.6137 11.2172 48.8869 11.2658 49.1568C11.2658 49.2346 11.3133 49.36 11.3133 49.36C11.5797 50.4005 12.2383 51.2978 13.1512 51.8638C25.8517 61.6238 23.5295 60.2011 27.3393 61.4897C37.0257 64.7503 34.2279 64.7633 43.9879 61.4249L54.1501 57.9655L54.6387 57.8011L55.0279 57.6671L55.8928 57.3643L56.589 57.1266L56.7706 57.066V57.0185Z" fill="#F1F1F9"/>
<path d="M38.505 53.9438H33.5796C32.4798 53.9438 31.425 53.5069 30.6472 52.7292C29.8695 51.9515 29.4326 50.8966 29.4326 49.7967C29.4326 48.6969 29.8695 47.6421 30.6472 46.8644C31.425 46.0867 32.4798 45.6498 33.5796 45.6498L55.8802 46.9471C56.1467 46.9636 56.397 47.0809 56.5802 47.2753C56.7633 47.4697 56.8655 47.7265 56.8661 47.9935" stroke="#000B8F" stroke-width="2" stroke-linecap="round" stroke-linejoin="round"/>
<path d="M42.7728 53.9265H41.6226" stroke="#000B8F" stroke-width="2" stroke-linecap="round" stroke-linejoin="round"/>
<path d="M30.9197 52.9708L29.7824 52.2789L29.5964 52.1621L29.4927 52.0973L29.4451 52.067L17.5056 44.7892C16.8779 44.4004 16.1578 44.1862 15.4196 44.1688C14.6814 44.1514 13.9519 44.3314 13.3066 44.6902C12.6612 45.049 12.1234 45.5736 11.7487 46.2098C11.3739 46.846 11.1758 47.5708 11.1748 48.3092C11.1765 48.5821 11.204 48.8544 11.257 49.1222V49.1222C11.257 49.1914 11.2872 49.2562 11.3045 49.3254C11.323 49.4093 11.3476 49.4916 11.3781 49.5718C11.4716 49.8751 11.6023 50.1656 11.7672 50.4367L11.8494 50.5708L11.9618 50.7352C12.0274 50.827 12.0982 50.915 12.1737 50.9989C12.1959 51.0296 12.2205 51.0585 12.2473 51.0854C12.2972 51.1433 12.3507 51.1982 12.4073 51.2497C12.4591 51.3016 12.5154 51.3578 12.5716 51.4053C12.6221 51.4563 12.6771 51.5026 12.7359 51.5438C12.7913 51.5932 12.8505 51.6381 12.9132 51.6778C12.9867 51.7341 13.0645 51.7817 13.1424 51.8336L23.6981 59.9459C24.1479 60.2908 24.6521 60.5583 25.19 60.7373L33.6181 63.5741C34.922 64.0172 36.3358 64.0172 37.6397 63.5741L54.1413 57.9524L55.0062 57.6541L55.871 57.3513L56.7359 57.0529" stroke="#000B8F" stroke-width="2" stroke-linecap="round" stroke-linejoin="round"/>
<path d="M37.1686 16.4779C37.0302 16.4303 36.8962 16.3871 36.7362 16.3481C33.5412 15.4052 30.1079 15.7032 27.1232 17.1827L24.6151 14.9384C24.5518 14.88 24.4854 14.8251 24.4162 14.774C24.3383 14.7092 24.2648 14.6573 24.1913 14.6011C24.1178 14.5449 23.9924 14.4714 23.8886 14.4152C23.5232 14.2135 23.1297 14.0677 22.721 13.9828C22.487 13.9258 22.2481 13.8911 22.0075 13.879L18.7902 13.693C18.549 13.678 18.3102 13.7484 18.1156 13.8919L17.9946 14C17.8777 14.122 17.7917 14.2703 17.7437 14.4324L16.6367 18.212C16.5566 18.4736 16.5767 18.7556 16.6929 19.0032C16.7403 19.1009 16.8014 19.1912 16.8745 19.2714C16.9469 19.3543 17.0315 19.4258 17.1254 19.4833C17.1735 19.5135 17.2242 19.5395 17.2767 19.5611L17.4021 19.613L18.7729 20.1838L22.1113 21.5762L24.1005 22.4022C24.2793 22.4765 24.4527 22.5631 24.6194 22.6616L24.8054 22.7784L24.8443 22.8043L25.0519 22.9601C25.1124 23.0119 25.1773 23.0595 25.2335 23.1113L25.4065 23.2714C25.4632 23.3243 25.5166 23.3806 25.5665 23.44C25.6183 23.5005 25.6702 23.5567 25.7178 23.6216C25.7654 23.6864 25.8086 23.7384 25.8562 23.7989C25.9037 23.8595 25.8562 23.799 25.8562 23.8206C25.9004 23.8769 25.9409 23.9361 25.9773 23.9978C26.0622 24.1261 26.1373 24.2605 26.2021 24.4C26.2367 24.4692 26.267 24.5384 26.2973 24.6119C26.3275 24.6854 26.3535 24.7546 26.3794 24.8238C26.4054 24.8929 26.427 24.9708 26.4486 25.0486C26.4739 25.1206 26.4941 25.1943 26.5092 25.2692C26.5092 25.3427 26.5394 25.4162 26.5524 25.494C26.5654 25.5719 26.5783 25.6497 26.587 25.7233C26.6295 26.0872 26.6222 26.4553 26.5654 26.8173C26.5519 26.9194 26.5316 27.0205 26.5048 27.12C26.4746 27.2454 26.44 27.3709 26.3967 27.5006C26.3476 27.648 26.2898 27.7924 26.2237 27.933C26.0603 28.2827 25.8007 28.5786 25.4752 28.7862C25.1497 28.9937 24.7719 29.1043 24.3859 29.1049C24.1605 29.1059 23.9367 29.0679 23.7243 28.9925L19.867 27.6649L16.9913 26.6703L8.63238 23.7903C7.29259 23.328 6.09192 22.5335 5.14265 21.4811L2.44861 18.4843L1.08646 16.9708C0.857844 16.7244 0.733797 16.3988 0.740492 16.0627C0.740492 14.1902 0.826981 7.75997 0.79671 4.92754C0.793496 4.72324 0.837492 4.52104 0.925247 4.33653C1.013 4.15202 1.14217 3.99019 1.30268 3.86377C1.33295 3.86377 1.3632 3.81624 1.39347 3.79895C1.4543 3.75853 1.51788 3.7224 1.58374 3.69084L1.68752 3.65188L1.77834 3.62158H1.82157H1.89941H1.99889H21.9124C22.7178 3.62147 23.5151 3.78206 24.2576 4.09392C25.0001 4.40579 25.673 4.86274 26.2367 5.43788L37.1686 16.4779Z" fill="white"/>
<path d="M36.7535 16.3481C33.5585 15.4051 30.1253 15.7032 27.1406 17.1827L24.6324 14.9384C24.5692 14.88 24.5028 14.8251 24.4335 14.774C24.3557 14.7091 24.2822 14.6573 24.2086 14.601C24.1351 14.5448 24.0097 14.4713 23.9059 14.4151C23.5406 14.2134 23.147 14.0676 22.7384 13.9827C22.5043 13.9258 22.2654 13.891 22.0249 13.8789L18.8076 13.6929C18.5663 13.6779 18.3275 13.7483 18.133 13.8918L18.0119 13.9999C17.895 14.122 17.809 14.2702 17.7611 14.4323L16.6541 18.2119C16.574 18.4735 16.594 18.7555 16.7103 19.0032C16.7576 19.1008 16.8188 19.1912 16.8919 19.2713C16.9643 19.3543 17.0488 19.4257 17.1427 19.4832C17.1908 19.5134 17.2415 19.5394 17.2941 19.561L17.4195 19.613L18.7903 20.1837C18.9073 20.3392 19.0642 20.4602 19.2443 20.534L19.3741 20.5859L22.0422 21.7015L25.0692 22.96C25.1297 23.0119 25.1946 23.0594 25.2508 23.1113L25.4238 23.2713C25.4805 23.3243 25.5339 23.3805 25.5838 23.4399C25.6357 23.5005 25.6876 23.5567 25.7351 23.6215C25.7827 23.6864 25.8259 23.7383 25.8735 23.7989C25.9211 23.8594 25.8735 23.7989 25.8735 23.8205C25.9178 23.8769 25.9582 23.9361 25.9946 23.9978C26.0795 24.126 26.1547 24.2604 26.2195 24.3999C26.2541 24.4691 26.2843 24.5383 26.3146 24.6118C26.3449 24.6853 26.3708 24.7545 26.3968 24.8237C26.4227 24.8929 26.4443 24.9707 26.466 25.0486C26.4912 25.1206 26.5114 25.1943 26.5265 25.2691C26.5265 25.3426 26.5568 25.4162 26.5697 25.494C26.5827 25.5718 26.5957 25.6497 26.6043 25.7232C26.6468 26.0872 26.6396 26.4552 26.5827 26.8173C26.5692 26.9194 26.549 27.0205 26.5222 27.1199C26.4919 27.2453 26.4573 27.3708 26.414 27.5005C26.3649 27.6479 26.3072 27.7923 26.2411 27.933C26.0777 28.2827 25.818 28.5786 25.4925 28.7861C25.1671 28.9936 24.7892 29.1042 24.4032 29.1048C24.1779 29.1059 23.954 29.0678 23.7416 28.9924L19.8843 27.6648L17.0086 26.6702L8.64974 23.7902C7.30995 23.328 6.10927 22.5334 5.16 21.481L2.46596 18.4843C2.41115 18.3332 2.38334 18.1736 2.38379 18.0129C2.38379 16.1405 2.47026 9.71019 2.43999 6.88208C2.4377 6.70495 2.47057 6.52913 2.53664 6.36477C2.60271 6.20041 2.70069 6.05079 2.82494 5.92452C2.94919 5.79826 3.09723 5.69794 3.26051 5.62923C3.42379 5.56053 3.59907 5.52485 3.77621 5.52429H23.573C24.3783 5.52418 25.1756 5.68477 25.9182 5.99663C26.6607 6.3085 27.3336 6.76534 27.8973 7.34049L36.7535 16.3481Z" fill="#F1F1F9"/>
<path d="M1.32422 3.82496C1.56152 3.63655 1.85581 3.53432 2.15881 3.53516H4.52853" stroke="#000B8F" stroke-width="2" stroke-linecap="round" stroke-linejoin="round"/>
<path d="M1.1084 16.9318L2.47054 18.4453L5.16462 21.4421C6.11388 22.4946 7.31456 23.289 8.65435 23.7512L23.7462 28.9404C26.3754 29.8442 27.517 25.7405 25.8781 23.7772C25.5542 23.3032 25.1287 22.9074 24.6327 22.6183C23.677 22.0432 17.316 19.7167 16.8879 19.228C16.7609 19.0865 16.6724 18.9148 16.6307 18.7293C16.5891 18.5438 16.5957 18.3508 16.65 18.1686L17.757 14.3891C17.805 14.227 17.8909 14.0788 18.0078 13.9567L18.1289 13.8486C18.3235 13.7051 18.5623 13.6347 18.8035 13.6497C22.1765 13.8443 22.7992 13.7621 23.9019 14.3935C24.1224 14.3935 26.7257 16.7977 26.89 16.9448" stroke="#000B8F" stroke-width="2" stroke-linecap="round" stroke-linejoin="round"/>
<path d="M9.51855 3.53516H21.951C22.7564 3.53504 23.5536 3.69563 24.2962 4.0075C25.0387 4.31936 25.7116 4.77621 26.2753 5.35135L37.1121 16.4173" stroke="#000B8F" stroke-width="2" stroke-linecap="round" stroke-linejoin="round"/>
<path d="M7.43066 3.53516H7.57769" stroke="#000B8F" stroke-width="2" stroke-linecap="round" stroke-linejoin="round"/>
<path d="M43.608 21.1481C44.8537 22.8246 45.6836 24.773 46.0293 26.8329C46.375 28.8928 46.2267 31.0053 45.5966 32.9967C44.9665 34.9881 43.8727 36.8014 42.405 38.2875C40.9373 39.7736 39.1377 40.89 37.1543 41.5449C35.171 42.1998 33.0605 42.3744 30.9964 42.0544C28.9324 41.7344 26.9738 40.929 25.2818 39.7043C23.5899 38.4797 22.2128 36.8707 21.264 35.01C20.3152 33.1492 19.8218 31.0898 19.8242 29.0011C19.8242 28.6638 19.8242 28.3265 19.8632 27.9935" stroke="#000B8F" stroke-width="2" stroke-linecap="round" stroke-linejoin="round"/>
<path d="M40.771 18.3329L40.9353 18.454" stroke="#000B8F" stroke-width="2" stroke-linecap="round" stroke-linejoin="round"/>
<path d="M23.5127 19.8421C25.4626 17.8209 28.0065 16.4744 30.7744 15.9984C33.5423 15.5224 36.3898 15.9419 38.903 17.1957" stroke="#000B8F" stroke-width="2" stroke-linecap="round" stroke-linejoin="round"/>
<path d="M44.1094 10.1859V7.69507" stroke="#C2C7FF" stroke-width="2" stroke-linecap="round" stroke-linejoin="round"/>
<path d="M44.1094 15.9892V13.6627" stroke="#C2C7FF" stroke-width="2" stroke-linecap="round" stroke-linejoin="round"/>
<path d="M41.1641 2.70918V1.73621" stroke="#C2C7FF" stroke-width="2" stroke-linecap="round" stroke-linejoin="round"/>
<path d="M41.1641 14.173V5.15247" stroke="#C2C7FF" stroke-width="2" stroke-linecap="round" stroke-linejoin="round"/>
</svg>
