<?xml version="1.0" encoding="utf-8"?>
<!-- Generator: Adobe Illustrator 26.1.0, SVG Export Plug-In . SVG Version: 6.00 Build 0)  -->
<svg version="1.1" id="Layer_1" xmlns="http://www.w3.org/2000/svg" xmlns:xlink="http://www.w3.org/1999/xlink" x="0px" y="0px"
	 viewBox="0 0 24 24" style="enable-background:new 0 0 24 24;" xml:space="preserve">
<style type="text/css">
	.st0{fill:#000B8C;}
</style>
<path class="st0" d="M22.2,0H1.8C1.6,0,1.4,0,1.2,0.1C1,0.2,0.8,0.3,0.6,0.5C0.4,0.7,0.3,0.8,0.2,1.1C0.1,1.3,0.1,1.5,0.1,1.7v20.6
	c0,0.2,0.1,0.5,0.1,0.7c0.1,0.2,0.2,0.4,0.4,0.6c0.2,0.2,0.4,0.3,0.6,0.4C1.4,24,1.6,24,1.8,24h20.3c0.2,0,0.5,0,0.7-0.1
	c0.2-0.1,0.4-0.2,0.6-0.4c0.2-0.2,0.3-0.3,0.4-0.6c0.1-0.2,0.1-0.4,0.1-0.7V1.7c0-0.2-0.1-0.5-0.1-0.7c-0.1-0.2-0.2-0.4-0.4-0.6
	c-0.2-0.2-0.4-0.3-0.6-0.4C22.6,0,22.4,0,22.2,0z M7.3,20.1H3.7V9.3h3.6V20.1z M5.5,7.8c-0.5,0-1-0.2-1.3-0.5
	C3.8,6.9,3.6,6.4,3.6,5.9s0.2-1,0.5-1.3C4.5,4.2,5,4,5.5,4C5.8,4,6,4,6.3,4.1C6.5,4.2,6.8,4.3,7,4.5c0.2,0.2,0.4,0.4,0.5,0.6
	c0.1,0.2,0.2,0.5,0.2,0.8S7.5,6.4,7.4,6.7C7.3,6.9,7.2,7.1,7,7.3C6.8,7.5,6.5,7.6,6.3,7.7C6,7.8,5.8,7.8,5.5,7.8z M20.3,20.1h-3.6
	v-5.8c0-1.5-0.5-2.4-1.8-2.4c-0.4,0-0.8,0.1-1.1,0.4c-0.3,0.2-0.6,0.6-0.7,0.9c-0.1,0.3-0.1,0.6-0.1,0.9v6H9.3c0,0,0-9.8,0-10.8h3.6
	v1.5c0.3-0.6,0.8-1,1.4-1.4C14.8,9.1,15.5,9,16.2,9c2.4,0,4.1,1.5,4.1,4.9V20.1z"/>
</svg>
