<?xml version="1.0" encoding="utf-8"?>
<!-- Generator: Adobe Illustrator 26.1.0, SVG Export Plug-In . SVG Version: 6.00 Build 0)  -->
<svg version="1.1" id="Layer_1" xmlns="http://www.w3.org/2000/svg" xmlns:xlink="http://www.w3.org/1999/xlink" x="0px" y="0px"
	 viewBox="0 0 16 20" style="enable-background:new 0 0 16 20;" xml:space="preserve">
<style type="text/css">
	.st0{fill:#000EB8;}
</style>
<path class="st0" d="M8,8.8c0.4,0,0.8-0.1,1.1-0.3c0.3-0.2,0.6-0.5,0.7-0.9C10,7.2,10,6.8,10,6.4C9.9,6,9.7,5.7,9.4,5.4
	c-0.3-0.3-0.6-0.5-1-0.5C8,4.8,7.6,4.8,7.2,5C6.9,5.1,6.6,5.4,6.3,5.7C6.1,6,6,6.4,6,6.8c0,0.5,0.2,1,0.6,1.4C7,8.6,7.5,8.8,8,8.8z
	 M7.3,15.7c0.1,0.1,0.2,0.2,0.3,0.2C7.7,16,7.9,16,8,16c0.1,0,0.3,0,0.4-0.1c0.1-0.1,0.2-0.1,0.3-0.2l4.1-4.1
	c0.9-0.9,1.6-2.2,1.9-3.5c0.3-1.3,0.1-2.7-0.4-3.9c-0.5-1.2-1.4-2.3-2.5-3C10.7,0.4,9.3,0,8,0S5.3,0.4,4.2,1.2c-1.1,0.7-2,1.8-2.5,3
	C1.2,5.5,1.1,6.8,1.3,8.1c0.3,1.3,0.9,2.5,1.9,3.5L7.3,15.7z M3.2,6.3c0.1-0.7,0.3-1.4,0.7-2c0.4-0.6,0.9-1.1,1.5-1.5
	C6.1,2.3,7.1,2,8,2s1.9,0.3,2.6,0.8c0.6,0.4,1.1,0.9,1.5,1.5c0.4,0.6,0.6,1.3,0.7,2c0.1,0.7,0,1.4-0.3,2.1s-0.6,1.3-1.1,1.8L8,13.6
	l-3.4-3.4C4.1,9.7,3.7,9.1,3.5,8.4C3.2,7.8,3.2,7,3.2,6.3z M15,18H1c-0.3,0-0.5,0.1-0.7,0.3C0.1,18.5,0,18.7,0,19s0.1,0.5,0.3,0.7
	C0.5,19.9,0.7,20,1,20h14c0.3,0,0.5-0.1,0.7-0.3S16,19.3,16,19s-0.1-0.5-0.3-0.7S15.3,18,15,18z"/>
</svg>
