<svg width="16" height="10" viewBox="0 0 16 10" fill="none" xmlns="http://www.w3.org/2000/svg">
<path d="M4.00033 4.33331C3.86847 4.33331 3.73958 4.37241 3.62995 4.44567C3.52031 4.51892 3.43486 4.62304 3.38441 4.74486C3.33395 4.86667 3.32074 5.00072 3.34647 5.13004C3.37219 5.25936 3.43569 5.37815 3.52892 5.47138C3.62216 5.56462 3.74094 5.62811 3.87027 5.65384C3.99959 5.67956 4.13363 5.66636 4.25545 5.6159C4.37726 5.56544 4.48138 5.47999 4.55464 5.37036C4.62789 5.26073 4.66699 5.13183 4.66699 4.99998C4.66699 4.82317 4.59675 4.6536 4.47173 4.52858C4.34671 4.40355 4.17714 4.33331 4.00033 4.33331ZM12.0003 4.33331C11.8685 4.33331 11.7396 4.37241 11.6299 4.44567C11.5203 4.51892 11.4349 4.62304 11.3844 4.74486C11.3339 4.86667 11.3207 5.00072 11.3465 5.13004C11.3722 5.25936 11.4357 5.37815 11.5289 5.47138C11.6222 5.56462 11.7409 5.62811 11.8703 5.65384C11.9996 5.67956 12.1336 5.66636 12.2554 5.6159C12.3773 5.56544 12.4814 5.47999 12.5546 5.37036C12.6279 5.26073 12.667 5.13183 12.667 4.99998C12.667 4.82317 12.5968 4.6536 12.4717 4.52858C12.3467 4.40355 12.1771 4.33331 12.0003 4.33331ZM13.3337 0.333313H2.66699C2.13656 0.333313 1.62785 0.544027 1.25278 0.9191C0.877706 1.29417 0.666992 1.80288 0.666992 2.33331V7.66665C0.666992 8.19708 0.877706 8.70579 1.25278 9.08086C1.62785 9.45593 2.13656 9.66665 2.66699 9.66665H13.3337C13.8641 9.66665 14.3728 9.45593 14.7479 9.08086C15.1229 8.70579 15.3337 8.19708 15.3337 7.66665V2.33331C15.3337 1.80288 15.1229 1.29417 14.7479 0.9191C14.3728 0.544027 13.8641 0.333313 13.3337 0.333313ZM14.0003 7.66665C14.0003 7.84346 13.9301 8.01303 13.8051 8.13805C13.68 8.26308 13.5105 8.33331 13.3337 8.33331H2.66699C2.49018 8.33331 2.32061 8.26308 2.19559 8.13805C2.07056 8.01303 2.00033 7.84346 2.00033 7.66665V2.33331C2.00033 2.1565 2.07056 1.98693 2.19559 1.86191C2.32061 1.73688 2.49018 1.66665 2.66699 1.66665H13.3337C13.5105 1.66665 13.68 1.73688 13.8051 1.86191C13.9301 1.98693 14.0003 2.1565 14.0003 2.33331V7.66665ZM8.00033 2.99998C7.60476 2.99998 7.21808 3.11728 6.88918 3.33704C6.56029 3.5568 6.30394 3.86916 6.15257 4.23461C6.00119 4.60007 5.96158 5.0022 6.03875 5.39016C6.11592 5.77812 6.30641 6.13449 6.58611 6.41419C6.86582 6.6939 7.22218 6.88438 7.61014 6.96155C7.99811 7.03872 8.40024 6.99911 8.76569 6.84774C9.13114 6.69636 9.4435 6.44002 9.66326 6.11112C9.88303 5.78222 10.0003 5.39554 10.0003 4.99998C10.0003 4.46955 9.78961 3.96084 9.41454 3.58577C9.03947 3.21069 8.53076 2.99998 8.00033 2.99998ZM8.00033 5.66665C7.86847 5.66665 7.73958 5.62755 7.62994 5.55429C7.52031 5.48104 7.43486 5.37692 7.38441 5.2551C7.33395 5.13329 7.32074 4.99924 7.34647 4.86992C7.37219 4.7406 7.43569 4.62181 7.52892 4.52858C7.62216 4.43534 7.74094 4.37185 7.87027 4.34612C7.99959 4.3204 8.13363 4.3336 8.25545 4.38406C8.37726 4.43452 8.48138 4.51997 8.55464 4.6296C8.62789 4.73923 8.66699 4.86813 8.66699 4.99998C8.66699 5.17679 8.59675 5.34636 8.47173 5.47138C8.34671 5.59641 8.17714 5.66665 8.00033 5.66665Z" fill="#007A56"/>
</svg>
