<?xml version="1.0" encoding="utf-8"?>
<!-- Generator: Adobe Illustrator 26.4.1, SVG Export Plug-In . SVG Version: 6.00 Build 0)  -->
<svg version="1.1" id="Layer_1" xmlns="http://www.w3.org/2000/svg" xmlns:xlink="http://www.w3.org/1999/xlink" x="0px" y="0px"
	 viewBox="0 0 11 14" style="enable-background:new 0 0 11 14;" xml:space="preserve">
<style type="text/css">
	.st0{fill:#CC2306;}
</style>
<path class="st0" d="M9.5,7.8V5.7c0-0.9-0.3-1.9-0.9-2.6C7.9,2.4,7.1,1.9,6.2,1.7V1c0-0.2-0.1-0.3-0.2-0.5C5.8,0.4,5.7,0.3,5.5,0.3
	C5.3,0.3,5.2,0.4,5,0.5C4.9,0.7,4.8,0.8,4.8,1v0.7C3.9,1.9,3.1,2.4,2.4,3.1S1.5,4.7,1.5,5.7v2.1c-0.4,0.1-0.7,0.4-1,0.7
	C0.3,8.9,0.2,9.3,0.2,9.7V11c0,0.2,0.1,0.3,0.2,0.5c0.1,0.1,0.3,0.2,0.5,0.2h2.1c0.2,0.6,0.5,1.1,1,1.4c0.5,0.4,1,0.5,1.6,0.5
	s1.2-0.2,1.6-0.5c0.5-0.4,0.8-0.9,1-1.4h2.1c0.2,0,0.3-0.1,0.5-0.2c0.1-0.1,0.2-0.3,0.2-0.5V9.7c0-0.4-0.1-0.8-0.4-1.2
	C10.2,8.2,9.9,7.9,9.5,7.8z M2.8,5.7c0-0.7,0.3-1.4,0.8-1.9C4.1,3.3,4.8,3,5.5,3c0.7,0,1.4,0.3,1.9,0.8S8.2,5,8.2,5.7v2H2.8V5.7z
	 M5.5,12.3c-0.2,0-0.5-0.1-0.7-0.2c-0.2-0.1-0.4-0.3-0.5-0.5h2.3c-0.1,0.2-0.3,0.4-0.5,0.5C6,12.3,5.7,12.3,5.5,12.3z M9.5,10.3h-8
	V9.7c0-0.2,0.1-0.3,0.2-0.5C1.8,9.1,2,9,2.2,9h6.7C9,9,9.2,9.1,9.3,9.2c0.1,0.1,0.2,0.3,0.2,0.5V10.3z"/>
</svg>
