<svg width="44" height="65" viewBox="0 0 44 65" fill="none" xmlns="http://www.w3.org/2000/svg">
<path d="M29.1332 22.2081L28.0679 25.3787V25.3829L21.8195 44.0018L21.2174 45.7955L18.0805 55.1471L17.529 56.7976L16.5226 55.1176L12.6742 48.7008L12.3711 48.1997L4.85948 51.2271L3.07422 51.9471L5.5879 44.465L6.19422 42.646L14.6784 17.3618L16.0637 17.8292L29.1332 22.2081Z" fill="white"/>
<path d="M42.8884 58.886L34.8379 55.6397L33.5958 55.1387L29.4274 62.086L28.4379 63.7324L22.5895 46.2966L21.8189 44.0018L16.8379 29.1471L28.0674 25.3829V25.3787L29.8021 24.7976L31.2884 24.3008L31.4442 24.7681L42.6484 58.166L42.8884 58.886Z" fill="white"/>
<path d="M30.6741 22.2081L29.8025 24.7976L29.6088 25.3787V25.3829L23.0573 43.0881L22.9983 43.2397L22.2278 43.4966L21.8194 44.0018L21.2173 45.7955L18.0804 55.1471L13.912 48.1997L12.6741 48.7008L12.371 48.1997L4.85938 51.2271L8.3078 40.9408L16.0636 17.8292L16.2194 17.3618L30.6741 22.2081Z" fill="#C2C7FF"/>
<path d="M42.6484 58.1661L35.1368 55.1387L34.8379 55.6398L33.5957 55.1387L29.4273 62.0861L23.941 45.7198L23.36 44.0019L23.0568 43.0882L22.5894 41.7029L18.3789 29.1471L27.8694 25.964L29.6084 25.3829V25.3787L31.4442 24.7682L36.5894 40.1071L42.6484 58.1661Z" fill="#C2C7FF"/>
<path d="M36.5895 40.1072C33.1116 43.3175 28.6715 45.2903 23.9579 45.7198C23.4568 45.7661 22.9516 45.7956 22.4421 45.8041L21.8358 44.0019L21.2337 45.7956C16.5144 45.6375 11.9782 43.9316 8.32422 40.9409L16.08 17.8292L16.2358 17.3619L30.6905 22.2083L29.8189 24.7977L29.6253 25.3788L31.461 24.7682L36.5895 40.1072Z" fill="#707BFF"/>
<path d="M13.9795 50.8819L12.3711 48.1998L3.07422 51.9472L6.89316 40.5703" stroke="#000B8F" stroke-width="2" stroke-linecap="round" stroke-linejoin="round"/>
<path d="M14.9649 52.524L14.7881 52.2292" stroke="#000B8F" stroke-width="2" stroke-linecap="round" stroke-linejoin="round"/>
<path d="M16.522 55.1176L17.5283 56.7976L18.0799 55.1471L21.2167 45.7955L21.8188 44.0018L28.0673 25.3829V25.3787L29.1325 22.2081L16.0631 17.8292L14.6778 17.3618L7.78516 37.9134" stroke="#000B8F" stroke-width="2" stroke-linecap="round" stroke-linejoin="round"/>
<path d="M24.1895 51.0755L22.4253 45.8039L21.8189 44.0018L16.8379 29.1471L28.0674 25.3829V25.3787L29.8021 24.7976L31.2884 24.3008L31.4442 24.7681L36.5895 40.1071L42.8884 58.886L33.5958 55.1387L28.4379 63.7324L25.701 55.5766" stroke="#000B8F" stroke-width="2" stroke-linecap="round" stroke-linejoin="round"/>
<path d="M24.7119 52.6208L24.7414 52.7051" stroke="#000B8F" stroke-width="2" stroke-linecap="round" stroke-linejoin="round"/>
<path d="M21.9708 43.4966C33.4653 43.4966 42.7835 34.1785 42.7835 22.684C42.7835 11.1895 33.4653 1.87134 21.9708 1.87134C10.4763 1.87134 1.1582 11.1895 1.1582 22.684C1.1582 34.1785 10.4763 43.4966 21.9708 43.4966Z" fill="white"/>
<path d="M42.5269 24.0987C42.5208 29.0033 40.6541 33.723 37.3036 37.305C33.9532 40.8869 29.3686 43.0644 24.4753 43.3979C19.582 43.7313 14.7444 42.1959 10.939 39.1015C7.13364 36.0072 4.64394 31.5844 3.97247 26.7259C3.301 21.8674 4.49776 16.9351 7.3212 12.9246C10.1446 8.91414 14.3845 6.12414 19.1848 5.11788C23.9852 4.11162 28.9885 4.96398 33.1849 7.50296C37.3812 10.0419 40.4581 14.0784 41.7943 18.7976C42.2823 20.5222 42.5288 22.3063 42.5269 24.0987Z" fill="#F1F1F9"/>
<path d="M42.0508 18.7976C41.5404 22.4912 40.1496 26.008 37.9954 29.0514C35.8413 32.0949 32.987 34.5758 29.6732 36.2851C26.3595 37.9944 22.6833 38.882 18.9547 38.873C15.226 38.864 11.5542 37.9587 8.24868 36.2334C6.45087 33.9909 5.17373 31.3772 4.50955 28.5808C3.84536 25.7845 3.81073 22.8755 4.40817 20.0642C5.0056 17.2528 6.22017 14.6093 7.96409 12.3247C9.70801 10.0401 11.9377 8.17144 14.492 6.85386C17.0464 5.53628 19.8615 4.80269 22.7341 4.70604C25.6066 4.6094 28.4647 5.15215 31.1018 6.29506C33.7389 7.43797 36.0892 9.15248 37.9827 11.3147C39.8763 13.4769 41.2657 16.0328 42.0508 18.7976Z" fill="white"/>
<path d="M21.9708 43.4966C33.4653 43.4966 42.7835 34.1785 42.7835 22.684C42.7835 11.1895 33.4653 1.87134 21.9708 1.87134C10.4763 1.87134 1.1582 11.1895 1.1582 22.684C1.1582 34.1785 10.4763 43.4966 21.9708 43.4966Z" stroke="#000B8F" stroke-width="2" stroke-linecap="round" stroke-linejoin="round"/>
<path d="M4.74121 20.6965C4.74121 20.625 4.74121 20.5576 4.76226 20.4902" stroke="#000B8F" stroke-width="2" stroke-linecap="round" stroke-linejoin="round"/>
<path d="M38.8425 26.7219C37.9336 30.5129 35.775 33.8874 32.7143 36.3019C29.6537 38.7164 25.8693 40.03 21.9709 40.0313C21.7014 40.0313 21.4362 40.0314 21.1709 40.0104" stroke="#000B8F" stroke-width="2" stroke-linecap="round" stroke-linejoin="round"/>
<path d="M39.2596 24.1072L39.2344 24.364" stroke="#000B8F" stroke-width="2" stroke-linecap="round" stroke-linejoin="round"/>
<path d="M16.8086 6.11981C18.4804 5.60214 20.2206 5.33949 21.9707 5.34083C22.6658 5.34101 23.3603 5.3818 24.0507 5.46295" stroke="#000B8F" stroke-width="2" stroke-linecap="round" stroke-linejoin="round"/>
<path d="M5.04004 18.9156C5.64094 16.2312 6.87028 13.7276 8.627 11.6108C10.3837 9.49394 12.6177 7.82424 15.1453 6.73877" stroke="#000B8F" stroke-width="2" stroke-linecap="round" stroke-linejoin="round"/>
<path d="M32.017 20.1199L31.8991 20.2334L27.7265 24.3051C27.6537 24.3743 27.5994 24.4606 27.5685 24.5562C27.5376 24.6518 27.5311 24.7537 27.5497 24.8525L28.5602 30.7472C28.5813 30.8613 28.5697 30.9789 28.5267 31.0866C28.4838 31.1944 28.4112 31.2878 28.3174 31.3561C28.2236 31.4243 28.1124 31.4647 27.9967 31.4724C27.881 31.4802 27.7654 31.4549 27.6634 31.3998L22.3623 28.5998C22.273 28.554 22.1742 28.5301 22.0739 28.5301C21.9736 28.5301 21.8747 28.554 21.7854 28.5998L16.7328 31.2525L16.4718 31.3872C16.3697 31.4424 16.2542 31.4675 16.1384 31.4598C16.0227 31.4521 15.9115 31.4117 15.8177 31.3434C15.7239 31.2752 15.6513 31.1819 15.6084 31.0741C15.5654 30.9664 15.5538 30.8486 15.5749 30.7346L16.5855 24.8398C16.5895 24.8119 16.5895 24.7836 16.5855 24.7556C16.5895 24.6701 16.5754 24.5845 16.5442 24.5047C16.513 24.4249 16.4654 24.3526 16.4044 24.2924L12.9518 20.924L12.1097 20.103C12.0262 20.0228 11.9671 19.9207 11.9391 19.8084C11.9112 19.6961 11.9154 19.5781 11.9515 19.4681C11.9876 19.3582 12.054 19.2606 12.143 19.1867C12.2321 19.1128 12.3402 19.0656 12.4549 19.0504L18.3791 18.1872C18.4785 18.1731 18.573 18.1352 18.6544 18.0765C18.7358 18.0178 18.8018 17.9402 18.8465 17.8503L21.4991 12.4777C21.5505 12.3748 21.6295 12.2884 21.7273 12.2279C21.8251 12.1674 21.9378 12.1354 22.0528 12.1354C22.1678 12.1354 22.2805 12.1674 22.3783 12.2279C22.4761 12.2884 22.5551 12.3748 22.6065 12.4777L23.0739 13.4166L25.2591 17.8503C25.3033 17.9406 25.3691 18.0186 25.4506 18.0774C25.5321 18.1362 25.6269 18.1738 25.7265 18.1872H25.8234L31.6549 19.0293C31.7783 19.0368 31.8967 19.081 31.9947 19.1563C32.0927 19.2317 32.1659 19.3348 32.2049 19.4521C32.2438 19.5694 32.2468 19.6957 32.2133 19.8148C32.1798 19.9338 32.1115 20.04 32.017 20.1199Z" fill="white"/>
<path d="M28.5602 30.7513C28.5813 30.8654 28.5697 30.983 28.5268 31.0908C28.4838 31.1985 28.4112 31.292 28.3174 31.3602C28.2236 31.4285 28.1125 31.4688 27.9967 31.4766C27.881 31.4843 27.7654 31.4591 27.6634 31.4039L22.3623 28.5997C22.2731 28.5539 22.1742 28.53 22.0739 28.53C21.9736 28.53 21.8747 28.5539 21.7855 28.5997L16.7328 31.2524L17.6129 26.1198C17.6295 26.021 17.6222 25.9197 17.5914 25.8244C17.5606 25.7292 17.5073 25.6427 17.436 25.5724L16.5939 24.7513L13.1497 21.3829C13.0662 21.3027 13.0071 21.2005 12.9792 21.0882C12.9512 20.9759 12.9555 20.858 12.9916 20.7481C13.0276 20.6381 13.094 20.5405 13.1831 20.4666C13.2721 20.3927 13.3802 20.3455 13.4949 20.3303L19.4234 19.4882C19.522 19.4735 19.6156 19.4352 19.6962 19.3765C19.7769 19.3179 19.8422 19.2406 19.8865 19.1513L22.5391 13.7787C22.5894 13.6745 22.668 13.5866 22.7659 13.5251C22.8639 13.4636 22.9772 13.431 23.0928 13.431C23.2085 13.431 23.3218 13.4636 23.4197 13.5251C23.5177 13.5866 23.5963 13.6745 23.6465 13.7787L25.836 18.2208L26.2992 19.1513C26.3439 19.2412 26.4099 19.3187 26.4913 19.3774C26.5727 19.4361 26.6672 19.4741 26.7665 19.4882L31.8907 20.2334L27.7181 24.305C27.6453 24.3742 27.591 24.4605 27.5601 24.5561C27.5292 24.6517 27.5227 24.7536 27.5413 24.8524L28.5602 30.7513Z" fill="#C2C7FF"/>
<path d="M16.7455 31.2692L16.4844 31.4081C16.3822 31.4615 16.2671 31.4854 16.1521 31.4769C16.0371 31.4684 15.9267 31.428 15.8335 31.3601C15.7403 31.2923 15.6678 31.1997 15.6244 31.0928C15.5809 30.986 15.5682 30.8693 15.5876 30.7556L16.5981 24.8608C16.614 24.7621 16.6063 24.661 16.5756 24.5658C16.5448 24.4706 16.4919 24.3842 16.4212 24.3134L12.1307 20.1323C12.0489 20.0517 11.9912 19.95 11.964 19.8384C11.9367 19.7269 11.941 19.6101 11.9764 19.5008C12.0118 19.3916 12.0769 19.2944 12.1644 19.22C12.2518 19.1456 12.3583 19.097 12.4718 19.0797L13.1623 18.9786" stroke="#000B8F" stroke-width="2" stroke-linecap="round" stroke-linejoin="round"/>
<path d="M29.2082 22.8567L27.7261 24.3009C27.6545 24.371 27.6011 24.4574 27.5703 24.5527C27.5395 24.6481 27.5323 24.7495 27.5493 24.8483L28.5598 30.743C28.5792 30.8567 28.5665 30.9734 28.523 31.0803C28.4795 31.1871 28.4071 31.2797 28.3139 31.3475C28.2206 31.4154 28.1103 31.4558 27.9953 31.4643C27.8803 31.4728 27.7652 31.449 27.663 31.3955L22.3619 28.6082C22.2732 28.5607 22.1741 28.5358 22.0735 28.5358C21.9729 28.5358 21.8738 28.5607 21.7851 28.6082L18.8672 30.1408" stroke="#000B8F" stroke-width="2" stroke-linecap="round" stroke-linejoin="round"/>
<path d="M30.7457 21.3618L30.6025 21.4966" stroke="#000B8F" stroke-width="2" stroke-linecap="round" stroke-linejoin="round"/>
<path d="M18.4844 18.1872C18.5666 18.1627 18.643 18.1216 18.7089 18.0666C18.7748 18.0116 18.8288 17.9437 18.8675 17.8672L21.5201 12.4945C21.5715 12.3917 21.6506 12.3052 21.7484 12.2447C21.8462 12.1843 21.9589 12.1522 22.0738 12.1522C22.1888 12.1522 22.3015 12.1843 22.3993 12.2447C22.4971 12.3052 22.5761 12.3917 22.6275 12.4945L25.2801 17.8672C25.3245 17.9565 25.3898 18.0337 25.4704 18.0924C25.5511 18.151 25.6447 18.1893 25.7433 18.204L31.6717 19.0672C31.7865 19.0824 31.8946 19.1296 31.9836 19.2035C32.0727 19.2774 32.1391 19.375 32.1751 19.485C32.2112 19.5949 32.2155 19.7128 32.1875 19.8251C32.1595 19.9374 32.1004 20.0396 32.017 20.1198L31.8149 20.3177" stroke="#000B8F" stroke-width="2" stroke-linecap="round" stroke-linejoin="round"/>
<path d="M15.1836 18.6713L15.9036 18.566" stroke="#000B8F" stroke-width="2" stroke-linecap="round" stroke-linejoin="round"/>
</svg>
