<svg width="56" height="64" viewBox="0 0 56 64" fill="none" xmlns="http://www.w3.org/2000/svg">
<path d="M55.0854 34.7306C55.0854 34.8586 55.0854 35.0293 55.0854 35.1999C55.0427 41.4719 54.8294 50.0479 54.8294 62.7199L42.072 54.9546L41.2187 54.4426C39.2987 53.2479 36.952 52.9493 34.7334 53.5039C32.6 54.0586 30.3387 54.3573 28.0347 54.3573C26.072 54.3573 24.1094 54.1439 22.2747 53.7599C10.2854 51.1573 1.24005 40.4479 1.19738 27.6906C1.15471 12.8426 13.144 0.767944 27.992 0.767944C38.6587 0.767944 48.5147 7.29594 52.696 17.1093C54.744 21.8453 55.128 26.1119 55.0854 34.7306Z" fill="white"/>
<path d="M55.0864 34.7306C55.0864 34.8586 55.0864 35.0293 55.0864 35.1999V36.0106C55.0864 41.9413 54.8304 50.1333 54.8304 62.7199L42.2864 55.0826C42.2011 55.0399 42.1584 54.9973 42.0731 54.9546L41.2198 54.4426C39.2998 53.2479 36.9531 52.9493 34.7344 53.5039C32.6011 54.0586 30.3398 54.3573 28.0358 54.3573C26.0731 54.3573 24.1104 54.1439 22.2758 53.7599C15.6198 51.5413 10.1584 46.5919 7.34244 40.1919C5.97711 37.1626 5.25177 33.7919 5.20911 30.2933C5.16644 16.5546 16.2598 5.41861 29.9984 5.41861C39.8544 5.41861 48.9851 11.4773 52.8251 20.5653C54.6171 24.5333 55.0438 28.1173 55.0864 34.7306Z" fill="#F1F1F9"/>
<path d="M55.0864 34.7306C55.0864 34.8586 55.0864 35.0293 55.0864 35.1999V36.0106C53.4224 42.2399 52.3558 48.5973 52.3558 54.8693C52.3558 54.8693 42.2438 48.6826 37.1238 45.6106C31.0224 41.8986 27.7371 47.4453 15.9184 44.8426C12.8038 43.8186 9.90244 42.2399 7.34244 40.1919C5.97711 37.1626 5.25177 33.7919 5.20911 30.2933C5.16644 16.5546 16.2598 5.41861 29.9984 5.41861C39.8544 5.41861 48.9851 11.4773 52.8251 20.5653C54.6171 24.5333 55.0438 28.1173 55.0864 34.7306Z" fill="#C2C7FF"/>
<path d="M54.8722 56.2773C54.8722 58.2826 54.8722 60.416 54.8722 62.72L42.1149 54.9546L41.2616 54.4426C39.3416 53.2479 36.9949 52.9493 34.7762 53.504C32.6429 54.0586 30.3816 54.3573 28.0776 54.3573C26.1149 54.3573 24.1522 54.144 22.3176 53.76C10.3282 51.1573 1.2829 40.448 1.24023 27.6906C1.24023 22.4 2.73357 17.4933 5.33623 13.312" stroke="#000B8F" stroke-width="1.5" stroke-linecap="round" stroke-linejoin="round"/>
<path d="M18.9043 2.34661C21.763 1.32261 24.835 0.767944 28.035 0.767944C38.7016 0.767944 48.5576 7.29594 52.739 17.1093C54.7443 21.8453 55.1283 26.1119 55.1283 34.7306C55.1283 34.8586 55.1283 35.0293 55.1283 35.1999C55.1283 38.9973 55.0003 43.6053 54.9576 49.4079" stroke="#000B8F" stroke-width="1.5" stroke-linecap="round" stroke-linejoin="round"/>
<path d="M13.4434 5.07727C13.6567 4.94927 13.87 4.7786 14.0834 4.6506" stroke="#000B8F" stroke-width="1.5" stroke-linecap="round" stroke-linejoin="round"/>
<path d="M15.0637 32.0426C17.2552 32.0426 19.0317 30.2661 19.0317 28.0746C19.0317 25.8831 17.2552 24.1066 15.0637 24.1066C12.8722 24.1066 11.0957 25.8831 11.0957 28.0746C11.0957 30.2661 12.8722 32.0426 15.0637 32.0426Z" fill="white"/>
<path d="M28.0774 32.0426C30.2688 32.0426 32.0454 30.2661 32.0454 28.0746C32.0454 25.8831 30.2688 24.1066 28.0774 24.1066C25.8859 24.1066 24.1094 25.8831 24.1094 28.0746C24.1094 30.2661 25.8859 32.0426 28.0774 32.0426Z" fill="white"/>
<path d="M41.091 32.0426C43.2825 32.0426 45.059 30.2661 45.059 28.0746C45.059 25.8831 43.2825 24.1066 41.091 24.1066C38.8996 24.1066 37.123 25.8831 37.123 28.0746C37.123 30.2661 38.8996 32.0426 41.091 32.0426Z" fill="white"/>
<path d="M15.0637 32.0426C12.8877 32.0426 11.0957 30.2506 11.0957 28.0746C11.0957 27.5626 11.181 27.0933 11.3517 26.6666" stroke="#000B8F" stroke-width="1.5" stroke-linecap="round" stroke-linejoin="round"/>
<path d="M13.7422 24.3199C14.1689 24.1919 14.5955 24.1066 15.0649 24.1066C17.2409 24.1066 19.0329 25.8986 19.0329 28.0746C19.0329 29.1413 18.6062 30.0799 17.9662 30.8053" stroke="#000B8F" stroke-width="1.5" stroke-linecap="round" stroke-linejoin="round"/>
<path d="M32.0454 27.8613C32.0454 27.9466 32.0454 27.9893 32.0454 28.0746C32.0454 30.2506 30.2534 32.0426 28.0774 32.0426C25.9014 32.0426 24.1094 30.2506 24.1094 28.0746C24.1094 25.8986 25.9014 24.1066 28.0774 24.1066C28.4614 24.1066 28.8027 24.1493 29.144 24.2346" stroke="#000B8F" stroke-width="1.5" stroke-linecap="round" stroke-linejoin="round"/>
<path fill-rule="evenodd" clip-rule="evenodd" d="M38.2324 25.3439C38.9577 24.5759 39.9817 24.1066 41.091 24.1066C43.267 24.1066 45.059 25.8986 45.059 28.0746C45.059 30.2506 43.267 32.0426 41.091 32.0426C38.915 32.0426 37.123 30.2506 37.123 28.0746C37.123 27.0079 37.5497 26.0693 38.2324 25.3439Z" stroke="#000B8F" stroke-width="1.5" stroke-linecap="round" stroke-linejoin="round"/>
</svg>
