<svg width="64" height="63" viewBox="0 0 64 63" fill="none" xmlns="http://www.w3.org/2000/svg">
<path d="M45.2578 58.935L44.2718 56.5704C44.2002 56.3991 44.0956 56.2435 43.9639 56.1127C43.8322 55.9818 43.676 55.8781 43.5042 55.8076C43.3324 55.7371 43.1485 55.7011 42.9628 55.7017C42.7771 55.7024 42.5933 55.7396 42.422 55.8112L39.6562 56.9718C39.4606 57.0535 39.2453 57.0759 39.037 57.0363C38.8288 56.9967 38.6369 56.8969 38.4849 56.7492C38.3329 56.6014 38.2277 56.4122 38.1823 56.2051C38.1369 55.9981 38.1534 55.7822 38.2296 55.5844L42.8758 43.5436L51.8585 47.0118L47.2646 58.9088C47.1866 59.1099 47.0502 59.2831 46.873 59.4062C46.6958 59.5292 46.4858 59.5966 46.27 59.5994C46.0543 59.6022 45.8427 59.5403 45.6623 59.4219C45.4819 59.3035 45.341 59.134 45.2578 58.935Z" fill="white"/>
<path d="M54.4368 62.2027L55.4925 59.8205C55.6404 59.4862 55.9124 59.2225 56.251 59.0849C56.5896 58.9474 56.9684 58.9468 57.3075 59.0832L60.0472 60.1914C60.2426 60.2699 60.4567 60.2898 60.6632 60.2484C60.8697 60.2071 61.0596 60.1063 61.2097 59.9585C61.3597 59.8108 61.4634 59.6224 61.508 59.4166C61.5526 59.2108 61.5362 58.9963 61.4607 58.7997L54.3103 40.2717L45.332 43.7398L52.4387 62.1545C52.5159 62.354 52.6506 62.5262 52.8255 62.6492C53.0005 62.7722 53.208 62.8407 53.4218 62.8458C53.6356 62.8509 53.8461 62.7924 54.0268 62.6779C54.2074 62.5635 54.3501 62.3982 54.4368 62.2027Z" fill="white"/>
<path d="M45.2578 58.935L44.2718 56.5704C44.2002 56.3991 44.0956 56.2435 43.9639 56.1127C43.8322 55.9818 43.676 55.8781 43.5042 55.8076C43.3324 55.7371 43.1485 55.7011 42.9628 55.7017C42.7771 55.7024 42.5933 55.7396 42.422 55.8112L39.6562 56.9718C39.4606 57.0535 39.2453 57.0759 39.037 57.0363C38.8288 56.9967 38.6369 56.8969 38.4849 56.7492C38.3329 56.6014 38.2277 56.4122 38.1823 56.2051C38.1369 55.9981 38.1534 55.7822 38.2296 55.5844L42.8758 43.5436L51.8585 47.0118L47.2646 58.9088C47.1866 59.1099 47.0502 59.2831 46.873 59.4062C46.6958 59.5292 46.4858 59.5966 46.27 59.5994C46.0543 59.6022 45.8427 59.5403 45.6623 59.4219C45.4819 59.3035 45.341 59.134 45.2578 58.935Z" fill="#707BFF"/>
<path d="M54.4368 62.2027L55.4925 59.8205C55.6404 59.4862 55.9124 59.2225 56.251 59.0849C56.5896 58.9474 56.9684 58.9468 57.3075 59.0832L60.0472 60.1914C60.2426 60.2699 60.4567 60.2898 60.6632 60.2484C60.8697 60.2071 61.0596 60.1063 61.2097 59.9585C61.3597 59.8108 61.4634 59.6224 61.508 59.4166C61.5526 59.2108 61.5362 58.9963 61.4607 58.7997L54.3103 40.2717L45.332 43.7398L52.4387 62.1545C52.5159 62.354 52.6506 62.5262 52.8255 62.6492C53.0005 62.7722 53.208 62.8407 53.4218 62.8458C53.6356 62.8509 53.8461 62.7924 54.0268 62.6779C54.2074 62.5635 54.3501 62.3982 54.4368 62.2027Z" fill="#707BFF"/>
<path d="M40.821 48.9009L42.8846 43.5479L51.8673 47.0163L47.2734 58.9132C47.1954 59.1144 47.059 59.2876 46.8818 59.4106C46.7045 59.5337 46.4946 59.6008 46.2788 59.6036C46.0631 59.6065 45.8514 59.5448 45.6711 59.4264C45.4907 59.308 45.3498 59.1383 45.2665 58.9392L44.2806 56.5747C44.209 56.4034 44.1044 56.2478 43.9727 56.1169C43.841 55.9861 43.6847 55.8826 43.513 55.8121C43.3412 55.7416 43.1573 55.7056 42.9716 55.7062C42.7859 55.7069 42.6021 55.7441 42.4308 55.8157L39.665 56.976C39.4694 57.0577 39.2541 57.0802 39.0458 57.0406C38.8376 57.001 38.6456 56.9012 38.4937 56.7534C38.3417 56.6057 38.2365 56.4164 38.1911 56.2094C38.1457 56.0023 38.1622 55.7866 38.2384 55.5889L38.8535 53.9921" stroke="#000B8F" stroke-width="2" stroke-linecap="round" stroke-linejoin="round"/>
<path d="M39.6826 51.8021L39.9924 51.0037" stroke="#000B8F" stroke-width="2" stroke-linecap="round" stroke-linejoin="round"/>
<path d="M50.0654 56.0077L52.4387 62.1545C52.5159 62.354 52.6506 62.5262 52.8255 62.6492C53.0005 62.7722 53.208 62.8407 53.4218 62.8458C53.6356 62.8509 53.8461 62.7924 54.0268 62.6779C54.2074 62.5635 54.3501 62.3982 54.4368 62.2027L55.4925 59.8205C55.6404 59.4862 55.9124 59.2225 56.251 59.0849C56.5896 58.9474 56.9684 58.9468 57.3075 59.0832L60.0472 60.1914C60.2426 60.2699 60.4567 60.2898 60.6632 60.2484C60.8697 60.2071 61.0596 60.1063 61.2097 59.9585C61.3597 59.8108 61.4634 59.6224 61.508 59.4166C61.5526 59.2108 61.5362 58.9963 61.4607 58.7997L54.3103 40.2717L45.332 43.7398L46.0955 45.725" stroke="#000B8F" stroke-width="2" stroke-linecap="round" stroke-linejoin="round"/>
<path d="M61.5046 0H2.49543C1.11724 0 0 1.11724 0 2.49543V40.8911C0 42.2693 1.11724 43.3865 2.49543 43.3865H61.5046C62.8828 43.3865 64 42.2693 64 40.8911V2.49543C64 1.11724 62.8828 0 61.5046 0Z" fill="white"/>
<path d="M2.49543 1H61.5046C62.3305 1 63 1.66953 63 2.49543V40.8911C63 41.717 62.3305 42.3865 61.5046 42.3865H2.49543C1.66953 42.3865 1 41.717 1 40.8911V2.49543C1 1.66953 1.66953 1 2.49543 1Z" stroke="#000B8F" stroke-width="2" stroke-linecap="round" stroke-linejoin="round"/>
<path d="M20.3389 5.96375H43.6616" stroke="#000B8F" stroke-width="2" stroke-linecap="round" stroke-linejoin="round"/>
<path d="M25.4863 9.76361H38.5132" stroke="#000B8F" stroke-width="2" stroke-linecap="round" stroke-linejoin="round"/>
<path d="M36.1924 19.5228H44.1149" stroke="#707BFF" stroke-width="2" stroke-linecap="round" stroke-linejoin="round"/>
<path d="M5.06543 19.5228H30.0547" stroke="#707BFF" stroke-width="2" stroke-linecap="round" stroke-linejoin="round"/>
<path d="M31.3848 25.2205H34.7571" stroke="#707BFF" stroke-width="2" stroke-linecap="round" stroke-linejoin="round"/>
<path d="M12.0713 25.2205H26.1321" stroke="#707BFF" stroke-width="2" stroke-linecap="round" stroke-linejoin="round"/>
<path d="M5.06543 25.2205H6.95009" stroke="#707BFF" stroke-width="2" stroke-linecap="round" stroke-linejoin="round"/>
<path d="M6.30859 37.3703C6.37698 36.5534 6.68541 35.7751 7.19497 35.1329C7.70453 34.4908 8.39254 34.0135 9.17254 33.7613C9.95254 33.5091 10.7896 33.4931 11.5787 33.7153C12.3678 33.9375 13.0736 34.3881 13.6074 35.0102C14.1789 35.6777 14.7416 36.6287 15.6141 36.5327C16.5827 36.4236 16.8575 35.1628 17.5119 34.4342C17.7451 34.1765 18.0394 33.9816 18.3676 33.8674C18.6959 33.7532 19.0476 33.7233 19.3905 33.7807C19.7333 33.8381 20.0562 33.9808 20.3294 34.1957C20.6027 34.4105 20.8174 34.6906 20.954 35.0102" stroke="#000B8F" stroke-width="2" stroke-linecap="round" stroke-linejoin="round"/>
<path d="M59.7374 41.3491C59.6194 41.8787 59.3083 42.3453 58.8648 42.6579C58.5595 42.9022 58.2584 43.1552 57.9443 43.3951C57.4246 43.8065 57.0376 44.3619 56.8318 44.9919C56.7053 45.354 56.5613 45.7075 56.4217 46.0609C56.277 46.4804 56.0023 46.8429 55.6375 47.0955C55.2726 47.3482 54.8367 47.4777 54.3931 47.4655L53.2457 47.5267C52.6431 47.5441 52.0572 47.7282 51.553 48.0588C51.0906 48.3642 50.6194 48.6652 50.1395 48.9313C50.0006 49.008 49.8545 49.0709 49.7033 49.119C49.4623 49.186 49.2102 49.204 48.9622 49.1718C48.7141 49.1396 48.4751 49.0577 48.2592 48.9313C47.9018 48.7428 47.5578 48.53 47.2296 48.2944C46.832 47.9906 46.3783 47.7682 45.8946 47.64C45.5171 47.5416 45.1286 47.4918 44.7385 47.4917H44.6992C44.3298 47.4831 43.9614 47.4525 43.5956 47.4001C43.2708 47.3688 42.9605 47.2499 42.6978 47.0563C42.4351 46.8627 42.2297 46.6017 42.1035 46.3007C41.9321 45.9361 41.7863 45.56 41.6672 45.1751C41.4049 44.3541 40.8828 43.6405 40.1796 43.1421C39.8541 42.901 39.5438 42.6402 39.2503 42.3612C38.994 42.1235 38.808 41.82 38.7126 41.4837C38.6172 41.1475 38.6161 40.7917 38.7093 40.4548C38.776 40.1153 38.8635 39.7801 38.9711 39.4513C39.2484 38.6336 39.2484 37.7475 38.9711 36.9298C38.8752 36.6244 38.8053 36.3059 38.7268 35.9961C38.5951 35.5716 38.602 35.1162 38.7463 34.6958C38.8906 34.2755 39.1649 33.9119 39.5296 33.6578C39.7564 33.4789 39.9658 33.2781 40.2058 33.1167C40.8956 32.6371 41.404 31.9395 41.6497 31.1361C41.7889 30.7326 41.9521 30.3378 42.1384 29.9538C42.2968 29.625 42.5444 29.3471 42.8529 29.152C43.1614 28.9569 43.5185 28.8524 43.8835 28.8502C44.3197 28.8153 44.7822 28.7934 45.2316 28.7803C45.9739 28.7245 46.6829 28.4497 47.2689 27.9906C47.5088 27.8248 47.7487 27.668 47.9931 27.5109C48.3549 27.2535 48.788 27.1151 49.2321 27.1151C49.6762 27.1151 50.1092 27.2535 50.4711 27.5109C50.8114 27.7247 51.1472 27.9472 51.4832 28.174C52.0628 28.5628 52.7441 28.7722 53.442 28.776C53.9492 28.7875 54.455 28.8341 54.9558 28.9156C55.2498 28.9608 55.5277 29.0793 55.764 29.26C56.0003 29.4407 56.1875 29.6777 56.3083 29.9496C56.4467 30.2028 56.5607 30.4686 56.6486 30.7435C56.9425 31.8374 57.6309 32.784 58.5812 33.4005C58.8687 33.6156 59.1333 33.8597 59.3709 34.129C59.5425 34.3255 59.6702 34.5562 59.7455 34.806C59.8207 35.0558 59.8417 35.3188 59.8071 35.5773C59.781 35.6864 59.7504 35.8347 59.7155 36.0136C59.6569 36.292 59.5841 36.5672 59.4974 36.8382C59.2797 37.487 59.2286 38.1801 59.349 38.8538C59.384 39.0596 59.4351 39.2622 59.5018 39.46C59.5977 39.7567 59.6545 40.0622 59.733 40.3632C59.8108 40.6871 59.8123 41.0245 59.7374 41.3491Z" fill="white"/>
<path d="M59.7379 41.3491C59.6199 41.8787 59.3088 42.3453 58.8653 42.6579C58.5599 42.9022 58.2589 43.1552 57.9448 43.3952C57.4251 43.8065 57.0381 44.362 56.8323 44.992C56.7057 45.3541 56.5618 45.7075 56.4222 46.0609C56.2775 46.4804 56.0028 46.8429 55.638 47.0955C55.2731 47.3482 54.8372 47.4777 54.3936 47.4655L53.2462 47.5267C52.6436 47.5441 52.0577 47.7282 51.5535 48.0588C51.0911 48.3642 50.6199 48.6652 50.14 48.9313C50.0011 49.008 49.855 49.0709 49.7038 49.119C49.5703 49.0776 49.4415 49.0221 49.3198 48.9533C48.9927 48.7843 48.6791 48.5903 48.3819 48.373C47.7193 47.8817 46.9118 47.6254 46.0871 47.6445H45.8951C45.6246 47.6445 45.3542 47.6009 45.0837 47.5704C44.9669 47.5554 44.8516 47.5304 44.739 47.496C44.5142 47.4227 44.3077 47.3023 44.1332 47.1428C43.9587 46.9833 43.8201 46.7886 43.7269 46.5713C43.5685 46.2401 43.4316 45.899 43.3168 45.5503C43.0825 44.8025 42.607 44.1535 41.9644 43.7049C41.671 43.4834 41.3899 43.2461 41.1224 42.9938C40.8882 42.7761 40.7184 42.4981 40.6315 42.1903C40.5445 41.8826 40.5438 41.5569 40.6294 41.2488C40.7036 40.9434 40.7647 40.6337 40.865 40.3371C41.1217 39.5967 41.1217 38.7913 40.865 38.0509C40.7778 37.7717 40.7124 37.4839 40.6426 37.2003C40.5234 36.8147 40.5297 36.4012 40.6607 36.0194C40.7916 35.6375 41.0404 35.3071 41.3711 35.0757C41.5805 34.9143 41.7724 34.7354 41.9862 34.5828C42.6111 34.1487 43.072 33.517 43.295 32.7896C43.4178 32.423 43.5635 32.0646 43.7312 31.7164C43.8711 31.4184 44.0924 31.1662 44.3695 30.9887C44.6467 30.8111 44.9683 30.7156 45.2975 30.713C45.7075 30.6781 46.1133 30.6607 46.5234 30.6476C47.1962 30.593 47.8387 30.3445 48.3731 29.9321C48.5913 29.7794 48.8094 29.6398 49.0319 29.4958C49.3609 29.2626 49.7541 29.1373 50.1574 29.1373C50.5607 29.1373 50.954 29.2626 51.283 29.4958C51.5884 29.6965 51.8982 29.8972 52.1992 30.1066C52.727 30.4573 53.3454 30.6468 53.9791 30.6519C54.441 30.6578 54.9019 30.6988 55.3577 30.7742C55.6242 30.8157 55.8759 30.9233 56.09 31.0871C56.3041 31.2509 56.4738 31.4658 56.5836 31.7121C56.71 31.9429 56.8138 32.1853 56.8934 32.4362C57.1573 33.4282 57.7789 34.2876 58.6385 34.8488C58.9004 35.0431 59.1403 35.2655 59.3539 35.5119C59.4866 35.6492 59.5865 35.8147 59.6462 35.9961C59.5875 36.2745 59.5147 36.5498 59.428 36.8207C59.2103 37.4695 59.1593 38.1627 59.2798 38.8363C59.2327 39.3439 59.2951 39.8557 59.463 40.3371C59.5502 40.6032 59.6026 40.8823 59.6724 41.1572C59.716 41.2313 59.7248 41.2924 59.7379 41.3491Z" fill="#C2C7FF"/>
<path d="M42.1914 29.8273C42.3334 29.5762 42.5312 29.3611 42.7694 29.1984C43.0077 29.0358 43.2801 28.9301 43.5657 28.8893" stroke="#000B8F" stroke-width="2" stroke-linecap="round" stroke-linejoin="round"/>
<path d="M56.5526 45.6551C56.2429 46.8461 55.5013 47.4001 54.3932 47.4656C54.0092 47.4656 53.6296 47.5048 53.2501 47.5222C52.646 47.5389 52.0585 47.7232 51.5531 48.0546C51.0863 48.36 50.6195 48.661 50.1352 48.9271C49.8501 49.0965 49.5245 49.1857 49.1928 49.1857C48.8612 49.1857 48.5357 49.0965 48.2505 48.9271C47.8921 48.7388 47.548 48.5243 47.2209 48.2857C46.489 47.7465 45.5995 47.4643 44.6906 47.483C44.3212 47.478 43.9525 47.4488 43.5869 47.3957C43.2622 47.3639 42.9522 47.245 42.6895 47.0515C42.4269 46.8579 42.2214 46.597 42.0948 46.2963C41.926 45.9306 41.7803 45.5549 41.6585 45.1709C41.3994 44.3483 40.8766 43.6337 40.1709 43.1379C39.8454 42.8968 39.5351 42.636 39.2416 42.3569C38.9853 42.1193 38.7993 41.8157 38.7039 41.4795C38.6085 41.1433 38.6074 40.7872 38.7006 40.4504C38.7699 40.1115 38.8573 39.7766 38.9624 39.4471C39.2397 38.6294 39.2397 37.743 38.9624 36.9253C38.8621 36.62 38.7923 36.3015 38.7137 35.9874C38.5824 35.5636 38.5894 35.1089 38.7338 34.6893C38.8781 34.2696 39.1522 33.9068 39.5165 33.6534C39.7434 33.4745 39.9528 33.2739 40.1927 33.1125C40.6401 32.8081 41.0118 32.4051 41.279 31.9345" stroke="#000B8F" stroke-width="2" stroke-linecap="round" stroke-linejoin="round"/>
<path d="M46.0566 28.6189C46.4733 28.461 46.8677 28.2499 47.2302 27.9907C47.4701 27.8249 47.7101 27.6679 47.9544 27.5152C48.3166 27.2584 48.7494 27.1205 49.1934 27.1205C49.6373 27.1205 50.0703 27.2584 50.4324 27.5152C50.7727 27.7333 51.1086 27.9515 51.4445 28.1871C52.0245 28.5746 52.7059 28.7825 53.4034 28.7848C53.9105 28.7985 54.4161 28.845 54.9172 28.9243C55.2112 28.9696 55.4891 29.0879 55.7254 29.2686C55.9617 29.4492 56.1488 29.6865 56.2696 29.9583C56.4098 30.2107 56.5238 30.4767 56.6099 30.7523C56.9022 31.8469 57.5911 32.794 58.5426 33.4093C58.8312 33.623 59.0959 33.8673 59.3321 34.1378C59.5038 34.3342 59.6315 34.565 59.7067 34.8148C59.782 35.0645 59.803 35.3275 59.7684 35.5861C59.703 35.8522 59.6201 36.3539 59.463 36.8338C59.1738 37.6823 59.1738 38.6028 59.463 39.4513C59.5634 39.7436 59.6157 40.0535 59.6943 40.3545C59.8185 40.7753 59.806 41.2244 59.6586 41.6376C59.5112 42.0507 59.2365 42.4066 58.874 42.6537C58.4858 42.9591 58.1062 43.2774 57.7049 43.5697" stroke="#000B8F" stroke-width="2" stroke-linecap="round" stroke-linejoin="round"/>
<path d="M49.1972 43.5784C52.1921 43.5784 54.6199 41.1506 54.6199 38.1557C54.6199 35.1608 52.1921 32.7329 49.1972 32.7329C46.2023 32.7329 43.7744 35.1608 43.7744 38.1557C43.7744 41.1506 46.2023 43.5784 49.1972 43.5784Z" fill="white"/>
<path d="M44.416 35.5948C44.4553 35.5163 44.4989 35.4421 44.5425 35.3679" stroke="#000B8F" stroke-width="2" stroke-linecap="round" stroke-linejoin="round"/>
<path d="M54.1755 36.0006C54.4681 36.6812 54.6166 37.4149 54.6117 38.1557C54.6334 39.5835 54.091 40.9621 53.1024 41.9924C52.1138 43.0227 50.7587 43.6215 49.3313 43.6589C47.9039 43.6962 46.5194 43.169 45.4783 42.1918C44.4372 41.2146 43.8235 39.8662 43.7705 38.4393" stroke="#000B8F" stroke-width="2" stroke-linecap="round" stroke-linejoin="round"/>
<path d="M46.3838 33.5184C47.2321 33.0037 48.2055 32.7319 49.1977 32.733C50.1889 32.7291 51.1616 33.0011 52.0072 33.5184" stroke="#000B8F" stroke-width="2" stroke-linecap="round" stroke-linejoin="round"/>
</svg>
