<?xml version="1.0" encoding="utf-8"?>
<!-- Generator: Adobe Illustrator 26.1.0, SVG Export Plug-In . SVG Version: 6.00 Build 0)  -->
<svg version="1.1" id="Layer_1" xmlns="http://www.w3.org/2000/svg" xmlns:xlink="http://www.w3.org/1999/xlink" x="0px" y="0px"
	 viewBox="0 0 22 22" style="enable-background:new 0 0 22 22;" xml:space="preserve">
<style type="text/css">
	.st0{fill-rule:evenodd;clip-rule:evenodd;fill:#000B8C;}
</style>
<path class="st0" d="M22,4.2c-0.8,0.4-1.7,0.6-2.6,0.7c0.9-0.6,1.6-1.4,2-2.5c-0.9,0.5-1.8,0.9-2.9,1.1c-0.8-0.9-2-1.4-3.3-1.4
	c-2.5,0-4.5,2-4.5,4.5c0,0.4,0,0.7,0.1,1C7,7.4,3.7,5.6,1.5,2.9C1.1,3.6,0.9,4.3,0.9,5.2c0,1.6,0.8,2.9,2,3.8c-0.7,0-1.4-0.2-2-0.6
	v0.1c0,2.2,1.6,4,3.6,4.4c-0.4,0-0.8,0.1-1.2,0.1c-0.3,0-0.6,0-0.8-0.1C3,14.7,4.7,16,6.7,16c-1.6,1.2-3.5,2-5.6,2
	c-0.4,0-0.7,0-1.1-0.1c2,1.3,4.4,2,6.9,2c8.3,0,12.8-6.9,12.8-12.8V6.5C20.6,5.9,21.4,5.1,22,4.2z"/>
</svg>
