<svg width="56" height="50" viewBox="0 0 56 50" fill="none" xmlns="http://www.w3.org/2000/svg">
<path d="M52.4924 11.176H2.87109V48.7653H52.4924V11.176Z" fill="white"/>
<path d="M52.4924 11.176H2.87109V48.7653H52.4924V11.176Z" fill="#F1F1F9"/>
<path d="M52.4924 11.176V22.7813C51.5538 23.5493 50.4018 24.0186 49.1218 24.0186C46.1778 24.0186 43.7884 21.288 43.7884 18.2586C43.7884 18.3866 43.7884 18.216 43.7884 18.216C43.7884 18.216 43.7884 18.2586 43.7884 18.3013V18.2586C43.7884 21.288 41.3564 24.0186 38.4124 24.0186C35.4684 24.0186 33.0364 21.5866 33.0364 18.5573C33.0364 21.5866 30.6471 24.0186 27.6604 24.0186C24.9298 24.0186 22.7538 21.7146 22.4124 19.0266C22.3698 18.7706 22.3698 18.5146 22.3698 18.2586V18.3013C22.3698 18.2586 22.3698 18.216 22.3698 18.216V18.3013C22.3698 18.3013 22.3698 18.3013 22.3698 18.2586C22.3698 21.288 19.8951 24.0186 16.9511 24.0186C14.0071 24.0186 11.5751 21.5866 11.5751 18.5573C11.5751 18.6853 11.5751 18.8133 11.5751 18.8986C11.4044 21.7573 9.05776 24.0186 6.24176 24.0186C4.96176 24.0186 3.80976 23.5493 2.87109 22.7813V11.176H52.4924Z" fill="#707BFF"/>
<path d="M2.87109 24.7013V11.176H52.4924V48.7653H2.87109V32.936" stroke="#000B8F" stroke-width="1.5" stroke-linecap="round" stroke-linejoin="round"/>
<path d="M2.87109 29.736V29.352" stroke="#000B8F" stroke-width="1.5" stroke-linecap="round" stroke-linejoin="round"/>
<path d="M54.4972 15.016C54.4972 15.1866 54.4972 15.3573 54.4972 15.528C54.4972 18.5573 52.1079 20.9893 49.1212 20.9893C46.1346 20.9893 43.7879 18.2586 43.7879 15.2293C43.7879 15.3573 43.7879 15.1866 43.7879 15.1866C43.7879 15.1866 43.7879 15.2293 43.7879 15.272V15.2293C43.7879 18.2586 41.3559 20.9893 38.4119 20.9893C35.4679 20.9893 33.0359 18.5573 33.0359 15.528C33.0359 18.5573 30.6466 20.9893 27.6599 20.9893C24.9292 20.9893 22.7532 18.6853 22.4119 15.9973C22.3692 15.7413 22.3692 15.4853 22.3692 15.2293V15.272C22.3692 15.2293 22.3692 15.1866 22.3692 15.1866V15.272C22.3692 15.272 22.3692 15.272 22.3692 15.2293C22.3692 18.2586 19.8946 20.9893 16.9506 20.9893C14.0066 20.9893 11.5746 18.5573 11.5746 15.528C11.5746 15.656 11.5746 15.784 11.5746 15.8693C11.4039 18.728 9.05723 20.9893 6.24123 20.9893C3.29723 20.9893 0.865234 18.5573 0.865234 15.528C0.865234 15.3573 0.865235 15.1866 0.907901 15.016H0.865234V8.18929L6.83857 1.23462H48.5239L54.4972 8.18929V15.016Z" fill="white"/>
<path d="M22.3689 8.23195L22.4116 15.9973C22.3689 15.7413 22.3689 15.4853 22.3689 15.2293C22.3689 18.2586 19.8942 20.9893 16.9502 20.9893C14.0062 20.9893 11.5742 18.5573 11.5742 15.5279C11.5742 15.6559 11.5742 15.7839 11.5742 15.8693L11.6169 8.44528L15.0302 2.38662L15.7556 1.27728H24.5876L22.3689 8.23195Z" fill="#C2C7FF"/>
<path d="M33.2069 8.23195L33.1643 15.9973C33.2069 15.7413 33.2069 15.4853 33.2069 15.2293C33.2069 18.2586 35.6816 20.9893 38.6256 20.9893C41.5696 20.9893 44.0016 18.5573 44.0016 15.5279C44.0016 15.6559 44.0016 15.7839 44.0016 15.8693L43.9589 8.44528L40.5456 2.38662L39.8203 1.27728H30.9883L33.2069 8.23195Z" fill="#C2C7FF"/>
<path fill-rule="evenodd" clip-rule="evenodd" d="M54.4972 15.016C54.4972 15.1866 54.4972 15.3573 54.4972 15.528C54.4972 18.5573 52.1079 20.9893 49.1212 20.9893C46.1346 20.9893 43.7879 18.2586 43.7879 15.2293C43.7879 15.3573 43.7879 15.1866 43.7879 15.1866C43.7879 15.1866 43.7879 15.2293 43.7879 15.272V15.2293C43.7879 18.2586 41.3559 20.9893 38.4119 20.9893C35.4679 20.9893 33.0359 18.5573 33.0359 15.528C33.0359 18.5573 30.6466 20.9893 27.6599 20.9893C24.9292 20.9893 22.7532 18.6853 22.4119 15.9973C22.3692 15.7413 22.3692 15.4853 22.3692 15.2293V15.272C22.3692 15.2293 22.3692 15.1866 22.3692 15.1866V15.272C22.3692 15.272 22.3692 15.272 22.3692 15.2293C22.3692 18.2586 19.8946 20.9893 16.9506 20.9893C14.0066 20.9893 11.5746 18.5573 11.5746 15.528C11.5746 15.656 11.5746 15.784 11.5746 15.8693C11.4039 18.728 9.05723 20.9893 6.24123 20.9893C3.29723 20.9893 0.865234 18.5573 0.865234 15.528C0.865234 15.3573 0.865235 15.1866 0.907901 15.016H0.865234V8.18929L6.83857 1.23462H48.5239L54.4972 8.18929V15.016Z" stroke="#000B8F" stroke-width="1.5" stroke-linecap="round" stroke-linejoin="round"/>
<path d="M11.5742 15.0159V8.23195L15.7556 1.27728" stroke="#000B8F" stroke-width="1.5" stroke-linecap="round" stroke-linejoin="round"/>
<path d="M22.3691 15.2293V8.23195L24.7158 1.27728" fill="white"/>
<path d="M22.3691 15.2293V8.23195L24.7158 1.27728" stroke="#000B8F" stroke-width="1.5" stroke-linecap="round" stroke-linejoin="round"/>
<path d="M43.7868 15.2293V8.23195L40.1602 1.27728" stroke="#000B8F" stroke-width="1.5" stroke-linecap="round" stroke-linejoin="round"/>
<path d="M32.9932 15.0159V8.23195L31.2012 1.27728" fill="white"/>
<path d="M32.9932 15.0159V8.23195L31.2012 1.27728" stroke="#000B8F" stroke-width="1.5" stroke-linecap="round" stroke-linejoin="round"/>
<path d="M36.0645 8.23196H54.4965H36.0645Z" fill="white"/>
<path d="M36.0645 8.23196H54.4965" stroke="#000B8F" stroke-width="1.5" stroke-linecap="round" stroke-linejoin="round"/>
<path d="M7.94727 8.23196H32.9926H7.94727Z" fill="white"/>
<path d="M7.94727 8.23196H32.9926" stroke="#000B8F" stroke-width="1.5" stroke-linecap="round" stroke-linejoin="round"/>
<path d="M5.64453 8.23196H5.98587H5.64453Z" fill="white"/>
<path d="M5.64453 8.23196H5.98587" stroke="#000B8F" stroke-width="1.5" stroke-linecap="round" stroke-linejoin="round"/>
<path d="M0.865234 8.23196H2.5719H0.865234Z" fill="white"/>
<path d="M0.865234 8.23196H2.5719" stroke="#000B8F" stroke-width="1.5" stroke-linecap="round" stroke-linejoin="round"/>
<path d="M7.82031 43.0479V25.4266C7.82031 25.1706 8.03365 24.9573 8.28965 24.9573H24.247C24.503 24.9573 24.7163 25.1706 24.7163 25.4266V48.8079H7.82031" fill="#C2C7FF"/>
<path d="M7.82031 43.0479V25.4266C7.82031 25.1706 8.03365 24.9573 8.28965 24.9573H24.247C24.503 24.9573 24.7163 25.1706 24.7163 25.4266V48.8079H7.82031" stroke="#000B8F" stroke-width="1.5" stroke-linecap="round" stroke-linejoin="round"/>
<path d="M46.1345 38.8666H31.0732C30.8598 38.8666 30.6465 38.6959 30.6465 38.4399V25.3839C30.6465 25.1706 30.8172 24.9573 31.0732 24.9573H46.1345C46.3478 24.9573 46.5612 25.1279 46.5612 25.3839V38.4399C46.5612 38.6533 46.3478 38.8666 46.1345 38.8666Z" fill="white" stroke="#000B8F" stroke-width="1.5" stroke-linecap="round" stroke-linejoin="round"/>
<path d="M37.6016 28.9253L42.5936 33.8746L37.6016 28.9253Z" fill="white"/>
<path d="M37.6016 28.9253L42.5936 33.8746" stroke="#000B8F" stroke-width="1.5" stroke-linecap="round" stroke-linejoin="round"/>
<path d="M41.5703 27.9439L43.5756 29.9066L41.5703 27.9439Z" fill="white"/>
<path d="M41.5703 27.9439L43.5756 29.9066" stroke="#000B8F" stroke-width="1.5" stroke-linecap="round" stroke-linejoin="round"/>
<path d="M22.156 27.6453H10.252V46.376H22.156V27.6453Z" fill="white" stroke="#000B8F" stroke-width="1.5" stroke-linecap="round" stroke-linejoin="round"/>
<path d="M13.623 31.9546L18.615 36.9466L13.623 31.9546Z" fill="white"/>
<path d="M13.623 31.9546L18.615 36.9466" stroke="#000B8F" stroke-width="1.5" stroke-linecap="round" stroke-linejoin="round"/>
<path d="M17.5898 30.9733L19.5952 32.9786L17.5898 30.9733Z" fill="white"/>
<path d="M17.5898 30.9733L19.5952 32.9786" stroke="#000B8F" stroke-width="1.5" stroke-linecap="round" stroke-linejoin="round"/>
</svg>
