<?xml version="1.0" encoding="utf-8"?>
<!-- Generator: Adobe Illustrator 26.2.1, SVG Export Plug-In . SVG Version: 6.00 Build 0)  -->
<svg version="1.1" id="Layer_1" xmlns="http://www.w3.org/2000/svg" xmlns:xlink="http://www.w3.org/1999/xlink" x="0px" y="0px"
	 viewBox="0 0 14 14" style="enable-background:new 0 0 14 14;" xml:space="preserve">
<style type="text/css">
	.st0{fill:#232526;}
</style>
<path class="st0" d="M13.3,2.8c0-0.1-0.1-0.2-0.1-0.2c-0.1-0.1-0.1-0.1-0.2-0.2l-3.5-2c-0.1,0-0.2-0.1-0.2-0.1c-0.1,0-0.2,0-0.3,0
	S8.8,0.4,8.8,0.4C8.7,0.5,8.6,0.6,8.6,0.7L7,3.4L5.4,0.7c0-0.1-0.1-0.1-0.2-0.2c0-0.1-0.1-0.1-0.2-0.1s-0.2,0-0.3,0
	c-0.1,0-0.2,0-0.2,0.1L1,2.5c0,0-0.1,0-0.1,0.1C0.8,2.7,0.8,2.8,0.7,2.8c0,0.2,0,0.3,0.1,0.5l2.7,4.6C3.2,8.4,3,9,3,9.7
	c0,0.6,0.1,1.2,0.4,1.7s0.6,1,1.1,1.4s1,0.6,1.6,0.8c0.6,0.1,1.2,0.1,1.8,0c0.6-0.1,1.1-0.4,1.6-0.8c0.5-0.4,0.8-0.9,1.1-1.4
	c0.3-0.6,0.4-1.2,0.4-1.8s-0.2-1.2-0.4-1.7l2.6-4.5c0-0.1,0.1-0.2,0.1-0.2C13.3,3,13.3,2.9,13.3,2.8z M2.3,3.3L4.6,2l2.1,3.7
	c-0.8,0-1.7,0.4-2.4,1L2.3,3.3z M7,12.3c-0.7,0-1.4-0.3-1.9-0.8s-0.8-1.2-0.8-1.9s0.3-1.4,0.8-1.9C5.6,7.3,6.3,7,7,7
	s1.4,0.3,1.9,0.8S9.7,9,9.7,9.7s-0.3,1.4-0.8,1.9C8.4,12.1,7.7,12.3,7,12.3z M9.7,6.7C9.3,6.4,8.9,6.1,8.4,5.9L7.8,4.7l1.6-2.8
	l2.3,1.3L9.7,6.7z"/>
</svg>
