<?xml version="1.0" encoding="utf-8"?>
<!-- Generator: Adobe Illustrator 20.0.0, SVG Export Plug-In . SVG Version: 6.00 Build 0)  -->
<svg version="1.1" id="Layer_1" xmlns="http://www.w3.org/2000/svg" xmlns:xlink="http://www.w3.org/1999/xlink" x="0px" y="0px"
	 width="178px" height="107px" viewBox="0 0 178 107" style="enable-background:new 0 0 178 107;" xml:space="preserve">
<style type="text/css">
	.st0{fill:#AAAAAA;}
	.st1{fill-rule:evenodd;clip-rule:evenodd;fill:#AAAAAA;}
</style>
<g>
	<path class="st1" d="M137.5,45.2c0-0.6-0.5-1.1-1.1-1.1h-1.6c-0.6,0-1.1,0.5-1.1,1.1V62c0,0.6,0.5,1.1,1.1,1.1h1.6
		c0.6,0,1.1-0.5,1.1-1.1V45.2L137.5,45.2z"/>
	<path class="st1" d="M139.5,45.7v0.8c0,0.3,0.3,0.6,0.6,0.6h11.1c0.5,0,0.9-0.4,0.9-0.9v-1.3c0-0.5-0.4-1-0.9-0.9
		c0,0-10.7,1.1-11.1,1.1C139.8,45,139.5,45.3,139.5,45.7L139.5,45.7z"/>
	<path class="st1" d="M130.6,63.1c-2.8,0-4.5-2.1-4.5-4.4V52h-0.8c-0.4,0-0.8-0.3-0.8-0.8v-1.1c0-0.4,0.4-0.8,0.8-0.8h0.8v-4.1
		c0-0.5,0.5-1.1,1.1-1.1h1.6c0.6,0,1.1,0.5,1.1,1.1v4.1h2.5c0.4,0,0.7,0.4,0.7,0.8v1.1c0,0.5-0.3,0.8-0.7,0.8h-2.5v6.2
		c0,1.2,0.8,2,2.1,2h0.2c0.5,0,0.8,0.4,0.8,0.8v1.2c0,0.5-0.4,0.8-0.8,0.8H130.6L130.6,63.1z"/>
	<path class="st1" d="M104.8,51.7c1.6,0,3.1,1.1,3.2,2.7h-6.4C101.7,52.9,103.1,51.7,104.8,51.7v-2.9c-4.4,0-7,3.5-7,7.1
		c0,3.9,2.7,7.4,7,7.4c2.9,0,5.8-1.6,6.4-4.1c0.1-0.3-0.1-0.8-0.6-0.8h-2.1c-0.4,0-0.7,0.2-0.9,0.5c-0.6,0.9-1.5,1.3-2.8,1.3
		c-1.8,0-3.1-1.4-3.2-3.1h8.9c0.8,0,1.2-0.4,1.2-1.2c0-3.6-2.2-7.1-7-7.1V51.7L104.8,51.7z"/>
	<path class="st1" d="M145.5,51.7c1.6,0,3.1,1.1,3.2,2.7h-6.4C142.5,52.9,143.9,51.7,145.5,51.7v-2.9c-4.4,0-6.9,3.5-6.9,7.1
		c0,3.9,2.7,7.4,7,7.4c2.9,0,5.9-1.6,6.4-4.1c0-0.3-0.2-0.8-0.6-0.8h-2.1c-0.4,0-0.7,0.2-0.9,0.5c-0.6,0.9-1.5,1.3-2.8,1.3
		c-1.9,0-3.1-1.4-3.3-3.1h9c0.8,0,1.2-0.4,1.2-1.2c0-3.6-2.1-7.1-7-7.1V51.7L145.5,51.7z"/>
	<path class="st1" d="M123,44.3H94c-0.6,0-1.2,0.5-1.2,1.2L93,56.9c0,0-6.3-11.3-6.6-11.9c-0.3-0.5-1-1.1-1.9-1.1h-2.4
		c-0.6,0-1.2,0.6-1.2,1.2v16.7c0,0.6,0.6,1.2,1.2,1.2h1.6c0.6,0,1.2-0.5,1.2-1.2l-0.1-11.7c0,0,6.3,11.4,6.6,11.9
		c0.4,0.6,1,1.1,1.9,1.1h2.2c0.6,0,1.2-0.5,1.2-1.2V47.2H123c0.5,0,0.8-0.4,0.8-0.8v-1.2C123.9,44.7,123.5,44.3,123,44.3L123,44.3z"
		/>
	<path class="st1" d="M118.4,51.6c1.2,0,2.2,0.5,2.5,1.2c0.2,0.4,0.5,0.5,0.9,0.5h1.7c0.3,0,0.6-0.3,0.6-0.6c0-2-2.4-3.8-5.8-3.8
		c-3.5,0-5.8,1.6-5.8,4.4c0,2,1.6,3.3,3.6,3.8c0.9,0.2,2.5,0.6,3.2,0.8c0.8,0.2,1.6,0.5,1.6,1.1c0,1.1-1.2,1.5-2.4,1.5
		c-1.2,0-2.4-0.5-2.7-1.4c-0.2-0.5-0.6-0.5-1.1-0.5h-1.8c-0.3,0-0.6,0.3-0.6,0.6v0.2c0,2,2.6,4,6.2,4c2.6,0,6.1-1.1,6.1-4.5
		c0-2-1.3-3.3-3.5-3.9c-0.8-0.2-2.9-0.7-3.3-0.9c-0.8-0.2-1.5-0.5-1.5-1.1C116.3,51.9,117.2,51.6,118.4,51.6L118.4,51.6z"/>
	<path class="st1" d="M54.2,40.5c0.3,0,0.6-0.3,0.6-0.6c0-0.3-0.3-0.6-0.6-0.6c-0.3,0-0.6,0.2-0.6,0.6
		C53.6,40.2,53.9,40.5,54.2,40.5L54.2,40.5z"/>
	<path class="st1" d="M46.4,39.5c0.2,0,0.5-0.2,0.5-0.5c0-0.3-0.2-0.5-0.5-0.5c-0.3,0-0.5,0.2-0.5,0.5
		C45.9,39.2,46.1,39.5,46.4,39.5L46.4,39.5z"/>
	<path class="st1" d="M40.5,51.4l-0.2-0.3c0.6-0.6,1.4-1.6,1.5-2.2c0.1-0.5,0.9-0.4,0.7,0.1C42.3,49.9,41.4,50.7,40.5,51.4
		L40.5,51.4z"/>
	<path class="st1" d="M35.6,39.6c-1.2,0.5-1.4,1.8-0.5,2.5c1,0.9,2.7,0.1,2.6-1.2c1.4,0,2.3-1.4,2.1-2.4c0.6-0.6,0.7-1.6,0-2.1
		c-0.8-0.5-1.6-0.3-2,0.6C36.3,37,35.1,38,35.6,39.6L35,39.4c-0.8-1.6,0.6-3.3,2.2-2.9c0.3-0.8,1.6-1.6,2.9-0.8
		c1.1,0.6,1.3,2.3,0.1,3.1c0.6,1.6-0.5,2.8-2.2,2.7c-0.2,2-2.1,2.2-3.3,1.3c-0.7-0.5-1-1.3-1.1-1.9c-0.1-0.6-0.1-1.1-0.7-1.7
		c-0.5-0.5-1.2-0.4-1.2-0.4c0-1.5-1.4-2.8-3.1-2.2c-0.6-0.5-1.3-0.6-1.9,0c-0.3,0.4-0.5,1.4,0.5,1.8c0,1.3,1,2.2,2.4,2
		c0,0.7,0.8,1.4,1.5,1.5v0.4c-0.7-0.1-1.1,0.2-1.6,0.8c-1.7,0-3,0.7-2.9,2c-1.2,0.2-1.4,1.5-0.7,2.2c0.7,0.6,1.7,0.4,2.1-0.4
		c1.2,0.2,2.3-0.6,2.3-1.7c1.2,0,1.7-0.5,1.9-1.5l0.4,0c0.1,1.1-0.4,2.2-1.8,2.1c0,1.4-1.3,2.1-2.6,1.6c-0.6,1.1-1.9,1.5-3,0.5
		c-1.1-1-0.6-2.7,0.7-3.2c0-1.3,1-2.6,2.9-2.1c0,0,0.2-0.6,0.9-0.6c-0.4-0.1-0.7-0.4-0.8-0.8c-1.4,0.3-2.7-1-2.3-2.3
		c-1.3-0.7-1.3-2-0.7-2.7c0.7-0.8,1.8-1,2.8-0.1c1.7-0.9,3.6,0.2,3.5,2.2c1.2-0.1,1.9,1,1.8,2.1c0.2-0.5,0.4-0.7,0.9-0.8L35.6,39.6
		L35.6,39.6z"/>
	<path class="st1" d="M38.5,37.3l0.3,0.2c-0.6,1.1-1.6,2.4-2.4,3.1l-0.3-0.3C36.7,39.4,38,37.8,38.5,37.3L38.5,37.3z"/>
	<path class="st1" d="M30.2,43.8l0.2,0.3c-0.7,0.7-2,1.7-2.7,2l-0.3-0.3C28.1,45.1,29.4,44.1,30.2,43.8L30.2,43.8z"/>
	<path class="st1" d="M31.9,40.3l-0.4,0.4c-0.9-0.6-2.8-2.2-3.2-2.8l0.3-0.3C29.6,38,31.2,39.6,31.9,40.3L31.9,40.3z"/>
	<path class="st1" d="M30.1,55.7c0.1,0.5,0,1.1,0.5,1.7c0.2,0.2,1.1,1.4,1.7,2c-0.9,0.4-2.7,1.1-4,1.3c-0.2,0-0.6,0.2-0.8,0.4
		c-0.2,0.3-0.4,0.8-0.4,1.3c0,0.4,0,0.9,0,1.3c0,0.4,0.2,1.6,0.6,2.5c0.5,0.9,0.9,1.2,1.5,1.5c0.1,0,0.3,0,0.7-0.1
		c1,0,1.7,0.6,2.1,1c0.1,0.2,0.4,0.2,0.7,0.2c0.8,0,1.6-0.3,2.5-0.6c0.2-0.1,0.7-0.5,1.1-0.9c0.5-0.4,3.3-2.7,4.5-3.3
		c0.6,0.4,1.7,0.8,2.7,0.8c0.1,0,0.3,0,0.5,0c0.3,0,0.8-0.2,1.3-0.3c1-0.2,2.1-0.4,2.5-0.4c0.9,0,3.5,0.1,4.2,0.1
		c0.6,0,1.6,0,1.9-0.1c0.5-0.2,1.8-0.5,3-1.1c1.2-0.5,3.7-2.2,4.1-2.7c0.2-0.2,0.4-0.4,0.5-0.6c0,0,0-0.1,0-0.1c0,0,0-1.7,0-1.7
		s0.6-0.6,0.8-0.9c0,0,0,0,0-0.1c-0.1-0.3-0.2-1.4-0.1-2.4l-0.6-0.3c0,1.3-0.5,2.4-1,3.1c-0.9,0.1-2.6,0.7-3.2,1.4l0.3,0.1
		c0.6-0.3,1.2-0.5,1.9-0.5c0.6,0,0.9,0.1,0.9,0.3c0,0.1-0.1,0.4-0.1,0.5c0,0.1-0.1,0.2-0.2,0.4c-0.9,0.9-1.8,1.7-3,2.3
		c-0.8,0.4-1.5,0.7-2.7,1.1c-0.4,0.1-0.8,0.2-1.1,0.3c-0.4,0-2.7,0-4,0c-1.3,0-4.1,0.2-4.9,0.4c-0.4,0.1-0.5,0.2-0.9,0.2
		c-0.9,0-2-0.4-2.7-0.7c-0.1,0-0.3,0.1-0.6,0.2c-0.5,0.3-1.6,1.8-2.2,1.3c-0.3,0.6-1.7,1.3-2.2,2c0-0.4,0.6-2.7,0.6-3.2
		c0-0.1,0-0.1,0-0.2c-0.5-0.9-2-1.4-2.7-1.6c-0.2,0-0.4-0.1-0.5-0.1l-1.3-0.4l-1.2,0.4l1.4,0.3L30.6,63c0.3-0.1,2.2-0.6,2.3-0.7
		c0.2,0,0.4-0.1,0.6,0c0.2,0.1,1,0.3,1.4,0.4c0.3,0.1,0.7,0.5,0.8,0.8c0,0.1,0,0.3,0.1,0.8c0,0.3,0,0.7-0.1,1.1
		c-0.2,0.9-0.6,1.5-0.7,1.7c-0.2,0.3-0.4,0.5-0.6,0.6c-0.4,0.2-0.8,0.3-1.3,0.3c-0.4,0-0.6,0-0.7-0.2c-0.5-0.6-1.6-1.3-2.8-1.1
		c-0.7-0.4-1.4-1.8-1.4-3c0-0.7,0.3-1.7,0.5-2.3c1.2-0.1,3.6-1.1,4.7-1.6c0.2,0,0.9-0.2,1.6-0.2c1.5,0,3.1,1.4,4,2.3
		c0.2-0.3,0.5-0.6,1.2-0.6c1.1,0,1.7,1,2.1,2l0.6-0.4c-0.1-0.6-0.4-1.2-0.9-1.7c-0.4-0.4-1.1-0.7-1.6-0.7c-0.3,0-0.7,0.1-0.9,0.1
		c-0.8,0-1.1-0.4-1.7-0.8c-0.6-0.4-1.8-1.1-2.6-1.1c-0.5,0-0.8,0.2-1.2,0.2c-0.7,0-0.9-0.3-1.2-0.7c-0.1-0.1-0.8-0.7-1-1
		c-0.1-0.1-0.3-0.7-0.3-1L30.1,55.7L30.1,55.7z"/>
	<path class="st1" d="M31.1,56.4c0.2,0.2,0.4,0.4,0.6,0.6c0.2,0.2,0.5,0.3,0.8,0.5c0.4,0.2,0.8,0.5,1.2,0.6c0.4,0.1,0.9,0.1,1.3,0.1
		c0.6,0,1.4-0.1,2.1,0.2c0.4,0.2,0.5,0.6,0.8,0.8c0.5,0.2,2,0.2,2.8,0.2c1.6,0,3.3-0.2,4.4-0.5l-0.5-0.6c-0.7,0.1-2.8,0.4-3.8,0.4
		c-1.3,0-2.6-0.2-2.6-0.8c0-0.4,0.4-1,1.2-1c0.9,0,2.2,0.5,2.4,0.6c0.2,0,0.3,0,0.5,0l0.5-0.3c-0.7-0.3-3-1.1-3.8-1.1
		c-0.4,0-0.5,0-0.8,0.4c-0.3,0.4-1.1,0.8-2.4,0.8c-0.7,0-1.7-0.1-2-0.2c-0.4-0.2-1.2-0.6-1.7-1c-0.6-0.5-1.2-1-1.6-1.6
		c-0.1-0.2-0.2-0.4-0.2-0.5c0-0.2,0-0.3,0.1-0.4c0.1,0.1,0.2,0.3,0.4,0.4c0.7,0.7,1.7,1.2,2.8,1.4c0.3,0,0.6,0.1,0.9,0.1
		c0.4,0,0.8-0.2,1.1-0.5l-0.4-0.5c-0.1,0-0.4,0-0.6,0c-1.5,0-3.4-1-3.9-2.2c0-0.1-0.1-0.1,0-0.3c0-0.1,0.1-0.3,0.1-0.5
		c0.1,0.1,0.3,0.2,0.5,0.4c0.6,0.4,1.6,0.9,1.8,1c0.5-0.1,1-0.3,1.3-0.5c0.3-0.1,0.8-0.3,1.3-0.3c1.1,0,2.4,0.6,3.6,1.2l0.8-0.3
		c-1.1-0.7-3.4-1.8-4.7-1.8c-0.8,0-1.5,0.5-2,0.5c-0.6,0-2.4-0.9-2.4-1.6c0-0.6,1.1-0.9,3-1.1c-0.3,0.5-0.6,1-0.9,1.5l0.5,0.3
		c2.9-4.3,6-7,8.5-8.7c1-0.6,1.1-1,1.5-1.6c0.8-1.6,1.5-2.9,2.8-2.9c0.6,0,1.1,0.4,1.4,0.8l1,0.3l-1,0.6l1,0.4
		c-1.3,0.4-3,1.6-3.7,3.4c-1.4,0.1-2,1.2-2.4,2.1c-0.3,0.6-0.8,0.9-1.5,1.3l-5.5,3.8l0.8,0.1l5.1-3.4c1-0.7,1.5-1.2,1.7-1.7
		c0.5-0.9,1-1.6,2-1.6c0.5,0,1,0.2,1.5,0.6l0.9,0.3l-1,0.6l0.8,0.5c-2.3,0.7-3.8,2.4-4.7,5.6l0.6,0.1c0.3-1.1,0.6-2,1.1-2.9
		c1.4,0,2.7-0.1,4.1-0.1c3.6,0,6.6,0.2,8.2,0.6l-0.6-1c-1.7-0.3-4.3-0.4-7.6-0.4c-1.1,0-2.3,0-3.5,0c0.8-0.8,1.8-1.5,3.5-2l-1.2-0.6
		l1.3-0.7L47,43.9c-0.3-0.3-0.7-0.5-1.2-0.6c0.6-1.7,2.5-2.7,4.4-3.5l-1.3-0.5l1.3-0.7l-2-0.6c-0.5-0.6-1.1-0.9-1.8-0.9
		c-1.9,0-2.7,1.6-3.4,3.1c-0.4,0.8-0.6,1.1-1.3,1.5c-1.4,1-3.3,2.4-5,4.2c-0.9-0.6-2.8-2.6-3.3-3.6c-0.2,0.2-0.4,0.8-0.4,0.8
		c0.2,0.2,2.4,2.4,3.2,3.3c0,0.1-0.1,0.1-0.2,0.2c-0.9,0.1-3.1,0.4-3.9,0.3l-0.4,0.8c0.5-0.1,2.8-0.3,3.7-0.4
		c-0.3,0.4-0.6,0.7-0.8,1.1c-2.9,0.3-4.8,0.9-4.8,2c0,0.2,0.1,0.4,0.1,0.5c0,0.5-0.2,0.6-0.5,0.8c-0.2,0.1-0.2,0.2-0.1,0.3
		c0.1,0.1,0.6,0.8,0.6,0.9c0,0.2-0.2,0.5-0.4,0.6c-0.2,0.2-0.2,0.2,0,0.4l0.8,1.8L31.1,56.4L31.1,56.4z"/>
	<path class="st1" d="M66.8,46.5c-0.2,0.2-0.4,0.4-0.5,0.6l-0.5-0.6c1.6-2.1,5.7-3,8.1-3.2v-1.1c-0.3,0.1-0.6,0.2-0.9,0.3
		c-0.5,0.1-0.8,0.2-1.2,0.2c-0.3,0-0.6-0.1-0.7-0.3c-0.3-0.5,0-1.1,1.1-1.8l-0.8-0.7c-0.6,0.8-1.3,1.7-1.9,2.3
		c-0.6,0.5-1.2,0.7-1.7,0.4c-0.3-0.2-0.4-0.3-0.4-0.8c0-0.8,0.5-1.9,0.9-2.7l-1-0.1C67,40,66.5,41,66,41.8c-0.6,1-1.4,1.7-2.2,2.3
		l-0.5-0.5c0.6-0.4,1.5-1.1,2.1-2c0.7-1,1.2-2.3,1.2-3.5l2.8,0.3c-0.4,0.5-1.1,1.7-1.3,2.5c-0.1,0.4-0.1,0.8,0,0.9
		c0.3,0.2,0.9-0.1,1.4-0.7c0.7-0.8,1.4-2,1.7-2.4l2.1,1.7c-0.9,0.5-1.8,1.1-1.6,1.4c0.1,0.3,0.7,0.2,1.4,0c0.5-0.2,1.1-0.4,1.5-0.7
		v2.8c-1,0-2.7,0.2-4.3,0.7c0.4,0.5,1.5,0.7,2.2,0.8l-0.3,2.2C70.3,46.9,68.9,46.5,66.8,46.5l0.7-0.6c1.6,0,3.2,0.5,4.1,1l0.1-0.9
		c-0.8-0.1-1.8-0.5-2.2-1.1c-0.7,0.2-1.4,0.6-1.9,1L66.8,46.5L66.8,46.5z"/>
	<path class="st1" d="M58.3,53.7l0.7-1.4c-0.7-0.8-1.5-1.9-2.2-2.9l-0.6-1c-1.3-2.5-0.9-3.7-1.6-4.8c-0.6-0.9-3.4-0.3-3.9-0.2
		l0.8-1.4L50,42l1.4-1.6c0.1-0.2,0.2-0.4,0.4-1c0.2-0.8,1-2.3,3.1-2.3c2.4,0,3.2,1.9,4.2,2.7c1.1,1,2.7,2.3,4.1,3.7l0.5,0.5
		c0.7,0.7,1.4,1.5,2.1,2.4l0.5,0.6c2.9,4.2,6.5,12.3,8.1,15.9c0.1,0.4,0.3,0.7,0.4,1c-1.1-0.6-2.3-1.3-3.5-2.2l-0.7-0.5
		c-0.4-0.3-0.9-0.6-1.3-1l-0.7-0.6c-0.5-0.3-0.9-0.7-1.3-1.1l1.5,8.4c0.1,0.5,0.5,0.4,0.9,0c0.3-0.4,0.5-0.5,0.3-1.1l-1.3-6.2
		l0.7,0.6l1.3,5.2c0.1,0.5,0.3,0.6,0.9,0.6c0.6,0,0.7-0.2,0.6-0.5l-1.4-4.4l0.7,0.5l1.3,3.9c0.3,1,0,1.1-0.6,1.1
		c-0.6,0-1.1-0.1-1.5,0c-0.3,0.2-0.7,0.8-1.2,1.3c-0.5,0.5-1.1,0.4-1.2-0.5l-1.6-9.6c-1.1-0.9-2-1.9-2.9-2.9
		c-0.4-0.2-0.8-0.4-1.2-0.5l-0.6-0.3c-0.2-0.1-0.4-0.2-0.5-0.2c-0.4,0.5-0.8,1.1-1.3,1.5c-0.3,0.2-0.5,0.4-0.8,0.4
		c-0.1,0-0.3,0-0.4-0.1c-0.1-0.1-0.3-0.2-0.5-0.5c-0.1-0.2-0.3-0.4-0.4-0.7c-0.3-0.5-0.7-1.2-1-1.7c-0.4-0.6-0.6-1-0.7-1.1
		c0-0.1-0.2-0.3-0.2-0.3c-0.2,0.3-0.3,0.8-0.3,1.1l-0.6-0.2c0-0.4,0.2-0.9,0.3-1.1c0-0.2-0.3-0.5-0.5-0.5c-0.3,0-0.5,0.3-0.7,0.9
		l-0.6,0.3c0-1,0.4-2,1.3-2c0.7,0,1.2,0.6,1.6,1.1C56.9,51.8,58,53.3,58.3,53.7l0.5,0.5c0.1,0.4,0.2,0.6,0.3,0.7
		c0.2,0.3,0.3,0.2,0.6,0c0.1-0.1,0.5-0.4,0.8-0.7c0.3-0.3,0.6-0.7,0.7-0.9c0.3,0.1,1,0.5,1.5,0.6c-2.2-2.7-4.2-5.9-5.1-8.1
		c-0.4-0.9,0.4-1.2,0.7-0.3c1,2.4,3.8,6.7,5.8,9c2.3,2.6,6.7,6.4,9.5,7.9c-0.4-0.8-0.9-1.9-1.6-3.3c-3.4-2-6.9-5.5-8.5-8.6l0.7,0.1
		c1.5,2.7,5.1,6.2,7.2,7.2c-1.9-4.1-4.4-9.3-6.4-11.6c-2.5-2.8-5.1-4.9-6.4-6c-1.2-1.1-1.7-2.5-3.6-2.5c-1.5,0-2.3,1.1-2.6,2.2
		c0,0.2-0.1,0.4-0.2,0.6l-0.7,0.8l1.5-0.2L52,42.4c0,0,2.4-0.5,3.3,0.6c0.9,1.2,0.3,2.6,1.8,5.3c0.6,1.2,2.2,3.3,2.8,3.8l-1.1,2.2
		L58.3,53.7L58.3,53.7z"/>
	<path class="st1" d="M34.8,54l-0.4-0.3c0.2-0.1,0.6-0.4,1-0.6c0.2,0,0.4-0.1,0.6-0.1c0.4,0,0.7,0.1,1.1,0.3
		c0.6,0.3,1.1,0.6,1.6,0.6c0.2,0,0.3,0,0.6,0c0.5,0,0.9,0.2,1.1,0.2c0.1,0,0.3-0.1,0.4-0.3c0.2-0.4,0.6-0.6,1.1-0.8
		c0.5-0.2,1.1-0.3,1.6-0.3c0.5,0,1,0.1,1.2,0.1c0,0-0.4,0.5-0.5,0.6c-0.5,0-1.4,0-2,0.2c-0.4,0.1-0.5,0.4-0.5,0.7
		c0,0.5,0.5,0.6,1.1,0.8c0.3,0.1,0.7,0.1,1,0.1c0.4,0,1.1-0.1,1.8-0.3c0.9-0.2,1.7-0.4,1.9-0.5l0.3,0.6c-1,0.3-2,0.6-2.9,0.8
		c-0.6,0.1-1.1,0.2-1.5,0.2c-0.8,0-1.6-0.3-2.2-0.6c-0.5-0.3-1.1-0.5-1.5-0.5c-0.5,0-1,0.2-1.4,0.5c-0.2,0.1-0.9,0.6-1.5,0.8
		c-0.5,0.2-0.9,0.3-1.3,0.3c-0.4,0-0.7,0-0.9-0.2l0.7-0.4c0.1,0.1,0.3,0.1,0.4,0.1c0.1,0,0.3,0,0.6-0.1c0.1,0,0.4-0.2,0.5-0.3
		c0.3-0.2,0.4-0.3,0.5-0.4c0.2-0.2,0.3-0.4,0-0.7c-0.1-0.1-0.3-0.2-0.5-0.3c-0.2-0.2-0.4-0.3-0.9-0.3C35.4,53.8,35,53.9,34.8,54
		L34.8,54z"/>
	<path class="st1" d="M45.1,54.3c0,0-0.5-0.1-0.6-0.1c0.3-0.4,0.7-0.7,1-0.9c0.6-0.4,1.2-0.6,2.2-0.7c0.2,0,0.8-0.1,1.1,0
		c0.3,0,0.7,0,1.1,0.1c0.3,0,0.5,0.1,0.8,0.2c0.1,0,0.6,0,0.8,0c0.6-0.1,1.5-0.4,1.9-0.6l0.2,0.7c-0.9,0.5-1.9,0.9-2.8,0.9
		c-0.5,0-1,0-1.5,0c-0.8-0.1-1.6-0.2-1.8-0.2C46.7,53.4,45.7,53.8,45.1,54.3L45.1,54.3z"/>
	<path class="st1" d="M44.4,57.9l-0.8-0.4c1.1-0.6,3-1.2,3.7-1.3c0.7-0.1,1.6-0.2,2.1-0.4c0.2,0.5,0.7,1.2,1.3,1.2
		c0.2,0,0.6-0.2,1-0.4c0.4-0.2,0.9-0.4,1.1-0.5c0.2-0.1,1-0.5,1.7-0.7c0.2-0.1,0.9-0.5,1-0.5l0.5,0.2c-0.1,0.6-0.4,1.3-0.6,1.8
		c-0.1,0.2-0.2,0.4-0.3,0.5c-0.2,0.2-0.5,0.5-0.9,0.8c-0.5,0.3-1,0.6-1.6,1c-0.5,0.3-0.9,0.5-1.4,0.7l-0.2-0.4
		c0.7-0.4,1.4-0.9,2.1-1.4c0.3-0.2,0.6-0.5,0.8-0.6c0.2-0.1,0.3-0.3,0.3-0.4c0.2-0.3,0.5-0.8,0.6-1.1c-0.2,0.1-1.2,0.6-1.7,0.9
		c-0.5,0.2-1.3,0.7-1.8,0.9c-0.4,0.2-0.7,0.3-0.9,0.3c-0.5,0-0.7-0.4-0.9-0.6c-0.3-0.6-0.6-0.6-1.6-0.6
		C46.7,56.9,45.3,57.3,44.4,57.9L44.4,57.9z"/>
	<path class="st1" d="M49.3,55.2c0,0-0.1-0.5-0.1-0.7c0,0,0.1,0,0.3,0c0.3,0,1.1,0.1,1.4,0.1c1.2,0,1.7-0.4,2-0.7
		c0.3-0.3,0.6-0.5,1.5-0.5c0.7,0,1.6,0.3,1.8,0.4l0,0.6c-0.4-0.2-0.9-0.3-1.3-0.3c-0.3,0-0.6,0-0.8,0.1c-0.2,0.1-0.4,0.3-0.5,0.5
		c-0.2,0.2-0.5,0.3-0.9,0.5c-0.4,0.2-0.9,0.3-1.6,0.3C50.2,55.4,49.7,55.3,49.3,55.2L49.3,55.2z"/>
	<path class="st1" d="M41.6,60.3l0.6-0.3c0.5,0.2,1.2,0.5,1.8,0.5c0.3,0,0.5-0.1,0.8-0.2c0.1,0,2-1,3-1.3c0.3-0.1,0.6-0.1,0.7-0.1
		c0.2,0,0.2,0.1,0.3,0.2c0.1,0.3,1.6,2.2,1.7,2.4c1.1-0.4,2.4-0.9,3.1-1.6c0.7-0.7,1.3-1.5,1.9-2.2c0.2-0.2,0.5-0.5,0.6-0.5
		c0.6-0.3,2.5-0.3,3.3-0.3l-0.5,0.6c-1.4,0-2.2,0.1-2.5,0.4c-0.2,0.1-0.4,0.3-0.6,0.6c-0.5,0.6-1,1.5-1.2,1.6
		c0.4,0.3,0.8,0.5,1.6,0.5c1.1,0,2-0.7,2.5-1.1l0.4,0.2c-0.3,0.4-0.6,0.8-1.1,1.1c-0.5,0.3-1.1,0.6-1.4,0.6
		c-0.6-0.1-2.2-0.4-2.5-0.5c-1.3,0.5-3.4,1.4-4.1,1.6c-0.1,0-0.3,0-0.5,0.1c-0.6,0-1.4,0-2.1,0c-0.5,0-1,0-1.2,0l-0.6-0.6
		c0.5,0.1,0.7,0.1,1.3,0.1c1.2,0,2-0.2,2.2-0.3c0.2,0,0.3-0.2,0.2-0.4c-0.1-0.3-0.3-0.6-0.5-0.9c-0.1-0.2-0.5-0.5-0.6-0.5
		c-0.2-0.1-0.4-0.1-0.8,0c-0.4,0.1-1.7,0.9-2.3,1.2c-0.3,0.1-0.5,0.2-1,0C43.4,61.1,42.1,60.6,41.6,60.3L41.6,60.3z"/>
	<path class="st1" d="M45.3,45.6c0.2,0,0.5-0.2,0.5-0.5s-0.2-0.5-0.5-0.5c-0.3,0-0.5,0.2-0.5,0.5S45,45.6,45.3,45.6L45.3,45.6z"/>
</g>
</svg>
