<?xml version="1.0" encoding="utf-8"?>
<!-- Generator: Adobe Illustrator 20.0.0, SVG Export Plug-In . SVG Version: 6.00 Build 0)  -->
<svg version="1.1" id="Layer_1" xmlns="http://www.w3.org/2000/svg" xmlns:xlink="http://www.w3.org/1999/xlink" x="0px" y="0px"
	 width="178px" height="107px" viewBox="0 0 178 107" style="enable-background:new 0 0 178 107;" xml:space="preserve">
<style type="text/css">
	.st0{fill:#AAAAAA;}
	.st1{fill-rule:evenodd;clip-rule:evenodd;fill:#AAAAAA;}
</style>
<g>
	<g>
		<path class="st1" d="M122.2,33.7c0-2.4,0-4.6,0-6.9c0-0.5-0.2-0.6-0.7-0.6c-0.5,0-1.1,0.1-1.3-0.6c-0.1-0.7,0.3-1,0.8-1.3
			c1.8-0.9,3.6-1.9,5.4-2.8c0.4-0.2,0.9-0.4,1.2,0.1c0.1,0.4,0,1-0.2,1.3c-1,1.2-1.4,2.5-1.4,4c0,6.1,0,12.2,0,18.3
			c0,1.3,0.1,1.4,1.3,1.9c0.5,0.2,1,0.3,0.9,1c-0.1,0.7-0.5,0.8-1.2,0.9c-1.2,0.1-2.4,0.3-3.6,0.6c-0.8,0.2-1.1,0-1.3-0.8
			c0-0.2,0-0.4-0.1-0.7c0-0.2,0-0.4-0.1-0.6c-1.5,1.3-3.2,2.1-5.1,1.8c-2.9-0.3-4.8-1.9-5.7-4.7c-0.8-2.7-0.8-5.3,0.6-7.8
			c1.8-3.2,5.5-4.6,9.3-3.6C121.4,33.4,121.7,33.5,122.2,33.7z M122.1,40.5c0-1.1,0-2.1,0-3.2c0-0.3-0.1-0.6-0.3-0.8
			c-1.3-1.6-3.6-1.9-5.3-0.7c-1.3,0.9-2,2.2-2.1,3.7c-0.3,2.4,0,4.7,2,6.4c1.2,1.1,2.5,1,3.9,0.4c1.2-0.5,1.9-1.5,1.9-2.9
			C122.1,42.3,122.1,41.4,122.1,40.5z"/>
		<path class="st1" d="M139.1,52.6c0,1,0,1.8,0,2.7c-21.7,0-43.5,0-65.3,0c0.6-0.9,1.2-1.7,1.8-2.4c0.1-0.1,0.3-0.2,0.5-0.2
			c0.2,0,0.4,0,0.6,0c20.5,0,40.9,0,61.4,0C138.4,52.6,138.7,52.6,139.1,52.6z"/>
		<path class="st1" d="M37.4,49.4c-1.8,0-3.7,0-5.5,0c-0.6,0-1.1-0.2-1.2-0.8c-0.1-0.7,0.3-1,0.8-1.2c1.4-0.4,2-1.3,2-2.7
			c0-5.2,0-10.4,0-15.6c0-1.5-0.2-1.6-1.6-2.1c-0.3-0.1-0.5-0.2-0.7-0.4c-0.6-0.5-0.5-1.2,0.2-1.4c0.3-0.1,0.7-0.1,1.1-0.1
			c2.4,0,4.9,0,7.3,0c0.5,0,1.2,0,1.2,0.7c0.1,0.7-0.4,1.1-1.1,1.2c-1.9,0.4-2.1,0.3-2.1,2.8c0,4.7,0,9.5,0,14.2
			c0,2.6,1,3.4,3.6,3.1c1.6-0.2,2.8-1.2,3.7-2.5c0.4-0.5,0.7-1.1,1.1-1.6c0.2-0.3,0.6-0.6,0.9-0.7c0.7-0.3,1.1,0.1,1,0.8
			c-0.6,2.3-1.3,4.7-2,7c-0.1,0.3-0.5,0.7-0.8,0.7c-0.4,0-0.9-0.2-1.1-0.5c-0.3-0.8-0.9-1-1.7-1c-1.8,0-3.5,0-5.3,0
			C37.4,49.3,37.4,49.3,37.4,49.4z"/>
		<path class="st1" d="M69.8,34.3c0.4-0.2,0.7-0.3,1-0.4c4.3-1.9,7.9,0.2,8.4,4.9c0.4,4.1-0.7,7.8-3,11.1c-1.1,1.5-2.4,2.9-3.6,4.3
			c-0.3,0.3-0.6,0.6-1,0.7c-0.4,0.1-0.8,0-1.2-0.1c0.1-0.3,0-0.7,0.2-1c1.1-1.8,2.4-3.5,3.4-5.4c1.6-2.9,1.7-6.1,1.4-9.4
			c-0.1-0.8-0.5-1.5-1-2.2c-0.7-1.1-1.9-1.3-3.1-0.9c-1.1,0.3-1.8,1-1.8,2.1c-0.1,1.5-0.1,2.9-0.2,4.4c0,1.2,0,2.3-0.1,3.5
			c0,0.8,0.4,1.2,1.1,1.3c0.3,0.1,0.7,0,1,0.2c0.3,0.2,0.6,0.5,0.7,0.8c0.1,0.5-0.3,0.6-0.8,0.6c-1.8,0-3.7,0-5.5,0
			c-0.6,0-1.2,0.1-1.8,0c-0.2,0-0.7-0.3-0.7-0.4c0-0.3,0.2-0.7,0.4-0.9c0.2-0.2,0.6-0.2,0.9-0.3c1-0.1,1.2-0.6,1.2-1.5
			c0-1.8,0-3.6,0-5.4c0-1.2,0-2.4,0-3.6c0-0.8-0.2-1.2-1-1.3c0,0-0.1,0-0.1,0c-0.5-0.1-1.2-0.3-1.1-0.9c0-0.7,0.7-1,1.3-0.9
			c1.2,0.1,2.3-0.2,3.4-0.7c1.2-0.5,1.5-0.2,1.4,1.1C69.7,34,69.8,34.1,69.8,34.3z"/>
		<path class="st1" d="M90.3,47.3c-1.7,1.4-3.5,1.9-5.6,1.8c-2.9-0.2-4.8-2.7-4-5.4c0.3-1.1,1-1.8,2-2.3c1.6-0.7,3.2-1.2,4.8-1.9
			c1-0.4,2-0.8,2.8-1.5c0.8-0.6,0.8-1.5,0.4-2.2c-0.4-0.7-1.4-1.2-2.3-0.9c-0.7,0.3-1.5,0.7-2.1,1.2c-0.6,0.4-1,1-1.5,1.5
			c-0.9,0.8-1.9,0.9-2.6,0.1c-0.6-0.7-0.6-1.6,0.2-2.5c1.4-1.5,3.3-2.2,5.3-2.4c1.1-0.1,2.2-0.1,3.3,0.1c2,0.3,3.1,1.6,3.2,3.6
			c0.1,2.3,0.1,4.6,0.2,6.9c0,0.7,0,1.5,0.1,2.2c0.1,0.7,0.4,1.3,1.2,1.5c0.5,0.1,1,0.3,1,1c-0.1,0.7-0.7,0.7-1.2,0.8
			c-1.1,0.2-2.2,0.3-3.3,0.5c-1.2,0.2-1.5,0.1-1.6-1.1C90.4,47.9,90.4,47.7,90.3,47.3z M90.7,40.6c-1.4,0.5-2.7,0.9-4,1.4
			c-0.4,0.2-0.9,0.4-1.2,0.7c-0.9,0.7-1.1,1.5-0.6,2.4c0.5,1,1.4,1.5,2.4,1.4c1.6-0.2,3-1.4,3.3-3.1C90.6,42.5,90.6,41.6,90.7,40.6z
			"/>
		<path class="st1" d="M49.6,41.6c0-5.1,3.8-8.7,8.9-8.4c2.5,0.2,4.4,2,4.5,4.4c0,1.2-0.5,2.1-1.6,2.6c-1.5,0.7-3,1.3-4.5,2
			c-0.5,0.2-1,0.5-1.5,0.8c-1.1,0.7-1.2,1.7-0.3,2.7c1.3,1.4,4,1.5,5.8,0.2c0.3-0.2,0.7-0.5,1.1-0.7c0.3-0.1,0.8-0.1,0.9,0
			c0.2,0.2,0.2,0.6,0.1,0.9c-0.4,1.1-1.2,1.8-2.2,2.3C56.5,50.7,49.7,49.2,49.6,41.6z M53.6,41.1c0.1,0.1,0.2,0.1,0.3,0.2
			c1.5-0.8,3-1.6,4.4-2.4c0.7-0.4,0.9-1,0.8-1.7c-0.2-0.9-0.6-1.6-1.6-1.8c-1.9-0.4-3.6,0.7-3.8,2.6C53.5,39,53.6,40.1,53.6,41.1z"
			/>
		<path class="st1" d="M132.1,46.4c0.6,0.9,2,1.3,3.2,1c1-0.2,1.5-0.9,1.7-1.9c0.1-0.8-0.1-1.4-0.7-1.8c-0.7-0.4-1.4-0.7-2.1-1
			c-0.4-0.2-0.9-0.3-1.3-0.4c-2.1-0.7-3.2-1.9-3.3-3.8c-0.1-1.9,1-3.7,2.8-4.6c1.6-0.8,3.2-0.8,4.7,0c0.7,0.4,1.4,0.5,2.1-0.1
			c0.2-0.2,0.8-0.2,1,0c0.2,0.1,0.2,0.7,0.1,1c-0.5,1.1-1,2.2-1.5,3.4c-0.2,0.5-0.5,0.8-1.2,0.6c-0.7-0.1-0.5-0.6-0.5-1
			c0-1.8-1.1-2.7-2.8-2.6c-0.9,0.1-1.5,0.7-1.7,1.4c-0.2,1,0.1,1.7,1.1,2.1c1.2,0.5,2.4,0.9,3.6,1.4c2.2,0.8,3.1,2,3.1,3.9
			c0,2.4-1.2,4.2-3.2,4.9c-2.2,0.8-4.4,0.8-6.6-0.2c-1.4-0.7-2.2-1.8-2.2-3.3c0-0.9,0.4-1.5,1.2-1.9c0.9-0.4,1.7-0.3,2.5,0.2
			C132.8,44.2,132.8,45.2,132.1,46.4z"/>
		<path class="st1" d="M70,52.7c-0.5,0.8-0.9,1.6-1.4,2.3c-0.2,0.2-0.6,0.3-0.8,0.3c-1.9,0-3.8,0-5.7,0c-10.2,0-20.3,0-30.5,0
			c-0.4,0-0.7,0-1.1,0c0-0.9,0-1.7,0-2.6C43.6,52.7,56.7,52.7,70,52.7z"/>
		<path class="st1" d="M103.8,35.7c0.8-0.6,1.3-1.1,2-1.5c0.8-0.4,1.8-0.8,2.7-0.9c1.3-0.1,2.2,0.8,2.1,2.2c-0.1,0.7-0.2,1.4-0.5,2
			c-0.3,0.8-0.8,0.8-1.4,0.3c-0.2-0.2-0.3-0.3-0.4-0.5c-0.8-1.1-1.2-1.3-2.3-0.5c-1.3,0.9-2.1,2.1-2.1,3.7c0,1.7-0.1,3.3-0.1,5
			c0,1.2,0.2,1.4,1.3,1.6c0.2,0,0.4,0.1,0.6,0.1c0.5,0.1,0.9,0.4,0.8,0.9c-0.1,0.3-0.6,0.6-0.9,0.6c-2.3,0.1-4.7,0.1-7,0.1
			c-0.5,0-0.8-0.1-0.9-0.7c0-0.5,0.1-0.9,0.7-1c1.7-0.2,1.7-0.8,1.7-2.4c0-2.7,0-5.3,0-8c0-0.8-0.2-1.3-1.1-1.4
			c-0.5,0-1.1-0.2-1.1-0.9c0-0.7,0.6-0.8,1.1-0.9c1.2-0.2,2.4-0.5,3.6-0.8c0.9-0.2,1.3,0,1.3,1C103.8,34.3,103.8,34.9,103.8,35.7z"
			/>
		<path class="st1" d="M87,68.9c0.9-0.5,1.8-1.1,2.7-1.3c2-0.5,3.5,0.6,3.7,2.6c0.2,1.5,0.4,3,0.5,4.4c0.1,0.7,0.3,1.1,1.1,1.2
			c0.2,0,0.4,0.4,0.7,0.6c-0.2,0.2-0.4,0.4-0.7,0.5c-1.2,0.2-2.5,0.3-3.7,0.4c-0.3,0-0.5-0.2-0.8-0.4c0.2-0.2,0.3-0.6,0.5-0.7
			c0.7-0.3,0.9-0.7,0.8-1.4c-0.2-1.4-0.3-2.8-0.5-4.2c-0.2-1.1-0.8-1.6-1.6-1.6c-1,0-1.8,0.5-2.1,1.5c-0.1,0.4-0.2,0.8-0.1,1.2
			c0.1,1.2,0.3,2.4,0.4,3.6c0.1,0.7,0.4,1.1,1.1,1.2c0.2,0,0.4,0.4,0.7,0.6c-0.2,0.2-0.4,0.5-0.7,0.5c-1.2,0.2-2.5,0.3-3.8,0.4
			c-0.2,0-0.5-0.2-0.7-0.3c0.2-0.2,0.3-0.6,0.5-0.7c0.8-0.3,0.9-0.9,0.8-1.5c-0.4-3.5-0.8-7-1.2-10.6c-0.1-0.6-0.1-1.3-1.1-1
			c-0.1,0-0.4-0.1-0.5-0.2c0-0.2,0-0.5,0.1-0.7c0.3-0.3,0.6-0.5,0.9-0.7c0.8-0.5,1.6-1.1,2.4-1.6c0.2-0.1,0.5-0.1,0.8-0.1
			c0,0.3,0.1,0.6,0,0.8c-0.8,0.8-0.7,1.7-0.6,2.7C86.6,65.7,86.8,67.4,87,68.9z"/>
		<path class="st1" d="M79.2,63.7c-0.1-0.3-0.2-0.5-0.2-0.7c0-0.2,0.2-0.6,0.3-0.7c0.2-0.1,0.6,0.1,0.7,0.3c0.7,1.4,1.3,2.8,1.9,4.2
			c0.1,0.2-0.1,0.5-0.2,0.6c-0.2,0.1-0.5,0-0.7-0.1c-0.3-0.2-0.5-0.6-0.7-0.8c-0.8-0.9-1.7-1.7-2.9-1.8c-2-0.2-3.6,1-4.1,3.1
			c-0.7,3,0,5.6,2.3,7.7c1.9,1.7,4.4,1.8,6.4,0.3c0.3-0.2,1.1-0.5,1.2-0.4c0.4,0.5-0.1,1-0.4,1.4c-3.2,3.6-8.5,3.2-11-1
			c-1.9-3.1-2-6.4,0-9.6c1.5-2.4,4-3.3,6.8-2.7C78.8,63.7,79,63.7,79.2,63.7z"/>
		<path class="st1" d="M114.2,69.6c0.9-1,1.6-1.8,2.3-2.6c0.4-0.4,0.4-0.9-0.3-1c-0.2-0.1-0.4-0.4-0.6-0.6c0.2-0.2,0.4-0.4,0.7-0.5
			c0.6-0.1,1.2-0.2,1.8-0.3c0.8-0.1,1.2,0.4,0.9,1.1c-0.3,0.6-0.7,1.2-1.2,1.7c-0.5,0.6-1.1,1.1-1.9,1.7c1.2,1,2.1,2,3.2,2.8
			c0.4,0.3,1,0.2,1.6,0.3c0.2,0,0.6,0,0.7,0.1c0.1,0.2,0.1,0.6,0,0.8c-0.6,1.2-2,1.7-3.1,0.9c-1.2-0.9-2.3-1.9-3.4-2.9
			c-0.2-0.2-0.3-0.4-0.5-0.7c-0.1,0-0.1,0.1-0.2,0.1c0.1,0.5,0.1,1.1,0.2,1.6c0.1,0.8,0.3,1.4,1.2,1.4c0.2,0,0.5,0.3,0.5,0.5
			c0,0.2-0.3,0.5-0.5,0.5c-1.3,0.2-2.6,0.4-3.9,0.5c-0.2,0-0.5-0.2-0.7-0.3c0.1-0.2,0.2-0.6,0.4-0.7c0.8-0.3,0.9-0.9,0.8-1.6
			c-0.4-3.5-0.8-6.9-1.2-10.4c-0.1-0.7-0.1-1.4-1.2-1.1c-0.1,0-0.4-0.2-0.4-0.3c0-0.2,0-0.5,0.1-0.6c1.2-0.9,2.4-1.7,3.6-2.5
			c0.1-0.1,0.4,0,0.5,0.1c0.1,0.1,0.2,0.4,0.1,0.5c-1.4,1.4-0.6,3.1-0.5,4.7c0.2,2,0.4,4,0.7,6C114,69,114.1,69.1,114.2,69.6z"/>
		<path class="st1" d="M133.9,63.5c0.8-0.4,1.6-1,2.4-1.2c2.1-0.6,3.5,0.5,3.8,2.7c0.2,1.4,0.3,2.8,0.5,4.3c0.1,0.7,0.3,1.2,1.1,1.3
			c0.2,0,0.4,0.3,0.6,0.5c-0.2,0.2-0.4,0.5-0.6,0.5c-1.3,0.2-2.6,0.3-3.8,0.4c-0.2,0-0.5-0.2-0.7-0.3c0.1-0.2,0.2-0.6,0.4-0.7
			c0.8-0.3,0.9-0.8,0.8-1.5c-0.2-1.3-0.3-2.7-0.5-4c-0.2-1.1-0.8-1.6-1.6-1.7c-1-0.1-1.9,0.5-2.1,1.5c-0.1,0.6-0.1,1.2,0,1.7
			c0.1,1,0.2,2,0.3,3c0.1,0.6,0.4,1,1,1.1c0.3,0,0.5,0.4,0.7,0.6c-0.2,0.2-0.5,0.5-0.7,0.5c-1.2,0.2-2.5,0.3-3.7,0.4
			c-0.2,0-0.5-0.2-0.8-0.3c0.2-0.3,0.3-0.6,0.5-0.7c0.7-0.3,0.8-0.8,0.8-1.4c-0.2-1.7-0.4-3.3-0.6-5c-0.1-0.6-0.3-1-1-1
			c-0.3,0-0.5-0.4-0.7-0.6c0.2-0.2,0.4-0.4,0.7-0.5c0.6-0.2,1.2-0.3,1.8-0.6c0.9-0.4,1.1-0.3,1.2,0.7
			C133.9,63.3,133.9,63.5,133.9,63.5z"/>
		<path class="st1" d="M126.4,73.6c-3.2,0-5.3-2.7-4.9-5.8c0.3-2.6,2.3-4.5,4.7-4.4c0.8,0,1.6,0.3,2.2,0.8c1.4,1,1.2,2.6-0.2,3.4
			c-0.9,0.5-1.8,1-2.7,1.6c-0.4,0.3-0.9,0.9-0.8,1.3c0.1,0.5,0.7,1,1.2,1.2c1.2,0.5,2.2-0.1,3.1-0.8c0.3-0.2,0.7-0.2,1-0.3
			c-0.1,0.4,0,0.8-0.2,1C128.9,73,127.6,73.6,126.4,73.6z M123.8,69c0.9-0.6,1.9-1.2,2.8-1.8c0.8-0.5,0.8-1.3,0.2-2
			c-0.9-0.9-2.2-0.7-2.8,0.4C123.3,66.8,123.5,67.9,123.8,69z"/>
		<path class="st1" d="M101.4,71c0-3.3,2.8-5.8,6-5.3c0.5,0.1,1,0.3,1.4,0.6c0.5,0.4,0.6,0.9,0.2,1.5c-0.4,0.5-0.9,0.5-1.4,0.2
			c-0.3-0.2-0.5-0.3-0.8-0.5c-1.5-0.9-3-0.3-3.4,1.4c-0.4,1.8,0.5,3.7,2,4.7c1.1,0.7,2.3,0.7,3.3-0.1c0.2-0.1,0.4-0.3,0.6-0.4
			c0.2-0.1,0.5-0.1,0.5,0c0.1,0.1,0.2,0.4,0.1,0.6c0,0.2-0.2,0.3-0.3,0.5c-1.2,1.4-3.3,2.1-5,1.5c-1.9-0.6-3-2-3.3-4
			C101.5,71.5,101.5,71.2,101.4,71z"/>
		<path class="st1" d="M96.7,76.8c-0.1-0.1-0.3-0.2-0.6-0.3c0.2-0.3,0.3-0.7,0.5-0.7c0.7-0.3,0.9-0.8,0.8-1.5
			c-0.2-1.6-0.4-3.3-0.6-4.9c-0.1-0.7-0.3-1-1-1.1c-0.2,0-0.5-0.3-0.7-0.5c0.2-0.2,0.4-0.4,0.7-0.5c0.7-0.3,1.4-0.4,2.1-0.7
			c0.7-0.3,0.9-0.2,1,0.6c0.2,2.2,0.4,4.5,0.7,6.7c0.1,0.8,0.3,1.4,1.3,1.5c0.2,0,0.4,0.3,0.5,0.5c-0.2,0.2-0.3,0.5-0.6,0.5
			C99.5,76.5,98.2,76.6,96.7,76.8z"/>
		<path class="st1" d="M127.5,34.4c0.4-0.4,0.8-0.8,1.2-1.3c0.7-0.8,0.7-1.1-0.2-1.8c-0.8-0.6-1.1-1.7-0.7-2.6
			c0.4-0.9,1.3-1.2,2.4-1c0.9,0.2,1.5,0.9,1.4,2c-0.1,2.2-1.3,3.7-3,4.9c-0.2,0.2-0.6,0.1-0.9,0.1C127.5,34.6,127.5,34.5,127.5,34.4
			z"/>
		<path class="st1" d="M98.5,63.6c0,0.8-0.6,1.4-1.4,1.4c-0.8,0-1.4-0.6-1.4-1.4c0-0.8,0.6-1.4,1.4-1.4
			C97.9,62.2,98.5,62.8,98.5,63.6z"/>
	</g>
	<g>
		<path class="st0" d="M143.1,50.3c0,1-0.8,1.8-1.9,1.8c-1,0-1.9-0.8-1.9-1.8c0-1,0.8-1.8,1.9-1.8C142.3,48.5,143.1,49.3,143.1,50.3
			z M139.9,50.3c0,0.8,0.6,1.4,1.4,1.4c0.8,0,1.4-0.6,1.4-1.4c0-0.8-0.6-1.5-1.4-1.5C140.5,48.8,139.9,49.5,139.9,50.3z M141,51.2
			h-0.4v-1.8c0.2,0,0.4-0.1,0.7-0.1c0.3,0,0.5,0.1,0.6,0.1c0.1,0.1,0.2,0.2,0.2,0.4c0,0.2-0.2,0.4-0.4,0.4v0
			c0.2,0.1,0.3,0.2,0.3,0.4c0.1,0.3,0.1,0.4,0.1,0.5h-0.5c-0.1-0.1-0.1-0.2-0.1-0.4c0-0.2-0.1-0.3-0.4-0.3H141V51.2z M141,50.2h0.2
			c0.2,0,0.4-0.1,0.4-0.3c0-0.2-0.1-0.3-0.4-0.3c-0.1,0-0.2,0-0.2,0V50.2z"/>
	</g>
</g>
</svg>
