<?xml version="1.0" encoding="utf-8"?>
<!-- Generator: Adobe Illustrator 20.0.0, SVG Export Plug-In . SVG Version: 6.00 Build 0)  -->
<svg version="1.1" id="Layer_1" xmlns="http://www.w3.org/2000/svg" xmlns:xlink="http://www.w3.org/1999/xlink" x="0px" y="0px"
	 width="178px" height="107px" viewBox="0 0 178 107" style="enable-background:new 0 0 178 107;" xml:space="preserve">
<style type="text/css">
	.st0{fill:#AAAAAA;}
	.st1{fill-rule:evenodd;clip-rule:evenodd;fill:#AAAAAA;}
</style>
<g>
	<g>
		<g>
			<path class="st0" d="M114.5,51.7c-0.9,0-1.6-0.7-1.6-1.6V31.4c0-0.3-0.2-2.5-1.3-4.7c-1.4-2.8-3.8-4.3-7.1-4.3
				c-3.8,0-6.6,1.5-8.2,4.5c-1.2,2.3-1.3,4.7-1.3,4.7c0,0.9-0.8,1.6-1.7,1.6c-0.9,0-1.6-0.8-1.6-1.7c0-0.1,0.1-3.1,1.7-6.2
				c1.5-2.9,4.7-6.3,11.1-6.3c5.8,0,8.7,3.4,10.1,6.2c1.4,2.9,1.6,5.8,1.6,5.9c0,0,0,0,0,0.1v18.8C116.1,51,115.4,51.7,114.5,51.7z"
				/>
			<path class="st0" d="M109,51.8c-0.9,0-1.6-0.7-1.6-1.6V31.5c0-0.2-0.1-1.1-0.6-2c-0.6-1.1-1.5-1.6-2.8-1.6c-3,0-3.7,2.9-3.8,3.5
				v5.7c0,0.9-0.7,1.6-1.6,1.6c-0.9,0-1.6-0.7-1.6-1.6v-5.9c0-0.1,0-0.1,0-0.2c0.3-2.2,2.2-6.5,7.1-6.5c5,0,6.5,4.5,6.6,6.8
				c0,0,0,0.1,0,0.1v18.7C110.7,51,109.9,51.8,109,51.8z"/>
			<path class="st0" d="M103.8,51.8c-0.9,0-1.6-0.7-1.6-1.6V31.4c0-0.9,0.7-1.6,1.6-1.6c0.9,0,1.6,0.7,1.6,1.6v18.7
				C105.5,51,104.8,51.8,103.8,51.8z"/>
			<path class="st0" d="M82.2,68c-0.8,0-1.6-0.5-1.6-1.5c0-1.2,0.8-1.6,1.2-1.6h3.4c0.2,0,0.3,0,0.4-0.1c0.1-0.1,0.1-0.4,0.1-0.4
				c0,0,0,0,0,0v-2.5c-0.1,0-0.2,0-0.3,0c-1.5,0-5.3-0.2-9.3-2.2c-3.6-1.9-6.9-6.7-7.9-10.3c-0.9-3.2-0.8-7.6-0.7-8.6
				c-0.5-0.4-1.8-1.8-2.4-3.7c-0.8-2.5,0-5,2-6.6c1.2-0.9,2.7-1.3,4-1.4l-1.7-0.6c-0.1-0.1-0.2-0.2-0.2-0.3c0-0.1,0-0.3,0.2-0.4
				l2.2-1.6l-2-1.4c-0.1-0.1-0.2-0.2-0.2-0.4c0-0.1,0.1-0.3,0.2-0.3l2.8-1.1c0.4-1.6,1.7-2.5,2.3-2.9v-2.7c0,0,0-0.1,0-0.1
				c0.4-1.4,1.4-2.1,2.9-2.1c0.9,0,1.4,0.4,1.8,0.7c0.3-0.4,0.8-0.8,1.7-0.8c0.9,0,1.4,0.4,1.7,0.8c0.4-0.3,1-0.8,1.9-0.8
				c2,0,2.7,2,2.8,3.1c0,0,0,0,0,0v8.2c0,0.2,0.1,1.2-0.4,1.7c-0.5,0.6-1.2,0.9-1.6,1v2.3c0,0,0,0,0,0.1c0,0-0.1,0.8,0.4,1.3
				c0.3,0.4,0.8,0.6,1.6,0.6c0.9,0,1.6-0.4,2-1c0.3-0.5,0.3-1.1,0.3-1.1l0.1-2.5c0,0,0,0,0,0c0.3-1.8,1.8-4.8,1.8-4.9c0,0,0,0,0,0
				c4.1-6.2,9.8-7,12.1-7c0.1,0,0.1,0,0.2,0c2.1,0,7.3,0.5,11,5c3.6,4.4,3.5,9.3,3.5,9.5v19.7c0,0,0,0.1,0,0.1
				c-0.4,2-1.7,2.9-3.8,2.9h-0.1c-1.2,0-2.2-0.7-2.8-1.2c-0.4,0.5-1.2,1.2-2.6,1.2c-1.4,0-2.2-0.8-2.6-1.3c-0.5,0.5-1.4,1.3-2.7,1.3
				c-1.3,0-2.3-0.8-2.7-1.3c-0.5,0.8-1.5,2.3-3.8,4.5c-2.9,2.9-7.4,3.9-8.7,4.2v2.8c0,0.2,0,0.2,0.1,0.3h0.6c0,0,0,0,0,0
				c0.5,0,1.9,0.2,1.9,1.7c0,1-0.9,1.4-1.5,1.5c0,0-0.1,0-0.1,0L82.2,68C82.3,68,82.3,68,82.2,68z M81.9,65.6
				c-0.1,0-0.5,0.1-0.5,0.8c0,0.6,0.5,0.7,0.8,0.7h0l7.2,0c0.2,0,0.9-0.3,0.9-0.8c0-0.5-0.2-0.8-1.2-0.9h-0.7c0,0,0,0-0.1,0
				c-0.2,0-0.7-0.3-0.7-1v-3.1c0-0.2,0.1-0.4,0.3-0.4c0.1,0,5.4-0.9,8.6-4c3.2-3.1,3.9-4.8,3.9-4.8c0.1-0.1,0.2-0.2,0.3-0.2
				c0.1,0,0.3,0.1,0.4,0.2c0,0.1,0.9,1.4,2.5,1.4c1.6,0,2.4-1.4,2.4-1.4c0.1-0.1,0.2-0.2,0.4-0.2c0.1,0,0.3,0.1,0.3,0.2
				c0,0.1,0.6,1.4,2.2,1.4c1.6,0,2.1-1.1,2.1-1.1c0.1-0.1,0.2-0.2,0.3-0.2c0.1,0,0.3,0,0.3,0.1c0,0,1.3,1.2,2.6,1.2h0.1
				c1.7,0,2.7-0.7,3-2.3V31.5c0-0.1,0.1-4.9-3.3-9c-3.5-4.3-8.5-4.7-10.4-4.7c-0.1,0-0.1,0-0.2,0c-2.1,0-7.5,0.7-11.5,6.7
				c-0.1,0.3-1.5,3-1.8,4.7l-0.1,2.5c0,0.1,0,0.8-0.4,1.4c-0.4,0.7-1.1,1.5-2.7,1.5c-1,0-1.7-0.3-2.2-0.8c-0.6-0.7-0.6-1.7-0.6-1.9
				v-2.6c0-0.2,0.2-0.4,0.4-0.4c0,0,0.9-0.1,1.4-0.8c0.2-0.3,0.2-0.9,0.2-1.2c0,0,0,0,0,0v-8.2c0-0.2-0.3-2.4-2-2.4
				c-1.1,0-1.6,0.8-1.6,0.8c-0.1,0.1-0.2,0.2-0.4,0.2c-0.1,0-0.3-0.1-0.3-0.2c0,0-0.3-0.8-1.3-0.8c-1,0-1.3,0.8-1.3,0.8
				c-0.1,0.1-0.2,0.2-0.3,0.2c-0.1,0-0.3-0.1-0.4-0.2c0,0-0.5-0.8-1.5-0.8c-1.1,0-1.8,0.5-2.1,1.5v2.9c0,0.2-0.1,0.3-0.2,0.4
				c0,0-1.8,0.9-2.1,2.6c0,0.1-0.1,0.2-0.2,0.3l-2.3,0.9l1.9,1.3c0.1,0.1,0.2,0.2,0.2,0.3c0,0.1-0.1,0.2-0.2,0.3l-2,1.5l2.7,1
				c0.2,0.1,0.3,0.3,0.2,0.4c0,0.2-0.2,0.3-0.4,0.3c0,0-0.1,0-0.3,0c-0.8,0-3.5,0.1-5.1,1.3c-2.1,1.6-2.3,4-1.8,5.8
				c0.6,2,2.3,3.5,2.3,3.5c0.1,0.1,0.1,0.2,0.1,0.3c0,0.1-0.3,5.1,0.7,8.5c1,3.4,4.1,8.1,7.6,9.8c3.8,1.9,7.5,2.1,8.9,2.1
				c0.4,0,0.7,0,0.7,0c0.1,0,0.2,0,0.3,0.1c0.1,0.1,0.1,0.2,0.1,0.3v2.9c0,0.1,0,0.6-0.3,0.9c-0.2,0.2-0.4,0.4-0.9,0.4H81.9z"/>
			<path class="st0" d="M98.4,40.8c-2.5-0.1-3.1-3.1-3.1-3.1v-3.6c-2.5,1.9-4.4-0.3-4.4-0.3s-0.4,2.1-3.7,2.1
				c-3.6,0-3.9-3.7-3.9-3.7v-7c0-2-1.6-3.5-3.7-3.5c-2,0-3.7,1.6-3.7,3.5c0,0.2,0,0.5,0.1,0.7c0,1.2,0.1,4.7,0,5.8
				c-0.1,1.3-1,1.6-2.5,3.3c-1.5,1.7-2.6,2.8-3.4,5.1c-0.8,2.3-0.7,5.9-0.3,7.7c0.4,1.6,2.2,8.8,10.1,10.9
				c7.9,2.1,12.7-0.7,12.7-0.7c7.7-4.1,8.1-10,8.1-10v-8.5C100.7,39.6,100.3,40.9,98.4,40.8z M78.8,24.4c1.2,0.8,0.4,2.3,0.4,2.3
				s0-1-0.5-1.6C78.1,24.6,77,25,77,25C77.2,24.6,78.1,23.9,78.8,24.4z M91.4,49.4c-1.7,3.4-5.6,3.9-5.6,3.9
				c-10,1-10.5-7.1-10.5-7.1c3.9,8.1,10.6,5.7,10.6,5.7c6.6-1.9,6.3-10.1,6.3-10.1C93.4,45.9,91.4,49.4,91.4,49.4z"/>
		</g>
		<g>
			<g>
				<path class="st0" d="M75.7,83.4c0,1.3,0.7,0.9,0.7,1.9c0,1.4-2.7,1.5-2.8,1.5c-0.6,0-0.2-1-0.6-1c-0.1,0-0.3,0.3-0.6,0.5
					c-0.3,0.3-0.7,0.5-1.2,0.5c-1.6,0-2.9-2.6-2.9-4.9c0-2.5,1.3-4.9,3-4.9c0.9,0,1.3,0.6,1.5,0.6c0.2,0,0.2-0.6,0.2-0.8
					c0-1.2-0.9-0.5-0.9-1.6c0-1.4,3.1-1.7,3.2-1.7c0.4,0,0.5,0.4,0.5,1V83.4z M72.3,79.1c-0.8,0-1,2.2-1,3c0,0.9,0.1,2.4,0.9,2.4
					c0.8,0,0.8-2.3,0.8-3.1C73,80.7,73,79.1,72.3,79.1z"/>
				<path class="st0" d="M86.7,82.3c0-3.3,1.9-5.2,4-5.2c2.2,0,3.4,2.6,3.4,4.9c0,3.1-2.2,4.9-4,4.9C88.2,86.9,86.7,85.2,86.7,82.3z
					 M90.1,79.3c-0.4,0-0.6,0.6-0.6,1.1c0,1.2,0.3,4.1,1.1,4.1c0.5,0,0.6-0.6,0.6-1.2C91.2,82.5,91,79.3,90.1,79.3z"/>
				<path class="st0" d="M93.4,82.3c0-3.3,1.9-5.2,4-5.2c2.2,0,3.4,2.6,3.4,4.9c0,3.1-2.2,4.9-4,4.9C94.9,86.9,93.4,85.2,93.4,82.3z
					 M96.8,79.3c-0.4,0-0.6,0.6-0.6,1.1c0.1,1.2,0.3,4.1,1.1,4.1c0.5,0,0.6-0.6,0.6-1.2C97.9,82.5,97.7,79.3,96.8,79.3z"/>
				<path class="st0" d="M104.2,77.1c0.2,0,0.4,0.1,0.5,0.1c0.1,0,0.2-0.1,0.3-0.2c0.1-0.1,0.2-0.1,0.3-0.1c0.6,0,1.3,1.6,1.3,2.4
					c0,0.5-0.2,0.9-0.5,0.9c-0.7,0.1-1.2-1.4-1.7-1.4c-0.2,0-0.4,0.3-0.4,0.7c0.1,1.2,2.8,1.2,3,4.1c0.1,1.8-0.9,3-2.2,3.1
					c-0.2,0-0.6,0-0.9-0.1c-0.3,0-0.6-0.1-0.7-0.1c-0.1,0-0.2,0-0.2,0.1c-0.1,0-0.1,0-0.2,0.1c-0.2,0-0.4,0-0.6-0.3
					c-0.3-0.5-0.7-1.5-0.8-2.3c0-0.5,0-0.9,0.4-0.9c0.5,0,1.2,1.8,1.9,1.7c0.2,0,0.5-0.2,0.4-0.6c-0.1-1.1-2.5-1.1-2.7-4.1
					c-0.1-1.9,0.8-3.1,2.1-3.2C103.7,77.1,103.9,77.1,104.2,77.1z"/>
				<path class="st0" d="M111.1,82.6c0,1.3,0.3,1.6,0.7,1.6c0.4,0,0.6-0.4,0.8-0.4c0.2,0,0.4,0.5,0.4,0.9c0,1.2-1.4,2.3-2.7,2.3
					c-0.6,0-2.2-0.4-2.2-3.4v-3.9c0-0.3,0-0.5-0.1-0.5c-0.1-0.1-0.2,0-0.5,0c-0.3,0-0.5,0-0.5-0.1c-0.1-0.1-0.1-0.3-0.1-0.7
					c0-0.3,0-0.5,0.1-0.6l2.8-2.7c0.3-0.3,0.3-0.2,0.6-0.2c0.5,0,0.5-0.1,0.5,0.8c0,0.6,0,1.2,0,1.4c0,0.2,0.1,0.2,0.4,0.2h0.9
					c0.5,0,0.5,0.1,0.5,0.9c0,1.1-0.1,1.1-0.6,1.1h-0.8c-0.4,0-0.5,0-0.5,0.7V82.6z"/>
			</g>
			<path class="st0" d="M67.6,83.6c-0.6,0-1.2,1.3-2.6,0.9c-1.4-0.4-1.2-2-1.2-2l3.4-1.1c0,0,0.7-0.1,0.7-0.8
				c-0.1-0.7-1.3-5.1-5.2-2.6c0,0-1.6,1.4-1.8,4.2c-0.2,2.8,1.3,4.8,3.5,4.8c2.1,0,3.4-1.6,3.5-2.6C68,84.3,68.2,83.6,67.6,83.6z
				 M63.6,80.1c0-0.5,0.6-1.1,0.6-1.1c0.8-0.6,1.3,0,1.5,0.7c0.2,0.6-0.6,0.9-1.1,1.1C63.8,80.9,63.6,80.5,63.6,80.1z"/>
			<path class="st0" d="M119.5,83.6c-0.6,0-1.2,1.3-2.6,0.9c-1.4-0.4-1.2-2-1.2-2l3.4-1.1c0,0,0.7-0.1,0.7-0.8
				c-0.1-0.7-1.3-5.1-5.2-2.6c0,0-1.6,1.4-1.8,4.2c-0.2,2.8,1.3,4.8,3.5,4.8c2.1,0,3.4-1.6,3.5-2.6
				C119.9,84.3,120.1,83.6,119.5,83.6z M115.5,80.1c0-0.5,0.6-1.1,0.6-1.1c0.8-0.6,1.3,0,1.5,0.7c0.2,0.6-0.6,0.9-1.1,1.1
				C115.7,80.9,115.5,80.5,115.5,80.1z"/>
			<path class="st0" d="M56,76.9c0,0-1.6,0.6-2.2,1.1c-0.6,0.4-0.4,1,0.2,1.2c0.6,0.1,0.9,0.3,0.9,1.2c0,0.9,0,3.7,0,3.7
				s-0.2,0.7-0.7,1c-0.5,0.3-0.6,1.2,0.1,1.4c0.6,0.2,4.6,0.1,4.6,0.1s0.7-0.4,0.6-1c0,0-0.3-0.7-1-1c-0.7-0.3-0.7-0.6-0.8-1.2
				c-0.1-0.6,0-3.2,0-3.2s0.1-0.6,0.6-0.5c0.5,0.1,0.8,0.8,0.9,1.1c0.2,0.3,0.8,0.6,1.2,0.2c0.4-0.4,0.5-1.2,0.3-2.2
				c-0.2-1.1-0.9-2-1.6-1.7c-0.6,0.3-0.8,1-1.3,1c-0.6-0.1-0.3-1-0.8-1.2C56.5,76.7,56.5,76.7,56,76.9z"/>
			<path class="st0" d="M81.7,76.9c0,0-1.6,0.6-2.2,1.1c-0.6,0.4-0.4,1,0.2,1.2c0.6,0.1,0.9,0.3,0.9,1.2c0,0.9,0,3.7,0,3.7
				s-0.2,0.7-0.7,1c-0.5,0.3-0.6,1.2,0.1,1.4c0.7,0.2,4.6,0.1,4.6,0.1s0.7-0.4,0.6-1c0,0-0.3-0.7-1-1c-0.7-0.3-0.7-0.6-0.8-1.2
				c-0.1-0.6,0-3.2,0-3.2s0.1-0.6,0.6-0.5c0.5,0.1,0.8,0.8,0.9,1.1c0.2,0.3,0.8,0.6,1.2,0.2c0.4-0.4,0.5-1.2,0.3-2.2
				c-0.2-1.1-0.9-2-1.6-1.7c-0.6,0.3-0.8,1-1.3,1c-0.6-0.1-0.3-1-0.8-1.2C82.2,76.7,82.2,76.7,81.7,76.9z"/>
			<path class="st0" d="M122.2,76.9c0,0-1.6,0.6-2.2,1.1c-0.6,0.4-0.4,1,0.2,1.2c0.6,0.1,0.9,0.3,0.9,1.2c0,0.9,0,3.7,0,3.7
				s-0.2,0.7-0.7,1c-0.5,0.3-0.6,1.2,0.1,1.4c0.7,0.2,4.6,0.1,4.6,0.1s0.7-0.4,0.6-1c0,0-0.3-0.7-1-1s-0.7-0.6-0.8-1.2
				c-0.1-0.6,0-3.2,0-3.2s0.1-0.6,0.6-0.5c0.5,0.1,0.8,0.8,0.9,1.1c0.2,0.3,0.8,0.6,1.2,0.2c0.4-0.4,0.5-1.2,0.3-2.2
				c-0.2-1.1-0.9-2-1.6-1.7c-0.7,0.3-0.8,1-1.3,1c-0.6-0.1-0.3-1-0.8-1.2C122.7,76.7,122.7,76.7,122.2,76.9z"/>
		</g>
	</g>
	<g>
		<path class="st0" d="M129.9,85.1c0,0.8-0.7,1.5-1.5,1.5c-0.9,0-1.5-0.7-1.5-1.5c0-0.8,0.7-1.5,1.5-1.5
			C129.3,83.7,129.9,84.3,129.9,85.1z M127.3,85.1c0,0.7,0.5,1.2,1.2,1.2c0.7,0,1.1-0.5,1.1-1.2c0-0.7-0.5-1.2-1.1-1.2
			C127.7,84,127.3,84.5,127.3,85.1z M128.2,85.9h-0.3v-1.5c0.1,0,0.3,0,0.6,0c0.3,0,0.4,0,0.5,0.1c0.1,0.1,0.1,0.2,0.1,0.3
			c0,0.2-0.1,0.3-0.3,0.3v0c0.1,0.1,0.2,0.2,0.3,0.4c0,0.2,0.1,0.3,0.1,0.4h-0.4c0-0.1-0.1-0.2-0.1-0.4c0-0.2-0.1-0.2-0.3-0.2h-0.2
			V85.9z M128.2,85.1h0.2c0.2,0,0.3-0.1,0.3-0.2c0-0.1-0.1-0.2-0.3-0.2c-0.1,0-0.2,0-0.2,0V85.1z"/>
	</g>
</g>
</svg>
