<?xml version="1.0" encoding="utf-8"?>
<!-- Generator: Adobe Illustrator 20.0.0, SVG Export Plug-In . SVG Version: 6.00 Build 0)  -->
<svg version="1.1" id="Layer_1" xmlns="http://www.w3.org/2000/svg" xmlns:xlink="http://www.w3.org/1999/xlink" x="0px" y="0px"
	 width="178px" height="107px" viewBox="0 0 178 107" style="enable-background:new 0 0 178 107;" xml:space="preserve">
<style type="text/css">
	.st0{fill:#AAAAAA;}
	.st1{fill-rule:evenodd;clip-rule:evenodd;fill:#AAAAAA;}
</style>
<g>
	<path class="st1" d="M55.6,22.4c0.1,0,0.2,0.1,0.3,0.1c0.5,0.2,0.8,0.8,0.7,1.3c-0.1,0.6-0.3,1.1-0.5,1.7c-0.1,0.2,0,0.3,0.2,0.4
		c2,1.2,3.2,2.9,3.4,5.3c0.2,1.4-0.1,2.7-0.8,4c0,0.1-0.1,0.1-0.1,0.2c-0.2,0.3-0.1,0.5,0.2,0.6c0.6,0.3,1.3,0.6,1.9,0.9
		c1.6,0.9,2.9,2,4.1,3.4c0.1,0.1,0.2,0.1,0.4,0.1c2.3,0,4.6,0,6.9,0c0.9,0,1.6,0.6,1.7,1.5c0,0.3,0,0.5-0.1,0.7
		c-0.1,0.3-0.2,0.5-0.3,0.8c-0.2,0.4-0.1,0.6,0.4,0.7c1.2,0.1,2.1,0.7,2.8,1.6c1.1,1.4,1.1,3.4,0,4.8c-1.4,1.9-4.2,2.3-6,0.7
		c-0.3-0.2-0.5-0.5-0.7-0.8c-0.1-0.1-0.2-0.2-0.4-0.2c-0.2,0-0.3,0.2-0.3,0.3c-0.4,1.3-0.8,2.6-1.2,3.8c-0.7,1.9-1.5,3.8-2.7,5.4
		c-0.2,0.3-0.5,0.6-0.7,0.8c-0.2,0.3-0.2,0.5,0.1,0.7c1.4,0.8,2.4,2,2.9,3.5c0.7,2.2,0.4,4.3-1.1,6.1c-1.1,1.4-2.5,2.1-4.3,2.4
		c0,0-0.1,0-0.1,0.1c-0.4,0-0.9,0-1.3,0c0-0.1-0.1,0-0.1-0.1c-1.7-0.2-3.1-1-4.2-2.3c-1.1-1.3-1.6-2.9-1.4-4.6
		c0-0.3-0.2-0.5-0.4-0.4c-0.4,0.1-0.9,0.1-1.3,0.1c-0.9,0-1.7,0-2.6-0.1c-0.3,0-0.5,0.1-0.4,0.4c0.1,0.5,0,1,0,1.5
		c-0.4,2.7-2.4,4.8-5.1,5.3c-0.2,0-0.4,0-0.6,0.1c-0.4,0-0.9,0-1.3,0c0-0.1-0.1,0-0.1,0c-1.3-0.2-2.5-0.6-3.4-1.5
		c-1.9-1.7-2.6-3.7-2.1-6.2c0.4-1.9,1.4-3.3,3-4.2c0.4-0.2,0.4-0.4,0.1-0.7c-1.6-2-2.8-4.1-3.6-6.5c-0.4-1.1-0.7-2.3-1-3.5
		c0-0.2-0.1-0.4-0.3-0.4c-0.2,0-0.3,0.1-0.4,0.2c-1,1.3-2.3,1.9-3.9,1.7c-1.5-0.2-2.6-1.1-3.2-2.5c-0.1-0.3-0.2-0.7-0.3-1
		c0-0.3,0-0.7,0-1c0,0,0-0.1,0-0.1c0.1-0.5,0.2-1,0.5-1.5c0.7-1.1,1.7-1.8,3-1.9c0.4-0.1,0.6-0.2,0.4-0.7c-0.1-0.2-0.2-0.5-0.3-0.7
		c-0.5-1.2,0.3-2.4,1.6-2.4c2.3,0,4.6,0,7,0c0.2,0,0.3,0,0.4-0.2c0.4-0.5,0.8-0.9,1.2-1.3c1.4-1.3,2.9-2.3,4.6-3
		c0.4-0.2,0.5-0.3,0.3-0.7c-0.7-1.2-1-2.4-0.9-3.8c0.2-2.5,1.4-4.3,3.5-5.6c0.2-0.1,0.2-0.2,0.1-0.4c-0.2-0.6-0.3-1.1-0.5-1.7
		c-0.1-0.4,0-0.8,0.3-1.1c0.2-0.2,0.4-0.3,0.6-0.4C51.8,22.4,53.7,22.4,55.6,22.4z M52.8,43c-5.7,0-11.4,0-17.1,0
		c-0.7,0-0.9,0.4-0.6,1c1.1,2.1,2.4,4.2,3.9,6c1.4,1.7,3,3.3,4.8,4.6c3.2,2.2,6.7,3.3,10.7,2.9c1.8-0.2,3.6-0.7,5.2-1.6
		c1.8-0.9,3.3-2.1,4.7-3.4c1-1,2-2.1,2.8-3.2c1.3-1.7,2.4-3.5,3.4-5.4c0.1-0.1,0.1-0.2,0.1-0.4c-0.1-0.3-0.3-0.5-0.8-0.5
		C64.2,43,58.5,43,52.8,43z M40,67.1c0,0.2,0,0.4,0,0.6c0.4,2.2,2.2,3.6,4.4,3.4c1.9-0.2,3.4-1.9,3.5-3.8c0-0.6-0.1-1.2-0.4-1.8
		c-0.1-0.3-0.1-0.6,0.1-0.9c0.2-0.2,0.3-0.5,0.5-0.7c0.3-0.5,0.5-0.6,1.1-0.4c1,0.3,2,0.4,3.1,0.5c1.4,0,2.8-0.1,4.1-0.5
		c0.4-0.1,0.7,0,0.9,0.3c0.2,0.3,0.3,0.6,0.5,0.8c0.2,0.3,0.2,0.7,0.1,1c-0.3,0.6-0.4,1.3-0.3,2c0.3,2.4,2.4,3.9,4.7,3.4
		c2.5-0.5,3.9-3.3,2.8-5.6c-0.6-1.3-1.6-2-3-2.2c-0.4-0.1-0.6-0.3-0.7-0.6c-0.1-0.3-0.2-0.5-0.3-0.8c-0.2-0.5-0.1-0.8,0.3-1.1
		c1.3-1.2,2.4-2.5,3.2-4.1c0-0.1,0.1-0.2,0.1-0.3c0-0.2,0-0.3-0.2-0.3c-0.1-0.1-0.2,0-0.3,0.1c-1.3,1-2.7,1.9-4.2,2.6
		c-2.9,1.3-6,1.8-9.2,1.4c-1.4-0.1-2.7-0.4-3.9-0.9c-2-0.7-3.9-1.8-5.6-3.1c-0.1-0.1-0.2-0.2-0.3-0.1c-0.1,0.1-0.2,0.2-0.1,0.4
		c0,0.1,0.1,0.1,0.1,0.2c0.8,1.6,1.9,3,3.3,4.1c0.3,0.3,0.4,0.5,0.3,0.9c-0.1,0.3-0.2,0.6-0.3,1c-0.1,0.4-0.3,0.6-0.7,0.6
		C41.4,63.5,40,65.1,40,67.1z M52.8,40.5c2.6,0,5.2,0,7.8,0c0.2,0,0.3,0,0.4-0.2c0.1-0.2,0-0.3-0.2-0.4c-0.7-0.5-1.4-0.9-2.1-1.3
		c-0.9-0.5-1.9-0.8-3-1c-0.3-0.1-0.5-0.2-0.6-0.5c-0.2-0.6,0-1.3,0.5-1.7c1.3-1.1,1.9-2.5,1.6-4.2c-0.3-1.7-1.3-2.8-2.9-3.4
		c-0.7-0.2-1-0.9-0.8-1.6c0.1-0.3,0.2-0.5,0.2-0.8c0.1-0.3-0.1-0.5-0.4-0.5c-0.3,0-0.5,0-0.8,0c-0.3,0-0.5,0.2-0.4,0.5
		c0.1,0.2,0.1,0.5,0.2,0.7c0.2,0.8-0.1,1.4-0.9,1.6c-2.4,0.8-3.6,3.5-2.7,5.8c0.3,0.8,0.8,1.4,1.5,1.9c0.2,0.1,0.4,0.3,0.4,0.6
		c0,0.2,0,0.4,0,0.6c0,0.6-0.1,0.8-0.7,0.9c-1.8,0.5-3.5,1.2-5,2.3c-0.2,0.1-0.3,0.2-0.2,0.5c0.1,0.2,0.2,0.2,0.4,0.2
		C47.6,40.5,50.2,40.5,52.8,40.5z M33.7,48.3c0-0.9-0.7-1.6-1.6-1.6c-0.9,0-1.6,0.7-1.6,1.6c0,0.9,0.7,1.6,1.6,1.6
		C33,49.9,33.7,49.1,33.7,48.3z M71.8,48.2c0,0.9,0.7,1.6,1.6,1.6c0.9,0,1.6-0.7,1.6-1.6c0-0.9-0.7-1.6-1.6-1.6
		C72.5,46.7,71.8,47.4,71.8,48.2z"/>
	<path class="st1" d="M154.4,42.7c-0.3,0-0.3,0-0.3-0.3c0-0.2,0-0.4,0-0.6c-0.1,0.2-0.2,0.5-0.3,0.7c0,0.1,0,0.3-0.2,0.3
		c-0.2,0-0.2-0.1-0.2-0.2c-0.1-0.2-0.2-0.4-0.2-0.7c0,0,0,0-0.1,0c0,0.2,0,0.5,0,0.7c0,0.1,0,0.2-0.2,0.2c-0.2,0-0.2-0.1-0.2-0.2
		c0-0.4,0-0.8,0-1.2c0-0.1-0.1-0.2,0.1-0.2c0.2,0,0.4-0.1,0.5,0.1c0.1,0.3,0.2,0.6,0.3,0.9c0.1-0.2,0.2-0.5,0.3-0.7
		c0.1-0.3,0.2-0.4,0.5-0.3c0.1,0,0.1,0,0.2,0C154.4,41.6,154.4,42.1,154.4,42.7z"/>
	<path class="st1" d="M112.5,49.1c0-1.6,0-3.3,0-4.9c0-1,0.3-2,1.1-2.7c0.7-0.7,1.5-1,2.5-1c1.7,0,3.4,0,5,0c0.7,0,1.4,0.1,2,0.4
		c0.2,0.1,0.4,0.3,0.6,0.4c0.1,0.1,0.1,0.1,0.2,0c0.6-0.6,1.4-0.9,2.2-0.9c1.9,0,3.7,0,5.6,0c1.7,0,3.2,1.6,3.3,3.2
		c0,0.2,0,0.4,0,0.6c0,3.3,0,6.7,0,10c0,0.1,0,0.3,0,0.4c0,0.4-0.3,0.7-0.7,0.7c-0.6,0-1.2,0-1.8,0c-0.5,0-0.7-0.4-0.7-0.8
		c0-3.3,0-6.6,0-9.8c0-1.1-0.7-1.8-1.8-1.8c-1,0-2,0-3,0c-1,0-1.7,0.7-1.7,1.7c0,3.3,0,6.5,0,9.8c0,0.2,0,0.4-0.1,0.6
		c-0.2,0.2-0.4,0.4-0.6,0.4c-0.5,0-1.1,0-1.6,0c-0.5,0-0.8-0.4-0.8-0.9c0-3.3,0-6.6,0-9.9c0-0.6-0.2-1.1-0.8-1.5
		c-0.3-0.2-0.5-0.2-0.8-0.2c-1.1,0-2.1,0-3.2,0c-0.9,0-1.6,0.7-1.6,1.6c0,3.2,0,6.5,0,9.7c0,0.1,0,0.2,0,0.3c0,0.4-0.3,0.8-0.7,0.8
		c-0.6,0-1.1,0-1.7,0c-0.5,0-0.8-0.3-0.8-0.8c0-0.1,0-0.2,0-0.3C112.5,52.6,112.5,50.9,112.5,49.1z"/>
	<path class="st1" d="M90.1,40.5c0.9,0,1.9,0,2.8,0c2,0,3.6,1.6,3.6,3.6c0,0.2,0,0.4,0,0.5c0,0.5-0.3,0.8-0.8,0.8
		c-0.5,0-1.1,0-1.6,0c-0.5,0-0.8-0.3-0.8-0.9c0-0.9-0.7-1.6-1.6-1.6c-1.1,0-2.1,0-3.2,0c-0.9,0-1.6,0.7-1.6,1.5c0,0.4,0,0.7,0.1,1.1
		c0.2,0.6,0.8,1.1,1.4,1.1c1.5,0,2.9,0,4.4,0c2.2,0,3.7,1.6,3.7,3.7c0,0.6,0,1.3,0,1.9c-0.2,1.6-1.6,3-3.2,3c-1.5,0.1-3,0-4.5,0
		c-0.6,0-1.2,0-1.8,0c-1.6-0.1-3-1.4-3.2-3.1c-0.1-0.4,0-0.8,0-1.2c0-0.4,0.3-0.7,0.7-0.7c0.6,0,1.2,0,1.8,0c0.4,0,0.7,0.4,0.7,0.8
		c0,0.5,0.2,0.9,0.6,1.3c0.3,0.2,0.6,0.4,1,0.4c1.1,0,2.2,0,3.2,0c0.9,0,1.6-0.7,1.6-1.6c0-0.4,0.1-0.7-0.1-1.1
		c-0.3-0.7-0.8-1.1-1.6-1.1c-1.4,0-2.9,0-4.3,0c-2,0-3.6-1.6-3.6-3.6c0-0.7-0.1-1.4,0-2.1c0.2-1.7,1.8-3,3.5-3
		C88.2,40.5,89.1,40.5,90.1,40.5z"/>
	<path class="st1" d="M136.6,47.9c0-1.3,0-2.6,0-3.9c0-1.9,1.6-3.6,3.5-3.6c1.9,0,3.8,0,5.7,0c1.9,0,3.6,1.6,3.6,3.5
		c0,2.6,0,5.3,0,7.9c0,1.8-1.5,3.3-3.3,3.5c-0.2,0-0.4,0-0.6,0c-1.8,0-3.5,0-5.3,0c-1.6,0-2.8-0.9-3.4-2.3c-0.2-0.4-0.3-0.8-0.3-1.2
		C136.6,50.6,136.6,49.3,136.6,47.9L136.6,47.9z M146.2,48c0-1.1,0-2.2,0-3.4c0-0.9-0.7-1.6-1.6-1.6c-1.1,0-2.1,0-3.2,0
		c-0.9,0-1.6,0.7-1.6,1.6c0,2.2,0,4.4,0,6.7c0,1,0.7,1.6,1.7,1.6c1,0,2,0,3,0c1,0,1.7-0.7,1.7-1.7C146.3,50.1,146.2,49,146.2,48z"/>
	<path class="st1" d="M137.3,64.1c0-2,0-4,0-5.9c0-0.1,0-0.2,0-0.3c0-0.5,0.3-0.8,0.8-0.8c0.5,0,0.9,0,1.4,0c2.2,0,4.3,0,6.5,0
		c1.6,0,3,1.1,3.4,2.7c0.1,0.2,0.1,0.5,0.1,0.7c0,2.5,0,4.9,0,7.4c0,1.6-1.3,3.1-2.9,3.3c-0.2,0-0.5,0-0.7,0c-2.5,0-5,0-7.5,0
		c-0.7,0-1-0.3-1-1C137.3,68.1,137.3,66.1,137.3,64.1z M140.4,64.1C140.4,64.1,140.4,64.1,140.4,64.1c0,1.4,0,2.8,0,4.2
		c0,0.4,0.1,0.5,0.5,0.5c1.3,0,2.6,0,3.9,0c1.1,0,1.7-0.6,1.7-1.7c0-2,0-4,0-6c0-1.1-0.6-1.7-1.7-1.7c-1.3,0-2.6,0-3.8,0
		c-0.4,0-0.5,0.1-0.5,0.5C140.4,61.3,140.4,62.7,140.4,64.1z"/>
	<path class="st1" d="M123.7,65.3c0-1.6,0-3.2,0-4.8c0-1.9,1.5-3.4,3.4-3.4c1.8,0,3.6,0,5.4,0c1.9,0,3.4,1.5,3.4,3.4
		c0,3.3,0,6.5,0,9.8c0,0.6-0.3,0.9-0.9,0.9c-0.4,0-0.8,0-1.3,0c-0.6,0-0.9-0.3-0.9-0.9c0-1.5,0-3,0-4.4c0-0.5-0.1-0.6-0.6-0.6
		c-1.6,0-3.3,0-4.9,0c-0.5,0-0.6,0.1-0.6,0.6c0,1.5,0,3,0,4.4c0,0.6-0.3,0.9-0.9,0.9c-0.4,0-0.9,0-1.3,0c-0.6,0-0.9-0.3-0.9-0.9
		C123.7,68.6,123.7,66.9,123.7,65.3z M129.7,62.9L129.7,62.9c0.8,0,1.7,0,2.5,0c0.4,0,0.5-0.1,0.5-0.5c0-0.5,0-1,0-1.5
		c0-0.8-0.7-1.5-1.5-1.5c-1,0-2,0-3,0c-0.9,0-1.5,0.7-1.5,1.5c0,0.5,0,1,0,1.5c0,0.4,0.1,0.5,0.5,0.5
		C128,62.9,128.9,62.9,129.7,62.9z"/>
	<path class="st1" d="M97.3,65.2c0-1.6,0-3.2,0-4.8c0-1.8,1.5-3.4,3.4-3.4c1.8,0,3.6,0,5.3,0c1.9,0,3.3,1.5,3.4,3.3
		c0,0.2,0,0.4,0,0.6c0,3.1,0,6.3,0,9.4c0,0.6-0.3,0.9-0.9,0.9c-0.4,0-0.9,0-1.3,0c-0.5,0-0.8-0.3-0.8-0.8c0-1.5,0-3,0-4.5
		c0-0.4-0.1-0.5-0.5-0.5c-1.7,0-3.4,0-5,0c-0.4,0-0.5,0.1-0.5,0.5c0,1.5,0,3,0,4.5c0,0.6-0.3,0.9-0.9,0.9c-0.4,0-0.9,0-1.3,0
		c-0.6,0-0.8-0.3-0.8-0.9C97.3,68.6,97.3,66.9,97.3,65.2z M103.4,62.9c0.8,0,1.6,0,2.4,0c0.1,0,0.1,0,0.2,0c0.3,0,0.5-0.1,0.5-0.4
		c0-0.5,0-1.1,0-1.6c0-0.8-0.6-1.5-1.4-1.5c-1.1,0-2.1,0-3.2,0c-0.8,0-1.4,0.7-1.4,1.5c0,0.5,0,1,0,1.5c0,0.4,0.1,0.5,0.5,0.5
		C101.7,62.9,102.6,62.9,103.4,62.9z"/>
	<path class="st1" d="M89.5,57c1.1,0,2,0,2.8,0c1.9,0,3.4,1.5,3.5,3.4c0,0.2,0,0.4,0,0.6c0,0.4-0.3,0.7-0.7,0.7c-0.5,0-1,0-1.5,0
		c-0.5,0-0.7-0.3-0.8-0.8c0-0.4-0.1-0.7-0.4-1c-0.3-0.3-0.7-0.5-1.1-0.5c-1.1,0-2.1,0-3.2,0c-0.8,0-1.4,0.7-1.4,1.5
		c0,0.3,0,0.5,0,0.8c0.2,0.8,0.7,1.2,1.5,1.2c1.4,0,2.7,0,4.1,0c1.7,0,3.1,1.1,3.4,2.8c0.2,0.9,0.2,1.9,0,2.8
		c-0.3,1.5-1.7,2.6-3.3,2.6c-1.8,0-3.6,0-5.4,0c-1.9,0-3.4-1.5-3.4-3.4c0-0.2,0-0.3,0-0.5c0-0.5,0.3-0.8,0.7-0.8c0.5,0,1,0,1.5,0
		c0.5,0,0.7,0.3,0.8,0.8c0,0.9,0.7,1.6,1.6,1.6c1,0,1.9,0,2.9,0c0.9,0,1.6-0.6,1.6-1.5c0-0.3,0-0.6,0-0.9c-0.2-0.7-0.8-1.1-1.5-1.1
		c-1.4,0-2.7,0-4.1,0c-2.1,0-3.5-1.5-3.5-3.5c0-0.6,0-1.2,0-1.9c0.2-1.5,1.5-2.7,3-2.8C87.7,57,88.7,57,89.5,57z"/>
	<path class="st1" d="M98.1,46.7c0-1.8,0-3.5,0-5.3c0-0.6,0.3-0.9,0.9-0.9c0.5,0,1,0,1.5,0c0.5,0,0.8,0.3,0.8,0.8c0,3.3,0,6.6,0,9.9
		c0,0.9,0.5,1.5,1.3,1.7c0.1,0,0.2,0,0.3,0c1.1,0,2.1,0,3.2,0c0.9,0,1.6-0.7,1.6-1.6c0-1.4,0-2.7,0-4.1c0-2,0-3.9,0-5.9
		c0-0.5,0.3-0.9,0.9-0.9c0.5,0,1,0,1.5,0c0.5,0,0.8,0.3,0.8,0.8c0,0.1,0,0.1,0,0.2c0,3.4,0,6.8,0,10.3c0,1.8-1.2,3.3-3,3.6
		c-0.2,0-0.4,0.1-0.6,0.1c-1.8,0-3.7,0-5.5,0c-1.8,0-3.2-1.1-3.6-2.8c-0.1-0.3-0.1-0.5-0.1-0.8C98.1,50.1,98.1,48.4,98.1,46.7z"/>
	<path class="st1" d="M111,64.1c0-2,0-4.1,0-6.1c0-0.6,0.3-0.9,0.9-0.9c0.4,0,0.8,0,1.3,0c0.6,0,0.9,0.3,0.9,0.9c0,3.4,0,6.9,0,10.3
		c0,0.5,0.1,0.6,0.6,0.6c2.2,0,4.4,0,6.7,0c0.5,0,0.8,0.3,0.9,0.8c0,0.2,0,0.4,0,0.7c0,0.6-0.3,0.9-0.9,0.9c-3,0-5.9,0-8.9,0
		c-0.2,0-0.3,0-0.5,0c-0.6,0-0.9-0.3-0.9-0.9C111,68.2,111,66.1,111,64.1z"/>
	<path class="st1" d="M151.7,41c0.2,0,0.3,0,0.5,0c0.1,0,0.2,0,0.2,0.2c0,0.2-0.1,0.2-0.2,0.2c-0.3,0-0.3,0.1-0.3,0.3
		c0,0.3,0,0.6,0,0.8c0,0.2-0.1,0.2-0.2,0.2c-0.1,0-0.2,0-0.2-0.2c0-0.3,0-0.6,0-0.8c0-0.2,0-0.3-0.3-0.3c-0.1,0-0.2,0-0.2-0.1
		c0-0.1,0-0.2,0.2-0.2C151.4,41,151.6,41,151.7,41z"/>
</g>
</svg>
