<?xml version="1.0" encoding="utf-8"?>
<!-- Generator: Adobe Illustrator 20.0.0, SVG Export Plug-In . SVG Version: 6.00 Build 0)  -->
<svg version="1.1" id="Layer_1" xmlns="http://www.w3.org/2000/svg" xmlns:xlink="http://www.w3.org/1999/xlink" x="0px" y="0px"
	 width="178px" height="107px" viewBox="0 0 178 107" style="enable-background:new 0 0 178 107;" xml:space="preserve">
<style type="text/css">
	.st0{fill:#AAAAAA;}
	.st1{fill-rule:evenodd;clip-rule:evenodd;fill:#AAAAAA;}
</style>
<g>
	<polygon class="st1" points="61.7,65.8 61.7,65.8 61.7,65.8 	"/>
	<path class="st1" d="M50.4,31l4.3,13.3h-8.6l-2.7,8.2l25.3-8.2C66.2,36.6,59,31,50.4,31z"/>
	<path class="st1" d="M39.1,65.8c3.2,2.3,7.1,3.7,11.3,3.7c4.2,0,8.1-1.4,11.3-3.7l-11.3-8.2L39.1,65.8z"/>
	<path class="st1" d="M57.4,52.5l4.3,13.3c4.8-3.5,7.9-9.2,7.9-15.5c0-2.1-0.3-4.1-0.9-5.9L57.4,52.5z"/>
	<polygon class="st1" points="68.7,44.3 68.7,44.3 68.7,44.3 	"/>
	<path class="st1" d="M32.1,44.3l14,0L50.4,31c-10.6,0-19.2,8.6-19.2,19.2c0,6.4,3.1,12.1,7.9,15.5l4.3-13.3L32.1,44.3z"/>
	<polygon class="st1" points="107.8,44.3 104.8,44.3 104.8,57.6 112.4,57.6 112.4,55.1 107.8,55.1 	"/>
	<polygon class="st1" points="111.2,46.8 114.4,46.8 114.4,57.6 117.4,57.6 117.4,46.8 120.6,46.8 120.6,44.3 111.2,44.3 	"/>
	<polygon class="st1" points="95.4,44.3 90.5,57.6 93.7,57.6 97,47.7 100.3,57.6 103.4,57.6 98.5,44.3 	"/>
	<polygon class="st1" points="97,55.1 93.7,57.6 100.3,57.6 	"/>
	<polygon class="st1" points="125.4,55 125.4,52.1 129.6,52.1 129.6,49.6 125.4,49.6 125.4,46.8 129.8,46.8 129.8,44.3 122.4,44.3 
		122.4,57.6 129.2,57.6 131.2,55 	"/>
	<polygon class="st1" points="140,50.4 144.2,44.3 140.4,44.3 138.2,48 136,44.3 132.2,44.3 136.4,50.4 130.9,57.6 134.7,57.6 
		138.2,53.1 141.7,57.6 145.5,57.6 	"/>
	<path class="st1" d="M82.5,51c0-2.3,1.9-4.1,4.2-4.1c1,0,1.9,0.2,2.8,0.7v-2.8c-0.8-0.4-1.8-0.7-2.8-0.7c-3.9,0-7.2,3.1-7.2,6.9
		c0,3.8,3.2,6.9,7.2,6.9c0.8,0,1.9-0.1,2.8-0.4l0-3.2c-0.9,0.4-1.9,0.7-2.8,0.7C84.5,55.1,82.5,53.3,82.5,51z"/>
</g>
</svg>
