<?xml version="1.0" encoding="utf-8"?>
<!-- Generator: Adobe Illustrator 20.0.0, SVG Export Plug-In . SVG Version: 6.00 Build 0)  -->
<svg version="1.1" id="Layer_1" xmlns="http://www.w3.org/2000/svg" xmlns:xlink="http://www.w3.org/1999/xlink" x="0px" y="0px"
	 width="178px" height="107px" viewBox="0 0 178 107" style="enable-background:new 0 0 178 107;" xml:space="preserve">
<style type="text/css">
	.st0{fill:#AAAAAA;}
	.st1{fill-rule:evenodd;clip-rule:evenodd;fill:#AAAAAA;}
</style>
<g>
	<g>
		<path class="st0" d="M77.9,28.3c-0.6,0-8.1,0-8.1,0s0,6.7,0,7.5c-0.8,0-19.8,0-19.8,0v0.4c0,3.6-3,6.6-6.6,6.6h-0.4v26.5h0.4
			c3.6,0,6.6,3,6.6,6.6v0.4c0,0,28.3,0,28.8,0c2.1,4.3,6.5,7,11.3,7c4.8,0,9.2-2.7,11.3-7c0.5,0,28.8,0,28.8,0v-0.4
			c0-3.6,3-6.6,6.6-6.6h0.4l0-0.4v-26h-0.4c-3.6,0-6.6-3-6.6-6.6v-0.4c0,0-19,0-19.8,0c0-0.8,0-7.5,0-7.5s-7.5,0-8.1,0
			c-1.5-5.5-6.4-9.3-12.1-9.3C84.3,19,79.4,22.8,77.9,28.3z M78.3,29.1h0.3l0.1-0.3c1.3-5.3,5.9-9,11.4-9c5.4,0,10.1,3.7,11.4,9
			l0.1,0.3c0,0,7.2,0,7.9,0c0,0.8,0,7.5,0,7.5s19.1,0,19.8,0c0.2,3.8,3.2,6.8,7,7c0,0.8,0,24,0,24.8c-3.8,0.2-6.8,3.2-7,7
			c-0.8,0-28.5,0-28.5,0l-0.1,0.2c-1.9,4.1-6.1,6.8-10.6,6.8c-4.5,0-8.7-2.7-10.6-6.8l-0.1-0.2c0,0-27.7,0-28.5,0
			c-0.2-3.8-3.2-6.8-7-7c0-0.8,0-24,0-24.8c3.8-0.2,6.8-3.2,7-7c0.8,0,19.8,0,19.8,0s0-6.7,0-7.5C71.4,29.1,78.3,29.1,78.3,29.1z"/>
		<g>
			<path class="st0" d="M127.7,62l0.2-0.1v-4.6l8.4,7.2V53.6l-19.7-17c-3.9,0-7.2,0-7.2,0v-7.5h-7.9l-0.1-0.3c-1.3-5.3-6-9-11.4-9
				c-1.6,0-3.2,0.3-4.6,0.9L113.7,45c-6.1,0-13.2,0-13.6,0c0-0.8,0-7.5,0-7.5s-6,0-6.7,0c0-0.8,0-6,0-6c0-1.8-1.5-3.3-3.3-3.3
				c-1.8,0-3.3,1.5-3.3,3.3c0,0,0,0.3,0,0.7l-7.1-6.1c-0.4,0.8-0.8,1.7-1,2.6l-0.1,0.3h-0.3c0,0-6.8,0-7.6,0c0,0,0,0,0,0.1l9.7,8.4
				c-0.2,0-0.3,0-0.3,0s0,6.7,0,7.5c-0.2,0-1.3,0-3,0l-9.8-8.4c-3.5,0-8.8,0-12.4,0l9.8,8.4c-4,0-7.3,0-7.3,0l-0.1,0.2
				c-0.5,0.8-1.2,1.6-1.8,2.3l-6.9-5.9c-1.2,1.2-2.9,1.9-4.7,2v4.6l8.4,7.3v6.3l0.2,0.1c1.9,1.3,3.5,2.9,4.8,4.8l0.1,0.2
				c0,0,3.6,0,8.2,0l9.8,8.4c2.4,0,4,0,4,0l0.1,0.2c1.9,4.1,6.1,6.8,10.6,6.8c1.7,0,3.3-0.4,4.7-1L78,67c4.7,0,8.5,0,8.8,0
				c0,0.7,0,3.8,0,3.8c0,1.8,1.5,3.3,3.3,3.3c1.8,0,3.3-1.5,3.3-3.3c0,0,0-0.4,0-1l7.2,6.2c0-0.1,0.1-0.2,0.1-0.3l0.1-0.2
				c0,0,5.5,0,11.6,0l-9.8-8.4c3.9,0,8.3,0,12.1,0l9.8,8.4c2.7,0,4.6,0,4.8,0c0.1-1.9,0.9-3.5,2.1-4.8l-6.9-5.9
				C125.5,63.7,126.5,62.8,127.7,62z M53.9,48.9c-0.5,0.4-1,0.8-1.5,1.1C52.9,49.7,53.4,49.3,53.9,48.9z M55.2,47.7
				c-0.3,0.3-0.6,0.6-0.9,0.9C54.6,48.3,55,48,55.2,47.7z M92.5,66.2v4.6c0,1.3-1.1,2.4-2.4,2.4c-1.3,0-2.4-1.1-2.4-2.4v-4.6
				c0,0-29.4,0-29.8,0c-1.3-1.9-2.8-3.5-4.7-4.7c0-0.4,0-10.4,0-10.8c1.9-1.3,3.5-2.8,4.7-4.7c0.4,0,23.1,0,23.1,0s0-6.7,0-7.5
				c0.8,0,6.3,0,6.3,0h0.4v-6.8c0-1.3,1.1-2.4,2.4-2.4c1.3,0,2.4,1.1,2.4,2.4v6.8c0,0,6,0,6.7,0c0,0.8,0,7.5,0,7.5s22.7,0,23.1,0
				c1.3,1.9,2.8,3.5,4.7,4.7c0,0.4,0,10.4,0,10.8c-1.9,1.3-3.5,2.8-4.7,4.7C121.9,66.2,92.5,66.2,92.5,66.2z M123.8,65.6
				c0.1-0.1,0.2-0.3,0.4-0.4C124,65.3,123.9,65.4,123.8,65.6z"/>
			<path class="st0" d="M43.8,68.4c3.8,0.2,6.8,3.2,7,7c0,0,0,0,0,0.1c0,0,0,0,0.1,0c0.7,0,6.4,0,12.5,0L43.8,58.6V68.4z"/>
		</g>
	</g>
	<g>
		<path class="st0" d="M82,40.2h4v1.1h-1.3v4.6h-1.4v-4.6H82V40.2z"/>
		<path class="st0" d="M85.6,44.5H87v1.4h-1.4V44.5z"/>
		<path class="st0" d="M91.6,46H91l-0.3-0.5c-0.3,0.4-0.8,0.6-1.2,0.6c-1.5,0-2.1-1.2-2.1-2.8c0-1.5,0.5-3.1,2.2-3.1
			c1.4,0,2,0.9,2,2.1h-1.4c0-0.7-0.1-1.1-0.6-1.1C89,41.2,89,42,89,43.1c0,1.2,0.1,1.9,0.7,1.9c0.5,0,0.7-0.6,0.7-0.9h-0.7v-1h2V46z
			"/>
		<path class="st0" d="M92.3,44.5h1.4v1.4h-1.4V44.5z"/>
		<path class="st0" d="M94.4,40.2h1.4v5.7h-1.4V40.2z"/>
		<path class="st0" d="M96.6,44.5H98v1.4h-1.4V44.5z"/>
	</g>
	<g>
		<path class="st0" d="M57.8,49.5h8.3v2.7h-4.8V55h3.4v2.7h-3.4v5.7h-3.5V49.5z"/>
		<path class="st0" d="M70.6,52.1h0.6c1.2,0,2.3,0.1,2.3,1.6c0,1.1-0.9,1.5-2.2,1.5h-0.7V52.1z M67.2,63.3h3.5v-6h1.2l1.7,6H77
			l-2.3-6.7c1.4-0.5,2.3-1.7,2.3-3.2c0-2.7-2-3.9-4.6-3.9h-5.2V63.3z"/>
		<path class="st0" d="M78.2,53.6h3.1v9.7h-3.1V53.6z M78.2,49.5h3.1v2.8h-3.1V49.5z"/>
		<path class="st0" d="M86.5,51.9h0.3c2.3,0,2.5,2.5,2.5,4.1c0,1.8,0,4.8-2.4,4.8h-0.4V51.9z M83,63.3h4.2c4.2,0,5.9-3.2,5.9-7.1
			c0-4.1-2-6.7-6.3-6.7H83V63.3z"/>
		<path class="st0" d="M98.2,52.5L98.2,52.5l1,5.6h-2.2L98.2,52.5z M93.1,63.3H96l0.6-2.8h3.2l0.5,2.8h3.5l-2.9-13.8h-4.6L93.1,63.3
			z"/>
		<path class="st0" d="M106.2,57.9l-3.5-8.4h3.7l1.8,5.4l2.2-5.4h3.1l-3.8,8.3v5.6h-3.5V57.9z"/>
		<path class="st0" d="M116.1,58.9c0.5,1.2,1,2,2.4,2c0.8,0,1.4-0.5,1.4-1.2c0-2.8-6.1-1.3-6.1-6.6c0-2.1,2.1-3.9,4.5-3.9
			c2.3,0,4.1,1.3,4.7,3l-2.8,1.2c-0.4-0.8-0.9-1.5-1.9-1.5c-0.6,0-1.2,0.4-1.2,1.2c0,2,6.3,1.5,6.3,5.8c0,2.8-2.3,4.7-5.1,4.7
			c-2.3,0-4.2-1.2-5-3.5L116.1,58.9z"/>
		<path class="st0" d="M114.4,47.2h1.3v1.2l-0.8,1.4h-0.7l0.6-1.2h-0.5V47.2z"/>
	</g>
	<path class="st0" d="M133,73.1c0,0.2,0.1,0.2,0.3,0.2c0.1,0,0.3,0,0.3-0.2c0-0.1-0.2-0.2-0.4-0.2c-0.2-0.1-0.4-0.1-0.4-0.4
		c0-0.3,0.3-0.4,0.5-0.4c0.3,0,0.5,0.1,0.5,0.4h-0.3c0-0.2-0.1-0.2-0.3-0.2c-0.1,0-0.2,0-0.2,0.2c0,0.1,0.1,0.1,0.4,0.2
		c0.1,0,0.4,0.1,0.4,0.4c0,0.2-0.2,0.4-0.6,0.4c-0.3,0-0.6-0.1-0.6-0.5H133z"/>
	<path class="st0" d="M134,72.2h0.4l0.3,0.9h0l0.3-0.9h0.4v1.4h-0.3v-1h0l-0.3,1h-0.2l-0.3-1h0v1H134V72.2z"/>
</g>
</svg>
