<?xml version="1.0" encoding="utf-8"?>
<!-- Generator: Adobe Illustrator 20.0.0, SVG Export Plug-In . SVG Version: 6.00 Build 0)  -->
<svg version="1.1" id="Layer_1" xmlns="http://www.w3.org/2000/svg" xmlns:xlink="http://www.w3.org/1999/xlink" x="0px" y="0px"
	 width="178px" height="107px" viewBox="0 0 178 107" style="enable-background:new 0 0 178 107;" xml:space="preserve">
<style type="text/css">
	.st0{fill:#AAAAAA;}
	.st1{fill-rule:evenodd;clip-rule:evenodd;fill:#AAAAAA;}
</style>
<g>
	<path class="st0" d="M84.4,26.5c0,0-1,0.8-0.6,1.7c0.4,1,2.9,0.6,2.9,0.6s0.6-0.4,0-1.3C86,26.5,84.9,25.9,84.4,26.5z"/>
	<path class="st0" d="M87.1,42.2c-0.4-2.9,1-5.6,0.3-9.1c-0.7-3.5-3.7-3-3.7-3c0,0.3-0.1,2-0.2,2.8c-0.1,0.8-1.4,7.7-1.7,8.8
		c-0.3,1.2-0.7,1.6-1.7,1.9c-1,0.2-2.1-1.4-2.1-1.4l-3.4-4.5c4.9-5.4,5.4-8.7,4.7-9.8c-0.6-1-3.4,0.4-3.4,0.4s3.2-5.2,3.4-7.4
		c0.2-2.3-0.7-3.1-1.7-3.6c-1-0.5-3.1-0.2-4.3,1.2c-1.2,1.4-3.5,5.6-4.1,8.3c-0.6,2.7-1.3,7.4-1.3,7.4c-1.2,2.1-5.8,4.7-5.8,4.7
		c2.2,0.4,5.7-2.8,5.7-2.8s0.1,5.1,1.6,8.4c1.5,3.3,4.8,1.8,4.8,1.8c-0.7-0.9-1.4-4.8-1.4-4.8s3.1,5.7,6,5.4
		c2.9-0.2,3.5-4.5,3.5-4.5s0,1,1.5,2.3c1.4,1.2,3.6,0.4,3.6,0.4v-0.3C87.4,44.9,87.4,45.1,87.1,42.2z M74,23.3
		c0.8-2.8,2.7-4.3,2.7-4.3c1.4-0.8,0.9,2.5-0.2,4.8c-1,2.3-3.2,4.5-3.2,4.5S73.2,26.1,74,23.3z M73.1,35.5c0,0,0.4-2.5,1.2-3.8
		c0.8-1.3,2.8-3.5,2.8-2.4C77.2,30.4,75.6,34.4,73.1,35.5z"/>
	<path class="st0" d="M108.1,39.2c0,0,1.4-1,1.4-1.9c0-0.9-2.1,0.9-2.1,0.9s-2.7-2.7-3.4-3.5c0,0-0.1-0.1-0.1-0.1
		c-0.5-0.7-0.1-0.3,0.2-0.8c0.4-0.5,2.1-2.7,1.3-4.5c-0.8-1.9-4.3-2.2-5.8-0.2c-1.6,2-1,5.6-0.1,6.8l-2.1,1.8c0,0-3.3-3.7-4.2-4.6
		c-0.9-0.9-0.8-2.7-0.1-3.7c0.7-0.9,1.7-1,1.7-1s0.4,0,0.2-0.4c0,0-1.2-1.5-3.7-0.2c-2.5,1.2-2.5,4.8-1.9,6.4c0.7,1.5,3.2,4.1,3.7,5
		c0.6,0.9,0.6,1.5,0.6,1.5s-3.2,2.5-4.1,3.7c-0.9,1.2-0.3,2.8,0.5,3.7c0.8,0.8,3.3,1.6,5,0.3c1.7-1.3,3.3-3.9,3.3-6.1
		c0-2.3-0.1-3-0.1-3l2.5-2.1l2.7,2.7c0,0,0.7,0.9,0.1,1.7c-0.6,0.8-2.9,2.8-3.5,4.5c-0.6,1.7,0.4,3.4,1.9,3.7
		c1.5,0.4,4.9-1.1,6.1-3.6c1.2-2.5,1.4-3.1,1-4.6C108.6,40,108.1,39.2,108.1,39.2z M94.4,44.9c-0.3,1.7-1,2.2-2,2.5
		c-0.9,0.3-1.9-0.4-1.7-1.7c0.2-1.2,2.4-2.9,2.4-2.9C95,41.5,94.7,43.2,94.4,44.9z M102.7,32.6c0,0-0.8-0.6-1-1.6
		c-0.2-1,0.8-1.6,0.8-1.6c1-0.6,1.2,0.6,1.2,1.3C103.7,31.2,102.7,32.6,102.7,32.6z M105.2,45.5c-0.1,1.8-0.8,2.4-1.8,2.9
		c-1,0.4-2-0.2-1.9-1.5c0.1-1.3,2.2-3.3,2.2-3.3C105.5,41.8,105.3,43.7,105.2,45.5z"/>
	<path class="st0" d="M105.5,73.3c-1-1.2-1-3.4-1-3.4s2.7-3.5,3.1-6c0.3-2.5-1-3.1-2-3.2c-1.1-0.1-2.8,1.2-2.8,1.2
		c-0.4-1.3-2.3-1.6-2.3-1.6s0.1,0.5-0.1,2.1c-0.2,1.6-1.8,9.8-2.6,12.6c-0.8,2.8-1.6,2.5-2.7,1.3c-1-1.2-1-2.8-1-2.8
		c4.1-3,4.8-7.6,4.5-9c-0.3-1.4-1.7-2.6-3.1-2.6c-1.4,0-3,2.3-3,2.3s-1.1-0.8-1.7-1.1c-0.6-0.3-1.2-0.2-1.2-0.2s-0.5,3.7-1.3,6.7
		c-0.8,3-2.1,4.8-3.9,6.9c-1.8,2.1-4.1,3.1-4.8,1.9c-0.7-1.1-0.5-3.6-0.5-3.6c4-0.7,6.2-4.8,6.6-7.3c0.5-2.5-0.2-3.2-2.1-3.3
		c-1.8-0.2-4,0.8-5.4,2.6c-1.4,1.9-2.5,6.6-2.5,6.6l-1.2,0c0,0,0.6-4.2-1.6-7.3c-1.6-2.3-7.3-1.5-7.3-1.5c2.6-3.1,6.6-11.9,6.9-13.9
		c0.4-2-0.3-3-2-2.7c-1.7,0.3-5.6,4.1-7.7,8.3c-2.1,4.1-2.4,9.7-2.5,11.8c-0.1,2.2-2.1,4.8-2.1,4.8c-0.2,0.4,0.1,0.6,0.1,0.6
		c0.7-0.2,2.4-1.9,2.4-1.9s1.2,4.3,2.8,6.3c1.6,2,4.3,4,6.4,3c2.1-1,4.5-5.3,4.5-5.3l1.3,0c0.1,1.4,0.4,4.8,4.2,4.8
		c3.9-0.1,6.9-5,6.9-5s-1,6.5-0.8,7.6c0.2,1.1,1.7,0.8,2.9,0.8c1.2-0.1,1.3-1.4,1.3-1.4l1.1-6.2c2.7,4.4,5.6,2.9,7.7,1.7
		c2.1-1.2,3-5.1,3-5.1c2.1,3.1,4.7,3.1,5.2,2.9c0.5-0.2,0.7-0.5,0.7-0.5S106.5,74.4,105.5,73.3z M80,70.9c0.5-2,2.2-4.5,2.7-5.1
		c0.1-0.1,0.1-0.2,0.1-0.2c1.4-1.1,1.9-0.8,1.6,0.6c-0.3,1.4-1.4,4.3-2.3,4.9C81.2,71.8,79.4,73.2,80,70.9z M66,57.2
		c0.6-2.8,3.3-6.1,3.3-6.1c2.4-2.3,1.5,1.6,0.2,4.6c-1.3,3-4.4,7.2-4.4,7.2S65.3,60,66,57.2z M69.6,79.1c-1.2,0.4-2.6-1.3-3.5-3.1
		c-0.9-1.7-1-4.9-1-4.9c3,2.5,7.5,3.7,7.5,3.7S70.8,78.6,69.6,79.1z M67.8,68.9c-0.5-1.7,0.4-2.4,0.4-2.4c1-0.6,2.5,0.1,3.6,1.5
		c1.1,1.4,1.1,5,1.1,5C71,72.3,68.3,70.6,67.8,68.9z M92.9,70.4c-0.6,0.2-0.7-1.1-0.1-3.3c0.6-2.2,1.9-3.7,1.9-3.7
		c1.9-1.7,2.1,0.3,1.4,2.4C95.4,68,93.4,70.2,92.9,70.4z M102.3,69.1c0,0,0.4-5,0.6-5.6c0.2-0.6,1.4-1.7,1.4-1.7
		c1-0.6,1.4,0,0.5,2.5C103.9,66.9,102.3,69.1,102.3,69.1z"/>
	<path class="st0" d="M117,58.1c-0.4,0.7-1.1,7.4-2.8,10.3c-1.7,2.9-1.7,1.1-1.9-0.4c-0.1-1.5,0.7-6-0.1-7.6
		c-0.8-1.6-3.2-2.8-3.2-1.9c0,0,0.7,1.9,0.1,4.2c-0.6,2.4-1.3,6.6-0.1,8.3c1.2,1.7,2.8,2,4.7,1.1c0,0,0.5,1.5-2,3.5
		c-2.5,2.1-6.7,6.5-6.3,8.2c0.4,1.7,3.7,1.4,6.3-1c2.6-2.4,4.9-8.1,5.3-10.1c0.4-2,1.2-9.8,1.3-12C118.4,58.6,117.4,57.5,117,58.1z
		 M108.2,82c-1.2,0.3,0.1-1.4,1.4-3c1.4-1.6,2.6-2,2.6-2C113.9,76.3,109.4,81.7,108.2,82z"/>
	<path class="st0" d="M96,57.9c-0.4,0.5-2.1,2.5-3.1,1.6c-1-0.9-0.8-2.7-0.8-2.7s2.4-0.8,3.3-2.6c0.8-1.8,1.3-4.4,0-4.4
		c-1.2,0-4.4,0.9-5,4.7c-0.6,3.9-0.6,5-0.6,5s-1.1,2.7-1.5,0.4c-0.4-2.3,0.6-6.2,0.6-6.2s0.6-1.9-0.9-1.8c0,0-0.9-0.5-2.2,1.2
		c0,0,1-3.5,0.6-4.8c-0.3-1.3-1.5-2.5-3-2.1c0,0,0,0.4,0.4,0.5c0.4,0.2,0.6,0,0.6,1.5c0,1.5-1.2,6.4-2.2,8.9c-1,2.4-2.5,5.4-2.6,3.7
		c-0.1-1.6,1-7.5,1.2-8.5l1,0c0,0,0.8,0.2,1-0.3c0.2-0.5-0.2-0.7-0.2-0.7l-1.6,0.1c0.1-0.8,0.2-1.9-0.2-2.4
		c-0.6-0.7-1.4-0.8-1.5-0.6c0,0-0.1,0.1-0.2,0.5c-0.1,0.4-0.4,1.2-0.7,2.5l-3.6,0.1c-0.6,0.4,0.6,0.6,0.6,0.6l2.9,0.1
		c-0.1,0.4-0.2,0.9-0.2,1.3c-0.4,2.4-1.1,7.8-0.4,9.1c0.7,1.3,2.1,0.5,2.9-0.5c0.8-1,1.7-3.1,1.7-3.1s-0.3,1.7,0.4,2
		c0.7,0.3,1.4,0.8,1.8,0c0.4-0.8,0.7-4.7,1.3-6c0.6-1.4,1.4-2.5,1.7-1.9c0.2,0.5-0.4,3-0.8,4.1c-0.3,1.1-0.5,3.7,0.6,4.5
		c1,0.8,2.4,0.2,2.9-0.5c0.5-0.8,0.6-1.3,0.6-1.3s1.6,1.3,3.1,0.9c1.5-0.4,3.1-2.4,3.2-3.3C97,56.4,96.4,57.4,96,57.9z M92.5,53.7
		C92.8,52.4,94,51,94,51c0.7-0.6,0.7,0.4,0.3,1.7c-0.4,1.3-1.1,2.7-1.7,2.9C92.1,55.7,92.1,54.9,92.5,53.7z"/>
	<path class="st0" d="M118.4,41.8c0,0,0.4,1.3-0.2,4.4c-0.5,3.1-0.9,5.8,0.5,7.7c1.4,1.8,4.3,4,4.3,4s1.3-2.1,1.6-2.5
		c0.3-0.4,1.9-2.8,1.1-6c-0.8-3.2-5-6.7-5-6.7S118.8,40.7,118.4,41.8z"/>
	<path class="st0" d="M122.5,56.4c0,0,0.1,2.4-0.6,5.2c-0.7,2.8-2.5,6-4.8,8.7l-0.4,2.7c0,0,3.5-4.5,5-8c1.5-3.6,1.8-7,1.9-8.7
		C123.6,54.7,122.5,56.4,122.5,56.4z"/>
	<path class="st0" d="M68.9,20.2c0,0,1.2-0.6,1.4-0.4c0.2,0.2,0.4,0.2-0.1,1.5c-0.5,1.3-1.2,2.7-3.6,4.7c-2.4,2-4.6,4.1-6.4,7.7
		c-1.7,3.6-3.7,8.3-4.4,13c-0.6,4.6-0.3,10.3,0.3,12.8c0.6,2.5,2,6.2,2,6.2s0.5,1.6,0.6,2.5c0.1,0.9,0,1.2-0.9-0.1
		c-0.9-1.3-3-5.9-3.8-9.9c-0.8-4.1-0.3-12.8,0.8-16.9c1.1-4.1,3.5-10.3,5.6-13.3C62.4,24.9,65.6,21.9,68.9,20.2z"/>
	<path class="st0" d="M80.2,16.8c0,0-0.3,0.4,0.3,0.9c0.6,0.4,1.2,0.6,3.1,0.4c1.9-0.2,10.2-0.6,14.9,1.4c4.7,2,10.8,5.4,13.1,7.4
		c2.3,1.9,4.7,5.3,5.8,7c1.1,1.7,4,6.9,4.4,7.4c0.4,0.5,1.3,1.8,1.3,1.4c0-0.4-1.7-3.9-2.4-5.3c-0.7-1.4-2.4-6.4-6.6-10.8
		c-4.2-4.5-9.1-7.7-14.6-9.1C94.2,15.8,82.3,15.9,80.2,16.8z"/>
	<path class="st0" d="M71.7,81.3c0,0-0.4,0.2-0.1,0.4c0.2,0.2,6.6,3.3,9.5,4.1c2.9,0.7,7.5,1.1,9.8,1c2.3-0.1,7.2-0.3,9.7-1.2
		c2.5-0.9,3-1.3,3.1-1.9c0.1-0.6,0-0.9-0.8-0.6c-0.8,0.3-8,2.9-11.1,2.8c-3.1-0.1-8.1-0.7-10.4-1.4c-2.3-0.7-6.4-2.8-7-2.9
		C73.7,81.4,72.3,80.9,71.7,81.3z"/>
</g>
</svg>
