<?xml version="1.0" encoding="utf-8"?>
<!-- Generator: Adobe Illustrator 20.0.0, SVG Export Plug-In . SVG Version: 6.00 Build 0)  -->
<svg version="1.1" id="Layer_1" xmlns="http://www.w3.org/2000/svg" xmlns:xlink="http://www.w3.org/1999/xlink" x="0px" y="0px"
	 width="178px" height="107px" viewBox="0 0 178 107" style="enable-background:new 0 0 178 107;" xml:space="preserve">
<style type="text/css">
	.st0{fill:#AAAAAA;}
	.st1{fill-rule:evenodd;clip-rule:evenodd;fill:#AAAAAA;}
</style>
<g>
	<path class="st1" d="M108.8,75.2c-0.6,0.1-0.9,0.4-1.3,0.7c-0.3,0.2-0.7,0.4-1,0.4c-0.3,0-0.6-0.3-0.9-0.5
		c-0.5-0.5-1.2-0.5-1.8-0.8c-0.1-0.1-0.4,0.1-0.6,0.1c-0.2-0.5-0.7-0.7-1.2-0.8c-0.2,0-0.4-0.2-0.6-0.3c-0.3-0.4-0.6-0.8-0.8-1.3
		c-0.2-0.4-0.3-0.7-0.1-1.2c0.1-0.4-0.2-1-0.3-1.4c0,0,0,0,0-0.1c-0.2-0.4-0.8-0.8-0.3-1.4c-0.8-0.2-1.3,0.7-2.1,0.4
		c0.4-0.6,0.8-1.2,0.6-2c-0.1-0.4-0.3-0.8-0.6-1c-0.5,0.6-0.5,1.3-0.7,1.9c-0.5,0.1-0.9,0.2-1.4,0.3c-0.2-0.1-0.2-0.1,0-0.7
		c0,0,0.1,0,0.1,0c0.7,0,1-0.3,0.9-1c-0.1-0.7,0.2-1.2,0.6-1.7c0.1-0.2,0.2-0.4,0.2-0.6c0.1-0.2-0.1-0.4,0.2-0.5c0,0,0-0.1,0-0.2
		c-0.4-1.1-0.4-2.3-0.4-3.5c0,0,0,0,0-0.1c-1.6,0-3.2,0-4.8,0c1.8-2.8,3.5-5.5,5.3-8.3c-4,0-7.9,0-11.9,0c0,0.9,0,1.8,0,2.8
		c1.6,0,3.1,0,4.8,0c-1.4,2.2-2.7,4.3-4,6.4c-0.8-0.9-1.7-0.7-2.7-0.6c-0.5,0.1-0.9,0.1-1.4,0.1c-1.1-0.1-1.9,0.4-2.8,0.9
		c-0.3,0.2-0.7,0.4-1.1,0.4c-0.4,0.1-0.7,0.3-1.1,0.4c-0.6,0.1-1.2,0-1.8,0.1c-0.3,0-0.5,0.1-0.8,0.3c-0.5,0.3-1,0.6-1.5,0.9
		c-0.1,0.1-0.2,0.2-0.3,0.2c-0.1,0.1-0.3,0.2-0.4,0.2c-0.6,0.1-0.7,0.3-0.9,0.9c-0.1,0.4-0.2,0.8-0.5,1.1c-0.2,0.2-0.6,0.3-0.9,0.3
		c-0.5-0.1-0.8,0-1.2,0.2c-0.3,0.1-0.5,0.2-0.8,0c0,0-0.2,0-0.2,0C68.1,66,68,66,68,66c-1-0.1-1.9,0.5-2.9,0.4
		c-0.6,0-0.9,0.3-1.1,0.9c-0.1,0.2-0.3,0.4-0.5,0.4c-0.6,0.1-1,0.5-1.3,1c-0.2,0.3-0.4,0.6-0.8,0.4c0,0.1,0,0.2-0.1,0.2
		c-0.5,0-1.1,0.1-1.6,0.1c-0.3,0-0.6,0.1-0.9-0.2c-0.1-0.1-0.2-0.1-0.3-0.1c-0.5,0.1-0.7-0.2-1-0.5c-0.4-0.3-0.7-0.6-1.2-0.5
		c-0.1,0-0.2-0.1-0.2-0.2c-0.1-0.4-0.2-0.8-0.3-1.1c0.3-0.1,0.6-0.1,0.7-0.3c0.2-0.4,0.4-0.9,0.3-1.3c-0.2-0.7-0.1-1.4-0.3-2.1
		c-0.1-0.3-0.2-0.7-0.4-1c-0.4-0.6-0.8-1.3-1.3-1.9c-0.4-0.6-0.6-1.2-0.7-1.9c-0.1-0.7-0.4-1.2-0.8-1.6c-0.1-0.2-0.2-0.4-0.4-0.6
		c0,0,0-0.1,0-0.1c-0.6-0.6-1-1.4-1.3-2.2c-0.2-0.7-0.9-1.1-1.4-1.6c-0.3-0.3-0.6-0.6-0.8-1c0.4,0,0.4,0,0.6,0.4
		c0,0.1,0.2,0.2,0.3,0.3c0.2,0.2,0.4,0.2,0.4,0c0-0.1,0-0.4-0.1-0.5c-0.3-0.4-0.6-0.8-0.8-1.2c0,0,0-0.1,0.1-0.2
		c0.2,0.4,0.4,0.7,0.6,1.1c0.1-0.1,0.1-0.1,0.2-0.2c0,0,0.1,0,0.1,0c0,0.1,0.1,0.2,0.1,0.3c0.1,0.1,0.2,0.2,0.3,0.3
		c0.1-0.1,0.3-0.3,0.3-0.4c0-0.5-0.1-0.9-0.4-1.3c-0.5-0.6-0.9-1.3-1.4-1.9c-0.4-0.5-0.5-1-0.5-1.6c0-0.2,0.2-0.5,0.3-0.7
		c0.2-0.3,0.2-0.5,0.2-0.8c0-0.1,0-0.3,0-0.4c0-0.2,0-0.4-0.1-0.5c-0.5-0.5-0.3-1-0.1-1.6c0.1-0.3,0.1-0.7,0.5-0.9
		c0,0.5,0.1,1,0.1,1.5c0.3,0,0.4-0.2,0.5-0.4c0.1-0.3,0.2-0.6,0.3-0.9c0-0.1,0-0.1,0.1-0.1c0.5-0.3,0.9-0.6,1.4-0.9
		c0.1-0.1,0.2-0.2,0.3-0.3c0,0,0-0.1,0.1-0.1c0.4-0.4,0.6-1,1.1-1.2c0.2-0.1,0.3-0.2,0.5-0.4c0.4-0.6,1.1-0.6,1.7-0.5
		c0.5,0.1,1-0.1,1.4-0.4c0.3-0.2,0.6-0.5,1-0.5c0.5-0.1,0.9-0.4,1.2-0.8c0.2-0.3,0.5-0.3,0.8-0.3c0.2,0,0.3,0,0.5,0
		c0.2,0,0.3-0.1,0.4-0.1c0.3-0.1,0.6-0.2,0.9-0.3c0.1,0,0.2-0.1,0.4-0.1c0.9-0.2,1.5-0.9,2-1.6c0.3-0.4,0.3-0.9,0.5-1.3
		c0-0.1,0-0.1,0.1-0.2c0.3-0.3,0.7-0.7,1-0.9c-0.2-0.6-0.4-1.1-0.4-1.6c0-0.4,0.1-0.7,0.6-0.9c0.3-0.1,0.4-0.5,0.6-0.8
		c0.1-0.1,0.1-0.3,0.1-0.4c0.5,0.8,0.9,1.5,1.4,2.3c0.1,0,0.1,0,0.2,0c0-0.3,0.1-0.6,0.1-0.9c0.1,0,0.2-0.1,0.4-0.1
		c-0.1-0.2-0.1-0.5-0.3-0.6c-0.4-0.3-0.3-0.7-0.4-1.1c0-0.2,0.1-0.3,0.3-0.2c0.2,0,0.3,0,0.5,0c0.1,0,0.2,0.1,0.3,0.2
		c0.2,0.3,0.5,0.4,0.8,0.4c0.1,0,0.2-0.1,0.2-0.1c0-0.1,0-0.2-0.1-0.2c-0.3-0.2-0.3-0.5,0-0.7c0.3-0.3,0.3-0.5,0.2-0.9
		c-0.1-0.3,0.1-0.6,0.5-0.5c0.1,0,0.3,0.1,0.4,0.1c-0.2-0.8-0.2-0.8,0-1c0.2,0.1,0.4,0.1,0.7,0.2c-0.1-0.2-0.1-0.3-0.2-0.4
		c-0.3-0.4-0.2-0.7,0.3-0.8c0.1,0,0.2-0.1,0.2-0.1c0.3-0.1,0.4-0.1,0.5,0.2c0.6-0.3,0.7-0.8,0.4-1.5c0,0,0.1,0,0.1,0
		c0.1,0.1,0.2,0.3,0.3,0.5c0.1-0.1,0.2-0.3,0.3-0.3c0.2,0,0.4,0.1,0.5,0c0.2-0.1,0.6-0.2,0.4-0.7c0.2,0,0.3,0.1,0.4,0.1
		c0.1,0,0.2,0.1,0.3,0.1c0.5-0.1,0.8,0.3,1.1,0.6c0.3,0.3,0.7,0.6,1,1c0.1,0.1,0.1,0.2,0.1,0.3c0,0.5-0.1,0.9-0.1,1.4
		c0.1-0.2,0.3-0.5,0.3-0.7c0-0.4,0.3-0.4,0.6-0.4c0-0.2,0-0.4,0.4-0.3c0.2,0.1,0.5,0.1,0.7,0c0.3-0.1,0.5,0,0.7,0.2
		c0.2,0.2,0.4,0.4,0.7,0.6c0.1-0.4-0.3-0.8,0.3-0.9c-0.3-0.3-0.5-0.6-0.7-0.9c-0.2-0.3,0-0.6,0.2-0.8c0.2-0.2,0.4-0.6,0.5-0.9
		c0.1-0.3,0.1-0.4,0.4-0.3c0.1,0,0.3,0,0.4,0c0.1-0.1,0.2-0.3,0.2-0.4c0-0.1-0.1-0.2-0.3-0.3c0-0.1,0-0.2,0-0.4
		c0-0.4,0.1-0.6,0.5-0.7c0.2-0.1,0.3-0.2,0.5-0.3c0,0,0-0.1,0-0.1c0.2,0.1,0.4,0.2,0.7,0.4c-0.1-0.2-0.1-0.4-0.2-0.6
		c0.2-0.2,0.3-0.5,0.7-0.3c0.1,0.1,0.3-0.1,0.5-0.1c0.7,0,1.4,0.1,2.1-0.2c0.2-0.1,0.4-0.3,0.4-0.6c0-0.1,0-0.2,0-0.3
		c0-0.4-0.2-0.6-0.6-0.5c-0.4,0.1-0.6-0.1-0.8-0.3c-0.1-0.1-0.2-0.1-0.2-0.2c0.1-0.1,0.2-0.2,0.4-0.2c0.1,0.2,0.1,0.3,0.2,0.6
		c0.1-0.3,0.1-0.4,0.2-0.7c0.4,0.3,0.7,0.6,1,0.8c0.3-0.4,0.3-0.4,0.6,0c0.2,0.2,0.4,0.4,0.7,0.5c0.3,0,0.6,0.1,1.1,0.1
		c0.1,0,0.2,0.1,0.4,0.2c0.1,0,0.1,0,0.2,0c0.4,0.3,0.9,0.3,1.4,0.2c0,0,0.1,0,0.1,0c0.4,0.2,0.7,0.3,1.1,0.5
		c0.3-0.5,0.9-0.5,1.4-0.5c0,0.1-0.1,0.3-0.1,0.4c0.2,0,0.3-0.1,0.4-0.1c0,0.3,0,0.5,0,0.8c0.4,0,0.7-0.2,0.6-0.5
		c-0.1-0.4,0.1-0.6,0.5-0.7c0.1,0.3,0.1,0.5,0.2,0.7c0.2,0,0.4,0,0.6,0c0,0.2,0,0.4-0.1,0.6c-0.1,0.2-0.3,0.4-0.6,0.7
		c0.2,0.2,0.1,0.5-0.2,0.7c-0.1,0.1-0.3,0-0.6-0.1c0,0.1-0.1,0.2-0.1,0.4c-0.1,0-0.2-0.1-0.3-0.2c0,0.1-0.1,0.2-0.1,0.3
		c-0.1,0.2-0.1,0.4-0.2,0.7c0.2,0,0.3,0,0.4,0c0,0.1,0,0.1,0,0.1c-0.3,0.7-0.5,1.4-0.8,2.1c-0.2,0.4,0,0.9,0.5,0.9
		c0.1,0,0.2,0.1,0.2,0.1c0.1,0,0.1,0.1,0.2,0.1c0.7,0.2,0.8,0.8,0.8,1.6c0.3-0.4,0.6-0.1,0.9-0.1c0.5,0,0.9,0.3,1.3,0.6
		c0.4,0.3,0.8,0.5,1.1,0.8c0.2,0.2,0.6,0.3,1,0.5c0.2,0.1,0.5,0.1,0.7,0.2c0.3,0.1,0.5,0.3,0.6,0.6c0.1,0.2,0.3,0.4,0.5,0.6
		c0.3,0.2,0.6,0.4,0.8,0.6c0.4,0.3,0.8,0.3,1.3,0.2c0,0,0.1,0,0.1,0c0.7-0.1,1.1-0.5,1.1-1.2c0-0.1,0.1-0.2,0.1-0.2
		c0.4-0.6,0.6-1.2,0.8-1.9c0.1-0.5,0.3-1.1,0.6-1.6c0.2-0.4,0.2-0.8,0.1-1.3c-0.1-0.4-0.2-0.7-0.1-1.1c0.1-0.2,0-0.5,0-0.7
		c0-0.4,0-0.8,0.2-1.2c0.1-0.1,0.1-0.3,0.1-0.4c0.1-0.3,0.1-0.5,0.2-0.8c0-0.2,0.2-0.4-0.1-0.5c0,0-0.1-0.1-0.1-0.2
		c0.1-0.3,0.1-0.5,0.2-0.8c0-0.1,0.1-0.1,0.2-0.1c0.3-0.1,0.4-0.3,0.5-0.6c0.1-0.4,0.2-0.7,0.5-1c0.1-0.1,0.2-0.3,0.2-0.5
		c0-0.3,0.1-0.4,0.4-0.5c0.2,0,0.4-0.2,0.6-0.4c0,0.2,0.1,0.3,0.1,0.5c0,0.6,0,1.1,0,1.7c0,0.3,0,0.5,0.4,0.5c0.1,0,0.2,0.2,0.2,0.3
		c-0.1,0.5,0.2,0.8,0.4,1.2c0,0,0.1,0.1,0.1,0.1c0.1,0.8,0.5,1.5,0.4,2.4c0,0.5,0.2,1,0.4,1.4c0.2,0.4,0.4,0.3,0.8,0.1
		c0.1-0.1,0.3-0.1,0.4-0.2c0.3-0.1,0.5,0,0.6,0.3c0.1,0.2,0.2,0.4,0.4,0.5c0.3,0.2,0.6,0.6,0.9,0.9c0,0,0.1,0.1,0.1,0.1
		c0,0.3,0,0.5,0,0.8c-0.1,0.5,0.1,1,0.1,1.5c0.1,0.3,0,0.7,0.1,1c0.1,0.4,0.2,0.8,0.7,1c0,0,0.1,0.1,0.1,0.1
		c0.1,0.7,0.4,1.4,0.3,2.1c-0.1,0.3-0.1,0.6-0.1,1c0,0.1,0.1,0.3,0.2,0.4c0.3,0.1,0.3,0.4,0.3,0.6c0,0.3,0.1,0.5,0.4,0.7
		c0.4,0.2,0.7,0.5,1.1,0.6c0.2,0,0.4,0.1,0.6,0.1c0,0.2,0.1,0.4,0.1,0.7c0.1,0.3,0.2,0.3,0.5,0.4c0.3,0,0.6,0.2,0.8,0.4
		c0.2,0.1,0.2,0.4,0.5,0.4c0.3-0.1,0.8,0.6,0.7,0.9c-0.1,0.1-0.2,0.2-0.2,0.4c0,0.2,0.1,0.4,0.2,0.4c0.4,0.1,0.5,0.4,0.6,0.7
		c0.1,0.3,0.1,0.7,0.4,0.9c0.1,0,0.1,0.2,0,0.3c-0.1,0.7,0,1.3,0.3,1.9c0.1,0,0.3,0,0.4-0.1c0.1-0.2,0.1-0.4,0.2-0.6
		c0.4,0.4,0.7,0.7,1,1c0.1-0.2,0.1-0.4,0.2-0.5c0,0,0.1,0,0.1,0c0,0.4,0.1,0.8,0.1,1.3c0,0.1,0,0.3,0,0.4c-0.1,0.8,0.3,1.4,0.8,2
		c0.1,0.1,0.1,0.1,0.2,0.1c0.7,0,0.8,0.6,1,1.1c0.1,0.2,0.3,0.4,0.5,0.6c0.2,0.3,0.3,0.7,0.5,1c0,0.1,0,0.2,0.1,0.2
		c0.3,0.1,0.3,0.4,0.3,0.6c0,0.3,0,0.6,0.1,0.8c0.4,0.4,0.1,0.7,0.1,1.1c-0.1,0.4,0,0.9,0,1.4c0,0.1-0.1,0.3-0.1,0.4
		c0,0.1-0.1,0.3,0,0.4c0.1,0.7,0.3,1.3,0.4,2c0.1,0.7,0,1.4-0.4,2c-0.2,0.5-0.4,1-0.6,1.5c-0.2,0.4-0.4,0.9-0.6,1.3
		c-0.1,0.3-0.3,0.6-0.3,0.9c-0.1,0.9-0.6,1.6-1.1,2.3c-0.2,0.3-0.6,0.5-0.5,0.9c0,0.2-0.3,0.4-0.5,0.5c-0.5,0.2-0.9,0.5-1.2,1
		c-0.2,0.4-0.4,0.8-1,0.8c0.3,0.3,0.2,0.6,0,0.8c-0.4,0.6-0.8,1.3-1.1,1.9c-0.1,0.2-0.2,0.4-0.2,0.5c-0.1,0-0.1-0.1-0.2-0.1
		c-0.3,0.4-0.7,0.8-0.9,1.2c-0.2,0.3-0.2,0.8-0.4,1.1c-0.1,0.3-0.2,0.6-0.3,0.9c-0.2,0.3-0.3,0.7-0.3,1.1c0,0.3-0.1,0.5-0.1,0.8
		c-0.2-0.1-0.3-0.1-0.4-0.2c-0.2,0.7-0.7,0.5-1.2,0.5c-0.8-0.1-1.6-0.2-2.3,0.2c-0.4,0.2-0.8,0.4-1.1,0.7c-0.4,0.4-0.9,0.5-1.5,0.5
		c-0.4,0-0.3,0.2-0.3,0.4c0.2-0.1,0.3-0.2,0.4-0.3c0,0,0,0,0.1,0c-0.1,0.2-0.2,0.5-0.3,0.7c-0.3-0.4-0.6-0.7-0.9-1
		c0,0-0.1-0.1-0.2-0.1c-0.4-0.1-0.4-0.2-0.3-0.6c0-0.1,0-0.2-0.1-0.3c-0.1,0-0.2,0-0.3,0.1c-0.3,0.2-0.6,0.3-0.8,0
		c0.3-0.1,0.5-0.4,0.4-0.7c-0.1-0.2-0.2-0.3-0.4-0.2c-0.2,0.1-0.4,0.2-0.6,0.3C108.5,74.9,108.6,75,108.8,75.2z M117.1,51
		c-3.3,0-6,2.6-6,5.9c0,3.2,2.7,5.9,6,5.9c3.2,0,5.9-2.7,5.9-5.9C123,53.6,120.4,51,117.1,51z M104.4,51c-3.3,0-6,2.6-6,5.8
		c0,3.2,2.7,5.9,5.8,5.9c3.4,0,6.1-2.6,6.1-5.8C110.3,53.6,107.7,51,104.4,51z M53,49.6c1.3,0,2.6,0,3.9,0c0.1,0,0.2-0.1,0.3-0.2
		c0.1-0.3,0.2-0.7,0.3-1c0.1-0.2,0.2-0.3,0.4-0.3c0.7,0,1.5,0,2.2,0c0.2,0,0.3,0,0.4,0.3c0.1,0.3,0.2,0.7,0.3,1
		c0.1,0.2,0.2,0.3,0.4,0.3c1.1,0,2.3,0,3.4,0c0.1,0,0.2,0,0.4,0c0-0.1,0-0.1-0.1-0.2c-1-2.8-2.1-5.7-3.1-8.5
		c-0.1-0.2-0.2-0.3-0.4-0.3c-1.6,0-3.2,0-4.8,0c-0.3,0-0.4,0.1-0.5,0.4c-0.7,1.9-1.4,3.9-2.1,5.8C53.7,47.6,53.4,48.5,53,49.6z
		 M70.2,49.6c1.1,0,2.1,0,3.1,0c0.3,0,0.4-0.1,0.4-0.4c0-2.1,0-4.2,0-6.3c0-0.1,0-0.3,0-0.4c-1.2,0-2.4,0-3.6,0c0,0.1,0,0.3,0,0.4
		c0,1.4,0,2.7,0,4.1c0,0.3-0.1,0.5-0.4,0.6c-0.4,0.1-0.7-0.1-0.8-0.4c-0.1-0.2-0.1-0.4-0.1-0.6c0-1.2,0-2.4,0-3.7c0-0.1,0-0.3,0-0.4
		c-0.1,0-0.1-0.1-0.1-0.1c-1,0-2.1,0-3.1,0c-0.1,0-0.2,0.2-0.2,0.2c0,1.6,0,3.2,0,4.8c0,0.9,0.4,1.7,1.3,2c1.1,0.4,2.1,0.3,3.1-0.4
		c0.1,0,0.1-0.1,0.2-0.1C70.2,49.2,70.2,49.4,70.2,49.6z M119.2,49.4c0,0.1,0,0.2,0,0.4c1.2,0,2.4,0,3.6,0c0-0.1,0-0.1,0-0.1
		c0-1.4,0.1-2.8,0-4.2c-0.1-1.6-0.8-2.5-2.3-2.8c-1.6-0.4-3.1-0.1-4.6,0.6c-0.1,0-0.2,0.1-0.2,0.2c0,0.7,0,1.4,0,2.1
		c0.2-0.1,0.4-0.2,0.6-0.3c0.7-0.3,1.4-0.4,2.1-0.2c0.5,0.1,0.8,0.4,0.8,0.9c-0.2,0-0.3,0-0.5-0.1c-0.8-0.1-1.6-0.1-2.3,0.4
		c-0.7,0.5-1,1.5-0.7,2.4c0.3,0.8,1,1.3,1.9,1.2C118.1,49.8,118.7,49.5,119.2,49.4z M104.6,49.7c0-1.6,0-3.2,0-4.7
		c0-1.2-0.7-1.9-1.8-2.3c-1.8-0.6-3.5-0.3-5.1,0.5c-0.1,0-0.2,0.1-0.2,0.2c0,0.7,0,1.4,0,2.1c0.4-0.2,0.8-0.3,1.2-0.4
		c0.5-0.2,1.1-0.2,1.6,0c0.4,0.2,0.6,0.4,0.6,0.8c-0.2,0-0.4-0.1-0.5-0.1c-0.6,0-1.1,0-1.7,0.1c-0.9,0.3-1.4,1.1-1.3,2.1
		c0.1,0.9,0.6,1.5,1.4,1.7c0.6,0.1,1.2,0,1.8-0.3c0.1-0.1,0.2-0.1,0.4-0.2c0,0.2,0,0.3,0.1,0.5c1.1,0,2.1,0,3.2,0
		C104.3,49.7,104.4,49.7,104.6,49.7z M81.3,43c-0.1,0-0.1-0.1-0.2-0.1c-1.2-0.5-2.5-0.6-3.8-0.5c-0.5,0.1-1.1,0.2-1.6,0.4
		c-1.4,0.7-1.5,2.5-0.2,3.3c0.3,0.2,0.7,0.3,1,0.5c0.3,0.1,0.6,0.2,0.8,0.4c0.3,0.1,0.5,0.3,0.4,0.7C77.6,48,77.3,48,77,48
		c-0.6,0-1.1-0.4-1.5-0.8c-0.1-0.1-0.2-0.2-0.3-0.3c-0.3,0.7-0.5,1.3-0.8,2c1.4,0.7,2.9,1,4.5,0.8c0.7-0.1,1.4-0.3,2-0.7
		c1.1-0.9,1-2.6-0.3-3.3c-0.4-0.2-0.9-0.4-1.3-0.5c-0.2-0.1-0.5-0.1-0.7-0.3c-0.1-0.1-0.3-0.4-0.2-0.5c0-0.1,0.3-0.3,0.5-0.3
		c0.5-0.1,0.9,0.2,1.3,0.5c0.1,0.1,0.3,0.2,0.4,0.3C80.8,44.2,81,43.6,81.3,43z M89.4,49.7c1.2,0,2.3,0,3.5,0c0.1,0,0.2-0.2,0.2-0.3
		c0-0.6,0-1.1,0-1.7c0-0.6,0-1.1,0.1-1.7c0-0.2,0.2-0.4,0.3-0.6c0.4,0.2,0.7,0.4,1,0.5c0.7,0.2,1.3,0.1,1.8-0.4
		c0.5-0.5,0.6-1.2,0.4-1.9c-0.2-0.7-0.8-1-1.5-1.1c-0.6,0-1.1,0.2-1.5,0.6c-0.2,0.2-0.4,0.5-0.6,0.7c0-0.4,0-0.8,0-1.2
		c-1.3,0-2.5,0-3.7,0C89.4,44.9,89.4,47.3,89.4,49.7z M86.8,40.5c-1.7,1.4-3.4,2.7-5,3.9c0,0,0,0.1,0,0.1c0.4,0,0.8,0,1.2,0
		c0,0.8,0,1.6,0,2.4c0,0.8,0.3,1.5,0.9,2c1.2,1.1,3.1,0.9,4.2,0.3c0.1-0.1,0.2-0.2,0.2-0.3c0-0.7,0-1.4,0-2.1c0-0.1,0-0.2,0-0.4
		c-0.2,0.1-0.4,0.3-0.5,0.3c-0.4,0.2-0.9,0-0.9-0.3c0-0.6,0-1.2,0-1.9c0.5,0,1,0,1.4,0c0-0.7,0-1.3,0-2c-0.5,0-0.9,0-1.4,0
		C86.8,41.9,86.8,41.2,86.8,40.5z M105.8,40.8c0,3,0,6,0,8.9c1.2,0,2.5,0,3.7,0c0-3,0-6,0-8.9C108.2,40.8,107,40.8,105.8,40.8z
		 M110.8,49.7c0.1,0,0.2,0,0.3,0c1,0,2,0,2.9,0c0.3,0,0.4-0.1,0.4-0.4c0-2.1,0-4.2,0-6.3c0-0.1,0-0.2,0-0.4c-1.2,0.6-2.5,0.5-3.7,0
		C110.8,45,110.8,47.3,110.8,49.7z M112.4,41.6c0,0.6,0.5,1.1,1.1,1.1c0.6,0,1.1-0.5,1.1-1.1c0-0.6-0.5-1-1.1-1
		C112.8,40.5,112.4,41,112.4,41.6z"/>
	<path class="st1" d="M108.8,84c0.1,0.2,0.2,0.3,0.2,0.5c0.1-0.1,0.2-0.2,0.2-0.3c-0.5-1.1-1.2-2.2-0.8-3.5c0.6,0.2,1.2,0.3,1.7,0.8
		c0.4,0.4,0.9,0.5,1.5,0.3c0.2-0.1,0.5-0.1,0.8-0.1c0.2,0,0.3,0,0.4-0.1c0.2-0.1,0.3-0.3,0.6-0.1c0,0,0.2-0.1,0.3-0.2
		c0.2,0.1,0.4,0.3,0.4,0.6c0,0.5-0.2,0.9-0.2,1.4c0,0.5-0.3,0.8-0.5,1.1c-0.1,0.2-0.2,0.5-0.3,0.7c-0.2,0.5-0.2,0.5-0.7,0.4
		c-0.2,0.3-0.4,0.6-0.6,0.8c-0.4-0.2-0.4-0.2-0.5,0.2c0,0.2-0.1,0.3-0.2,0.5c-0.1,0.1-0.2,0.2-0.4,0c-0.2-0.1-0.5-0.1-0.8-0.2
		c-0.1,0-0.2-0.1-0.3-0.1c0.1-0.1,0.2-0.2,0.4-0.3c-0.3-0.1-0.6-0.2-0.7-0.6c-0.1-0.3-0.3-0.6-0.4-0.9
		C108.9,84.7,108.8,84.4,108.8,84z"/>
	<path class="st1" d="M93.7,67.4c-0.2,0-0.3,0.1-0.4,0c-0.4-0.3-0.7-0.6-1.1-0.9c0,0,0-0.1,0-0.2c0.2,0.1,0.3,0.2,0.5,0.3
		c0-0.1,0.1-0.3,0.1-0.4c-0.1-0.4-0.2-0.8-0.4-1.2c-0.2-0.4-0.6-0.7-0.7-1.2c0-0.2-0.2-0.4-0.5-0.4c-0.2,0-0.4-0.2-0.5-0.2
		c0-0.4,0.2-0.6,0.6-0.6c1.8,0,3.6,0,5.4,0c0.1,0,0.2,0,0.3,0c0,0.1,0,0.2,0,0.3c-0.5,0.3-0.6,0.9-0.8,1.4c0,0.1-0.1,0.2-0.2,0.3
		c-0.6,0-0.9,0.4-1.3,0.7c-0.4,0.4-0.7,0.9-1,1.3C93.6,66.9,93.7,67.2,93.7,67.4z"/>
	<path class="st1" d="M67.7,80.4c-0.3,0-0.6,0-0.9,0c0.1-0.7,0.3-1.3,0.4-2c0-0.1,0-0.1,0-0.2c0.1-0.3,0.1-0.5-0.2-0.7
		c-0.3-0.1-0.6,0-0.8,0.3c-0.1,0.1-0.1,0.3-0.2,0.4c-0.2,0.7-0.3,1.4-0.5,2.2c-0.3,0-0.6,0-0.9,0c0.3-1.2,0.5-2.4,0.8-3.6
		c0.3,0,0.6,0,0.9,0c0,0.1,0,0.3,0,0.4c0.3-0.1,0.7-0.3,1.1-0.4c0.4-0.1,0.8,0.1,0.9,0.5c0.3-0.2,0.5-0.3,0.8-0.4
		c0.6-0.2,1.5,0.1,1.3,1.1c-0.2,0.8-0.3,1.6-0.5,2.5c-0.3,0-0.6,0-0.9,0c0.1-0.6,0.3-1.3,0.4-1.9c0-0.2,0.1-0.3,0.1-0.5
		c0-0.4-0.3-0.6-0.6-0.5c-0.3,0.1-0.5,0.4-0.6,0.7C68,78.9,67.8,79.6,67.7,80.4z"/>
	<path class="st1" d="M58.5,80.4c0.2-0.7,0.3-1.4,0.5-2.2c-0.6,0-1.2,0-1.8,0c-0.1,0-0.2,0.2-0.2,0.3c-0.1,0.5-0.2,1-0.3,1.6
		c0,0.3-0.2,0.4-0.4,0.3c-0.2,0-0.4,0-0.6,0c0.4-1.7,0.7-3.3,1.1-4.9c0.3,0,0.7,0,1,0c-0.1,0.6-0.3,1.2-0.4,1.8c0.7,0,1.3,0,1.9,0
		c0.1-0.5,0.2-1,0.3-1.5c0-0.3,0.2-0.3,0.4-0.3c0.2,0,0.4,0,0.7,0c-0.4,1.7-0.7,3.3-1.1,4.9C59.2,80.4,58.9,80.4,58.5,80.4z"/>
	<path class="st1" d="M82.9,87.2c-0.4,0-0.7,0-1,0c0.3-1.6,0.7-3.1,1-4.6c0-0.1,0.1-0.2,0.2-0.2c0.2,0,0.5,0,0.8,0
		c-0.1,0.6-0.2,1.2-0.4,1.8c0.6,0,1.3,0,1.9,0c0.1-0.6,0.3-1.2,0.4-1.8c0.3,0,0.6,0,1,0c-0.1,0.7-0.3,1.3-0.4,1.9
		c-0.2,0.9-0.4,1.8-0.6,2.7c0,0.2-0.1,0.3-0.4,0.3c-0.2,0-0.4,0-0.7,0c0.2-0.7,0.3-1.4,0.5-2.2c-0.6,0-1.2,0-1.8,0
		c-0.1,0-0.1,0.1-0.2,0.2C83.2,85.9,83,86.5,82.9,87.2z"/>
	<path class="st1" d="M53,85.5c-0.4,1.4-2,2.1-3.2,1.6c-0.4-0.2-0.7-0.5-0.9-0.9c-0.5-1.5,0.6-3.6,2.1-4c0.5-0.1,1.1-0.1,1.6,0.1
		c0.6,0.3,0.9,0.8,0.8,1.5c-0.1,0-0.3,0-0.5,0c-0.2,0-0.3,0-0.5,0c-0.3-0.9-1.1-1.1-1.8-0.5c-0.7,0.6-0.9,1.5-0.8,2.4
		c0.1,0.5,0.5,0.8,1.1,0.7c0.3-0.1,0.7-0.3,0.9-0.6c0.2-0.2,0.4-0.3,0.6-0.3C52.7,85.5,52.8,85.5,53,85.5z"/>
	<path class="st1" d="M71.2,84c0.1-0.5,0.2-0.9,0.3-1.4c0-0.2,0.1-0.3,0.4-0.3c0.2,0,0.4,0,0.6,0c-0.2,0.8-0.3,1.6-0.5,2.3
		c-0.2,0.7-0.3,1.5-0.5,2.2c-0.1,0.3-0.2,0.4-0.4,0.4c-0.2,0-0.3,0-0.5,0c0-0.1,0-0.2,0-0.3c0,0-0.1,0-0.1,0
		c-0.3,0.1-0.5,0.3-0.8,0.4c-0.8,0.1-1.3-0.2-1.4-1c-0.1-1,0.2-1.9,1.1-2.5C70.1,83.3,70.7,83.4,71.2,84z M69.3,85.7
		c0,0.3,0,0.6,0.3,0.7c0.3,0.2,0.5,0.1,0.8-0.1c0.5-0.3,0.6-0.8,0.6-1.3c0-0.3,0-0.6-0.3-0.7c-0.3-0.1-0.6-0.1-0.8,0.1
		C69.4,84.7,69.3,85.2,69.3,85.7z"/>
	<path class="st1" d="M88.9,80.5c0.2-1.1,0.4-2.1,0.7-3.1c0.1-0.5,0.2-1,0.3-1.5c0-0.3,0.2-0.3,0.4-0.3c0.2,0,0.4,0,0.6,0
		c-0.1,0.6-0.2,1.1-0.3,1.6c0.3-0.1,0.6-0.3,0.9-0.4c0.8-0.2,1.4,0.3,1.3,1.1c0,0,0,0.1,0,0.1c-0.2,0.8-0.3,1.6-0.5,2.3
		c-0.3,0-0.6,0-0.9,0c0.1-0.6,0.2-1.1,0.3-1.6c0.1-0.3,0.1-0.5,0.1-0.8c0-0.3-0.1-0.4-0.4-0.4c-0.5,0-0.8,0.2-1,0.8
		c-0.2,0.6-0.3,1.2-0.4,1.8c0,0.3-0.1,0.3-0.4,0.3C89.3,80.4,89.1,80.5,88.9,80.5z"/>
	<path class="st1" d="M96.5,78.9c-0.4,0-0.8,0-1.2,0c-0.4,0-0.8,0-1.2,0c-0.1,0.3-0.1,0.6,0.2,0.8c0.3,0.2,0.7,0.2,0.9,0
		c0.4-0.3,0.7-0.2,1.2-0.2c-0.2,0.7-1.1,1.2-1.8,1.1c-1.1-0.1-1.5-0.6-1.4-1.7c0.2-1.1,0.8-1.9,1.7-2.1c1.3-0.3,2,0.5,1.8,1.8
		C96.5,78.7,96.5,78.8,96.5,78.9z M95.6,78.3c0.1-0.5-0.1-0.7-0.4-0.8c-0.5-0.1-0.9,0.3-1,0.8C94.7,78.3,95.2,78.3,95.6,78.3z"/>
	<path class="st1" d="M74.1,78.9c-0.8,0-1.5,0-2.2,0c-0.3,0-0.4,0.1-0.3,0.4c0.1,0.5,0.7,0.7,1.1,0.4c0.4-0.3,0.7-0.2,1.1-0.2
		c-0.2,0.6-1,1.1-1.8,1.1c-1.1,0-1.5-0.6-1.4-1.7c0.1-1.1,0.8-1.9,1.7-2.1c0.6-0.1,1.1-0.1,1.5,0.4C74.4,77.6,74.3,78.2,74.1,78.9z
		 M71.8,78.3c0.5,0,1,0,1.4,0c0.1-0.4,0-0.7-0.3-0.8C72.4,77.4,72.1,77.6,71.8,78.3z"/>
	<path class="st1" d="M100.6,86.2c-0.4,1-1.9,1.5-2.7,0.9c-0.2-0.1-0.4-0.4-0.4-0.6c-0.4-1.1,0.4-2.5,1.5-2.8
		c0.2-0.1,0.5-0.1,0.8-0.1c0.7,0,1.2,0.5,1.2,1.2c0,0.9,0,0.9-0.9,0.9c-0.6,0-1.1,0-1.7,0c-0.1,0.3-0.1,0.6,0.2,0.8
		c0.3,0.2,0.6,0.2,0.9,0C100,86.2,100,86.2,100.6,86.2z M100,85.1c0-0.5-0.1-0.7-0.4-0.8c-0.5-0.1-0.9,0.2-1,0.8
		C99,85.1,99.5,85.1,100,85.1z"/>
	<path class="st1" d="M77.2,85.6c-0.1,0.3-0.1,0.6,0.2,0.8c0.3,0.2,0.7,0.2,0.9,0c0.4-0.3,0.7-0.2,1.1-0.2c-0.1,0.5-0.9,1.1-1.6,1.1
		c-0.3,0-0.6,0-0.9-0.1c-0.4-0.1-0.6-0.3-0.7-0.7c-0.3-1.1,0.4-2.6,1.5-2.9c0.3-0.1,0.7-0.1,1,0c0.5,0.1,0.8,0.5,0.9,1.1
		c0,0.2,0,0.3,0,0.5c-0.1,0.5-0.1,0.5-0.6,0.5C78.5,85.6,77.8,85.6,77.2,85.6z M77.3,85c0.4,0,0.8,0,1.1,0c0.1,0,0.3,0,0.4-0.1
		c0-0.2,0-0.4-0.1-0.5c-0.2-0.1-0.4-0.2-0.6-0.2C77.7,84.3,77.5,84.6,77.3,85z"/>
	<path class="st1" d="M58.5,83.4c1,0,1.5,0.6,1.4,1.6c-0.1,1.3-1.1,2.2-2.4,2.2c-0.9,0-1.4-0.5-1.4-1.4C56.2,84.8,57,83.4,58.5,83.4
		z M59,85.1c0-0.7-0.3-0.9-0.9-0.9c-0.5,0.1-0.9,0.6-1,1.3c0,0.3,0,0.7,0.3,0.8c0.4,0.1,0.7,0.1,1-0.2C58.9,85.9,59,85.4,59,85.1z"
		/>
	<path class="st1" d="M80.3,78.2c0,1.3-1.1,2.4-2.4,2.3c-0.8,0-1.3-0.5-1.3-1.3c-0.1-1.3,1-2.5,2.3-2.5
		C79.7,76.7,80.3,77.2,80.3,78.2z M77.4,79c0,0.7,0.6,1,1.2,0.6c0.5-0.3,0.9-1.1,0.7-1.7c-0.1-0.3-0.3-0.4-0.6-0.4
		c-0.4,0-0.8,0.2-1,0.6C77.6,78.4,77.5,78.7,77.4,79z"/>
	<path class="st1" d="M62.9,76.7c1,0,1.5,0.5,1.5,1.5c0,1.4-1.3,2.5-2.7,2.3c-0.7-0.1-1.2-0.7-1.1-1.6
		C60.7,77.6,61.7,76.7,62.9,76.7z M62.2,79.7c0.5,0,0.8-0.2,0.9-0.6c0.2-0.4,0.3-0.9,0.1-1.3c-0.1-0.1-0.2-0.2-0.4-0.2
		c-0.4-0.1-0.8,0.1-1,0.5c-0.2,0.3-0.3,0.7-0.3,1.1C61.5,79.5,61.8,79.7,62.2,79.7z"/>
	<path class="st1" d="M65.6,87.2c-0.9,0-1.5-0.6-1.4-1.5c0-1.1,0.8-2,1.9-2.2c1.3-0.3,2.1,0.5,1.9,1.9
		C67.7,86.4,66.7,87.2,65.6,87.2z M67,85.1c0-0.7-0.4-1-1-0.8c-0.5,0.2-0.8,0.6-0.9,1.3c0,0.3,0,0.6,0.3,0.8c0.3,0.2,0.7,0.1,1-0.1
		C66.8,85.9,66.9,85.5,67,85.1z"/>
	<path class="st1" d="M88.5,83.6c-0.1,0.7-0.3,1.3-0.4,1.9c0,0,0,0,0,0.1c-0.1,0.6,0,0.8,0.3,0.9c0.4,0.1,0.9-0.2,1-0.6
		c0.2-0.5,0.2-1.1,0.4-1.6c0.1-0.2,0.1-0.5,0.2-0.7c0.3,0,0.6,0,0.9,0c-0.3,1.2-0.5,2.4-0.8,3.6c-0.3,0-0.6,0-0.8,0
		c0-0.1,0-0.3,0-0.4c-0.4,0.4-0.9,0.6-1.4,0.5c-0.5-0.1-0.8-0.3-0.8-0.9c0.1-0.9,0.3-1.8,0.5-2.7c0-0.1,0.1-0.1,0.2-0.1
		C88,83.6,88.2,83.6,88.5,83.6z"/>
	<path class="st1" d="M91.9,87.2c-0.3,0-0.6,0-0.9,0c0.2-0.7,0.3-1.4,0.4-2.1c0.1-0.4,0.2-0.8,0.3-1.2c0-0.3,0.2-0.3,0.4-0.3
		c0.2,0,0.4,0,0.6,0c0,0.2,0,0.3-0.1,0.4c0.3-0.1,0.6-0.4,1-0.4c0.8-0.2,1.4,0.4,1.2,1.2c-0.1,0.7-0.3,1.4-0.4,2.1
		c-0.1,0.3-0.2,0.4-0.4,0.3c-0.2,0-0.4,0-0.6,0c0.2-0.7,0.3-1.4,0.4-2.1c0-0.2,0-0.5-0.1-0.7c-0.2-0.2-0.6-0.2-0.8,0
		c-0.2,0.2-0.4,0.5-0.5,0.7C92.1,85.8,92,86.5,91.9,87.2z"/>
	<path class="st1" d="M85.8,80.5c0.3-1.4,0.6-2.7,0.9-4c-0.5,0-1,0-1.5,0c0-0.3,0.1-0.5,0.1-0.7c0-0.1,0.1-0.1,0.2-0.1
		c1.2,0,2.5,0,3.8,0c0,0.2-0.1,0.4-0.1,0.5c0,0.2-0.1,0.3-0.4,0.3c-0.3,0-0.5,0-0.8,0c-0.3,0-0.4,0.1-0.5,0.4
		c-0.2,1.1-0.5,2.1-0.7,3.2c-0.1,0.3-0.2,0.5-0.6,0.5C86.2,80.4,86,80.5,85.8,80.5z"/>
	<path class="st1" d="M63.8,84.8c-0.3,0-0.6,0-0.9,0c-0.1-0.3-0.1-0.6-0.6-0.6c-0.4,0-0.7,0.2-0.8,0.6c-0.1,0.3-0.2,0.7-0.2,1
		c0,0.2,0.1,0.5,0.3,0.6c0.2,0.2,0.6,0.1,0.8-0.1c0.3-0.5,0.7-0.4,1.2-0.4c0,0.1,0,0.2-0.1,0.3c-0.4,0.8-1.3,1.2-2.2,1.1
		c-0.6-0.1-0.9-0.4-0.9-1c-0.1-0.9,0.2-1.7,0.9-2.3c0.5-0.4,1.1-0.5,1.7-0.4C63.6,83.6,63.9,84.1,63.8,84.8z"/>
	<path class="st1" d="M81.6,80.4c-0.3,0-0.6,0-0.9,0c0.1-0.5,0.2-1,0.3-1.5c0.1-0.5,0.2-1,0.3-1.5c-0.2,0-0.3,0-0.5,0
		c0-0.2,0.1-0.4,0.1-0.6c0.5,0.1,0.6-0.1,0.7-0.5c0.2-0.6,0.7-0.9,1.6-0.8c0,0.2-0.1,0.3-0.1,0.5c0,0.3-0.3,0.1-0.4,0.2
		c-0.1,0.1-0.2,0.3-0.4,0.5c0.3,0,0.5,0,0.7,0c0,0.2-0.1,0.4-0.1,0.6c-0.6,0.1-0.6,0.1-0.8,0.7C81.9,78.9,81.8,79.7,81.6,80.4z"/>
	<path class="st1" d="M95.8,84.3c-0.2,0-0.3,0-0.5,0c0.1-0.3,0-0.7,0.5-0.6c0,0,0.1-0.2,0.2-0.3c0.2-0.8,0.2-0.8,1-0.7
		c-0.1,0.3-0.1,0.6-0.2,0.9c0.2,0,0.4,0,0.6,0.1c0,0.2-0.1,0.4-0.1,0.6c0,0-0.1,0-0.1,0c-0.4-0.1-0.6,0.1-0.6,0.5
		c0,0.4-0.2,0.8-0.2,1.2c-0.1,0.5-0.1,0.5,0.4,0.6c0,0.6,0,0.7-0.6,0.7c-0.1,0-0.1,0-0.2,0c-0.6-0.1-0.7-0.2-0.6-0.8
		c0.1-0.6,0.3-1.2,0.4-1.7C95.8,84.6,95.8,84.5,95.8,84.3z"/>
	<path class="st1" d="M75.3,82.3c0.3,0,0.6,0,0.9,0c-0.1,0.6-0.2,1.1-0.4,1.7c-0.2,0.9-0.4,1.8-0.6,2.8c-0.1,0.3-0.2,0.5-0.5,0.4
		c-0.1,0-0.3,0-0.5,0C74.6,85.5,75,83.9,75.3,82.3z"/>
	<path class="st1" d="M53.4,87.1c0.3-1.2,0.5-2.3,0.7-3.4c0-0.1,0.1-0.2,0.2-0.2c0.2,0,0.4,0,0.7,0c0,0.2,0,0.3-0.1,0.5
		c0.4-0.3,0.7-0.7,1.3-0.6c-0.1,0.3-0.1,0.6-0.2,0.9c-0.1,0-0.2,0-0.3,0c-0.6,0-0.9,0.2-1,0.8c-0.1,0.5-0.3,1-0.4,1.6
		c-0.1,0.3-0.2,0.5-0.5,0.4C53.8,87.1,53.6,87.1,53.4,87.1z"/>
	<path class="st1" d="M102.8,83.7c0,0.2,0,0.3-0.1,0.5c0.4-0.4,0.7-0.7,1.3-0.6c-0.1,0.3-0.1,0.6-0.2,0.9c-0.1,0-0.2,0-0.3,0
		c-0.6,0-0.9,0.2-1,0.8c-0.2,0.6-0.3,1.3-0.5,1.9c-0.3,0-0.6,0-0.9,0c0.3-1.2,0.5-2.4,0.8-3.6C102.2,83.7,102.5,83.7,102.8,83.7z"/>
	<path class="st1" d="M73.2,83.6c0.3,0,0.6,0,0.9,0c-0.1,0.6-0.2,1.2-0.4,1.8c-0.1,0.5-0.2,1-0.3,1.5c0,0.3-0.2,0.3-0.4,0.3
		c-0.2,0-0.4,0-0.6,0C72.7,85.9,72.9,84.8,73.2,83.6z"/>
	<path class="st1" d="M82.1,15.8c0.6,0.4,1.2,0.3,1.7-0.1c0.1,0,0.3,0,0.3,0c0.1,0.2,0.2,0.5,0.1,0.6c-0.2,0.3-0.5,0.5-0.8,0.7
		c-0.1,0-0.2,0-0.3,0C82.7,16.7,82.1,16.6,82.1,15.8z"/>
	<path class="st1" d="M97.5,69.6c-0.4,0-0.7-0.1-0.9,0.2c0,0-0.1,0.1-0.2,0.1c-0.4,0-0.8,0-1.1-0.1c-0.2,0-0.3-0.2-0.4-0.3
		c0.1-0.1,0.2-0.3,0.3-0.3c0.4-0.1,0.8-0.3,1.2-0.2c0.4,0.1,0.7,0.4,1.1,0.5C97.4,69.4,97.4,69.5,97.5,69.6z"/>
	<path class="st1" d="M95.9,21.2c0,0.1,0,0.3,0,0.4c0,0.1,0.1,0.3,0.1,0.5c-0.2,0-0.5,0-0.7,0c-0.2-0.1-0.3-0.3-0.2-1
		C95.4,21.2,95.7,21.2,95.9,21.2z"/>
	<path class="st1" d="M74.3,82.3c-0.1,0.9,0,0.8-1,0.8C73.2,82.3,73.5,82.1,74.3,82.3z"/>
	<path class="st1" d="M127.6,49.5c0-0.4-0.1-0.8,0.3-1.2c0.1-0.1,0.2-0.4,0.2-0.5C128.4,48.1,128.4,48.3,127.6,49.5z"/>
	<path class="st1" d="M82.2,16.9c-0.3,0-0.5,0-0.8,0c-0.1-0.3-0.1-0.6,0.2-0.9C81.8,16.3,82,16.6,82.2,16.9z"/>
	<path class="st1" d="M102.1,27.2c-0.2,0.1-0.3,0.3-0.5,0.4c-0.2,0.1-0.4,0.2-0.5-0.1C101.4,26.9,101.8,26.9,102.1,27.2z"/>
	<path class="st1" d="M113.9,79c0.6,0.6,0.7,1,0.3,1.1c-0.1-0.3-0.2-0.5-0.3-0.8C113.8,79.2,113.9,79.1,113.9,79z"/>
	<path class="st1" d="M95.7,15.4c-0.1,0.2-0.3,0.5-0.4,0.7c0,0-0.1,0-0.1,0c0.1-0.2,0.2-0.5,0.3-0.7C95.5,15.3,95.6,15.3,95.7,15.4z
		"/>
	<path class="st1" d="M114.1,80.5c0.4-0.2,0.4-0.2,0.6,0.1C114.4,80.6,114.3,80.5,114.1,80.5z"/>
	<path class="st1" d="M116,56.9c0-0.6,0.5-1.1,1.1-1.1c0.6,0,1.1,0.5,1.2,1.1c0,0.6-0.5,1.2-1.1,1.1C116.4,58,116,57.5,116,56.9z"/>
	<path class="st1" d="M105.4,56.9c0,0.6-0.5,1.1-1.1,1.1c-0.6,0-1.1-0.5-1.1-1.1c0-0.6,0.5-1.1,1.1-1.1
		C105,55.7,105.5,56.2,105.4,56.9z"/>
	<path class="st1" d="M59.7,45.9c-0.5,0-0.9,0-1.3,0c0.2-0.7,0.4-1.3,0.6-1.9c0,0,0,0,0.1,0C59.2,44.6,59.4,45.2,59.7,45.9z"/>
	<path class="st1" d="M119.3,47.2c-0.2,0.3,0.2,0.8-0.3,1c-0.3,0.1-0.6,0.1-0.8-0.2c-0.2-0.2-0.2-0.5,0-0.7
		C118.3,47.1,118.7,47,119.3,47.2z"/>
	<path class="st1" d="M100.9,47.6c0,0.5-0.2,0.6-0.6,0.6c-0.4,0-0.6-0.3-0.6-0.6c0-0.4,0.3-0.6,0.7-0.6
		C100.9,47,100.9,47.1,100.9,47.6z"/>
</g>
</svg>
