<?xml version="1.0" encoding="utf-8"?>
<!-- Generator: Adobe Illustrator 20.0.0, SVG Export Plug-In . SVG Version: 6.00 Build 0)  -->
<svg version="1.1" id="Layer_1" xmlns="http://www.w3.org/2000/svg" xmlns:xlink="http://www.w3.org/1999/xlink" x="0px" y="0px"
	 width="178px" height="107px" viewBox="0 0 178 107" style="enable-background:new 0 0 178 107;" xml:space="preserve">
<style type="text/css">
	.st0{fill:#AAAAAA;}
	.st1{fill-rule:evenodd;clip-rule:evenodd;fill:#AAAAAA;}
</style>
<g>
	<g>
		<path class="st0" d="M56.4,34.5c-0.1,1.2,0.4,2.1,1.1,3l3.3,5l3.2-4.9c1-1.5,1.3-2.1,1.2-3.1l4.8,0c-0.9,1-1.6,2-1.8,2.3l-5.7,8.5
			v7c0,0.2,0,1.3,0.6,2.4h-4.8c0.4-0.8,0.6-1.3,0.6-3.4v-5.7l-5.4-8c-1.1-1.8-1.7-2.3-2.7-2.9L56.4,34.5L56.4,34.5z"/>
		<path class="st0" d="M72.3,39.9c0-2.8-0.7-4.5-1-5.5c0.9-0.1,1.5-0.1,2.6-0.1c4.5,0,10,0.4,13.7,4.3c1.8,1.9,2.5,4.1,2.5,6.1
			c0,5.3-4.9,10-12.8,10h-5.9c0.5-1.3,1-2.4,1-6.2V39.9L72.3,39.9z M76,48c0,2.3,0,3.1,0.2,4.7c7.3-0.6,9.6-5.1,9.6-8.3
			c0-2.9-1.7-7.3-9.6-8.2C76,37.4,76,38.9,76,39.9V48L76,48z"/>
		<path class="st0" d="M110,38.2c-1.5-0.7-3.9-1.9-7-1.9c-3.7,0-7.9,2.6-7.9,8.2c0,4.6,3.3,8.2,8.9,8.2c2,0,2.9-0.3,3.9-0.7v-2.3
			c0-3.2-0.6-4.1-1.5-5.1h5.4c-0.2,0.6-0.6,1.6-0.6,3.6v2.5c0,1.4,0,1.8,0.4,3.2c-1.5,0.6-3.7,1.4-7.7,1.4
			c-9.9,0-12.2-6.2-12.2-10.1c0-2.6,0.9-5.3,2.8-7.4c2.4-2.7,5.2-3.7,9.8-3.7c2.7,0,4.4,0.4,5.7,0.7V38.2L110,38.2z"/>
		<path class="st0" d="M126,34.2l-1.7,3.2c-2.6-1-3.9-1.3-6.3-1.2v7.2h7.2l-2,2.9c-2.6-0.7-3.5-0.8-5.2-0.9v7.5c2.9,0,4.6,0,9.4-1.5
			l-1.7,3.4h-12.1c0.4-1.2,0.9-2.7,0.9-5.3v-10c0-1.4-0.2-3.4-0.9-5.2H126L126,34.2z"/>
		<path class="st0" d="M140.9,38.3c-1.2-0.7-2.6-1.6-5-1.6c-2.3,0-4,1.1-4,2.7c0,1.9,2.2,2.9,5.5,4.4c3.8,1.7,4.8,3.3,4.8,5.2
			c0,3.4-3.4,5.8-8.9,5.8c-2.1,0-3.3-0.3-4.5-0.5V50c1.2,1.1,2.7,2.5,5.1,2.5c2.3,0,3.9-1.4,3.9-2.8c0-1.4-1.4-2.3-2.2-2.7
			c-5.6-2.7-7.8-3.8-7.8-6.9c0-3.2,3.5-5.9,7.7-5.9c2.4,0,4,0.6,5.3,1V38.3L140.9,38.3z"/>
		<path class="st0" d="M38,38.5c0-2.4-0.4-3.5-0.7-4.2l4.8-0.1c6.3-0.1,9.2,3.1,9.2,5.8c0,3.3-3.5,5-4.6,5.5
			c2.2,3.2,5.2,6.2,8.1,9.2h-3.4c-3.3-2.4-4.8-3.8-9.8-9.5v5c0,1.6,0,2.2,0.7,4.4h-4.9c0.5-2,0.7-3.5,0.7-5.3V38.5L38,38.5z
			 M41.6,44.9c2.3-0.5,6-1.4,6-4.6c0-1.5-1.1-4-6-4.4V44.9L41.6,44.9z"/>
	</g>
	<polygon class="st0" points="37.3,57.3 141.4,57.3 141.4,57.9 37.3,57.9 37.3,57.3 	"/>
	<path class="st0" d="M91.6,62.7c1.7,0.2,2.2,1.2,2.2,1.9c0,1.4-1.3,1.7-2.2,2V62.7L91.6,62.7z M90.3,68.5c0,0.8,0,1.4-0.2,2.3h1.8
		c-0.2-0.9-0.2-1.2-0.2-1.9v-2.2c1.8,2.4,2.3,3.1,3.5,4.1h1.2c-1-1.3-2.1-2.6-2.9-4c0.4-0.2,1.7-0.9,1.7-2.4c0-1.2-1.1-2.6-3.3-2.5
		l-1.7,0c0.1,0.3,0.2,0.8,0.2,1.8V68.5L90.3,68.5z"/>
	<path class="st0" d="M102.5,61.9l-0.7,1.4c-1-0.4-1.5-0.6-2.4-0.5v3.1h2.7l-0.7,1.2c-1-0.3-1.3-0.3-2-0.4v3.2c1.1,0,1.7,0,3.6-0.6
		l-0.6,1.5h-4.6c0.2-0.5,0.3-1.1,0.3-2.3v-4.3c0-0.6-0.1-1.5-0.3-2.2H102.5L102.5,61.9z"/>
	<path class="st0" d="M69.7,61.9l-0.7,1.4c-1-0.4-1.5-0.6-2.4-0.5v3.1h2.7l-0.7,1.2c-1-0.3-1.3-0.3-2-0.4v3.2c1.1,0,1.7,0,3.6-0.6
		l-0.6,1.5H65c0.2-0.5,0.3-1.1,0.3-2.3v-4.3c0-0.6-0.1-1.5-0.3-2.2H69.7L69.7,61.9z"/>
	<path class="st0" d="M108.6,63.6c-0.4-0.3-0.9-0.7-1.7-0.7c-0.8,0-1.3,0.5-1.3,1.2c0,0.8,0.7,1.3,1.8,1.9c1.3,0.7,1.6,1.4,1.6,2.3
		c0,1.5-1.1,2.5-2.9,2.5c-0.7,0-1.1-0.1-1.5-0.2v-1.9c0.4,0.5,0.9,1.1,1.7,1.1c0.8,0,1.3-0.6,1.3-1.2c0-0.6-0.5-1-0.7-1.2
		c-1.9-1.2-2.6-1.6-2.6-3c0-1.4,1.2-2.6,2.6-2.6c0.8,0,1.3,0.2,1.8,0.4V63.6L108.6,63.6z"/>
	<path class="st0" d="M82,63.6c-0.4-0.3-0.9-0.7-1.7-0.7c-0.8,0-1.3,0.5-1.3,1.2c0,0.8,0.7,1.3,1.8,1.9c1.3,0.7,1.6,1.4,1.6,2.3
		c0,1.5-1.1,2.5-2.9,2.5c-0.7,0-1.1-0.1-1.5-0.2v-1.9c0.4,0.5,0.9,1.1,1.7,1.1c0.8,0,1.3-0.6,1.3-1.2c0-0.6-0.5-1-0.7-1.2
		c-1.9-1.2-2.6-1.6-2.6-3c0-1.4,1.1-2.6,2.6-2.6c0.8,0,1.3,0.2,1.8,0.4V63.6L82,63.6z"/>
	<path class="st0" d="M141.5,63.6c-0.4-0.3-0.9-0.7-1.7-0.7c-0.8,0-1.3,0.5-1.3,1.2c0,0.8,0.7,1.3,1.8,1.9c1.3,0.7,1.6,1.4,1.6,2.3
		c0,1.5-1.1,2.5-2.9,2.5c-0.7,0-1.1-0.1-1.5-0.2v-1.9c0.4,0.5,0.9,1.1,1.7,1.1c0.8,0,1.3-0.6,1.3-1.2c0-0.6-0.5-1-0.7-1.2
		c-1.9-1.2-2.6-1.6-2.6-3c0-1.4,1.1-2.6,2.6-2.6c0.8,0,1.3,0.2,1.8,0.4V63.6L141.5,63.6z"/>
	<path class="st0" d="M112.3,66.1c0-1.7,1.1-3.3,2.9-3.3c2,0,3.4,2,3.4,3.8c0,1.4-0.9,3.2-2.8,3.2C114.1,69.9,112.3,68.4,112.3,66.1
		L112.3,66.1z M110.8,66.3c0,2.3,1.7,4.6,4.6,4.6c2.5,0,4.6-1.8,4.6-4.5c0-2.2-1.5-4.5-4.3-4.5C112.6,61.9,110.8,64.3,110.8,66.3
		L110.8,66.3z"/>
	<path class="st0" d="M47.2,66.1c0-1.7,1.1-3.3,2.9-3.3c2,0,3.4,2,3.4,3.8c0,1.4-0.9,3.2-2.8,3.2C49,69.9,47.2,68.4,47.2,66.1
		L47.2,66.1z M45.8,66.3c0,2.3,1.7,4.6,4.6,4.6c2.5,0,4.6-1.8,4.6-4.5c0-2.2-1.5-4.5-4.3-4.5C47.5,61.9,45.8,64.3,45.8,66.3
		L45.8,66.3z"/>
	<path class="st0" d="M123.3,62.7c1.7,0.2,2.1,1.2,2.1,1.9c0,1.4-1.3,1.7-2.1,2V62.7L123.3,62.7z M122,68.5c0,0.8,0,1.4-0.2,2.3h1.8
		c-0.2-0.9-0.2-1.2-0.2-1.9v-2.2c1.8,2.4,2.3,3.1,3.5,4.1h1.2c-1-1.3-2.1-2.6-2.9-4c0.4-0.2,1.6-0.9,1.6-2.4c0-1.2-1.1-2.6-3.3-2.5
		l-1.7,0c0.1,0.3,0.2,0.8,0.2,1.8V68.5L122,68.5z"/>
	<path class="st0" d="M136.1,61.9l-0.6,1.4c-1-0.4-1.3-0.5-2.3-0.5v5.8c0,0.7,0.1,1.4,0.2,2.1h-1.8c0.1-0.6,0.2-1.2,0.2-2.2v-5.7
		c-0.6,0-1.1,0-2.8,0.6l0.5-1.5H136.1L136.1,61.9z"/>
	<path class="st0" d="M63.8,61.9l-0.6,1.4c-1-0.4-1.3-0.5-2.3-0.5v5.8c0,0.7,0.1,1.4,0.2,2.1h-1.8c0.1-0.6,0.2-1.2,0.2-2.2v-5.7
		c-0.6,0-1.1,0-2.8,0.6l0.5-1.5H63.8L63.8,61.9z"/>
	<circle class="st0" cx="85.9" cy="66.3" r="1.5"/>
	<path class="st0" d="M44.1,63.8c0-1,0.1-1.5,0.2-1.8l-0.8,0l0,0h0h0l0,0l-0.8,0c0.1,0.3,0.2,0.8,0.2,1.8v2h-4v-2
		c0-1,0.1-1.5,0.2-1.8l-0.8,0l0,0h0h0l0,0l-0.8,0c0.1,0.3,0.2,0.8,0.2,1.8v4.7c0,0.8,0,1.4-0.2,2.3h0.8h0h0.8
		c-0.2-0.9-0.2-1.5-0.2-2.3v-1.6h4v1.6c0,0.8,0,1.4-0.2,2.3h0.8h0h0.8c-0.2-0.9-0.2-1.5-0.2-2.3V63.8z"/>
	<path class="st0" d="M73.4,66.7C73.4,66.7,73.4,66.7,73.4,66.7l0-0.8h0l0-2.4c0,0,0-0.5,0-0.5l0.2-1h-1.9c0.2,0.8,0.3,1.6,0.3,2.2
		v4.3c0,1.1-0.2,1.8-0.3,2.3h4.6l0.6-1.5c-1.8,0.6-2.5,0.6-3.6,0.6V66.7z"/>
</g>
</svg>
