<?xml version="1.0" encoding="utf-8"?>
<!-- Generator: Adobe Illustrator 20.0.0, SVG Export Plug-In . SVG Version: 6.00 Build 0)  -->
<svg version="1.1" id="Layer_1" xmlns="http://www.w3.org/2000/svg" xmlns:xlink="http://www.w3.org/1999/xlink" x="0px" y="0px"
	 width="178px" height="107px" viewBox="0 0 178 107" style="enable-background:new 0 0 178 107;" xml:space="preserve">
<style type="text/css">
	.st0{fill:#AAAAAA;}
	.st1{fill-rule:evenodd;clip-rule:evenodd;fill:#AAAAAA;}
</style>
<g>
	<g>
		<path class="st0" d="M96.2,31.4c-0.7,0-1.5-0.2-2.2,0c-0.1,0-0.2,0.1-0.2,0.3c0,0.1,0,0.2,0.2,0.3c0.6,0.2,1.5,0,2,0.5
			c0,0.1,0.1,0.2,0,0.4c-1.7,4-3.3,8.1-5,12.1h0c-1.8-3.9-3.4-7.9-5.2-11.9c-0.1-0.2-0.1-0.4-0.1-0.6c0.1-0.2,0.3-0.2,0.4-0.3
			c0.4-0.2,1,0,1.4-0.3c0-0.1,0.1-0.2,0-0.3c-0.1-0.1-0.2-0.2-0.3-0.2c-2.5,0.2-5.1,0.2-7.6,0c-0.2,0-0.4,0-0.5,0.2
			c0,0.1,0,0.3,0.1,0.4c0.4,0.2,1.1,0.1,1.5,0.2c0.8,0.4,1.1,1.3,1.5,2L89.5,51l0.1,0c2.5-6,5-12,7.5-18l0.2-0.5
			c0.2-0.3,0.6-0.4,1-0.5c0.3-0.1,0.6,0,0.8-0.2c0.1-0.1,0-0.3,0-0.4c-0.1-0.1-0.2-0.1-0.3-0.1C98,31.3,97.1,31.4,96.2,31.4"/>
		<path class="st0" d="M100.5,31.3c-0.2,0-0.4,0.1-0.4,0.2c-0.1,0.7,0.8,0.4,1.2,0.6c0.5,0.2,0.6,0.7,0.7,1.2l0,15.3
			c0,0.6,0,1.3-0.7,1.6c-0.3,0.2-0.9,0-1.1,0.3c0,0.1-0.1,0.2,0,0.3c0.1,0.2,0.2,0.2,0.4,0.2c2.2-0.1,4.4-0.1,6.6,0
			c0.2,0,0.3,0,0.4-0.2c0-0.1,0.1-0.2,0-0.3c-0.3-0.4-0.9-0.1-1.3-0.4c-0.4-0.2-0.5-0.6-0.5-0.9l0-3.5c0,0,0.1-0.1,0-0.1l0-12.5
			c0-0.4,0.1-0.8,0.5-1c0.4-0.3,0.9,0,1.2-0.4c0-0.1,0.1-0.2,0-0.3c-0.1-0.1-0.2-0.2-0.4-0.2C104.9,31.4,102.6,31.4,100.5,31.3"/>
		<path class="st0" d="M125.4,35.3c1.1,2.2,1,4.7,1.1,7.3c-0.2,2.6-0.8,5.3-3.4,6.6c-1.6,0.9-3.5,0.8-5.4,0.7
			c-0.5-0.1-1.2,0-1.5-0.5c-0.2-0.6-0.1-1.3-0.1-1.9c0-4.4,0-9.3,0-14c0-0.2,0-0.5,0.2-0.7c0.2-0.4,0.6-0.4,1-0.4
			C120.4,32.2,123.9,32.3,125.4,35.3 M110.5,31.2c-0.1,0-0.2,0-0.3,0.2c-0.1,0.1-0.1,0.2,0,0.4c0,0.1,0.1,0.2,0.2,0.2
			c0.5,0.1,0.9,0.1,1.3,0.3c0.5,0.3,0.5,0.8,0.5,1.3l0,15.3l-0.1,0.7c-0.1,0.3-0.4,0.5-0.7,0.6c-0.4,0.1-0.9,0.1-1.3,0.3
			c-0.1,0.1-0.1,0.3-0.1,0.4c0.1,0.1,0.2,0.2,0.3,0.2c2.5-0.1,5.2-0.1,7.8,0c2.6,0,5.1-0.3,7.2-1.3c2.7-1.2,4.5-3.9,4.8-6.7
			c0.3-2.1,0.1-4.4-0.7-6.2c-1.5-3.5-5.3-5.4-9-5.5C117.3,31.2,113.9,31.5,110.5,31.2z"/>
		<path class="st0" d="M60.3,35.3c1,2.1,1.1,4.6,1.1,7.1c-0.1,2.9-1.1,6.2-4.2,7.2c-1.4,0.5-3,0.4-4.5,0.4c-0.6-0.1-1.3,0-1.6-0.5
			c-0.2-0.4-0.2-0.8-0.2-1.2l0-14.7c0-0.3,0.1-0.7,0.4-0.9c0.5-0.3,1.1-0.2,1.7-0.3C55.9,32.3,58.9,32.6,60.3,35.3 M45.5,31.3
			c-0.1,0-0.2,0.1-0.3,0.1c0,0.1-0.1,0.2,0,0.3c0,0.1,0.1,0.2,0.2,0.2c0.5,0.1,1,0.1,1.4,0.3c0.4,0.2,0.4,0.7,0.5,1.1l0,14.1
			c0,0.7,0.1,1.6-0.1,2.2c-0.1,0.2-0.4,0.4-0.6,0.4c-0.4,0.1-0.9,0.1-1.3,0.3c-0.1,0.1-0.1,0.3-0.1,0.4c0,0.1,0.2,0.2,0.2,0.2
			c2.5-0.1,5.1-0.1,7.6,0c2.7,0,5.2-0.3,7.5-1.3c2-0.9,3.8-2.9,4.3-4.9c0.8-2.5,0.8-5.7-0.3-8.1c-1.7-3.8-5.8-5.6-9.9-5.6
			C51.5,31.4,48.5,31.4,45.5,31.3z"/>
		<path class="st0" d="M72.7,37.5c1,2.3,2,4.6,3,6.9c-2,0-4.1,0-6.1,0v-0.1c1-2.3,2-4.6,3.1-7L72.7,37.5 M74,31.3
			c-2.7,6.1-5.4,12.3-8.1,18.4c-0.2,0.4-0.6,0.5-1,0.5c-0.3,0.1-0.6,0-0.8,0.2C64,50.6,64,50.7,64,50.9c0,0.1,0.2,0.2,0.2,0.2
			c1.5-0.1,3.1-0.2,4.6,0c0.2,0,0.3,0,0.4-0.1c0.1-0.1,0.1-0.2,0-0.4c0-0.1-0.1-0.1-0.2-0.2c-0.6-0.3-1.3,0-1.8-0.4
			c-0.2-0.2-0.1-0.4,0-0.6l1.6-3.8l0.1-0.1h7.1l0.1,0.1l1.7,3.9l0,0.3c0,0.2-0.2,0.4-0.4,0.5c-0.4,0.2-1.1,0-1.4,0.3
			c0,0.1-0.1,0.2,0,0.3c0.1,0.1,0.2,0.2,0.4,0.2c2.5-0.1,5.2-0.1,7.7,0c0.1,0,0.3,0,0.4-0.1c0.1-0.1,0.1-0.2,0-0.3
			c-0.2-0.3-0.6-0.2-0.9-0.2c-1.4,0.1-1.7-1.4-2.2-2.2l-5.1-11.7C75.6,34.7,74.9,33,74,31.3L74,31.3z"/>
	</g>
	<g>
		<path class="st0" d="M131.2,51.6c0.1,0,0.2,0.2,0.4,0c0.3-0.4,0.5-0.8,0.7-1.2c0.1-0.1,0.2-0.2,0.4-0.1c0.1,0,0.2,0.1,0.2,0.2
			c-0.2,1.6-0.3,3.5-0.2,5.2c0,0.1-0.1,0.2-0.2,0.2c-0.1,0-0.2,0-0.3-0.1c-0.2-0.4-0.3-0.9-0.4-1.3c-0.5-1.5-2.1-3-3.7-3.3
			c-1.7-0.4-3.4-0.1-4.7,0.9c-0.9,0.8-1.3,1.9-0.9,3c0.5,1.5,2.2,2,3.5,2.4c2.1,0.6,4.2,1.1,6,2.4c1.9,1.4,2,4.1,1.4,6.2
			c-0.5,1.9-2.5,3.6-4.4,4.1c-2.6,0.8-5.6,0.3-7.7-1.2c-0.1,0-0.2,0-0.3,0c-0.3,0.4-0.5,0.8-0.7,1.2c-0.1,0.2-0.3,0.2-0.4,0.1
			c-0.1,0-0.1-0.1-0.2-0.2c0.1-1.8,0-3.5-0.2-5.3c0-0.1,0.1-0.2,0.2-0.2c0.1,0,0.2,0,0.3,0.1c0.2,0.3,0.2,0.6,0.3,0.9
			c0.6,2,2.7,3.5,4.7,3.8c2.3,0.3,4.6-0.1,5.9-2c0.4-0.7,0.6-1.8,0.2-2.6c-0.7-1.1-1.9-1.6-2.9-2.1c-2.8-1.1-6.4-1.5-7.7-4.8
			c-0.6-1.6-0.4-3.7,0.5-5c1.5-2.3,4.3-3.1,7-2.7C129.1,50.4,130.2,50.9,131.2,51.6"/>
		<path class="st0" d="M116.5,50.4l-0.6,0c-2.7,0.1-5.6,0.1-8.4,0.1c-0.1,0-0.2-0.2-0.3,0c-2.3,0-4.6-0.1-6.8-0.1l-0.2,0.1
			c-0.1,0.1-0.1,0.2-0.1,0.3c0,0.1,0,0.2,0.1,0.3c0.4,0.1,0.9,0.1,1.3,0.2c0.6,0.2,0.7,0.9,0.7,1.5c0,4.9,0,10.1,0,15.1
			c0,0.4-0.1,0.7-0.2,1c-0.4,0.6-1.1,0.5-1.7,0.6c-0.1,0-0.2,0.1-0.2,0.2c0,0.1,0,0.3,0.1,0.4c0.1,0.1,0.2,0.1,0.3,0.1
			c5.4-0.2,11,0,16.3,0l0.1,0c0.5-1.6,0.9-3.2,1.4-4.8c0.1-0.2,0.1-0.4,0-0.6c0-0.1-0.1-0.2-0.2-0.2c-0.1,0-0.2,0-0.3,0.1
			c-0.4,0.7-0.6,1.5-1,2.2c-0.5,0.9-1.3,1.8-2.4,1.9c-2.2,0.2-4.5,0.1-6.8,0.1c-0.4,0-0.8,0-1.1-0.2c-0.4-0.2-0.5-0.6-0.6-1l0-7.4
			l0.1-0.1h4.9l0.5,0c0.6,0,1.2,0.4,1.4,1c0.3,0.6,0,1.3,0.4,1.8c0.1,0,0.2,0.1,0.3,0.1c0.2-0.1,0.2-0.2,0.2-0.3c-0.2-2-0.2-4,0-6
			c0-0.2,0-0.4-0.1-0.5c-0.1-0.1-0.2-0.1-0.3,0c-0.1,0-0.2,0.1-0.2,0.2c-0.2,0.6-0.1,1.4-0.5,2c-0.3,0.6-0.9,0.7-1.5,0.7h-5.1
			l-0.1,0l0-6.3c0-0.3,0-0.7,0.2-0.9c0.2-0.3,0.5-0.5,0.8-0.5l4.4,0c1,0,2,0,2.9,0.3c1.7,0.5,2.1,2.3,2.8,3.5
			c0.1,0.1,0.2,0.2,0.4,0.2c0.2-0.1,0.2-0.3,0.2-0.4c-0.3-1.5-0.6-3.1-0.9-4.6L116.5,50.4"/>
		<path class="st0" d="M94.1,50.4c-0.1,0-0.2,0-0.3,0.1c-0.1,0.1-0.1,0.3,0,0.4c0.2,0.3,0.7,0.1,1.1,0.3c0.4,0.1,0.6,0.5,0.7,0.9
			c0.1,3.5,0,7.3,0,11l0,0c-3.5-4.2-6.9-8.4-10.4-12.6c-1.9,0.1-3.8,0.1-5.7,0L79,50.6c-0.1,0-0.2,0.2-0.2,0.3c0,0.1,0,0.2,0.1,0.3
			c0.6,0.2,1.4,0,1.9,0.4c0.4,0.2,0.6,0.6,0.7,1c0,5.3,0,10.4,0,15.7c0,0.3-0.1,0.7-0.3,0.9c-0.3,0.6-1,0.3-1.4,0.6
			c-0.1,0.1-0.1,0.3,0,0.4c0.1,0.1,0.2,0.2,0.3,0.2c1.2-0.1,2.5-0.1,3.7,0c0.2,0,0.5,0,0.6-0.1c0.1-0.1,0.1-0.2,0.1-0.3
			c-0.2-0.4-0.8-0.2-1.1-0.4c-0.4-0.2-0.7-0.7-0.7-1.2c0-5,0-9.8,0-14.6c0-0.1,0-0.2,0.1-0.2c1,1.2,2,2.4,3,3.6l11,13.3
			c0,0,0.1,0,0.1,0c0-6.1,0-11.8,0-17.8c0-0.3,0.1-0.7,0.2-1c0.3-0.6,1.1-0.3,1.5-0.6c0.1-0.1,0.1-0.3,0-0.4c0-0.2-0.2-0.2-0.3-0.2
			C96.8,50.5,95.4,50.5,94.1,50.4"/>
		<path class="st0" d="M55.1,50.5c-2.1,0.2-4.3,0.2-6.3,0c-0.2,0-0.4,0-0.5,0.2c-0.1,0.8,0.9,0.3,1.3,0.7c0.5,0.3,0.5,0.9,0.5,1.5
			l0,13.8c0,1.1-0.1,2.2-1,2.9c-0.8,0.6-2.2,0.5-3.1,0.1c-0.1-0.1-0.2-0.1-0.1-0.2c0.6-0.4,1-1,1.2-1.7c0.1-0.9-0.2-1.6-0.9-2.2
			c-0.7-0.6-1.8-0.7-2.6-0.2c-0.9,0.5-1.4,1.3-1.3,2.3c0.1,1.7,1.8,2.6,3.2,3c1.8,0.5,4.1,0.4,5.8-0.4c1.6-0.8,2.5-2.5,2.6-4.2
			l0-13.8c0-0.2,0.1-0.5,0.2-0.7c0.4-0.5,1-0.2,1.5-0.5c0.1-0.1,0.1-0.2,0.1-0.4C55.6,50.6,55.3,50.5,55.1,50.5"/>
		<path class="st0" d="M72.5,53.8c1.5,2.5,1.5,5.7,1.3,8.7c-0.2,1.4-0.4,2.8-1,4c-0.1,0-0.1,0.1-0.1,0.2c-0.9,1.9-2.9,3-5.1,2.9
			c-2,0.1-3.9-1-4.7-2.8c-1.2-2.6-1.3-5.8-1-8.8c0.3-2.5,0.9-5.3,3.6-6.4c2-0.7,4.6-0.5,6.2,1.1C72,53.1,72.2,53.4,72.5,53.8
			 M75.9,54.2c-2.7-3.4-7.2-4.7-11.4-3.4c-3.3,0.9-6.3,4.1-6.9,7.4c-0.1,0,0,0.1,0,0.2c-0.3,1.4-0.2,3.1,0.1,4.5
			c0.7,3.4,3.9,6.4,7.3,7.3c3.9,1,7.9-0.1,10.6-3c2.7-2.8,3.4-7.3,1.8-10.8C76.9,55.6,76.4,54.9,75.9,54.2z"/>
	</g>
</g>
</svg>
