<?xml version="1.0" encoding="utf-8"?>
<!-- Generator: Adobe Illustrator 20.0.0, SVG Export Plug-In . SVG Version: 6.00 Build 0)  -->
<svg version="1.1" id="Layer_1" xmlns="http://www.w3.org/2000/svg" xmlns:xlink="http://www.w3.org/1999/xlink" x="0px" y="0px"
	 width="178px" height="107px" viewBox="0 0 178 107" style="enable-background:new 0 0 178 107;" xml:space="preserve">
<style type="text/css">
	.st0{fill:#AAAAAA;}
	.st1{fill-rule:evenodd;clip-rule:evenodd;fill:#AAAAAA;}
</style>
<g>
	<path class="st1" d="M104.2,55c-0.2-0.3-0.6-0.4-0.9-0.2c-1.9,0.9-3.7,1-6,0.9c-0.4,0-5.6-0.8-7.9-0.5c-1.3,0.2-2.9,0.3-3.5,0.5
		l0.7-0.7c1-1.1,2.2-2.2,3.3-3.4c1.3-1.3,3.1-3.6,4-5.4c0.3-0.8,0.1-1.4,0.1-1.4c-0.4-1-2-0.9-2-0.9c-0.5,0-1.9,0.1-2.6,0.2
		c-0.9,0.1-1.9,0.3-2.7,0.5c-1,0.2-2.1,0.4-3.2,0.4c-0.3,0-0.7-0.1-1,0c-0.3,0.1-0.6,0.4-0.7,0.7c-0.3,0.6-0.1,1.3,1.2,1.8
		c1.2,0.4,2.8,0.1,3.9,0c0.8-0.1,2-0.3,2.9-0.6c-1.5,1.4-3.1,2.9-4.7,4.5l-2,2c-1.3,1.2-2.7,2.6-3.5,4.3l-0.2,0.4
		c-0.2,0.4-0.1,0.9,0.1,1.3c0.4,0.8,1.3,1.1,2.6,0.5c0.8-0.3,3.5-1,4.4-1.1c1.4-0.2,8.2-0.3,9.6-0.4c2.8-0.2,5.8-0.4,8-2.4
		C104.3,55.6,104.4,55.3,104.2,55z"/>
	<path class="st1" d="M117.5,58.1c-2.7,0.7-5.5,1.2-8.2,2c0.3-0.8,0.9-1.9,1.1-2.8c0.2-0.9-0.1-1.4-0.5-1.7c-0.5-0.3-1.2,0-1.5,0.5
		c-0.9,1.5-2,3.3-2.9,4.9c-0.8,0.2-1.6,0.4-2.3,0.6c-0.2,0-0.7,0.1-0.9,0c-0.3-0.2-0.9-0.2-1.4,0.3c-0.5,0.5-0.5,1.2,0.1,1.6
		c0.6,0.5,2.1,0.5,3.3,0.5c-1.3,3.6-1.9,7.5-1.2,11.2c0,0.1,0.1,0.2,0.1,0.3c-9.7,2.9-18.8,7.7-27.8,12.2c-0.9,0.1-1.6,0.9-1.6,1.8
		c0.1,0.9,0.9,1.6,1.8,1.6c1.8,0.1,3.5-0.7,5-1.5c9.3-4.8,15.5-7.9,25.5-12.3c3.3-1.5,6.6-2.4,9.9-3.6c0.2-0.1,0.4-0.3,0.3-0.5
		c-0.1-0.2-0.3-0.4-0.5-0.3c-3.9,0.4-7.6,1.2-11.3,2.2c1.2-4.2,2.1-7.7,3.5-11.9c1.3-0.5,2.6-1,3.7-1.5c2.5-1.2,3.8-1.4,6.1-2.9
		c0.2-0.1,0.4-0.4,0.3-0.6C118,58.1,117.7,58,117.5,58.1z"/>
	<path class="st1" d="M79.6,46c-0.2-0.5-0.4-0.6-0.8-0.6c-0.6,0-0.7,0.8-0.8,1.1c-1.9,3.5-5.5,7.1-4.3,11.4c0.2,0.6,0.7,1.2,1.3,1.7
		c0.1,0.1,0.8,0.4,1.2,0.2c0.4-0.2,0.3-0.9,0.3-1.1C77.5,54.5,81.1,50.4,79.6,46z"/>
	<path class="st1" d="M99.8,65.7c0,0,0.3-1.4-0.1-2c-0.1-0.3-0.4-0.5-0.7-0.6c0,0-0.9-0.1-1.3,0.9c-0.4,0.8-1.1,2.1-1.4,2.6
		c-1.6,2.1-3.6,3.7-5.8,5.2c0.4-1.5,0.8-3,0.4-4.5c0,0-0.2-0.9-1.2-1.8c0,0-0.4-0.3-0.9-0.4c0,0-1-0.1-2,0.2
		c-0.4,0.1-0.7,0.3-0.7,0.6c0,0.5,0.4,0.5,0.6,0.6c1.1,0.6,0.9,1.2,0.9,1.2c-0.3,1.9-1.3,3.7-1.2,5.7c0,0.5,0.2,0.9,0.2,0.9
		c0.2,0.6,0.6,1,1,1.2C88.4,76.1,89,76,89,76c3.2-0.7,5.1-3.1,6.8-5.8c0.1,1.8,0.8,3.6,2.6,4.4c0.5,0.2,0.8,0.3,1.1,0
		c0.3-0.3,0.2-0.5,0.1-1c-0.4-2.5-0.5-5.2,0-7.7L99.8,65.7z"/>
	<path class="st1" d="M109.2,50.3c-0.1-0.4-0.6-0.3-1.1-0.2c-2.4,0.6-4.9-0.1-7.3,0c0.1-0.1,0.1-0.1,0.2-0.2
		c1.8-1.8,3.1-3.3,4.3-4.6c1.3-1.4,1.4-1.6,1.9-2.5c0,0,0.7-1.1,0.3-1.9c-0.4-0.6-1.7-1.3-3.9-0.9c-5.1,1.1-6.8,1.3-6.8,1.3
		s-0.3,0-0.4-0.1c-0.2-0.1-0.4-0.1-0.4-0.1c-0.7,0-1.1,0.4-1.1,0.9c0,0-0.1,0.5,0.3,1.1c0.1,0.1,0.1,0.2,0.5,0.5
		c0,0,0.4,0.3,0.9,0.4c0.5,0.1,1.5,0.1,2.7-0.1c1-0.2,2.3-0.4,3.7-0.7c-1.7,1.4-3.3,2.8-4.9,4.4c-1.3,1.3-2.7,2.4-3.6,4.1
		c-0.2,0.5-0.3,0.9-0.3,1.4c0,0,0.1,1,1,0.7c0.4-0.2,1.4-0.3,1.4-0.3c4-0.8,8.3,0.8,12-2.2C109,51,109.3,50.7,109.2,50.3z"/>
	<path class="st1" d="M125,45.6c0,0-0.1-0.1-1.8-0.2c-0.8-0.1-1-0.4-1.2-0.7c-0.1-0.5-0.1-1.1,0.1-1.6c0.3-0.8,0.4-1.6,0.6-2.5
		c0.1-0.5,0-1.2-0.3-1.5c-0.2-0.2-0.5-0.3-0.8-0.2c-0.2,0.1-0.4,0.2-0.6,0.4c-4.2-1.1-10.3,3.9-11.4,6.7c-1,2.6-0.2,3.5-0.2,3.5
		c2.2,2.6,6.5,0.4,9.5-2.4c1.7,1.8,4,1.1,6,0c0,0,0.5-0.3,0.6-0.5c0.1-0.1,0.1-0.4,0.1-0.7C125.4,45.7,125.3,45.6,125,45.6z
		 M118.6,43c-0.1,0.5-0.5,1.2-0.4,1.6c-1.8,1-4.1,2.7-4.7,2c-0.5-0.7,2-4.1,5.6-4.9C118.8,42.2,118.7,42.5,118.6,43z"/>
	<path class="st1" d="M78.3,78.6c0.2,0.9,0.1,1.7,1.3,1.9c0.9,0.1,2-0.8,2.2-1.7c0.2-0.6,0.3-0.8,0.4-1.4c0.5-2.2,0.9-4.4,1.3-6.5
		c0.7-0.5,1.4-1,2.1-1.5c0.2-0.1,0.7-0.6,0.6-0.9c-0.1-0.3-0.4-0.4-0.7-0.2c-0.5,0.3-1.1,0.5-1.7,0.7c0.4-2.2,0.6-4.4,0.8-6.7
		c0-0.4,0.2-1.3-0.4-1.4c-0.6-0.2-0.9,0-1.2,0.6l-0.4,0.8c-2,3.4-2.5,5.8-3.1,8.3c-2,0.6-4,1.1-6,1.6c0.4-1.6,0.7-2.7,1-4.3
		c0.3-1.8,1.7-4.7,0.9-5.8c-0.1-0.1-0.2-0.2-0.3-0.2c-0.1,0-0.4,0.1-0.5,0.2c-2.5,2.3-3.9,6.1-5.1,9.2c-0.3,0.8-0.6,1.6-0.9,2.2
		c-1.3,0.3-2.6,0.5-3.9,0.8c-0.6,0.1-1,0.5-1,1.1c0,0.7,0.4,1.3,1.1,1.5c0.9,0.2,1.8,0.4,2.6,0.4c-0.3,1.2-0.6,2.5-0.9,4.3
		c-0.3,1.3-0.2,4.6,1.1,4.9c1.3,0.2,2.6-0.6,3-1.8c0.8-2.7,1.2-5.4,1.8-8.1c0.4-0.1,0.8-0.3,1.2-0.4c1.9-0.7,3.5-1.4,5-2.2
		C78.3,75.3,78,77,78.3,78.6z"/>
	<path class="st1" d="M71,50.8c-1.3-2.5-4-4-6.8-4c-3.2,0-7.5,0.8-8.8,3.6c-0.3,0.6-0.4,1-0.1,1.5c0.3,0.6,1.1,0.4,1.8,0.1
		c0.6-0.2,1.2-0.4,1.8-0.5c-0.1,0.1-0.2,0.2-0.2,0.3c-2.6,3.3-3.7,7.3-5.3,11.2c-1.2,3-1.8,6-2.3,9.1c-0.2,1.5-0.5,2.9-0.2,4.6
		c0.1,0.6,0.5,1.3,1.1,1.3c0.5,0,1.2-0.5,1.4-1c0.1-0.3,0.4-0.7,0.5-0.9c1.1-3,1.7-5.2,2.8-8.1c0.7-2,1.7-4.4,2.3-6.6
		c0.8-3,2.1-5.7,2.2-8.8c0-0.5-0.1-1-0.3-1.3c1.4-0.1,2.6,0.2,4,0.5c0.8,0.2,1.5,0.7,2,1.4c0.9,1.1,0.7,2.5,0.2,3.8
		c-1.4,3-4.1,4.4-6.9,5.4c-1,0.3-1.3,1-0.8,1.2c0.8,0.3,1.6,0.1,2.1,0c2.9-0.5,4.7-1.2,7.1-3.3C71.2,57.9,72.7,54.2,71,50.8z"/>
	<path class="st1" d="M74.7,28.6c0.1,0,0.2,0,0.2-0.1c0,0,3-4.7,4.7-6.9l0,0l-0.4,0.1l0.6-0.3l-0.1,0.3l0.2,0
		c6.2-1.5,12.4-3.1,18.4-5.3c0.5-0.2,0.7-0.6,0.6-1.1c-0.2-0.5-0.6-0.7-1.1-0.6c-6,1.5-11.9,3.3-17.8,5.3L79,20
		c-0.3,0-0.5,0.2-0.6,0.4l-0.2,0.4c-1.2,2.5-2.7,4.8-3.7,7.4C74.5,28.4,74.6,28.5,74.7,28.6z"/>
	<path class="st1" d="M125.2,29.4c-6.2-2.9-13.2-5.4-20-6.8l-0.1,0c-1.3-2.8-1.9-6.1-3.6-8.7c0-0.1-0.1-0.1-0.2-0.1
		c-0.1,0-0.1,0.1-0.1,0.2c0.7,3,1.3,6,1.9,9l0.1,0.4c0.1,0.2,0,0.5,1.1,1l0.1,0c1.6,0.8,3.3,0.9,5,1.4c5.3,1.6,10.2,3.5,15.2,5.2
		c0.4,0.2,1,0,1.1-0.5C125.8,30,125.6,29.5,125.2,29.4z"/>
	<path class="st1" d="M53.5,45.6c0,0,0.2,0.2,0.8,0.1c8-2.4,16-4.5,24.2-6.2c0.1-0.1,0.2-0.2,0.4-0.3c2.3-1.8,4.9-2.8,6-2.4
		c0,0-0.1,0-0.1,0c-2.4,0.8-4.7,1.6-5.8,4.3c-0.2,0.6-0.2,1.8,0.6,2.2c0.8,0.4,1.8,0.2,2.3-0.6c0.4-0.6,1.9-1.9,3.4-4.6
		c1.7-0.3,3.4-0.6,5.1-0.9c4.2-0.7,8.2-1.2,12.5-1.7c4.4-0.5,8.7-0.8,13.1-1.1c0.4,0,0.8-0.1,1.2-0.3c0.9-0.3,1.6-1.1,1.5-2.1
		c-0.1-1-1.1-1.5-2-1.6c-0.4-0.1-0.6-0.1-1,0c-8.7,1-17.3,2.1-25.8,3.8c-10.9,2.1-21.7,4.6-32.2,8.2c5.2-4.4,11-8.1,16.8-11.6
		c0.2-0.1,0.3-0.3,0.2-0.6c-0.1-0.2-0.3-0.3-0.5-0.2c-7.5,3.1-14.3,7.9-20.5,13.2l-0.3,0.3c-0.2,0.2-0.4,0.3-0.5,0.8l0,0.1
		C52.6,44.8,52.9,45.3,53.5,45.6z"/>
</g>
</svg>
