<?xml version="1.0" encoding="utf-8"?>
<!-- Generator: Adobe Illustrator 20.0.0, SVG Export Plug-In . SVG Version: 6.00 Build 0)  -->
<svg version="1.1" id="Layer_1" xmlns="http://www.w3.org/2000/svg" xmlns:xlink="http://www.w3.org/1999/xlink" x="0px" y="0px"
	 width="178px" height="107px" viewBox="0 0 178 107" style="enable-background:new 0 0 178 107;" xml:space="preserve">
<style type="text/css">
	.st0{fill:#AAAAAA;}
	.st1{fill-rule:evenodd;clip-rule:evenodd;fill:#AAAAAA;}
</style>
<g>
	<path class="st1" d="M123.6,45.8c-1.2,0-1.6,0.6-2.1,1.8l-1.1,2.6h2.9l1-2.2c0.5-1.1,0.5-1.1,0.5-1.4
		C124.9,46.2,124.4,45.8,123.6,45.8z"/>
	<g>
		<path class="st1" d="M107.6,32c-17.2,0-31.8,8.3-31.8,19.3c0,10.8,15,19.1,31.8,19.1c18.2,0,31.8-8.9,31.8-19
			C139.4,40.8,125.5,32,107.6,32z M82.7,62.3l9.1-21h6.5l-9.1,21H82.7z M106.9,62.3H96.4c-1.6,0-3.2-1-3.2-3.1
			c0-0.7,0.2-1.5,0.7-2.7l4.5-10.7c1.5-3.6,2.2-4.5,5.5-4.5h11.4l-2.3,5.4h-6.9c-1.2,0-1.5,0.1-1.8,0.9l-3.5,8
			c-0.1,0.2-0.2,0.6-0.2,0.8c0,0.6,0.6,0.8,1.5,0.8h2.6l0.9-2.3h-2.3l2-4.5h6.5L106.9,62.3z M128.6,62.6c-1,0-1.7-0.8-1.7-1.7
			c0-0.9,0.7-1.7,1.7-1.7c1,0,1.7,0.8,1.7,1.7C130.2,61.8,129.5,62.6,128.6,62.6z M131.5,45.9l-6.7,16.4h-6.4l2.7-6.6h-2.8l-2.9,6.6
			h-6.2l8.1-19c0.5-1.2,1.6-2,3.4-2h7.5c2.1,0,3.7,0.8,3.7,3.1C131.8,44.9,131.7,45.4,131.5,45.9z"/>
		<path class="st1" d="M129,60.9L129,60.9c0.3-0.1,0.4-0.3,0.4-0.5c0-0.2-0.1-0.4-0.2-0.5c-0.2-0.1-0.3-0.2-0.7-0.2
			c-0.4,0-0.6,0-0.8,0.1V62h0.5v-0.9h0.2c0.3,0,0.4,0.1,0.4,0.3c0.1,0.2,0.1,0.4,0.2,0.5h0.5c-0.1-0.1-0.1-0.2-0.2-0.5
			C129.4,61.2,129.3,61,129,60.9z M128.5,60.8h-0.2v-0.6c0.1,0,0.1,0,0.3,0c0.3,0,0.5,0.1,0.5,0.3C129,60.7,128.7,60.8,128.5,60.8z"
			/>
	</g>
	<g>
		<path class="st1" d="M125.3,34.2l0.7,0.3c0,0,14.9,4.8,14.9,18c0,0,1.2,9.7-16.2,16.1c7.3-1.8,14.6-4.6,19-9.1
			c3.8-3.9,3.5-7.1,3.5-7.2l0-0.1l0-0.1C147.9,41.8,133.4,36.4,125.3,34.2z"/>
		<path class="st1" d="M127.5,33.1c2.2,0.7,4.7,1.5,7.2,2.6c9.6,4.2,14.5,9.9,14.1,16.5c0.1,1.1,0.2,12.3-24.1,18
			c4.7-0.1,12-0.6,18.2-2.8c10.2-3.6,13.9-9.8,13.9-13.9C156.8,49.5,154.4,37,127.5,33.1z"/>
	</g>
	<g>
		<path class="st0" d="M38.8,58.1c-1.8,0-3.1-0.5-4.1-1.4c-1-0.9-1.6-2.2-1.7-3.9c-0.1-0.8,0-1.6,0.1-2.4l1.1-7.3l4.4,0l-1.1,7.6
			c-0.1,0.4-0.1,0.8,0,1.2c0.1,0.6,0.1,1,0.4,1.3c0.3,0.3,0.8,0.5,1.3,0.5c0.5,0,0.7-0.2,1-0.6c0.2-0.2,0.3-0.5,0.4-0.8
			c0.1-0.3,0.2-0.8,0.3-1.3l1.2-7.9l4.5,0l-1.3,8.6c-0.3,1.9-0.8,3.4-1.6,4.4c-0.5,0.7-1.2,1.2-2,1.5C40.7,58,39.8,58.1,38.8,58.1z"
			/>
		<path class="st0" d="M48.7,43.2l4.3,0c1.2,0,2.2,0.1,2.9,0.4c0.8,0.3,1.4,0.7,2,1.2c0.4,0.4,0.7,0.8,0.9,1.3
			c0.2,0.5,0.3,1,0.4,1.6c0.1,0.9,0,1.8-0.2,2.5c-0.2,0.7-0.6,1.4-1.1,1.9c-0.5,0.5-1.2,1-1.9,1.3c-0.8,0.3-1.7,0.4-2.7,0.4l-1.8,0
			l-0.6,4l-4.3,0L48.7,43.2z M52.7,50.4c0.8,0,1.4-0.2,1.8-0.6c0.4-0.4,0.5-0.8,0.5-1.4c0-0.3-0.2-0.6-0.4-0.9
			c-0.2-0.2-0.4-0.3-0.6-0.4c-0.2-0.1-0.5-0.1-0.7-0.1l-0.8,0L52,50.4L52.7,50.4z"/>
	</g>
	<path class="st0" d="M63.2,43.2l5.4,0l2.7,15L66.6,58l-0.2-1.9l-4.5,0L61.3,58l-5,0.1L63.2,43.2z M65.9,52.7l-0.6-4.8l-1.8,4.8
		L65.9,52.7z"/>
	<path class="st0" d="M30.4,47.8c0,0-1.9-1.2-3-1c-1.1,0.3-1,1.3-0.2,1.6c0.8,0.4,4.2,0.5,4.2,4.3c-0.1,3.8-3.2,5.7-6.3,5.7
		c-3.1-0.1-5.2-1.8-5.2-1.8l2-3.8c0,0,2.7,1.7,3.8,1.5c1.1-0.2,1-1.1,0.5-1.4c-0.6-0.3-3.5-1-4.2-2.7c-0.7-1.8-0.1-4.1,1.4-5.5
		c1.5-1.4,4.1-3,8.8-0.3L30.4,47.8z"/>
</g>
</svg>
