<?xml version="1.0" encoding="utf-8"?>
<!-- Generator: Adobe Illustrator 20.0.0, SVG Export Plug-In . SVG Version: 6.00 Build 0)  -->
<svg version="1.1" id="Layer_1" xmlns="http://www.w3.org/2000/svg" xmlns:xlink="http://www.w3.org/1999/xlink" x="0px" y="0px"
	 width="178px" height="107px" viewBox="0 0 178 107" style="enable-background:new 0 0 178 107;" xml:space="preserve">
<style type="text/css">
	.st0{fill:#AAAAAA;}
	.st1{fill-rule:evenodd;clip-rule:evenodd;fill:#AAAAAA;}
</style>
<g>
	<g>
		<path class="st1" d="M109.2,24.1c0.8,1.2,2.2,3.5,3.5,6.3c-1.4,1.5-2.5,3.1-3.5,4.6c-0.9-1.6-2.1-3.1-3.4-4.6
			C107,27.6,108.4,25.3,109.2,24.1L109.2,24.1z"/>
		<path class="st1" d="M109.2,70.6c0.9,1.6,2.1,3.1,3.5,4.6c-1.2,2.8-2.7,5.1-3.5,6.3c-0.8-1.2-2.2-3.5-3.4-6.3
			C107.1,73.7,108.3,72.2,109.2,70.6L109.2,70.6z"/>
		<path class="st1" d="M99.4,25.8c1.2,0.9,3.3,2.5,5.4,4.7c-0.8,1.9-1.3,3.7-1.7,5.5c-1.4-1.2-3-2.2-4.8-3.2
			C98.5,29.8,99,27.2,99.4,25.8L99.4,25.8z"/>
		<path class="st1" d="M115.3,69.5c1.4,1.2,3,2.2,4.8,3.2c-0.2,3.1-0.8,5.7-1.1,7.1c-1.2-0.9-3.3-2.5-5.4-4.7
			C114.4,73.2,114.9,71.3,115.3,69.5L115.3,69.5z"/>
		<path class="st1" d="M90.8,30.8c1.4,0.4,3.9,1.2,6.7,2.6c0,0.4,0,0.9,0,1.3c0,1.6,0.1,3,0.4,4.4c-1.7-0.6-3.6-1.1-5.6-1.3
			C91.3,34.9,90.9,32.2,90.8,30.8L90.8,30.8z"/>
		<path class="st1" d="M121,70.9c0-1.6-0.1-3-0.4-4.5c1.7,0.6,3.6,1.1,5.6,1.3c0.9,2.9,1.2,5.6,1.4,7c-1.4-0.4-3.9-1.2-6.7-2.6
			C121,71.7,121,71.3,121,70.9L121,70.9z"/>
		<path class="st1" d="M91.5,38.6c0.6,1.9,1.4,3.7,2.3,5.3c-1.8,0-3.7,0.2-5.7,0.7c-1.8-2.5-3.1-4.8-3.7-6.1
			C85.8,38.3,88.5,38.2,91.5,38.6L91.5,38.6z"/>
		<path class="st1" d="M130.3,61c1.8,2.5,3.1,4.8,3.7,6.1c-1.4,0.1-4.1,0.2-7.2-0.2c-0.6-1.9-1.4-3.7-2.3-5.3
			C126.4,61.7,128.3,61.5,130.3,61L130.3,61z"/>
		<path class="st1" d="M87.7,45.5c1.2,1.6,2.6,3,4,4.2c-1.7,0.6-3.4,1.5-5.2,2.6C84,50.6,82,48.8,81,47.8
			C82.3,47.2,84.8,46.2,87.7,45.5L87.7,45.5z"/>
		<path class="st1" d="M131.9,53.3c2.6,1.7,4.5,3.5,5.6,4.5c-1.3,0.6-3.8,1.6-6.8,2.3c-1.2-1.6-2.6-3-4-4.2
			C128.4,55.2,130.1,54.4,131.9,53.3L131.9,53.3z"/>
		<path class="st1" d="M86.5,53.3c1.7,1.1,3.4,2,5.2,2.6c-1.4,1.2-2.7,2.6-4,4.2c-3-0.7-5.5-1.7-6.8-2.3C82,56.8,84,55,86.5,53.3
			L86.5,53.3z"/>
		<path class="st1" d="M130.7,45.5c3,0.7,5.5,1.7,6.8,2.3c-1.1,1-3,2.8-5.6,4.5c-1.7-1.1-3.5-2-5.2-2.6
			C128.1,48.5,129.4,47.1,130.7,45.5L130.7,45.5z"/>
		<path class="st1" d="M88.1,61c2,0.4,3.9,0.7,5.7,0.7c-0.9,1.6-1.7,3.4-2.3,5.3c-3,0.4-5.7,0.2-7.2,0.2C85,65.9,86.2,63.5,88.1,61
			L88.1,61z"/>
		<path class="st1" d="M134,38.4c-0.6,1.3-1.9,3.7-3.7,6.1c-2-0.4-3.9-0.7-5.7-0.7c0.9-1.6,1.7-3.4,2.3-5.3
			C129.9,38.2,132.6,38.3,134,38.4L134,38.4z"/>
		<path class="st1" d="M97.8,66.4c-0.2,1.4-0.4,2.9-0.4,4.5c0,0.4,0,0.9,0,1.3c-2.7,1.4-5.3,2.2-6.7,2.6c0.2-1.4,0.5-4.1,1.4-7
			C94.2,67.5,96,67,97.8,66.4L97.8,66.4z"/>
		<path class="st1" d="M127.6,30.8c-0.2,1.4-0.5,4.1-1.4,7c-2,0.3-3.9,0.7-5.6,1.3c0.2-1.4,0.4-2.9,0.4-4.4c0-0.4,0-0.9,0-1.3
			C123.7,32,126.2,31.2,127.6,30.8L127.6,30.8z"/>
		<path class="st1" d="M103.1,69.5c0.3,1.8,0.9,3.6,1.7,5.5c-2.1,2.2-4.2,3.9-5.4,4.7c-0.3-1.4-0.9-4-1.1-7.1
			C100.1,71.7,101.7,70.7,103.1,69.5L103.1,69.5z"/>
		<path class="st1" d="M119,25.8c0.3,1.4,0.9,4,1.1,7.1c-1.8,0.9-3.4,2-4.8,3.2c-0.3-1.8-0.9-3.7-1.7-5.5
			C115.7,28.3,117.8,26.7,119,25.8L119,25.8z"/>
		<path class="st1" d="M105.4,31.2c1.3,1.5,2.5,3,3.3,4.6c-0.8,1.5-1.4,3-1.7,4.5c-0.9-1.3-1.9-2.5-3.1-3.6
			C104.1,34.9,104.7,33.1,105.4,31.2L105.4,31.2z"/>
		<path class="st1" d="M111.4,65.3c0.9,1.3,1.9,2.5,3.1,3.6c-0.3,1.8-0.8,3.6-1.6,5.5c-1.3-1.5-2.5-3.1-3.3-4.6
			C110.5,68.3,111,66.8,111.4,65.3L111.4,65.3z"/>
		<path class="st1" d="M98.2,34.7c0-0.3,0-0.6,0-0.9c1.8,1,3.3,2,4.7,3.2c-0.1,1-0.2,1.9-0.2,2.9c0,0.7,0,1.3,0.1,1.9
			c-1.2-0.9-2.7-1.7-4.2-2.3C98.4,38,98.2,36.4,98.2,34.7L98.2,34.7z"/>
		<path class="st1" d="M115.6,65.7c0-0.7,0-1.3-0.1-1.9c1.2,0.9,2.6,1.7,4.2,2.3c0.3,1.5,0.4,3.1,0.4,4.8c0,0.3,0,0.6,0,0.9
			c-1.8-1-3.3-2-4.7-3.2C115.6,67.6,115.6,66.6,115.6,65.7L115.6,65.7z"/>
		<path class="st1" d="M92.4,38.7c2,0.3,3.8,0.8,5.5,1.4c0.3,1.6,0.9,3.2,1.5,4.5c-1.5-0.4-3.1-0.7-4.7-0.7
			C93.8,42.4,93.1,40.6,92.4,38.7L92.4,38.7z"/>
		<path class="st1" d="M118.9,61c1.5,0.4,3.1,0.7,4.7,0.7c0.9,1.5,1.7,3.3,2.3,5.2c-2-0.3-3.8-0.8-5.5-1.4
			C120.1,63.9,119.6,62.3,118.9,61L118.9,61z"/>
		<path class="st1" d="M94.3,44.7c0.9,1.4,1.9,2.7,3,3.7c-1.5,0.1-3.1,0.4-4.7,0.9c-1.4-1.1-2.7-2.5-4-4.1
			C90.6,44.9,92.5,44.7,94.3,44.7L94.3,44.7z"/>
		<path class="st1" d="M125.8,56.2c1.4,1.1,2.7,2.5,4,4.1c-2,0.4-3.9,0.6-5.6,0.6c-0.9-1.4-1.9-2.7-3-3.7
			C122.6,57,124.2,56.7,125.8,56.2L125.8,56.2z"/>
		<path class="st1" d="M92.4,50.3c1.3,1,2.7,1.9,4.1,2.5c-1.4,0.6-2.8,1.4-4.1,2.5c-1.7-0.6-3.4-1.4-5.1-2.5
			C89,51.7,90.7,50.9,92.4,50.3L92.4,50.3z"/>
		<path class="st1" d="M126,50.3c1.7,0.6,3.4,1.4,5.1,2.5c-1.7,1.1-3.4,1.9-5.1,2.5c-1.3-1-2.7-1.9-4.1-2.5
			C123.3,52.2,124.7,51.3,126,50.3L126,50.3z"/>
		<path class="st1" d="M92.6,56.2c1.6,0.5,3.1,0.8,4.7,0.9c-1.1,1.1-2.1,2.3-3,3.7c-1.8,0-3.7-0.2-5.6-0.6
			C89.9,58.7,91.2,57.3,92.6,56.2L92.6,56.2z"/>
		<path class="st1" d="M129.8,45.3c-1.2,1.6-2.6,3-4,4.1c-1.6-0.5-3.2-0.8-4.7-0.9c1.1-1.1,2.1-2.3,3-3.7
			C125.9,44.7,127.8,44.9,129.8,45.3L129.8,45.3z"/>
		<path class="st1" d="M99.5,61c-0.7,1.4-1.2,2.9-1.5,4.5c-1.7,0.6-3.5,1.1-5.5,1.4c0.6-1.9,1.4-3.7,2.3-5.2
			C96.4,61.6,98,61.4,99.5,61L99.5,61z"/>
		<path class="st1" d="M126,38.7c-0.6,1.9-1.4,3.7-2.3,5.2c-1.7,0.1-3.2,0.3-4.7,0.7c0.7-1.4,1.2-2.9,1.5-4.5
			C122.1,39.5,124,39,126,38.7L126,38.7z"/>
		<path class="st1" d="M107,65.3c0.4,1.5,0.9,3,1.7,4.5c-0.9,1.6-2,3.1-3.3,4.6c-0.7-1.9-1.3-3.7-1.6-5.5
			C105.1,67.8,106.1,66.6,107,65.3L107,65.3z"/>
		<path class="st1" d="M102.9,63.8c-0.1,0.6-0.1,1.3-0.1,1.9c0,0.9,0.1,1.9,0.2,2.9c-1.4,1.2-2.9,2.2-4.7,3.2c0-0.3,0-0.6,0-0.9
			c0-1.7,0.1-3.3,0.4-4.8C100.2,65.5,101.6,64.7,102.9,63.8L102.9,63.8z"/>
		<path class="st1" d="M113,31.2c0.7,1.9,1.3,3.7,1.6,5.5c-1.2,1.1-2.3,2.3-3.1,3.6c-0.4-1.5-0.9-3-1.7-4.5
			C110.5,34.3,111.7,32.7,113,31.2L113,31.2z"/>
		<path class="st1" d="M120.1,33.8c0,0.3,0,0.6,0,0.9c0,1.7-0.1,3.3-0.4,4.8c-1.5,0.6-2.9,1.4-4.2,2.3c0.1-0.6,0.1-1.3,0.1-1.9
			c0-0.9-0.1-1.9-0.2-2.9C116.8,35.9,118.4,34.8,120.1,33.8L120.1,33.8z"/>
		<path class="st1" d="M103.6,39.9c0-0.7,0.1-1.4,0.1-2.2c1.2,1.2,2.2,2.4,3,3.7c-0.2,0.9-0.3,1.9-0.3,2.8c0,0.4,0,0.8,0.1,1.2
			c-0.8-1.1-1.7-2.1-2.8-3C103.6,41.7,103.6,40.8,103.6,39.9L103.6,39.9z"/>
		<path class="st1" d="M111.9,61.3c0-0.4,0-0.8-0.1-1.2c0.8,1.1,1.7,2.1,2.8,3c0.1,0.8,0.2,1.7,0.2,2.6c0,0.7-0.1,1.4-0.1,2.2
			c-1.2-1.2-2.2-2.4-3-3.7C111.8,63.2,111.9,62.3,111.9,61.3L111.9,61.3z"/>
		<path class="st1" d="M98.9,40.5c1.5,0.7,2.9,1.5,4.1,2.5c0.2,1.3,0.6,2.7,1.2,3.9c-1.1-0.8-2.3-1.4-3.6-1.9
			C99.9,43.6,99.3,42.1,98.9,40.5L98.9,40.5z"/>
		<path class="st1" d="M114.2,58.7c1.1,0.8,2.3,1.4,3.6,1.9c0.7,1.4,1.3,2.9,1.7,4.5c-1.5-0.7-2.9-1.5-4.1-2.5
			C115.1,61.3,114.7,60,114.2,58.7L114.2,58.7z"/>
		<path class="st1" d="M95.3,44.8c1.7,0.1,3.3,0.4,4.7,0.9c0.7,1.2,1.5,2.3,2.5,3.3c-1.3-0.3-2.7-0.5-4-0.5
			C97.3,47.4,96.2,46.2,95.3,44.8L95.3,44.8z"/>
		<path class="st1" d="M115.9,56.7c1.3,0.3,2.7,0.5,4.1,0.5c1.2,1,2.2,2.2,3.1,3.6c-1.7-0.1-3.3-0.4-4.7-0.9
			C117.7,58.7,116.9,57.6,115.9,56.7L115.9,56.7z"/>
		<path class="st1" d="M98.1,49.2c1,0.9,2.2,1.6,3.4,2.2c-1.4,0.1-2.7,0.4-4,0.9c-1.4-0.5-2.8-1.3-4.2-2.3
			C95,49.5,96.6,49.3,98.1,49.2L98.1,49.2z"/>
		<path class="st1" d="M120.8,53.2c1.4,0.6,2.8,1.3,4.2,2.3c-1.6,0.5-3.2,0.7-4.7,0.8c-1.1-0.9-2.2-1.6-3.4-2.2
			C118.2,54,119.5,53.7,120.8,53.2L120.8,53.2z"/>
		<path class="st1" d="M97.6,53.2c1.3,0.5,2.6,0.8,4,0.9c-1.2,0.6-2.4,1.3-3.4,2.2c-1.5,0-3.1-0.3-4.7-0.8
			C94.8,54.6,96.2,53.8,97.6,53.2L97.6,53.2z"/>
		<path class="st1" d="M120.3,49.2c1.5,0,3.1,0.3,4.7,0.8c-1.3,1-2.8,1.8-4.2,2.3c-1.3-0.5-2.6-0.8-4-0.9
			C118.1,50.8,119.2,50.1,120.3,49.2L120.3,49.2z"/>
		<path class="st1" d="M102.5,56.7c-1,1-1.8,2.1-2.5,3.2c-1.5,0.5-3,0.8-4.7,0.9c0.9-1.4,2-2.6,3.1-3.6
			C99.8,57.2,101.2,57,102.5,56.7L102.5,56.7z"/>
		<path class="st1" d="M123.1,44.8c-0.9,1.4-2,2.6-3.1,3.6c-1.4,0-2.7,0.2-4.1,0.5c1-1,1.8-2.1,2.5-3.3
			C119.8,45.2,121.4,44.9,123.1,44.8L123.1,44.8z"/>
		<path class="st1" d="M109.2,60.5c0.4,1.3,0.9,2.6,1.6,3.8c-0.3,1.5-0.8,3-1.6,4.5c-0.7-1.5-1.3-3-1.6-4.5
			C108.3,63.1,108.8,61.9,109.2,60.5L109.2,60.5z"/>
		<path class="st1" d="M106.6,60.1c0,0.4-0.1,0.8-0.1,1.2c0,1,0.1,1.9,0.3,2.8c-0.8,1.3-1.8,2.6-3,3.7c-0.1-0.7-0.1-1.5-0.1-2.2
			c0-0.9,0.1-1.8,0.2-2.6C104.8,62.2,105.8,61.2,106.6,60.1L106.6,60.1z"/>
		<path class="st1" d="M104.2,58.7c-0.6,1.2-1,2.6-1.2,3.9c-1.2,1-2.6,1.8-4.1,2.5c0.4-1.6,1-3.1,1.7-4.5
			C101.9,60.1,103.1,59.5,104.2,58.7L104.2,58.7z"/>
		<path class="st1" d="M109.2,36.7c0.7,1.5,1.3,3,1.6,4.5c-0.7,1.2-1.2,2.5-1.6,3.8c-0.4-1.3-0.9-2.6-1.6-3.8
			C107.9,39.8,108.5,38.2,109.2,36.7L109.2,36.7z"/>
		<path class="st1" d="M114.7,37.7c0.1,0.7,0.1,1.5,0.1,2.2c0,0.9-0.1,1.8-0.2,2.6c-1,0.9-2,1.9-2.8,3c0-0.4,0.1-0.8,0.1-1.2
			c0-1-0.1-1.9-0.3-2.8C112.4,40.1,113.5,38.9,114.7,37.7L114.7,37.7z"/>
		<path class="st1" d="M119.5,40.5c-0.4,1.6-1,3.1-1.7,4.5c-1.3,0.5-2.5,1.1-3.6,1.9c0.6-1.2,1-2.6,1.2-3.9
			C116.6,42,118,41.2,119.5,40.5L119.5,40.5z"/>
	</g>
	<path class="st1" d="M53.1,52.1c0,3-1.1,7.1-5.3,7.1c-5.1,0-5.1-5.7-5.1-6.9c0-1.2,0-7.3,5.2-7.3C52.8,45,53.1,50.3,53.1,52.1
		L53.1,52.1z M42.8,36.2h-3.4v22l-0.1,3.3h3.3l0.1-2.8c0.4,0.5,0.8,1.2,1.8,1.9c1.6,1.1,3.2,1.2,4.1,1.2c2.5,0,5-1.1,6.4-3.1
		c0.9-1.2,1.7-3.1,1.7-6.7c0-4-1.2-5.8-2.1-6.9c-1.7-1.9-4-2.3-5.8-2.3c-4.1,0-5.5,2.3-6,3.1V36.2L42.8,36.2z"/>
	<path class="st1" d="M62.5,52.9c0-1.6,0-7.4,5.5-7.4c4,0,5,3.4,5,6.7c0,1.3-0.2,3.9-1.5,5.7c-1.2,1.6-3,1.8-3.9,1.8
		C62.8,59.6,62.5,55.1,62.5,52.9L62.5,52.9z M59.2,68.5h3.4v-9.1c1,1.6,2.9,2.7,5.6,2.7c4.4,0,8.3-3,8.3-9.8c0-6.8-3.7-9.5-7.7-9.5
		c-1.5,0-4.5,0.4-6.2,3.3l-0.1-3h-3.5c0.1,1.7,0.1,2.2,0.1,3V68.5L59.2,68.5z"/>
</g>
</svg>
