<?xml version="1.0" encoding="utf-8"?>
<!-- Generator: Adobe Illustrator 20.0.0, SVG Export Plug-In . SVG Version: 6.00 Build 0)  -->
<svg version="1.1" id="Layer_1" xmlns="http://www.w3.org/2000/svg" xmlns:xlink="http://www.w3.org/1999/xlink" x="0px" y="0px"
	 width="178px" height="107px" viewBox="0 0 178 107" style="enable-background:new 0 0 178 107;" xml:space="preserve">
<style type="text/css">
	.st0{fill:#AAAAAA;}
	.st1{fill-rule:evenodd;clip-rule:evenodd;fill:#AAAAAA;}
</style>
<g>
	<path class="st1" d="M89.5,17.5c-19,0.1-34.4,15.6-34.2,34.7C55.5,71,70.9,86.4,90,86.3c18.9-0.1,34.2-15.6,34.1-34.5
		C124,32.7,108.5,17.4,89.5,17.5z M104.8,43.3c0.4-0.7,0.9-1.4,1.7-1.6c0.9-0.3,1.9-0.3,2.6,0.5c0.1-1.2,0.2-2.3,0.2-3.4
		c0.1-0.8,0.1-1.7,0.2-2.5c0-0.3,0.2-0.5,0.4-0.7c0.3-0.1,0.6-0.2,0.8-0.3c0.5-0.1,0.8,0.1,0.7,0.6c-0.1,1-0.3,2.1-0.4,3.1
		c-0.3,2.1-0.5,4.2-0.4,6.3c0,0.6,0.1,1.2,0.2,1.8c0,0.2,0.1,0.3,0.1,0.4c0.2,0.5,0.4,0.7,0.9,0.5c0.7-0.2,0.8,0.2,0.8,0.7
		c-0.1,0.6-0.7,1.1-1.3,1c-0.7-0.1-1.2-0.6-1.6-1.3c-0.1,0.2-0.1,0.3-0.1,0.4c-0.2,0.6-0.5,1.2-1,1.8c-1.1,1.3-2.9,1.3-3.8-0.1
		c-0.6-0.8-0.8-1.7-0.9-2.6C103.9,46.3,104.1,44.7,104.8,43.3z M88.9,44.6c0.5-0.5,1.2-0.4,1.5,0.3c0.3,0.6,0.1,1.6-0.4,2
		c-0.5,0.4-1.1,0.3-1.4-0.3c-0.1-0.2-0.1-0.5-0.2-0.7C88.4,45.4,88.5,44.9,88.9,44.6z M74.2,68.7c-1.2,1.2-2.6,2-4.4,2
		c-0.9,0-1.6-0.5-1.8-1.4c-0.2-1,0.7-1.9,1.6-1.5c1.7,0.8,3.7-0.4,4.4-1.8c0.5-0.9,0.7-1.8,1-2.8c0,0,0-0.1,0,0
		c-0.5,0.4-1.1,0.9-1.6,1.4c-0.8,0.6-1.7,0.9-2.7,0.9c-1.1,0-1.9-0.5-2.5-1.4c-0.7-0.9-1-2-1-3.2c0-0.8,0.1-1.5,0.1-2.3
		c0-0.1,0-0.2,0-0.3c-0.5-0.1-0.9-0.2-1.4-0.3c-0.9-0.2-1.8-0.5-2.5-1.1c-0.9-0.7-0.8-2.2,0.1-2.9c0.4-0.3,0.8-0.2,1.1,0.2
		c0.1,0.2,0.2,0.4,0.3,0.6c0.4,1,1.1,1.5,2.1,1.7c0.3,0.1,0.5,0.1,0.8,0.1c0.2-0.5,0.3-0.9,0.5-1.4c0.9-2.4,2-4.6,3.6-6.5
		c0.9-1.1,1.9-2,3.3-2.5c0.4-0.1,0.8-0.2,1.3-0.3c1-0.1,1.7,0.4,2,1.4c0.3,1.3,0.1,2.5-0.3,3.7c-0.7,1.7-1.8,3.1-3.2,4.2
		c-1.3,1.1-2.7,1.9-4.3,2.6c-0.2,0.1-0.3,0.2-0.3,0.4c-0.2,1-0.3,2-0.2,2.9c0,0.3,0.1,0.5,0.2,0.8c0.3,0.8,0.9,1.1,1.8,0.9
		c0.8-0.2,1.3-0.7,1.8-1.2c1-1.1,1.6-2.3,2.1-3.7c0.2-0.5,0.5-1,1.1-1.1c0.4-0.1,0.7,0,1,0.3c0.3,0.3,0.3,0.6,0.1,1
		c-0.7,1.6-1,3.3-1.3,5C76.4,65.2,75.7,67.2,74.2,68.7z M80.3,67.8c-0.3,0.1-0.6-0.1-0.6-0.5c0-0.4,0.1-0.8,0.1-1.2
		c0-0.1,0-0.3,0-0.4c0,0-0.1,0-0.1,0c-0.3,0.3-0.5,0.6-0.5,1c-0.1,0.4-0.1,0.7-0.1,1.1c0,0.3-0.1,0.5-0.4,0.5
		c-0.1,0-0.2,0.1-0.3,0.1c0-0.2,0-0.3,0-0.5c0.1-1,0.2-2,0.2-3c0-0.4,0.2-0.5,0.5-0.6c0.1,0,0.1,0,0.3-0.1c0,0.5,0,0.9-0.1,1.3
		c0.1-0.1,0.3-0.3,0.5-0.3c0.2-0.1,0.4-0.1,0.6-0.1c0.1,0.1,0.2,0.3,0.2,0.5c0,0.4,0,0.9-0.1,1.3c0,0.1,0,0.2,0,0.3
		c0.2-0.1,0.3-0.2,0.4-0.3C81,67.3,80.5,67.8,80.3,67.8z M83.2,64.8c-0.2,0.5-0.6,0.8-1,1c-0.3,0.1-0.3,0.5-0.2,0.7
		c0.1,0.2,0.3,0.2,0.4,0c0.2-0.2,0.3-0.3,0.4-0.5c0.1-0.2,0.2-0.2,0.4-0.2c0,0.6-0.5,1.2-1.1,1.3c-0.4,0.1-0.8-0.1-0.9-0.5
		c-0.3-0.9,0.4-2.3,1.3-2.5c0.2,0,0.4,0,0.6,0.1C83.3,64.3,83.2,64.6,83.2,64.8z M85.7,65.7c-0.2,0.2-0.5,0.1-0.6-0.1
		c-0.2,0.2-0.3,0.4-0.5,0.5c-0.4,0.2-0.7,0.1-0.9-0.2c-0.3-0.8-0.1-1.5,0.3-2.2c0.3-0.4,0.6-0.5,1.1-0.4c0.1-0.1,0.1-0.2,0.3-0.3
		c0.1-0.1,0.3-0.1,0.3-0.1c0.1,0,0.2,0.2,0.2,0.3c0,0.4,0,0.8-0.1,1.2c0,0.2,0,0.4,0,0.7c0.1-0.1,0.1-0.1,0.2-0.2
		c0.1,0,0.1-0.1,0.2-0.1C86.1,65.3,86,65.5,85.7,65.7z M87,65.4c-0.3,0.1-0.6-0.1-0.5-0.5c0-0.5,0.1-1.1,0.1-1.6
		c0-0.5,0.1-1,0.1-1.5c0-0.3,0.1-0.6,0.5-0.6c0.1,0,0.2,0,0.3-0.1c-0.1,1.2-0.2,2.4-0.2,3.7c0.2-0.1,0.3-0.2,0.5-0.4
		C87.6,64.9,87.3,65.3,87,65.4z M89.2,62c-0.3,0.1-0.4,0.2-0.4,0.5c0,0.4-0.1,0.9-0.1,1.3c0,0.1,0,0.1,0,0.2
		c0.2-0.1,0.3-0.2,0.4-0.3c0,0.4-0.3,0.9-0.7,1c-0.3,0.1-0.5-0.1-0.5-0.5c0-0.4,0.1-0.8,0.1-1.2c0-0.2,0-0.3,0-0.5
		c-0.2,0-0.3,0.1-0.4,0.1c-0.1-0.3,0-0.5,0.3-0.5c0.1,0,0.2-0.1,0.2-0.2c0.1-0.5,0.1-0.6,0.7-0.7c0,0.2,0,0.3,0,0.5
		c0.2-0.1,0.4-0.1,0.6-0.2C89.6,61.8,89.5,62,89.2,62z M91.6,63.5C91.2,63.6,91,63.4,91,63c0-0.4,0.1-0.9,0.1-1.3c0-0.1,0-0.2,0-0.4
		c-0.4,0.3-0.5,0.7-0.6,1c-0.1,0.3-0.1,0.7-0.1,1c0,0.5-0.2,0.7-0.7,0.7c0-0.5,0.1-1.1,0.1-1.6c0-0.7,0.1-1.3,0.1-2
		c0-0.3,0.1-0.4,0.4-0.5c0.1,0,0.2-0.1,0.3-0.1c0,0.5,0,1-0.1,1.4c0.2-0.2,0.4-0.4,0.6-0.5c0.4-0.2,0.7,0,0.7,0.4
		c0,0.5-0.1,0.9-0.1,1.4c0,0.1,0,0.1,0,0.2c0.2-0.1,0.3-0.2,0.4-0.3C92.2,63,91.9,63.4,91.6,63.5z M94.5,60.3
		c-0.1,1-0.3,1.9-0.8,2.8c-0.2,0.4-0.5,0.7-0.9,0.9c-0.2,0.1-0.4,0.1-0.6,0c-0.1,0-0.1-0.3-0.1-0.4c0.1-0.2,0.2-0.5,0.5-0.4
		c0.1,0,0.3,0.2,0.4,0.3c0.3-0.3,0.4-0.6,0.3-1c-0.2-0.5-0.4-1-0.6-1.5c-0.2,0.1-0.3,0.2-0.4,0.3c0-0.5,0.3-0.9,0.7-1
		c0.2,0,0.4,0.1,0.5,0.3c0.1,0.3,0.2,0.7,0.4,1c0,0,0,0,0.1,0c0.1-0.5,0.1-1,0.2-1.4c0-0.3,0-0.3,0.4-0.4
		C94.5,59.8,94.5,60,94.5,60.3z M93.8,55.2c-0.2-0.3-0.3-0.6-0.5-0.9c-0.3,0.6-0.5,1.3-0.8,1.9c-0.2,0.4-0.4,0.7-0.7,1
		c-0.7,0.8-1.9,0.7-2.5-0.1c-0.2-0.3-0.4-0.7-0.5-1c-0.2,0.5-0.5,1.2-0.7,1.7c-0.2,0.4-0.4,0.7-0.7,1c-1.1,1.4-2.8,0.7-3.4-0.3
		c-0.4-0.6-0.5-1.3-0.6-1.9c-0.1-1.2,0.1-2.5,0.6-3.6c0.1-0.2,0.1-0.4,0.2-0.6c0-0.2-0.1-0.4-0.3-0.4c-0.5,0.1-1,0.3-1.3,0.7
		c-0.2,0.2-0.1,0.5-0.2,0.8c-0.3,2.1-0.7,4.1-1.3,6.1c-0.3,0.8-0.5,1.6-1,2.3c-0.3,0.4-0.7,0.8-1.3,0.7c-0.4,0-0.7-0.3-0.9-0.7
		c-0.1-0.2,0-0.4,0.1-0.5c1-0.8,1.4-1.9,1.8-3.1c0.5-1.7,0.8-3.4,1-5.1c0-0.3,0-0.4-0.2-0.6c-0.6-0.4-0.7-1.3-0.3-2
		c0.3-0.6,0.9-0.8,1.6-0.6c0.4,0.1,0.6,0.4,0.7,0.8c0,0.1,0,0.2,0.1,0.3c0.4-0.2,0.7-0.4,1-0.6c0.3-0.1,0.5-0.2,0.8-0.3
		c0.8-0.2,1.4,0.3,1.5,1.1c0,0.4-0.1,0.8-0.3,1.2c-0.7,1.2-0.8,2.5-0.5,3.8c0,0.2,0.1,0.4,0.2,0.5c0.4,0.6,1,0.6,1.4,0.1
		c0.2-0.3,0.4-0.6,0.6-1c0.4-0.9,0.6-1.9,0.7-2.9c0.1-1.3,0.2-2.6,0.3-3.9c0-0.5,0.2-0.8,0.7-0.9c0.2-0.1,0.3-0.1,0.5-0.2
		c0.4-0.1,0.6,0.1,0.6,0.5c0,0.2,0,0.4-0.1,0.6c-0.1,1.4-0.2,2.8-0.3,4.1c0,0.4,0,0.8,0.1,1.2c0.2,0.7,0.9,0.9,1.4,0.4
		c0.6-0.6,0.9-1.3,1-2c0.2-1.4,0.4-2.9,0.5-4.3c0.2-2,0.3-4,0.4-6c0-0.6,0.3-1,0.8-1.1c0.2,0,0.3-0.1,0.5-0.2
		c0.5-0.1,0.7,0.1,0.7,0.6c-0.1,0.6-0.1,1.3-0.2,1.9c-0.1,1.4-0.3,2.8-0.4,4.2c-0.1,1.3-0.2,2.7-0.2,4c0,0.3,0,0.7,0.2,1
		c0.2,0.5,0.7,0.6,1.1,0.2c0.3-0.3,0.6-0.7,0.8-1.2c0.5-1.1,0.7-2.2,0.8-3.4c0.2-2,0.2-4.1,0.4-6.1c0-0.6,0.1-1.3,0.1-1.9
		c0-0.3,0.1-0.5,0.4-0.7c0.3-0.1,0.5-0.3,0.8-0.3c0.5-0.1,0.8,0.1,0.7,0.6c-0.1,1.4-0.3,2.8-0.4,4.1c-0.2,2-0.3,4-0.4,5.9
		c0,0.3,0,0.6,0.1,0.9c0.2,0.7,0.8,0.8,1.3,0.3c0.2-0.3,0.4-0.6,0.6-0.9c0.2-0.4,0.3-0.9,0.4-1.3c0.1-0.4,0.3-0.6,0.6-0.5
		c0.4,0,0.7,0.3,0.7,0.6c0,0.3-0.1,0.6-0.2,0.9c-0.3,1.1-0.7,2.1-1.4,3.1c-0.2,0.2-0.3,0.4-0.5,0.6c-0.6,0.5-1.5,0.5-2-0.1
		c-0.3-0.3-0.4-0.7-0.6-1c0-0.1-0.1-0.2-0.1-0.3c-0.2,0.5-0.3,1-0.6,1.4c-0.3,0.5-0.5,1-0.9,1.4C95.5,56.3,94.4,56.2,93.8,55.2z
		 M97.7,61c-0.3,0.2-0.5,0.2-0.7,0.2c-0.1,0.1-0.3,0.2-0.4,0.3c-0.3,0.1-0.5,0-0.5-0.3c0.1-1.1,0.2-2.3,0.2-3.4
		c0-0.1,0.1-0.2,0.2-0.2c0.2-0.1,0.3-0.1,0.5-0.2c0,0.4,0,0.8-0.1,1.3c0.2-0.1,0.3-0.3,0.5-0.4c0.4-0.2,0.8-0.1,0.9,0.3
		C98.7,59.3,98.4,60.5,97.7,61z M100.9,59.8c-0.3,0.1-0.5,0-0.6-0.2c-0.2,0.2-0.3,0.4-0.5,0.6c-0.2,0.2-0.4,0.2-0.7,0.1
		c-0.2-0.1-0.3-0.3-0.2-0.6c0-0.6,0.1-1.1,0.1-1.7c0-0.2,0.1-0.3,0.3-0.4c0.1,0,0.3-0.1,0.4-0.2c0,0.5,0,0.9-0.1,1.4
		c0,0.2,0,0.3,0,0.5c0,0.1,0,0.2,0.1,0.2c0.1,0,0.2,0,0.2-0.1c0.1-0.3,0.3-0.6,0.3-0.8c0.1-0.4,0.1-0.8,0.1-1.2
		c0-0.2,0.1-0.3,0.3-0.4c0.1,0,0.3-0.1,0.4-0.1c0,0.7-0.1,1.4-0.1,2.1c0,0,0,0,0.1,0c0.1-0.1,0.1-0.1,0.2-0.2
		c0.1-0.1,0.2-0.1,0.2-0.2C101.4,59.3,101.2,59.6,100.9,59.8z M102.8,57c-0.1,0.2-0.1,0.4-0.1,0.6c0,0.4-0.1,0.8-0.1,1.2
		c0,0.2-0.1,0.4-0.3,0.4c-0.1,0-0.3,0.1-0.5,0.2c0-0.7,0.1-1.4,0.1-2.2c-0.2,0.1-0.3,0.2-0.5,0.4c0-0.5,0.2-0.8,0.6-0.9
		c0.2-0.1,0.5-0.1,0.7,0.2c0.1-0.1,0.1-0.3,0.2-0.4c0.1-0.1,0.2-0.3,0.4-0.3c0.3-0.1,0.5,0.1,0.5,0.4
		C103.7,56.8,103.3,57.1,102.8,57z M103.1,41.7c0,0.2-0.1,0.3-0.2,0.5c-0.1,0.2-0.3,0.4-0.5,0.5c-0.5,0.3-0.9,0-0.9-0.5
		c0-0.2,0-0.5,0-0.7c0-0.2,0-0.5,0-0.7c0,0,0,0,0,0c0-0.4,0-0.8,0-1.3c0-0.3,0.1-0.6,0.5-0.7c0.3-0.1,0.7-0.3,1.1-0.4
		c0.3-0.1,0.5-0.1,0.7,0.1c0.2,0.2,0.2,0.4,0.1,0.7C103.6,40,103.3,40.8,103.1,41.7z M105.9,58c-0.2,0.6-0.6,1-1.2,1.2
		c-0.1,0-0.3,0.1-0.4,0c-0.2-0.1-0.3-0.2-0.4-0.3c0-0.1,0.1-0.2,0.2-0.4c0.2,0.3,0.4,0.3,0.7,0.2c0.3-0.1,0.5-0.4,0.5-0.7
		c0-0.2-0.2-0.4-0.4-0.3c-0.1,0-0.2,0.1-0.4,0.2c-0.1,0-0.3,0.1-0.4,0c-0.1,0-0.1-0.2-0.1-0.4c0-0.1,0.1-0.1,0.1-0.2
		c-0.4-0.4-0.4-0.8-0.1-1.3c0.2-0.3,0.5-0.6,0.9-0.7c0.3-0.1,0.6-0.1,0.8-0.4c0,0,0.1,0,0.2-0.1c-0.1,0.6-0.1,1.1-0.2,1.6
		c0,0.1-0.1,0.2-0.2,0.3C106,57.2,106.1,57.5,105.9,58z M107.1,56.8c0.1,0.1,0.3,0.1,0.4,0c0.2-0.1,0.3-0.3,0.4-0.5
		c0.1-0.2,0.2-0.3,0.4-0.2c-0.1,0.7-0.5,1.2-1.1,1.3c-0.4,0.1-0.8-0.1-1-0.5c-0.4-0.9,0.4-2.3,1.3-2.5c0.2,0,0.5-0.1,0.6,0.2
		c0.2,0.2,0.1,0.5,0,0.7c-0.2,0.4-0.6,0.6-0.9,0.8C107,56.2,106.9,56.6,107.1,56.8z M109.9,54.2c-0.1,0.2-0.1,0.4-0.2,0.5
		c-0.1,0.4-0.1,0.8-0.1,1.2c0,0.3-0.1,0.4-0.3,0.5c-0.1,0-0.3,0.1-0.4,0.2c0-0.7,0.1-1.4,0.1-2.1c0,0-0.1,0-0.1,0
		c-0.1,0.1-0.3,0.2-0.4,0.3c0-0.4,0.2-0.7,0.5-0.9c0.3-0.1,0.5-0.1,0.7,0.1c0.1-0.2,0.2-0.4,0.3-0.5c0.2-0.2,0.4-0.3,0.6-0.2
		c0.2,0.1,0.2,0.4,0,0.7C110.5,54.2,110.3,54.3,109.9,54.2z M112.7,54.9c-0.2,0.5-0.8,0.9-1.2,0.9c-0.3,0-0.6-0.2-0.7-0.4
		c0-0.1,0-0.2,0-0.3c0.1-0.2,0.2-0.4,0.3-0.6c0.1-0.2,0.2-0.4,0.1-0.7c-0.1-0.4,0.3-0.9,0.6-1c0.3-0.1,0.5,0.2,0.4,0.4
		c-0.1,0.3,0,0.4,0.2,0.6C112.7,54.1,112.9,54.4,112.7,54.9z"/>
	<path class="st1" d="M71.1,56.1c1.5-0.7,2.7-1.7,3.8-2.9c0.9-1,1.6-2.1,2-3.4c0.1-0.4,0.1-0.8,0-1.2c-0.1-0.4-0.4-0.5-0.8-0.4
		c-0.2,0.1-0.4,0.2-0.6,0.3c-0.3,0.2-0.6,0.5-0.8,0.7c-1.4,1.6-2.4,3.3-3.2,5.2c-0.2,0.6-0.4,1.1-0.6,1.7c0,0,0,0,0.1,0
		C71,56.1,71,56.1,71.1,56.1z"/>
	<path class="st1" d="M106.1,48.7c0.3,0.8,1.1,1,1.7,0.4c0.2-0.3,0.4-0.6,0.5-0.9c0.4-1.2,0.5-2.5,0.5-3.8c0-0.5-0.3-0.9-0.8-1.1
		c-0.5-0.2-0.8,0-1.1,0.4c-0.2,0.3-0.4,0.6-0.5,1c-0.4,0.9-0.4,1.9-0.5,2.9c0,0.2,0,0.5,0.1,0.8C106,48.5,106.1,48.6,106.1,48.7z"/>
	<path class="st1" d="M97.4,58.8c-0.1,0-0.2,0.1-0.2,0.2c-0.1,0.3-0.2,0.6-0.3,0.8c0,0.2,0.1,0.4,0.1,0.6c0,0.1,0.1,0.2,0.2,0.2
		c0.1,0,0.2-0.1,0.2-0.2c0.3-0.5,0.3-0.9,0.2-1.4C97.6,59,97.5,58.8,97.4,58.8z"/>
	<path class="st1" d="M84.9,64c0-0.1-0.1-0.2-0.2-0.2c-0.1,0-0.2,0.1-0.2,0.2c-0.3,0.5-0.3,0.9-0.2,1.5c0,0.1,0.1,0.2,0.2,0.2
		c0.1,0,0.2-0.1,0.2-0.2c0.1-0.3,0.2-0.6,0.3-0.9c0,0,0,0,0,0C85,64.3,85,64.2,84.9,64z"/>
	<path class="st1" d="M105,55.9c-0.2,0.2-0.3,0.4-0.5,0.6c0.1,0.2,0.2,0.3,0.3,0.4c0.1,0,0.2,0,0.3,0c0.3-0.2,0.4-0.4,0.3-0.7
		C105.4,55.8,105.2,55.7,105,55.9z"/>
	<path class="st1" d="M107.5,54.9c-0.3,0.2-0.5,0.5-0.4,0.9C107.4,55.6,107.6,55.2,107.5,54.9z"/>
	<path class="st1" d="M81.9,65.5c0.5-0.2,0.7-0.6,0.5-1C82,64.7,82,65.1,81.9,65.5z"/>
	<path class="st1" d="M111.6,54.3c-0.1,0.2-0.2,0.4-0.3,0.6c-0.1,0.2,0,0.4,0.2,0.4c0.1,0,0.3-0.1,0.4-0.2c0.1-0.1,0-0.3,0-0.4
		C111.9,54.5,111.7,54.4,111.6,54.3z"/>
</g>
</svg>
