<?xml version="1.0" encoding="utf-8"?>
<!-- Generator: Adobe Illustrator 20.0.0, SVG Export Plug-In . SVG Version: 6.00 Build 0)  -->
<svg version="1.1" id="Layer_1" xmlns="http://www.w3.org/2000/svg" xmlns:xlink="http://www.w3.org/1999/xlink" x="0px" y="0px"
	 width="178px" height="107px" viewBox="0 0 178 107" style="enable-background:new 0 0 178 107;" xml:space="preserve">
<style type="text/css">
	.st0{fill:#AAAAAA;}
	.st1{fill-rule:evenodd;clip-rule:evenodd;fill:#AAAAAA;}
</style>
<g>
	<path class="st1" d="M53.4,49.7c0-5.5-4.3-9.8-9.8-9.8c-5.5,0-9.8,4.3-9.8,9.8c0,5.5,4.3,9.8,9.8,9.8C49,59.5,53.4,55.1,53.4,49.7z
		 M42.2,40.8c0,0,0.9-0.2,1.4-0.2c0.5,0,0.9,0,1.4,0.2v4.1h6.4c0,0,0.7,1.1,1.1,2.5h-3.2c0.3-0.6,0.4-1.2,0.4-1.6l-0.4-0.2
		c0,0-0.8,0.9-1.9,1.8h-2.4v1.1c0,0-0.1,0-0.1,0c-0.1,0-0.2,0.1-0.3,0.1c-0.2,0-0.5,0-0.7-1.2c0-0.5,0.1-1.6,0.2-3
		c0.1-0.7,0.1-1.4,0.2-2.2L43.8,42c0,0-0.4,1.1-1.1,1.8c-0.1,0.2-0.2,0.4-0.4,0.6c0,0.1-0.1,0.1-0.1,0.2V40.8z M46.1,48.8l2.3-0.8
		c-0.1,0.2-0.2,0.3-0.3,0.5l-6.7,1.9c0-0.1,0-0.2,0-0.3l3.5-1.1l0,0c0,0,0,0,0,0c1.8-0.3,3.3-1.6,4.1-2.4c-0.1,0.4-0.3,0.8-0.6,1.3
		L46,48.7L46.1,48.8z M44.6,52.2c-0.9,0.3-1.6,0.5-2.3,0.5c-0.1,0-0.3,0-0.4,0l3.5-0.9C45.1,51.9,44.9,52.1,44.6,52.2z M44.9,52.6
		v2.8c0,0-0.7,0-1.4,0c-0.5,0-0.9,0-1.4,0v-2.2c0.1,0,0.1,0,0.2,0c0.7,0,1.5-0.2,2.4-0.5C44.8,52.6,44.9,52.6,44.9,52.6z M41.7,52.6
		L41.7,52.6c-0.2,0-0.5-0.1-0.7-0.1l5.3-1.5c-0.2,0.2-0.4,0.4-0.6,0.6L41.7,52.6z M40.8,52.3C40.8,52.3,40.8,52.3,40.8,52.3
		c0.1-0.1,0.1-0.2,0.2-0.4l5.8-1.6c-0.1,0.1-0.2,0.3-0.3,0.4v0L40.8,52.3z M40.3,52.2c-1.2-0.1-2.5,0.3-3.2,0.5
		c0.5-1.6,2.2-1.9,3.2-1.9c0.2,0,0.4,0,0.5,0C40.7,51.6,40.4,52,40.3,52.2z M41.1,51.8c0.1-0.1,0.1-0.3,0.1-0.5l6.4-1.9
		c-0.2,0.3-0.4,0.5-0.6,0.8L41.1,51.8z M41.3,51.1c0-0.1,0-0.3,0-0.5c0,0,0,0,0,0c0,0,0-0.1,0-0.1l6.7-1.9c-0.1,0.2-0.2,0.3-0.3,0.5
		L41.3,51.1z M43.6,44.3C43.6,44.3,43.6,44.3,43.6,44.3c0,0.1,0,0.2,0,0.3v0l-1,0.4c0.1-0.1,0.1-0.2,0.2-0.3
		c0.1-0.1,0.1-0.2,0.2-0.3l0,0.1L43.6,44.3z M42.9,44.3c0-0.1,0.1-0.1,0.1-0.2c0.2-0.2,0.4-0.5,0.6-0.8c0,0.3-0.1,0.6-0.1,0.9l0-0.1
		L42.9,44.3z M43.8,48.7l-2.4,0.6c0-0.1,0-0.2,0-0.4l2.2-0.7C43.6,48.4,43.7,48.6,43.8,48.7z M43.9,48.9c0.1,0.1,0.3,0.2,0.5,0.2
		l-3,0.9c0-0.1,0-0.3,0-0.5c0,0,0,0,0,0L43.9,48.9z M41.3,48.8c0-0.1,0-0.2,0-0.4l2.1-0.6c0,0.1,0,0.2,0.1,0.3L41.3,48.8z
		 M43.4,46.5L41.5,47c0.1-0.1,0.1-0.3,0.2-0.5l1.7-0.4C43.4,46.2,43.4,46.3,43.4,46.5z M43.4,46.6c0,0.2,0,0.4,0,0.5l-2,0.5
		c0-0.2,0.1-0.4,0.1-0.6L43.4,46.6z M43.3,47.3c0,0,0,0.1,0,0.1c0,0.1,0,0.2,0,0.2l-2.1,0.6c0-0.1,0-0.3,0-0.5L43.3,47.3z
		 M42.4,45.1L42.4,45.1l1.1-0.4c0,0.2,0,0.4-0.1,0.5l-1.3,0.4C42.2,45.5,42.3,45.3,42.4,45.1z M43.5,45.4c0,0.2,0,0.4,0,0.5
		l-1.6,0.4c0.1-0.2,0.2-0.3,0.3-0.5L43.5,45.4z M35.8,44.9H42c-0.5,0.8-1,1.7-1.2,2.5h-6C34.9,47.4,35.1,46,35.8,44.9z M43.6,58.8
		c-5,0-9.1-4.1-9.1-9.1h2.3c0,0.7,0.1,1.4,0.3,2c-0.3,0.4-0.5,0.8-0.6,1.4l-0.1,0.4l0.4-0.2c0,0,0.3-0.1,0.8-0.3
		c1.2,2.1,3.5,3.5,5.9,3.5c3.7,0,6.8-3,6.8-6.8h2.3C52.7,54.7,48.6,58.8,43.6,58.8z"/>
	<path class="st1" d="M31.7,49.9c0-3.7,1.6-6.8,4.1-9.1c-5.3,3-11,8.9-13,21h18C35.6,60.4,31.7,55.6,31.7,49.9z"/>
	<path class="st1" d="M105.2,48.1c-1.4,0-2.5,1.1-2.5,3c0,1.4,0.9,2.7,2.5,2.7c0.9,0,1.8-0.7,2.1-1.6c0-0.2,0-0.5,0-0.7v-1.1
		c0-0.2,0-0.5,0-0.7C107,48.8,106.1,48.1,105.2,48.1z"/>
	<path class="st1" d="M141.1,48.5c-1.1,0-1.6,0.9-1.8,1.6c2.1,0,2.7-0.2,2.7-0.9C142,49,141.5,48.5,141.1,48.5z"/>
	<path class="st1" d="M47.2,38c0,0-0.9,0-2.1,0c5.9,0.7,10.5,5.7,10.5,11.9c0,5.7-3.9,10.5-9.1,11.9h84c0,0,20.8,1.6,25.1-23.7H47.2
		z M67.5,49.9c0,4.1-2.1,5.7-5.3,5.7c-3,0-5-1.6-5-5.7v-6.6h2.3v6.8c0,2.5,1.1,3.7,2.7,3.7c1.8,0,3-1.1,3-3.7v-6.8h2.3V49.9z
		 M77.1,55.4h-2.3v-4.8c0-1.4-0.7-2.3-2.1-2.3c-0.9,0-1.6,0.7-1.8,1.4c-0.2,0.2-0.2,0.5-0.2,0.7v5h-2.3v-6.2c0-0.9,0-1.8,0-2.5h2.1
		v1.4c0.5-0.7,1.6-1.6,3.2-1.6c1.6,0,3.4,0.9,3.4,3.9V55.4z M80.3,55.4H78v-8.7h2.3V55.4z M79.2,45.3c-0.9,0-1.4-0.7-1.4-1.4
		c0-0.7,0.5-1.1,1.4-1.1s1.4,0.5,1.4,1.1C80.5,44.6,80.1,45.3,79.2,45.3z M86.9,48.3h-2.3V52c0,1.1,0.2,1.8,1.1,1.8
		c0.5,0,0.7,0,0.9-0.2v1.8c-0.2,0.2-0.9,0.2-1.6,0.2c-0.9,0-1.6-0.2-2.1-0.7c-0.5-0.7-0.7-1.4-0.7-2.5v-4.1H81v-1.6h1.4v-1.8
		l2.3-0.5v2.3h2.3V48.3z M89.9,55.4h-2.3v-8.7h2.3V55.4z M88.8,45.3c-0.9,0-1.4-0.7-1.4-1.4c0-0.7,0.5-1.1,1.4-1.1s1.4,0.5,1.4,1.1
		C90.1,44.6,89.7,45.3,88.8,45.3z M99.7,55.4h-2.5v-4.8c0-1.4-0.5-2.3-1.8-2.3c-0.9,0-1.6,0.7-1.8,1.4c-0.2,0.2-0.2,0.5-0.2,0.7v5
		h-2.3v-6.2c0-0.9,0-1.8,0-2.5h1.8l0.2,1.4c0.5-0.7,1.4-1.6,3.2-1.6c1.4,0,3.4,0.9,3.4,3.9V55.4z M109.5,49v5c0,1.8-0.2,3.2-1.4,4.1
		c-0.9,0.9-2.3,1.1-3.7,1.1c-1.1,0-2.5-0.2-3.4-0.7l0.7-1.8c0.5,0.5,1.6,0.7,2.7,0.7c1.6,0,2.7-0.7,2.7-2.7V54
		c-0.5,0.7-1.6,1.4-2.7,1.4c-2.5,0-4.1-1.8-4.1-4.3c0-2.7,2.1-4.6,4.3-4.6c1.4,0,2.3,0.7,2.7,1.4l0.2-1.1h2.1
		C109.5,47.2,109.5,47.8,109.5,49z M116.6,55.8c-3.2,0-5.5-2.1-5.5-5.3c0-3.2,1.4-5.3,3.2-6.4c1.4-0.9,2.7-1.1,4.6-1.1
		c1.1,0,2.3,0.2,2.7,0.5l-0.9,2.5c-0.2,0-1.1-0.2-2.1-0.2c-1.1,0-2.1,0.2-2.5,0.7c-1.1,0.7-1.8,2.1-1.8,3.7c0,1.8,1.1,3,3.2,3
		c0.9,0,1.6-0.2,2.3-0.5l0.2,2.5C119.4,55.6,118.2,55.8,116.6,55.8z M128.7,55.6H126c0-0.5,0-1.1,0-1.6c-0.7,1.4-1.8,1.8-2.7,1.8
		c-1.8,0-3-1.4-3-3.2c0-3,2.1-6.4,6.6-6.4c1.1,0,2.5,0.2,3.2,0.7l-0.9,4.6C129,52.6,128.7,54.5,128.7,55.6z M133.3,52.4l-0.7,3.2
		h-3.2l1.1-5.3c0.2-1.4,0.2-3,0.5-3.9h2.5c0,0.7,0,1.4,0,1.8c0.7-1.1,1.6-2.1,3-2.1c0.2,0,0.2,0,0.5,0.2l-0.7,3H136
		C134.2,49.4,133.5,50.8,133.3,52.4z M139,52.4c0,0,0.2,0.2,0.5,0.5c0.2,0.2,0.7,0.5,1.6,0.5c0.9,0,1.6-0.2,2.5-0.5l0.2,2.3
		c-1.4,0.5-2.7,0.7-3.7,0.7c-2.5,0-4.1-1.4-4.1-3.9c0-2.7,2.1-5.7,5.5-5.7c1.8,0,3.2,1.1,3.2,3C144.7,51.5,142.7,52.4,139,52.4z"/>
	<path class="st1" d="M123.7,52c0,0.9,0.2,1.4,0.9,1.4c0.5,0,1.4-0.7,1.6-2.7l0.5-1.8c-0.2,0-0.5,0-0.7,0
		C124.6,48.8,123.7,50.6,123.7,52z"/>
</g>
</svg>
