<?xml version="1.0" encoding="iso-8859-1"?>
<!-- Generator: Adobe Illustrator 19.1.0, SVG Export Plug-In . SVG Version: 6.00 Build 0)  -->
<svg version="1.1" xmlns="http://www.w3.org/2000/svg" xmlns:xlink="http://www.w3.org/1999/xlink" x="0px" y="0px"
	 viewBox="0 0 61.926 85.726" style="enable-background:new 0 0 61.926 85.726;" xml:space="preserve">
<style type="text/css">
	.st0{display:none;}
	.st1{display:inline;fill:#FFFFFF;}
	.st2{display:inline;fill:#009999;}
	.st3{fill:#009999;}
	.st4{fill:#FFFFFF;}
	.st5{display:inline;}
</style>
<g id="Background" class="st0">
	<rect x="-166.893" y="-104.637" class="st1" width="395" height="295"/>
</g>
<g id="Marks">
	<g>
		<g>
			<path class="st3" d="M7.086,69.928c0.232-0.694,0.718-1.042,1.436-1.042h2.085c0.718,0,1.204,0.348,1.436,1.042l4.794,14.061
				c0.07,0.185,0.093,0.37,0.093,0.532c0,0.209-0.046,0.371-0.162,0.51c-0.185,0.278-0.51,0.417-0.973,0.417h-1.529
				c-0.718,0-1.205-0.348-1.436-1.065l-0.695-2.409H6.97l-0.695,2.409c-0.208,0.718-0.672,1.065-1.413,1.065H3.333
				c-0.463,0-0.787-0.139-0.973-0.417c-0.116-0.139-0.162-0.301-0.162-0.51c0-0.162,0.023-0.348,0.093-0.532L7.086,69.928z
				 M7.92,78.731h3.266l-0.927-3.22l-0.672-2.85H9.541c-0.255,1.205-0.463,2.154-0.672,2.85L7.92,78.731z"/>
			<path class="st3" d="M22.378,70.161c0-0.857,0.417-1.274,1.274-1.274h1.506c0.857,0,1.274,0.417,1.274,1.274v14.013
				c0,0.857-0.417,1.274-1.274,1.274h-1.506c-0.857,0-1.274-0.417-1.274-1.274V70.161z"/>
			<path class="st3" d="M33.267,70.161c0-0.857,0.417-1.274,1.274-1.274h7.598c0.857,0,1.274,0.417,1.274,1.274v0.926
				c0,0.857-0.417,1.274-1.274,1.274h-4.818v3.475h3.775c0.857,0,1.274,0.417,1.274,1.273v0.927c0,0.857-0.417,1.274-1.274,1.274
				h-3.775v4.863c0,0.857-0.417,1.274-1.274,1.274h-1.506c-0.857,0-1.274-0.417-1.274-1.274V70.161z"/>
			<path class="st3" d="M48.211,83.131c0-0.255,0.093-0.532,0.301-0.811l0.718-1.042c0.255-0.371,0.556-0.557,0.926-0.557
				c0.255,0,0.533,0.093,0.834,0.255c0.093,0.023,0.602,0.324,0.88,0.486c0.509,0.255,1.32,0.533,2.131,0.533
				c1.135,0,1.76-0.486,1.76-1.158c0-1.204-1.83-1.621-3.66-2.502c-1.83-0.88-3.66-2.062-3.66-4.655c0-1.506,0.556-2.733,1.667-3.66
				c1.135-0.949,2.548-1.413,4.239-1.413c1.761,0,3.567,0.579,4.471,1.229c0.394,0.277,0.602,0.602,0.602,0.995
				c0,0.232-0.069,0.487-0.208,0.741l-0.556,1.089c-0.232,0.44-0.556,0.672-0.95,0.672c-0.232,0-0.486-0.069-0.788-0.231
				c-1.042-0.51-1.922-0.765-2.618-0.765c-1.204,0-1.807,0.394-1.807,1.158c0,1.228,1.83,1.645,3.66,2.479
				c1.83,0.787,3.66,1.992,3.66,4.586c0,1.46-0.533,2.688-1.575,3.684s-2.456,1.482-4.239,1.482c-1.042,0-2.062-0.162-3.034-0.51
				c-0.95-0.348-1.691-0.718-2.224-1.135C48.397,83.78,48.211,83.479,48.211,83.131z"/>
		</g>
		<g class="st0">
			<path class="st2" d="M65.271,63.305c0.629,0.638,0.943,1.419,0.943,2.327c0,0.907-0.314,1.688-0.943,2.335
				c-0.629,0.638-1.392,0.961-2.299,0.961c-0.89,0-1.644-0.324-2.273-0.961c-0.62-0.647-0.934-1.428-0.934-2.335
				c0-0.908,0.314-1.689,0.934-2.327c0.629-0.638,1.383-0.961,2.273-0.961C63.879,62.343,64.642,62.667,65.271,63.305z
				 M64.705,67.455c0.476-0.494,0.709-1.105,0.709-1.823c0-0.718-0.234-1.32-0.709-1.815c-0.467-0.494-1.042-0.746-1.734-0.746
				c-0.674,0-1.249,0.251-1.716,0.746c-0.458,0.494-0.692,1.096-0.692,1.815c0,0.718,0.234,1.329,0.692,1.823
				c0.467,0.494,1.042,0.746,1.716,0.746C63.663,68.2,64.238,67.949,64.705,67.455z M61.848,64.347c0-0.251,0.126-0.377,0.378-0.377
				h0.988c0.655,0,1.078,0.404,1.078,1.042c0,0.467-0.296,0.781-0.575,0.853v0.018c0.027,0.027,0.063,0.09,0.117,0.188l0.386,0.746
				c0.135,0.261,0.053,0.44-0.189,0.44h-0.117c-0.206,0-0.35-0.089-0.431-0.279l-0.431-0.934h-0.44v0.836
				c0,0.251-0.117,0.377-0.351,0.377h-0.063c-0.234,0-0.35-0.126-0.35-0.377V64.347z M62.612,65.506h0.422
				c0.296,0,0.476-0.18,0.476-0.494c0-0.324-0.152-0.485-0.458-0.485h-0.44V65.506z"/>
		</g>
		<g>
			<path class="st3" d="M16.711,8.795c2.762-1.764,4.816-4.445,5.794-7.573c0-0.001,0.001-0.003,0.001-0.004
				C12.173,3.849,0,14.441,0,31.006C0,41.836,5.563,51.36,13.983,56.894c0,0,0-0.001,0-0.002c0-3.198-1.135-6.276-3.207-8.713
				c-3.919-4.609-6.285-10.579-6.285-17.103C4.492,21.712,9.364,13.488,16.711,8.795z"/>
			<path class="st3" d="M31.737,0.349c-0.416-0.468-1.148-0.463-1.559-0.001c-4.862,5.464-6.707,14.989-0.233,19.336
				c0.612,0.411,1.412,0.411,2.024,0C38.442,15.338,36.599,5.814,31.737,0.349z"/>
			<path class="st3" d="M42.546,17.069c-6.267,1.55-12.351,7.463-10.006,13.863c0.262,0.714,0.941,1.19,1.702,1.191
				c6.815,0.009,10.284-7.733,9.592-14.152C43.766,17.343,43.159,16.917,42.546,17.069z"/>
			<path class="st3" d="M42.546,31.804c-6.267,1.55-12.351,7.463-10.006,13.863c0.262,0.714,0.941,1.19,1.702,1.191
				c6.815,0.009,10.284-7.733,9.592-14.152C43.766,32.078,43.159,31.652,42.546,31.804z"/>
			<path class="st3" d="M42.545,46.539c-6.267,1.551-12.35,7.464-10.005,13.863c0.262,0.714,0.942,1.189,1.702,1.19
				c6.815,0.008,10.284-7.734,9.591-14.153C43.766,46.814,43.16,46.387,42.545,46.539z"/>
			<path class="st3" d="M19.893,17.069c-0.611-0.151-1.22,0.273-1.288,0.902c-0.692,6.418,2.777,14.16,9.592,14.152
				c0.76-0.001,1.44-0.477,1.702-1.191C32.244,24.532,26.16,18.619,19.893,17.069z"/>
			<path class="st3" d="M19.894,31.804c-0.614-0.152-1.221,0.274-1.289,0.9c-0.693,6.419,2.776,14.161,9.591,14.153
				c0.761-0.001,1.441-0.476,1.702-1.19C32.244,39.268,26.161,33.354,19.894,31.804z"/>
			<path class="st3" d="M19.371,46.539c-0.612-0.151-1.22,0.273-1.288,0.902c-0.692,6.418,2.777,14.16,9.592,14.152
				c0.76-0.001,1.44-0.477,1.702-1.191C31.721,54.002,25.638,48.089,19.371,46.539z"/>
			<path class="st3" d="M39.419,1.218c0,0.001,0.001,0.003,0.001,0.004c0.979,3.127,3.033,5.809,5.794,7.573
				c7.347,4.693,12.22,12.917,12.22,22.282c0,6.524-2.366,12.494-6.285,17.103c-2.072,2.437-3.207,5.514-3.207,8.713
				c0,0.001,0,0.002,0,0.002c8.42-5.534,13.983-15.059,13.983-25.888C61.926,14.441,49.753,3.849,39.419,1.218z"/>
		</g>
	</g>
</g>
</svg>
