<?xml version="1.0" encoding="iso-8859-1"?>
<!-- Generator: Adobe Illustrator 19.1.0, SVG Export Plug-In . SVG Version: 6.00 Build 0)  -->
<svg version="1.1" xmlns="http://www.w3.org/2000/svg" xmlns:xlink="http://www.w3.org/1999/xlink" x="0px" y="0px"
	 viewBox="0 0 62.113 61.778" style="enable-background:new 0 0 62.113 61.778;" xml:space="preserve">
<style type="text/css">
	.st0{display:none;}
	.st1{display:inline;fill:#FFFFFF;}
	.st2{display:inline;fill:#009999;}
	.st3{fill:#009999;}
	.st4{fill:#FFFFFF;}
	.st5{display:inline;}
</style>
<g id="Background" class="st0">
	<rect x="-168.944" y="-115.668" class="st2" width="395" height="295"/>
</g>
<g id="Marks">
	<g>
		<g>
			<path class="st4" d="M16.762,8.821c2.77-1.769,4.83-4.459,5.812-7.595c0-0.001,0.001-0.003,0.001-0.004
				C12.21,3.861,0,14.484,0,31.1c0,10.862,5.58,20.416,14.025,25.966c0,0,0-0.001,0-0.002c0-3.208-1.138-6.295-3.216-8.739
				C6.878,43.703,4.505,37.714,4.505,31.17C4.505,21.778,9.392,13.528,16.762,8.821z"/>
			<path class="st4" d="M31.833,0.351c-0.418-0.47-1.152-0.465-1.564-0.001c-4.877,5.481-6.727,15.035-0.234,19.395
				c0.614,0.412,1.417,0.412,2.03,0C38.558,15.385,36.709,5.831,31.833,0.351z"/>
			<path class="st4" d="M42.675,17.12c-6.286,1.555-12.388,7.486-10.036,13.904c0.262,0.716,0.944,1.194,1.707,1.195
				c6.836,0.009,10.315-7.756,9.621-14.194C43.898,17.396,43.289,16.968,42.675,17.12z"/>
			<path class="st4" d="M42.675,31.9c-6.286,1.555-12.388,7.486-10.036,13.904c0.262,0.716,0.944,1.194,1.707,1.195
				c6.836,0.009,10.315-7.756,9.621-14.194C43.898,32.175,43.289,31.748,42.675,31.9z"/>
			<path class="st4" d="M42.673,46.68c-6.286,1.555-12.387,7.486-10.035,13.905c0.263,0.717,0.944,1.193,1.708,1.194
				c6.836,0.008,10.315-7.758,9.62-14.196C43.898,46.955,43.291,46.527,42.673,46.68z"/>
			<path class="st4" d="M19.426,17.12c6.286,1.555,12.388,7.486,10.036,13.904c-0.262,0.716-0.944,1.194-1.707,1.195
				c-6.836,0.009-10.315-7.756-9.621-14.194C18.202,17.396,18.811,16.968,19.426,17.12z"/>
			<path class="st4" d="M19.426,31.9c6.286,1.555,12.388,7.486,10.036,13.904c-0.262,0.716-0.944,1.194-1.707,1.195
				c-6.836,0.009-10.315-7.756-9.621-14.194C18.202,32.175,18.811,31.748,19.426,31.9z"/>
			<path class="st4" d="M19.427,46.68c6.286,1.555,12.387,7.486,10.035,13.905c-0.263,0.717-0.944,1.193-1.708,1.194
				c-6.836,0.008-10.315-7.758-9.62-14.196C18.202,46.955,18.809,46.527,19.427,46.68z"/>
			<path class="st4" d="M19.429,46.679c-0.613-0.152-1.224,0.274-1.292,0.905c-0.694,6.438,2.785,14.203,9.621,14.194
				c0.763-0.001,1.445-0.478,1.707-1.195C31.817,54.165,25.715,48.234,19.429,46.679z"/>
			<path class="st4" d="M39.538,1.222c0,0.001,0.001,0.003,0.001,0.004c0.982,3.137,3.042,5.826,5.812,7.595
				c7.369,4.707,12.257,12.956,12.257,22.349c0,6.544-2.373,12.532-6.304,17.155c-2.078,2.444-3.216,5.531-3.216,8.739
				c0,0.001,0,0.002,0,0.002c8.446-5.551,14.025-15.104,14.025-25.966C62.113,14.484,49.903,3.861,39.538,1.222z"/>
		</g>
		<g class="st0">
			<path class="st1" d="M61.159,0.998C61.773,1.62,62.08,2.384,62.08,3.27c0,0.886-0.307,1.649-0.921,2.28
				c-0.614,0.623-1.36,0.939-2.246,0.939c-0.869,0-1.605-0.316-2.22-0.939C56.087,4.92,55.78,4.156,55.78,3.27
				c0-0.887,0.308-1.65,0.913-2.272c0.614-0.623,1.351-0.939,2.22-0.939C59.798,0.059,60.545,0.375,61.159,0.998z M60.606,5.051
				c0.465-0.482,0.692-1.079,0.692-1.78c0-0.702-0.228-1.29-0.692-1.772C60.15,1.016,59.588,0.77,58.913,0.77
				c-0.658,0-1.22,0.246-1.676,0.729c-0.447,0.482-0.676,1.07-0.676,1.772c0,0.701,0.229,1.298,0.676,1.78
				c0.456,0.483,1.018,0.729,1.676,0.729C59.588,5.779,60.15,5.534,60.606,5.051z M57.816,2.016c0-0.246,0.122-0.369,0.368-0.369
				h0.965c0.641,0,1.053,0.396,1.053,1.019c0,0.456-0.289,0.763-0.562,0.833v0.018c0.026,0.026,0.062,0.088,0.114,0.185l0.378,0.728
				c0.131,0.255,0.052,0.431-0.185,0.431h-0.114c-0.202,0-0.342-0.088-0.421-0.272l-0.421-0.912h-0.431v0.815
				c0,0.246-0.113,0.369-0.342,0.369h-0.062c-0.229,0-0.342-0.123-0.342-0.369V2.016z M58.561,3.147h0.413
				c0.289,0,0.465-0.176,0.465-0.482c0-0.316-0.149-0.475-0.447-0.475h-0.431V3.147z"/>
		</g>
	</g>
</g>
</svg>
