<?xml version="1.0" encoding="iso-8859-1"?>
<!-- Generator: Adobe Illustrator 19.1.0, SVG Export Plug-In . SVG Version: 6.00 Build 0)  -->
<svg version="1.1" xmlns="http://www.w3.org/2000/svg" xmlns:xlink="http://www.w3.org/1999/xlink" x="0px" y="0px"
	 viewBox="0 0 502.926 61.334" style="enable-background:new 0 0 502.926 61.334;" xml:space="preserve">
<style type="text/css">
	.st0{display:none;}
	.st1{display:inline;fill:#FFFFFF;}
	.st2{display:inline;fill:#009999;}
	.st3{fill:#009999;}
	.st4{fill:#FFFFFF;}
	.st5{display:inline;}
</style>
<g id="Background" class="st0">
	<rect x="-346.763" y="-116.833" class="st1" width="1195.537" height="295"/>
</g>
<g id="Marks">
	<g>
		<g>
			<path class="st3" d="M78.711,20.811c0.24-0.69,0.72-1.02,1.41-1.02h1.92c0.75,0,1.2,0.33,1.41,1.02l6.659,18.84
				c0.09,0.21,0.12,0.39,0.12,0.539c0,0.21-0.06,0.36-0.18,0.511c-0.181,0.27-0.51,0.39-0.96,0.39h-1.38c-0.75,0-1.2-0.33-1.41-1.02
				l-1.5-4.44h-7.47l-1.47,4.41c-0.21,0.689-0.66,1.05-1.41,1.05h-1.38c-0.45,0-0.78-0.12-0.96-0.39
				c-0.12-0.15-0.18-0.301-0.18-0.511c0-0.149,0.029-0.329,0.12-0.539L78.711,20.811z M78.291,32.48h5.55l-1.89-5.7l-0.84-3.3
				h-0.061c-0.33,1.41-0.6,2.49-0.84,3.3L78.291,32.48z"/>
			<path class="st3" d="M90.86,27.05c0-0.84,0.42-1.26,1.26-1.26h1.29c0.84,0,1.261,0.42,1.261,1.26v7.799
				c0,2.04,0.6,3.12,2.369,3.12c1.32,0,2.37-0.51,3.12-1.5c0.78-0.989,1.17-2.22,1.17-3.659v-5.76c0-0.84,0.42-1.26,1.26-1.26h1.29
				c0.84,0,1.26,0.42,1.26,1.26v12.78c0,0.84-0.42,1.26-1.26,1.26h-1.17c-0.81,0-1.229-0.42-1.229-1.26v-0.9l0.06-0.689h-0.06
				c-0.811,1.71-2.88,3.21-5.311,3.21c-3.539,0-5.31-1.95-5.31-5.82V27.05z"/>
			<path class="st3" d="M106.641,39.02c0-0.27,0.09-0.54,0.3-0.84l0.36-0.54c0.271-0.359,0.57-0.54,0.93-0.54
				c0.24,0,0.511,0.091,0.78,0.24c1.29,0.69,2.43,1.05,3.42,1.05c1.32,0,2.13-0.6,2.13-1.56c0-0.87-1.17-1.5-2.7-1.98
				c-2.159-0.689-4.89-1.709-4.89-4.829c0-1.44,0.54-2.55,1.65-3.36c1.109-0.81,2.52-1.23,4.199-1.23c1.5,0,2.91,0.36,4.26,1.11
				c0.42,0.21,0.63,0.54,0.63,0.93c0,0.21-0.06,0.479-0.18,0.75l-0.3,0.54c-0.21,0.449-0.54,0.659-0.96,0.659
				c-0.21,0-0.45-0.06-0.72-0.18c-1.11-0.51-2.07-0.75-2.91-0.75c-1.38,0-2.07,0.51-2.07,1.5c0,0.93,1.2,1.5,2.67,1.98
				c2.13,0.63,4.98,1.739,4.92,4.77c0,1.35-0.54,2.489-1.62,3.39c-1.05,0.87-2.459,1.32-4.199,1.32c-1.86,0-3.57-0.511-5.1-1.561
				C106.851,39.65,106.641,39.35,106.641,39.02z"/>
			<path class="st3" d="M120.561,29.03h-0.81c-0.81,0-1.229-0.42-1.229-1.26v-0.51c0-0.84,0.42-1.26,1.26-1.26h0.87v-3.12
				c0-0.84,0.42-1.26,1.26-1.26h1.199c0.841,0,1.261,0.42,1.261,1.26V26h2.22c0.84,0,1.26,0.42,1.26,1.26v0.51
				c0,0.84-0.42,1.26-1.229,1.26h-2.25v5.939c0,1.71,0.81,2.67,2.46,2.851c0.93,0.09,1.26,0.39,1.26,1.229v0.93
				c0,0.841-0.51,1.261-1.561,1.261c-1.59,0-2.97-0.45-4.169-1.38c-1.2-0.931-1.801-2.341-1.801-4.23V29.03z"/>
			<path class="st3" d="M129.351,27.05c0-0.84,0.42-1.26,1.23-1.26h1.17c0.84,0,1.26,0.42,1.26,1.26v1.44l-0.09,1.05h0.06
				c0.33-1.02,0.9-1.92,1.71-2.7c0.811-0.78,1.74-1.17,2.73-1.17c0.75,0,1.14,0.42,1.14,1.26v1.17c0,0.84-0.42,1.26-1.29,1.26
				c-1.32,0-2.34,0.54-3.06,1.649c-0.721,1.08-1.08,2.37-1.08,3.9v4.92c0,0.84-0.42,1.26-1.23,1.26h-1.319
				c-0.811,0-1.23-0.42-1.23-1.26V27.05z"/>
			<path class="st3" d="M141.201,32.57c1.95-0.69,3.72-0.93,5.729-0.93h0.631v-0.36c0-1.8-0.96-2.7-2.851-2.7
				c-1.05,0-2.1,0.3-3.18,0.87c-0.27,0.12-0.51,0.18-0.72,0.18c-0.42,0-0.75-0.239-0.96-0.689l-0.3-0.57
				c-0.15-0.27-0.21-0.51-0.21-0.72c0-0.39,0.239-0.72,0.689-0.96c1.65-0.84,3.3-1.26,5.01-1.26c3.96,0,6.33,2.25,6.33,6.09v8.31
				c0,0.84-0.42,1.26-1.26,1.26h-1.021c-0.81,0-1.229-0.42-1.229-1.26v-0.601l0.06-0.659h-0.06c-0.09,0.149-0.15,0.33-0.721,1.02
				c-0.72,0.81-2.069,1.86-4.079,1.86c-1.41,0-2.61-0.42-3.601-1.261c-0.989-0.869-1.47-1.979-1.47-3.329
				C137.991,34.73,139.281,33.26,141.201,32.57z M144.081,38.54c1.021,0,1.86-0.42,2.521-1.26c0.659-0.84,0.989-1.771,0.989-2.76
				v-0.57h-0.63c-3.45,0-5.189,0.87-5.189,2.58C141.771,37.61,142.642,38.54,144.081,38.54z"/>
			<path class="st3" d="M153.592,21.051c0-0.84,0.42-1.26,1.229-1.26h1.32c0.81,0,1.229,0.42,1.229,1.26v14.97
				c0,1.14,0.39,1.739,1.2,1.829c0.63,0.061,0.93,0.42,0.93,1.08v1.021c0,0.87-0.42,1.29-1.26,1.29c-1.2,0-2.07-0.181-3.06-0.78
				c-0.99-0.63-1.59-2.07-1.59-4.14V21.051z"/>
			<path class="st3" d="M161.932,23.181c-0.811,0-1.23-0.42-1.23-1.23v-0.9c0-0.84,0.42-1.26,1.23-1.26h1.319
				c0.84,0,1.261,0.42,1.261,1.26v0.9c0,0.81-0.421,1.23-1.261,1.23H161.932z M160.701,27.05c0-0.84,0.42-1.26,1.23-1.26h1.319
				c0.811,0,1.23,0.42,1.23,1.26v12.78c0,0.84-0.42,1.26-1.23,1.26h-1.319c-0.811,0-1.23-0.42-1.23-1.26V27.05z"/>
			<path class="st3" d="M169.011,32.57c1.95-0.69,3.72-0.93,5.729-0.93h0.631v-0.36c0-1.8-0.96-2.7-2.851-2.7
				c-1.05,0-2.1,0.3-3.18,0.87c-0.27,0.12-0.51,0.18-0.72,0.18c-0.42,0-0.75-0.239-0.96-0.689l-0.3-0.57
				c-0.15-0.27-0.21-0.51-0.21-0.72c0-0.39,0.239-0.72,0.689-0.96c1.65-0.84,3.3-1.26,5.01-1.26c3.96,0,6.33,2.25,6.33,6.09v8.31
				c0,0.84-0.42,1.26-1.26,1.26H176.9c-0.81,0-1.229-0.42-1.229-1.26v-0.601l0.06-0.659h-0.06c-0.09,0.149-0.15,0.33-0.721,1.02
				c-0.72,0.81-2.069,1.86-4.079,1.86c-1.41,0-2.61-0.42-3.601-1.261c-0.989-0.869-1.47-1.979-1.47-3.329
				C165.801,34.73,167.091,33.26,169.011,32.57z M171.891,38.54c1.021,0,1.86-0.42,2.521-1.26c0.659-0.84,0.989-1.771,0.989-2.76
				v-0.57h-0.63c-3.449,0-5.189,0.87-5.189,2.58C169.581,37.61,170.451,38.54,171.891,38.54z"/>
			<path class="st3" d="M181.431,27.05c0-0.84,0.42-1.26,1.23-1.26h1.17c0.81,0,1.229,0.42,1.229,1.26v0.93l-0.06,0.689h0.06
				c0.84-1.68,2.67-3.239,5.43-3.239c3.57,0,5.34,1.95,5.34,5.819v8.58c0,0.84-0.42,1.26-1.26,1.26h-1.29
				c-0.84,0-1.26-0.42-1.26-1.26v-7.8c0-2.04-0.6-3.12-2.4-3.12c-1.319,0-2.399,0.48-3.209,1.44c-0.811,0.96-1.2,2.159-1.2,3.569
				v5.91c0,0.84-0.42,1.26-1.23,1.26h-1.319c-0.811,0-1.23-0.42-1.23-1.26V27.05z"/>
			<path class="st3" d="M204.891,21.051c0-0.84,0.42-1.26,1.229-1.26h1.38c0.811,0,1.23,0.42,1.23,1.26V39.83
				c0,0.84-0.42,1.26-1.23,1.26h-1.38c-0.81,0-1.229-0.42-1.229-1.26V21.051z"/>
			<path class="st3" d="M211.58,27.05c0-0.84,0.42-1.26,1.23-1.26h1.17c0.81,0,1.229,0.42,1.229,1.26v0.93l-0.06,0.689h0.06
				c0.84-1.68,2.67-3.239,5.43-3.239c3.57,0,5.34,1.95,5.34,5.819v8.58c0,0.84-0.42,1.26-1.26,1.26h-1.29
				c-0.84,0-1.26-0.42-1.26-1.26v-7.8c0-2.04-0.6-3.12-2.399-3.12c-1.32,0-2.4,0.48-3.21,1.44c-0.811,0.96-1.2,2.159-1.2,3.569v5.91
				c0,0.84-0.42,1.26-1.23,1.26h-1.319c-0.811,0-1.23-0.42-1.23-1.26V27.05z"/>
			<path class="st3" d="M227.301,39.02c0-0.27,0.09-0.54,0.3-0.84l0.36-0.54c0.271-0.359,0.57-0.54,0.93-0.54
				c0.24,0,0.511,0.091,0.78,0.24c1.29,0.69,2.43,1.05,3.42,1.05c1.32,0,2.13-0.6,2.13-1.56c0-0.87-1.17-1.5-2.7-1.98
				c-2.159-0.689-4.89-1.709-4.89-4.829c0-1.44,0.54-2.55,1.65-3.36c1.109-0.81,2.52-1.23,4.199-1.23c1.5,0,2.91,0.36,4.26,1.11
				c0.42,0.21,0.63,0.54,0.63,0.93c0,0.21-0.06,0.479-0.18,0.75l-0.3,0.54c-0.21,0.449-0.54,0.659-0.96,0.659
				c-0.21,0-0.45-0.06-0.72-0.18c-1.11-0.51-2.07-0.75-2.91-0.75c-1.38,0-2.07,0.51-2.07,1.5c0,0.93,1.2,1.5,2.67,1.98
				c2.13,0.63,4.98,1.739,4.92,4.77c0,1.35-0.54,2.489-1.62,3.39c-1.05,0.87-2.459,1.32-4.199,1.32c-1.86,0-3.57-0.511-5.1-1.561
				C227.511,39.65,227.301,39.35,227.301,39.02z"/>
			<path class="st3" d="M241.221,29.03h-0.81c-0.81,0-1.229-0.42-1.229-1.26v-0.51c0-0.84,0.42-1.26,1.26-1.26h0.87v-3.12
				c0-0.84,0.42-1.26,1.26-1.26h1.199c0.841,0,1.261,0.42,1.261,1.26V26h2.22c0.84,0,1.26,0.42,1.26,1.26v0.51
				c0,0.84-0.42,1.26-1.229,1.26h-2.25v5.939c0,1.71,0.81,2.67,2.46,2.851c0.93,0.09,1.26,0.39,1.26,1.229v0.93
				c0,0.841-0.51,1.261-1.561,1.261c-1.59,0-2.97-0.45-4.169-1.38c-1.2-0.931-1.801-2.341-1.801-4.23V29.03z"/>
			<path class="st3" d="M251.241,23.181c-0.811,0-1.23-0.42-1.23-1.23v-0.9c0-0.84,0.42-1.26,1.23-1.26h1.319
				c0.841,0,1.261,0.42,1.261,1.26v0.9c0,0.81-0.42,1.23-1.261,1.23H251.241z M250.011,27.05c0-0.84,0.42-1.26,1.23-1.26h1.319
				c0.811,0,1.23,0.42,1.23,1.26v12.78c0,0.84-0.42,1.26-1.23,1.26h-1.319c-0.811,0-1.23-0.42-1.23-1.26V27.05z"/>
			<path class="st3" d="M257.121,29.03h-0.81c-0.81,0-1.23-0.42-1.23-1.26v-0.51c0-0.84,0.42-1.26,1.26-1.26h0.87v-3.12
				c0-0.84,0.42-1.26,1.26-1.26h1.2c0.84,0,1.26,0.42,1.26,1.26V26h2.22c0.84,0,1.26,0.42,1.26,1.26v0.51
				c0,0.84-0.42,1.26-1.23,1.26h-2.25v5.939c0,1.71,0.81,2.67,2.46,2.851c0.93,0.09,1.26,0.39,1.26,1.229v0.93
				c0,0.841-0.51,1.261-1.561,1.261c-1.59,0-2.97-0.45-4.169-1.38c-1.2-0.931-1.801-2.341-1.801-4.23V29.03z"/>
			<path class="st3" d="M265.701,27.05c0-0.84,0.42-1.26,1.26-1.26h1.29c0.84,0,1.261,0.42,1.261,1.26v7.799
				c0,2.04,0.6,3.12,2.369,3.12c1.32,0,2.37-0.51,3.12-1.5c0.78-0.989,1.17-2.22,1.17-3.659v-5.76c0-0.84,0.42-1.26,1.26-1.26h1.29
				c0.84,0,1.26,0.42,1.26,1.26v12.78c0,0.84-0.42,1.26-1.26,1.26h-1.17c-0.81,0-1.229-0.42-1.229-1.26v-0.9l0.06-0.689h-0.06
				c-0.811,1.71-2.88,3.21-5.311,3.21c-3.539,0-5.31-1.95-5.31-5.82V27.05z"/>
			<path class="st3" d="M283.28,29.03h-0.81c-0.81,0-1.229-0.42-1.229-1.26v-0.51c0-0.84,0.42-1.26,1.26-1.26h0.87v-3.12
				c0-0.84,0.42-1.26,1.26-1.26h1.199c0.841,0,1.261,0.42,1.261,1.26V26h2.22c0.84,0,1.26,0.42,1.26,1.26v0.51
				c0,0.84-0.42,1.26-1.229,1.26h-2.25v5.939c0,1.71,0.81,2.67,2.46,2.851c0.93,0.09,1.26,0.39,1.26,1.229v0.93
				c0,0.841-0.51,1.261-1.561,1.261c-1.59,0-2.97-0.45-4.169-1.38c-1.2-0.931-1.801-2.341-1.801-4.23V29.03z"/>
			<path class="st3" d="M293.18,27.681c1.439-1.5,3.3-2.25,5.609-2.25c2.13,0,3.78,0.69,4.979,2.04c1.2,1.35,1.801,3.09,1.801,5.249
				c0,0.69-0.601,1.29-1.32,1.29h-9.33c0.24,2.641,2.16,4.2,4.59,4.2c1.141,0,2.25-0.33,3.3-0.99c0.271-0.12,0.54-0.18,0.75-0.18
				c0.391,0,0.69,0.21,0.931,0.6l0.359,0.601c0.15,0.27,0.21,0.51,0.21,0.72c0,0.39-0.21,0.69-0.63,0.96
				c-1.59,1.02-3.33,1.53-5.189,1.53c-2.46,0-4.439-0.78-5.97-2.311c-1.5-1.56-2.25-3.449-2.25-5.699
				C291.02,31.07,291.74,29.15,293.18,27.681z M301.79,31.7c-0.03-2.07-1.32-3.39-3.09-3.39c-1.92,0-3.33,1.319-3.689,3.39H301.79z"
				/>
			<path class="st3" d="M326.66,39.2c-1.62,1.5-3.601,2.25-5.97,2.25c-2.37,0-4.351-0.75-5.97-2.25
				c-1.62-1.53-2.431-3.45-2.431-5.76c0-2.311,0.811-4.23,2.431-5.73c1.619-1.529,3.6-2.279,5.97-2.279
				c2.369,0,4.35,0.75,5.97,2.279c1.649,1.53,2.459,3.42,2.459,5.73C329.119,35.75,328.309,37.67,326.66,39.2z M317.45,36.89
				c0.87,0.87,1.95,1.32,3.24,1.32c1.289,0,2.369-0.45,3.239-1.32c0.87-0.899,1.32-2.04,1.32-3.449c0-1.38-0.45-2.521-1.351-3.42
				c-0.869-0.9-1.949-1.351-3.209-1.351c-1.261,0-2.341,0.45-3.21,1.351c-0.87,0.899-1.32,2.04-1.32,3.42
				C316.16,34.85,316.58,35.99,317.45,36.89z"/>
			<path class="st3" d="M331.311,29.03h-0.75c-0.811,0-1.23-0.42-1.23-1.26v-0.51c0-0.84,0.42-1.26,1.23-1.26h0.75v-0.72
				c0-1.83,0.72-3.33,1.59-4.08c1.5-1.23,3.239-1.53,4.26-1.53h0.45c0.81,0,1.229,0.42,1.229,1.26v0.78c0,0.75-0.42,1.17-1.29,1.23
				c-0.6,0.03-0.96,0.09-1.56,0.42c-0.57,0.33-0.87,1.02-0.87,2.07V26h2.04c0.81,0,1.229,0.42,1.229,1.26v0.51
				c0,0.84-0.42,1.26-1.229,1.26h-2.04v10.8c0,0.84-0.42,1.26-1.26,1.26h-1.32c-0.81,0-1.229-0.42-1.229-1.26V29.03z"/>
			<path class="st3" d="M346.13,21.051c0-0.84,0.42-1.26,1.229-1.26h9.75c0.84,0,1.26,0.42,1.26,1.26v0.84
				c0,0.81-0.42,1.23-1.26,1.23h-7.14v6.03h5.819c0.841,0,1.261,0.42,1.261,1.229v0.841c0,0.84-0.42,1.26-1.261,1.26h-5.819v7.35
				c0,0.84-0.42,1.26-1.23,1.26h-1.38c-0.81,0-1.229-0.42-1.229-1.26V21.051z"/>
			<path class="st3" d="M372.679,39.2c-1.62,1.5-3.601,2.25-5.97,2.25c-2.37,0-4.351-0.75-5.97-2.25
				c-1.62-1.53-2.431-3.45-2.431-5.76c0-2.311,0.811-4.23,2.431-5.73c1.619-1.529,3.6-2.279,5.97-2.279
				c2.369,0,4.35,0.75,5.97,2.279c1.649,1.53,2.459,3.42,2.459,5.73C375.138,35.75,374.329,37.67,372.679,39.2z M363.469,36.89
				c0.87,0.87,1.95,1.32,3.24,1.32c1.289,0,2.369-0.45,3.239-1.32c0.87-0.899,1.32-2.04,1.32-3.449c0-1.38-0.45-2.521-1.351-3.42
				c-0.869-0.9-1.949-1.351-3.209-1.351c-1.261,0-2.341,0.45-3.21,1.351c-0.87,0.899-1.32,2.04-1.32,3.42
				C362.179,34.85,362.599,35.99,363.469,36.89z"/>
			<path class="st3" d="M390.049,39.2c-1.62,1.5-3.601,2.25-5.97,2.25c-2.37,0-4.351-0.75-5.971-2.25
				c-1.619-1.53-2.43-3.45-2.43-5.76c0-2.311,0.811-4.23,2.43-5.73c1.62-1.529,3.601-2.279,5.971-2.279
				c2.369,0,4.35,0.75,5.97,2.279c1.649,1.53,2.46,3.42,2.46,5.73C392.509,35.75,391.699,37.67,390.049,39.2z M380.839,36.89
				c0.87,0.87,1.95,1.32,3.24,1.32c1.289,0,2.369-0.45,3.239-1.32c0.87-0.899,1.32-2.04,1.32-3.449c0-1.38-0.45-2.521-1.351-3.42
				c-0.869-0.9-1.949-1.351-3.209-1.351c-1.261,0-2.341,0.45-3.21,1.351c-0.87,0.899-1.32,2.04-1.32,3.42
				C379.549,34.85,379.969,35.99,380.839,36.89z"/>
			<path class="st3" d="M395.03,27.65c1.29-1.47,2.97-2.22,5.01-2.22c2.609,0,4.02,1.35,4.319,1.979l0.15,0.21h0.06
				c-0.029-0.27-0.06-0.54-0.06-0.87v-5.7c0-0.84,0.42-1.26,1.229-1.26h1.32c0.81,0,1.229,0.42,1.229,1.26V39.83
				c0,0.84-0.42,1.26-1.229,1.26h-1.11c-0.81,0-1.229-0.39-1.229-1.14V39.35l0.06-0.54h-0.06c-0.09,0.15-0.12,0.301-0.69,0.931
				c-0.659,0.779-2.01,1.71-4.109,1.71c-2.07,0-3.72-0.75-4.95-2.221c-1.229-1.47-1.859-3.419-1.859-5.789
				C393.11,31.04,393.74,29.12,395.03,27.65z M400.759,38.24c2.16,0,3.84-1.62,3.84-4.83c0-1.29-0.33-2.37-0.99-3.3
				s-1.59-1.41-2.819-1.41c-2.16,0-3.84,1.83-3.84,4.74C396.95,36.32,398.479,38.24,400.759,38.24z"/>
			<path class="st3" d="M416.33,38.36c0-0.271,0.12-0.54,0.33-0.811l0.659-0.96c0.24-0.33,0.54-0.51,0.9-0.51
				c0.271,0,0.54,0.09,0.84,0.24c1.5,1.05,2.94,1.56,4.32,1.56c1.949,0,3.18-0.99,3.18-2.43c0-4.05-9.93-3.21-9.93-9.84
				c0-1.83,0.689-3.33,2.04-4.47c1.35-1.14,3.06-1.71,5.13-1.71c2.279,0,4.38,0.81,5.489,1.62c0.391,0.27,0.601,0.6,0.601,0.99
				c0,0.21-0.061,0.45-0.21,0.72l-0.54,0.99c-0.21,0.45-0.54,0.66-0.931,0.66c-0.21,0-0.479-0.09-0.779-0.24
				c-1.351-0.78-2.58-1.17-3.69-1.17c-0.989,0-1.77,0.21-2.37,0.66c-0.569,0.45-0.869,1.02-0.869,1.74c0,0.72,0.33,1.35,1.02,1.86
				c1.35,1.05,3.45,1.71,5.399,2.67c1.95,0.93,3.511,2.699,3.511,5.22c0,1.8-0.631,3.3-1.92,4.5c-1.261,1.199-2.971,1.8-5.13,1.8
				c-2.67,0-5.13-1.08-6.54-2.16C416.509,39.02,416.33,38.689,416.33,38.36z"/>
			<path class="st3" d="M434.239,32.57c1.95-0.69,3.72-0.93,5.729-0.93h0.631v-0.36c0-1.8-0.96-2.7-2.851-2.7
				c-1.05,0-2.1,0.3-3.18,0.87c-0.27,0.12-0.51,0.18-0.72,0.18c-0.42,0-0.75-0.239-0.96-0.689l-0.3-0.57
				c-0.15-0.27-0.21-0.51-0.21-0.72c0-0.39,0.239-0.72,0.689-0.96c1.65-0.84,3.3-1.26,5.01-1.26c3.96,0,6.33,2.25,6.33,6.09v8.31
				c0,0.84-0.42,1.26-1.26,1.26h-1.021c-0.81,0-1.229-0.42-1.229-1.26v-0.601l0.06-0.659h-0.06c-0.09,0.149-0.15,0.33-0.721,1.02
				c-0.72,0.81-2.069,1.86-4.079,1.86c-1.41,0-2.61-0.42-3.601-1.261c-0.989-0.869-1.47-1.979-1.47-3.329
				C431.029,34.73,432.319,33.26,434.239,32.57z M437.119,38.54c1.021,0,1.86-0.42,2.521-1.26c0.659-0.84,0.989-1.771,0.989-2.76
				v-0.57h-0.63c-3.45,0-5.189,0.87-5.189,2.58C434.809,37.61,435.679,38.54,437.119,38.54z"/>
			<path class="st3" d="M447.349,29.03h-0.75c-0.811,0-1.23-0.42-1.23-1.26v-0.51c0-0.84,0.42-1.26,1.23-1.26h0.75v-0.72
				c0-1.83,0.72-3.33,1.59-4.08c1.5-1.23,3.239-1.53,4.26-1.53h0.45c0.81,0,1.229,0.42,1.229,1.26v0.78c0,0.75-0.42,1.17-1.29,1.23
				c-0.6,0.03-0.96,0.09-1.56,0.42c-0.57,0.33-0.87,1.02-0.87,2.07V26h2.04c0.81,0,1.229,0.42,1.229,1.26v0.51
				c0,0.84-0.42,1.26-1.229,1.26h-2.04v10.8c0,0.84-0.42,1.26-1.26,1.26h-1.32c-0.81,0-1.229-0.42-1.229-1.26V29.03z"/>
			<path class="st3" d="M456.319,27.681c1.439-1.5,3.3-2.25,5.609-2.25c2.13,0,3.78,0.69,4.979,2.04
				c1.2,1.35,1.801,3.09,1.801,5.249c0,0.69-0.601,1.29-1.32,1.29h-9.33c0.24,2.641,2.16,4.2,4.59,4.2c1.141,0,2.25-0.33,3.3-0.99
				c0.271-0.12,0.54-0.18,0.75-0.18c0.391,0,0.69,0.21,0.931,0.6l0.359,0.601c0.15,0.27,0.21,0.51,0.21,0.72
				c0,0.39-0.21,0.69-0.63,0.96c-1.59,1.02-3.33,1.53-5.189,1.53c-2.46,0-4.439-0.78-5.97-2.311c-1.5-1.56-2.25-3.449-2.25-5.699
				C454.159,31.07,454.878,29.15,456.319,27.681z M464.928,31.7c-0.03-2.07-1.32-3.39-3.09-3.39c-1.92,0-3.33,1.319-3.689,3.39
				H464.928z"/>
			<path class="st3" d="M470.928,29.03h-0.81c-0.81,0-1.229-0.42-1.229-1.26v-0.51c0-0.84,0.42-1.26,1.26-1.26h0.87v-3.12
				c0-0.84,0.42-1.26,1.26-1.26h1.199c0.841,0,1.261,0.42,1.261,1.26V26h2.22c0.84,0,1.26,0.42,1.26,1.26v0.51
				c0,0.84-0.42,1.26-1.229,1.26h-2.25v5.939c0,1.71,0.81,2.67,2.46,2.851c0.93,0.09,1.26,0.39,1.26,1.229v0.93
				c0,0.841-0.51,1.261-1.561,1.261c-1.59,0-2.97-0.45-4.169-1.38c-1.2-0.931-1.801-2.341-1.801-4.23V29.03z"/>
			<path class="st3" d="M479.149,44.66c0.21-0.48,0.57-0.721,1.021-0.721c0.09,0,0.21,0,0.33,0.03c0.39,0.18,0.75,0.27,1.079,0.27
				c1.051,0,1.95-0.869,2.431-2.039l0.569-1.351l-5.819-13.589c-0.09-0.24-0.15-0.45-0.15-0.63c0-0.15,0.03-0.3,0.12-0.42
				c0.181-0.27,0.51-0.42,0.99-0.42h1.62c0.689,0,1.17,0.33,1.41,1.02l2.879,7.8l0.57,2.069h0.061c0.18-0.81,0.359-1.47,0.51-2.01
				l2.699-7.83c0.211-0.69,0.66-1.05,1.41-1.05h1.5c0.45,0,0.78,0.12,0.99,0.39c0.09,0.15,0.15,0.3,0.15,0.51
				c0,0.15-0.03,0.33-0.12,0.54l-6.3,16.14c-0.99,2.67-3.12,4.02-5.521,4.02c-0.63,0-1.35-0.15-2.13-0.45
				c-0.359-0.149-0.6-0.359-0.689-0.66c-0.03-0.09-0.061-0.21-0.061-0.33c0-0.21,0.061-0.42,0.181-0.63L479.149,44.66z"/>
		</g>
		<g>
			<path class="st3" d="M502.006,20.756c0.613,0.622,0.92,1.384,0.92,2.269c0,0.885-0.307,1.646-0.92,2.277
				c-0.612,0.622-1.357,0.937-2.242,0.937c-0.866,0-1.603-0.315-2.216-0.937c-0.604-0.631-0.91-1.393-0.91-2.277
				c0-0.884,0.307-1.646,0.91-2.269c0.613-0.622,1.35-0.937,2.216-0.937C500.649,19.819,501.394,20.135,502.006,20.756z
				 M501.455,24.803c0.465-0.481,0.692-1.077,0.692-1.778s-0.228-1.288-0.692-1.769c-0.455-0.482-1.016-0.727-1.69-0.727
				c-0.656,0-1.217,0.245-1.673,0.727c-0.446,0.481-0.674,1.068-0.674,1.769s0.228,1.296,0.674,1.778
				c0.456,0.482,1.017,0.727,1.673,0.727C500.439,25.53,501,25.285,501.455,24.803z M498.669,21.772
				c0-0.245,0.123-0.368,0.368-0.368h0.964c0.639,0,1.051,0.394,1.051,1.016c0,0.455-0.289,0.762-0.561,0.832v0.017
				c0.026,0.026,0.062,0.088,0.113,0.184l0.377,0.727c0.132,0.254,0.053,0.429-0.184,0.429h-0.114c-0.201,0-0.342-0.088-0.42-0.271
				l-0.421-0.911h-0.429v0.814c0,0.246-0.114,0.368-0.342,0.368h-0.062c-0.228,0-0.342-0.123-0.342-0.368V21.772z M499.415,22.902
				h0.411c0.289,0,0.465-0.175,0.465-0.481c0-0.315-0.149-0.473-0.447-0.473h-0.429V22.902z"/>
		</g>
		<g>
			<path class="st3" d="M16.641,8.758c2.75-1.757,4.795-4.427,5.77-7.541c0-0.001,0.001-0.003,0.001-0.004
				C12.122,3.833,0,14.38,0,30.876C0,41.66,5.539,51.145,13.925,56.656c0,0,0-0.001,0-0.002c0-3.185-1.13-6.25-3.193-8.676
				c-3.903-4.59-6.258-10.535-6.258-17.032C4.473,21.621,9.325,13.431,16.641,8.758z"/>
			<path class="st3" d="M31.604,0.348c-0.415-0.466-1.143-0.461-1.553-0.001c-4.842,5.441-6.679,14.927-0.232,19.255
				c0.609,0.409,1.406,0.409,2.016,0C38.281,15.274,36.445,5.789,31.604,0.348z"/>
			<path class="st3" d="M42.368,16.997c-6.241,1.543-12.299,7.432-9.964,13.804c0.261,0.711,0.937,1.185,1.695,1.186
				c6.787,0.009,10.241-7.701,9.552-14.092C43.583,17.271,42.978,16.846,42.368,16.997z"/>
			<path class="st3" d="M42.368,31.67c-6.241,1.543-12.299,7.432-9.964,13.804c0.261,0.711,0.937,1.185,1.695,1.186
				c6.787,0.009,10.241-7.701,9.552-14.092C43.583,31.944,42.978,31.519,42.368,31.67z"/>
			<path class="st3" d="M42.366,46.344c-6.241,1.544-12.298,7.432-9.963,13.805c0.261,0.711,0.938,1.185,1.695,1.185
				c6.787,0.008,10.241-7.702,9.551-14.094C43.583,46.618,42.979,46.192,42.366,46.344z"/>
			<path class="st3" d="M19.286,16.997c6.241,1.543,12.299,7.432,9.964,13.804c-0.261,0.711-0.937,1.185-1.695,1.186
				c-6.787,0.009-10.241-7.701-9.552-14.092C18.071,17.271,18.676,16.846,19.286,16.997z"/>
			<path class="st3" d="M19.286,31.67c6.241,1.543,12.299,7.432,9.964,13.804c-0.261,0.711-0.937,1.185-1.695,1.186
				c-6.787,0.009-10.241-7.701-9.552-14.092C18.071,31.944,18.676,31.519,19.286,31.67z"/>
			<path class="st3" d="M19.287,46.344c6.241,1.544,12.298,7.432,9.963,13.805c-0.261,0.711-0.938,1.185-1.695,1.185
				c-6.787,0.008-10.241-7.702-9.551-14.094C18.071,46.618,18.674,46.192,19.287,46.344z"/>
			<path class="st3" d="M19.289,46.343c-0.609-0.15-1.215,0.272-1.282,0.898c-0.69,6.392,2.765,14.101,9.552,14.092
				c0.757-0.001,1.434-0.475,1.695-1.186C31.588,53.775,25.53,47.887,19.289,46.343z"/>
			<path class="st3" d="M39.253,1.213c0,0.001,0.001,0.003,0.001,0.004c0.975,3.114,3.02,5.784,5.77,7.541
				c7.316,4.673,12.168,12.863,12.168,22.188c0,6.497-2.356,12.442-6.258,17.032c-2.063,2.426-3.193,5.491-3.193,8.676
				c0,0.001,0,0.002,0,0.002c8.385-5.511,13.925-14.996,13.925-25.779C61.666,14.38,49.544,3.833,39.253,1.213z"/>
		</g>
	</g>
</g>
</svg>
