<svg xmlns="http://www.w3.org/2000/svg" viewBox="0 0 1507.57 717.01"><defs><style>.cls-1{fill:#fff;}</style></defs><title>ozharvest</title><g id="Layer_2" data-name="Layer 2"><g id="Layer_1-2" data-name="Layer 1"><path d="M1507.57,419c-2.74,1.82-6,3.16-8.11,5.55-4.48,5.11-8.35,10.75-12.45,16.2-1.23,1.64-1.52,3.33.09,4.92s3.35,1,4.86-.29c4.34-3.61,8.64-7.27,13.6-11.47-3,13.24-6.44,25.46-14.94,35.52a28.27,28.27,0,0,1-6.9,5.68c-6.47,3.93-13.18,2.29-16.42-4.49a48.67,48.67,0,0,1-4.5-14.62,273.48,273.48,0,0,1-2.14-29.3c-.3-17-.46-34,.2-50.93.41-10.55,2.37-21,3.8-31.54a19.07,19.07,0,0,1,2-5.58c3.24-6.63,9.05-8.9,15.76-5.76a25.86,25.86,0,0,1,7.56,5.54c5.11,5.37,8.24,12,10.75,18.91.62,1.71.4,2.57-1.19,3.59-8.64,5.57-14,14.07-19.55,22.34-1.08,1.59-2,3.29-.18,4.87s3.65,1.15,5.38-.35c4.65-4,9.33-8,14-12.06,1.62-1.41,3.15-2.92,5.21-4.84l3.17,11.12v4c-6,2.35-10,7.06-13.68,12-3.09,4.13-6.27,8.2-9.06,12.52a4.34,4.34,0,0,0,.44,4.2c.84.75,2.91.46,4.32.11,1-.26,1.87-1.33,2.77-2.08q7.62-6.38,15.22-12.78Z"/><path class="cls-1" d="M1507.57,400q-7.61,6.39-15.22,12.78c-.89.75-1.74,1.82-2.77,2.08-1.4.35-3.48.64-4.32-.11a4.34,4.34,0,0,1-.44-4.2c2.79-4.32,6-8.4,9.06-12.52,3.71-5,7.67-9.67,13.68-12Z"/><path d="M127.57,0,124.1,4.3l0,0L125.57,0Z"/><path d="M1209.13,717c-53.06,1.74-101.72-43.72-100.68-102.65.9-50.92,42.53-96.83,100.26-96.75,56,.08,100.52,43.66,100.58,99.24C1309.36,677,1258.79,718.55,1209.13,717Zm-37.66-100c-.06,20.53,17.49,38.36,37.66,38.26,20-.1,37.38-17.4,37.47-37.29a37.41,37.41,0,0,0-37.31-37.58C1188.86,580.19,1171.54,597,1171.48,617Z"/><path d="M207.91,717c-51.68,1.55-100.39-41.85-100.34-100.45,0-55.58,44.1-99,100.53-98.93,55.94,0,100.1,44,100.24,99.5C308.5,674.69,259.6,718.64,207.91,717Zm37.68-99.59c.9-17-13.92-36.73-37.28-37-20.5-.23-37.7,16.58-37.7,36.67,0,20.61,17.49,38.28,37.71,38.18C226.63,655.12,246,639.31,245.59,617.37Z"/><path d="M288.83,316.82a69.28,69.28,0,0,1-69.63,69.92c-41.31.14-70.72-33-70.45-71.25.25-36.78,30.69-68.23,70.2-68.14C257.77,247.44,289.16,278.14,288.83,316.82ZM219.08,291.1c-14.28,0-26.29,11.82-26.25,25.82,0,12.08,9.59,26.66,26.26,26.63,14.1,0,25.82-11,26.36-26.61C245.92,303.16,233.22,291.11,219.08,291.1Z"/><path d="M541.74,317q0,20.74,0,41.49c0,5.39-.73,10.62-3.55,15.37-5,8.33-14.33,12.21-24.1,9.83A19.94,19.94,0,0,1,498.5,364.2c0-7.49-.4-15-.34-22.47,0-3.22-1-4.5-4.28-4.41-6.16.16-12.33.15-18.49,0-3-.07-4,.93-4,4-.05,8.15-.14,16.32-.9,24.42-1,11-10.5,18.73-21.73,18.48s-20.11-8.12-21.17-19.19c-.4-4.13-.65-8.3-.66-12.45q-.09-37.24,0-74.48a86.29,86.29,0,0,1,.64-10,21.06,21.06,0,0,1,20.7-18.6c12.43-.31,21.84,8.48,22.38,17.78.47,8,.58,16,.81,23.94.13,4.38.09,4.43,4.44,4.47q8.75.08,17.5,0c4.56,0,4.61-.14,4.71-4.87.15-7.16.18-14.32.46-21.47.43-11,8.13-18.8,19.26-19.79s20.72,5.81,22.83,16.47a56.18,56.18,0,0,1,1,10.39C541.81,290,541.74,303.5,541.74,317Z"/><path d="M48.87,116c8.06,1,16.19,1.57,24.17,3,6.12,1.11,10,10.37,7.13,15.87a3.21,3.21,0,0,1-1.29,1.48c-6.3,2.73-4.64,8-3.33,12.38,2.54,8.55,6,16.83,8.73,25.33a29.8,29.8,0,0,1,1.24,9.35c-.28,22.81-.78,45.63-1.08,68.44-.15,11.54-3.47,22.29-8.28,32.54-3.48,7.41-10.7,10.35-18.2,11.77A49.48,49.48,0,0,1,31.84,294a21.42,21.42,0,0,1-14-14.5,111.08,111.08,0,0,1-5.6-31.75c-.26-17-.82-33.95-1.55-50.91-.69-16,4.42-30.75,9.44-45.54a33.65,33.65,0,0,0,1.62-6.73c.39-3.22.34-6.43-3.65-7.72a3.39,3.39,0,0,1-1.41-1.36c-2.65-3.82,0-14.18,4.58-15.33,6.7-1.7,13.66-2.44,20.53-3.4a51,51,0,0,1,7-.05Z"/><path d="M743.28,346.19c0,5.74.15,11.48,0,17.21-.27,8.08-3.84,14.5-11,18.35-11.77,6.32-31.76,1.54-32.53-20.32-.41-11.65-.08-23.32-.08-35,0-18-.06-36,0-54,.05-10.33,5.82-18.14,15.4-20.79a33.54,33.54,0,0,1,8.85-1c10.65,0,21.3.22,32,.34,21.87.25,40.13,16.78,44.37,37.58,2.78,13.65,0,26.1-8,37.41-.29.41-.66.75-1,1.15-3.89,5.11-3.89,5.12-.6,10.53,2.6,4.26,5.42,8.41,7.77,12.81,4.1,7.68,4.55,15.53.27,23.39-7.33,13.46-28.84,14.09-36.78.86-4-6.7-8-13.44-12-20.14-1.76-2.93-3.59-5.81-5.39-8.71Zm-1.18-47.95c0,10.55,1.71,11.8,12.12,8.86a13.22,13.22,0,0,0,1.45-.35,7.73,7.73,0,0,0,5.23-7.17c.4-6.49-3.6-10.18-11.58-10.54-7.21-.32-7.21-.32-7.22,6.71Q742.1,297,742.1,298.25Z"/><path d="M357.8,383.12c-12.49,0-25,.13-37.46,0-16.78-.22-24.71-18-16.31-32,3.86-6.4,8.52-12.3,12.82-18.43q13.17-18.8,26.3-37.62a18.13,18.13,0,0,0,1.47-3.45,22.69,22.69,0,0,0-3.78-.67c-6-.07-12,.08-18-.09a37.07,37.07,0,0,1-8.37-1.09c-9.16-2.41-14.54-10.53-13.82-20.48.7-9.66,7.51-17.13,16.75-18.27a53.45,53.45,0,0,1,6.47-.43c20.48,0,41-.08,61.45,0A45.48,45.48,0,0,1,396.13,252c10.62,2.69,18.75,17.12,10.86,29-5.06,7.62-10.25,15.15-15.49,22.64-8,11.44-16.14,22.81-24.17,34.24a24.52,24.52,0,0,0-1.71,3.45,21.51,21.51,0,0,0,4.1.92c8.32.24,16.66,0,24.95.62a19.42,19.42,0,0,1,17.81,17.31c.89,11-4.53,19.67-14.33,22.18a46.44,46.44,0,0,1-10.87.93c-9.82.12-19.65,0-29.48,0Z"/><path d="M661.28,384.27c-7.81.61-13.73-5.34-17.6-13.35-2.07-4.27-4.62-5.12-8.83-5-10.15.25-20.32.16-30.48,0-2.8,0-4.82.47-5.72,3.44a21.64,21.64,0,0,1-1.88,3.51c-6.41,12.17-18.69,13.29-28.24,9.58-10-3.86-15.19-16.14-11.28-27.23,2.8-7.95,6.68-15.53,10.28-23.18q15.48-32.93,31.12-65.79c.78-1.65,1.49-3.35,2.34-5,4.1-7.81,10.72-11.64,19.41-11.71s15.66,3.54,19.53,11.44c8.33,17,16.34,34.19,24.42,51.33,6.38,13.52,12.81,27,19,40.63C690.24,368.15,680,384.14,661.28,384.27ZM621,311.19l-1.29-.09-9.57,22.94h18c2.35,0,2.34-1.35,1.63-3Q625.47,321.12,621,311.19Z"/><path d="M871.4,631.66c-11.28.53-21.23-2.83-31.19-6.14-16.22-5.4-32.41-10.91-48.67-16.22a15.93,15.93,0,0,0-6.79-.54c-22.79,3-45.6,5.75-68.64,5.06-5.78-.17-11.53-1.3-17.29-2a6,6,0,0,1-5.46-5c-1.84-7.62-1.71-15.1,1.28-22.45a6.47,6.47,0,0,1,6.54-4.46c10.3.18,20.62.13,30.9.69,17.1.93,34.19,2.19,51.27,3.47a25,25,0,0,0,15.6-4.14c4.64-2.93,9.12-6.1,13.73-9.08a137.91,137.91,0,0,1,52.62-20.39c8.35-1.39,17-1.42,25,2.22,13.41,6.08,20.68,16.68,22.41,31.24a52.14,52.14,0,0,1-1.94,21.66c-5.13,16.81-16.29,24.36-34.43,26.1A47.24,47.24,0,0,1,871.4,631.66ZM709.68,589.94c-4,0-7.8,3.24-7.89,6.75-.09,3.73,3.93,7.31,8,7.16,3.88-.14,7.78-3.7,7.75-7.08S713.61,590,709.68,589.94Z"/><path d="M1106,247.4c13.23.16,24.5,2.53,34,10.11,6.32,5,9.78,11.72,9.46,20-.46,11.82-10.23,19.39-21.69,16.07-5.13-1.49-9.72-4.9-14.51-7.5-1.88-1-3.57-2.42-5.51-3.3-2.89-1.31-5.61-.4-6.87,2a5.26,5.26,0,0,0,2.14,7.27c3.19,1.71,6.68,2.87,10,4.31,7,3,14.13,5.83,21,9.17,16.71,8.12,22,26.76,20.63,40.13-2.25,21.54-15,35.94-36.34,40a70.79,70.79,0,0,1-42.46-4.76,37,37,0,0,1-18.18-16.47c-3.86-7.2-4.27-14.66.27-21.79,4.18-6.56,10.33-9.74,18.12-9.42,5.18.21,9.5,2.53,13.53,5.7a111.45,111.45,0,0,0,11.83,8.26,5.47,5.47,0,0,0,7.53-1.54,6.2,6.2,0,0,0-1.18-8.13,17.71,17.71,0,0,0-4.61-2.9c-2.9-1.26-5.92-2.23-8.89-3.32-3.59-1.32-7.17-2.64-10.76-3.94-25.57-9.28-29.9-35.39-21.61-54.25,6.84-15.57,19.84-22.63,35.93-25C1101,247.51,1104.18,247.52,1106,247.4Z"/><path d="M1400.39,564.61q1.46-27.66,2.92-55.32c.81-16,1.56-31.9,2.34-47.86.71-14.62,1.37-29.25,2.19-43.86.14-2.52-.3-4.11-2.94-4.85-17.1-4.78-24.93-17.14-26-33.86-1.3-20.46,3.73-39.29,17.87-54.86,5.53-6.09,12.06-10.38,20.86-10,6.92.32,12.45,3.49,17.15,8.15,10.13,10.05,15.83,22.51,18.62,36.31,1.93,9.53,2.34,19.23-.12,28.7-3.45,13.31-11.87,22.14-25.33,25.6-3.43.88-4.28,2.17-4,5.74,1.21,17.94,2,35.9,3,53.85q2,36.65,4.16,73.3c.49,8.64,1,17.28,1.37,25.93.28,7-5.7,15.93-12.18,18.62a10.35,10.35,0,0,1-10-.89c-6.59-4.26-10.4-10.17-10.08-18.27.08-2.16.33-4.31.5-6.46Z"/><path d="M479.24,582.57c-.9,8.08-1.55,16.19-2.77,24.21-.9,5.95-5.91,9.12-11.59,7.8a8.59,8.59,0,0,1-3.62-2.34c-1.12-1.08-1.73-3.29-2.9-3.57a12.4,12.4,0,0,0-6.84.22c-7.58,2.82-14.83,6.69-22.56,8.92-5.78,1.66-12.11,1.88-18.2,1.9-10.81,0-21.63-.44-32.43-1-9.29-.44-18.72-.36-27.78-2.12-6.66-1.3-13.24-4.52-19.07-8.14-5.25-3.25-7-9.44-8.08-15.47-1.8-10.52-1.19-20.83,2.9-30.8a18,18,0,0,1,10.85-10.34c9.87-3.71,19.92-6,30.59-6,12.64.05,25.31-.14,37.91-1,15.26-1.1,29.11,3.37,42.85,9a26.53,26.53,0,0,0,6.19,1.57c2.78.4,5.35.11,6.28-3.32a3.78,3.78,0,0,1,1.69-1.76c3.5-2.19,11.62.56,12.88,4.52C478.4,563.86,478.73,573.16,479.24,582.57Z"/><path d="M953.63,315.73c0-14.16.08-28.31,0-42.47-.08-11.87,7.37-22.16,20.44-22.35,17-.26,34-.3,50.92.19,10.9.31,18.59,9.05,18.52,19.66-.08,11.28-8,19.82-19.17,20.27-7.48.3-15,.05-22.48.1-4.53,0-4.53.08-4.64,4.32-.16,6.19-.16,6.15,6.27,6.24,5.16.06,10.38-.24,15.46.45,10.53,1.43,15.7,9.42,12.73,18.88-1.77,5.63-7.4,9.62-14.69,10-5,.26-10,.07-15,.13-4.71,0-4.71.07-4.79,4.68-.12,6.9-.12,6.9,6.57,6.91s13.33-.13,20,.09c8.53.29,16.22,6.09,18.53,13.61,2.63,8.58-.22,18.21-7.42,23.08a18,18,0,0,1-9.15,3.28c-17.64.31-35.28.3-52.92.08-8.31-.1-16.08-6.72-18-14.84a45.71,45.71,0,0,1-1.14-9.84C953.56,344,953.63,329.89,953.63,315.73Z"/><path d="M875.55,313.45c3.94-8.74,7.95-17.46,11.81-26.24,3.54-8.05,6.87-16.2,10.41-24.25,4.32-9.82,13.19-14.48,24.41-13a20.46,20.46,0,0,1,17.66,18.31,26.12,26.12,0,0,1-2.26,13c-13.29,29-26.95,57.83-40.52,86.7-1.06,2.25-2.29,4.44-3.57,6.58-8.58,14.41-31.91,12.07-38.37-2.14-8.11-17.84-16.46-35.56-24.73-53.33-5.47-11.75-11-23.47-16.48-35.22-2.63-5.65-4.53-11.5-3-17.83A20.94,20.94,0,0,1,828.59,250c10.52-1.42,18.68,2.08,23,10.94,5,10.3,9.37,20.93,13.92,31.46,3,7,5.83,14,8.74,21Z"/><path d="M1216.71,250.59c11.82,0,23.65-.14,35.47,0s19.23,5.77,21.78,15.92c2.1,8.37-3.51,21.9-14.84,23.52-4.59.66-9.26.79-13.89,1s-4.68.1-4.68,4.76c0,19.65,0,39.3-.06,58.95a74.47,74.47,0,0,1-1,12.39c-1.83,10.47-11.08,17.52-21.91,17-11.28-.51-19.37-7.76-20.48-18.6a109.2,109.2,0,0,1-.35-11c0-19.32,0-38.63,0-57.95,0-5.55,0-5.46-5.49-5.62-4.47-.13-9,0-13.39-.85-10.69-2.17-16.32-10.61-15.36-22.15.8-9.49,8.2-16.72,18.31-17,12-.34,24-.08,35.94-.08Z"/><path d="M1033.65,114.53c0-19.64,0-39.29.07-58.93a17.54,17.54,0,0,1,1.53-6.11c1.78-4.5,6.06-8,5.37-13.63-.09-.74,3.28-2.63,5.13-2.76,8.62-.6,17.27-1.11,25.9-1,6.62.1,13.23,1.1,19.82,1.9,2.89.35,5.76,1,4.4,5.3a4.85,4.85,0,0,0,1,3.73c5.33,6.74,4.86,14.52,4.45,22.39-.79,15.11-1.4,30.24-2.15,45.36-.45,9-1.11,17.93-1.51,26.91a9.26,9.26,0,0,1-3.54,6.83c-14.73,13.13-38.82,11.78-49.8,3.58-1.6-1.19-3.42-2.07-5-3.26a10.63,10.63,0,0,1-4.74-9.34c.2-7,.05-14,.05-21Z"/><path d="M1022.63,86.17c-9.64,1.59-18.17-1.27-25.89-7.16-8.68-6.62-14.63-15.31-19.16-25.12-1.66-3.6-3.75-7-5.57-10.55a11.71,11.71,0,0,0-7.62-6c-5.78-1.67-11.6-3-17.69-2.33-4.57.47-5.1,1.54-3,5.72,1.42,2.86,3.3,4,6.72,3.71,7.52-.62,16.8,4.9,19.16,11.86,3.14,9.24,9,16.58,14.84,24.06a160.25,160.25,0,0,1,10.84,14.93c8.27,13.54,6.88,27-3.13,39.23-7.61,9.3-17.14,14-29.13,13.36-4.6-.24-9.43-.1-13.74-1.46-16.9-5.33-25-19.71-21.39-37,1.72-8.28,3.8-16.49,5.1-24.83a66.44,66.44,0,0,0,.75-16.82c-.86-8.45.73-15.53,7.87-20.66,2.23-1.6,1.68-3.22,0-4.41-3.72-2.73-7.72-5.08-11.47-7.77-1.2-.86-4.21-.69-2.92-3.42,1.4-3,4.35-3.61,6.83-1.72a15.5,15.5,0,0,1,2.28,1.94c2.48,2.8,5.18,3.23,8.82,2,6.59-2.18,13.49-1.91,20.22-.65a17.48,17.48,0,0,0,8.69-.76c10.38-3.15,20.43-3.08,29.3,4.14,5.71,4.65,9.19,11,11.57,17.8a165.5,165.5,0,0,1,4.32,16.36C1020.45,75.61,1021.44,80.64,1022.63,86.17Z"/><path d="M1225.24,162.74a57.2,57.2,0,0,1,.71-6.92c2.63-11.82,11.13-18.49,24.84-18.59,6.39,0,12.78,1.57,19.2,2.18a21.34,21.34,0,0,0,7.65-.41c7.32-2.06,14.35-5,22.29-4.09,12.86,1.48,22.27,10.08,22.9,22.86,1,20.71-4.2,39.49-19.6,54.42a19,19,0,0,1-24.17,2.21c-1.38-.92-2.07-.86-3.38.07-6.32,4.43-13.52,4.6-20.58,2.89-3-.72-5.92-3.12-8.1-5.47-9.95-10.7-18.28-22.43-20.82-37.27-.67-3.91-.84-7.9-1.25-11.86Z"/><path d="M46.58,617.27c-12.33,0-24.66,0-37,0-6.68,0-9.51-2.7-9.54-9.3q-.12-27,0-54c0-6.6,2.5-9.32,9-9.34q38-.16,76,0c5.74,0,8.28,2.52,8.32,8.28q.2,28,0,56c0,6-2.61,8.31-8.73,8.35C71.9,617.33,59.24,617.27,46.58,617.27ZM15.94,580.69h-.06c0-7,0-14,0-20.95,0-2.53-1.36-4.1-4-4a3.92,3.92,0,0,0-4.2,4c0,.5,0,1,0,1.5,0,13.13,0,26.27,0,39.4,0,3.76,1.43,5.49,4.2,5.56s4.05-1.46,4.11-5.53C16,594,15.94,587.34,15.94,580.69Z"/><path d="M571.35,587.91a17.72,17.72,0,0,1,.29-3.92c2.06-7.58,1.3-15.13,0-22.7a24.68,24.68,0,0,1-.17-3c-.27-6.42.38-6.57,6.78-5.79,10.06,1.22,20.21,2.41,30.32,2.43,13.63,0,27.26-1,40.89-1.7a49.51,49.51,0,0,0,6.39-1.07c2.65-.49,4.71-.11,4.89,3.18.15,2.69,1.4,2.26,3.32,1.47,8.66-3.59,12.83-2.34,18.41,5.27,3.39,4.62,6.08,9.43,6.25,15.44.27,9.25-11.32,19.31-21.3,15.86-6.25-2.16-6.16-1.83-7.79,4.88-3.29,13.51-11.2,21.16-27.38,22.56-10.22.89-20.59.53-30.87.11C582.22,620.16,571.16,608,571.35,587.91Zm112-11.45A29.73,29.73,0,0,0,675,561.54a6.57,6.57,0,0,0-4.54-1.43c-5,.35-10.49,5.25-11.1,10.32-.39,3.19.33,6.51.53,9.77.22,3.53,1.8,5.92,5.4,6.75,1.6.37,3.16,1,4.77,1.27C676.74,589.53,683.57,583.73,683.36,576.46Z"/><path d="M613.79,56.17c8.83,0,17.66-.07,26.49,0,3.36,0,6.94-.46,9.15,3.39.52.91,2.73,1.2,4.15,1.17,7.31-.17,14.62-.51,21.92-.84,2.78-.13,4.21-2.19,4.81-4.43,1.46-5.5,5.22-7.43,10.46-8.25,18.72-2.93,37.37-6.27,56.09-9.17,12-1.86,24-3.17,36-4.81,9.9-1.36,11-.86,13.78,8.81,3.66,12.61,7.2,25.25,10.54,38,2.44,9.27-.73,13.29-10.49,12.91-8.13-.32-16.24-1.31-24.33-2.27-12.37-1.46-24.73-3-37-4.8C720.22,83.62,705.15,81,690,78.61c-3.78-.59-6.58-2.28-8.12-5.78-1.2-2.72-3-4.18-6.13-4.13-7.78.13-15.57.09-23.35.25-1,0-2.66.66-2.88,1.37-1,3.2-3.43,3.23-6,3.24-12.82.09-25.64.2-38.47.22-5.66,0-11.32-.19-17-.32-6-.13-12-.38-18-.39-2.28,0-3.61-.89-3.59-3.09a80.56,80.56,0,0,1,.64-10.3c.29-2.09,2-2.62,4.14-2.67,14.14-.36,28.28-.85,42.42-1.3ZM727.23,68.43v-.17a35.2,35.2,0,0,0-4.48-.26,8.22,8.22,0,0,0-2.45,1c.69.79,1.26,2,2.11,2.28a24.35,24.35,0,0,0,5.43.64q33.38,1.82,66.76,3.53c1.17.06,3.43-.92,3.41-1.29-.11-1.71-.35-3.74-2.95-3.78-2,0-4-.34-6-.39Q758.17,69.18,727.23,68.43ZM757,65.55v-.44h34a4.79,4.79,0,0,0,2-.09c.89-.44,2.32-1.25,2.27-1.79a3.41,3.41,0,0,0-1.8-2.54,15.9,15.9,0,0,0-4.94-.34c-9.49.24-19,.54-28.46.82-12.65.38-25.3.72-37.95,1.2-1,0-2,1.11-2.93,1.69A13.5,13.5,0,0,0,722,65.46a16.43,16.43,0,0,0,3.49.09Zm-35,8.76-.3,1.64A44.94,44.94,0,0,0,726.69,77c7.93.85,15.87,1.53,23.8,2.4C765,81,779.55,82.77,794.1,84.3c2.06.22,6.06-.52,6.06-.78-.06-4.17-3.54-3.54-6.18-3.77q-33.8-2.91-67.61-5.65A32.18,32.18,0,0,0,722.07,74.31ZM727.75,59l0,.34c5.47-.41,10.94-.91,16.42-1.21,13.79-.77,27.58-1.44,41.36-2.19a24.48,24.48,0,0,0,4.93-.69c.77-.2,1.36-1.07,2-1.64-.78-.64-1.57-1.83-2.36-1.84-4,0-8,.19-12,.44q-22.66,1.43-45.32,2.94c-4.15.28-8.3.6-12.43,1.09-.91.11-1.71,1.06-2.57,1.63,1,.61,1.92,1.72,2.9,1.75A53.38,53.38,0,0,0,727.75,59Zm-10.84-7.52.19,1.41a32.34,32.34,0,0,0,4.05.18Q744,51.3,766.93,49.47c6.64-.53,13.27-1.13,19.91-1.74,1.55-.14,3.75.29,3.41-2.35-.29-2.22-1.86-3-4-2.53-.49.1-1,.15-1.48.21-8.26,1-16.52,2-24.78,2.88-12.55,1.41-25.11,2.76-37.66,4.21A44.72,44.72,0,0,0,716.91,51.43ZM574.58,69.7c1-2.14,2-3.42,1.89-4.59-.08-.85-1.68-1.55-2.6-2.32-.76,1.1-2,2.16-2.12,3.32C571.68,67,573.13,68,574.58,69.7Z"/><path d="M1064.58,431.07c10.66,0,21.33,0,32,0,4.16,0,4.49.34,3.63,4.21-1.51,6.81-2.57,13.8-4.93,20.31-3.7,10.21-4.81,20.67-5.08,31.35-.17,6.66-.47,13.31-.43,20,0,3.07-.69,4.5-4.12,4.46-14-.14-28-.12-42,0-3.21,0-4.75-1.17-4.33-4.38.95-7.27-2.12-11.5-8.6-15.19-10.24-5.84-18.59-14.19-23.29-25.31a37,37,0,0,1-2.92-13c-.3-9.88,7.28-16.09,17-14.61.49.07,1,.17,1.47.28,6.46,1.38,6.57,1.37,5.67-4.92-.43-3,1.1-3.24,3.42-3.23C1042.92,431.1,1053.75,431.07,1064.58,431.07Zm-26.53,46,.79-.2c-1.41-5.76-3.08-11.48-4.14-17.3-1-5.22-3.94-8.12-8.71-9.77-3.77-1.3-7.73-3.52-11.19-.11-3.85,3.78-1.81,8.18.2,12a59.17,59.17,0,0,0,17.49,20.2,37.62,37.62,0,0,0,5.15,2.74c.17-1.86.37-3.72.5-5.59A16.62,16.62,0,0,0,1038.05,477.11Z"/><path d="M1195.43,184.55c-3-.65-5.29-.57-6.84-1.58-4.41-2.87-8.09-1.88-13-.33-8.85,2.83-18.34,3.34-27-1.86a3.57,3.57,0,0,0-4.45.11c-6.93,4.4-14.16,4.71-21.07.22-7.9-5.13-11.07-12.71-9.43-22,1.44-8.15,6.74-13.33,14.4-15.65,3.51-1.06,4.63-2.42,4.64-6.06,0-7.38,4.39-12.56,10.51-15.82a16.21,16.21,0,0,1,17.52,1c2.56,1.77,4,2,6.85.08,9.65-6.42,23.49-2.88,27.45,11.23,1.51,5.38,2.58,8.88,8.61,11.05,7.53,2.71,11.3,9.67,11.55,17.81s-3.67,14.52-10.45,18.69C1201.83,183.3,1198,183.74,1195.43,184.55Z"/><path d="M1473.59,485.69c6.3.67,13.55,1.47,20.81,2.21,2.41.25,3.21,1.35,3.39,3.9.17,2.35,1.77,4.57,2.4,6.93.84,3.14,2,6.39,1.88,9.56-.64,19.13-2.12,38.24-2.27,57.37-.11,13.56-5.09,16.77-18.09,20.16a32.94,32.94,0,0,1-28.9-5.9c-3.33-2.5-5.2-5.19-5.17-9.52.07-13.83-.1-27.65-.25-41.48-.08-7-.2-14-.51-21a17,17,0,0,1,2.44-9.45c1.5-2.65,1.92-5.89,3.36-8.59a6.09,6.09,0,0,1,4-2.75C1461.93,486.45,1467.25,486.2,1473.59,485.69Z"/><path d="M163.22,140.24c-13.32,0-26.64,0-40,0-5,0-5.16-.15-5.18-5,0-13.15-.07-26.31,0-39.46,0-7.08,3.68-10.93,10.73-11q34.72-.16,69.44,0c6.92,0,10.23,3.56,10.28,10.69.08,13.32.05,26.64,0,40,0,4.63-.1,4.71-4.85,4.73C190.19,140.27,176.71,140.24,163.22,140.24Z"/><path d="M1055.77,557.24a18.2,18.2,0,0,1,13.8-6.46c2.57,0,3.09.85,2.45,3.29-1.62,6.22-5.92,10-12.73,10.93a54.25,54.25,0,0,0-9.58,2c2.92,1.34,5.59,2.23,9,1,6.51-2.29,13-4.9,20.31-3.13,9.46,2.29,16,9.8,16.18,19.48.27,15.4-3.73,29.35-14.26,40.92-6.31,6.93-12.51,7.76-21.1,3.7a4.56,4.56,0,0,0-3.5.27c-9.15,4.66-16.39,3.69-23.37-3.7-9-9.53-15.6-20.45-16.67-33.81a37.23,37.23,0,0,1,1.64-13.69c2-6.38,7-10,13.63-10.95,4.22-.58,8.52-.61,13.16-.92-1-.7-1.89-1.42-2.86-2.06-4.44-2.92-6.1-7.26-6.44-12.32-.15-2.21.6-3,2.93-2.43,4.94,1.15,8.73,3.78,11.72,9.54.74-2.85,1-4.54,1.62-6.13,1.29-3.48,2.77-6.94,7-7.74.93-.18,2,.56,3.06.87-.52.87-.83,2.1-1.6,2.56C1056.81,550.5,1055.66,553.48,1055.77,557.24Z"/><path d="M1350.7,587.21c-8.16,0-16.33,0-24.49,0-5.75,0-7.79-2.08-7.82-7.84-.05-11,0-22,0-33,0-1.32-.29-3.05.41-3.9,3.51-4.28,2-8,.07-12.5-2.58-6.11,1.49-12.47,8.16-14.09a95,95,0,0,1,47.9.45c8.11,2.2,11.39,10.09,6.9,17.22-1.72,2.74-1.58,4.4.13,6.9a11.56,11.56,0,0,1,1.63,6.1c.15,11,.12,22,.06,33,0,5.66-2.1,7.63-8,7.66C1367.36,587.25,1359,587.21,1350.7,587.21Z"/><path d="M631.58,134.59c6.47-3,9.49-1.52,10.2,4.69.45,4,.74,8,1.17,11.93a30.09,30.09,0,0,0,6.74,16,35.63,35.63,0,0,0,1.43-5c.86-7.43,1.59-14.88,2.4-22.32.18-1.65.55-3.28.73-4.93.21-1.94,1-2.83,3.15-2.8,9.33.11,18.66,0,28,.06.66,0,1.73-.12,1.92.22,2.78,4.76,7.35,2.17,11.11,2.8.81.14,1.67,0,2.49.11,3.62.55,5.4,2.25,5.45,6,.13,9.83.38,19.67-.08,29.48-.3,6.39-3.92,11.65-8.62,15.84-2.56,2.28-3.19,4.49-2.67,7.85a91.35,91.35,0,0,1,.6,13.45c0,4.07-.9,5-5,5-9,.1-18,0-27,0-4,0-8,.1-12,0-3.82-.15-4.53-1-4.65-4.87a36.06,36.06,0,0,1,0-5c.45-4.07-.55-6.95-4.22-9.67-5.37-4-7-10.37-7.1-16.89-.18-9-.15-18-.11-27C635.57,144.24,635.05,139.19,631.58,134.59ZM694,182.92c4.79-4.88,7.3-9.48,7.33-15.27,0-6.67,0-13.33,0-20,0-7.24,0-7.24-7.46-7.08-4.39.1-4.79.35-4.33,4.48C690.92,157.25,692.42,169.44,694,182.92Z"/><path d="M40.86,458.49c11.23,1.12,22.48,2,33.68,3.44,5.62.7,6.12,1.68,5.34,7.22-1,7.38-2,14.8-3.6,22.07-1.54,7.09-5.41,13.14-9.85,18.86-2.31,3-4,6.47-6.22,9.51-1.3,1.75-2.94,3.74-4.86,4.44-9,3.29-18.27,2.76-27.45.47a7.07,7.07,0,0,1-5.23-4.83,17,17,0,0,0-3.75-6.34c-9.36-9.11-12.8-20.69-14.4-33.11-.51-4-.91-7.93-1.3-11.89-.43-4.37.07-5.29,4.36-6.23a83.59,83.59,0,0,1,13.26-2.16c6.63-.36,13.29-.09,19.94-.09Z"/><path d="M100.52,200.74c0-8.16-.09-16.33.07-24.49a14.44,14.44,0,0,1,1.48-5.16c.85-2,2.89-3.84,2.86-5.74-.07-5,3.22-5.23,6.55-5.17,9.47.16,18.93.53,28.39.9,2.35.09,4.3.73,3.82,3.89a4.55,4.55,0,0,0,.92,2.77c3,4.57,3.25,9.56,2.94,14.84-1,16.61-1.77,33.23-2.48,49.86-.15,3.53-1.76,5.75-4.44,7.83-9.77,7.59-26.33,6.93-35-.22-2.78-2.3-4.5-4.59-4.43-8.35.1-5.15-.29-10.31-.37-15.47s0-10.32,0-15.49Z"/><path d="M493.13,7.07c1.26,2.4,2.1,4-1.09,5.34-4.54,1.85-5.73,6-6.15,10.81,4.21-1.25,8.08-2.4,12-3.54a14.49,14.49,0,0,1,1.95-.43c11.95-1.77,19.1,3.54,20.07,15.58,1.09,13.51-3,25.92-9.84,37.37C506.52,78,499.7,80,492.82,76.94c-5.43-2.4-10.39-2.68-15.83-.52a25.53,25.53,0,0,1-7.33,1.2c-5.73.45-9.85-2-12.66-7.05A57,57,0,0,1,449.92,35c1.73-13.81,14.28-19.85,26.73-13,3.87,2.12,3.87,2.12,4.82-2.15C482.79,13.83,486.57,9.66,493.13,7.07Z"/><path d="M400.66,73.33c8.56.83,17.64,1.68,26.71,2.59,3.84.38,6.35,2.83,8.15,5.92A28.62,28.62,0,0,1,439.66,97c0,2.58-.72,4.28-3.45,4.4s-3.57,1.53-4,4.06c-.82,4.91-1.91,9.79-3.14,14.62-1.77,6.95-4.59,9.7-11.81,9.9-11.95.33-23.91.11-35.87-.12a8.5,8.5,0,0,1-8.52-6.48c-1.58-5.58-2.92-11.23-4.25-16.88-.69-3-1.41-5.61-4.68-7-2.76-1.17-3.84-3.49-2.71-6.59.84-2.33,1.27-4.81,2.17-7.12,2.19-5.66,6-9.55,12.34-10.2C383.83,74.8,391.93,74.13,400.66,73.33Z"/><path d="M1162.07,80.86c-10.82,0-21.63.06-32.45,0-13.53-.09-20.82-7.54-20.88-21.16,0-9.88,0-9.88,9.91-9.88,10.82,0,21.63,0,32.45,0,4.4,0,4.45-.09,3.83-4.36-.81-5.58-1.74-11.15-2.54-16.73-.57-4,.63-6.32,4.44-7a21.69,21.69,0,0,1,9.25.23c4.12,1.08,5.44,4,4.4,8.12-1.13,4.51-2.51,9-3.7,13.45-1.68,6.32-1.65,6.34,4.75,6.35H1209c1.5,0,3,.06,4.49,0,2-.08,3.1.56,3,2.82-.14,3.66.17,7.35-.19,11-1,10.19-8.55,17-19.25,17.19-11.65.21-23.3,0-34.95,0Z"/><path d="M49.68,392.64c0,13.31-.08,26.62.06,39.94,0,3.14-.72,4.31-4.13,4.25-11.14-.22-22.3-.17-33.44,0-2.85,0-3.67-.88-3.66-3.67q.13-40.68,0-81.37c0-3.26,1.27-3.83,4.12-3.8,11,.13,22,.17,32.95,0,3.33-.06,4.23,1.06,4.19,4.27C49.59,365.68,49.68,379.16,49.68,392.64Zm-9.22-30-2-.18c-1.24,3.84-2.81,7.61-3.6,11.54-.63,3.12,1.23,5.24,3.69,5.38S43.44,377.16,43,374C42.49,370.17,41.34,366.42,40.46,362.63Z"/><path d="M461.52,480.88c6-1.23,11.28-2.92,16.65-3.28,9.84-.66,15.93,5.46,16.36,15.3.55,12.35-2.88,23.63-9.06,34.15-4.16,7.09-10.43,9.49-17.8,6-5.15-2.44-9.56-1.86-14.8-.5-12.8,3.33-15.68.82-20.57-8.09-5.66-10.32-7-21.47-5.47-32.89,1.52-11.12,12.45-16.9,23-12.62a12.72,12.72,0,0,1,3.11,1.57c2.65,2.09,3.83,1,4.2-1.83.65-5,3.66-8.51,7.55-11.25,1.1-.78,3.79-1.25,4.2-.71,1.34,1.8.21,3.12-1.78,4.12C462.88,473,461.8,476.82,461.52,480.88Z"/><path d="M353.81,519.77c-10.48,0-21,0-31.44,0-4.33,0-4.41-.06-4.43-4.45,0-9.82-.09-19.63,0-29.45.08-7.71,2.57-10.18,10.24-10.2q25.7-.09,51.41,0c7.21,0,9.79,2.5,9.86,9.49.1,10.15-.08,20.3.08,30.44.05,3.27-1,4.31-4.29,4.25C374.77,519.65,364.29,519.77,353.81,519.77Z"/><path d="M71,102c-6.49,0-13,.06-19.47,0-5.11-.06-6.8-1.76-6.85-7-.08-8.49-.52-17,.15-25.45.43-5.47,2.51-10.52.11-16.32-1.47-3.56,2.29-7.83,6.31-8.84a77.86,77.86,0,0,1,39.45.22c6.46,1.71,8.79,7.9,5.42,13.8C95,60.3,94.6,61.63,96,63.71a11.91,11.91,0,0,1,1.6,6.1c.17,8.32.13,16.64.05,25-.05,5.56-1.6,7.09-7.19,7.16C84,102,77.47,102,71,102Z"/><path d="M970.36,521.84c-6.17,0-12.33,0-18.5,0-5.77-.06-7.55-1.78-7.58-7.36,0-8.5-.24-17,.12-25.49.12-2.78,2.52-5.49,2.55-8.24,0-2.57-2.24-5.11-2.54-7.76-.54-4.79,2.05-7.9,6.76-9a83,83,0,0,1,38.08.08c7.13,1.65,10,7.87,6.16,14.1-1.28,2.1-1.2,3.33,0,5.29A11.6,11.6,0,0,1,997,489c.17,8.5.12,17,.06,25.5,0,5.33-1.9,7.21-7.24,7.29C983.36,521.91,976.86,521.84,970.36,521.84Z"/><path d="M515.92,528.21h32.41a17.8,17.8,0,0,0,4.47-.2c.92-.24,2.24-1.32,2.25-2a3.4,3.4,0,0,0-1.89-2.52,13.75,13.75,0,0,0-4.42-.43c-9.81-.23-19.63-.42-29.44-.65a4.11,4.11,0,0,1-2.91-1.09c1.13-.14,2.27-.37,3.4-.4q15.22-.46,30.44-.86h.5c2-.08,4.51-.18,4.3-2.82-.08-.93-2.61-2.21-4.12-2.37-4-.41-8-.24-12-.39-7.63-.28-15.26-.63-22.89-.95l-.16-1.05c1.24-.11,2.49-.28,3.73-.32q15.71-.52,31.43-1c1.88-.06,4.13,0,4.06-2.49-.06-2.31-2.16-2.56-4.13-2.55-9.66,0-19.32,0-29,0h-6.7c1.64-1,2.2-1.62,2.8-1.66,14.58-1.06,29.15-2.16,43.74-3a16.25,16.25,0,0,1,14.08,6.15A12.74,12.74,0,0,0,587,512.11q17.18-1,34.37-1.78c12.46-.61,24.92-1.13,37.38-1.74,10-.48,19.92-1.26,29.89-1.49,9.25-.22,14.34,8.75,9.35,16.56-1.13,1.76-4,3.17-6.19,3.33a141.77,141.77,0,0,1-16.91-.08Q634,525,593.16,522.85c-1.16-.06-2.32-.2-3.47-.35-5.64-.71-10.61.54-14.36,5.09a15.86,15.86,0,0,1-13.7,6c-14.94-1-29.85-2.31-44.77-3.54-.37,0-.71-.5-1.06-.76Z"/><path d="M707.05,455.59c5.15,0,8.94-.19,12.7.11a5.46,5.46,0,0,1,3.52,2.23c4.15,6.1,10.15,10,16.15,13.87a4.35,4.35,0,0,0,3.89.24c1.79-1.25.75-2.89-.4-4.26-2.56-3-5.09-6.07-8.43-10.05,11.48,2.58,21.48,5.61,29.45,13.12a15.71,15.71,0,0,1,3.61,5.84c1.84,4.92.56,8.69-4.19,10.76a49.68,49.68,0,0,1-12.86,3.71,138.51,138.51,0,0,1-20.4,1.48q-28.71-.3-57.4-1.4a37.4,37.4,0,0,1-12-3c-6.67-2.65-8.3-8.5-4.33-14.61,4.34-6.67,11.34-9.52,18.39-12.14.56-.21,1.64.53,2.27,1.06,5.8,4.93,11.49,10,17.41,14.79.89.72,2.85.12,4.31.12-.2-1.31.06-3-.66-3.88-4-5-8.29-9.87-12.9-15.28,3.36-.68,6.35-1.48,9.39-1.8a4.06,4.06,0,0,1,3.13,1.6c4.56,6.89,11.47,11,18.12,15.38.88.58,2.6-.11,3.93-.22-.17-1.2.06-2.69-.57-3.55-2.17-2.94-4.62-5.67-7-8.45C710.76,459.67,709.31,458.11,707.05,455.59Z"/><path d="M1384.08,604c17.83,0,35.66,0,53.49,0,2.9,0,5-.13,5.83-3.63.77-3.32,3.5-4.72,6.83-4.73,11.83,0,23.66-.11,35.49,0,5,.05,7.6,2.82,7.76,7.8.07,2.33-.16,4.68.05,7,.45,4.8-1.93,7.9-5.79,10.15a33.5,33.5,0,0,1-16.69,4.46c-6.83.1-13.67-.1-20.5.08-3.71.1-6.23-1.48-7.3-4.78-.93-2.88-2.72-3.19-5.26-3.17-13,.08-26,0-39,0q-34.25,0-68.49,0c-5.46,0-7.45-2-7.31-7,.12-4.56,1.77-6.23,6.37-6.24Q1356.83,604,1384.08,604Zm-49.43,4.1c-2,0-3-.27-3.64.06a17.4,17.4,0,0,0-2.86,2.23c.85.85,1.61,2.28,2.58,2.44a16.83,16.83,0,0,0,5.88-.28,2.71,2.71,0,0,0,1.52-2.15,3.17,3.17,0,0,0-1.73-2.05A3,3,0,0,0,1334.65,608.1Z"/><path d="M303.26,129.73c-3.45-1-7.34-2.11-11.27-3a4.94,4.94,0,0,0-3.1.5c-9.34,4.75-18.38.24-21.17-7.22-3.39-9.07.92-18,10.37-20.77,1.81-.53,2.43-1.21,2.59-2.93a22.28,22.28,0,0,1,1-4.87C284.42,83.11,293.5,79.55,301,84c2.08,1.23,3.41,1.49,5.71.1a13,13,0,0,1,20,10.06c.29,3,.67,4.5,4.16,5.37,8.61,2.15,12.48,12.12,9.05,21s-14.12,10.5-20.44,6.91c-1.86-1.06-3-.82-4.9-.1C311.26,128.51,307.6,128.85,303.26,129.73Z"/><path d="M1210.93,435.53c-.6,25.6-24.95,45.74-50.33,41.63-21.48-3.48-36.48-20-37.6-41.47-.3-5.82-.16-6,5.43-6q38.42,0,76.84,0C1211.06,429.69,1211.06,429.73,1210.93,435.53ZM1157,441.93c3.62,0,6.53-1.8,6.41-4.06-.1-2-2.83-3.61-6.28-3.63a3.87,3.87,0,0,0-1.94.21c-1.54,1-3.92,1.94-4.24,3.31-.6,2.58,1.94,3.41,4.08,4A12.47,12.47,0,0,0,1157,441.93Zm21.8,22c3.31-.06,6.15-1.8,6.24-3.82s-3-3.86-6.15-4-6.71,1.89-6.73,3.91S1175.28,464,1178.81,463.92Zm-43.1-21.84c1-.17,2.37,0,3.25-.62,1.28-.84,3.06-2.18,3.08-3.32s-1.73-2.91-3-3.27a12.18,12.18,0,0,0-6.31,0c-1.28.36-3,2.11-3,3.23s1.75,2.47,3,3.38C1133.39,442,1134.59,441.89,1135.71,442.08Zm21.43,21.84c3.7.07,6.51-1.63,6.51-3.93,0-2.14-3.22-4-6.64-3.86s-6.13,2-6.06,4S1153.78,463.86,1157.14,463.92Zm10.67-10.83c3.36.06,6.3-1.53,6.44-3.49.15-2.22-2.95-4.21-6.45-4.12s-6.16,1.76-6.17,3.85S1164.33,453,1167.82,453.09Zm-20.76,0c3.29,0,6.36-1.71,6.46-3.61s-3-3.89-6.17-4-6.7,1.94-6.7,4C1140.65,451.34,1143.75,453.09,1147.05,453.09Zm31.13-11.2c3.37,0,6.07-1.62,6.25-3.7.19-2.26-2.61-4-6.41-4a9.56,9.56,0,0,0-1.48.12c-2.18.37-4.65.9-4.68,3.51,0,2.83,2.44,3.58,4.84,3.93C1177.19,441.87,1177.69,441.87,1178.18,441.89Zm21.08,0c3.8,0,6.38-1.67,6.44-3.86s-2.47-3.73-6.11-3.77c-.5,0-1.11-.13-1.47.11-1.67,1.08-4.39,2.06-4.65,3.47-.52,2.83,2.26,3.56,4.63,4A7.3,7.3,0,0,0,1199.27,441.88Zm-11,11.3c1.12-.14,2.33.06,3-.45a29.8,29.8,0,0,0,3.55-3.59c-1.26-1.09-2.36-2.66-3.82-3.15a8.7,8.7,0,0,0-5.26.1c-1.29.45-3,2-3,3.08s1.68,2.45,2.86,3.37C1186.26,453.07,1187.43,453,1188.27,453.18Z"/><path d="M842.24,492.87c-8.83,0-17.67,0-26.5,0-11.9-.08-17.86-6.05-17.91-17.84,0-8,0-8,8.19-8,8.83,0,17.67,0,26.5,0,4.28,0,4.52-.44,3.83-4.68S835,454.11,834.53,450c-.47-4.28.6-6,4.82-6.48a19.43,19.43,0,0,1,8.12,1.35c2.88,1,2.31,3.8,1.83,6-.73,3.39-1.85,6.7-2.74,10.06C845,467,845,467,851.08,467c10.5,0,21,0,31.5,0,5.19,0,4.78-.43,4.8,4.92,0,1.5,0,3,0,4.5-.09,10-6.07,16.19-16.14,16.38-9.66.19-19.33,0-29,0Z"/><path d="M861.58,100.57q-20,0-40,0c-5.55,0-5.5,0-4.29-5.67,2.57-12,10.49-19.58,21.23-24,18.75-7.75,37.13-6.32,54.45,4.45,6.65,4.14,11.61,9.92,13.79,17.71a20.11,20.11,0,0,1,.7,2.37c.7,4.72.36,5.14-4.44,5.15Q882.31,100.6,861.58,100.57Z"/><path d="M376.8,156.25c-1.53-2.64-3.54-5.3-4.67-8.3s.36-4.27,3.29-3c2.34,1,4.36,2.8,6.95,4.52a22,22,0,0,1,1.35-3.22,22.49,22.49,0,0,1,3.41-4.74c.52-.5,2.06.08,3.14.17-.42.77-.65,1.77-1.29,2.26-1.78,1.39-3.08,2.86-2.74,4.93l12-4.52c0,5-1.88,7.86-5.06,9.4-3,1.44-6.38,2-9.6,2.9l.26,1.33c1.63-.25,3.27-.48,4.89-.77,4.05-.72,8.1-2.05,12.15-2.06,7.53,0,13.17,5.72,13.63,13.18.71,11.46-2.35,21.68-10.24,30.27-4.29,4.67-8.41,5.59-14.33,3.28a5.19,5.19,0,0,0-3.5-.11c-7.45,3-12.62,1.94-17.73-4.11-6.5-7.7-11-16.22-10.46-26.68.54-10,5-14.38,15-14.75C374.63,156.21,375.92,156.25,376.8,156.25Z"/><path d="M112.51,449.58c2.58,2.7,3.91,2.48,5.67-.07,2.53-3.67,6.69-5.3,11-6.3,2.33-.54,3,.51,2.81,2.66-.34,4.21-4.91,8.66-10.17,9.73-1.25.25-2.52.37-3.92.57,1.22,3.72,3.07,4.62,6.82,3.58,11.6-3.21,20.94.56,27.38,10.85,5,7.95,7.93,16.4,5.42,26-3.66,14-22.39,21-34.27,12.67-11.12-7.78-20.11-25.34-10.42-41.92-3.11.76-6,1.84-9,2.11-3.46.31-4.62-1.6-2.36-4.12a36.15,36.15,0,0,1,9.2-7.26c3.68-2,3.88-1.64,2.23-5.68A16.36,16.36,0,0,1,112.51,449.58Zm4.66,14.05c.7-1,1.34-1.53,1.29-2s-.76-.88-1.18-1.32a5,5,0,0,0-.92,1.5C116.28,462.23,116.72,462.71,117.17,463.64Z"/><path d="M865.58,440.6l-48.66-3.31c-9.12-.62-18.25-1.2-27.37-1.86-2.05-.15-3.07.73-4.43,2.3a24.18,24.18,0,0,1-8,6.44c-12.32,5.41-24.82,5.29-37.17-.14a19,19,0,0,1-5.35-3.52c-4.41-4.19-4.55-10.51-.05-14.55a26.85,26.85,0,0,1,8.45-5.09,45.09,45.09,0,0,1,30.81-.3c4.78,1.62,9,4.06,12,8.49a5.29,5.29,0,0,0,4,1.88c11.44-.65,22.87-1.64,34.31-2.34,15.92-1,31.84-1.87,47.77-2.56,3.78-.16,7.61.59,11.4,1.06,2.84.35,4.53,1.71,4.11,5-.38,2.9,1.2,6.69-3.86,7.06C877.27,439.59,871,440.16,865.58,440.6Z"/><path d="M366.87,28.86c.15,11.44-3,18.9-8.78,25-2.42,2.54-2.62,4.53-1.29,7.41a13.85,13.85,0,0,1,1.58,5.65c0,1.31-1.26,3.54-2.22,3.7-1.44.23-3.12-1-4.68-1.64-.23-.1-.32-.56-.46-.86-1-2-1.5-4.95-3.11-5.83-1.22-.67-3.82,1.37-5.87,2-13.12,4-26.14,4.06-39-1.11-4-1.59-3.94-1.66-5.45,2.4-.17.46-.21,1-.4,1.44-1.37,3.43-3.48,4.86-5.89,3.78-3.14-1.41-2.23-4-1.55-6.42a1.94,1.94,0,0,1,.16-.47c2.83-4.76,1.88-8.2-2.09-12.45-8.65-9.27-9.28-24.93-2.35-34.11,4.83-6.39,11.64-9,19.26-8.31A56.52,56.52,0,0,1,320,13.12c2.84,1.12,4.79,1.5,7.75.1A48.11,48.11,0,0,1,341,9.13C355.57,6.9,366.82,16.9,366.87,28.86Zm-43.1,31.76c6.5-1.65,12.75-3.14,18.93-4.85,1.53-.42,3.06-1.19,1.87-3.6A90.15,90.15,0,0,0,326.5,26.69c-2-1.95-3.43-1.67-5.38.23A93.07,93.07,0,0,0,303.5,51.54c-1.18,2.29-.58,3.54,1.54,4.14C311.21,57.4,317.44,59,323.78,60.61Zm-19.38-45c-8.59.37-14.91,5.41-16.27,13.75-1.06,6.5,1.5,12.08,5.32,17.15,2.18,2.89,2.72,2.9,4.4-.26,4.72-8.86,10-17.28,17.41-24.2,2-1.85,1-2.93-.89-3.55C311.09,17.4,307.73,16.54,304.4,15.59Zm47.47,33.6c5.74-5.46,8.19-11.63,7.75-19-.45-7.59-6.05-13.77-13.61-13.94-4-.09-8.11,1.16-12.09,2.13-2.67.65-2.59,1.77-.78,4.08,5.5,7,10.55,14.41,15.73,21.69C349.9,45.61,350.71,47.23,351.87,49.2Z"/><path d="M610.34,44c-14.21.1-28.27-1.13-42-5a25,25,0,0,1-7.55-3.64c-3.18-2.25-3.56-6.12-.52-8.49a31.06,31.06,0,0,1,10.79-5.82c8.32-2.13,16.81-4.19,25.33-4.76,17.1-1.14,34.26-.94,51,3.86a50.48,50.48,0,0,1,10.07,4.23c2.61,1.42,5.25,3.45,5,6.91s-3.12,5.08-5.84,6.29A47.65,47.65,0,0,1,648,40.24,159.5,159.5,0,0,1,610.34,44Z"/><path d="M1321.47,326.92c1.2,4,3.2,6.31,8.12,6.14s8,3.17,10.38,7.42c3,5.34,6.29,10.47,9.61,15.6,1.35,2.09,3.15,3.88,4.61,5.9,5.31,7.32,7.71,15.29,3.51,23.81-4.48,9.09-12,13.93-22.36,14.12-11.37.21-21.28-6.74-22.81-16.77-.56-3.65.26-7.59.89-11.32,1-5.74,2.45-11.39,3.47-17.12a18.52,18.52,0,0,0,.1-6.93,12.57,12.57,0,0,1,3.92-12.69c2.12-2,1.74-3.39-.26-4.76s-4.32-2.49-6.37-3.9c-.73-.5-1.1-1.54-1.63-2.34,1.27-.38,2.86-1.43,3.75-1,1.9.9,3.45,2.56,5.14,3.91Z"/><path d="M862.3,200.19c11.33,0,22.66,0,34,0,3,0,5.46.55,7.64,2.87a6.31,6.31,0,0,0,4.33,1.57c11-.25,22-.6,32.94-1.14,5.68-.28,7.19-1.81,7.84-7.43a12,12,0,0,1,5.71-9.38c6.15-4,12-8.31,18.15-12.35,5.88-3.9,8.8-2.69,9.75,4.2s1.59,13.86,2.19,20.81a9.22,9.22,0,0,1-5.13,9.47c-7.26,4.06-14.42,8.31-21.65,12.43-4.76,2.71-5.81,2.23-7-3.1-.25-1.13-.34-2.29-.48-3.45-.73-5.9-2.41-7.56-8.36-7.48q-17.22.25-34.44.87c-1.21,0-2.35,1.26-3.57,1.84-2.3,1.1-4.62,3-6.94,3.06-23.32.23-46.65.17-70,.11-4.66,0-7.5-2.48-7.6-6.16-.11-3.95,2.78-6.65,7.64-6.69C839,200.13,850.64,200.2,862.3,200.19Zm-33.14,2.33-4.69,4.25c1.54,1,3.13,2.82,4.61,2.74,1.77-.09,3.46-1.82,5.19-2.84Zm126.35-8.59,1,1.39,18.61-11.94-.8-1.24Zm19.85-3.35-.86-1.49-18.83,12.2.76,1.19Zm-18.43,18,.86,1.4,18.72-12.28-.74-1.14Z"/><path d="M1357.87,260.55c-12.83,0-25.66,0-38.48,0-4.62,0-5.06-.43-4.19-4.88,1.8-9.14,6.61-16.51,14.79-20.91,19.48-10.49,39-9.76,57.73,1.81A27.9,27.9,0,0,1,1401,256.24c.67,4,.56,4.27-3.64,4.29C1384.19,260.59,1371,260.55,1357.87,260.55Z"/><path d="M595,108c5.11-.23,10.21-.5,15.32-.68,4.66-.17,9.34-.08,14-.45,1.57-.12,4.25-1.16,4.36-2,.36-3-2.64-2.49-4.32-2.57-7.81-.39-15.64-.49-23.47-.68-1.76,0-3.51,0-5.27,0l0-1.27c3.95-.18,7.9-.36,11.85-.53,5.82-.24,11.65-.35,17.45-.79,1.36-.1,3.72-1.22,3.75-2,.12-2.5-2.24-2.44-4-2.46-7.83-.07-15.66,0-23.5-.05h-5.4l-.13-1.22c2.09-.16,4.19-.27,6.27-.49s4.27-.69,6.43-.85c7.13-.52,14.27-1,21.4-1.42s13.6.23,18.58,6.19c2.25,2.69,5.53,3.54,9,3.34,17.11-1,34.22-1.92,51.34-2.8,11.8-.61,23.6-1.09,35.41-1.62.67,0,1.33,0,2,0,7.93.27,11.94,6.55,8.34,13.7a7.51,7.51,0,0,1-5.43,3.52c-7.79.18-15.61-.18-23.4-.54-16.12-.73-32.24-1.58-48.36-2.38-6.65-.33-13.3-.62-19.94-1a11.4,11.4,0,0,0-9.79,3.94,15.38,15.38,0,0,1-13.32,5.49c-12.12-.82-24.24-1.56-36.36-2.39a12,12,0,0,1-2.64-.81l.07-1h27.51a12.75,12.75,0,0,0,3.48-.13,10.52,10.52,0,0,0,2.64-1.74c-.87-.78-1.69-2.17-2.62-2.25-4.8-.41-9.63-.57-14.46-.66-5.57-.1-11.15,0-16.73,0Z"/><path d="M491.18,124.36c9.58.3,18,2.12,25.18,8.15,4.95,4.17,6.78,9.06,4.38,15.06-4.37,10.91-11.33,19.17-23.84,20.92-8.94,1.25-16.1-1.74-19.73-9.8-3.72-8.26-6.35-16.47-2.53-25.48.34-.79-.47-2.46-1.23-3.26-3.9-4.1-7.86-8.15-12-12a6.27,6.27,0,0,0-4.29-1.18c-4.32.31-7.69-1.29-9-4.67-1.15-3.08,0-5.8,3.39-8.57a16.16,16.16,0,0,0,3.1-3.66c2.11-3.22,5.11-4.55,8.47-3.55s5.64,3.72,5.06,7.54c-.47,3.12.61,5,2.71,6.9a101.18,101.18,0,0,1,8.81,8.85C482.95,123.46,486.46,126,491.18,124.36Z"/><path d="M264.21,460.84c5.65,0,11.31-.32,16.93.07a15.36,15.36,0,0,1,14,18.1,3.74,3.74,0,0,1-2.33,2.55c-2.95.43-3.69,2.21-4.08,4.75-.5,3.28-1.24,6.53-2,9.76-1.31,5.64-3.39,7.83-9.14,8-9.44.27-18.89.05-28.34-.1-3.57-.06-5.87-2.17-6.79-5.53-1.14-4.15-2.11-8.35-3-12.57-.5-2.36-1.1-4.37-3.68-5.43s-3.13-3.22-2.38-6.15c2.39-9.33,6.28-12.86,15.9-13.5,5-.33,10-.46,14.93-.68Z"/><path d="M991.23,459a139.88,139.88,0,0,0-35-.58c-9.3,1-14.88,5.61-16.2,15.61-8.13-7.68-15.85-14.94-23.52-22.24-2.65-2.52-5.28-5.08-7.76-7.76-4.92-5.3-3.1-13.59,3.76-15.8,17-5.46,33.76-4.63,49.72,3.63,3.55,1.84,6.21,5.41,9.22,8.25Q981.35,449.51,991.23,459Z"/><path d="M91.29,39.83c-10.71-2-20.93-2.86-31.24-1.63a60.64,60.64,0,0,0-7.88,1.2c-5.41,1.39-8.86,5-10.63,10.24-.42,1.24-.63,2.54-1.15,4.71-4.71-4.43-9-8.44-13.21-12.45-5.32-5-10.57-10.11-16-15.06-3.4-3.12-5.67-6.7-4.51-11.42,1.12-4.55,4.73-6.44,9-7.66A64,64,0,0,1,61,11.28a13.7,13.7,0,0,1,3.82,2.3c8.44,8,16.81,16.11,25.17,24.2A13.58,13.58,0,0,1,91.29,39.83Z"/><path d="M1005,597.88c-15.7-3.77-31.31-7.56-46.94-11.27-8.56-2-17.17-3.83-25.72-5.91-2.57-.63-3.51-.18-2.9,2.52q3.39,15.07,6.74,30.14c.57,2.54,2.55,3.11,4.79,3.65,17.9,4.3,35.78,8.69,53.67,13.05a23.09,23.09,0,0,1,4.79,1.29c.93.46,1.45,1.74,2.15,2.65-.95.31-2,1-2.82.86-6.82-1.45-13.63-3-20.4-4.66-13.54-3.38-27-7-40.58-10.26-3.32-.79-4.55-2.63-5.18-5.59-2.07-9.73-4.13-19.47-6.42-29.15a19.13,19.13,0,0,0-3-5.94c-1.31-2-1.46-3.85,0-5.49s3.25-3.59,5.28-4.42a29.33,29.33,0,0,0,10.08-7,25.31,25.31,0,0,1,7.06-4.59A125.1,125.1,0,0,1,958,552.61c1.82-.65,3.92-.56,5.89-.72,2.59-.21,4.56,1,4.1,3.62s1,4,2.57,5.41c10.88,10,21.71,20.14,32.68,30.08C1005.36,592.95,1006.15,594.84,1005,597.88Z"/><path d="M530.57,81.76c-.19-.41-.22-.65-.33-.7-2.15-.94-5.88-1.49-6.19-2.84a43.07,43.07,0,0,1-.81-13.74c.13-1.28,3.58-3.17,5.52-3.19,7.14-.07,14.29.36,21.41.95,3.61.3,5.81,4.21,5.17,8.83-1.31,9.36-2.85,18.68-4.18,28q-4.24,29.88-8.37,59.77c-.76,5.43-1.45,10.88-2.31,16.29A19.54,19.54,0,0,1,539,179l-1.29-.15c-1.05-6.63-2.17-13.25-3.13-19.9-1.07-7.41-2-14.84-3-22.25-.6-4.37-.64-4.37,2.67-7.46-3.93-.75-4-3.65-4.36-6.71-1.1-9.24-2.43-18.46-3.78-27.68-.74-5-.84-5,4.19-6a3.06,3.06,0,0,0,2.05-1.47,22.42,22.42,0,0,1-4.58-.89A13.8,13.8,0,0,1,524.72,84a24.54,24.54,0,0,1,3-1.74A14.07,14.07,0,0,1,530.57,81.76Z"/><path d="M310.67,163.07c9.45.73,18.92,1.28,28.34,2.26,4.58.48,4.73,1.27,4.21,5.94-1.11,10-4.56,18.67-13.15,24.66a5.12,5.12,0,0,0-1.67,1.83c-2.57,5.32-7.34,6.28-12.51,6.32-4.65,0-9.32,0-14-.27-3.19-.22-6.09-1.14-7.68-4.59-.71-1.54-2.41-2.72-3.87-3.79-9.11-6.66-11-16.56-12.19-26.8-.26-2.31,1.35-2.83,3.11-3q11.91-1.09,23.84-2.07c1.82-.15,3.66,0,5.49,0Z"/><path d="M390.45,434.85c-1.11-.33-2.25-.59-3.33-1-4.19-1.61-6.37-5.2-5.47-8.9.85-3.52,5.54-6.54,9.48-5.41,2.56.73,4.77,3.76,7.13,3.76s4.61-3.3,7.12-3.65c2.27-.31,5.08,1,7.16,2.36,1.73,1.12,2.37,2,4.33.09,4.08-3.91,8.29-3.93,12.4-.12,1.83,1.7,2.63,1.55,4.37.09,3.81-3.21,7.25-3.63,10.49-1.59,2.5,1.58,4.38,3.67,4,6.94a7,7,0,0,1-5.54,6.36c-3,.68-3.61,1.58-2.57,4.64,1.28,3.79-1.46,7.52-5.54,8.57-1.07.28-2.19.38-3.34.58,2.94,7.5,1.43,10.75-6.14,13.1-1.58.49-2.34.86-1.85,2.63,1.09,3.91-.31,6.9-3.79,8.8-3.26,1.77-6.49,1.19-9.4-.9-3.34-2.4-3.77-5.63-2.3-9.29.11-.27,0-.65-.08-1h.13l0,.11a31.89,31.89,0,0,1-3.88-.69c-5.46-1.66-6.83-5.35-4.56-12.56a7.39,7.39,0,0,0-1.65-.66c-6.7-1-8.8-4.14-7-10.55a7.44,7.44,0,0,0,.13-1.46l.09-.36Zm22.75-3.43,3,.46-.47-1.71-2.54,1.33Zm3.09,18.4.68-.14c-.26-.65-.37-1.67-.83-1.88a2.56,2.56,0,0,0-2.26.2c-.37.3-.08,1.41-.07,2.16,0,1.89,0,3.79.1,5.68a5.49,5.49,0,0,0,.37,2.06,1.46,1.46,0,0,0,1.34.1,3.24,3.24,0,0,0,.9-1.88C416.56,454,416.39,451.92,416.29,449.82Zm9.19-14.24c-.89-.47-1.48-1.06-2-1s-1.1.73-1.64,1.13c.53.55,1,1.42,1.61,1.53C423.9,437.34,424.52,436.41,425.48,435.58ZM406.2,446.11l1.87-1.64a6.4,6.4,0,0,0-1.7-1.42c-.28-.11-1.27.66-1.28,1C405.08,444.65,405.66,445.21,406.2,446.11Zm19.12-1.44-1.56-2.27a15,15,0,0,0-1.85,2.08c-.11.17.67,1.27.92,1.23A11.58,11.58,0,0,0,425.31,444.67Zm-16-8.83c-1.8-.81-2.41-1.3-3-1.28-.44,0-.86.68-1.29,1.06.58.51,1.1,1.25,1.78,1.46C407.2,437.21,407.87,436.57,409.28,435.84Zm22.1-3.41c.61-.66,1.19-1.14,1.12-1.26a7.74,7.74,0,0,0-1.15-1.35c-.3.31-.85.64-.83.93C430.56,431.22,431,431.67,431.38,432.42Zm-34.65-1.69c.52.61.8,1.18,1,1.16a6.07,6.07,0,0,0,1.58-.6c-.22-.39-.41-1.09-.67-1.11A6.31,6.31,0,0,0,396.73,430.73Z"/><path d="M307.77,447.29a150.27,150.27,0,0,1-14.85-4.17c-2.59-1-4.9-3.37-6.68-5.63-1.3-1.65-2.25-2.37-4.39-2.21-15.42,1.2-30.85,2.48-46.29,3.29-12.92.68-25.85,2.72-38.83.42-3-.53-4.9-1.22-4.86-4.84,0-5.45-.2-5.72,4.48-6.5a65.75,65.75,0,0,1,12.89-1c11.29.38,22.58,1,33.86,1.76,12.44.79,24.87,1.74,37.31,2.66,2.79.21,5-.12,6.54-3a11.1,11.1,0,0,1,4.86-4.11c12.46-6.07,25.08-6.2,37.42.19a14.43,14.43,0,0,1,6.14,6.71c1.75,4.14-.14,7.89-4.24,10.66C325,445.61,318,446.78,307.77,447.29Z"/><path d="M230.81,86.18C220,87,211.2,82.43,203.33,75.48a20.91,20.91,0,0,1-7-13.43c-2.67-20.28,10.25-44,28.87-52.2,8.07-3.55,16.3-3.35,23.94,1.52,23.63,15,26.52,43.38,11,62.33C252.9,82.59,242.67,86.72,230.81,86.18Zm-13.63-10a38.72,38.72,0,0,0,4.31-.27,13.2,13.2,0,0,0,3.28-1.15c15.26-6.84,22.82-19.58,26.92-35a30.46,30.46,0,0,0-1.48-19.55,14.93,14.93,0,0,0-4.43-5.8c-7.19-5.75-14.75-3.95-21.91,0-16.37,8.95-26.22,29.2-23.53,47.68C201.71,71.33,207.21,76.14,217.18,76.17Z"/><path d="M698,562.85c3-.92,5.9-1.93,8.89-2.74,9.46-2.57,18.93-5.06,28.4-7.58,2.12-3.7,4.81,4.5,7.7-.56,1.2-2.1,5.81-2.31,8.91-3.22s6.08-1.61,9.13-2.37c3.21-.8,6.43-1.59,9.65-2.34,5.08-1.17,5.09-1.16,7.21,3.3a5.52,5.52,0,0,0,.83-1.06c.62-1.43,1.17-2.88,1.75-4.33l3.17,2.79c.88-1.53,1.46-4.06,2.8-4.56a32.53,32.53,0,0,1,10.61-2.1c1.32,0,3.66,2.28,3.88,3.76a184.54,184.54,0,0,1,1.93,21.28c.11,4.28-2.52,6.19-7.46,6-8.3-.23-16.6-.86-24.9-1.21-16.77-.72-33.54-1.35-50.31-2-6.14-.25-12.28-.54-18.42-.91a22.87,22.87,0,0,1-3.73-.84Z"/><path d="M1304,409.64c3.77.7,8.57,1.21,13.14,2.54,5.14,1.5,5.84,3.23,5.14,8.57-.94,7.06-1.42,14.21-2.86,21.17a29.2,29.2,0,0,1-4.94,11.17,15.18,15.18,0,0,1-23.5,1.12,41.34,41.34,0,0,0-11-8.31c-2.74-1.53-5.65-3.14-7.7-5.43a19.25,19.25,0,0,1-4.63-8.42c-1.31-6.4,1.67-9.38,8.16-9.2,2.07.06,4.15.22,6.22.33,0-1.95.06-3.9.11-5.84.09-3.31,2.48-4.41,5.09-5.27a18.05,18.05,0,0,1,3.34-.93C1294.69,410.61,1298.81,410.2,1304,409.64Zm-18.85,34.6c-.61-3.8-1.32-6.52-1.42-9.26-.16-4.51-3.37-6.37-6.73-7.55-1.61-.57-4.24.18-5.75,1.26-2.13,1.52-1.18,3.87,0,5.78C1274.36,439.27,1279,441.86,1285.15,444.23Z"/><path d="M862.54,135c13.83,0,27.65.11,41.48-.08,3.45,0,4.52.87,4.49,4.4-.1,10.5-4.18,15.11-14.66,15.18-21,.13-42,.05-63,0a23.1,23.1,0,0,1-5-.54c-6.1-1.36-9.27-5.4-9.3-11.65,0-7.33,0-7.33,7.43-7.33Z"/><path d="M734.59,161.4c4.4,1.37,8.93,2.43,13.15,4.22a8.48,8.48,0,0,0,7.38.1,43.5,43.5,0,0,1,13.35-3.46c12.43-.74,21.52,10.25,19.52,22.55-1,6-3.17,11.2-7.53,15.31-2.21,2.09-2.56,4-1.21,6.54a22.79,22.79,0,0,1,1.4,3.73c.59,1.85.17,3.66-1.84,3.84-1.31.12-2.76-1-4.08-1.75-.31-.17-.3-.91-.47-1.38-1.65-4.49-1.45-4.25-5.92-2.68-11.34,4-22.84,4.09-34.06-.29-3.41-1.33-4.49-.51-5.24,2.51-.24.95-.53,2.24-1.22,2.63-1.17.65-2.91,1.29-4,.85s-1.26-2.24-1.83-3.45c0-.1.11-.31.2-.44,3.47-5.22,1.23-9-2.32-13.37-4.9-6-6.05-13.48-4.22-21.18C717.58,167.71,725.5,162,734.59,161.4Zm16.93,44.73c5.14-1.29,10.1-2.46,15-3.8,2.58-.7,3.62-2.3,1.86-4.77q-7.21-10.07-14.48-20.09c-1.55-2.13-3.1-1.86-4.86,0a89.17,89.17,0,0,0-14.52,20.08c-1.44,2.77-.45,4.1,2,4.78C741.43,203.69,746.39,204.85,751.51,206.13Zm-16.33-38A13.73,13.73,0,0,0,721,181.61a19.31,19.31,0,0,0,4.15,11.53c2.38,3.26,2.47,3.16,4.67,0,4.62-6.68,9.29-13.33,14.2-19.8,1.28-1.69.86-2.43-.6-2.91C740.46,169.43,737.39,168.74,735.18,168.15Zm46.7,15.93c-.28-7.36-2-11.77-7.09-14.3-5.41-2.71-10.62-1.31-15.7,1-.36.16-.47,2.18,0,2.61,6.08,5.82,10.52,12.8,14.39,20.16,1.25,2.38,2.58,2.73,3.82.39C779.27,190.2,780.88,186.28,781.89,184.08Z"/><path d="M613,190.43c-1.51,4.37-2.7,8.89-4.64,13.06a25.16,25.16,0,0,1-5.6,7.49c-5.35,5-10.89,3.74-13-3.22a56.08,56.08,0,0,1-2.62-15.65c-.06-16.45.35-32.9.87-49.34a25.48,25.48,0,0,1,2.37-9.1c2.11-4.82,6.19-5.87,10.65-3,4.7,3,7.34,7.64,9,12.76.3.9-.81,2.51-1.62,3.49-3.15,3.83-6.56,7.47-9.61,11.37-.68.87-.31,2.57-.42,3.88,1.18-.33,2.6-.35,3.48-1,3.51-2.77,6.85-5.75,10.27-8.67,2.61,5.4,2.13,7.26-1.62,11.06a100.87,100.87,0,0,0-8.65,10.28c-.7.93-.37,2.62-.52,4,1.19-.31,2.61-.31,3.53-1,3-2.25,5.9-4.75,9.62-7.81,0,3-.08,5.28,0,7.5s-.75,3.4-2.41,4.93a90.8,90.8,0,0,0-9.46,10.84c-.59.75-.13,2.33-.15,3.53a12.39,12.39,0,0,0,3.17-.79c2.49-1.38,4.86-3,7.28-4.46Z"/><path d="M935.66,585.84l54.62,13.38c3.87.95,7.72,2,11.64,2.7,2.89.51,4,1.89,3.63,4.74-.79,6.59-1.49,13.2-2.26,20.16-12.13-2.8-24-5.55-35.94-8.31-6.95-1.61-13.86-3.35-20.83-4.86-3.42-.74-5.34-2.19-6-6C939.36,600.62,937.47,593.73,935.66,585.84Z"/><path d="M546.83,201.07c-15.19-1.09-29.63-2.12-44.07-3.18-6.48-.47-12.94-1.13-19.42-1.42-1.4-.06-3.53.66-4.16,1.72-3.69,6.19-9.87,7.87-16.11,8.56s-12.65,1-18.72-1.48a31.06,31.06,0,0,1-5.39-2.54c-6.56-4.31-6.7-11.9.12-15.78,11.58-6.6,23.52-6.29,35.33-.3a6.78,6.78,0,0,1,3,2.54c2.18,4.38,5.77,3.88,9.74,3.62Q519,190.67,550.88,189c2.95-.16,5.94.66,8.92.8,3.25.16,4.2,1.79,4.12,4.87-.08,2.84-.56,4.92-3.9,5.19C555.39,200.21,550.77,200.7,546.83,201.07Z"/><path d="M1358.17,293.06q19.22,0,38.44,0c5,0,4.67,0,5.08,4.77.82,9.65-5.16,13.7-12.06,13.82-21.12.37-42.26.5-63.38-.09-8.75-.24-12.07-5.17-11.88-14,.09-4.47.09-4.5,4.85-4.51Q1338.7,293,1358.17,293.06Z"/><path d="M911.61,519.54c-.33,7-2.31,12.17-6.53,16.32-3.69,3.63-8,5-13.2,3.48-7.31-2.16-14.23-4.69-17.5-12.55-.36-.86-2.09-1.65-3.16-1.63a129,129,0,0,0-13.41.88c-1.22.15-2.47,1.39-3.38,2.42-1.83,2.08-3.92,3.12-6.61,2.19-2.9-1-4-3.15-3.9-6.21a16.44,16.44,0,0,0-.61-4.35,6.12,6.12,0,0,1,3.1-7.2c2.7-1.6,4.91-.64,7.17,1.36a10.55,10.55,0,0,0,5.09,2.19c2.1.35,4.31,0,6.47,0,5.51,0,10.25-.42,14.22-5.83,4.14-5.64,10.78-8.67,18.15-9.23,5.85-.45,10.19,2,11.95,7.56A90.23,90.23,0,0,1,911.61,519.54Z"/><path d="M907.64,42.7c-.64,3.23-1.24,6.47-1.93,9.69-1.12,5.26-3.48,6.75-8.88,5.41-6.11-1.51-12.17-3.26-18.28-4.77-20.11-5-40.24-9.88-60.36-14.86-1.82-.45-3.55-1.21-5.33-1.83l.18-1a54.67,54.67,0,0,1,6.58-1.13c9.29-.49,18.59-.9,27.89-1.16,1.4,0,2.81,1,4.25,1.36a3.53,3.53,0,0,0,1.9,0c1.8-.56,3.54-1.67,5.36-1.81,7-.52,13.93-.67,20.89-1.1,5.11-.31,5.1-.4,6.35,4.92.53-.72.9-1.18,1.22-1.68.75-1.18,1.46-2.39,2.19-3.58l2,3.41c2.3-3.76,9.23-6,13.26-3.88a5.63,5.63,0,0,1,2.46,3.78,62.33,62.33,0,0,1,.09,8.46Z"/><path d="M1363.4,475.57c.72-3.22,1.42-6.62,2.25-10,.67-2.74,1.44-5.45,2.25-8.15,1.85-6.18.54-11.78-2.85-17.1-3.27-5.14-8-9.45-8.9-16-.1-.73-1.82-1.13-2.54-1.91s-1.91-2.65-1.71-2.84c2-2,4.48-5.49,6.44-5.27,4.62.52,8.6-2.23,13.18-1.37,3.38.64,7-.15,10.47.2a74.81,74.81,0,0,1,11.13,2.15c2.25.58,2.72,2.93.71,4.06-2.21,1.24-2.09,2.93-2.56,4.87a31.68,31.68,0,0,1-3.42,9.21c-6.26,10-8.13,20.14-2.51,31.15a46,46,0,0,1,3.53,10.88,13.29,13.29,0,0,1-3.25,12.55,12.07,12.07,0,0,1-20.57-4.36A67.2,67.2,0,0,1,1363.4,475.57Zm11.1-54.69v.07c-2.16,0-4.33-.12-6.48,0-2.65.18-5,1.43-5.15,4.2-.19,4.63,5.28,9.64,10.22,9.94,6.21.37,11.59-3.59,12.54-9,.54-3.12-.74-4.84-3.67-5.16A68.51,68.51,0,0,0,1374.5,420.88Zm2,55.76a5.39,5.39,0,0,0-5.17,5.6c0,3.31,2.79,6.37,5.8,6.35a5.73,5.73,0,0,0,5.42-6A5.89,5.89,0,0,0,1376.52,476.64Zm1.92-60.08c-.35-.05-.64-.1-.93-.13a3.48,3.48,0,0,0-.45,0,1.42,1.42,0,0,0,.47.21A6.45,6.45,0,0,0,1378.44,416.56Z"/><path d="M923,159.18c4.65,0,9.32-.35,13.93.09,6.16.58,11.19,8.5,9.51,14.39-.16.56-.58,1.35-1,1.47-3.55,1-3.48,4-4,6.75-2,10.83-3.46,12.1-14.35,12-5.47,0-10.94-.34-16.4-.54-3.3-.12-5.17-2-6-5-.69-2.56-1.23-5.17-1.87-7.74s-.75-5.22-3.77-6.5c-.75-.32-1.32-1.85-1.39-2.87-.32-4.48,3.58-10.46,8-11.25,5.67-1,11.5-1.15,17.26-1.66Z"/><path d="M937.26,515.26c-.95-.85-1.94-1.66-2.83-2.56-9.1-9.24-18.13-18.56-27.33-27.7a11.47,11.47,0,0,1-3.69-8.86c.12-7.48,0-15,0-22.46a6.77,6.77,0,0,1,.11-2.47c.74-1.75,1.71-3.4,2.58-5.09a27,27,0,0,1,4,2.68c9.45,9.12,18.82,18.33,28.25,27.48,1.76,1.71,3,3,1.27,5.83-1.12,1.8-1.06,4.48-1.09,6.77-.11,8.63,0,17.27,0,25.9Z"/><path d="M37.77,95.65c-1-.87-1.95-1.7-2.86-2.61-8.93-9-17.78-18-26.8-26.84a11.78,11.78,0,0,1-3.82-9.29c.17-8,0-16,0-24A13.21,13.21,0,0,1,4.71,29C5.64,26.1,7,25.7,9.28,27.86q15.42,14.92,30.65,30a4.46,4.46,0,0,1,.7,3.27c-.34,2.92-1.34,5.81-1.41,8.72-.2,8.46-.07,16.92-.07,25.38Z"/><path d="M633.5,476.56c.19,10.85-7.87,20.19-16.35,19.24-7.52-.85-14.16-4.16-18-11.08-1.47-2.68-3-3.55-5.78-3.42s-5.65.06-8.48,0c-2.39,0-4.41.16-6,2.6-1.35,2.13-3.81,2.45-6.26,1.48s-3.29-3-3.26-5.58a38,38,0,0,0-.38-4.83,5.66,5.66,0,0,1,3.12-6.21c2.42-1.3,4.69-.93,6.23,1.16s3.66,2.55,6.08,2.43a30.68,30.68,0,0,1,5,0c5.91.67,10.66-.57,14.93-5.45,4-4.53,9.75-6.86,16-7.13,6.5-.28,10.49,2.63,11.93,8.9C633,471.59,633.23,474.6,633.5,476.56Z"/><path d="M125.75,53c-3.86,0-6.38-2.35-6.36-6.67,0-2.28-.52-3.06-2.76-3.66-4-1.07-5.38-3.3-4.49-7.4.42-1.94-.28-2.36-1.64-2.82-3.68-1.25-5.6-3.63-4.45-7.6.54-1.85-.19-2.43-1.75-2.72a3.87,3.87,0,0,1-.94-.32c-3.73-1.78-5.19-5-3.63-8,1.43-2.76,6-4.45,8.67-2.44s4.34,2.25,7.11.1c2.36-1.82,5.55-1.15,7.87.83,1.56,1.34,2.4,1.43,4.09.07,3-2.46,6-2.53,9.05,0,1.73,1.43,2.5,1.12,4.1,0a9.52,9.52,0,0,1,5.07-1.58,5.3,5.3,0,0,1,5.68,4.6c.5,2.77-.62,5.14-3.23,6.08s-3.58,1.91-2.86,4.92C145.93,29,144,31,141.47,32c-1.78.73-3.1,1.06-2.23,3.82,1,3.13-.85,5.75-4.41,6.68-2.53.66-3,1.77-3,4.1C131.78,50.73,129.43,53,125.75,53Zm1.3-15.79-1.32-3.83a13.88,13.88,0,0,0-1.11,3.6,16.15,16.15,0,0,0,.81,3.9Zm6.26-13.95c-.5-.32-.89-.77-1.24-.75s-.7.51-1,.8a5.18,5.18,0,0,0,1.27,1C132.45,24.37,132.89,23.71,133.32,23.25ZM131.9,29c-.28.55-.69,1-.62,1.33s.59.64.91,1c.28-.43.73-.84.79-1.3C133,29.74,132.37,29.41,131.9,29Zm-12.17,1.07a5.75,5.75,0,0,0-1.43-.53c-.15,0-.55.59-.48.72a4.39,4.39,0,0,0,.89.91ZM119,22.35c-.44.41-1,.67-1,1a.85.85,0,0,0,1.67.18C119.74,23.2,119.3,22.82,119,22.35ZM126.91,20c-.72-.56-1.22-1.11-1.35-1a6.15,6.15,0,0,0-1.19,1.16c.32.25.67.74,1,.71C125.78,20.83,126.2,20.44,126.91,20Zm12.16,0c-.15-.24-.24-.58-.46-.68s-.47.15-.72.24l.59.95Zm-27.38.13.75.4c.11-.26.35-.57.28-.76s-.45-.31-.7-.46Z"/><path d="M391,23.58a38.19,38.19,0,0,1-4.8,1.07c-.88.09-2.22-.16-2.6-.74a2.76,2.76,0,0,1,.34-2.67,73.68,73.68,0,0,1,6.56-5.1A14,14,0,0,1,393.14,15c-1.79-3.11,1-3.44,2.68-4.54C398,9,400,7.28,402.32,6c.83-.47,2.13-.12,3.21-.15,0,1.12.51,2.73,0,3.26-1.94,1.86-4.27,3.32-6.39,5a26.77,26.77,0,0,0-2.32,2.33c1.12.32,2.29,1.05,3.34.9,15.66-2.36,27.48,9.92,24.46,25.69-1.25,6.52-5.59,10.3-11.81,12.18-6.69,2-12.17-.15-16.59-5.08C389.15,42.27,388.16,36.71,391,23.58Zm4.69-4.8-.69-.4a2,2,0,0,0-.19.82c0,.16.4.24.61.36Z"/><path d="M190.45,208c-3,0-6-.09-9,0-2.06.08-3.23-.62-3-2.79.3-3.3-1.51-5-4.14-6.63A28.66,28.66,0,0,1,163,186.32a16.58,16.58,0,0,1-1.49-4.71c-.64-4.62,1.36-9.72,8.22-8.76,1.79.25,4.39,1.2,3.5-2.56-.07-.28,1.29-1.3,2-1.31,10-.09,19.94,0,29.9-.08,2.39,0,2.81,1.28,2.49,3.19a29.81,29.81,0,0,1-1,4.37c-2.74,8.43-3.6,17.1-3.81,25.92-.13,5.59-.42,5.59-5.9,5.6Zm-13.3-13.18,1.48-.54c-1-4.45-1.81-9-3.22-13.33-.85-2.62-6-4.41-8.12-3.43s-2.37,3.83-.3,7.48A24.37,24.37,0,0,0,177.15,194.79Z"/><path d="M1263.11,473.13c.25,0,1-.1,1.21.18,3.38,3.63,6.46,1.81,10.09.17,1.51-.68,4.39.72,6.19,1.89,1.55,1,2,1.22,3.51-.16,3.2-3,6-3.06,9.3-.16,2,1.71,2.77,1.08,4.4-.18,3.76-2.89,7.82-2.12,9.78,1.55,1.75,3.28.49,6.78-3.61,8.34-2.15.82-2.24,1.47-1.82,3.51a5.52,5.52,0,0,1-3.82,6.69c-2,.71-2.93,1.18-2.21,3.78.91,3.24-.68,5.24-4.54,6.46-2.06.65-2.84,1.38-2.8,3.73.06,4.39-2.54,6.95-6.17,6.83a6.28,6.28,0,0,1-6.12-7c.19-2.19-.3-2.75-2.29-3.32-4.58-1.31-5.15-2.55-4.92-7.56a3,3,0,0,0-1.47-2.37c-3.82-1.46-5.76-3.81-4.52-8,.83-2.84-1.73-2.22-3-2.84-3-1.52-4.49-4-3.78-6.76A6.64,6.64,0,0,1,1263.11,473.13Zm20.32,26.39.53-.23-1.56-3.36c-.25,1.13-.55,2.26-.75,3.4a4.47,4.47,0,0,0,0,2,12.6,12.6,0,0,0,1.18,2.23,10.82,10.82,0,0,0,.75-2A8.43,8.43,0,0,0,1283.43,499.53Zm7.05-13.55c-.66-.4-1.2-.9-1.36-.8a2.61,2.61,0,0,0-1,1.27c-.06.17.76.89.9.82A7.45,7.45,0,0,0,1290.48,486Zm-.06,7.1-1.24-1.1c-.29.33-.79.66-.79,1s.54.75.9.81S1289.94,493.4,1290.42,493.08Zm-13.26-7.18c-.62-.3-1.07-.71-1.37-.62s-.52.66-.77,1c.38.24.76.69,1.12.67S1276.72,486.39,1277.16,485.9Zm5.1-2c.47-.41,1-.66,1.06-1s-.27-.84-.44-1.26a5.77,5.77,0,0,0-1.35,1C1281.43,482.73,1281.93,483.33,1282.26,483.9Zm-12.64.06.71-1.27c-.38-.2-.79-.6-1.14-.55s-.52.59-.78.92Zm25.76-2.4c-.33.42-.76.71-.76,1s.34.76.54,1.15l1.26-1Zm-19,11.75c-.1-.28-.12-.67-.31-.8s-.51.14-.78.23l.35,1Z"/><path d="M125,379a21.09,21.09,0,0,1-5,12.42c-3.87,4.58-8.61,6.49-14.65,4.34s-11.71-4.72-14.66-11a3.31,3.31,0,0,0-2.56-1.41c-4.14.05-8.3.21-12.42.65A5.5,5.5,0,0,0,72.66,386a5.61,5.61,0,0,1-6.3,1.8c-2.45-.68-3-2.73-3-5.12a48.3,48.3,0,0,0-.62-4.89c-.25-2.47.29-4.56,2.67-5.93A4.44,4.44,0,0,1,71.61,373c1.6,2.1,3.51,2.18,5.72,2.09,2-.08,4,0,6,0,4.69,0,8.6-.68,12-5a22.32,22.32,0,0,1,17.44-8.37c5.24-.1,8.1,1.71,9.78,6.71C123.71,371.85,124.24,375.47,125,379Z"/><path d="M520.42,575.63c-9.14,0-18.28,0-27.42,0-4.19,0-4.56-.63-3.48-4.75,2.13-8.06,7.64-13.39,15-16.19,13.59-5.17,26.74-4.1,38.58,5.1,3.88,3,6.78,6.78,7.8,11.79.78,3.83.77,4-3.07,4.06C538.7,575.67,529.56,575.63,520.42,575.63Z"/><path d="M1163.87,208.85c-7.64,0-15.29-.12-22.93.06-3.13.07-4.58-.73-4.38-4.14.24-4.14.14-8.31,0-12.46-.07-2.46.38-4.31,3.3-4.46a1.89,1.89,0,0,0,.49-.11c4.2-1.39,9.2-1.18,13.62-.16,9.07,2.1,18.06,2.39,26.74-1.94a6.49,6.49,0,0,1,4-.11c1.42.33,2.66,1.45,4.08,1.79,2.38.56,3.17,1.87,3.11,4.22-.12,4.48-.17,9,0,13.46.12,3.14-1.23,4-4.16,3.91C1179.82,208.76,1171.84,208.85,1163.87,208.85Z"/><path d="M1167,488.16c-32.17.26-52.53-26.6-51.92-52.93,0-1.38.73-3.43,1.74-3.95,2.28-1.17,3.56.12,3.67,3.22.4,11,3.37,21.13,10.71,29.39,12.74,14.35,28.74,20.71,47.57,15.45,18.67-5.21,30.39-17.78,34-37.23a55.55,55.55,0,0,0,.9-7.92c.07-1.86,0-3.17,2.54-3.17,2.27,0,3,1.2,3.05,3a54.23,54.23,0,0,1-3.27,20.53C1208.24,475.32,1189.49,488.16,1167,488.16Z"/><path d="M731.23,512c13.42,1,26,1.9,38.66,2.8,4.48.32,9,.69,13.46.78a4.84,4.84,0,0,0,3.4-1.45c5.86-7,13.79-7.5,21.85-6.63a27,27,0,0,1,10.68,3.69c5.6,3.37,5.29,8.76-.21,12.32-9.28,6-24,4.48-32.32-3.14a6.78,6.78,0,0,0-4.45-1.4c-7.31.29-14.61.89-21.92,1.28q-16.94.91-33.89,1.66a33.64,33.64,0,0,1-4.46-.41c-2.81-.25-4-1.6-3.82-4.58.12-2.79,1.25-3.82,3.9-4C725.41,512.78,728.71,512.31,731.23,512Z"/><path d="M1021.56,214.89c-3.81-.93-7.83-1.37-11.39-2.88-11.7-5-15.6-12.64-13.18-25.13,2.16-11.17,8.22-19.89,17.51-26.23,6.9-4.71,14.34-5.28,21.43-.4,14.17,9.75,18.36,25.4,10.64,40.64C1041.54,210.8,1032.53,214.43,1021.56,214.89Zm16.3-37.34c.1-9.3-2.26-14.29-7.27-16.81-5.45-2.74-10.48-.72-15,2.29-11.59,7.74-16.89,18.83-16.1,32.68.45,7.87,5.92,12.47,13.71,11.54a19,19,0,0,0,8.3-3A37.93,37.93,0,0,0,1037.87,177.55Z"/><path d="M609.49,433.72a16.51,16.51,0,0,1-4.67,12.76c-2.33,2.43-3.64,4.65-1.69,7.83a2.9,2.9,0,0,1,.54,1.89c-.24,1-.84,2.73-1.28,2.73a6.34,6.34,0,0,1-3.23-1.37c-.43-.3-.43-1.21-.64-1.84-.69-2.06-2-2.32-3.89-1.53a35.24,35.24,0,0,1-27.22,0c-2.05-.82-3.13-.44-3.8,1.57a4.1,4.1,0,0,1-.8,1.81c-.78.67-1.91,1.61-2.66,1.44s-1.8-2-1.55-2.45c3.2-5.52-.87-9-3.15-13.2a22.23,22.23,0,0,1-2.61-10c-.09-10.6,9.16-17.62,19.56-14.16a25.62,25.62,0,0,0,17.41,0C601.12,415.49,610.53,424.49,609.49,433.72Zm-28.37,18.76c4-1,7.86-1.88,11.69-2.89,2.09-.55,2.62-2,1.38-3.73q-5.44-7.72-11-15.32c-1.53-2.08-3.23-1.51-4.48.25-3.64,5.13-7.15,10.35-10.7,15.54-1.32,1.93.06,2.85,1.54,3.27C573.33,450.68,577.21,451.53,581.11,452.48Zm-18.56-8.36,13.16-18.3c-5.8-4.06-12.74-3.5-16.4,1.49S557.36,440.41,562.56,444.12ZM593.94,423c-1.36.32-3.33.66-5.21,1.26-2.12.68-3,1.53-1,3.77,2.94,3.33,5.38,7.1,8,10.67,1.42,1.9,2.85,3.8,4.27,5.7,1.35-2.42,2.84-4.79,4-7.3a8.82,8.82,0,0,0,.58-3.88A10.44,10.44,0,0,0,593.94,423Z"/><path d="M669.32,30.75c-.2-3.72-2.53-6-5.34-8-6.31-4.38-13.62-6.28-21-7.5-22-3.64-44-3.81-65.86.94a74.25,74.25,0,0,0-15.38,5.63c-3.81,1.78-6.91,4.7-6.37,9.76-7.49-4.29-7.9-10.19-1.13-14.71,7.64-5.1,16.46-7,25.29-8.57,25.56-4.57,51-4.1,76.18,2.53,5.78,1.52,11.53,3.34,16.08,7.54,4.71,4.36,3.79,9.58-2.14,12.71Z"/><path d="M1177,95.22c1.69-2.77,1.67-2.7,4-2,.37.11,1.08-.66,1.52-1.13a7.24,7.24,0,0,1,11.71,1.65c.45.89,2,2,2.72,1.83,4.1-1.14,5.69,1.89,7.5,4.31,1.06,1.4.85,2.93-1.53,2.93-.83,0-1.67-.06-2.5,0-2,.06-4.38-.49-5.79.45-1.08.72-.87,3.34-1.31,5.09-.73,2.87-2.62,4-6.09,3.5-8.86-1.31-17.7-2.72-26.56-4.06-11.17-1.69-22.36-3.33-33.53-5a16.67,16.67,0,0,1-6.62-2.28,9.12,9.12,0,0,1,2.44-1.18c7.55-1.12,15.08-2.51,22.68-3.11,8.93-.71,17.61-2.89,26.5-3.78C1174.26,92.13,1176.49,91.14,1177,95.22Zm17.8,2.6,0,1.44,4.51-.29v-.58Z"/><path d="M509.62,590c-3.82.1-7.64.35-11.46.24-4-.11-4.54-.86-4.33-4.74a5.31,5.31,0,0,0-.25-2.25c-1.92-4.63-1.46-5.45,3.59-5.51,6-.08,12,0,18,0,9.15,0,18.3,0,27.46,0,5.65,0,6,.54,3.87,5.77a3.53,3.53,0,0,0-.37.89c-.15,1.68.32,4.37-.49,4.84-1.71,1-4.09.86-6.21,1.07a29.67,29.67,0,0,0-4,.33c3,0,6-.05,9,0,2.07,0,3.55.91,3.5,3.28s-1.42,3-3.61,3q-24.21-.07-48.42,0c-1.9,0-3.3-.52-3.46-2.66s1-3.44,3.19-3.59c4.63-.31,9.27-.53,13.9-.79l17.94,0c2.78,0,3.83-1.32,3.18-4.34-.12-.57-1-1-1.48-1.47-.48.52-1.28,1-1.38,1.56a33.12,33.12,0,0,0-.21,4.38c-4,.1-8,.24-11.93.27-2,0-3.56-.65-4-2.91a27.76,27.76,0,0,0-1-3.18,34.79,34.79,0,0,0-1,3.37A13.18,13.18,0,0,0,509.62,590Z"/><path d="M1071.71,190.21a12.08,12.08,0,0,0-2.3-2.29c-2.55-1.44-4-3.27-3.64-6.42a3.63,3.63,0,0,0-1.64-2.73c-3.74-2.23-5-4.8-3.39-7.49s5.15-3.32,8.35-1.15c1.8,1.22,2.76.9,4.28-.14,3.35-2.3,5.92.15,9,1.11,2.18.67,5.3-3.79,8.5-1.53,2.38,1.68,3.85,1.61,6.25,0a5.34,5.34,0,0,1,7.66,2.25c1.39,2.61.48,5-3,6.68-1.6.77-2.37,1.25-1.86,3.24.72,2.81-.73,5-3.34,5.85-1.91.65-2.67,1.27-2.22,3.44.55,2.63-.84,4.58-3.37,5.34-1.82.55-2.63,1.12-2.6,3.34.06,3.85-2,5.88-5.18,6-3.34.14-5.86-2.1-5.75-6,.07-2.35-.87-2.77-2.64-3.25C1072.08,195.69,1070.93,193.67,1071.71,190.21Zm12.55-1.5a6.1,6.1,0,0,0-1.83-.5c-.25,0-.44.65-.66,1a4.3,4.3,0,0,0,1.38.72C1083.39,190,1083.71,189.35,1084.26,188.71Zm-1.42,4.25c-.38.45-.84.77-.85,1.09s.52.76.81.77.86-.46.86-.72S1083.22,193.44,1082.85,193Zm6.44-12.8c-.14-.26-.24-.68-.45-.75s-.55.18-.84.29l.65,1Zm.18,5.3a4.07,4.07,0,0,0-1.08-.42c-.13,0-.46.6-.42.64a6.76,6.76,0,0,0,1,.7Zm-6.29-8.08c-.12-.25-.19-.61-.38-.7s-.49.13-.75.21c.11.24.17.63.34.69S1082.9,177.46,1083.17,177.38Zm11.32-.63L1094,176c-.18.22-.51.43-.52.65s.28.48.44.72Zm-22.69.63c-.06-.13-.13-.37-.18-.36a4.6,4.6,0,0,0-.7.19,4.31,4.31,0,0,0,.58.42S1071.7,177.47,1071.8,177.38Zm5.78,2.73c-.13-.25-.2-.63-.4-.7s-.49.19-.74.3l.64,1Zm-.7,5.07a3.55,3.55,0,0,0-.23.73c0,.09.21.2.32.3l.51-.65Z"/><path d="M1243.66,430.73c1,2.25.71,4.7,4.19,5.34,2.72.5,2.95,3.24,2.56,5.73-1.37,8.7-2.79,17.39-4.08,26.11-1.65,11.16-3.18,22.33-4.81,33.49-.26,1.78-.78,3.52-1.18,5.28l-1.08.11c-.62-3-1.32-5.93-1.83-8.92-.81-4.75-1.89-9.51-2.15-14.3-.51-9.45-3.25-18.55-3.92-28-.17-2.37-.57-4.2,3.73-3.35-5.81-3.69-5.8-8.84-6.24-13.45-.29-3,2.59-3.67,5.37-3.74,4.29-.12,4.29-.24,3.84-4.9l-2,3.51-1.09-.14c0-1.85-.63-4.05.17-5.46.9-1.6,3-2.55,4.73-3.6.2-.12,1.59.91,1.62,1.46.17,2.92.08,5.85.89,9Z"/><path d="M677.63,425c1.69-.78-.25-5.64,4.09-2.82,1,.65,3.75-1.93,5.82-2.28,5.18-.88,6.34.22,6.32,5.35q0,5.74-.31,11.48c-.2,4.08-2,5.58-6.1,5-6.4-1-12.77-2-19.17-3-13.8-2.14-27.61-4.24-41.41-6.4-2.05-.32-4.07-.85-6.11-1.28v-1.11c2.66-.57,5.31-1.3,8-1.69,6.24-.91,12.49-2.21,18.75-2.29,4.18-.06,7.95-1.43,11.95-1.9,4.29-.5,8.56-1.13,12.84-1.75C675.71,421.73,675.7,421.69,677.63,425Z"/><path d="M77.26,309c7.33,0,14.67.07,22,0,2.58,0,3.56.75,3.3,3.47A26,26,0,0,1,83.5,335.54,25.59,25.59,0,0,1,56,325.91,23,23,0,0,1,51.46,313c-.16-3.11.69-4.14,3.8-4.07C62.59,309.09,69.93,309,77.26,309Zm22,5.33,0-1.29c-1.18-.61-2.45-1.83-3.53-1.68-1.32.19-2.47,1.52-3.7,2.36,1.18.68,2.32,1.79,3.55,1.91S98,314.79,99.27,314.31ZM87.39,326.87l-.12-1.25c-1.43-.52-2.88-1.47-4.29-1.41-.9,0-1.74,1.55-2.61,2.4,1.16.74,2.3,2,3.5,2.07S86.21,327.53,87.39,326.87Zm-10.15-9.61-3.18,3.19c1.14.73,2.29,2,3.43,2s2.33-1.3,3.5-2Zm6-.76,3.39-2.94c-1.14-.79-2.27-2.2-3.41-2.2s-2.33,1.38-3.49,2.15Zm6.31,7,3.08-3.34c-1.13-.7-2.28-1.95-3.4-1.94s-2.3,1.26-3.44,2ZM74.86,314.2l0-1.34c-1.36-.54-2.77-1.59-4.08-1.47-1.06.1-2,1.59-3,2.47,1.19.63,2.35,1.69,3.57,1.76S73.68,314.71,74.86,314.2Zm-16.17,2.43,3.52-2.75c-1-.87-2.07-2.49-3-2.44-1.3.06-2.54,1.41-3.8,2.21Zm6.45,6.75,3.52-3c-1.1-.77-2.2-2.14-3.32-2.15s-2.38,1.27-3.56,2Zm9.79,3.6-.05-1.3c-1.39-.53-2.78-1.49-4.15-1.46-1,0-2,1.34-3,2.09,1.22.85,2.37,2.2,3.69,2.4C72.5,328.85,73.76,327.6,74.92,327Z"/><path d="M162.92,59.08c5.16,0,10.32.1,15.48,0,2.89-.08,4.88,1.08,5.86,3.66s0,4.38-2,6.19A7.88,7.88,0,0,0,180.42,73a21.67,21.67,0,0,0-.06,5.48c.21,2.68-1.05,3.45-3.54,3.42-9.32-.08-18.65-.12-28,0-2.72,0-3.51-1.06-3.33-3.53a18.56,18.56,0,0,0-.06-5,10.92,10.92,0,0,0-2-4.68c-1.63-2-2.59-3.87-1.58-6.34,1.09-2.68,3.21-3.48,6-3.41C152.93,59.17,157.92,59.07,162.92,59.08Z"/><path d="M487.63,452.35c.52-12.71,6.34-22.46,17.18-29,4.93-3,10.47-3.45,15.73-.57,9.69,5.3,15.16,13.53,14.76,24.66-.38,10.58-5,19-15.59,22.69s-20,1.82-28.2-5.81C488,461.08,487.21,456.94,487.63,452.35Zm2.49,1.05c-.1,3.15.35,8,4.87,10.66,4.71,2.79,9.68,1.73,14.17-1a24.29,24.29,0,0,0,5.72-4.72c6.5-7.53,10.8-15.91,8.73-26.3-1.46-7.31-6.81-10.41-14-8.29C499,426.84,490.41,439.22,490.12,453.4Z"/><path d="M872.9,176.21a16.1,16.1,0,0,1-4.17,10.53c-2.87,3.16-6.22,4.7-10.69,3.4-5.09-1.47-9.82-3.2-12.35-8.36a4.34,4.34,0,0,0-1.54-1.86c-1.94-1.09-11.9.81-13.74,2-1.5,1-3.65,2-5.17,1.58-1.14-.28-1.9-2.67-2.53-4.24a7.65,7.65,0,0,1-.62-3.84c.24-1.51.71-3.58,1.79-4.22,1.3-.77,3.94-1,4.95-.21,5,4.08,10.59,1.3,15.85,1.76,1,.09,2.21-1.74,3.23-2.77,3.93-4,8.17-7.35,14.07-7.79,5.14-.38,8,1.35,9.4,6.2C872.12,170.94,872.4,173.61,872.9,176.21Z"/><path d="M862,112.88c-11.47,0-22.94.08-34.4-.08-1.83,0-4.17-.57-5.34-1.79-2.21-2.29-.34-6.68,2.91-7.42a18,18,0,0,1,4-.18q33.16,0,66.32,0a19.19,19.19,0,0,1,4.45.29,4.34,4.34,0,0,1,3.51,4.78,4.14,4.14,0,0,1-4,4.29c-2.8.25-5.65.11-8.47.11Z"/><path d="M236.73,128.35c-.63,5-.95,9.29-1.74,13.45a95.54,95.54,0,0,1-3.15,12c-.94,2.84-1.36,4.6,2.17,6.22,4.52,2.06,5.78,7.14,3.77,11.49-1.85,4-7.14,6.08-12,4.69a8.63,8.63,0,0,1-6.39-9.47c.4-3.41,2.18-6.15,5.31-7.3a5.59,5.59,0,0,0,3.86-4.65c1.6-8,3.25-15.89,4.57-23.89.49-3,1.17-6.74-4.17-6.18-.38,0-1.2-1-1.23-1.62s.65-1.72,1.08-1.75c3.07-.23,6.15-.3,9.23-.22.43,0,1.28,1.52,1.17,1.64-2.39,2.62.23,3.76,1.47,5.34,4.58,5.89,9.05,11.88,13.75,17.68a9.3,9.3,0,0,0,4.24,2.8c5.2,1.64,7.68,4.85,7.16,9.84a9.25,9.25,0,0,1-9.11,8.28,10.09,10.09,0,0,1-10-8.07c-.54-3.28.85-5.88,3.22-7.94,1.35-1.17,2.65-2.23,1.52-4.13C247.56,140,243.2,133.88,236.73,128.35Z"/><path d="M520.6,599c9,0,17.95.09,26.92-.05,2.86,0,4.19.51,4.06,3.8-.2,5.25-2.1,8-7.18,9.22a2.24,2.24,0,0,1-.48.11c-15.77,0-31.55.19-47.32,0-2,0-4.28-1.71-6-3.15-2.62-2.21-2.25-5.63-1.42-8.35.3-1,3.57-1.45,5.5-1.48C503.32,599,512,599.05,520.6,599Z"/><path d="M1114,485.74c-.55,1.93-.82,2.66-1,3.42-1.51,8.14-2.81,16.33-4.6,24.41-.51,2.33-.74,3.57,1.74,4.63,4,1.69,5.76,4.87,5.28,9.21a9.31,9.31,0,0,1-6.92,7.65c-4.2,1.23-7.54-.26-10.24-3.36-3.86-4.44-2.61-10.54,3.11-13.26a7.53,7.53,0,0,0,4.65-5.84c1.54-7.79,3.31-15.54,4.48-23.38.78-5.25-.08-5.87-6.18-6.69,1.1-1.11,1.78-2.43,2.6-2.53a46.06,46.06,0,0,1,7.81-.12c.49,0,1.42,1.41,1.34,1.51-2,2.47.46,3.54,1.52,5,4.65,6.24,9.3,12.49,14.09,18.62a6.13,6.13,0,0,0,3.47,2c4.58.85,7.64,3.73,8.14,8.08.46,3.95-2.38,7.91-6.7,9.33a9.74,9.74,0,0,1-11.35-3.88c-2.22-3.47-2.06-8.27,1.31-10.86,3.06-2.36,2.76-4.27.81-6.77C1123.12,497.39,1118.83,492,1114,485.74Z"/><path d="M1325.82,326.22c2.86-2.6,6.22-.94,9.37-1.09,2.92-.14,5.94.17,8.73-.49,10.56-2.5,18,.36,22.93,9.87a66.23,66.23,0,0,1,4.47,12.58c1.16,4.08,1.81,8.31,2.71,12.58-10.82,1.65-17.85-4.55-24-12.09a33.87,33.87,0,0,1-5.29-9.49c-2.66-7.17-7.32-11.2-15.11-11.34a27.12,27.12,0,0,1-3.93-.63Z"/><path d="M862.29,132c-11.82,0-23.64,0-35.46,0-4.29,0-6-1.7-5.08-5.21.39-1.41,2-2.75,3.44-3.52,1-.57,2.6-.22,3.93-.22h66.42c1,0,2,0,3,0,3.36.29,5.17,2.09,4.91,5-.29,3.15-2.29,4-5.2,4C886.26,132,874.27,132,862.29,132Z"/><path d="M1342.9,169.82c-1.91,3.77-.06,5.6,1.81,7.85,4.44,5.35,8.41,11.09,12.7,16.57.69.89,2,1.28,3,1.9,2.08,1.26,4.64,2.11,6.14,3.86a8.25,8.25,0,0,1-1.25,11.62c-3.57,2.88-10,2.49-13.36-.8-3.12-3.1-3.4-8.59.34-11.57,3.4-2.72,2.66-4.7.56-7.32q-5.9-7.34-11.77-14.69l-1,.28c-.48,3.62-.81,7.28-1.48,10.87-.82,4.38-1.73,8.76-3,13-.83,2.89-1.51,4.81,2.23,6.52,4.23,1.94,5.16,7.71,2.75,11.71a9.41,9.41,0,0,1-12.27,3.26,8.48,8.48,0,0,1-4-11.37c.77-1.53,2.1-3.3,3.59-3.84,3.11-1.13,4.39-3.32,5-6.2,1.51-7.47,3.14-14.93,4.34-22.45.44-2.76,1-6.53-4.17-5.74-.35.05-1.14-.75-1.17-1.19a1.72,1.72,0,0,1,1-1.35C1336,170.4,1339.08,170.17,1342.9,169.82Z"/><path d="M1295.2,118.08c-1.59,10.64-7.1,16.14-17.1,17.38-3.53.44-7,1.06-10.57,1.41-8.09.79-14.65-3.48-17.28-11.12a13.58,13.58,0,0,1-.7-2.87c-.23-2.08-.34-4.18-.5-6.27,2.38.22,4.86.1,7.12.74,5.08,1.45,8,5.47,11.46,9.92.34-1.64.65-3.29,1-4.92,1.08-4.67,2.87-9,7.6-11,1.41-.59,4.22-.61,4.85.25,1.42,1.92-.54,2.91-2.2,4-4.06,2.62-5.24,6.69-5,11.47C1279.19,119.44,1286.47,117.2,1295.2,118.08Z"/><path d="M1358.09,271.92c-11.14,0-22.27,0-33.41,0-4.11,0-5.18-1.07-5.24-4.32-.05-2.63,1.12-4.08,3.76-4.25,1.16-.07,2.32-.08,3.49-.08h62.83a39.61,39.61,0,0,1,4,.15c2.49.25,3.3,1.94,3.33,4.18s-1,3.87-3.34,4.23a26.66,26.66,0,0,1-4,.11Z"/><path d="M1357.54,290.51c-10.81,0-21.63.07-32.44,0-4.63,0-5.67-1.09-5.66-4.42,0-2.61,1.25-4,3.81-4.33a21.76,21.76,0,0,1,2.49-.1q32.44,0,64.88,0c4.68,0,6,1,6.19,4s-1,4.61-4.33,4.77c-4.65.23-9.31.1-14,.11h-21Z"/><path d="M303.84,147.29c-5.33,0-10.66-.13-16,0-3.11.1-4.76-.73-4.32-4.16.19-1.47-.18-3,.08-4.48.44-2.54-1.83-6.07,3.16-7,2.85-.55,5.11-1.85,8.4-.56a26.69,26.69,0,0,0,19.47-.11c5.43-2,9.44.46,9.48,6.13.08,10.17.08,10.17-10.29,10.17Z"/><path d="M191.84,450.09c1.39,2.79,2.14,5,3.43,6.75q5.54,7.66,11.48,15a9.63,9.63,0,0,0,3.81,2.58c3.38,1.38,6.35,3.06,6.89,7.09a7.47,7.47,0,0,1-5.06,8.22c-4.07,1.56-8.53.36-10.74-2.88-2-2.93-2-7.2.89-9.59,3.12-2.56,2.29-4.6.38-7-3.5-4.39-7.07-8.73-11.25-13.87-.54,2.12-.85,3.14-1.06,4.17-1.29,6.34-2.41,12.72-3.89,19-.59,2.49-1,4,2,5.45a7.1,7.1,0,0,1,3.58,9.67,8.67,8.67,0,0,1-10.25,5,8.25,8.25,0,0,1-6.12-9.08c.32-2.94,2.12-4.61,4.54-6.11,1.53-.95,3.32-2.53,3.69-4.13,1.68-7.25,3-14.58,4.19-21.93.37-2.31.64-5.3-3.39-5.15-.41,0-.85-.76-1.28-1.17.52-.52,1-1.42,1.57-1.5C187.84,450.34,190.46,450.2,191.84,450.09Z"/><path d="M776.78,111.45c-2.08,9.33-3.93,17.35-5.54,25.42-.14.69,1.12,1.92,2,2.51,3.69,2.48,5.3,6.18,4.06,9.79-1.33,3.87-5.13,6-9.6,5.27-3.42-.53-5.9-2.36-6.89-5.7a7.07,7.07,0,0,1,3.92-8.79c3.23-1.42,4.45-3.74,5.06-6.75,1.28-6.33,2.64-12.66,3.61-19,.4-2.63.94-6.12-3.84-5.64-.3,0-1-.89-.95-1.32a1.81,1.81,0,0,1,1.09-1.33c1.78-.24,3.6-.24,5.39-.36,2.87-.2,2.22,1.9,2.7,3.59.37,1.3,1.84,2.28,2.75,3.45,3.56,4.57,7.27,9,10.55,13.82,1.32,1.91,2.48,3.15,4.87,3.66,4,.85,6.18,3.68,6.25,7.31a8.19,8.19,0,0,1-6.25,8,8.33,8.33,0,0,1-9.52-3.6c-2-3.27-2.05-7.1.95-9.52s2.45-4.28.59-6.65C784.41,121,780.81,116.54,776.78,111.45Z"/><path d="M105.61,411c5.38,1.68,10.22,4,14.27,8.27,2.15,2.25,5.79,3,8.5,4.83,2.53,1.69,3.85,4,1.22,6.84l.06.14c-.48-.6-.88-1.63-1.46-1.74a38.14,38.14,0,0,0-8.35-1.13c-3.31.1-5.76-.64-7.07-3.86l4.68-1.33-.21-1c-2.75-.39-5.5-1.13-8.24-1.08-3,0-5.47-.35-7.45-2.91-.59-.76-2.16-.76-3.28-1.11l-.57,1.52c2.85,1.51,5.75,2.91,8.51,4.56a23.55,23.55,0,0,1,3.42,3l-6.15,5.07.09-.17c-3.67-.84-7.32-1.8-11-2.45-1.32-.23-2.78.32-4.18.51l.1-.09-2.16-.41,0,.14c-3.09.27-6.38,0-9.2.95-3.43,1.21-6,.86-8.74-1.36-1.23-1-2.8-1.62-5.27-3,7.71-2.47,14.12-5.45,19.5-10.22l-.11.07,2.32.72c8.08,2.58,16.33.7,20.65-4.71Zm-29,11c5.07,4.72,16.79,5.54,21.38,2,.65-.51.88-1.57,1.3-2.37-.92-.09-2.25-.62-2.71-.2-4,3.59-8.23,3.26-12.87,1.68C81.76,422.36,79.57,422.38,76.62,422Z"/><path d="M353.51,455.6a115.66,115.66,0,0,1,11.93.13,6.51,6.51,0,0,1,4.52,2.87c.52,1-1,3-1.5,4.63-.61,1.94-1.55,3.91-1.57,5.88,0,3-.79,4.56-4.19,4.46-6.46-.19-12.94-.14-19.41,0-2.83.05-3.82-1.12-3.68-3.85s.06-5.29-2.2-7.72-.53-6,3.16-6.27c4.29-.29,8.62-.07,12.93-.07Z"/><path d="M9.15,345.59c1.62-2.34,2.91-4,4-5.84.74-1.25,1.73-2.74,1.62-4-.33-3.94,1.39-4.77,5-4.62,6.48.27,13,.15,19.48,0,2.35,0,3.59.36,3.78,3.16.13,2,1.34,4,2.31,5.83s2.13,3.26,3.6,5.45Z"/><path d="M1324.91,467c1.9,0,3.8-.06,5.69,0,.57,0,1.52.37,1.63.75,1.9,6.79,8.49,10.38,11.29,16.59.54,1.19,2.57,1.8,4,2.46,4,1.83,5.45,5.26,3.55,8.86-1.65,3.11-6.48,4.49-9.57,2.73s-4.51-6.7-1.83-9.44,1.84-4.63.1-6.88c-1.93-2.5-4-4.92-6.06-7.28a10.24,10.24,0,0,0-2.4-1.52,12,12,0,0,0-1.13,2.5c-.92,4.55-1.47,9.2-2.7,13.67-.73,2.65-.62,4.16,1.95,5.65a5.61,5.61,0,0,1,2.52,6.95c-.92,2.93-3.25,4.08-6.11,4.32-3.38.29-6.09-1.39-7-4.37s.09-5.94,2.8-7.29,3.54-3.29,4.06-5.75c1-4.54,1.91-9.09,2.76-13.65.6-3.26.6-6.33-4.41-6.82Z"/><path d="M76.69,342.93a29.79,29.79,0,0,1-29.57-28.42,5,5,0,0,1,0-2,15.44,15.44,0,0,1,1.57-2.44,7.13,7.13,0,0,1,1.08,2.28,27.42,27.42,0,0,0,6.1,16c6.74,8.25,18,12.16,27.66,9.14,11.21-3.51,18.49-10.61,19.93-22.81.18-1.56,1.24-3,1.9-4.51.4,1.59,1.16,3.19,1.16,4.78C106.49,330,92.65,342.93,76.69,342.93Z"/><path d="M664.48,37.94c-4.9,5.51-11.72,7.31-18.4,8.78A161.41,161.41,0,0,1,589.73,49c-8.14-1.09-16.17-3.2-24.16-5.23-2.65-.67-5.06-2.42-7.45-3.88-.6-.37-.7-1.55-1-2.35l0,0c8.6,4.7,18.12,6.35,27.6,7.65C605.34,48,626,47.75,646.52,43.19c6.1-1.36,12-3.42,18.06-5.16Z"/><path d="M164,146.93H129.53a11.48,11.48,0,0,1-3.46-.15,2.56,2.56,0,0,1-1.41-2,2.77,2.77,0,0,1,1.5-2,8.1,8.1,0,0,1,3-.15H198c.83,0,1.66,0,2.5,0,1.66.05,3.26.52,2.73,2.51-.2.76-1.83,1.61-2.82,1.62C188.28,147,176.13,146.93,164,146.93Z"/><path d="M353.56,521.92h25a11.07,11.07,0,0,1,3,.06,16.09,16.09,0,0,1,3,1.58c-.92.44-1.82.94-2.77,1.29a4.53,4.53,0,0,1-1.49,0c-17.64,0-35.29,0-52.93-.06-1.56,0-3.94,1.16-4.34-1.65,0-.23,2.66-1.19,4.1-1.21C335.92,521.87,344.74,521.92,353.56,521.92Z"/><path d="M687,129.73H655c.85-2.82,3-3.33,5.08-3.65a32.54,32.54,0,0,1,5-.16c2.83,0,4.3-.67,2.31-3.73-1.44-2.21-.6-3.39,2-3.39,1,0,2-.06,3,0,3.51.17,3.93.55,2.47,3.72-1.38,3-.08,3.41,2.41,3.43a26.53,26.53,0,0,1,5.95.37c1.58.38,3,1.5,4.45,2.3Z"/><path d="M835.31,115.06c3,0,6,0,9,0,2,0,3.2.6,3.18,2.83,0,2.06-.92,3-3,3-6.16,0-12.33,0-18.49,0-2.14,0-3-1.21-2.94-3.17,0-2.19,1.3-2.75,3.28-2.68C829.31,115.13,832.31,115.05,835.31,115.06Z"/><path d="M889.59,115.06c3,0,6,0,9,0,1.6,0,3,0,2.89,2.31-.1,1.72.06,3.48-2.39,3.49-6.49,0-13,.1-19.45-.09-.76,0-1.89-1.55-2.1-2.54-.31-1.42-.12-3.12,2.1-3.13h10Z"/><path d="M82.65,415c-2-1.93-.78-3.45.67-4.85,4.29-4.13,15-5.63,20.12-2.62,1,.62,1.46,2.29,2.17,3.48l-.11.07c-3.48,1-7.2,1.54-10.38,3.14-2.77,1.4-4.82,1.62-7.21-.3a8,8,0,0,0-3.11-1.48c-2.19-.5-2.53.86-2.26,2.62Z"/><path d="M862,115.06c3,0,6,.05,9,0,1.86,0,2.72.65,2.7,2.59s-.37,3.26-2.67,3.25q-9.2,0-18.4,0c-2.23,0-3.15-1.41-2.74-3.15a4.06,4.06,0,0,1,2.73-2.58A87.31,87.31,0,0,1,862,115.06Z"/><path d="M1384.16,274.09c2.81,0,5.62.06,8.42,0,2.09-.06,3,.78,2.93,2.92s-1,2.9-3.07,2.88c-5.62-.06-11.23-.09-16.85,0-2.45,0-3.17-1.2-3.21-3.34,0-2.42,1.57-2.49,3.34-2.47C1378.54,274.11,1381.35,274.08,1384.16,274.09Z"/><path d="M1332.1,274.09c3,0,5.95.06,8.92,0,1.91-.05,2.65.72,2.62,2.62s-.44,3.19-2.73,3.17q-8.67-.09-17.34,0c-2.28,0-3.06-1.5-2.67-3.18a4.06,4.06,0,0,1,2.8-2.48A67.18,67.18,0,0,1,1332.1,274.09Z"/><path d="M1357.76,274.09c2.65,0,5.3,0,7.95,0,1.91-.05,3.26.34,3.18,2.66-.06,1.92-.64,3.15-2.87,3.13q-8.69-.08-17.38,0c-2.33,0-2.76-1.51-2.73-3.25s1.06-2.6,2.92-2.55C1351.8,274.15,1354.78,274.09,1357.76,274.09Z"/><path d="M210.67,108.84c0-.83,0-1.65,0-2.48.06-3.76,3-5.79,6.33-3.9.83.48,1.12,3.22.59,4.48A55.79,55.79,0,0,1,213,114.8c-.29.46-.93.69-1.41,1-.29-.51-.79-1-.82-1.54-.1-1.81,0-3.63,0-5.45Z"/><path d="M116.33,109.88l-.78,5.93c-.88-1.56-1.67-3.18-2.67-4.66s-2.31-2.42-3-3.85-.63-3-.9-4.5a33.43,33.43,0,0,1,5.77-.41c.59,0,1.35,1.55,1.49,2.47A34.27,34.27,0,0,1,116.33,109.88Z"/><path d="M809.73,555a17,17,0,0,1-3.69-.07c-.76-.16-1.94-1.1-1.9-1.62.06-.94.79-2.54,1.42-2.63a101.37,101.37,0,0,1,11.37-1c.45,0,1.42,1.55,1.31,2.26a3.27,3.27,0,0,1-1.79,2.34A49.73,49.73,0,0,1,809.73,555Z"/><path d="M537.2,51.09a25.49,25.49,0,0,1,.11-5.47c.2-.9,1.59-1.53,2.45-2.28.65.77,1.83,1.52,1.85,2.31a95.1,95.1,0,0,1-.24,11.48c-.08.88-1.56,1.64-2.4,2.45-.61-.83-1.62-1.61-1.74-2.5a44.75,44.75,0,0,1-.08-6Z"/><path d="M907.5,42.87c3.92.48,7.84,1,11.78,1.41,1.72.16,2.24.94,2.17,2.55-.09,2-1.27,1.94-2.72,1.71a30,30,0,0,0-4.91-.58c-3.65,0-6-1.29-6.18-5.26Z"/><path d="M391.79,500.93c-1.85-3.62-1.2-7.08-.62-10.31.13-.69,3-.89,4.62-1.32.27,1.17,1.1,2.6.71,3.47A93.09,93.09,0,0,1,391.79,500.93Z"/><path d="M316.68,501.37c-2.33-3.42-4.06-5.71-5.48-8.18-.5-.88-.62-3-.26-3.17a8.11,8.11,0,0,1,4.12-.64c.59.06,1.5,1.23,1.54,1.94C316.78,494.32,316.68,497.34,316.68,501.37Z"/><path d="M700.95,429a1.66,1.66,0,0,1,.49,0c1.35.51,3.78-.8,3.72,1.86,0,.51-2.39.81-3.51,1.49s-5-1.81-2.87,2.48c0,0-1,.85-1.46.77a2.4,2.4,0,0,1-1.68-1.13c-1.22-3.59,0-5.27,3.8-5.5C700,429,700.45,429,700.95,429Z"/><path d="M530.7,52.85c.71-1.43,1.81-4.68,2.36-4.59,3.16.52,1.63,3.37,1.61,5.2s-1.19,5.48-1.4,5.45C529.69,58.35,532.1,55.29,530.7,52.85Z"/><path d="M808.23,548.23a11.9,11.9,0,0,1-3-.22c-.6-.2-1-1-1.47-1.57.54-.46,1-1.23,1.63-1.33a42.1,42.1,0,0,1,6.36-.58c.69,0,1.39.75,2.09,1.16-.58.76-1,1.91-1.78,2.19A13.94,13.94,0,0,1,808.23,548.23Z"/><path d="M916.45,42.16a50.68,50.68,0,0,1-5.57-.86c-.59-.16-1-1.06-1.45-1.62.67-.5,1.35-1.43,2-1.42a18.62,18.62,0,0,1,4.82.79c.74.21,1.34,1,2,1.46Z"/><path d="M543.13,55.86l2-2.76c.44,1,1.33,2.1,1.21,3-.14,1.15-1.13,2.19-1.76,3.27Z"/><path d="M413,413.48c.51-2.32.94-4.67,1.6-7,.15-.5,1.12-.77,1.72-1.14.27.78,1,1.73.73,2.31-.85,2.07-2,4-3,6Z"/><path d="M807.26,560.57l-2.52-2c1.15-.6,2.26-1.49,3.48-1.68.64-.1,1.46,1.06,2.2,1.65Z"/><path d="M914,50.94c-1.88.54-2.76,1.06-3.52.93s-1.5-.91-2.24-1.4c.68-.48,1.4-1.38,2-1.33C911.25,49.22,912.14,50,914,50.94Z"/><path d="M695.91,425.95h6.23l0,1.26C700.1,428.53,698,428.44,695.91,425.95Z"/><path d="M129.6,430.92a10.52,10.52,0,0,1-10.87,0l-.19.18h11.12Z"/><path d="M70,431.57l9,.88c-3.1.7-6.22,1.52-8.95-1Z"/><path d="M1081.27,164.39,1083,159l1.5.55-2.27,5.33Z"/><path d="M1199.19,105.59h-4.3l-.09-1,4.3-.37Z"/><path d="M1282,467.29l.87-4.78,1.22.38-1.59,4.61Z"/><path d="M99.53,432.41c0,.06,0,.11,0,.17h-.89v-.16Z"/><path d="M92.1,430.57l1.93,1c-.19.16-.54.49-.55.47-.47-.46-.9-1-1.34-1.45Z"/><path d="M113.6,428.92h-3.09l.11.11-.07-2.09,3,2.11Z"/><path d="M1325.72,326.11l-4.25.81.07.08,4.29-.79Z"/><path d="M124.1,4.3l.2,1.81c-.07-.29-.16-.58-.19-.88a8.89,8.89,0,0,1,0-.9Z"/><path d="M86.32,428.46l-.61,2.11-.39-.14,1-1.83Z"/><path d="M109.49,429.94l-3,.95.09.18,3-1Z"/><path d="M118.73,430.89l-3-1-.19.16,3,1Z"/><path d="M70.13,431.49l-3.11-1-.12.14,3.14.92Z"/><path d="M106.51,430.88c-1,1.46-1.94,1.55-2.92,0l-.09.17h3.1Z"/><path d="M82.3,432l-.19-.58a5.07,5.07,0,0,1,.78,0c.07,0,.13.2.19.31Z"/><path d="M89.91,429.91l2.19.67h0l-2.05-.72Z"/><path d="M64.67,430l2.23.67.12-.14-2.22-.65Z"/><path d="M115.72,429.91l-2.12-1-.08.14,2,1Z"/><path d="M63.77,428.68l-.72-.44.6.58Z"/><path d="M613,190.52l-.18-.31.19.21Z"/><path d="M64.8,429.87l-1-1.19-.13.14,1,1.17Z"/><path d="M88.38,429l1.53.94.17,0-1.6-1Z"/><path d="M110.52,428.93l-1,1,.14.13,1-1Z"/><path d="M669.69,31.13l-.59.64.22-1Z"/><polygon points="557.09 37.52 556.76 37.64 557.05 37.49 557.09 37.52"/><path d="M664.58,38l.38-.69-.48.59Z"/><path class="cls-1" d="M1171.48,617c.06-20,17.38-36.77,37.82-36.61a37.41,37.41,0,0,1,37.31,37.58c-.09,19.88-17.47,37.18-37.47,37.29C1189,655.32,1171.42,637.49,1171.48,617Z"/><path class="cls-1" d="M245.59,617.37c.46,21.95-19,37.76-37.26,37.86-20.22.11-37.71-17.56-37.71-38.18,0-20.09,17.2-36.9,37.7-36.67C231.68,580.63,246.49,600.41,245.59,617.37Z"/><path class="cls-1" d="M219.08,291.1c14.14,0,26.84,12.06,26.37,25.84-.54,15.62-12.26,26.59-26.36,26.61-16.67,0-26.22-14.55-26.26-26.63C192.79,302.92,204.8,291.09,219.08,291.1Z"/><path class="cls-1" d="M742.1,298.25q0-1.25,0-2.49c0-7,0-7,7.22-6.71,8,.36,12,4,11.58,10.54a7.73,7.73,0,0,1-5.23,7.17,13.22,13.22,0,0,1-1.45.35C743.81,310,742.1,308.79,742.1,298.25Z"/><path class="cls-1" d="M621,311.19q4.4,9.94,8.79,19.87c.72,1.63.72,3-1.63,3h-18l9.57-22.94Z"/><path class="cls-1" d="M709.68,589.94c3.94,0,7.86,3.42,7.89,6.84s-3.87,6.94-7.75,7.08c-4.11.15-8.13-3.43-8-7.16C701.87,593.18,705.69,589.91,709.68,589.94Z"/><path class="cls-1" d="M15.94,580.69c0,6.65.07,13.3,0,19.95-.06,4.07-1.31,5.6-4.11,5.53s-4.18-1.79-4.2-5.56c0-13.13,0-26.27,0-39.4,0-.5,0-1,0-1.5a3.92,3.92,0,0,1,4.2-4c2.67-.08,4,1.49,4,4,.07,7,0,14,0,20.95Z"/><path class="cls-1" d="M683.36,576.46c.2,7.27-6.62,13.07-13.3,11.76-1.61-.32-3.17-.9-4.77-1.27-3.61-.83-5.19-3.22-5.4-6.75-.2-3.26-.92-6.58-.53-9.77.61-5.07,6.07-10,11.1-10.32a6.57,6.57,0,0,1,4.54,1.43A29.73,29.73,0,0,1,683.36,576.46Z"/><path class="cls-1" d="M727.23,68.43q30.94.77,61.87,1.55c2,.05,4,.36,6,.39,2.6,0,2.83,2.07,2.95,3.78,0,.38-2.24,1.35-3.41,1.29q-33.39-1.66-66.76-3.53a24.35,24.35,0,0,1-5.43-.64c-.85-.25-1.42-1.49-2.11-2.28a8.22,8.22,0,0,1,2.45-1,35.2,35.2,0,0,1,4.48.26Z"/><path class="cls-1" d="M757,65.55H725.54a16.43,16.43,0,0,1-3.49-.09,13.5,13.5,0,0,1-2.88-1.38c1-.59,1.93-1.66,2.93-1.69,12.65-.49,25.3-.83,37.95-1.2,9.49-.28,19-.58,28.46-.82a15.9,15.9,0,0,1,4.94.34,3.41,3.41,0,0,1,1.8,2.54c0,.54-1.39,1.34-2.27,1.79a4.79,4.79,0,0,1-2,.09H757Z"/><path class="cls-1" d="M722.07,74.31a32.18,32.18,0,0,1,4.3-.21q33.81,2.77,67.61,5.65c2.64.23,6.12-.4,6.18,3.77,0,.25-4,1-6.06.78C779.55,82.77,765,81,750.49,79.42c-7.92-.87-15.87-1.55-23.8-2.4a44.94,44.94,0,0,1-4.93-1.07Z"/><path class="cls-1" d="M727.75,59a53.38,53.38,0,0,1-6.94.61c-1,0-1.94-1.13-2.9-1.75.85-.56,1.66-1.52,2.57-1.63,4.13-.5,8.28-.82,12.43-1.09q22.66-1.51,45.32-2.94c4-.25,8-.47,12-.44.79,0,1.57,1.2,2.36,1.84-.67.57-1.27,1.44-2,1.64a24.48,24.48,0,0,1-4.93.69c-13.79.75-27.58,1.42-41.36,2.19-5.48.31-11,.8-16.42,1.21Z"/><path class="cls-1" d="M716.91,51.43a44.72,44.72,0,0,1,5.37-1.28c12.55-1.45,25.11-2.8,37.66-4.21,8.27-.93,16.52-1.92,24.78-2.88.5-.06,1-.1,1.48-.21,2.18-.46,3.75.31,4,2.53.34,2.64-1.86,2.21-3.41,2.35-6.63.6-13.27,1.21-19.91,1.74Q744,51.3,721.14,53a32.34,32.34,0,0,1-4.05-.18Z"/><path class="cls-1" d="M574.58,69.7c-1.46-1.75-2.9-2.73-2.83-3.58.1-1.16,1.36-2.22,2.12-3.32.92.77,2.52,1.48,2.6,2.32C576.58,66.28,575.54,67.56,574.58,69.7Z"/><path class="cls-1" d="M1038.05,477.11a16.62,16.62,0,0,1,.08,2c-.14,1.86-.33,3.72-.5,5.59a37.62,37.62,0,0,1-5.15-2.74,59.17,59.17,0,0,1-17.49-20.2c-2-3.85-4-8.24-.2-12,3.46-3.4,7.42-1.19,11.19.11,4.77,1.65,7.76,4.55,8.71,9.77,1.07,5.83,2.74,11.54,4.14,17.3Z"/><path class="cls-1" d="M694,182.92c-1.6-13.48-3.1-25.67-4.45-37.87-.46-4.13-.06-4.38,4.33-4.48,7.46-.16,7.46-.16,7.46,7.08,0,6.67,0,13.33,0,20C701.32,173.44,698.8,178,694,182.92Z"/><path class="cls-1" d="M40.46,362.63c.88,3.78,2,7.53,2.56,11.37.43,3.16-1.84,5.52-4.42,5.37s-4.32-2.26-3.69-5.38c.79-3.93,2.37-7.7,3.6-11.54Z"/><path class="cls-1" d="M1334.65,608.1a3,3,0,0,1,1.75.25,3.17,3.17,0,0,1,1.73,2.05,2.71,2.71,0,0,1-1.52,2.15,16.83,16.83,0,0,1-5.88.28c-1-.16-1.73-1.58-2.58-2.44a17.39,17.39,0,0,1,2.86-2.23C1331.67,607.83,1332.64,608.1,1334.65,608.1Z"/><path class="cls-1" d="M1157,441.93a12.86,12.86,0,0,1-2-.21c-2.14-.55-4.68-1.38-4.08-4,.32-1.37,2.69-2.32,4.24-3.31a3.87,3.87,0,0,1,1.94-.21c3.45,0,6.18,1.6,6.28,3.63C1163.54,440.12,1160.64,442,1157,441.93Z"/><path class="cls-1" d="M1178.81,463.92c-3.53.07-6.67-1.77-6.64-3.88s3.47-4,6.73-3.91,6.23,2.08,6.15,4S1182.13,463.86,1178.81,463.92Z"/><path class="cls-1" d="M1135.71,442.08c-1.12-.19-2.32-.06-3-.59-1.23-.91-3-2.23-3-3.38s1.72-2.88,3-3.23a12.18,12.18,0,0,1,6.31,0c1.29.36,3,2.14,3,3.27s-1.8,2.48-3.08,3.32C1138.08,442,1136.74,441.91,1135.71,442.08Z"/><path class="cls-1" d="M1157.14,463.92c-3.36-.06-6.12-1.75-6.19-3.79s2.67-3.85,6.06-4,6.64,1.72,6.64,3.86C1163.65,462.29,1160.84,464,1157.14,463.92Z"/><path class="cls-1" d="M1167.82,453.09c-3.48-.06-6.2-1.71-6.19-3.76s2.69-3.76,6.17-3.85,6.6,1.9,6.45,4.12C1174.11,451.56,1171.18,453.15,1167.82,453.09Z"/><path class="cls-1" d="M1147.05,453.09c-3.3,0-6.4-1.75-6.41-3.6,0-2.07,3.43-4.12,6.7-4s6.27,2.14,6.17,4S1150.34,453.1,1147.05,453.09Z"/><path class="cls-1" d="M1178.18,441.9c-.49,0-1,0-1.48-.09-2.41-.35-4.88-1.1-4.84-3.93,0-2.61,2.5-3.15,4.68-3.51a9.56,9.56,0,0,1,1.48-.12c3.81,0,6.61,1.69,6.41,4C1184.26,440.27,1181.55,441.87,1178.18,441.9Z"/><path class="cls-1" d="M1199.27,441.88a7.3,7.3,0,0,1-1.15-.07c-2.37-.43-5.16-1.15-4.63-4,.26-1.4,3-2.39,4.65-3.47.36-.23,1-.11,1.47-.11,3.64,0,6.16,1.61,6.11,3.77S1203.07,441.84,1199.27,441.88Z"/><path class="cls-1" d="M1188.27,453.18c-.85-.18-2-.1-2.71-.64-1.19-.92-2.87-2.24-2.86-3.37s1.76-2.63,3-3.08a8.7,8.7,0,0,1,5.26-.1c1.46.49,2.56,2.06,3.82,3.15a29.8,29.8,0,0,1-3.55,3.59C1190.6,453.24,1189.39,453,1188.27,453.18Z"/><path class="cls-1" d="M117.17,463.64c-.45-.92-.89-1.4-.81-1.78a5,5,0,0,1,.92-1.5c.42.44,1.12.83,1.18,1.32S117.87,462.63,117.17,463.64Z"/><path class="cls-1" d="M323.78,60.61C317.44,59,311.21,57.4,305,55.68c-2.12-.59-2.72-1.85-1.54-4.14a93.07,93.07,0,0,1,17.62-24.62c1.95-1.9,3.36-2.18,5.38-.23a90.15,90.15,0,0,1,18.09,25.47c1.19,2.41-.34,3.18-1.87,3.6C336.52,57.47,330.28,59,323.78,60.61Z"/><path class="cls-1" d="M304.4,15.59c3.33,1,6.69,1.81,10,2.89,1.86.62,2.86,1.7.89,3.55-7.38,6.92-12.7,15.34-17.41,24.2-1.68,3.16-2.23,3.15-4.4.26-3.82-5.07-6.38-10.65-5.32-17.15C289.48,21,295.81,16,304.4,15.59Z"/><path class="cls-1" d="M351.87,49.2c-1.16-2-2-3.59-3-5-5.17-7.28-10.22-14.67-15.73-21.69-1.81-2.31-1.89-3.43.78-4.08,4-1,8.07-2.22,12.09-2.13,7.56.17,13.16,6.35,13.61,13.94C360.06,37.57,357.61,43.73,351.87,49.2Z"/><path class="cls-1" d="M829.15,202.52l5.12,4.15c-1.73,1-3.41,2.75-5.19,2.84-1.49.08-3.07-1.76-4.61-2.74Z"/><path class="cls-1" d="M955.5,193.93l18.8-11.8.8,1.24L956.5,195.31Z"/><path class="cls-1" d="M975.36,190.58l-18.92,11.9-.76-1.19,18.83-12.2Z"/><path class="cls-1" d="M956.92,208.62l18.85-12,.74,1.14L957.78,210Z"/><path class="cls-1" d="M416.29,449.82c.1,2.1.27,4.2.24,6.3a3.24,3.24,0,0,1-.9,1.88,1.46,1.46,0,0,1-1.34-.1,5.49,5.49,0,0,1-.37-2.06c-.07-1.89-.08-3.79-.1-5.68,0-.75-.3-1.85.07-2.16a2.56,2.56,0,0,1,2.26-.2c.46.21.57,1.22.83,1.88Z"/><path class="cls-1" d="M425.48,435.58c-1,.83-1.58,1.76-2,1.68-.61-.11-1.08-1-1.61-1.53.54-.4,1.06-1.05,1.64-1.13S424.59,435.11,425.48,435.58Z"/><path class="cls-1" d="M406.2,446.11c-.53-.9-1.12-1.46-1.11-2,0-.38,1-1.15,1.28-1a6.4,6.4,0,0,1,1.7,1.42Z"/><path class="cls-1" d="M425.31,444.67a11.58,11.58,0,0,1-2.49,1c-.25,0-1-1.06-.92-1.23a15,15,0,0,1,1.85-2.08Z"/><path class="cls-1" d="M409.28,435.84c-1.41.73-2.08,1.38-2.52,1.24-.68-.21-1.19-.95-1.78-1.46.43-.38.85-1,1.29-1.06C406.87,434.54,407.48,435,409.28,435.84Z"/><path class="cls-1" d="M413.14,431.51l2.54-1.33.47,1.71-3-.46Z"/><path class="cls-1" d="M431.38,432.42c-.41-.75-.82-1.2-.85-1.68,0-.29.53-.62.83-.93a7.74,7.74,0,0,1,1.15,1.35C432.57,431.28,432,431.76,431.38,432.42Z"/><path class="cls-1" d="M396.73,430.73a6.31,6.31,0,0,1,1.94-.56c.25,0,.45.72.67,1.11a6.07,6.07,0,0,1-1.58.6C397.53,431.91,397.25,431.34,396.73,430.73Z"/><path class="cls-1" d="M413.2,431.42l-.06.09Z"/><polygon class="cls-1" points="390.44 434.85 390.8 434.76 390.72 435.12 390.44 434.85"/><polygon class="cls-1" points="407.63 461.04 407.65 460.94 407.53 460.93 407.63 461.04"/><path class="cls-1" d="M217.18,76.17c-10,0-15.48-4.84-16.83-14.15-2.69-18.48,7.16-38.73,23.53-47.68,7.16-3.91,14.72-5.72,21.91,0a14.93,14.93,0,0,1,4.43,5.8,30.46,30.46,0,0,1,1.48,19.55c-4.1,15.44-11.66,28.18-26.92,35a13.2,13.2,0,0,1-3.28,1.15A38.72,38.72,0,0,1,217.18,76.17Zm12.53-37.23c-3.81,1.78-4.37,4.35-1.35,6.78,3.36,2.7,6.92,5.16,10.24,7.91,2.5,2.07,3.81,1.28,5.4-1.21,3.7-5.8,5.11-12.21,5.48-18.9.17-3.18-.86-3.79-3.94-2.35-5.37,2.52-10.64,5.24-16,7.88Zm-6.11,8c-.62.48-1.66.85-1.81,1.45-1.81,7-3.55,14.12-5.11,21.23-.14.62,1,2.06,1.67,2.19a9.54,9.54,0,0,0,4.4-.27c5.87-1.79,10.59-5.4,14.78-9.76,1.85-1.93,1.65-3.85-.27-5.63q-4.93-4.57-9.87-9.12c-1.32-1.21-2.69-2.2-4,.08ZM226,36.85l.84.71,18.24-8.9c2.53-1.23,3.1-3.1,2.23-5.76a11.46,11.46,0,0,0-12.18-8.14,4.5,4.5,0,0,0-3.23,2.3C229.77,23.59,227.94,30.24,226,36.85ZM219.76,50.2c.13-3.51-.69-4-3.22-2.51C212.73,50,209,52.47,205.33,55a4.46,4.46,0,0,0-1.7,2.25c-1.15,4.08,2.83,11.5,6.85,13.29,2,.91,3,.4,3.59-1.71,1.19-4.29,2.51-8.55,3.81-12.81C218.54,53.81,219.29,51.64,219.76,50.2Zm10-34.11a15.57,15.57,0,0,0-11.33,5.12c-7.73,7.77-8.73,5.86-.61,14.27.69.72,1.39,1.43,2.07,2.16,1.84,2,3,1.56,3.77-1C225.63,30,227.62,23.38,229.79,16.09ZM202.5,52.33l1,.93c5-2.87,10-5.66,14.92-8.65,1.88-1.15,2.11-2.92.51-4.61-2.28-2.42-4.62-4.77-6.93-7.16-1.38-1.43-2.49-1.33-3.51.45A46.45,46.45,0,0,0,202.5,52.33Z"/><path class="cls-1" d="M1285.15,444.23c-6.16-2.37-10.79-5-13.86-9.77-1.22-1.91-2.16-4.27,0-5.78,1.51-1.08,4.14-1.83,5.75-1.26,3.36,1.19,6.57,3,6.73,7.55C1283.83,437.72,1284.55,440.44,1285.15,444.23Z"/><path class="cls-1" d="M751.51,206.13c-5.12-1.28-10.08-2.44-15-3.79-2.46-.68-3.44-2-2-4.78A89.17,89.17,0,0,1,749,177.48c1.76-1.87,3.31-2.14,4.86,0q7.29,10,14.48,20.09c1.77,2.47.72,4.07-1.86,4.77C761.61,203.67,756.66,204.84,751.51,206.13Z"/><path class="cls-1" d="M735.18,168.15c2.21.59,5.28,1.28,8.26,2.26,1.46.48,1.88,1.22.6,2.91-4.91,6.47-9.58,13.12-14.2,19.8-2.2,3.19-2.29,3.29-4.67,0A19.31,19.31,0,0,1,721,181.61,13.73,13.73,0,0,1,735.18,168.15Z"/><path class="cls-1" d="M781.89,184.08c-1,2.2-2.62,6.12-4.59,9.85-1.24,2.34-2.57,2-3.82-.39-3.87-7.36-8.32-14.34-14.39-20.16-.46-.44-.34-2.45,0-2.61,5.08-2.3,10.28-3.7,15.7-1C779.84,172.31,781.6,176.72,781.89,184.08Z"/><path class="cls-1" d="M1374.5,420.88a68.51,68.51,0,0,1,7.46.06c2.93.32,4.21,2,3.67,5.16-.94,5.42-6.32,9.39-12.54,9-4.94-.29-10.41-5.31-10.22-9.94.11-2.77,2.5-4,5.15-4.2,2.15-.15,4.32,0,6.48,0Z"/><path class="cls-1" d="M1376.52,476.64a5.89,5.89,0,0,1,6,5.94,5.73,5.73,0,0,1-5.42,6c-3,0-5.81-3-5.8-6.35A5.39,5.39,0,0,1,1376.52,476.64Z"/><path class="cls-1" d="M1378.44,416.56a6.45,6.45,0,0,1-.91.09,1.42,1.42,0,0,1-.47-.21,3.48,3.48,0,0,1,.45,0C1377.8,416.46,1378.09,416.51,1378.44,416.56Z"/><path class="cls-1" d="M127.06,37.2l-1.63,3.67a16.15,16.15,0,0,1-.81-3.9,13.88,13.88,0,0,1,1.11-3.6Z"/><path class="cls-1" d="M133.32,23.25c-.43.46-.87,1.12-1,1.06a5.18,5.18,0,0,1-1.27-1c.35-.29.68-.77,1-.8S132.81,22.92,133.32,23.25Z"/><path class="cls-1" d="M131.9,29c.48.42,1.11.75,1.08,1-.06.46-.5.87-.79,1.3-.32-.32-.84-.59-.91-1S131.62,29.55,131.9,29Z"/><path class="cls-1" d="M119.73,30.06l-1,1.1a4.39,4.39,0,0,1-.89-.91c-.07-.13.32-.73.48-.72A5.75,5.75,0,0,1,119.73,30.06Z"/><path class="cls-1" d="M119,22.35c.31.47.75.85.7,1.13A.85.85,0,0,1,118,23.3C118,23,118.54,22.75,119,22.35Z"/><path class="cls-1" d="M126.91,20c-.71.4-1.13.8-1.58.84-.29,0-.64-.46-1-.71A6.15,6.15,0,0,1,125.55,19C125.69,18.93,126.19,19.47,126.91,20Z"/><path class="cls-1" d="M139.06,20.08l-.59.5-.59-.95c.25-.09.55-.31.72-.24S138.91,19.84,139.06,20.08Z"/><path class="cls-1" d="M111.68,20.21l.33-.82c.25.15.61.25.7.46s-.17.5-.28.76Z"/><path class="cls-1" d="M395.73,18.78l-.27.78c-.22-.12-.58-.2-.61-.36a2,2,0,0,1,.19-.82Z"/><path class="cls-1" d="M177.15,194.79A24.37,24.37,0,0,1,167,185c-2.07-3.65-1.9-6.48.3-7.48s7.27.8,8.12,3.43c1.4,4.34,2.18,8.87,3.22,13.33Z"/><path class="cls-1" d="M1283.43,499.53a8.43,8.43,0,0,1,.13,2,10.82,10.82,0,0,1-.75,2,12.6,12.6,0,0,1-1.18-2.23,4.47,4.47,0,0,1,0-2c.19-1.14.49-2.27.75-3.4l1.56,3.36Z"/><path class="cls-1" d="M1290.48,486a7.45,7.45,0,0,1-1.45,1.3c-.14.07-1-.65-.9-.82a2.61,2.61,0,0,1,1-1.27C1289.28,485.08,1289.83,485.58,1290.48,486Z"/><path class="cls-1" d="M1290.42,493.08c-.48.32-.85.76-1.14.71s-.9-.52-.9-.81.51-.67.79-1Z"/><path class="cls-1" d="M1277.16,485.9c-.44.49-.71,1-1,1.06s-.75-.42-1.12-.67c.25-.36.44-.92.77-1S1276.55,485.6,1277.16,485.9Z"/><path class="cls-1" d="M1282.26,483.9c-.33-.56-.82-1.17-.73-1.29a5.77,5.77,0,0,1,1.35-1c.16.42.51.88.44,1.26S1282.73,483.48,1282.26,483.9Z"/><path class="cls-1" d="M1269.62,484l-1.21-.91c.26-.33.48-.88.78-.92s.76.35,1.14.55Z"/><path class="cls-1" d="M1295.38,481.56l1,1.14-1.26,1c-.2-.38-.54-.76-.54-1.15S1295,482,1295.38,481.56Z"/><path class="cls-1" d="M1276.38,493.3l-.75.41-.35-1c.27-.09.64-.32.78-.23S1276.28,493,1276.38,493.3Z"/><path class="cls-1" d="M1037.87,177.55a37.93,37.93,0,0,1-16.33,26.71,19,19,0,0,1-8.3,3c-7.79.93-13.26-3.67-13.71-11.54-.79-13.85,4.5-24.94,16.1-32.68,4.5-3,9.53-5,15-2.29C1035.61,163.26,1038,168.25,1037.87,177.55ZM1021.56,180c-3,.77-3.22,2.61-1.88,5l-3.19.93.15-.13c-1.83,2.18-2.85,0-4.13-.77.32-1.18,1.3-2.88.84-3.46a72.1,72.1,0,0,0-6.08-6.33c-1.29,2-2.6,3.9-3.84,5.9a5.38,5.38,0,0,0-.62,1.87c-.39,2.19-.73,4.4-1.08,6.59l5.88-1.73a23.5,23.5,0,0,1-2.57,2.8c-3.13,2.49-3.6,3.93-2,7.54,1.15,2.61,2.83,4.71,5.92,5.58a43.66,43.66,0,0,1,1.54-5.38c.93-2.16,2.16-4.2,3.27-6.29l-.12-.09c-.58,2.89-1.08,5.79-1.76,8.66-.63,2.67.24,3.75,3,3.38,5.29-.71,9-4,12.1-7.9.57-.72-.23-3-1-4.2a44,44,0,0,0-4.46-5.08c2.09,1.31,4.27,2.49,6.23,4,1.63,1.23,2.54.84,3.59-.68,2.95-4.25,4-9.06,4.23-14.09.12-2.31-1.35-2.46-2.94-1.7-3.71,1.78-7.35,3.7-11,5.57Zm-2.31-8.34.12.11c0-.33.07-.66.09-1q.21-3.5.41-7c-2.33,1.15-4.68,2.27-7,3.48a3.93,3.93,0,0,0-1.46,1.34c-.9,1.46-2.76,3.61-2.31,4.38,1.46,2.52,3.75,4.57,5.83,6.69.13.13,1.38-.57,1.85-1.12.74-.86.91-3.67,2.4-.41.09.2,1.53,0,2.2-.32,3.46-1.62,6.84-3.41,10.31-5,2.78-1.29,3.19-3.33,1.63-5.6a12.91,12.91,0,0,0-4.22-4c-3.65-2-5.21-1.13-6.78,2.69A61.16,61.16,0,0,1,1019.25,171.67Z"/><path class="cls-1" d="M581.11,452.48c-3.9-1-7.78-1.8-11.6-2.87-1.48-.42-2.86-1.34-1.54-3.27,3.55-5.19,7.06-10.41,10.7-15.54,1.24-1.76,2.94-2.34,4.48-.25q5.59,7.61,11,15.32c1.23,1.75.7,3.17-1.38,3.73C589,450.61,585.11,451.5,581.11,452.48Z"/><path class="cls-1" d="M562.56,444.12c-5.2-3.71-6.87-11.85-3.24-16.81s10.6-5.55,16.4-1.49Z"/><path class="cls-1" d="M593.94,423a10.44,10.44,0,0,1,10.69,10.23,8.82,8.82,0,0,1-.58,3.88c-1.17,2.51-2.65,4.87-4,7.3-1.42-1.9-2.85-3.79-4.27-5.7-2.66-3.58-5.11-7.34-8-10.67-2-2.24-1.11-3.1,1-3.77C590.61,423.63,592.57,423.3,593.94,423Z"/><path class="cls-1" d="M1194.76,97.81l4.47.57V99l-4.51.29Z"/><path class="cls-1" d="M509.62,590a13.18,13.18,0,0,1,0-2.47,34.79,34.79,0,0,1,1-3.37,27.76,27.76,0,0,1,1,3.18c.45,2.26,2,2.92,4,2.91,4,0,8-.17,11.93-.27l-.11-.13-17.94,0Z"/><path class="cls-1" d="M527.58,590a33.12,33.12,0,0,1,.21-4.38c.1-.58.9-1,1.38-1.56.51.49,1.36.9,1.48,1.47.65,3-.4,4.37-3.18,4.34Z"/><path class="cls-1" d="M1084.26,188.71c-.55.64-.87,1.25-1.1,1.22a4.3,4.3,0,0,1-1.38-.72c.22-.35.42-1,.66-1A6.1,6.1,0,0,1,1084.26,188.71Z"/><path class="cls-1" d="M1082.85,193c.37.48.82.81.82,1.14s-.56.73-.86.72-.82-.5-.81-.77S1082.47,193.42,1082.85,193Z"/><path class="cls-1" d="M1089.28,180.16l-.63.57-.65-1c.28-.11.62-.36.84-.29S1089.14,179.9,1089.28,180.16Z"/><path class="cls-1" d="M1089.46,185.46l-.54.93a6.76,6.76,0,0,1-1-.7s.3-.65.42-.64A4.07,4.07,0,0,1,1089.46,185.46Z"/><path class="cls-1" d="M1083.17,177.38c-.27.08-.58.27-.79.19s-.23-.45-.34-.69c.26-.08.57-.29.75-.21S1083,177.14,1083.17,177.38Z"/><path class="cls-1" d="M1094.49,176.76l-.54.64c-.16-.24-.45-.48-.44-.72s.33-.43.52-.65Z"/><path class="cls-1" d="M1071.8,177.38c-.1.09-.25.28-.3.25a4.31,4.31,0,0,1-.58-.42,4.6,4.6,0,0,1,.7-.19S1071.74,177.25,1071.8,177.38Z"/><path class="cls-1" d="M1077.57,180.11l-.5.61-.64-1c.25-.11.56-.37.74-.3S1077.45,179.86,1077.57,180.11Z"/><path class="cls-1" d="M1076.88,185.18l.6.38-.51.65c-.11-.1-.33-.21-.32-.3A3.47,3.47,0,0,1,1076.88,185.18Z"/><path class="cls-1" d="M99.27,314.31c-1.22.48-2.48,1.41-3.65,1.31s-2.37-1.23-3.55-1.91c1.23-.84,2.38-2.17,3.7-2.36,1.07-.15,2.35,1.07,3.53,1.68Z"/><path class="cls-1" d="M87.39,326.87c-1.18.66-2.38,1.87-3.52,1.82s-2.33-1.33-3.5-2.07c.87-.85,1.71-2.37,2.61-2.4,1.41-.06,2.85.89,4.29,1.41Z"/><path class="cls-1" d="M77.24,317.26,81,320.43c-1.17.73-2.33,2-3.5,2s-2.28-1.29-3.43-2Z"/><path class="cls-1" d="M83.21,316.5l-3.51-3c1.16-.77,2.33-2.15,3.49-2.15s2.27,1.41,3.41,2.2Z"/><path class="cls-1" d="M89.52,323.51l-3.77-3.3c1.15-.71,2.29-2,3.44-2s2.27,1.24,3.4,1.94Z"/><path class="cls-1" d="M74.86,314.2c-1.18.51-2.39,1.49-3.53,1.42s-2.38-1.13-3.57-1.76c1-.87,1.92-2.37,3-2.47,1.3-.12,2.71.92,4.08,1.47Z"/><path class="cls-1" d="M58.69,316.63l-3.32-3c1.26-.8,2.5-2.15,3.8-2.21,1,0,2,1.56,3,2.44Z"/><path class="cls-1" d="M65.14,323.37l-3.36-3.15c1.19-.71,2.38-2,3.56-2s2.21,1.38,3.32,2.15Z"/><path class="cls-1" d="M74.92,327c-1.16.63-2.42,1.88-3.47,1.72-1.32-.2-2.47-1.55-3.69-2.4,1-.74,2-2.07,3-2.09,1.37,0,2.77.93,4.15,1.46Z"/><path class="cls-1" d="M490.12,453.4c.29-14.18,8.87-26.56,19.45-29.65,7.22-2.11,12.57,1,14,8.29,2.08,10.39-2.23,18.77-8.73,26.3a24.29,24.29,0,0,1-5.72,4.72c-4.49,2.74-9.46,3.79-14.17,1C490.47,461.38,490,456.55,490.12,453.4Zm17-13.7-.06-.08,9.85-2.84c-1.85,2.37-6.17,2-6.59,6,0,.12-.57.2-.89.28-2.45.57-2.81,1.07-1.34,2.35a75.68,75.68,0,0,0,8,5.81c.35.23,1.61-.25,2-.75,3-4.44,4.53-9.24,3.26-14.75l-4.56,1.21a7.8,7.8,0,0,1,1.57-1.71c1.93-1.12,3-2.53,2.16-4.84-1.06-3-3.34-4.22-6.34-4.66-2.72-.4-3.22,1.55-4.09,3.32a16.21,16.21,0,0,1-1.85,2.49l.1.12.8-5c-5,.26-7.64,3.68-10.37,6.89a1.5,1.5,0,0,0-.22,1.37,31.53,31.53,0,0,0,4.75,5.57C503.92,441,505.82,440,507.15,439.69Zm-2.84,8.73c-.69-1.08-2.14-2.34-1.93-3.22.88-3.8-2.12-5.2-4-7.33-1.2-1.38-2.29-1.18-3,.4a66,66,0,0,0-2.76,6.84c-1.46,4.57-1.05,4.93,3.85,3.87l-.1-.12a5.69,5.69,0,0,1-.8,1.19c-3.77,3.35-3.93,6.85-.42,10.29,2.2,2.16,3.08,2,4.1-.85.72-2,1.35-4.05,2-6.08l1.28.38c-.49,2.17-.9,4.37-1.5,6.51-.65,2.3.74,3,2.31,2.36a44.76,44.76,0,0,0,9.1-4.8c3.74-2.7,3.61-3.66.32-6.81-1.43-1.38-2.78-2.86-4.33-4.1-2.16-1.73-3.58-.94-4.23,1.6Z"/><path class="cls-1" d="M115.53,430.07l-2-1-3-2.11.13.15-1.19-1.19.16.09a23.55,23.55,0,0,0-3.42-3c-2.76-1.65-5.67-3.06-8.51-4.56l.57-1.52c1.12.35,2.7.35,3.28,1.11,2,2.56,4.43,3,7.45,2.91,2.74,0,5.49.69,8.24,1.08l.21,1-4.68,1.33c1.31,3.22,3.76,4,7.07,3.86a38.14,38.14,0,0,1,8.35,1.13c.58.11,1,1.14,1.46,1.74H118.54Z"/><path class="cls-1" d="M82.53,415c-.27-1.77.07-3.12,2.26-2.62a8,8,0,0,1,3.11,1.48c2.4,1.91,4.45,1.69,7.21.3,3.18-1.6,6.9-2.14,10.38-3.14-4.32,5.41-12.57,7.29-20.65,4.71Z"/><path class="cls-1" d="M76.62,422c2.95.42,5.14.4,7.1,1.07,4.63,1.58,8.91,1.91,12.87-1.68.46-.42,1.78.11,2.71.2-.42.8-.64,1.86-1.3,2.37C93.41,427.5,81.69,426.68,76.62,422Z"/><path class="cls-1" d="M110.62,429l-1,1-3,1h-3.1l6.15-5.07-.16-.09,1.19,1.19-.13-.15Z"/><path d="M223.42,47.14c1.27-2.28,2.65-1.29,4-.08q5,4.54,9.87,9.12c1.92,1.78,2.12,3.7.27,5.63-4.19,4.36-8.91,8-14.78,9.76a9.54,9.54,0,0,1-4.4.27c-.7-.13-1.81-1.58-1.67-2.19,1.57-7.11,3.3-14.18,5.11-21.23.15-.6,1.19-1,1.81-1.45a7.1,7.1,0,0,0-.4,2.43,6,6,0,0,0,1.31,2.34c.11.14,1.19-.13,1.27-.39.27-.87.7-2.1.31-2.67C225.58,47.91,224.35,47.63,223.42,47.14Z"/><path d="M229.59,39.06c5.31-2.64,10.59-5.36,16-7.88,3.08-1.45,4.12-.83,3.94,2.35-.37,6.69-1.78,13.1-5.48,18.9-1.59,2.49-2.9,3.28-5.4,1.21-3.32-2.75-6.88-5.2-10.24-7.91-3-2.44-2.47-5,1.35-6.78l-1.26,2.48a7.42,7.42,0,0,0,2.59.06c.59-.2,1-1.08,1.43-1.66Z"/><path d="M226,36.85c1.93-6.61,3.76-13.26,5.91-19.8a4.5,4.5,0,0,1,3.23-2.3,11.46,11.46,0,0,1,12.18,8.14c.87,2.66.3,4.52-2.23,5.76l-18.24,8.9Z"/><path d="M219.76,50.2c-.47,1.44-1.22,3.61-1.89,5.81-1.3,4.26-2.62,8.51-3.81,12.81-.58,2.1-1.54,2.62-3.59,1.71-4-1.8-8-9.21-6.85-13.29a4.46,4.46,0,0,1,1.7-2.25c3.69-2.51,7.4-5,11.22-7.28C219.08,46.17,219.9,46.69,219.76,50.2Z"/><path d="M229.79,16.09c-2.16,7.29-4.15,13.94-6.1,20.59-.74,2.52-1.93,2.92-3.77,1-.68-.73-1.38-1.44-2.07-2.16-8.12-8.42-7.12-6.5.61-14.27A15.57,15.57,0,0,1,229.79,16.09Z"/><path d="M202.5,52.33a46.45,46.45,0,0,1,6-19c1-1.79,2.13-1.88,3.51-.45,2.31,2.39,4.65,4.74,6.93,7.16,1.6,1.69,1.37,3.47-.51,4.61-4.91,3-9.94,5.78-14.92,8.65Z"/><path d="M1021.51,186.91A44,44,0,0,1,1026,192c.77,1.18,1.57,3.49,1,4.2-3.11,3.9-6.81,7.19-12.1,7.9-2.75.37-3.62-.71-3-3.38.68-2.86,1.18-5.77,1.76-8.66l.65-1.44-.68-.13.14,1.66c-1.1,2.09-2.34,4.12-3.27,6.29a43.66,43.66,0,0,0-1.54,5.38c-3.09-.87-4.77-3-5.92-5.58-1.6-3.61-1.12-5.06,2-7.54a23.5,23.5,0,0,0,2.57-2.8l-.16.17,3.2-2.14-.19.13,2.24-1.14-.19.14c1.28.77,2.3,3,4.13.77a7.47,7.47,0,0,0-.25,1.86,3.18,3.18,0,0,0,.7,1.62c.12.14,1.18-.16,1.2-.33a3.66,3.66,0,0,0-.2-2.1c-.26-.46-1-.63-1.6-.93l3.19-.93-.18-.12,1.18,1.18-.2-.19,1.2,1.2Z"/><path d="M1019.25,171.67a61.16,61.16,0,0,0,3.09-5.79c1.57-3.82,3.13-4.67,6.78-2.69a12.91,12.91,0,0,1,4.22,4c1.56,2.27,1.15,4.32-1.63,5.6-3.47,1.6-6.85,3.39-10.31,5-.67.31-2.1.52-2.2.32-1.49-3.26-1.66-.45-2.4.41-.47.54-1.72,1.25-1.85,1.12-2.08-2.12-4.37-4.17-5.83-6.69-.44-.76,1.41-2.92,2.31-4.38a3.93,3.93,0,0,1,1.46-1.34c2.3-1.21,4.65-2.33,7-3.48q-.21,3.5-.41,7c0,.33-.06.66-.09,1l-.63,2.2h.74Z"/><path d="M1019.68,185c-1.34-2.41-1.16-4.25,1.88-5l-.57,2,1.94-.65-1.33-1.34c3.67-1.86,7.31-3.79,11-5.57,1.6-.76,3.06-.61,2.94,1.7-.25,5-1.28,9.84-4.23,14.09-1.05,1.52-2,1.91-3.59.68-2-1.48-4.15-2.66-6.23-4l.17.19-1.2-1.2.2.19-1.18-1.18Z"/><path d="M1007.61,187.9l-5.88,1.73c.36-2.2.69-4.4,1.08-6.59a5.38,5.38,0,0,1,.62-1.87c1.24-2,2.55-3.94,3.84-5.9a72.1,72.1,0,0,1,6.08,6.33c.45.59-.52,2.28-.84,3.46l.19-.14-2.24,1.14.19-.13-3.2,2.14Z"/><path d="M504.24,448.56c.65-2.54,2.07-3.33,4.23-1.6,1.55,1.24,2.89,2.72,4.33,4.1,3.28,3.15,3.42,4.11-.32,6.81a44.76,44.76,0,0,1-9.1,4.8c-1.57.65-3-.06-2.31-2.36.61-2.14,1-4.34,1.5-6.51l-1.28-.38c-.67,2-1.29,4.07-2,6.08-1,2.84-1.9,3-4.1.85-3.51-3.44-3.35-6.94.42-10.29a5.69,5.69,0,0,0,.8-1.19l.65-.41-.55.52c-4.9,1.06-5.32.7-3.85-3.87a66,66,0,0,1,2.76-6.84c.71-1.59,1.8-1.78,3-.4,1.85,2.13,4.85,3.53,4,7.33-.2.88,1.25,2.14,1.93,3.22l2.25.78-.12-1.76Zm-1.46,2.51.37,0-.15-.4Z"/><path d="M507.15,439.69c-1.33.3-3.23,1.29-3.89.76a31.53,31.53,0,0,1-4.75-5.57,1.5,1.5,0,0,1,.22-1.37c2.73-3.21,5.36-6.63,10.37-6.89l-.8,5-.6,2.32.74.09-.24-2.53a16.21,16.21,0,0,0,1.85-2.49c.87-1.77,1.37-3.72,4.09-3.32,3,.44,5.28,1.66,6.34,4.66.82,2.31-.23,3.71-2.16,4.84a7.8,7.8,0,0,0-1.57,1.71l.18-.16-9.85,2.84.08-2.29-.43,0Z"/><path d="M516.77,436.94l4.56-1.21c1.27,5.52-.23,10.31-3.26,14.75-.34.5-1.6,1-2,.75a75.68,75.68,0,0,1-8-5.81c-1.47-1.28-1.11-1.78,1.34-2.35.31-.07.87-.15.89-.28.42-4,4.74-3.64,6.59-6Z"/><path d="M110.68,427.1l-1.19-1.19Z"/><path class="cls-1" d="M223.42,47.14c.93.49,2.16.77,2.68,1.54.39.57,0,1.8-.31,2.67-.08.25-1.16.53-1.27.39a6,6,0,0,1-1.31-2.34,7.1,7.1,0,0,1,.4-2.43Z"/><path class="cls-1" d="M229.59,39.06l2.88.78c-.47.58-.83,1.45-1.43,1.66a7.42,7.42,0,0,1-2.59-.06l1.26-2.48Z"/><path class="cls-1" d="M1016.49,186c.56.3,1.35.46,1.6.93a3.66,3.66,0,0,1,.2,2.1c0,.17-1.08.48-1.2.33a3.18,3.18,0,0,1-.7-1.62,7.47,7.47,0,0,1,.25-1.86Z"/><path class="cls-1" d="M1007.45,188.07l3.2-2.14Z"/><path class="cls-1" d="M1013.75,192.15l-.14-1.66.68.13-.65,1.44Z"/><path class="cls-1" d="M1010.46,186.05l2.24-1.14Z"/><path class="cls-1" d="M1020.48,185.9l1.2,1.2Z"/><path class="cls-1" d="M1019.5,184.91l1.18,1.18Z"/><path class="cls-1" d="M1019.25,171.67l.24,2.3h-.74l.63-2.2Z"/><path class="cls-1" d="M1021.59,180l1.33,1.34L1021,182l.57-2Z"/><path class="cls-1" d="M504.24,448.56l2.2-1.12.12,1.76-2.25-.78Z"/><path class="cls-1" d="M496.5,449l.55-.52-.65.41Z"/><polygon class="cls-1" points="502.78 451.07 503 450.71 503.15 451.11 502.78 451.07"/><path class="cls-1" d="M508.2,431.55l.24,2.53-.74-.09.6-2.32Z"/><path class="cls-1" d="M507.15,439.69l-.4-2.32.43,0-.08,2.29Z"/></g></g></svg>