<?xml version="1.0" encoding="iso-8859-1"?>
<!-- Generator: Adobe Illustrator 19.1.0, SVG Export Plug-In . SVG Version: 6.00 Build 0)  -->
<svg version="1.1" id="Layer_1" xmlns="http://www.w3.org/2000/svg" xmlns:xlink="http://www.w3.org/1999/xlink" x="0px" y="0px"
	 viewBox="0 0 50 40.054" style="enable-background:new 0 0 50 40.054;" xml:space="preserve">
<style type="text/css">
	.st0{fill:#005841;}
	.st1{fill:#EC3652;}
</style>
<polygon class="st0" points="23.599,0 22.089,2.004 23.159,3.104 44.149,3.104 45.549,1.209 44.314,0 "/>
<polygon class="st1" points="5.467,0 4.368,1.154 12.446,1.154 13.296,2.004 22.088,2.004 23.599,0 "/>
<polygon class="st0" points="26.291,3.763 24.781,5.741 25.851,6.84 41.429,6.84 42.83,4.972 41.594,3.763 "/>
<polygon class="st1" points="26.291,3.763 8.16,3.763 7.061,4.89 15.138,4.89 15.962,5.741 24.781,5.741 "/>
<polygon class="st0" points="28.984,7.5 27.5,9.505 28.544,10.604 38.846,10.604 40.248,8.736 39.011,7.5 "/>
<polygon class="st1" points="28.984,7.5 10.852,7.5 9.753,8.654 17.829,8.654 18.682,9.505 27.5,9.505 "/>
<polygon class="st0" points="31.676,11.263 30.165,13.241 31.236,14.34 36.099,14.34 37.5,12.472 36.292,11.263 "/>
<polygon class="st1" points="31.703,11.263 13.544,11.263 12.445,12.417 20.523,12.417 21.374,13.241 30.165,13.241 "/>
<polygon class="st1" points="34.368,15.027 16.237,15.027 15.138,16.154 23.214,16.154 24.066,17.005 32.858,17.005 "/>
<polygon class="st0" points="33.626,17.774 35.138,15.769 34.368,15.028 32.858,17.005 "/>
<polygon class="st1" points="31.484,20.769 32.417,19.56 31.649,18.791 18.901,18.791 17.803,19.945 25.879,19.945 26.704,20.769 
	"/>
<polygon class="st1" points="29.121,22.554 21.428,22.554 20.33,23.708 28.159,23.708 28.956,24.505 29.862,23.323 "/>
<polygon class="st1" points="26.896,27.17 25.797,26.016 23.654,26.016 22.555,27.17 "/>
<polygon class="st0" points="2.335,31.044 2.335,31.071 2.418,31.126 2.473,31.181 2.528,31.236 2.555,31.319 2.583,31.484 
	2.583,31.676 2.583,33.488 0.825,31.264 0.77,31.181 0.714,31.126 0.687,31.044 0,31.044 0,31.071 0.084,31.126 0.137,31.181 
	0.165,31.236 0.22,31.319 0.247,31.484 0.247,31.676 0.247,33.57 0.247,33.763 0.22,33.928 0.165,34.01 0.137,34.065 0.084,34.12 
	0,34.175 0,34.203 0.825,34.203 0.825,34.175 0.741,34.12 0.687,34.065 0.66,34.01 0.605,33.928 0.577,33.763 0.577,33.57 
	0.577,31.73 2.225,33.79 2.39,33.983 2.528,34.148 2.692,34.258 2.912,34.368 2.912,31.676 2.94,31.484 2.968,31.319 2.995,31.236 
	3.023,31.181 3.104,31.126 3.187,31.071 3.187,31.044 "/>
<path class="st0" d="M5.138,33.049H4.424l0.356-0.906L5.138,33.049z M5.248,33.324l0.192,0.495l0.055,0.137l0.027,0.109
	l-0.027,0.028v0.055l-0.11,0.028v0.028h0.741v-0.028l-0.137-0.083l-0.082-0.136l-0.082-0.11l-0.055-0.165l-0.741-1.84H4.451
	l0.055,0.028l0.027,0.026l0.027,0.055v0.027l-0.027,0.11L4.506,32.17l-0.605,1.511l-0.055,0.165l-0.055,0.11l-0.11,0.136
	l-0.054,0.055l-0.055,0.028v0.028h0.659v-0.028l-0.11-0.028l-0.027-0.055v-0.028v-0.109l0.055-0.137l0.192-0.495H5.248z"/>
<polygon class="st0" points="7.171,32.087 7.501,32.087 7.583,32.087 7.692,32.115 7.775,32.17 7.802,32.225 7.83,32.225 
	7.94,31.812 7.857,31.84 7.775,31.84 6.429,31.84 6.319,31.84 6.182,31.812 6.072,32.225 6.154,32.17 6.264,32.142 6.374,32.087 
	6.512,32.087 6.813,32.087 6.813,33.709 6.813,33.845 6.813,33.983 6.758,34.093 6.703,34.148 6.648,34.175 6.648,34.203 
	7.363,34.203 7.363,34.175 7.253,34.093 7.198,34.01 7.198,33.874 7.171,33.735 "/>
<polygon class="st0" points="8.242,31.84 8.297,31.868 8.352,31.922 8.407,32.06 8.407,32.197 8.407,32.334 8.407,33.709 
	8.407,33.846 8.379,33.983 8.352,34.092 8.297,34.148 8.242,34.176 8.242,34.203 8.929,34.203 8.929,34.176 8.874,34.148 
	8.818,34.092 8.791,33.983 8.763,33.846 8.763,33.709 8.763,32.334 8.763,32.197 8.791,32.06 8.818,31.922 8.874,31.868 
	8.929,31.84 "/>
<path class="st0" d="M10.714,32.033l0.22,0.028l0.165,0.055l0.164,0.11l0.137,0.136l0.082,0.137l0.082,0.192l0.027,0.192
	l0.028,0.165l-0.028,0.219l-0.027,0.165l-0.082,0.165l-0.11,0.137l-0.11,0.11l-0.164,0.083l-0.165,0.055l-0.192,0.027l-0.22-0.027
	l-0.192-0.083l-0.136-0.082l-0.137-0.138l-0.11-0.165l-0.082-0.165l-0.027-0.191l-0.027-0.192l0.027-0.192l0.027-0.165l0.082-0.165
	l0.11-0.138l0.137-0.109l0.136-0.082l0.192-0.055L10.714,32.033z M10.742,31.785h-0.275l-0.247,0.082l-0.219,0.11l-0.22,0.165
	l-0.137,0.164l-0.137,0.22l-0.082,0.22l-0.027,0.247l0.027,0.274l0.082,0.247l0.137,0.22l0.137,0.165l0.22,0.165l0.219,0.11
	l0.22,0.055l0.275,0.028l0.247-0.028l0.247-0.082l0.219-0.083l0.22-0.165l0.165-0.192l0.11-0.22l0.082-0.22l0.028-0.136v-0.137
	l-0.028-0.247l-0.055-0.22l-0.137-0.22l-0.137-0.164l-0.192-0.165l-0.22-0.11l-0.246-0.082H10.742z"/>
<polygon class="st0" points="12.967,32.335 14.176,33.901 14.314,34.037 14.424,34.147 14.534,34.23 14.698,34.312 14.698,32.307 
	14.725,32.17 14.725,32.032 14.78,31.922 14.89,31.841 14.259,31.841 14.369,31.922 14.424,32.032 14.451,32.17 14.451,32.307 
	14.451,33.653 13.132,32.005 13.077,31.922 13.05,31.895 13.05,31.841 12.527,31.841 12.61,31.922 12.665,32.032 12.692,32.17 
	12.692,32.307 12.692,33.736 12.692,33.873 12.665,33.982 12.61,34.092 12.5,34.176 12.5,34.202 13.132,34.202 13.132,34.176 
	13.05,34.092 12.967,33.982 12.967,33.873 12.967,33.736 "/>
<path class="st0" d="M16.841,33.049h-0.714l0.356-0.906L16.841,33.049z M16.951,33.324l0.192,0.495l0.055,0.137l0.027,0.109
	l-0.027,0.028v0.055l-0.11,0.028v0.028h0.741v-0.028l-0.137-0.083l-0.082-0.136l-0.083-0.11l-0.055-0.165l-0.741-1.84h-0.576
	l0.055,0.028l0.027,0.026l0.028,0.055v0.027l-0.028,0.11l-0.027,0.083l-0.605,1.511l-0.055,0.165l-0.055,0.11l-0.11,0.136
	l-0.054,0.055l-0.055,0.028v0.028h0.659v-0.028l-0.11-0.028l-0.028-0.055v-0.028v-0.109l0.055-0.137l0.192-0.495H16.951z"/>
<polygon class="st0" points="18.791,33.901 18.791,32.334 18.791,32.197 18.791,32.06 18.846,31.923 18.874,31.868 18.929,31.84 
	18.242,31.84 18.324,31.868 18.351,31.923 18.406,32.06 18.406,32.197 18.406,32.334 18.406,33.708 18.406,33.846 18.406,33.983 
	18.351,34.093 18.324,34.148 18.242,34.176 18.242,34.203 19.725,34.203 19.918,33.708 19.89,33.708 19.78,33.818 19.615,33.901 
	19.45,33.928 19.259,33.928 "/>
<polygon class="st0" points="20.907,33.901 20.907,32.334 20.907,32.197 20.934,32.06 20.989,31.923 21.017,31.868 21.072,31.84 
	20.384,31.84 20.439,31.868 20.494,31.923 20.549,32.06 20.549,32.197 20.549,32.334 20.549,33.708 20.549,33.846 20.549,33.983 
	20.494,34.093 20.439,34.148 20.384,34.176 20.384,34.203 21.868,34.203 22.061,33.708 22.033,33.708 21.896,33.818 21.758,33.901 
	21.593,33.928 21.402,33.928 "/>
<polygon class="st0" points="23.379,33.159 24.258,31.84 23.627,31.84 23.709,31.895 23.737,31.922 23.764,31.977 23.764,32.032 
	23.737,32.142 23.709,32.197 23.242,32.884 22.665,31.922 22.638,31.895 22.555,31.867 22.418,31.84 22.088,31.84 22.198,31.922 
	22.28,32.005 22.418,32.197 23.022,33.159 23.022,33.709 23.022,33.845 22.994,33.955 22.967,34.093 22.912,34.148 22.884,34.175 
	22.884,34.203 23.572,34.203 23.572,34.175 23.462,34.093 23.407,33.983 23.379,33.873 23.379,33.735 "/>
<polygon class="st0" points="26.319,31.044 26.319,31.071 26.401,31.099 26.456,31.181 26.484,31.264 26.511,31.346 26.539,31.539 
	26.539,31.73 26.539,33.544 26.539,33.709 26.511,33.9 26.484,34.01 26.456,34.065 26.401,34.148 26.319,34.175 26.319,34.203 
	27.225,34.203 27.225,34.175 27.143,34.148 27.115,34.065 27.06,34.01 27.033,33.9 27.005,33.709 27.005,33.544 27.005,31.401 
	27.335,31.346 27.473,31.346 27.583,31.374 27.693,31.429 27.775,31.484 27.858,31.566 27.913,31.647 27.94,31.757 27.967,31.867 
	27.94,32.032 27.885,32.17 27.803,32.28 27.693,32.362 27.555,32.445 27.418,32.5 27.143,32.554 27.583,33.241 28.16,33.955 
	28.269,34.065 28.407,34.148 28.544,34.175 28.709,34.203 29.148,34.203 28.957,34.065 28.737,33.9 28.544,33.709 28.379,33.544 
	27.693,32.664 27.83,32.609 27.967,32.554 28.104,32.472 28.214,32.362 28.324,32.252 28.379,32.115 28.434,31.977 28.462,31.812 
	28.434,31.647 28.379,31.511 28.297,31.401 28.187,31.264 28.05,31.181 27.885,31.099 27.693,31.071 27.445,31.044 "/>
<polygon class="st0" points="29.67,33.049 29.945,33.049 30.11,33.049 30.193,33.104 30.248,33.131 30.248,32.774 30.165,32.774 
	30.083,32.774 29.67,32.774 29.67,32.115 29.863,32.087 30.028,32.087 30.165,32.087 30.275,32.115 30.357,32.17 30.467,32.225 
	30.467,31.812 30.384,31.84 30.302,31.84 29.148,31.84 29.203,31.867 29.258,31.922 29.285,32.06 29.285,32.197 29.285,32.335 
	29.285,33.709 29.285,33.845 29.285,33.983 29.258,34.093 29.203,34.148 29.148,34.175 29.148,34.203 30.632,34.203 30.797,33.735 
	30.632,33.845 30.467,33.9 30.302,33.928 30.11,33.928 29.67,33.9 "/>
<polygon class="st0" points="33.104,31.868 32.774,31.813 32.473,31.785 32.198,31.813 31.95,31.868 31.73,31.978 31.567,32.115 
	31.402,32.307 31.292,32.499 31.209,32.747 31.209,33.022 31.209,33.296 31.292,33.543 31.402,33.736 31.567,33.928 31.758,34.066 
	32.005,34.176 32.253,34.231 32.555,34.258 32.857,34.231 32.994,34.203 33.104,34.148 33.297,33.736 33.104,33.818 32.912,33.901 
	32.719,33.928 32.528,33.956 32.308,33.928 32.143,33.873 31.978,33.791 31.868,33.653 31.758,33.516 31.675,33.351 31.622,33.159 
	31.594,32.967 31.622,32.774 31.675,32.609 31.73,32.444 31.84,32.307 31.95,32.225 32.115,32.143 32.253,32.088 32.445,32.088 
	32.61,32.088 32.802,32.143 32.967,32.198 33.104,32.279 "/>
<path class="st0" d="M34.945,32.033l0.22,0.028l0.165,0.055l0.165,0.11l0.136,0.136l0.082,0.137l0.083,0.192l0.055,0.192v0.165
	v0.219l-0.055,0.165l-0.083,0.165l-0.109,0.137l-0.11,0.11l-0.165,0.083l-0.165,0.055l-0.192,0.027l-0.22-0.027l-0.165-0.083
	l-0.164-0.082l-0.137-0.138l-0.11-0.165l-0.082-0.165l-0.028-0.191l-0.028-0.192l0.028-0.192l0.028-0.165l0.082-0.165l0.11-0.138
	l0.137-0.109l0.136-0.082l0.192-0.055L34.945,32.033z M34.972,31.785h-0.275l-0.246,0.082l-0.22,0.11l-0.22,0.165l-0.137,0.164
	l-0.137,0.22l-0.083,0.22l-0.028,0.247l0.028,0.274l0.083,0.247l0.137,0.22l0.137,0.165l0.22,0.165l0.22,0.11l0.219,0.055
	l0.275,0.028l0.247-0.028l0.247-0.082l0.219-0.083l0.22-0.165l0.165-0.192l0.11-0.22l0.083-0.22l0.027-0.136v-0.137l-0.027-0.247
	l-0.055-0.22l-0.11-0.22l-0.165-0.164l-0.193-0.165l-0.219-0.11l-0.247-0.082H34.972z"/>
<polygon class="st0" points="38.736,31.84 38.461,31.785 38.186,31.785 37.857,31.785 37.582,31.868 37.335,31.978 37.115,32.115 
	37.006,32.198 36.923,32.307 36.868,32.389 36.813,32.499 36.758,32.637 36.731,32.747 36.703,32.884 36.703,33.022 36.731,33.296 
	36.813,33.543 36.923,33.736 37.087,33.928 37.281,34.066 37.555,34.176 37.83,34.231 38.16,34.258 38.379,34.258 38.599,34.231 
	39.011,34.148 39.011,34.066 38.984,33.983 38.984,33.159 39.011,33.077 39.011,32.994 38.461,32.994 38.516,33.049 38.571,33.077 
	38.599,33.187 38.626,33.296 38.626,33.406 38.626,33.928 38.379,33.983 38.132,34.011 37.94,33.983 37.72,33.928 37.555,33.846 
	37.417,33.708 37.281,33.571 37.198,33.378 37.115,33.187 37.115,32.994 37.115,32.774 37.198,32.582 37.281,32.444 37.39,32.307 
	37.527,32.17 37.692,32.088 37.885,32.06 38.105,32.033 38.269,32.033 38.434,32.088 38.599,32.143 38.736,32.253 "/>
<polygon class="st0" points="39.89,32.335 41.126,33.901 41.236,34.037 41.346,34.147 41.484,34.23 41.649,34.312 41.649,32.307 
	41.649,32.17 41.676,32.032 41.731,31.922 41.84,31.841 41.209,31.841 41.319,31.922 41.374,32.032 41.401,32.17 41.401,32.307 
	41.401,33.653 40.083,32.005 40.028,31.922 40,31.895 39.973,31.841 39.45,31.841 39.56,31.922 39.615,32.032 39.643,32.17 
	39.643,32.307 39.643,33.736 39.643,33.873 39.615,33.982 39.56,34.092 39.45,34.176 39.45,34.202 40.083,34.202 40.083,34.176 
	39.973,34.092 39.918,33.982 39.89,33.873 39.89,33.736 "/>
<polygon class="st0" points="42.308,31.84 42.389,31.868 42.418,31.922 42.473,32.06 42.473,32.197 42.473,32.334 42.473,33.709 
	42.473,33.846 42.473,33.983 42.418,34.092 42.389,34.148 42.308,34.176 42.308,34.203 42.994,34.203 42.994,34.176 42.94,34.148 
	42.913,34.092 42.857,33.983 42.857,33.846 42.857,33.709 42.857,32.334 42.857,32.197 42.857,32.06 42.913,31.922 42.94,31.868 
	42.994,31.84 "/>
<polygon class="st0" points="44.918,31.868 44.67,31.785 44.395,31.785 44.231,31.785 44.066,31.813 43.929,31.868 43.791,31.923 
	43.654,32.005 43.571,32.115 43.516,32.253 43.489,32.389 43.516,32.527 43.544,32.664 43.599,32.747 43.681,32.829 43.791,32.912 
	43.874,32.967 44.121,33.104 44.34,33.187 44.533,33.296 44.615,33.378 44.67,33.433 44.698,33.543 44.725,33.626 44.698,33.708 
	44.67,33.791 44.615,33.846 44.56,33.901 44.395,33.983 44.231,34.011 44.011,33.983 43.791,33.928 43.599,33.818 43.434,33.708 
	43.516,34.148 43.681,34.203 43.846,34.231 44.176,34.258 44.368,34.231 44.56,34.203 44.725,34.121 44.863,34.038 44.973,33.928 
	45.055,33.791 45.11,33.653 45.138,33.516 45.138,33.406 45.083,33.296 45.028,33.214 44.945,33.132 44.753,32.994 44.533,32.884 
	44.285,32.774 44.094,32.664 44.011,32.609 43.956,32.527 43.929,32.444 43.901,32.362 43.929,32.279 43.956,32.198 44.011,32.143 
	44.066,32.115 44.204,32.06 44.368,32.033 44.533,32.06 44.67,32.088 44.808,32.17 44.918,32.253 "/>
<polygon class="st0" points="46.209,33.049 46.484,33.049 46.649,33.049 46.731,33.104 46.786,33.131 46.786,32.774 46.704,32.774 
	46.621,32.774 46.209,32.774 46.209,32.115 46.401,32.087 46.566,32.087 46.704,32.087 46.814,32.115 46.895,32.17 47.005,32.225 
	47.005,31.812 46.923,31.84 46.84,31.84 45.686,31.84 45.741,31.867 45.796,31.922 45.824,32.06 45.851,32.197 45.851,32.335 
	45.851,33.709 45.851,33.845 45.824,33.983 45.796,34.093 45.741,34.148 45.686,34.175 45.686,34.203 47.17,34.203 47.335,33.735 
	47.198,33.845 47.005,33.9 46.84,33.928 46.676,33.928 46.209,33.9 "/>
<path class="st0" d="M48.324,32.142l0.166-0.027l0.136-0.028l0.22,0.028l0.192,0.027l0.165,0.084l0.136,0.109l0.111,0.139
	l0.081,0.164l0.055,0.192v0.22l-0.028,0.22l-0.055,0.165l-0.081,0.164l-0.139,0.111l-0.136,0.109l-0.192,0.055l-0.193,0.055h-0.165
	h-0.275V32.142z M47.802,31.84l0.055,0.028l0.028,0.054l0.055,0.056v0.055l0.028,0.164l-0.028,0.137v1.347v0.164v0.11l-0.055,0.136
	l-0.028,0.056l-0.055,0.027v0.028h0.852l0.274-0.028l0.275-0.055l0.22-0.11l0.22-0.137l0.136-0.191l0.11-0.194l0.082-0.246
	L50,32.994l-0.028-0.247l-0.055-0.22l-0.11-0.22l-0.164-0.165l-0.192-0.136l-0.22-0.084l-0.247-0.054l-0.301-0.028H47.802z"/>
<polygon class="st0" points="18.132,36.785 18.022,36.785 16.236,36.785 16.099,36.785 16.017,36.785 15.934,36.758 15.907,36.758 
	15.742,37.334 15.879,37.252 16.017,37.197 16.182,37.143 16.318,37.143 16.758,37.143 16.758,39.285 16.758,39.45 16.731,39.642 
	16.703,39.725 16.676,39.807 16.622,39.89 16.538,39.945 17.472,39.945 17.391,39.862 17.336,39.807 17.281,39.752 17.252,39.67 
	17.225,39.505 17.225,39.313 17.225,37.143 17.665,37.143 17.775,37.143 17.912,37.17 18.022,37.224 18.05,37.279 18.077,37.334 
	18.105,37.334 18.242,36.758 "/>
<polygon class="st0" points="19.369,37.582 18.517,37.582 18.599,37.636 18.626,37.692 18.681,37.802 18.681,37.939 18.681,38.076 
	18.681,39.45 18.681,39.586 18.681,39.725 18.626,39.863 18.599,39.918 18.517,39.945 19.203,39.945 19.149,39.918 19.121,39.863 
	19.066,39.725 19.066,39.586 19.066,39.45 19.066,37.829 19.286,37.802 19.369,37.802 19.479,37.829 19.56,37.856 19.615,37.911 
	19.67,37.967 19.725,38.021 19.754,38.104 19.754,38.214 19.754,38.324 19.698,38.434 19.643,38.516 19.56,38.571 19.479,38.626 
	19.369,38.681 19.149,38.709 19.479,39.23 19.89,39.779 20,39.863 20.083,39.918 20.193,39.945 20.33,39.945 20.659,39.945 
	20.33,39.725 20.193,39.586 20.083,39.45 19.56,38.791 19.67,38.764 19.781,38.709 19.863,38.653 19.945,38.571 20.028,38.489 
	20.083,38.379 20.11,38.269 20.11,38.159 20.11,38.049 20.083,37.939 20.028,37.829 19.945,37.747 19.835,37.692 19.698,37.636 
	19.56,37.582 "/>
<path class="st0" d="M21.84,37.884l0.357,0.907h-0.714L21.84,37.884z M21.511,37.582l0.054,0.027l0.028,0.026l0.029,0.056v0.028
	l-0.029,0.109l-0.028,0.11l-0.604,1.484l-0.055,0.164l-0.083,0.139l-0.081,0.109l-0.055,0.056l-0.084,0.055h0.66l-0.082-0.055
	l-0.028-0.056v-0.028v-0.109l0.055-0.139l0.165-0.494h0.934l0.192,0.494l0.054,0.166v0.081v0.056l-0.027,0.027l-0.081,0.055h0.741
	l-0.137-0.111l-0.082-0.109l-0.081-0.139l-0.055-0.164l-0.742-1.84H21.511z"/>
<polygon class="st0" points="23.571,37.582 23.654,37.636 23.681,37.692 23.736,37.802 23.736,37.939 23.736,38.076 23.736,39.45 
	23.736,39.586 23.736,39.725 23.681,39.863 23.654,39.918 23.571,39.945 24.259,39.945 24.204,39.918 24.176,39.863 24.12,39.725 
	24.12,39.586 24.12,39.45 24.12,38.076 24.12,37.939 24.12,37.802 24.176,37.692 24.204,37.636 24.259,37.582 "/>
<polygon class="st0" points="26.538,37.582 26.648,37.692 26.703,37.775 26.703,37.911 26.731,38.049 26.731,39.395 25.412,37.747 
	25.357,37.692 25.33,37.636 25.302,37.582 24.781,37.582 24.891,37.692 24.945,37.775 24.973,37.911 24.973,38.049 24.973,39.478 
	24.973,39.614 24.945,39.725 24.891,39.834 24.781,39.945 25.412,39.945 25.302,39.834 25.248,39.725 25.221,39.614 25.221,39.478 
	25.221,38.076 26.457,39.643 26.566,39.779 26.676,39.918 26.813,40 26.978,40.054 26.978,38.049 26.978,37.911 27.006,37.775 
	27.06,37.692 27.171,37.582 "/>
<polygon class="st0" points="27.638,37.582 27.719,37.636 27.748,37.692 27.803,37.802 27.803,37.939 27.803,38.076 27.803,39.45 
	27.803,39.586 27.803,39.725 27.748,39.863 27.692,39.918 27.638,39.945 28.324,39.945 28.269,39.918 28.242,39.863 28.187,39.725 
	28.159,39.586 28.159,39.45 28.159,38.076 28.159,37.939 28.187,37.802 28.242,37.692 28.269,37.636 28.324,37.582 "/>
<polygon class="st0" points="30.604,37.582 30.714,37.692 30.77,37.775 30.77,37.911 30.77,38.049 30.77,39.395 29.45,37.747 
	29.423,37.692 29.369,37.636 29.369,37.582 28.846,37.582 28.929,37.692 29.011,37.775 29.039,37.911 29.039,38.049 29.039,39.478 
	29.039,39.614 29.011,39.725 28.929,39.834 28.846,39.945 29.45,39.945 29.369,39.834 29.314,39.725 29.286,39.614 29.286,39.478 
	29.286,38.076 30.523,39.643 30.632,39.779 30.743,39.918 30.879,40 31.044,40.054 31.044,38.049 31.044,37.911 31.072,37.775 
	31.127,37.692 31.237,37.582 "/>
<polygon class="st0" points="32.83,37.555 32.528,37.61 32.281,37.72 32.061,37.856 31.978,37.94 31.896,38.049 31.759,38.241 
	31.703,38.379 31.676,38.516 31.648,38.626 31.648,38.763 31.676,39.037 31.731,39.285 31.868,39.477 32.033,39.67 32.253,39.806 
	32.501,39.917 32.775,39.972 33.105,40 33.325,40 33.544,39.972 33.957,39.89 33.957,39.806 33.957,39.725 33.957,38.901 
	33.957,38.818 33.957,38.763 33.957,38.736 33.406,38.736 33.406,38.763 33.462,38.791 33.516,38.818 33.571,38.928 33.571,39.037 
	33.571,39.176 33.571,39.67 33.325,39.725 33.077,39.752 32.857,39.725 32.692,39.67 32.501,39.587 32.363,39.45 32.225,39.312 
	32.142,39.12 32.088,38.956 32.061,38.736 32.088,38.516 32.116,38.324 32.225,38.187 32.336,38.049 32.473,37.94 32.665,37.856 
	32.83,37.802 33.05,37.775 33.215,37.802 33.406,37.829 33.544,37.884 33.681,37.995 33.71,37.995 33.71,37.582 33.406,37.555 
	33.132,37.527 "/>
</svg>
