<?xml version="1.0" encoding="utf-8"?>
<!-- Generator: Adobe Illustrator 24.0.2, SVG Export Plug-In . SVG Version: 6.00 Build 0)  -->
<svg version="1.1" id="Layer_1" xmlns="http://www.w3.org/2000/svg" xmlns:xlink="http://www.w3.org/1999/xlink" x="0px" y="0px"
	 viewBox="0 0 495 80.1" style="enable-background:new 0 0 495 80.1;" xml:space="preserve">
<style type="text/css">
	.st0{fill:#FFFFFF;}
	.st1{fill:#F79F1A;}
	.st2{fill:#059BBF;}
	.st3{opacity:0.15;fill:#202121;enable-background:new    ;}
	.st4{fill:#275798;}
	.st5{clip-path:url(#SVGID_2_);}
	.st6{fill:#DCAD3B;}
	.st7{clip-path:url(#SVGID_4_);}
	.st8{fill:#BF352D;}
	.st9{clip-path:url(#SVGID_6_);}
	.st10{clip-path:url(#SVGID_8_);}
	.st11{clip-path:url(#SVGID_10_);}
	.st12{clip-path:url(#SVGID_12_);}
	.st13{clip-path:url(#SVGID_14_);}
	.st14{clip-path:url(#SVGID_16_);}
	.st15{clip-path:url(#SVGID_18_);}
	.st16{clip-path:url(#SVGID_20_);}
	.st17{clip-path:url(#SVGID_22_);}
	.st18{clip-path:url(#SVGID_24_);}
	.st19{fill:#306FC5;}
	.st20{fill:#313C42;enable-background:new    ;}
</style>
<title>Asset 1</title>
<g id="Layer_2_1_">
	<g id="Layer_2-2">
		<path class="st0" d="M116.1,73.1c0,3.8-3.1,6.9-6.9,6.9l0,0H6.9C3.1,80,0,76.9,0,73.1l0,0V6.9C0,3.1,3.1,0,6.9,0l0,0h102.3
			c3.8,0,6.9,3.1,6.9,6.9l0,0C116.1,6.9,116.1,73.1,116.1,73.1z"/>
		<path class="st1" d="M25.8,40.5L23,27.4c-0.5-1.8-1.8-2.3-3.5-2.4H7l-0.1,0.6C16.6,27.9,23.1,33.6,25.8,40.5z"/>
		<polygon class="st2" points="54.7,25.2 46.6,25.2 41.6,54.8 49.7,54.8 		"/>
		<path class="st2" d="M30.7,54.8l12.7-29.5h-8.5L27,45.5l-0.8-3c-1.5-3.7-6-8.9-11.2-12.2l7.2,24.6L30.7,54.8z"/>
		<path class="st2" d="M77.7,45.2c0-3.3-2.1-5.9-6.8-8c-2.8-1.4-4.6-2.3-4.5-3.7S67.9,31,71,31c2.1,0,4.1,0.3,6,1.1l0.7,0.3l1.1-6.4
			c-2.3-0.8-4.8-1.3-7.2-1.2c-8,0-13.6,4-13.6,9.8c0,4.2,4,6.6,7.1,8s4.2,2.4,4.2,3.7c0,2-2.5,2.9-4.8,2.9c-2.6,0.1-5.2-0.5-7.6-1.5
			l-1-0.5l-1.1,6.6c2.9,1.1,5.9,1.6,9,1.6C72.2,55.3,77.7,51.3,77.7,45.2z"/>
		<path class="st2" d="M87.3,50.4h10.3c0.2,1,1,4.4,1,4.4h7.5l-6.6-29.5h-6.2c-1.9,0-3.4,0.5-4.2,2.5l-12,27.1h8.5
			C85.6,54.8,87,51.2,87.3,50.4z M92.8,36.1c0,0.1,0.7-1.7,1.1-2.8l0.6,2.5l1.9,8.5h-6.7C90.3,42.6,92.8,36.1,92.8,36.1z"/>
		<path class="st2" d="M109.2,0H6.9C3.1,0,0,3.1,0,6.9l0,0V14h116.1V6.9C116.1,3.1,113,0,109.2,0L109.2,0z"/>
		<path class="st1" d="M109.2,80H6.9C3.1,80,0,76.9,0,73.1l0,0V66h116.1v7.1C116.1,76.9,113,80,109.2,80L109.2,80z"/>
		<path class="st3" d="M4.9,73.1V6.9C4.9,3.1,8,0,11.7,0H6.9C3.1,0,0,3.1,0,6.9l0,0v66.3C0,76.9,3.1,80,6.9,80l0,0h4.9
			C8,80,4.9,76.9,4.9,73.1L4.9,73.1z"/>
		<path class="st4" d="M242.1,73.1c0,3.8-3.1,6.9-6.9,6.9H132.9c-3.8,0-6.9-3.1-6.9-6.9l0,0V6.9c0-3.8,3.1-6.9,6.9-6.9l0,0h102.3
			c3.8,0,6.9,3.1,6.9,6.9L242.1,73.1L242.1,73.1z"/>
		<path class="st3" d="M130.9,73.1V6.9c0-3.8,3.1-6.9,6.9-6.9h-4.9c-3.8,0-6.9,3.1-6.9,6.9l0,0v66.3c0,3.8,3.1,6.9,6.9,6.9l0,0h4.9
			C134,80,130.9,76.9,130.9,73.1z"/>
		<g>
			<g>
				<defs>
					<rect id="SVGID_1_" x="139.3" y="10.6" width="94.1" height="58.8"/>
				</defs>
				<clipPath id="SVGID_2_">
					<use xlink:href="#SVGID_1_"  style="overflow:visible;"/>
				</clipPath>
				<g class="st5">
					<path class="st6" d="M227.2,40.4c-0.3,13.5-11.5,24.3-25,24c-13.1-0.3-23.7-10.8-24-24l0,0c-0.3-13.5,10.5-24.7,24-25
						s24.7,10.5,25,24C227.2,39.7,227.2,40,227.2,40.4z"/>
				</g>
			</g>
		</g>
		<g>
			<g>
				<defs>
					<rect id="SVGID_3_" x="139.3" y="10.6" width="94.1" height="58.8"/>
				</defs>
				<clipPath id="SVGID_4_">
					<use xlink:href="#SVGID_3_"  style="overflow:visible;"/>
				</clipPath>
				<g class="st7">
					<path class="st8" d="M169.7,15.6C156,15.6,145,26.8,145,40.4c0,13.7,11.2,24.7,24.8,24.7l0,0c6.1,0,12-2.3,16.5-6.5l0,0
						c0.9-0.8,1.7-1.7,2.5-2.7h-5c-0.7-0.8-1.2-1.7-1.8-2.6h8.7c0.5-0.9,1-1.7,1.4-2.7h-11.5c-0.4-0.9-0.7-1.7-1-2.6h13.5
						c1.4-4.2,1.6-8.8,0.7-13.2h-15c0.2-0.9,0.4-1.7,0.7-2.6H193c-0.3-0.9-0.7-1.8-1-2.6h-11.5c0.4-0.9,0.9-1.7,1.4-2.6h8.7
						c-0.6-0.9-1.2-1.8-1.9-2.6h-4.9c0.7-0.9,1.5-1.7,2.4-2.5C181.8,18,175.9,15.7,169.7,15.6L169.7,15.6L169.7,15.6z"/>
				</g>
			</g>
		</g>
		<g>
			<g>
				<defs>
					<rect id="SVGID_5_" x="139.3" y="10.6" width="94.1" height="58.8"/>
				</defs>
				<clipPath id="SVGID_6_">
					<use xlink:href="#SVGID_5_"  style="overflow:visible;"/>
				</clipPath>
				<g class="st9">
					<path class="st0" d="M178.7,46.6l0.3-2.2c-0.1,0-0.4,0.1-0.7,0.1c-0.9,0-1-0.5-0.9-0.9l0.7-4.6h1.4l0.3-2.5h-1.3l0.3-1.5h-2.6
						c-0.1,0.1-1.6,8.7-1.6,9.7c-0.2,1.1,0.6,2,1.6,2.2c0.1,0,0.3,0,0.4,0C177.3,47,178,46.9,178.7,46.6L178.7,46.6z"/>
				</g>
			</g>
		</g>
		<g>
			<g>
				<defs>
					<rect id="SVGID_7_" x="139.3" y="10.6" width="94.1" height="58.8"/>
				</defs>
				<clipPath id="SVGID_8_">
					<use xlink:href="#SVGID_7_"  style="overflow:visible;"/>
				</clipPath>
				<g class="st10">
					<path class="st0" d="M184.1,38.6c1.5,0,1.2,1.7,1.2,1.8h-2.9C182.4,40.3,182.6,38.6,184.1,38.6z M179.5,42.3
						c0,3.8,2.4,4.6,4.5,4.6c1,0.1,1.9-0.1,2.8-0.4l0.4-2.6c-0.9,0.4-1.8,0.6-2.8,0.7c-2.8,0-2.3-2.1-2.3-2.1h5.3
						c0.1-0.8,0.3-1.6,0.4-2.4c0.2-1.9-1.2-3.6-3.2-3.8c-0.2,0-0.4,0-0.6,0C181.4,36.2,179.5,39.1,179.5,42.3L179.5,42.3z"/>
				</g>
			</g>
		</g>
		<g>
			<g>
				<defs>
					<rect id="SVGID_9_" x="139.3" y="10.6" width="94.1" height="58.8"/>
				</defs>
				<clipPath id="SVGID_10_">
					<use xlink:href="#SVGID_9_"  style="overflow:visible;"/>
				</clipPath>
				<g class="st11">
					<path class="st0" d="M200.6,46.6l0.4-2.9c-0.7,0.4-1.4,0.6-2.1,0.7c-1.8,0-2.6-1.4-2.6-2.9c0-3.1,1.6-4.8,3.4-4.8
						c0.9,0,1.7,0.3,2.4,0.7l0.4-2.8c-0.9-0.4-1.9-0.6-2.9-0.7c-3,0-6,2.7-6,7.6c0,3.3,1.6,5.4,4.7,5.4
						C199.1,46.9,199.9,46.8,200.6,46.6z"/>
				</g>
			</g>
		</g>
		<g>
			<g>
				<defs>
					<rect id="SVGID_11_" x="139.3" y="10.6" width="94.1" height="58.8"/>
				</defs>
				<clipPath id="SVGID_12_">
					<use xlink:href="#SVGID_11_"  style="overflow:visible;"/>
				</clipPath>
				<g class="st12">
					<path class="st0" d="M164.9,42.2c0.1,0.4-0.3,2.5-1.8,2.5c-0.5,0-0.9-0.4-1-0.9v-0.1c0-0.7,0.4-1.6,2.3-1.6
						C164.6,42.1,164.7,42.2,164.9,42.2L164.9,42.2z M164.4,36.3c-1.1,0-2.1,0.2-3.2,0.6l-0.4,2.3c0.9-0.3,1.9-0.5,2.9-0.4
						c0.9,0,1.7,0.2,1.7,0.9c0,0.2,0,0.4-0.1,0.7c0,0-0.7-0.1-1.1-0.1c-2.3,0-4.6,1-4.6,3.9c-0.2,1.4,0.8,2.6,2.2,2.8
						c0.1,0,0.2,0,0.3,0c1,0,2-0.5,2.6-1.2l-0.1,1h2.3l1-7.3C167.9,36.4,165.3,36.3,164.4,36.3L164.4,36.3z"/>
				</g>
			</g>
		</g>
		<g>
			<g>
				<defs>
					<rect id="SVGID_13_" x="139.3" y="10.6" width="94.1" height="58.8"/>
				</defs>
				<clipPath id="SVGID_14_">
					<use xlink:href="#SVGID_13_"  style="overflow:visible;"/>
				</clipPath>
				<g class="st13">
					<path class="st0" d="M170.4,46.9c0.6,0,4,0.2,4-3.4c0-3.3-3.1-2.7-3.1-4c0-0.7,0.5-0.9,1.4-0.9c0.4,0,1.8,0.1,1.8,0.1l0.3-2.3
						c-0.8-0.1-1.6-0.2-2.4-0.2c-1.9,0-3.9,0.8-3.9,3.5c0,3,3.2,2.7,3.2,4c0,0.9-0.9,0.9-1.6,0.9c-0.8,0-1.6-0.1-2.3-0.4l-0.4,2.3
						C168.3,46.8,169.4,47,170.4,46.9L170.4,46.9z"/>
				</g>
			</g>
		</g>
		<g>
			<g>
				<defs>
					<rect id="SVGID_15_" x="139.3" y="10.6" width="94.1" height="58.8"/>
				</defs>
				<clipPath id="SVGID_16_">
					<use xlink:href="#SVGID_15_"  style="overflow:visible;"/>
				</clipPath>
				<g class="st14">
					<path class="st0" d="M220.9,41.1c0,1.4-0.7,3.2-2.1,3.2c-0.9,0-1.4-0.8-1.4-2.1c0-2.1,0.9-3.4,2.1-3.4S220.9,39.6,220.9,41.1z
						 M222.2,34.3l-0.6,3.5c-0.6-0.8-1.5-1.3-2.5-1.4c-2.4,0-4.4,2.9-4.4,6.2c0,2.1,1,4.3,3.2,4.3c0.9,0,1.8-0.4,2.4-1.1l-0.1,1h2.6
						l2-12.5H222.2z"/>
				</g>
			</g>
		</g>
		<g>
			<g>
				<defs>
					<rect id="SVGID_17_" x="139.3" y="10.6" width="94.1" height="58.8"/>
				</defs>
				<clipPath id="SVGID_18_">
					<use xlink:href="#SVGID_17_"  style="overflow:visible;"/>
				</clipPath>
				<g class="st15">
					<polygon class="st0" points="150.2,46.8 151.9,37.3 152.1,46.8 153.8,46.8 157.2,37.3 155.8,46.8 158.4,46.8 160.4,34.2 
						156.3,34.2 153.8,41.9 153.6,34.2 149.8,34.2 147.7,46.8 					"/>
				</g>
			</g>
		</g>
		<g>
			<g>
				<defs>
					<rect id="SVGID_19_" x="139.3" y="10.6" width="94.1" height="58.8"/>
				</defs>
				<clipPath id="SVGID_20_">
					<use xlink:href="#SVGID_19_"  style="overflow:visible;"/>
				</clipPath>
				<g class="st16">
					<path class="st0" d="M190.4,46.8c0.7-4.3,0.9-7.9,2.7-7.3c0.2-1.1,0.5-2.1,0.9-3.1h-0.5c-1.2,0-2.1,1.6-2.1,1.6l0.2-1.5h-2.4
						l-1.6,10.2L190.4,46.8L190.4,46.8z"/>
				</g>
			</g>
		</g>
		<g>
			<g>
				<defs>
					<rect id="SVGID_21_" x="139.3" y="10.6" width="94.1" height="58.8"/>
				</defs>
				<clipPath id="SVGID_22_">
					<use xlink:href="#SVGID_21_"  style="overflow:visible;"/>
				</clipPath>
				<g class="st17">
					<path class="st0" d="M207.2,42.2c0.1,0.4-0.3,2.5-1.8,2.5c-0.5,0-0.9-0.4-1-0.9v-0.1c0-0.7,0.4-1.6,2.3-1.6
						C206.9,42.1,207,42.2,207.2,42.2L207.2,42.2z M206.6,36.3c-1.1,0-2.1,0.2-3.2,0.6l-0.4,2.3c0.9-0.3,1.9-0.5,2.9-0.4
						c1,0,1.7,0.2,1.7,0.9c0,0.2,0,0.4-0.1,0.7c0,0-0.7-0.1-1.1-0.1c-2.3,0-4.6,1-4.6,3.9c-0.2,1.4,0.8,2.6,2.2,2.8
						c0.1,0,0.2,0,0.3,0c1,0,2-0.4,2.7-1.3l-0.1,1h2.3l1-7.2C210.2,36.4,207.6,36.3,206.6,36.3L206.6,36.3z"/>
				</g>
			</g>
		</g>
		<g>
			<g>
				<defs>
					<rect id="SVGID_23_" x="139.3" y="10.6" width="94.1" height="58.8"/>
				</defs>
				<clipPath id="SVGID_24_">
					<use xlink:href="#SVGID_23_"  style="overflow:visible;"/>
				</clipPath>
				<g class="st18">
					<path class="st0" d="M212.3,46.8c0.7-4.3,0.9-7.9,2.7-7.3c0.2-1.1,0.5-2.1,0.9-3.1h-0.5c-1.2,0-2.1,1.6-2.1,1.6l0.2-1.5h-2.4
						l-1.6,10.2L212.3,46.8z"/>
				</g>
			</g>
		</g>
		<path class="st19" d="M368.5,73.1c0,3.8-3.1,6.9-6.9,6.9H259.3c-3.8,0-6.9-3.1-6.9-6.9l0,0V6.9c0-3.8,3.1-6.9,6.9-6.9l0,0h102.3
			c3.8,0,6.9,3.1,6.9,6.9L368.5,73.1L368.5,73.1z"/>
		<path class="st3" d="M257.4,73.1V6.9c0-3.8,3.1-6.9,6.9-6.9h-4.9c-3.8,0-6.9,3.1-6.9,6.9l0,0v66.3c0,3.8,3.1,6.9,6.9,6.9h4.9
			C260.4,80,257.4,76.9,257.4,73.1z"/>
		<polygon class="st0" points="269.4,32 272.8,32 271.1,27.6 		"/>
		<polygon class="st0" points="287.8,46.8 287.8,48.9 293.6,48.9 293.6,51.1 287.8,51.1 287.8,53.4 294.3,53.4 297.3,50.1 
			294.4,46.8 		"/>
		<polygon class="st0" points="333.3,27.6 331.4,32 335.1,32 		"/>
		<polygon class="st0" points="304.7,54.7 304.7,45.7 300.6,50.1 		"/>
		<path class="st0" d="M312.4,48.2c-0.1-0.9-0.9-1.5-1.7-1.4h-3.3v2.8h3.5C311.8,49.7,312.4,49.2,312.4,48.2z"/>
		<path class="st0" d="M323.4,49.3c0.3-0.3,0.5-0.7,0.5-1.1c0.2-0.4,0-0.9-0.5-1.1c-0.4-0.1-0.8-0.2-1.3-0.2H319v2.5h3.1
			C322.6,49.5,323,49.5,323.4,49.3z"/>
		<path class="st0" d="M346.1,23.5v1.9l-0.9-1.9h-7.4v1.9l-1-1.9h-10.1c-1.5,0-3,0.3-4.4,0.9v-0.9h-7.1v0.9c-0.9-0.7-1.9-1-3-0.9
			h-25.4l-1.7,3.9l-1.7-3.9h-8v1.9l-0.8-1.9h-6.9l-3.1,7.4l-3.6,8l-0.1,0.2h8.2l0.1-0.2l0.9-2.4h2l1,2.5h9.1v-1.9L283,39h4.6
			l0.8-1.9V39h21.9v-4h0.3c0.3,0,0.3,0,0.3,0.5V39h11.3v-1c1.3,0.6,2.8,1,4.2,0.9h4.7l0.9-2.5h2.2l0.9,2.5h9.1v-2.4l1.4,2.4h7.4
			V23.5H346.1z M292.7,36.7h-2.5V28l-0.2,0.4l0,0l-3.7,8.3H284l-3.8-8.7v8.7h-5.4l-1.1-2.4h-5.4l-1.1,2.4h-2.8l4.7-11h3.9l4.4,10.6
			V25.7h4.2l0.1,0.2l0,0l2,4.3l1.4,3.2v-0.2l3.1-7.6h4.3L292.7,36.7L292.7,36.7z M303.6,28.1h-6.1v2h6v2.2h-6v2.2h6.1v2.4h-8.8V25.7
			h8.8V28.1z M314.8,32.1L314.8,32.1c0.1,0.1,0.1,0.1,0.1,0.2c0.4,0.5,0.6,1.2,0.6,1.8v0.1l0,0v2.5h-2.4v-1.2
			c0.1-0.8-0.1-1.5-0.5-2.2c-0.1-0.1-0.3-0.2-0.5-0.3c-0.5-0.2-0.9-0.2-1.4-0.2H308v3.9h-2.7v-11h6c1.1-0.1,2.2,0,3.1,0.5
			c0.8,0.5,1.3,1.5,1.2,2.5c0,1.3-0.7,2.4-1.9,2.9C314.2,31.7,314.5,31.9,314.8,32.1z M320.1,36.7h-2.7v-11h2.7V36.7z M350.8,36.7
			h-3.5l-5-8.4v8.4H337l-1-2.4h-5.5l-1,2.5h-3c-1.4,0.1-2.7-0.4-3.8-1.3c-1.1-1.2-1.6-2.7-1.4-4.3c-0.1-1.6,0.4-3.1,1.4-4.4
			c0.8-0.9,2.2-1.3,3.9-1.3h2.5v2.4h-2.5c-0.7-0.1-1.5,0.2-2,0.6c-0.6,0.7-0.8,1.6-0.8,2.5c-0.1,1,0.2,1.9,0.8,2.7
			c0.5,0.5,1.2,0.7,1.9,0.6h1.1l3.6-8.7h3.9l4.4,10.5V25.9h3.9l4.6,7.7v-7.7h2.7L350.8,36.7L350.8,36.7z"/>
		<path class="st0" d="M312.5,30.3c0,0,0.1-0.1,0.1-0.2c0.2-0.4,0.3-0.8,0.2-1.2v-0.1l0,0l0,0c-0.1-0.2-0.3-0.4-0.5-0.5
			c-0.4-0.1-0.8-0.2-1.3-0.2h-3v2.5h3.1c0.4,0,0.9,0,1.3-0.2L312.5,30.3L312.5,30.3L312.5,30.3z"/>
		<path class="st0" d="M360.1,52.5c0-1.1-0.3-2.1-0.8-3v-7.1l0,0v-0.5h-7.6c-0.8,0.1-1.5,0.4-2.2,0.9v-0.9h-7.2
			c-1.1-0.1-2.2,0.3-3.1,0.9v-0.9h-12.9v0.9c-1-0.7-2.2-1-3.5-0.9h-8.5v0.9c-0.8-0.8-2.7-0.9-3.6-0.9h-9.4l-2.2,2.4l-2-2.4h-14.2
			v15.9h13.9l2.3-2.3l2,2.3h8.8v-3.6h0.8c1.2,0.1,2.5-0.1,3.6-0.5V58h7.1v-4.1h0.3c0.5,0,0.5,0,0.5,0.5V58h21.4
			c1.3,0.1,2.5-0.3,3.6-1v1h6.8c1.3,0.1,2.6-0.2,3.8-0.8c1.5-0.9,2.4-2.5,2.5-4.2c0,0,0-0.1,0-0.2l0,0
			C360.1,52.7,360.1,52.6,360.1,52.5z M310.5,51.6h-3.1v4.1h-5.2l-3-3.5l0,0L299,52l-3.5,3.6h-10.1v-11h10.2l2.8,3.1l0.6,0.6
			l0.1-0.1l3.3-3.6h8.3c1.6,0,3.4,0.4,4.1,2c0.1,0.4,0.1,0.7,0.1,1.1C315.1,50.9,312.9,51.5,310.5,51.6z M326.2,51.4
			c0.4,0.6,0.5,1.3,0.5,2v2.2H324v-1.4c0.1-0.8-0.1-1.5-0.5-2.2c-0.3-0.5-1-0.5-1.9-0.5h-2.8v4.1h-2.7V44.5h6c1.1-0.1,2.2,0,3.1,0.5
			s1.5,1.5,1.4,2.5c0,1.3-0.7,2.5-1.9,3C325.4,50.6,325.9,50.9,326.2,51.4z M337.1,46.8H331v2h6V51h-6v2.2h6.1v2.4h-8.8V44.5h8.8
			V46.8z M343.7,55.6h-5v-2.4h5c0.4,0.1,0.8,0,1.1-0.3c0.2-0.2,0.3-0.5,0.3-0.8s-0.1-0.6-0.3-0.8c-0.3-0.2-0.6-0.3-0.9-0.3
			c-2.5-0.2-5.5,0-5.5-3.5c0-1.6,1-3.3,3.8-3.3h5.2V47h-4.9c-0.4,0-0.8,0-1.1,0.2c-0.3,0.2-0.3,0.5-0.3,0.8s0.3,0.6,0.6,0.8
			c0.3,0.1,0.6,0.2,1,0.2h1.4c1.1-0.1,2.2,0.3,3,1c0.6,0.7,0.8,1.5,0.8,2.4C347.8,54.5,346.4,55.6,343.7,55.6L343.7,55.6z
			 M357.3,54.5c-0.9,0.8-2.1,1.2-3.3,1.1h-5v-2.4h5c0.4,0.1,0.8,0,1.1-0.3c0.2-0.2,0.3-0.5,0.3-0.8s-0.1-0.6-0.3-0.8
			c-0.3-0.2-0.6-0.3-0.9-0.3c-2.5-0.2-5.5,0-5.5-3.5c0-1.7,1.3-3.1,3-3.2c0.3,0,0.5-0.1,0.8-0.1h5.2V47h-4.9c-0.4,0-0.8,0-1.1,0.2
			c-0.2,0.2-0.3,0.5-0.3,0.8c0,0.5,0.2,0.6,0.6,0.8c0.3,0.1,0.6,0.2,1,0.2h1.4c0.6,0,1.1,0.1,1.7,0.2c1.1,0.4,2,1.3,2.2,2.5
			c0,0.2,0,0.4,0,0.6C358.2,53.1,357.9,53.9,357.3,54.5L357.3,54.5z"/>
	</g>
</g>
<g id="Layer_1_1_">
</g>
<g>
	<path class="st20" d="M447.3,44.7c0,1.5,1.3,2.4,3.3,2.4c2.6,0,4.5-1.6,4.5-3.9v-1.4l-4.2,0.3C448.5,42.3,447.3,43.2,447.3,44.7z"
		/>
	<path class="st20" d="M433.7,28.7h-4.4v9.7h4.3c3.3,0,5.2-1.8,5.2-4.8C438.8,30.4,436.9,28.7,433.7,28.7z"/>
	<path class="st20" d="M488.1,0h-97.3H386h-0.1C382,0,379,3.1,379,6.9v66.2c0,1.9,0.8,3.7,2.1,4.9c1.3,1.3,3,2.1,4.9,2.1h4.9
		c-0.3,0-0.7,0-1-0.1h98.3c3.8,0,6.9-3.1,6.9-6.9V6.9C495,3.1,491.9,0,488.1,0z M409,25.6c0.9-1.1,2.6-2,3.9-2
		c0.2,1.6-0.4,3.1-1.4,4.2c-0.9,1.1-2.4,2-4,1.9C407.5,28.2,408.2,26.6,409,25.6z M416.7,46.8c-1.1,1.6-2.3,3.2-4.1,3.3
		c-1.8,0-2.3-1.1-4.3-1.1c-2,0-2.7,1-4.3,1.1c-1.8,0.1-3.1-1.7-4.2-3.3c-2.3-3.3-4-9.3-1.7-13.3c1.1-2,3.2-3.3,5.5-3.3
		c1.7,0,3.3,1.1,4.3,1.1c1,0,2.9-1.4,5.1-1.2c0.8,0.1,3.3,0.3,4.8,2.6c-0.1,0.1-2.9,1.7-2.9,5c0,4,3.5,5.3,3.5,5.4
		C418.4,43.1,417.9,44.9,416.7,46.8z M434.5,41.5h-5.2v8.3h-3.8V25.5h9.2c4.7,0,8,3.3,8,8S439.3,41.5,434.5,41.5z M458.8,37.7v12.2
		h-3.5v-2.9h-0.1c-1,1.9-3.2,3.1-5.6,3.1c-3.5,0-6-2.1-6-5.3c0-3.1,2.4-4.9,6.8-5.2l4.7-0.3V38c0-2-1.3-3.1-3.6-3.1
		c-1.9,0-3.3,1-3.6,2.5h-3.4c0.1-3.1,3.1-5.5,7.1-5.5C455.9,31.9,458.8,34.2,458.8,37.7L458.8,37.7z M470.4,50.8
		c-1.5,4.3-3.3,5.7-7,5.7c-0.3,0-1.2,0-1.4-0.1v-2.9c0.2,0,0.8,0.1,1.1,0.1c1.7,0,2.6-0.7,3.2-2.5l0.3-1.1l-6.4-17.8h4l4.5,14.4h0.1
		l4.5-14.4h3.8L470.4,50.8z"/>
</g>
</svg>
