<svg xmlns="http://www.w3.org/2000/svg" xmlns:xlink="http://www.w3.org/1999/xlink" viewBox="0 0 697.92 80.25"><defs><style>.cls-1{fill:none;}.cls-2{clip-path:url(#clip-path);}.cls-3{fill:#f6f6f6;}.cls-4{fill:#275798;}.cls-11,.cls-14,.cls-16,.cls-4,.cls-5,.cls-7,.cls-8,.cls-9{fill-rule:evenodd;}.cls-5{fill:#d77d35;}.cls-6{clip-path:url(#clip-path-9);}.cls-7{fill:#dcad3b;}.cls-8{fill:#bf352d;}.cls-17,.cls-18,.cls-9{fill:#fff;}.cls-10{clip-path:url(#clip-path-22);}.cls-11{fill:#3e6fb4;}.cls-12{clip-path:url(#clip-path-23);}.cls-13{clip-path:url(#clip-path-24);}.cls-14{fill:#e6e7e8;}.cls-15{clip-path:url(#clip-path-27);}.cls-16{fill:#4786c3;}.cls-17,.cls-18{font-size:22px;font-family:MuseoSansRounded-900, Museo Sans Rounded;}.cls-17{letter-spacing:-0.03em;}.cls-18{letter-spacing:-0.04em;}</style><clipPath id="clip-path"><rect class="cls-1" y="0.25" width="128" height="80"/></clipPath><clipPath id="clip-path-9"><rect class="cls-1" x="142.48" y="0.25" width="128" height="80"/></clipPath><clipPath id="clip-path-22"><rect class="cls-1" x="284.96" y="0.25" width="128" height="80"/></clipPath><clipPath id="clip-path-23"><rect class="cls-1" x="295.36" y="6.75" width="107.2" height="67"/></clipPath><clipPath id="clip-path-24"><rect class="cls-1" x="427.44" y="0.25" width="128" height="80"/></clipPath><clipPath id="clip-path-27"><rect class="cls-1" x="569.92" width="128" height="80.25"/></clipPath></defs><title>Asset 1</title><g id="Layer_2" data-name="Layer 2"><g id="Layer_3" data-name="Layer 3"><g class="cls-2"><rect class="cls-3" y="7.45" width="128" height="64"/></g><g class="cls-2"><path class="cls-4" d="M118.4.25H6.4A6.88,6.88,0,0,0,0,6.65v9.6H128V9.85Q128,.25,118.4.25Z"/></g><g class="cls-2"><path class="cls-5" d="M0,64.25s0,0,0,6.4,3.2,9.6,9.6,9.6H118.4q9.6,0,9.6-9.6v-6.4Z"/></g><g class="cls-2"><path class="cls-4" d="M89.29,24.08a22.94,22.94,0,0,0-8.12-1.43c-8.95,0-15.25,4.6-15.3,11.2-.05,4.88,4.5,7.6,7.93,9.22s4.71,2.72,4.69,4.21c0,2.28-2.81,3.31-5.42,3.31a18.64,18.64,0,0,1-8.52-1.78l-1.17-.54-1.27,7.6a28.12,28.12,0,0,0,10.09,1.81c9.52,0,15.7-4.55,15.77-11.6,0-3.86-2.38-6.8-7.6-9.22-3.17-1.57-5.1-2.62-5.08-4.21,0-1.41,1.64-2.92,5.19-2.92A16.4,16.4,0,0,1,87.25,31l.81.39,1.23-7.36"/></g><g class="cls-2"><path class="cls-4" d="M101.35,45.15c.75-2,3.61-9.49,3.61-9.49s.74-2,1.2-3.24l.61,2.93,2.1,9.8Zm11.17-21.88h-7c-2.17,0-3.79.6-4.74,2.81L87.32,57.2h9.51s1.55-4.18,1.91-5.1h11.6c.27,1.19,1.1,5.09,1.1,5.09h8.4Z"/></g><g class="cls-2"><polygon class="cls-4" points="47.4 57.19 53.06 23.24 62.12 23.24 56.45 57.19 47.4 57.19"/></g><g class="cls-2"><path class="cls-4" d="M39.81,23.26,30.94,46.41,30,41.71c-1.65-5.42-6.79-11.3-12.54-14.24l8.11,29.69h9.58L49.4,23.26H39.81"/></g><g class="cls-2"><path class="cls-5" d="M22.72,23.24H8.12L8,23.95c11.36,2.81,18.88,9.6,22,17.76l-3.17-15.6c-.55-2.15-2.14-2.79-4.1-2.87"/></g><g class="cls-6"><path class="cls-4" d="M260.88.25h-112a6.88,6.88,0,0,0-6.4,6.4v64q0,9.6,9.6,9.6h108.8q9.6,0,9.6-9.6V9.85Q270.48.25,260.88.25Z"/></g><g class="cls-6"><path class="cls-7" d="M262.12,40.65a33.3,33.3,0,1,1-66.6,0v0a33.3,33.3,0,1,1,66.6,0v0Z"/></g><g class="cls-6"><path class="cls-8" d="M183.93,7a33.66,33.66,0,0,0,.21,67.32,33,33,0,0,0,22.41-8.77h0a33.83,33.83,0,0,0,3.38-3.6h-6.82a32.87,32.87,0,0,1-2.48-3.47H212.4a33.83,33.83,0,0,0,1.94-3.6H198.69a33.41,33.41,0,0,1-1.39-3.54h18.43a34.16,34.16,0,0,0,.95-17.88H196.32a33.85,33.85,0,0,1,1-3.54h18.44a33.88,33.88,0,0,0-1.44-3.6H198.69a32.4,32.4,0,0,1,1.91-3.54h11.76a33.72,33.72,0,0,0-2.58-3.6h-6.56a31.08,31.08,0,0,1,3.34-3.4A33,33,0,0,0,184.15,7Z"/></g><g class="cls-6"><path class="cls-9" d="M196.12,49.22l.44-3c-.24,0-.6.1-.91.1-1.23,0-1.37-.66-1.29-1.15l1-6.22h1.88l.45-3.37h-1.77l.36-2.1h-3.55c-.08.08-2.09,11.79-2.09,13.21,0,2.11,1.17,3.05,2.83,3a9.24,9.24,0,0,0,2.66-.47Z"/></g><g class="cls-6"><path class="cls-9" d="M203.46,38.35c2,0,1.63,2.27,1.63,2.46h-3.94c0-.23.37-2.46,2.3-2.46Zm-6.22,5.06c0,5.06,3.31,6.27,6.13,6.27a8.94,8.94,0,0,0,3.75-.59l.62-3.46a11,11,0,0,1-3.77.88c-3.81,0-3.14-2.87-3.14-2.87H208a26,26,0,0,0,.47-3.27c0-2.36-1.16-5.24-5.06-5.24-3.57,0-6.2,3.88-6.2,8.27Z"/></g><g class="cls-6"><path class="cls-9" d="M225.91,49.22l.63-3.91a8.46,8.46,0,0,1-2.93.88c-2.52,0-3.52-1.94-3.52-4,0-4.23,2.16-6.56,4.57-6.56a6.27,6.27,0,0,1,3.26,1l.58-3.8a12.62,12.62,0,0,0-4-.88c-4.09,0-8.08,3.59-8.08,10.33,0,4.47,2.15,7.42,6.38,7.42A16.19,16.19,0,0,0,225.91,49.22Z"/></g><g class="cls-6"><path class="cls-9" d="M177.38,43.23c.07.6-.37,3.43-2.51,3.43a1.3,1.3,0,0,1-1.39-1.35c0-1,.53-2.16,3.13-2.16a2.23,2.23,0,0,1,.77.08Zm-.76-8a12.14,12.14,0,0,0-4.3.79l-.51,3.09a11.09,11.09,0,0,1,3.86-.63c1.32,0,2.29.15,2.29,1.23a2.31,2.31,0,0,1-.12.9s-1-.09-1.52-.09c-3.07,0-6.29,1.32-6.29,5.31,0,3.14,2.11,3.86,3.42,3.86A4.6,4.6,0,0,0,177.09,48L177,49.39h3.12l1.39-9.87C181.49,35.33,177.87,35.2,176.62,35.2Z"/></g><g class="cls-6"><path class="cls-9" d="M184.81,49.59c.8,0,5.36.21,5.36-4.56,0-4.45-4.23-3.57-4.23-5.36,0-.89.69-1.17,1.95-1.17.5,0,2.42.16,2.42.16l.45-3.16a16.37,16.37,0,0,0-3.27-.28c-2.62,0-5.29,1.06-5.29,4.68,0,4.1,4.44,3.69,4.44,5.42,0,1.15-1.24,1.25-2.2,1.25A11.47,11.47,0,0,1,181.3,46l-.47,3.13a11.15,11.15,0,0,0,4,.44Z"/></g><g class="cls-6"><path class="cls-9" d="M253.64,41.71c0,1.89-.93,4.42-2.85,4.42-1.28,0-1.87-1.08-1.87-2.78,0-2.78,1.23-4.61,2.79-4.61,1.28,0,1.93.89,1.93,3Zm1.65-9.35-.76,4.8a4.68,4.68,0,0,0-3.42-1.86c-3.25,0-6,4-6,8.51,0,2.94,1.44,5.81,4.4,5.81a4.42,4.42,0,0,0,3.3-1.5l-.16,1.28h3.45l2.71-17Z"/></g><g class="cls-6"><polygon class="cls-9" points="157.42 49.41 159.58 36.54 159.9 49.41 162.34 49.41 166.9 36.54 164.88 49.41 168.51 49.41 171.3 32.34 165.69 32.34 162.19 42.81 162.01 32.34 156.84 32.34 154 49.41 157.42 49.41"/></g><g class="cls-6"><path class="cls-9" d="M212,49.43c1-5.93,1.22-10.75,3.69-9.87a13.89,13.89,0,0,1,1.32-4.16,3.7,3.7,0,0,0-.68,0c-1.59,0-2.76,2.19-2.76,2.19l.32-2h-3.3l-2.21,13.89Z"/></g><g class="cls-6"><path class="cls-9" d="M234.86,43.23c.07.6-.37,3.43-2.51,3.43A1.3,1.3,0,0,1,231,45.31c0-1,.53-2.16,3.13-2.16a2.25,2.25,0,0,1,.77.08Zm-.76-8a12.14,12.14,0,0,0-4.3.79l-.51,3.09a11.09,11.09,0,0,1,3.86-.63c1.32,0,2.29.15,2.29,1.23a2.33,2.33,0,0,1-.12.9s-1-.09-1.52-.09c-3.07,0-6.29,1.32-6.29,5.31,0,3.14,2.11,3.86,3.42,3.86A4.6,4.6,0,0,0,234.57,48l-.12,1.37h3.12L239,39.52C239,35.33,235.35,35.2,234.1,35.2Z"/></g><g class="cls-6"><path class="cls-9" d="M241.82,49.43c1-5.93,1.22-10.75,3.69-9.87a13.92,13.92,0,0,1,1.32-4.16,3.7,3.7,0,0,0-.68,0c-1.59,0-2.76,2.19-2.76,2.19l.32-2h-3.3l-2.21,13.89Z"/></g><g class="cls-10"><path class="cls-11" d="M403.36.25h-112a6.88,6.88,0,0,0-6.4,6.4v64q0,9.6,9.6,9.6h108.8q9.6,0,9.6-9.6V9.85Q413,.25,403.36.25Z"/></g><g class="cls-12"><path class="cls-9" d="M353.46,50.08c0,3.53-2.63,4.25-5.28,4.25h-3.78V58.6h-5.9l-3.74-4.2-3.88,4.2h-12V45.9h12.2l3.73,4.16,3.86-4.16h9.69c2.41,0,5.11.67,5.11,4.18Zm-24.12,5.87h-7.46V53.42h6.66V50.83h-6.66V48.53h7.61l3.32,3.7Zm12,1.49-4.66-5.17,4.66-5Zm6.94-5.68h-3.92V48.53h4c1.1,0,1.86.45,1.86,1.56S349.48,51.76,348.31,51.76Zm20.47-5.86H378.9v2.63h-7.1v2.31h6.93v2.59H371.8v2.53h7.1V58.6H368.78Zm-3.83,6.79a3.3,3.3,0,0,1,1.49,1.07,3.7,3.7,0,0,1,.5,2.32V58.6h-3V57c0-.76.07-1.89-.49-2.48a2.94,2.94,0,0,0-2.23-.56h-3.24V58.6h-3V45.9h7a7.51,7.51,0,0,1,3.65.6,3,3,0,0,1,1.56,2.82,3.56,3.56,0,0,1-2.15,3.38Zm-1.83-1.58a2.9,2.9,0,0,1-1.5.26h-3.69V48.53h3.74a3,3,0,0,1,1.45.23,1.21,1.21,0,0,1,.63,1.14,1.37,1.37,0,0,1-.63,1.22Zm27.37.78a3.53,3.53,0,0,1,.91,2.69c0,2.73-1.71,4-4.77,4h-5.91V55.87h5.88a1.78,1.78,0,0,0,1.24-.31,1.13,1.13,0,0,0,.36-.83,1.09,1.09,0,0,0-.37-.84,1.6,1.6,0,0,0-1.08-.28c-2.84-.1-6.39.09-6.39-3.93,0-1.84,1.16-3.78,4.34-3.78h6.08v2.7h-5.56a2.05,2.05,0,0,0-1.22.23,1.06,1.06,0,0,0,.21,1.86,3.49,3.49,0,0,0,1.18.14l1.63,0c1.65,0,2.78.32,3.46,1ZM402.59,57c-.74,1.08-2.17,1.62-4.12,1.62h-5.86V55.87h5.83a1.73,1.73,0,0,0,1.23-.31,1.12,1.12,0,0,0,.36-.83,1,1,0,0,0-.37-.84,1.54,1.54,0,0,0-1.07-.28c-2.85-.1-6.4.09-6.4-3.93,0-1.84,1.17-3.78,4.35-3.78h6V43.38H397a6.33,6.33,0,0,0-3.8,1v-1h-8.3a5.75,5.75,0,0,0-3.62,1v-1H366.42v1a7.89,7.89,0,0,0-4.09-1h-9.78v1c-.93-.9-3-1-4.28-1H337.33l-2.5,2.71-2.35-2.71H316.13V61.09h16l2.58-2.75,2.43,2.75h9.89V56.93h1a10.3,10.3,0,0,0,4.23-.62v4.78h8.16V56.47h.39c.5,0,.55,0,.55.52v4.09h24.78A7.07,7.07,0,0,0,390.28,60v1.13h7.86a10.53,10.53,0,0,0,4.45-.82Zm0-8.37h-5.53a2.1,2.1,0,0,0-1.23.23,1,1,0,0,0-.44.91,1,1,0,0,0,.66.95,3.46,3.46,0,0,0,1.17.14l1.64,0c1.66,0,2.77.33,3.44,1a1.63,1.63,0,0,1,.28.31Zm-107.9-9.35h5.18L301,36.44h2.62l1.17,2.82H315V37.1l.91,2.16h5.29l.91-2.2v2.19h25.34V34.63H348c.34,0,.44,0,.44.61v4h13.11V38.18a10.39,10.39,0,0,0,4.87,1.08h5.51l1.18-2.82h2.62l1.15,2.82h10.63V36.58l1.61,2.68h8.52V21.56h-8.43v2.09L388,21.56h-8.65v2.09l-1.08-2.09H366.57a10.49,10.49,0,0,0-5.06,1v-1h-8.06v1a5,5,0,0,0-3.43-1H320.57l-2,4.57-2-4.57h-9.28v2.09l-1-2.09h-7.91L294.69,30v9.28Zm100.19-2.49h-4.3l-5.75-9.53v9.53h-6.18l-1.18-2.83h-6.3L370,36.76h-3.55a6.38,6.38,0,0,1-4.4-1.4c-1.07-1.08-1.62-2.54-1.62-4.84a6.75,6.75,0,0,1,1.64-5c1-1,2.52-1.48,4.61-1.48h2.94v2.72h-2.88a2.92,2.92,0,0,0-2.33.75,4.19,4.19,0,0,0-.87,2.87,4.4,4.4,0,0,0,.83,3,2.93,2.93,0,0,0,2.11.65h1.36l4.28-10h4.55l5.14,12v-12h4.62l5.33,8.84V24.07h3.11Zm-35.91,0h-3.1V24.07H359Zm-4.85-9.27A3.57,3.57,0,0,1,352,30.87a3.52,3.52,0,0,1,1.5,1.07,3.65,3.65,0,0,1,.5,2.33v2.49h-3.06v-1.6a3.81,3.81,0,0,0-.48-2.47,3,3,0,0,0-2.21-.54H345v4.62h-3V24.07h7a7.14,7.14,0,0,1,3.67.61,3,3,0,0,1,1.53,2.81Zm-14.29,9.27H329.7V24.07h10.13v2.64h-7.1V29h6.93v2.6h-6.93v2.53h7.1Zm-12.39,0h-3.11V26.83l-4.4,9.94h-2.66l-4.41-9.95v9.95h-6.17l-1.17-2.83H299.2L298,36.76h-3.29l5.43-12.69h4.51l5.16,12v-12h5l4,8.61,3.65-8.61h5.05V36.76Zm49-5.48-2.1-5.06-2.09,5.06Zm-26.29-2a2.81,2.81,0,0,1-1.5.26H345V26.72h3.74a3.11,3.11,0,0,1,1.44.23,1.16,1.16,0,0,1,.64,1.12,1.3,1.3,0,0,1-.63,1.21Zm-45.74,2-2.08-5.06-2.06,5.06Z"/></g><g class="cls-13"><path class="cls-14" d="M545.84.25h-112a6.88,6.88,0,0,0-6.4,6.4v64q0,9.6,9.6,9.6h108.8q9.6,0,9.6-9.6V9.85Q555.44.25,545.84.25Z"/></g><g class="cls-13"><path class="cls-11" d="M513.64,38a8.1,8.1,0,0,1-4.74,1.2H508a1.09,1.09,0,0,1-1.14-1.39L508,33.05a1.91,1.91,0,0,1,1.79-1.38H511a6.23,6.23,0,0,1,3.26.71,2.43,2.43,0,0,1,1.09,2.18A4,4,0,0,1,513.64,38m8.11-7.32a5.65,5.65,0,0,0-2.07-2.16,9.48,9.48,0,0,0-3.27-1.17A26.92,26.92,0,0,0,512,27h-7.86a2,2,0,0,0-1.79,1.39L497.07,50.8a1.09,1.09,0,0,0,1.13,1.39H502a1.94,1.94,0,0,0,1.8-1.38L505,45.36a1.92,1.92,0,0,1,1.8-1.39h1.07q6.9,0,10.72-2.75A8.55,8.55,0,0,0,522.46,34,6.92,6.92,0,0,0,521.75,30.68Zm16.52,2.63c-1.43-.77-3.66-1.17-6.71-1.17a30.42,30.42,0,0,0-4.55.35c-1.12.17-1.23.19-1.93.34a2.15,2.15,0,0,0-1.65,1.69L523,36.36c-.26,1.17.43,1.13.73,1a19.85,19.85,0,0,1,2.23-.65,16.89,16.89,0,0,1,3.53-.46,9.53,9.53,0,0,1,3.41.47A1.68,1.68,0,0,1,534,38.41a1.22,1.22,0,0,1-.06.52c-.06.14-.18.28-.54.33-2.15.12-3.68.31-5.54.58a17.7,17.7,0,0,0-4.77,1.28,7.4,7.4,0,0,0-3.23,2.49,6.62,6.62,0,0,0-1.08,3.82,4.43,4.43,0,0,0,1.53,3.46,5.85,5.85,0,0,0,4,1.32,10.82,10.82,0,0,0,2.36-.21,12.07,12.07,0,0,0,1.81-.6,9.47,9.47,0,0,0,1.55-.83l1.41-.92,0,0-.14.59h0a1.09,1.09,0,0,0,1,1.37h3.5a.07.07,0,0,0,.05,0,1.94,1.94,0,0,0,1.61-1.37l2.74-11.53a6.53,6.53,0,0,0,.14-.94,7.19,7.19,0,0,0,.06-.88A3.84,3.84,0,0,0,538.26,33.3ZM531.62,47a9.92,9.92,0,0,1-1.47.74,5.4,5.4,0,0,1-2,.42,4.45,4.45,0,0,1-2.14-.4,1.4,1.4,0,0,1-.73-1.36,2.73,2.73,0,0,1,.54-1.79,3.9,3.9,0,0,1,1.6-1.05,14.19,14.19,0,0,1,2.48-.54c.86-.11,2.55-.3,2.77-.3s.36-.12.26.44c0,.24-.53,2.2-.76,3.09a1.75,1.75,0,0,1-.6.76Zm17.24-20h-3.37a1.93,1.93,0,0,0-1.77,1.3s0,.06,0,.09l-.22,1-4.62,20.37c-.11.46-.18.76-.2.84h0a1.08,1.08,0,0,0,1,1.37h3.5a1.94,1.94,0,0,0,1.76-1.29s0-.07,0-.1l5-22.18h0A1.1,1.1,0,0,0,548.85,27Z"/></g><g class="cls-13"><path class="cls-4" d="M451.72,38a8.1,8.1,0,0,1-4.74,1.2H446a1.09,1.09,0,0,1-1.14-1.39L446,33.05a1.91,1.91,0,0,1,1.79-1.38h1.23a6.23,6.23,0,0,1,3.26.71,2.43,2.43,0,0,1,1.09,2.18A4,4,0,0,1,451.72,38m8.11-7.32a5.65,5.65,0,0,0-2.07-2.16,9.48,9.48,0,0,0-3.27-1.17,26.92,26.92,0,0,0-4.42-.34h-7.86a2,2,0,0,0-1.79,1.39L435.14,50.8a1.09,1.09,0,0,0,1.13,1.39H440a1.94,1.94,0,0,0,1.8-1.38l1.27-5.43a1.92,1.92,0,0,1,1.8-1.39H446q6.9,0,10.72-2.75A8.55,8.55,0,0,0,460.54,34,6.92,6.92,0,0,0,459.82,30.68ZM477,33.3c-1.43-.77-3.66-1.17-6.71-1.17a30.34,30.34,0,0,0-4.55.35c-1.12.17-1.23.19-1.93.34a2.15,2.15,0,0,0-1.65,1.69l-.46,1.84c-.26,1.17.43,1.13.73,1a20,20,0,0,1,2.23-.65,17,17,0,0,1,3.52-.46,9.53,9.53,0,0,1,3.41.47,1.68,1.68,0,0,1,1.14,1.66,1.2,1.2,0,0,1-.06.52c-.06.15-.19.28-.54.33-2.14.13-3.68.32-5.54.58a17.73,17.73,0,0,0-4.77,1.28,7.39,7.39,0,0,0-3.23,2.49,6.6,6.6,0,0,0-1.08,3.82A4.43,4.43,0,0,0,459,50.88a5.85,5.85,0,0,0,4,1.32,10.92,10.92,0,0,0,2.36-.21,12.12,12.12,0,0,0,1.81-.6,9.48,9.48,0,0,0,1.55-.83l1.42-.92,0,0-.14.59v0h0a1.08,1.08,0,0,0,1,1.37h3.5a.07.07,0,0,0,.05,0,2,2,0,0,0,1.61-1.37l2.74-11.53a6.45,6.45,0,0,0,.14-.94,7.08,7.08,0,0,0,.07-.88A3.84,3.84,0,0,0,477,33.3ZM470.33,47a10,10,0,0,1-1.47.74,5.44,5.44,0,0,1-2,.42,4.47,4.47,0,0,1-2.14-.4,1.41,1.41,0,0,1-.73-1.36,2.73,2.73,0,0,1,.55-1.78,3.89,3.89,0,0,1,1.6-1.06,14.2,14.2,0,0,1,2.48-.54c.86-.11,2.55-.29,2.77-.3s.36-.12.26.44c0,.24-.53,2.2-.76,3.09a1.78,1.78,0,0,1-.6.76Zm25-14.9a2.87,2.87,0,0,0-2.1,1.25s-4.79,8-5.26,8.84c-.26.43-.51.16-.56,0s-1.48-8.78-1.48-8.78a1.83,1.83,0,0,0-1.82-1.28h-3a1,1,0,0,0-1,1.25s2.28,12.66,2.73,15.64c.22,1.65,0,1.94,0,1.94l-3,5.05c-.43.68-.2,1.25.52,1.25h3.46A2.81,2.81,0,0,0,485.92,56l13.3-22s1.27-1.88.1-1.87C498.52,32.15,495.31,32.14,495.31,32.14Z"/></g><g class="cls-15"><path class="cls-16" d="M688.32,0h-112a6.88,6.88,0,0,0-6.4,6.4c0,19.24,0,57.61,0,64s3.2,9.6,9.6,9.6h108.8q9.6,0,9.6-9.6V9.6Q697.92,0,688.32,0Z"/></g><text class="cls-17" transform="translate(582.59 35.33)">BANK</text><text class="cls-18" transform="translate(582.59 57.33)">TRANSFER</text></g></g></svg>