<?xml version="1.0" encoding="iso-8859-1"?>
<!-- Generator: Adobe Illustrator 19.1.0, SVG Export Plug-In . SVG Version: 6.00 Build 0)  -->
<svg version="1.1" id="Layer_1" xmlns="http://www.w3.org/2000/svg" xmlns:xlink="http://www.w3.org/1999/xlink" x="0px" y="0px"
	 viewBox="120.13 -30.122 40 40" style="enable-background:new 120.13 -30.122 40 40;" xml:space="preserve">
<style type="text/css">
	.st0{fill:#009797;}
	.st1{fill:#009898;}
	.st2{fill:#009797;stroke:#009797;stroke-width:0.3403;stroke-linecap:round;stroke-linejoin:round;stroke-miterlimit:10;}
	.st3{fill:#009797;stroke:#009797;stroke-width:0.3391;stroke-linecap:round;stroke-linejoin:round;stroke-miterlimit:10;}
</style>
<g>
	<path class="st0" d="M127.715,5.645c-1.849,0-3.353-1.504-3.353-3.353c0-1.849,1.504-3.352,3.353-3.352
		c1.849,0,3.353,1.504,3.353,3.352C131.067,4.141,129.563,5.645,127.715,5.645z M127.715,0.643c-0.91,0-1.647,0.742-1.647,1.65
		c0,0.909,0.738,1.648,1.647,1.648c0.909,0,1.647-0.739,1.647-1.648C129.362,1.385,128.625,0.643,127.715,0.643z"/>
</g>
<g>
	<path class="st0" d="M122.067,9.878c-1.067,0-1.938-0.868-1.938-1.938c0-1.067,0.87-1.939,1.938-1.939
		c1.069,0,1.939,0.871,1.939,1.939C124.007,9.01,123.137,9.878,122.067,9.878z M122.067,7.42c-0.285,0-0.519,0.232-0.519,0.52
		c0,0.287,0.233,0.519,0.519,0.519c0.287,0,0.521-0.232,0.521-0.519C122.588,7.652,122.354,7.42,122.067,7.42z"/>
</g>
<g>
	<path class="st0" d="M138.337-0.169c-3.188,0-6.191-1.521-8.129-4.091c-5.598-0.064-10.134-4.726-10.134-10.448
		c0-5.761,4.597-10.447,10.249-10.447c1.805,0,3.552,0.479,5.104,1.394c2.53-3.912,6.835-6.305,11.457-6.305
		c7.456,0,13.292,6.195,13.292,14.105c0,7.784-5.836,13.882-13.292,13.882c-0.792,0-1.585-0.069-2.361-0.206
		C142.751-0.916,140.569-0.169,138.337-0.169z M130.657-6.078c0.297,0,0.575,0.148,0.743,0.394c1.583,2.327,4.178,3.717,6.935,3.717
		c1.956,0,3.862-0.699,5.368-1.968c0.212-0.179,0.498-0.249,0.765-0.193c0.791,0.166,1.605,0.249,2.417,0.249
		c6.445,0,11.492-5.306,11.492-12.082c0-6.901-5.047-12.307-11.492-12.307c-4.285,0-8.262,2.378-10.378,6.206
		c-0.124,0.225-0.34,0.387-0.591,0.442c-0.254,0.057-0.516,0.002-0.725-0.149c-1.437-1.039-3.119-1.588-4.868-1.588
		c-4.659,0-8.449,3.879-8.449,8.648c0,4.769,3.79,8.649,8.449,8.649l0.307-0.018C130.641-6.078,130.649-6.078,130.657-6.078z"/>
</g>
<g>
	<circle class="st0" cx="132.31" cy="-13.45" r="1.485"/>
</g>
<g>
	<circle class="st0" cx="140.06" cy="-13.45" r="1.485"/>
</g>
<g>
	<circle class="st0" cx="147.809" cy="-13.45" r="1.485"/>
</g>
</svg>
