<?xml version="1.0" encoding="iso-8859-1"?>
<!-- Generator: Adobe Illustrator 19.1.0, SVG Export Plug-In . SVG Version: 6.00 Build 0)  -->
<svg version="1.1" id="Layer_1" xmlns="http://www.w3.org/2000/svg" xmlns:xlink="http://www.w3.org/1999/xlink" x="0px" y="0px"
	 viewBox="180.256 -90.248 40 40" style="enable-background:new 180.256 -90.248 40 40;" xml:space="preserve">
<style type="text/css">
	.st0{fill:#009797;}
	.st1{fill:#009898;}
	.st2{fill:#009797;stroke:#009797;stroke-width:0.3403;stroke-linecap:round;stroke-linejoin:round;stroke-miterlimit:10;}
	.st3{fill:#009797;stroke:#009797;stroke-width:0.3391;stroke-linecap:round;stroke-linejoin:round;stroke-miterlimit:10;}
</style>
<g>
	<g>
		<path class="st0" d="M218.761-64.307h-26.396v-1.663h26.227v-22.615h-29.42v4.868h-1.662v-5.038c0-0.824,0.67-1.493,1.492-1.493
			h29.759c0.826,0,1.495,0.669,1.495,1.493v22.953C220.256-64.976,219.587-64.307,218.761-64.307z"/>
	</g>
	<g>
		<path class="st0" d="M188.26-76.063c-2.505,0-4.54-2.037-4.54-4.54c0-2.504,2.035-4.542,4.54-4.542
			c2.504,0,4.539,2.037,4.539,4.542C192.799-78.1,190.762-76.063,188.26-76.063z M188.26-83.481c-1.586,0-2.877,1.292-2.877,2.878
			c0,1.585,1.291,2.876,2.877,2.876c1.585,0,2.877-1.291,2.877-2.876C191.137-82.19,189.845-83.481,188.26-83.481z"/>
	</g>
	<g>
		<path class="st0" d="M186.445-50.248c-2.011,0-2.726-1.166-2.726-2.259v-9.671c-0.327,0.135-0.685,0.207-1.065,0.207
			c-1.456,0-2.398-1.07-2.398-2.727v-8.897c0-2.858,1.064-3.142,3.677-3.142c0.694,0,1.255,0.429,1.75,0.806
			c0.219,0.168,0.468,0.356,0.622,0.415c0.533,0.2,1.356,0.345,1.955,0.345c0.558,0,1.104-0.111,1.767-0.359
			c0.503-0.188,0.984-0.512,1.436-0.962l5.275-5.274c1.028-1.032,2.781-1.033,3.812,0c0.516,0.515,0.8,1.193,0.8,1.906
			c0,0.713-0.284,1.392-0.8,1.906l-6.345,6.346c-0.776,0.715-1.236,1.72-1.312,2.811c0.046,0.096,0.071,0.201,0.071,0.31v15.879
			c0,1.428-1.018,2.279-2.727,2.279c-0.847,0-1.433-0.184-1.838-0.453C187.992-50.47,187.374-50.248,186.445-50.248z
			 M185.383-70.301v17.794c0,0.18,0,0.595,1.062,0.595c1.064,0,1.064-0.333,1.064-0.575v-10.397c0-0.459,0.373-0.831,0.833-0.831
			c0.459,0,0.832,0.372,0.832,0.831v10.316c0,0.243,0,0.576,1.064,0.576c1.064,0,1.064-0.386,1.064-0.616v-15.548
			c-0.054-0.101-0.082-0.214-0.082-0.333c0-1.67,0.668-3.246,1.833-4.32l6.321-6.322c0.203-0.202,0.312-0.461,0.312-0.73
			c0-0.268-0.111-0.528-0.312-0.73c-0.405-0.402-1.059-0.401-1.46,0l-5.274,5.274c-0.62,0.62-1.302,1.072-2.028,1.345
			c-0.849,0.317-1.596,0.465-2.352,0.465c-0.798,0-1.816-0.181-2.538-0.45c-0.385-0.144-0.723-0.401-1.048-0.651
			c-0.209-0.16-0.599-0.457-0.741-0.465c-2.012,0-2.012,0-2.012,1.479v8.896c0,1.065,0.553,1.065,0.735,1.065
			c0.616,0,1.063-0.447,1.063-1.065v-5.603c0-0.46,0.372-0.832,0.832-0.832C185.012-71.133,185.383-70.762,185.383-70.301z"/>
	</g>
</g>
</svg>
