<?xml version="1.0" encoding="iso-8859-1"?>
<!-- Generator: Adobe Illustrator 19.1.0, SVG Export Plug-In . SVG Version: 6.00 Build 0)  -->
<svg version="1.1" id="Layer_1" xmlns="http://www.w3.org/2000/svg" xmlns:xlink="http://www.w3.org/1999/xlink" x="0px" y="0px"
	 viewBox="-0.125 151.667 40 37" style="enable-background:new -0.125 151.667 40 37;" xml:space="preserve">
<style type="text/css">
	.st0{fill:#009797;}
	.st1{fill:#009898;}
	.st2{fill:#009797;stroke:#009797;stroke-width:0.3403;stroke-linecap:round;stroke-linejoin:round;stroke-miterlimit:10;}
	.st3{fill:#009797;stroke:#009797;stroke-width:0.3391;stroke-linecap:round;stroke-linejoin:round;stroke-miterlimit:10;}
</style>
<g>
	<path class="st0" d="M30.425,184.946H4.947c-0.776,0-1.405-0.631-1.405-1.404v-30.464c0-0.774,0.629-1.405,1.405-1.405h25.478
		c0.774,0,1.404,0.631,1.404,1.405v30.464C31.829,184.317,31.199,184.946,30.425,184.946z M5.107,183.382h25.157v-30.142H5.107
		V183.382z"/>
</g>
<g>
	<path class="st0" d="M34.799,188.708H9.321c-0.775,0-1.405-0.632-1.405-1.406v-1.421h1.565v1.261h25.158v-30.046h-1.645v-1.565
		h1.805c0.774,0,1.404,0.632,1.404,1.406v30.365C36.203,188.078,35.573,188.708,34.799,188.708z"/>
</g>
<g>
	<g>
		<path class="st0" d="M13.564,163.789c0,0.062-0.051,0.113-0.155,0.156c-0.103,0.046-0.266,0.066-0.485,0.066
			c-0.469,0-0.747-0.103-0.829-0.306l-0.902,0.094c0.181,0.325,0.654,0.503,1.417,0.532v0.277h0.585v-0.277
			c0.457-0.018,0.808-0.084,1.049-0.192c0.243-0.109,0.364-0.245,0.364-0.408c0-0.104-0.059-0.197-0.175-0.276
			c-0.119-0.08-0.275-0.142-0.474-0.188c-0.196-0.045-0.468-0.092-0.815-0.142c-0.315-0.048-0.521-0.087-0.617-0.117
			c-0.096-0.032-0.144-0.076-0.144-0.136c0-0.057,0.051-0.107,0.149-0.146c0.098-0.042,0.232-0.061,0.398-0.061
			c0.327,0,0.568,0.091,0.726,0.272l0.804-0.132c-0.192-0.265-0.615-0.411-1.267-0.442v-0.215H12.61v0.215
			c-0.432,0.023-0.748,0.091-0.949,0.201c-0.2,0.106-0.3,0.232-0.3,0.368c0,0.102,0.057,0.194,0.169,0.272
			c0.111,0.078,0.258,0.139,0.439,0.181c0.181,0.045,0.432,0.089,0.751,0.136c0.357,0.051,0.589,0.09,0.691,0.124
			C13.513,163.677,13.564,163.725,13.564,163.789z"/>
	</g>
</g>
<g>
	<g>
		<path class="st0" d="M9.724,162.248c-0.642,0.321-1.038,0.71-1.038,1.09c0,0.381,0.396,0.768,1.038,1.09
			c0.796,0.399,1.917,0.644,3.172,0.644c1.257,0,2.378-0.246,3.172-0.644c0.642-0.322,1.04-0.711,1.04-1.09
			c0-0.38-0.398-0.769-1.04-1.09c-0.794-0.397-1.915-0.644-3.172-0.644C11.641,161.604,10.52,161.851,9.724,162.248z M7.197,163.338
			c0-0.987,0.711-1.841,1.863-2.416c0.998-0.498,2.357-0.807,3.836-0.807c1.481,0,2.839,0.309,3.836,0.807
			c1.153,0.575,1.865,1.429,1.865,2.416c0,0.989-0.712,1.84-1.865,2.416c-0.997,0.498-2.355,0.807-3.836,0.807
			c-1.479,0-2.838-0.309-3.836-0.807C7.909,165.178,7.197,164.327,7.197,163.338z"/>
	</g>
</g>
<g>
	<g>
		<path class="st0" d="M8.709,169.295c-0.013,0.034-0.023,0.07-0.029,0.105c-0.006,0.02-0.007,0.048-0.007,0.081
			c0,0.381,0.398,0.77,1.041,1.093c0.799,0.4,1.923,0.645,3.182,0.645c1.261,0,2.383-0.247,3.182-0.645
			c0.643-0.322,1.043-0.712,1.043-1.093c0-0.031-0.003-0.057-0.007-0.08c-0.01-0.043-0.019-0.079-0.028-0.109l1.4-0.482
			c0.038,0.109,0.068,0.215,0.087,0.315c0.023,0.12,0.036,0.239,0.036,0.357c0,0.99-0.714,1.842-1.867,2.419
			c-1,0.501-2.361,0.811-3.846,0.811s-2.844-0.31-3.844-0.811c-1.155-0.577-1.869-1.431-1.869-2.419
			c0-0.115,0.013-0.233,0.036-0.354c0.021-0.109,0.051-0.216,0.087-0.32L8.709,169.295z"/>
	</g>
</g>
<g>
	<g>
		<path class="st0" d="M18.486,165.81c0.038,0.109,0.068,0.216,0.087,0.315c0.023,0.121,0.036,0.24,0.036,0.359
			c0,0.988-0.714,1.841-1.867,2.418c-1,0.5-2.361,0.809-3.846,0.809s-2.844-0.309-3.844-0.809c-1.155-0.577-1.869-1.43-1.869-2.418
			c0-0.115,0.013-0.234,0.036-0.356c0.021-0.108,0.051-0.215,0.087-0.319l1.402,0.485c-0.013,0.037-0.023,0.073-0.029,0.106
			c-0.006,0.021-0.007,0.049-0.007,0.082c0,0.381,0.4,0.771,1.043,1.094c0.799,0.4,1.921,0.645,3.18,0.645
			c1.261,0,2.383-0.246,3.182-0.645c0.643-0.323,1.043-0.711,1.043-1.094c0-0.029-0.003-0.057-0.007-0.08
			c-0.01-0.043-0.019-0.079-0.028-0.109L18.486,165.81z"/>
	</g>
</g>
<g>
	<rect x="19.841" y="162.095" class="st0" width="8.188" height="1.487"/>
</g>
<g>
	<rect x="19.841" y="167.307" class="st0" width="8.188" height="1.487"/>
</g>
<g>
	<rect x="19.841" y="172.516" class="st0" width="8.188" height="1.488"/>
</g>
<g>
	<rect x="7.348" y="177.727" class="st0" width="20.681" height="1.488"/>
</g>
<g>
	<g>
		<path class="st0" d="M8.709,172.315c-0.013,0.037-0.023,0.073-0.029,0.104c-0.006,0.023-0.007,0.052-0.007,0.085
			c0,0.381,0.398,0.77,1.041,1.091c0.799,0.401,1.923,0.648,3.182,0.648c1.261,0,2.383-0.247,3.182-0.648
			c0.643-0.32,1.043-0.71,1.043-1.091c0-0.031-0.003-0.058-0.007-0.08c-0.01-0.044-0.019-0.08-0.028-0.108l1.4-0.484
			c0.038,0.109,0.068,0.216,0.087,0.314c0.023,0.12,0.036,0.239,0.036,0.358c0,0.988-0.714,1.841-1.867,2.418
			c-1,0.501-2.361,0.811-3.846,0.811s-2.844-0.31-3.844-0.811c-1.155-0.577-1.869-1.43-1.869-2.418c0-0.115,0.013-0.234,0.036-0.355
			c0.021-0.11,0.051-0.217,0.087-0.32L8.709,172.315z"/>
	</g>
</g>
</svg>
