<?xml version="1.0" encoding="iso-8859-1"?>
<!-- Generator: Adobe Illustrator 19.1.0, SVG Export Plug-In . SVG Version: 6.00 Build 0)  -->
<svg version="1.1" id="Layer_1" xmlns="http://www.w3.org/2000/svg" xmlns:xlink="http://www.w3.org/1999/xlink" x="0px" y="0px"
	 viewBox="-180.5 212 40 33.917" style="enable-background:new -180.5 212 40 33.917;" xml:space="preserve">
<style type="text/css">
	.st0{fill:#009797;}
	.st1{fill:#009898;}
	.st2{fill:#009797;stroke:#009797;stroke-width:0.3403;stroke-linecap:round;stroke-linejoin:round;stroke-miterlimit:10;}
	.st3{fill:#009797;stroke:#009797;stroke-width:0.3391;stroke-linecap:round;stroke-linejoin:round;stroke-miterlimit:10;}
</style>
<g>
	<path class="st0" d="M-142.027,245.941h-36.935c-0.848,0-1.538-0.692-1.538-1.539v-18.84c0-0.85,0.69-1.539,1.538-1.539h36.935
		c0.85,0,1.539,0.688,1.539,1.539v18.84C-140.488,245.249-141.18,245.941-142.027,245.941z M-178.663,244.104h36.336v-18.244
		h-36.336V244.104z"/>
	<g>
		<path class="st0" d="M-151.385,225.457c0.244,0.248,0.645,0.248,0.893,0c0.247-0.246,0.247-0.646,0-0.895l-6.994-6.994
			c-0.246-0.246-0.646-0.246-0.895,0c-0.248,0.248-0.248,0.648,0,0.896L-151.385,225.457z"/>
	</g>
	<g>
		<path class="st0" d="M-170.729,224.562c-0.247,0.248-0.247,0.648,0,0.895c0.247,0.248,0.647,0.248,0.894,0l6.995-6.993
			c0.249-0.248,0.249-0.647,0-0.895c-0.246-0.246-0.648-0.246-0.895,0L-170.729,224.562z"/>
	</g>
	<g>
		<path class="st0" d="M-159.41,213.832c-0.308-0.307-0.732-0.497-1.201-0.497c-0.468,0-0.893,0.19-1.2,0.497
			c-0.307,0.307-0.499,0.732-0.499,1.201c0,0.469,0.19,0.894,0.498,1.201c0.308,0.308,0.732,0.498,1.2,0.498
			c0.469,0,0.894-0.19,1.201-0.498c0.308-0.308,0.499-0.732,0.499-1.201C-158.912,214.562-159.104,214.139-159.41,213.832z
			 M-160.611,212.068c0.819,0,1.561,0.332,2.099,0.869c0.533,0.536,0.865,1.277,0.865,2.096s-0.332,1.56-0.865,2.096
			c-0.538,0.537-1.279,0.869-2.099,0.869c-0.818,0-1.559-0.332-2.096-0.869c-0.535-0.536-0.867-1.277-0.867-2.096
			c0-0.819,0.332-1.56,0.867-2.096C-162.17,212.4-161.43,212.068-160.611,212.068z"/>
	</g>
	<g>
		<path class="st0" d="M-148.318,233.109v3.691h0.842c0.314,0,0.539-0.016,0.683-0.055c0.181-0.045,0.333-0.12,0.453-0.229
			c0.12-0.109,0.218-0.289,0.295-0.539c0.075-0.25,0.114-0.592,0.114-1.021c0-0.432-0.039-0.762-0.114-0.991
			c-0.077-0.231-0.185-0.412-0.317-0.541c-0.14-0.13-0.312-0.216-0.521-0.263c-0.158-0.035-0.467-0.053-0.926-0.053H-148.318
			L-148.318,233.109z M-149.441,232.164h2.057c0.464,0,0.814,0.035,1.062,0.105c0.325,0.098,0.607,0.27,0.84,0.516
			c0.232,0.244,0.41,0.546,0.532,0.902c0.12,0.356,0.181,0.797,0.181,1.318c0,0.457-0.057,0.854-0.17,1.188
			c-0.14,0.404-0.338,0.732-0.598,0.983c-0.195,0.19-0.46,0.338-0.791,0.446c-0.249,0.076-0.579,0.115-0.997,0.115h-2.114v-5.574
			H-149.441z M-154.634,237.74v-5.576h4.133v0.945h-3.008v1.234h2.8v0.939h-2.8v1.517h3.114v0.94H-154.634z M-160.116,235.927
			l1.097-0.107c0.063,0.369,0.197,0.64,0.4,0.811c0.201,0.173,0.473,0.26,0.814,0.26c0.361,0,0.635-0.076,0.818-0.232
			c0.186-0.15,0.277-0.332,0.277-0.535c0-0.135-0.04-0.246-0.117-0.338c-0.078-0.092-0.211-0.172-0.406-0.24
			c-0.131-0.047-0.433-0.125-0.898-0.245c-0.604-0.148-1.028-0.332-1.27-0.55c-0.347-0.307-0.516-0.682-0.516-1.124
			c0-0.282,0.079-0.548,0.242-0.796c0.158-0.247,0.391-0.434,0.695-0.564c0.303-0.129,0.668-0.193,1.097-0.193
			c0.7,0,1.226,0.154,1.581,0.459c0.354,0.309,0.539,0.717,0.559,1.23l-1.127,0.051c-0.048-0.289-0.152-0.494-0.311-0.621
			c-0.158-0.125-0.396-0.186-0.713-0.186c-0.328,0-0.586,0.064-0.77,0.2c-0.118,0.086-0.178,0.202-0.178,0.345
			c0,0.135,0.056,0.246,0.166,0.338c0.144,0.119,0.489,0.244,1.034,0.373c0.549,0.131,0.955,0.264,1.217,0.4
			c0.264,0.141,0.468,0.328,0.615,0.568c0.148,0.24,0.224,0.537,0.224,0.887c0,0.32-0.088,0.619-0.267,0.898
			c-0.178,0.279-0.43,0.485-0.752,0.621c-0.328,0.139-0.729,0.202-1.215,0.202c-0.707,0-1.246-0.159-1.623-0.487
			C-159.816,237.025-160.043,236.552-160.116,235.927z M-164.959,234.949c0,0.632,0.147,1.109,0.439,1.436
			c0.291,0.325,0.662,0.49,1.111,0.49c0.447,0,0.816-0.163,1.103-0.486c0.288-0.324,0.433-0.808,0.433-1.453
			c0-0.641-0.142-1.115-0.42-1.432c-0.281-0.314-0.652-0.473-1.116-0.473c-0.466,0-0.839,0.16-1.124,0.479
			C-164.815,233.828-164.959,234.309-164.959,234.949z M-166.118,234.988c0-0.57,0.084-1.047,0.254-1.433
			c0.127-0.282,0.3-0.538,0.519-0.765c0.219-0.223,0.459-0.393,0.722-0.501c0.347-0.147,0.747-0.222,1.202-0.222
			c0.822,0,1.479,0.254,1.971,0.766c0.494,0.509,0.742,1.218,0.742,2.125c0,0.898-0.246,1.605-0.736,2.113
			c-0.488,0.506-1.144,0.763-1.96,0.763c-0.83,0-1.491-0.254-1.979-0.759C-165.874,236.57-166.118,235.873-166.118,234.988z
			 M-170.617,237.74v-5.53h1.126v4.591h2.797v0.939H-170.617z M-172.704,235.691l1.089,0.346c-0.166,0.607-0.445,1.06-0.834,1.355
			c-0.387,0.295-0.882,0.443-1.48,0.443c-0.74,0-1.349-0.254-1.825-0.76c-0.478-0.506-0.715-1.199-0.715-2.073
			c0-0.929,0.239-1.647,0.719-2.163c0.479-0.514,1.108-0.77,1.89-0.77c0.682,0,1.235,0.199,1.661,0.604
			c0.255,0.238,0.443,0.58,0.57,1.027l-1.114,0.265c-0.065-0.289-0.202-0.517-0.413-0.685c-0.209-0.168-0.463-0.25-0.763-0.25
			c-0.413,0-0.749,0.146-1.005,0.443c-0.258,0.297-0.386,0.777-0.386,1.442c0,0.704,0.125,1.208,0.38,1.505
			c0.254,0.299,0.583,0.451,0.988,0.451c0.299,0,0.557-0.098,0.773-0.287C-172.954,236.398-172.8,236.1-172.704,235.691z"/>
	</g>
</g>
</svg>
