<?xml version="1.0" encoding="iso-8859-1"?>
<!-- Generator: Adobe Illustrator 19.1.0, SVG Export Plug-In . SVG Version: 6.00 Build 0)  -->
<svg version="1.1" id="Layer_1" xmlns="http://www.w3.org/2000/svg" xmlns:xlink="http://www.w3.org/1999/xlink" x="0px" y="0px"
	 viewBox="120.13 -208.25 40 37.75" style="enable-background:new 120.13 -208.25 40 37.75;" xml:space="preserve">
<style type="text/css">
	.st0{fill:#009797;}
	.st1{fill:#009898;}
	.st2{fill:#009797;stroke:#009797;stroke-width:0.3403;stroke-linecap:round;stroke-linejoin:round;stroke-miterlimit:10;}
	.st3{fill:#009797;stroke:#009797;stroke-width:0.3391;stroke-linecap:round;stroke-linejoin:round;stroke-miterlimit:10;}
</style>
<g>
	<path class="st0" d="M150.234-170.5H121.81c-0.926,0-1.68-0.755-1.68-1.683v-24.254c0-0.926,0.754-1.68,1.682-1.68h5.245
		c0.471,0,0.85,0.381,0.85,0.85c0,0.469-0.379,0.85-0.85,0.85h-5.245l0.019,24.234l28.404-0.019c0.197,0,0.586-0.16,0.775-0.447
		l7.607-13.788c-0.004-0.007-0.006-0.013-0.01-0.019h-24.717c-0.052,0-0.101-0.006-0.15-0.015c0.039,0.013-0.217,0.061-0.535,0.571
		c-0.547,0.869-4.85,9.379-6.46,12.586c-0.212,0.419-0.722,0.59-1.142,0.377c-0.42-0.211-0.59-0.723-0.379-1.141
		c0.238-0.476,5.84-11.611,6.541-12.727c0.824-1.314,1.809-1.375,2.162-1.354h24.799c0.455,0,0.893,0.228,1.201,0.622
		c0.35,0.447,0.48,1.025,0.35,1.545c-0.017,0.07-0.045,0.141-0.08,0.205l-7.732,14.012C151.885-170.88,150.908-170.5,150.234-170.5z
		"/>
	<path class="st0" d="M127.103-179.687c-0.47,0-0.85-0.381-0.85-0.852v-25.98c0-0.926,0.753-1.68,1.682-1.68h15.51
		c0.231,0,0.455,0.096,0.617,0.265l4.819,5.085c0.15,0.158,0.232,0.367,0.232,0.585v14.539c0,0.47-0.379,0.851-0.85,0.851
		c-0.469,0-0.85-0.381-0.85-0.851v-14.2l-4.334-4.574h-15.145l0.018,25.96C127.953-180.068,127.574-179.687,127.103-179.687z"/>
	<g>
		<rect x="131.203" y="-199.405" class="st0" width="13.125" height="1.5"/>
	</g>
	<g>
		<rect x="131.203" y="-195.217" class="st0" width="13.125" height="1.5"/>
	</g>
</g>
</svg>
