<?xml version="1.0" encoding="iso-8859-1"?>
<!-- Generator: Adobe Illustrator 19.1.0, SVG Export Plug-In . SVG Version: 6.00 Build 0)  -->
<svg version="1.1" id="Layer_1" xmlns="http://www.w3.org/2000/svg" xmlns:xlink="http://www.w3.org/1999/xlink" x="0px" y="0px"
	 viewBox="120.084 -153.958 40 43.584" style="enable-background:new 120.084 -153.958 40 43.584;" xml:space="preserve">
<style type="text/css">
	.st0{fill:#009797;}
	.st1{fill:#009898;}
	.st2{fill:#009797;stroke:#009797;stroke-width:0.3403;stroke-linecap:round;stroke-linejoin:round;stroke-miterlimit:10;}
	.st3{fill:#009797;stroke:#009797;stroke-width:0.3391;stroke-linecap:round;stroke-linejoin:round;stroke-miterlimit:10;}
</style>
<g>
	<path class="st0" d="M156.31-136.339h-6.69v-4.652c0-2.64-2.071-4.81-4.716-4.943l-0.051-0.001c-0.231,0-0.45,0.08-0.624,0.235
		c-1,0.868-2.273,1.347-3.581,1.347c-1.312,0-2.584-0.479-3.581-1.347c-0.175-0.155-0.393-0.235-0.628-0.235l-0.047,0.001
		c-2.645,0.133-4.718,2.303-4.718,4.943v4.652h-2.133c0.157-0.17,0.251-0.395,0.251-0.643c0-0.529-0.431-0.96-0.96-0.96h-1.603
		c-0.526,0-0.957,0.43-0.957,0.96c0,0.247,0.095,0.472,0.248,0.643h-2.763c-0.528,0-0.959,0.43-0.959,0.96
		c0,0.528,0.429,0.958,0.959,0.958h2.515v23.089c0,0.526,0.429,0.957,0.957,0.957h25.736c0.528,0,0.959-0.428,0.959-0.957v-23.091
		h2.387c0.527,0,0.958-0.428,0.958-0.958C157.269-135.909,156.839-136.339,156.31-136.339z M133.589-140.991
		c0-1.478,1.093-2.753,2.549-2.994c1.289,0.998,2.885,1.546,4.511,1.546c1.621,0,3.22-0.548,4.509-1.546
		c1.456,0.241,2.548,1.514,2.548,2.994v4.652h-14.116V-140.991z M152.007-112.29h-23.819v-22.132h23.819V-112.29L152.007-112.29z"/>
	<path class="st0" d="M140.371-119.29h-1.799c-0.496,0-0.899,0.401-0.899,0.899c0,0.499,0.403,0.899,0.899,0.899h1.799
		c1.488,0,2.694-1.209,2.694-2.698c0-0.694-0.268-1.321-0.698-1.799c0.431-0.479,0.698-1.103,0.698-1.799
		c0-1.484-1.206-2.694-2.694-2.694c-0.495,0-0.901-0.403-0.901-0.902c0-0.495,0.406-0.899,0.901-0.899h1.799
		c0.493,0,0.895-0.399,0.895-0.898c0-0.497-0.401-0.896-0.895-0.896h-1.799c-1.491,0-2.7,1.206-2.7,2.694
		c0,0.696,0.271,1.322,0.702,1.798c-0.431,0.48-0.702,1.106-0.702,1.797c0,1.491,1.209,2.7,2.7,2.7c0.496,0,0.898,0.403,0.898,0.899
		C141.269-119.693,140.867-119.29,140.371-119.29z M140.371-122.886c-0.495,0-0.901-0.406-0.901-0.902
		c0-0.493,0.406-0.896,0.901-0.896c0.496,0,0.898,0.403,0.898,0.896C141.269-123.291,140.867-122.886,140.371-122.886z"/>
	<path class="st0" d="M140.648-145.644c2.296,0,4.164-1.867,4.164-4.164c0-2.296-1.868-4.163-4.164-4.163
		c-2.295,0-4.166,1.868-4.166,4.165C136.482-147.51,138.353-145.644,140.648-145.644z M140.648-152.056
		c1.24,0,2.247,1.009,2.247,2.248c0,1.241-1.008,2.249-2.247,2.249c-1.24,0-2.248-1.009-2.248-2.249
		C138.398-151.047,139.407-152.056,140.648-152.056z"/>
</g>
</svg>
