<?xml version="1.0" encoding="iso-8859-1"?>
<!-- Generator: Adobe Illustrator 19.1.0, SVG Export Plug-In . SVG Version: 6.00 Build 0)  -->
<svg version="1.1" id="Layer_1" xmlns="http://www.w3.org/2000/svg" xmlns:xlink="http://www.w3.org/1999/xlink" x="0px" y="0px"
	 viewBox="-180.5 -210.5 40 40" style="enable-background:new -180.5 -210.5 40 40;" xml:space="preserve">
<style type="text/css">
	.st0{fill:#009797;}
	.st1{fill:#009898;}
	.st2{fill:#009797;stroke:#009797;stroke-width:0.3403;stroke-linecap:round;stroke-linejoin:round;stroke-miterlimit:10;}
	.st3{fill:#009797;stroke:#009797;stroke-width:0.3391;stroke-linecap:round;stroke-linejoin:round;stroke-miterlimit:10;}
</style>
<g>
	<path class="st0" d="M-153.285-205.804h4.799v14.159c0.574,0.124,1.129,0.299,1.666,0.509v-14.898c0-0.792-0.645-1.437-1.436-1.437
		h-5.029c-0.459,0-0.832,0.373-0.832,0.833C-154.117-206.177-153.744-205.804-153.285-205.804z"/>
	<g>
		<rect x="-179.665" y="-198.894" class="st0" width="32.011" height="1.667"/>
	</g>
	<g>
		<path class="st0" d="M-169.553-203.073h-3.351c-0.764,0-1.365-0.543-1.365-1.237v-4.954c0-0.694,0.599-1.238,1.365-1.238h3.354
			c0.766,0,1.365,0.544,1.365,1.238v4.954C-168.189-203.616-168.789-203.073-169.553-203.073z M-172.601-204.74h2.748v-4.095h-2.748
			V-204.74z"/>
	</g>
	<g>
		<path class="st0" d="M-154.414-203.073h-3.352c-0.769,0-1.365-0.543-1.365-1.237v-4.954c0-0.694,0.6-1.238,1.365-1.238h3.352
			c0.752,0,1.363,0.556,1.363,1.238v4.954C-153.051-203.617-153.65-203.073-154.414-203.073z M-157.465-204.74h2.748v-4.095h-2.748
			V-204.74z"/>
	</g>
	<g>
		<rect x="-168.416" y="-207.471" class="st0" width="9.529" height="1.667"/>
	</g>
	<g>
		<path class="st0" d="M-150.824-170.5c-5.693,0-10.326-4.633-10.326-10.326c0-5.693,4.632-10.325,10.326-10.325
			c5.693,0,10.324,4.631,10.324,10.325C-140.5-175.132-145.131-170.5-150.824-170.5z M-150.824-189.484
			c-4.773,0-8.66,3.885-8.66,8.658c0,4.775,3.887,8.66,8.66,8.66c4.773,0,8.658-3.885,8.658-8.66
			C-142.166-185.6-146.049-189.484-150.824-189.484z"/>
	</g>
	<g>
		<path class="st0" d="M-150.801-178.496c-0.459,0-0.83-0.371-0.832-0.83l-0.025-5.396c-0.002-0.461,0.369-0.836,0.83-0.838
			c0,0,0.002,0,0.004,0c0.459,0,0.83,0.371,0.832,0.83l0.025,5.396c0.002,0.461-0.369,0.836-0.83,0.838
			C-150.797-178.496-150.799-178.496-150.801-178.496z"/>
	</g>
	<g>
		<path class="st0" d="M-145.393-178.465h-5.424c-0.461,0-0.832-0.373-0.832-0.834c0-0.459,0.371-0.832,0.832-0.832h5.424
			c0.461,0,0.834,0.373,0.834,0.832C-144.559-178.838-144.932-178.465-145.393-178.465z"/>
	</g>
</g>
<path class="st0" d="M-161.754-179.596h-17.078v-26.208h4.778c0.46,0,0.832-0.374,0.832-0.834c0-0.46-0.374-0.833-0.833-0.833
	h-5.009c-0.791,0-1.436,0.644-1.436,1.436v26.67c0,0.791,0.645,1.436,1.436,1.436h17.641
	C-161.573-178.471-161.688-179.025-161.754-179.596z"/>
</svg>
