<?xml version="1.0" encoding="iso-8859-1"?>
<!-- Generator: Adobe Illustrator 19.1.0, SVG Export Plug-In . SVG Version: 6.00 Build 0)  -->
<svg version="1.1" id="Layer_1" xmlns="http://www.w3.org/2000/svg" xmlns:xlink="http://www.w3.org/1999/xlink" x="0px" y="0px"
	 viewBox="0.125 -89.166 40 37.666" style="enable-background:new 0.125 -89.166 40 37.666;" xml:space="preserve">
<style type="text/css">
	.st0{fill:#009797;}
	.st1{fill:#009898;}
	.st2{fill:#009797;stroke:#009797;stroke-width:0.3403;stroke-linecap:round;stroke-linejoin:round;stroke-miterlimit:10;}
	.st3{fill:#009797;stroke:#009797;stroke-width:0.3391;stroke-linecap:round;stroke-linejoin:round;stroke-miterlimit:10;}
</style>
<g>
	<g>
		<path class="st0" d="M28.224-82.128h4.437l-4.437-4.434V-82.128z M34.561-80.554h-0.022h-7.103c-0.435,0-0.786-0.353-0.786-0.787
			v-7.12v-0.005c0-0.435,0.351-0.788,0.786-0.788c0.22,0,0.419,0.09,0.565,0.236l7.119,7.121h0.002c0.307,0.308,0.307,0.806,0,1.114
			C34.965-80.631,34.765-80.554,34.561-80.554L34.561-80.554z"/>
	</g>
	<g>
		<path class="st0" d="M27.11-87.678H6.278v34.666h27.496v-28.001L27.11-87.678L27.11-87.678z M5.491-89.253h21.945
			c0.22,0,0.419,0.09,0.563,0.236l7.12,7.121h0.001c0.152,0.153,0.229,0.354,0.229,0.557l0,0v29.117
			c0,0.436-0.353,0.788-0.788,0.788H5.491c-0.434,0-0.788-0.353-0.788-0.788v-36.243C4.703-88.9,5.057-89.253,5.491-89.253
			L5.491-89.253z"/>
	</g>
	<g>
		<rect x="11.608" y="-67.332" class="st0" width="16.68" height="1.421"/>
	</g>
	<g>
		<rect x="11.608" y="-74.493" class="st0" width="16.68" height="1.42"/>
	</g>
	<g>
		<rect x="11.608" y="-60.296" class="st0" width="16.68" height="1.418"/>
	</g>
</g>
</svg>
