<?xml version="1.0" encoding="iso-8859-1"?>
<!-- Generator: Adobe Illustrator 19.1.0, SVG Export Plug-In . SVG Version: 6.00 Build 0)  -->
<svg version="1.1" id="Layer_1" xmlns="http://www.w3.org/2000/svg" xmlns:xlink="http://www.w3.org/1999/xlink" x="0px" y="0px"
	 viewBox="-120.374 31.084 40 33.917" style="enable-background:new -120.374 31.084 40 33.917;" xml:space="preserve">
<style type="text/css">
	.st0{fill:#009797;}
	.st1{fill:#009898;}
	.st2{fill:#009797;stroke:#009797;stroke-width:0.3403;stroke-linecap:round;stroke-linejoin:round;stroke-miterlimit:10;}
	.st3{fill:#009797;stroke:#009797;stroke-width:0.3391;stroke-linecap:round;stroke-linejoin:round;stroke-miterlimit:10;}
</style>
<g>
	<path class="st0" d="M-110.413,63.176l0.576,0.206c1.644,0.582,3.342,1.026,5.047,1.317c3.244,0.552,6.608,0.584,9.831,0.098
		c1.506-0.227,3.013-0.568,4.478-1.022l0.61-0.186v-9.76c0-2.66-1.07-5.17-3.019-7.063c-1.306-1.271-2.953-2.177-4.763-2.618
		c-0.055-0.013-0.091-0.059-0.095-0.11c-0.004-0.053,0.027-0.103,0.077-0.121c0.903-0.342,1.699-0.848,2.37-1.503
		c1.304-1.268,2.023-2.944,2.023-4.725c0-1.783-0.716-3.462-2.017-4.731c-1.303-1.267-3.026-1.964-4.856-1.964
		c-1.826,0-3.546,0.699-4.845,1.968c-1.297,1.267-2.012,2.945-2.012,4.727c0,1.782,0.715,3.459,2.012,4.725
		c0.671,0.655,1.465,1.161,2.365,1.504c0.05,0.02,0.084,0.069,0.081,0.121c-0.004,0.053-0.041,0.097-0.094,0.11
		c-1.808,0.441-3.454,1.348-4.759,2.619c-1.941,1.89-3.01,4.397-3.01,7.064V63.176z M-103.764,41.221
		c-0.966-0.945-1.499-2.199-1.499-3.532c0-1.335,0.533-2.591,1.499-3.535c0.965-0.943,2.249-1.462,3.613-1.462
		c1.366,0,2.652,0.521,3.624,1.467c0.971,0.945,1.506,2.199,1.506,3.53c0,1.331-0.534,2.582-1.501,3.526
		c-0.973,0.944-2.262,1.465-3.629,1.465C-101.515,42.68-102.799,42.163-103.764,41.221z M-108.67,53.829
		c0-2.216,0.888-4.3,2.498-5.867c1.608-1.566,3.746-2.43,6.022-2.43c2.277,0,4.421,0.864,6.037,2.433
		c1.611,1.566,2.499,3.651,2.499,5.866v8.418c0,0.056-0.034,0.102-0.09,0.118c-1.146,0.323-2.332,0.578-3.523,0.754
		c-1.42,0.216-2.881,0.324-4.338,0.324c-1.655,0-3.313-0.141-4.927-0.414c-1.386-0.237-2.762-0.58-4.092-1.013
		c-0.051-0.019-0.087-0.062-0.087-0.115L-108.67,53.829L-108.67,53.829z"/>
	<path class="st0" d="M-81.309,59.168c-0.002-0.01-0.002-0.019-0.002-0.027l0,0c0.009-4.291,0.024-10.165-4.782-11.657
		c-0.048-0.013-0.081-0.054-0.087-0.102c-0.005-0.047,0.019-0.093,0.059-0.117c0.384-0.229,0.694-0.456,0.942-0.699
		c0.938-0.912,1.453-2.115,1.453-3.388c0-1.275-0.515-2.48-1.453-3.39c-0.933-0.911-2.169-1.411-3.479-1.411
		c-1.313,0-2.55,0.498-3.481,1.406c-0.935,0.908-1.447,2.113-1.447,3.395c0,1.277,0.515,2.481,1.451,3.39
		c0.438,0.429,0.956,0.77,1.534,1.016c0.034,0.012,0.06,0.04,0.07,0.077l0.414,1.37c0.228-0.062,0.453-0.11,0.67-0.146
		c0.262-0.042,0.527-0.065,0.79-0.065c1.476,0,2.671,0.436,3.548,1.296c2.08,2.03,2.071,6.084,2.064,9.042v0.181
		c0,0.031-0.015,0.062-0.037,0.086l-0.003,0.002c-0.48,0.488-1.018,0.828-1.69,1.068c-0.732,0.268-1.653,0.443-3.161,0.609
		l0.183,1.682c1.656-0.178,2.7-0.384,3.585-0.705c1.085-0.393,1.9-0.95,2.641-1.812l0.219-0.584c0-0.151,0-0.281,0-0.39
		c-0.002-0.008-0.004-0.017-0.004-0.026c0-0.01,0.002-0.021,0.004-0.027C-81.309,59.214-81.309,59.191-81.309,59.168z
		 M-88.658,46.278c-0.854,0-1.655-0.322-2.255-0.909c-0.601-0.586-0.932-1.363-0.932-2.191c0-0.826,0.332-1.607,0.935-2.196
		c0.601-0.586,1.401-0.907,2.252-0.907c0.849,0,1.649,0.325,2.254,0.911c0.603,0.585,0.934,1.364,0.934,2.192
		c0,0.824-0.331,1.602-0.934,2.188C-87.007,45.955-87.81,46.278-88.658,46.278z"/>
	<path class="st0" d="M-111.235,48.883c0.219,0.037,0.439,0.086,0.667,0.148l0.415-1.372c0.011-0.035,0.036-0.063,0.072-0.077
		c0.576-0.243,1.093-0.583,1.534-1.014c0.935-0.908,1.45-2.114,1.45-3.391c0-1.28-0.513-2.487-1.444-3.394
		c-0.934-0.908-2.17-1.406-3.485-1.406c-1.31,0-2.545,0.5-3.479,1.411c-0.937,0.909-1.452,2.114-1.452,3.39
		c0,1.272,0.516,2.478,1.452,3.39c0.248,0.241,0.557,0.469,0.941,0.697c0.041,0.025,0.065,0.07,0.059,0.117
		c-0.006,0.048-0.039,0.089-0.085,0.102c-4.808,1.492-4.792,7.366-4.782,11.657l0,0c0,0.01,0,0.018-0.002,0.027
		c0,0.02,0,0.039,0,0.06c0.002,0.008,0.002,0.016,0.002,0.022c0,0.002,0,0.002,0,0.005c0,0.002,0,0.006,0,0.008
		c0,0.008-0.001,0.014-0.002,0.021c0,0.111,0,0.243,0,0.401l0.219,0.582c0.74,0.86,1.555,1.419,2.64,1.812
		c0.883,0.319,2.129,0.562,3.808,0.747l-0.025-1.722c-1.516-0.165-2.441-0.343-3.176-0.609c-0.673-0.241-1.21-0.581-1.688-1.069
		c-0.001,0-0.001,0-0.001,0c-0.023-0.023-0.04-0.057-0.04-0.088v-0.181c-0.007-2.957-0.017-7.012,2.063-9.042
		c0.878-0.859,2.074-1.295,3.549-1.295C-111.761,48.82-111.497,48.843-111.235,48.883z M-115.212,43.178
		c0-0.828,0.33-1.607,0.933-2.192c0.605-0.588,1.406-0.911,2.255-0.911c0.851,0,1.65,0.323,2.253,0.906
		c0.602,0.59,0.934,1.371,0.934,2.197c0,0.828-0.33,1.605-0.932,2.19c-0.602,0.588-1.402,0.91-2.255,0.91
		c-0.849,0-1.651-0.323-2.255-0.912C-114.882,44.779-115.212,44.002-115.212,43.178z"/>
</g>
</svg>
