<?xml version="1.0" encoding="iso-8859-1"?>
<!-- Generator: Adobe Illustrator 19.1.0, SVG Export Plug-In . SVG Version: 6.00 Build 0)  -->
<svg version="1.1" id="Layer_1" xmlns="http://www.w3.org/2000/svg" xmlns:xlink="http://www.w3.org/1999/xlink" x="0px" y="0px"
	 viewBox="120.13 154.251 40 31.083" style="enable-background:new 120.13 154.251 40 31.083;" xml:space="preserve">
<style type="text/css">
	.st0{fill:#009797;}
	.st1{fill:#009898;}
	.st2{fill:#009797;stroke:#009797;stroke-width:0.3403;stroke-linecap:round;stroke-linejoin:round;stroke-miterlimit:10;}
	.st3{fill:#009797;stroke:#009797;stroke-width:0.3391;stroke-linecap:round;stroke-linejoin:round;stroke-miterlimit:10;}
</style>
<g>
	<path class="st0" d="M144.199,176.966c-0.017-0.012-0.035-0.017-0.054-0.008c-0.019,0.004-0.034,0.017-0.045,0.033l-0.852,1.518
		c-0.021,0.033-0.008,0.078,0.026,0.1l0.099,0.06c0.007,0.007,0.013,0.013,0.02,0.018c0.918,0.582,1.606,1.323,2.051,2.203
		c0.347,0.685,0.558,1.48,0.627,2.364l0.015,0.178h-11.869l0.015-0.178c0.067-0.877,0.276-1.672,0.623-2.36
		c0.447-0.883,1.139-1.629,2.06-2.212c0.008-0.004,0.015-0.009,0.02-0.018l0.093-0.054c0.017-0.01,0.03-0.026,0.034-0.044
		c0.005-0.018,0.003-0.039-0.006-0.057l-0.85-1.525c-0.019-0.035-0.062-0.048-0.095-0.028c-1.227,0.64-2.204,1.675-2.908,3.066
		c-0.634,1.259-0.917,2.741-0.841,4.403l0.038,0.838c0.002,0.04,0.033,0.07,0.07,0.07h15.363c0.039,0,0.069-0.03,0.071-0.07
		l0.037-0.844c0.074-1.662-0.212-3.145-0.846-4.4C146.468,178.772,145.492,177.743,144.199,176.966z"/>
	<path class="st0" d="M136.581,168.74c-0.953,0.974-1.48,2.269-1.48,3.644c0,1.374,0.527,2.669,1.482,3.646
		c0.954,0.976,2.224,1.513,3.568,1.513c1.344,0,2.611-0.538,3.569-1.518c0.955-0.974,1.482-2.267,1.482-3.643
		c0-1.375-0.527-2.672-1.482-3.646c-0.954-0.977-2.222-1.514-3.569-1.514C138.807,167.222,137.537,167.76,136.581,168.74z
		 M142.402,174.687c-0.597,0.612-1.396,0.951-2.251,0.951c-0.848,0-1.648-0.339-2.252-0.953c-0.601-0.617-0.933-1.434-0.933-2.299
		c0-0.872,0.331-1.693,0.933-2.308c0.6-0.614,1.401-0.951,2.252-0.951c0.849,0,1.648,0.338,2.253,0.953
		c0.602,0.615,0.933,1.436,0.933,2.302C143.338,173.251,143.006,174.07,142.402,174.687z"/>
	<path class="st0" d="M151.115,167.879c-0.681,0.694-1.056,1.618-1.056,2.599c0,0.985,0.376,1.908,1.056,2.603
		c0.683,0.697,1.586,1.08,2.548,1.08c0.96,0,1.862-0.385,2.546-1.082c0.682-0.696,1.057-1.619,1.057-2.602
		c0-0.982-0.375-1.905-1.057-2.6c-0.679-0.696-1.582-1.079-2.546-1.079C152.703,166.797,151.798,167.182,151.115,167.879z
		 M155.061,171.911c-0.373,0.382-0.87,0.59-1.398,0.59c-0.532,0-1.028-0.211-1.401-0.594c-0.374-0.382-0.579-0.89-0.579-1.43
		c0-0.542,0.206-1.05,0.579-1.434c0.373-0.38,0.869-0.588,1.401-0.588c0.528,0,1.025,0.209,1.398,0.591
		c0.375,0.385,0.581,0.891,0.581,1.429C155.643,171.016,155.436,171.527,155.061,171.911z"/>
	<path class="st0" d="M158.531,175.572c-0.45-0.896-1.152-1.627-2.082-2.174c-0.003-0.002-0.007-0.005-0.011-0.007l-0.08-0.045
		c-0.033-0.02-0.075-0.008-0.096,0.026l-0.735,1.306c-0.02,0.034-0.007,0.08,0.026,0.101l0.074,0.042
		c0.002,0.004,0.005,0.007,0.011,0.011c0.656,0.388,1.146,0.893,1.453,1.499c0.215,0.424,0.348,0.911,0.398,1.454h-7.658
		c0.052-0.543,0.185-1.03,0.397-1.452c0.307-0.606,0.798-1.111,1.453-1.501l0.085-0.048c0.017-0.011,0.026-0.026,0.032-0.044
		c0.006-0.02,0.004-0.04-0.006-0.058l-0.729-1.312c-0.02-0.036-0.065-0.049-0.099-0.028l-0.096,0.056
		c-0.931,0.552-1.631,1.282-2.081,2.178c-0.445,0.881-0.646,1.916-0.592,3.076l0.033,0.721c0.002,0.038,0.034,0.067,0.07,0.067
		h10.715c0.039,0,0.069-0.029,0.071-0.067l0.033-0.725C159.176,177.49,158.977,176.454,158.531,175.572z"/>
	<path class="st0" d="M126.6,174.16c0.961,0,1.865-0.384,2.548-1.082c0.681-0.696,1.056-1.619,1.056-2.601
		c0-0.983-0.377-1.907-1.056-2.6c-0.679-0.695-1.585-1.078-2.548-1.078c-0.959,0-1.863,0.383-2.547,1.081
		c-0.682,0.696-1.056,1.619-1.056,2.6c0,0.981,0.376,1.906,1.056,2.601C124.735,173.777,125.64,174.16,126.6,174.16z
		 M125.202,169.044c0.371-0.38,0.868-0.588,1.399-0.588c0.53,0,1.026,0.209,1.4,0.591c0.374,0.383,0.579,0.89,0.579,1.429
		c0,0.542-0.205,1.053-0.579,1.436c-0.372,0.382-0.868,0.59-1.4,0.59c-0.528,0-1.025-0.211-1.399-0.594
		c-0.376-0.381-0.581-0.89-0.581-1.43C124.62,169.937,124.826,169.426,125.202,169.044z"/>
	<path class="st0" d="M129.387,173.398c-0.002-0.002-0.008-0.005-0.011-0.007l-0.078-0.045c-0.035-0.02-0.076-0.008-0.099,0.026
		l-0.734,1.306c-0.018,0.034-0.008,0.08,0.027,0.101l0.076,0.044c0.003,0.002,0.006,0.006,0.01,0.006
		c0.656,0.391,1.146,0.895,1.452,1.501c0.216,0.423,0.348,0.912,0.399,1.454h-7.658c0.051-0.542,0.185-1.029,0.397-1.452
		c0.307-0.606,0.796-1.112,1.453-1.501l0.083-0.047c0.017-0.011,0.029-0.027,0.034-0.044c0.005-0.02,0.003-0.04-0.006-0.058
		l-0.729-1.312c-0.02-0.036-0.062-0.05-0.098-0.028l-0.097,0.057c-0.93,0.551-1.632,1.284-2.08,2.178
		c-0.445,0.879-0.645,1.914-0.591,3.076l0.033,0.72c0.002,0.038,0.033,0.067,0.071,0.067h10.714c0.038,0,0.07-0.029,0.072-0.067
		l0.031-0.724c0.052-1.16-0.146-2.195-0.593-3.077C131.019,174.677,130.317,173.945,129.387,173.398z"/>
	<path class="st0" d="M125.258,165.637c0.477,0.21,1.041-0.018,1.245-0.512c0.037-0.089,3.849-8.934,13.91-8.934
		c9.983,0,13.168,8.58,13.299,8.943c0.139,0.395,0.504,0.642,0.892,0.642c0.107,0,0.218-0.019,0.323-0.059
		c0.494-0.183,0.749-0.739,0.572-1.242c-0.037-0.102-3.743-10.225-15.086-10.225c-11.301,0-15.614,10.012-15.656,10.112
		C124.551,164.857,124.775,165.428,125.258,165.637z"/>
</g>
</svg>
