<?xml version="1.0" encoding="utf-8"?>
<!-- Generator: Adobe Illustrator 20.0.0, SVG Export Plug-In . SVG Version: 6.00 Build 0)  -->
<svg version="1.1" id="Layer_1" xmlns="http://www.w3.org/2000/svg" xmlns:xlink="http://www.w3.org/1999/xlink" x="0px" y="0px"
	 width="40px" height="40px" viewBox="0 0 40 40" enable-background="new 0 0 40 40" xml:space="preserve">
<g>
	<g>
		<g>
			<path fill="#179796" d="M24.7,24.3h-1.8v3.8c0,0.7-0.5,1.2-1.2,1.2c-0.7,0-1.2-0.5-1.2-1.2v-3.8h-8c-0.6,0-1.2-0.5-1.2-1.3
				c0-0.3,0.1-0.5,0.2-0.8L19.1,11c0.4-0.5,1-0.9,1.7-0.9c1.1,0,2,0.9,2,2v10.2h1.8c0.5,0,1,0.5,1,1C25.7,23.9,25.2,24.3,24.7,24.3z
				 M20.5,12.4l-6.6,9.9h6.6V12.4z"/>
			<path fill="#179796" d="M21.6,29.5c-0.8,0-1.3-0.6-1.3-1.3v-3.6h-7.8c-0.7,0-1.3-0.5-1.3-1.5c0-0.3,0.1-0.6,0.3-0.9L19,10.9
				c0.4-0.6,1.1-1,1.8-1c1.2,0,2.2,1,2.2,2.2v10h1.7c0.6,0,1.2,0.5,1.2,1.2c0,0.7-0.5,1.2-1.2,1.2H23v3.6
				C23,28.9,22.4,29.5,21.6,29.5z M20.8,10.3c-0.6,0-1.2,0.3-1.6,0.8l-7.6,11.4c-0.1,0.2-0.2,0.4-0.2,0.7c0,0.7,0.5,1.1,1,1.1h8
				c0.1,0,0.2,0.1,0.2,0.2v3.8c0,0.6,0.4,1,1,1c0.6,0,1-0.4,1-1v-3.8c0-0.1,0.1-0.2,0.2-0.2h1.8c0.4,0,0.8-0.4,0.8-0.8
				c0-0.5-0.4-0.9-0.8-0.9h-1.8c-0.1,0-0.2-0.1-0.2-0.2V12.1C22.6,11.1,21.8,10.3,20.8,10.3z M20.5,22.5h-6.6c-0.1,0-0.1,0-0.2-0.1
				c0-0.1,0-0.1,0-0.2l6.6-9.9c0-0.1,0.1-0.1,0.2-0.1c0.1,0,0.1,0.1,0.1,0.2v9.9C20.6,22.4,20.6,22.5,20.5,22.5z M14.2,22.1h6.1V13
				L14.2,22.1z"/>
		</g>
	</g>
	<path fill="#179796" d="M20,39.9C9.1,39.9,0.2,31,0.2,20.1C0.2,9.1,9.1,0.3,20,0.3s19.8,8.9,19.8,19.8C39.8,31,30.9,39.9,20,39.9z
		 M20,2.5c-9.7,0-17.5,7.9-17.5,17.5S10.3,37.6,20,37.6s17.5-7.9,17.5-17.5S29.7,2.5,20,2.5z"/>
</g>
</svg>
