<?xml version="1.0" encoding="iso-8859-1"?>
<!-- Generator: Adobe Illustrator 19.1.0, SVG Export Plug-In . SVG Version: 6.00 Build 0)  -->
<svg version="1.1" xmlns="http://www.w3.org/2000/svg" xmlns:xlink="http://www.w3.org/1999/xlink" x="0px" y="0px"
	 viewBox="0 0 40 39.955" style="enable-background:new 0 0 40 39.955;" xml:space="preserve">
<style type="text/css">
	.st0{display:none;opacity:0.25;}
	.st1{display:inline;}
	.st2{fill:#009999;}
	.st3{fill:none;stroke:#009999;stroke-width:2;stroke-miterlimit:10;}
	.st4{fill:none;stroke:#009999;stroke-miterlimit:10;}
	.st5{enable-background:new    ;}
</style>
<g id="Backgrounds" class="st0">
	<rect x="-20" y="-20.045" class="st1" width="80" height="80"/>
</g>
<g id="Icons">
	<path id="Close" class="st2" d="M22.911,20.005l16.439-16.35c0.788-0.78,0.788-2.043,0-2.821c-0.786-0.78-2.063-0.78-2.849,0
		L20.076,17.17L3.499,0.591c-0.786-0.788-2.063-0.788-2.849,0c-0.786,0.79-0.786,2.069,0,2.857l16.565,16.567L0.59,36.549
		c-0.786,0.78-0.786,2.043,0,2.821c0.786,0.78,2.063,0.78,2.849,0L20.05,22.851l16.511,16.513c0.786,0.788,2.063,0.788,2.849,0
		c0.786-0.79,0.786-2.069,0-2.857L22.911,20.005z"/>
</g>
</svg>
