<?xml version="1.0" encoding="utf-8"?>
<!-- Generator: Adobe Illustrator 20.0.0, SVG Export Plug-In . SVG Version: 6.00 Build 0)  -->
<svg version="1.1" id="Layer_1" xmlns="http://www.w3.org/2000/svg" xmlns:xlink="http://www.w3.org/1999/xlink" x="0px" y="0px"
	 width="40px" height="40px" viewBox="0 0 40 40" enable-background="new 0 0 40 40" xml:space="preserve">
<g>
	<g>
		<g>
			<path fill="#179796" d="M20.4,29.6c-0.7,0-1.2-0.5-1.2-1.2V13.6l-2.5,2.6c-0.2,0.2-0.4,0.3-0.7,0.3c-0.5,0-1-0.4-1-1
				c0-0.3,0.1-0.5,0.3-0.7l4-4.1c0.2-0.3,0.6-0.4,0.9-0.4c0.7,0,1.3,0.5,1.3,1.3v16.8C21.6,29.1,21.1,29.6,20.4,29.6z"/>
			<path fill="#179796" d="M20.4,29.8c-0.8,0-1.3-0.6-1.3-1.3V14.1l-2.2,2.3c-0.2,0.2-0.5,0.3-0.8,0.3c-0.6,0-1.2-0.5-1.2-1.2
				c0-0.3,0.1-0.6,0.3-0.8l4-4.1c0.2-0.3,0.6-0.4,1.1-0.4c0.8,0,1.5,0.7,1.5,1.5v16.8C21.7,29.2,21.1,29.8,20.4,29.8z M19.2,13.5
				C19.2,13.5,19.3,13.5,19.2,13.5c0.1,0,0.2,0.1,0.2,0.2v14.8c0,0.6,0.4,1,1,1c0.6,0,1-0.4,1-1V11.6c0-0.6-0.5-1.1-1.2-1.1
				c-0.2,0-0.6,0.1-0.8,0.3l-4,4.1c-0.2,0.2-0.2,0.4-0.2,0.6c0,0.5,0.4,0.8,0.8,0.8c0.2,0,0.4-0.1,0.6-0.2l2.5-2.6
				C19.1,13.5,19.2,13.5,19.2,13.5z"/>
		</g>
	</g>
	<path fill="#179796" d="M19.8,39.8C8.9,39.8,0,30.9,0,20S8.9,0.2,19.8,0.2c10.9,0,19.8,8.9,19.8,19.8S30.7,39.8,19.8,39.8z
		 M19.8,2.5C10.2,2.5,2.3,10.3,2.3,20s7.9,17.5,17.5,17.5S37.4,29.7,37.4,20S29.5,2.5,19.8,2.5z"/>
</g>
</svg>
