<?xml version="1.0" encoding="iso-8859-1"?>
<!-- Generator: Adobe Illustrator 19.1.0, SVG Export Plug-In . SVG Version: 6.00 Build 0)  -->
<svg version="1.1" id="Layer_1" xmlns="http://www.w3.org/2000/svg" xmlns:xlink="http://www.w3.org/1999/xlink" x="0px" y="0px"
	 viewBox="120.668 30.004 40 40" style="enable-background:new 120.668 30.004 40 40;" xml:space="preserve">
<style type="text/css">
	.st0{fill:#009797;}
	.st1{fill:#009898;}
	.st2{fill:#009797;stroke:#009797;stroke-width:0.3403;stroke-linecap:round;stroke-linejoin:round;stroke-miterlimit:10;}
	.st3{fill:#009797;stroke:#009797;stroke-width:0.3391;stroke-linecap:round;stroke-linejoin:round;stroke-miterlimit:10;}
</style>
<g>
	<path class="st0" d="M140.589,50.163c-0.159,0-0.317-0.047-0.455-0.141l-14.387-9.844c-0.226-0.154-0.357-0.414-0.351-0.688
		c0.008-0.273,0.155-0.524,0.39-0.666l14.441-8.709c0.256-0.153,0.575-0.153,0.832,0l14.549,8.763
		c0.236,0.142,0.383,0.396,0.391,0.67c0.006,0.274-0.129,0.535-0.356,0.688l-14.604,9.789
		C140.902,50.118,140.747,50.163,140.589,50.163z M127.689,39.557l12.903,8.829l13.101-8.781l-13.051-7.859L127.689,39.557z"/>
	<path class="st0" d="M140.589,56.763c-0.159,0-0.317-0.047-0.455-0.142l-14.387-9.843c-0.227-0.156-0.357-0.414-0.351-0.688
		c0.008-0.274,0.153-0.524,0.39-0.667l5.178-3.123l0.832,1.379l-4.106,2.477l12.903,8.829l13.101-8.782l-4.117-2.479l0.83-1.379
		l5.201,3.133c0.236,0.141,0.383,0.395,0.391,0.67c0.006,0.274-0.129,0.534-0.356,0.687l-14.604,9.791
		C140.902,56.717,140.747,56.763,140.589,56.763z"/>
	<path class="st0" d="M140.589,63.47c-0.159,0-0.317-0.047-0.455-0.142l-14.387-9.844c-0.227-0.154-0.357-0.414-0.351-0.688
		c0.008-0.274,0.153-0.524,0.39-0.667l5.141-3.1l0.832,1.379l-4.069,2.452l12.903,8.83l13.101-8.781l-4.479-2.696l0.83-1.379
		l5.561,3.351c0.235,0.141,0.383,0.395,0.392,0.67c0.006,0.274-0.129,0.533-0.357,0.687l-14.604,9.791
		C140.902,63.424,140.747,63.47,140.589,63.47z"/>
	<path class="st0" d="M140.589,70.176c-0.159,0-0.317-0.047-0.455-0.141l-14.387-9.844c-0.227-0.154-0.357-0.414-0.351-0.688
		c0.008-0.273,0.153-0.523,0.39-0.667l5.379-3.244l0.832,1.379l-4.309,2.599l12.904,8.828l13.1-8.781l-4.385-2.639l0.83-1.38
		l5.469,3.293c0.235,0.142,0.383,0.395,0.392,0.671c0.006,0.274-0.129,0.533-0.357,0.687l-14.604,9.789
		C140.902,70.13,140.747,70.176,140.589,70.176z"/>
</g>
</svg>
