<?xml version="1.0" encoding="utf-8"?>
<!-- Generator: Adobe Illustrator 20.0.0, SVG Export Plug-In . SVG Version: 6.00 Build 0)  -->
<svg version="1.1" id="Layer_1" xmlns="http://www.w3.org/2000/svg" xmlns:xlink="http://www.w3.org/1999/xlink" x="0px" y="0px"
	 width="40px" height="40px" viewBox="0 0 40 40" enable-background="new 0 0 40 40" xml:space="preserve">
<g>
	<g>
		<g>
			<path fill="#179796" d="M25.4,29H14.1c-0.5,0-1.1-0.5-1.1-1.1c0-0.3,0.1-0.7,0.4-0.9c6.6-5.1,10.3-8.4,10.3-11.6
				c0-2.4-2-3.5-3.9-3.5c-1.9,0-3.4,0.7-4.6,1.8c-0.2,0.2-0.5,0.3-0.7,0.3c-0.5,0-1.1-0.5-1.1-1c0-0.3,0.1-0.5,0.3-0.7
				c1.6-1.6,3.7-2.4,6-2.4c3.1,0,6.3,1.8,6.3,5.6c0,3.9-3.9,7.4-9.2,11.5h8.4c0.6,0,1,0.5,1,1C26.5,28.5,26,29,25.4,29z"/>
			<path fill="#179796" d="M25.4,29.2H14.1c-0.6,0-1.3-0.5-1.3-1.3c0-0.4,0.2-0.8,0.5-1c6.8-5.3,10.2-8.5,10.2-11.5
				c0-2.4-2-3.3-3.8-3.3c-1.8,0-3.3,0.6-4.4,1.7c-0.2,0.2-0.5,0.3-0.8,0.3c-0.6,0-1.3-0.5-1.3-1.2c0-0.3,0.1-0.6,0.3-0.9
				c1.5-1.5,3.7-2.4,6.2-2.4c3.1,0,6.5,1.8,6.5,5.7c0,3.9-4,7.5-8.8,11.3h7.9c0.7,0,1.2,0.5,1.2,1.2C26.6,28.6,26.1,29.2,25.4,29.2z
				 M19.9,11.7c2,0,4.1,1.1,4.1,3.6c0,3.2-3.3,6.3-10.4,11.8c-0.2,0.2-0.4,0.4-0.4,0.7c0,0.6,0.5,1,0.9,1h11.3
				c0.5,0,0.8-0.4,0.8-0.9c0-0.5-0.4-0.8-0.8-0.8H17c-0.1,0-0.1,0-0.2-0.1c0-0.1,0-0.2,0.1-0.2c5-3.9,9.1-7.5,9.1-11.4
				c0-3.7-3.2-5.4-6.2-5.4c-2.3,0-4.4,0.8-5.9,2.3c-0.1,0.1-0.2,0.4-0.2,0.6c0,0.5,0.5,0.9,0.9,0.9c0.2,0,0.4-0.1,0.6-0.2
				C16.4,12.4,18,11.7,19.9,11.7z"/>
		</g>
	</g>
	<path fill="#179796" d="M20,39.5C9,39.5,0.2,30.7,0.2,19.8S9,0,20,0c10.9,0,19.8,8.9,19.8,19.8S30.9,39.5,20,39.5z M20,2.2
		c-9.7,0-17.5,7.9-17.5,17.5S10.3,37.3,20,37.3s17.5-7.9,17.5-17.5S29.6,2.2,20,2.2z"/>
</g>
</svg>
