<?xml version="1.0" encoding="iso-8859-1"?>
<!-- Generator: Adobe Illustrator 20.0.0, SVG Export Plug-In . SVG Version: 6.00 Build 0)  -->
<svg version="1.1" id="Layer_1" xmlns="http://www.w3.org/2000/svg" xmlns:xlink="http://www.w3.org/1999/xlink" x="0px" y="0px"
	 width="40px" height="40px" viewBox="-192.5 313.084 40 40" style="enable-background:new -192.5 313.084 40 40;"
	 xml:space="preserve">
<style type="text/css">
	.st0{fill:#009797;}
	.st1{fill:#009898;}
	.st2{fill:#029696;}
	.st3{fill:#009797;stroke:#009797;stroke-width:0.1864;stroke-linecap:round;stroke-linejoin:round;stroke-miterlimit:10;}
</style>
<g>
	<path class="st1" d="M-171.08,334.298l0.471-5.415c0.01-0.12-0.07-0.237-0.186-0.257c-0.118-0.028-0.238,0.034-0.283,0.147
		l-2.011,5.056c-1.121,0.233-1.968,1.229-1.968,2.42c0,1.363,1.11,2.473,2.473,2.473c1.363,0,2.474-1.109,2.474-2.473
		C-170.11,335.453-170.494,334.752-171.08,334.298z M-172.584,337.261c-0.559,0-1.013-0.454-1.013-1.013
		c0-0.56,0.454-1.014,1.013-1.014c0.559,0,1.013,0.454,1.013,1.014C-171.57,336.807-172.024,337.261-172.584,337.261z"/>
	<path class="st1" d="M-172.584,322.824c-7.402,0-13.424,6.022-13.424,13.424c0,2.4,0.641,4.648,1.749,6.601
		c0.018,0.07,0.036,0.141,0.077,0.205c0.029,0.047,0.076,0.069,0.113,0.107c1.118,1.852,2.667,3.408,4.511,4.536
		c0.057,0.068,0.124,0.129,0.207,0.175c0.044,0.023,0.093,0.02,0.14,0.035c1.958,1.118,4.216,1.766,6.627,1.766
		c5.007,0,9.375-2.761,11.683-6.835c0.001-0.002,0.003-0.002,0.003-0.004c0.001-0.002,0.001-0.004,0.002-0.005
		c1.101-1.946,1.736-4.189,1.736-6.58C-159.16,328.847-165.182,322.824-172.584,322.824z M-166.02,346.239l-0.805-1.326
		c-0.209-0.344-0.66-0.453-1.001-0.245c-0.345,0.209-0.454,0.658-0.246,1.004l0.783,1.289c-1.432,0.71-3.022,1.139-4.706,1.221
		v-1.457c0-0.403-0.327-0.729-0.73-0.729c-0.403,0-0.73,0.326-0.73,0.729v1.443c-1.622-0.119-3.152-0.56-4.532-1.262l0.677-1.232
		c0.194-0.354,0.064-0.798-0.289-0.992c-0.355-0.193-0.798-0.065-0.992,0.289l-0.66,1.204c-1.295-0.873-2.408-1.992-3.277-3.289
		l1.17-0.728c0.343-0.213,0.448-0.663,0.235-1.006c-0.213-0.342-0.664-0.446-1.006-0.233l-1.127,0.7
		c-0.707-1.399-1.144-2.953-1.25-4.599h1.349c0.403,0,0.73-0.327,0.73-0.729c0-0.403-0.327-0.73-0.73-0.73h-1.353
		c0.089-1.559,0.475-3.037,1.107-4.381l1.209,0.671c0.112,0.062,0.233,0.091,0.354,0.091c0.257,0,0.506-0.135,0.639-0.375
		c0.196-0.352,0.068-0.798-0.285-0.992l-1.217-0.675c0.866-1.376,1.996-2.565,3.33-3.489l0.745,1.252
		c0.137,0.23,0.379,0.357,0.628,0.357c0.127,0,0.256-0.033,0.372-0.102c0.347-0.206,0.461-0.654,0.255-1.001l-0.75-1.261
		c1.414-0.743,2.995-1.205,4.67-1.327v1.528c0,0.403,0.327,0.729,0.73,0.729c0.403,0,0.73-0.326,0.73-0.729v-1.543
		c1.683,0.083,3.273,0.511,4.704,1.221l-0.83,1.342c-0.211,0.344-0.104,0.793,0.238,1.005c0.12,0.074,0.253,0.108,0.384,0.108
		c0.244,0,0.483-0.122,0.622-0.346l0.857-1.388c1.348,0.888,2.507,2.039,3.401,3.382l-1.431,0.763
		c-0.355,0.189-0.49,0.632-0.3,0.988c0.131,0.245,0.384,0.386,0.645,0.386c0.116,0,0.234-0.027,0.344-0.086l1.469-0.783
		c0.711,1.416,1.145,2.989,1.24,4.655h-1.637c-0.403,0-0.73,0.327-0.73,0.73c0,0.402,0.327,0.729,0.73,0.729h1.632
		c-0.102,1.595-0.518,3.104-1.187,4.47l-1.419-0.766c-0.355-0.19-0.798-0.059-0.99,0.296c-0.191,0.354-0.059,0.798,0.296,0.989
		l1.395,0.753C-163.465,344.145-164.642,345.33-166.02,346.239z"/>
	<path class="st1" d="M-157.655,325.852c0.143,0.143,0.33,0.214,0.516,0.214c0.186,0,0.374-0.071,0.516-0.214l2.085-2.085
		c0.137-0.137,0.214-0.322,0.214-0.515c0-0.194-0.077-0.381-0.214-0.518l-4.097-4.095c-0.285-0.285-0.747-0.285-1.033,0
		l-2.083,2.084c-0.285,0.285-0.285,0.747,0,1.032l0.533,0.532l-0.841,0.841c-2.292-1.842-5.076-3.085-8.12-3.523v-1.368h1.069
		c0.403,0,0.73-0.327,0.73-0.729v-3.573c0-0.403-0.327-0.73-0.73-0.73h-7.023c-0.403,0-0.73,0.327-0.73,0.73v3.573
		c0,0.402,0.327,0.729,0.73,0.729h0.875v1.41c-2.946,0.474-5.64,1.699-7.867,3.495l-0.854-0.854l0.533-0.532
		c0.285-0.285,0.285-0.747,0-1.032l-2.083-2.084c-0.285-0.285-0.747-0.285-1.033,0l-4.097,4.095
		c-0.137,0.137-0.214,0.323-0.214,0.518c0,0.192,0.077,0.378,0.214,0.515l2.085,2.085c0.143,0.143,0.33,0.214,0.516,0.214
		c0.187,0,0.374-0.071,0.516-0.214l0.42-0.42l0.937,0.937c-2.023,2.779-3.233,6.187-3.233,9.88c0,9.283,7.552,16.836,16.835,16.836
		c9.283,0,16.836-7.553,16.836-16.836c0-3.701-1.215-7.115-3.247-9.897l0.919-0.919L-157.655,325.852z M-159.151,320.188
		l3.065,3.064l-1.052,1.051l-3.064-3.063L-159.151,320.188z M-175.403,314.664h5.562v2.113h-5.562V314.664z M-173.798,318.237h2.16
		v1.224c-0.314-0.017-0.626-0.048-0.945-0.048c-0.41,0-0.811,0.032-1.215,0.062V318.237z M-189.111,323.252l3.065-3.064l1.051,1.052
		l-3.064,3.063L-189.111,323.252z M-186.09,324.399l1.079-1.079l0.79,0.791c-0.367,0.353-0.716,0.723-1.051,1.106L-186.09,324.399z
		 M-172.584,351.371c-8.338,0-15.122-6.785-15.122-15.123c0-8.339,6.784-15.122,15.122-15.122c8.338,0,15.123,6.783,15.123,15.122
		C-157.461,344.586-164.245,351.371-172.584,351.371z M-159.91,325.201c-0.335-0.383-0.685-0.752-1.053-1.104l0.776-0.776
		l1.079,1.079L-159.91,325.201z"/>
</g>
</svg>
