<?xml version="1.0" encoding="iso-8859-1"?>
<!-- Generator: Adobe Illustrator 19.1.0, SVG Export Plug-In . SVG Version: 6.00 Build 0)  -->
<svg version="1.1" id="Layer_1" xmlns="http://www.w3.org/2000/svg" xmlns:xlink="http://www.w3.org/1999/xlink" x="0px" y="0px"
	 viewBox="120.166 90.13 40 40" style="enable-background:new 120.166 90.13 40 40;" xml:space="preserve">
<style type="text/css">
	.st0{fill:#009797;}
	.st1{fill:#009898;}
	.st2{fill:#009797;stroke:#009797;stroke-width:0.3403;stroke-linecap:round;stroke-linejoin:round;stroke-miterlimit:10;}
	.st3{fill:#009797;stroke:#009797;stroke-width:0.3391;stroke-linecap:round;stroke-linejoin:round;stroke-miterlimit:10;}
</style>
<g>
	<g>
		<g>
			<path class="st0" d="M147.896,97.681h4.662l-4.662-4.66V97.681z M154.557,99.337h-0.022h-7.465c-0.458,0-0.826-0.371-0.826-0.828
				v-7.482v-0.006c-0.002-0.457,0.368-0.828,0.826-0.828c0.23,0,0.439,0.095,0.589,0.248l7.484,7.483l0,0
				c0.323,0.322,0.323,0.848,0,1.171C154.979,99.255,154.769,99.337,154.557,99.337L154.557,99.337z"/>
		</g>
		<g>
			<path class="st0" d="M146.64,91.785h-19.907v36.688h26.911V98.789L146.64,91.785L146.64,91.785z M125.905,90.13h21.078
				c0.23,0,0.439,0.095,0.589,0.248l7.484,7.483l0,0c0.161,0.162,0.242,0.373,0.242,0.585l0,0v30.855
				c0,0.456-0.37,0.828-0.828,0.828h-28.565c-0.458,0-0.828-0.372-0.828-0.828V90.958C125.077,90.501,125.447,90.13,125.905,90.13
				L125.905,90.13z"/>
		</g>
		<g>
			<rect x="134.236" y="111.792" class="st0" width="11.58" height="1.492"/>
		</g>
		<g>
			<rect x="129.438" y="116.21" class="st0" width="21.506" height="1.492"/>
		</g>
		<g>
			<rect x="129.438" y="120.625" class="st0" width="21.506" height="1.491"/>
		</g>
	</g>
	<g>
		<path class="st0" d="M138.935,103.224c0.311,0.301,0.718,0.441,1.05,0.441l0,0c0.412-0.025,0.8-0.154,1.076-0.42
			c0.241-0.235,0.415-0.592,0.464-1.1c0.007-0.034,0.009-0.108,0.011-0.192c0.004-0.121,0.006-0.245,0.006-0.328
			c0-0.02-0.002-0.039-0.002-0.058h0.004l0,0c0.004-0.62-0.159-0.994-0.413-1.202c-0.267-0.217-0.665-0.301-1.105-0.316
			c-0.008,0-0.015,0-0.026,0l0,0h-0.012c-0.456,0.012-0.868,0.096-1.143,0.317c-0.248,0.202-0.409,0.56-0.413,1.148
			c0,0.017,0.002,0.035,0.004,0.054h-0.004l0,0c0,0.07,0.004,0.231,0.008,0.385c0.004,0.085,0.006,0.158,0.01,0.192
			C138.492,102.625,138.684,102.981,138.935,103.224z M139.977,105.023c-0.639-0.004-1.399-0.264-1.98-0.824
			c-0.466-0.447-0.817-1.085-0.898-1.928c-0.006-0.063-0.012-0.169-0.015-0.283c-0.006-0.145-0.008-0.324-0.01-0.413h-0.002
			c0-0.02,0-0.042,0.002-0.062c0.006-1.053,0.36-1.748,0.913-2.198c0.546-0.443,1.25-0.606,1.985-0.62l0,0
			c0.029,0,0.059,0,0.089,0.004c0.71,0.021,1.388,0.188,1.919,0.618c0.564,0.457,0.922,1.173,0.913,2.259l-0.675-0.001l0.68,0.004
			c0,0.021-0.002,0.043-0.005,0.062c-0.002,0.095-0.004,0.232-0.008,0.351c-0.002,0.113-0.008,0.22-0.016,0.283
			c-0.083,0.864-0.409,1.5-0.872,1.947c-0.541,0.523-1.252,0.765-1.98,0.802v0.002C140.004,105.023,139.991,105.023,139.977,105.023
			z"/>
	</g>
	<g>
		<path class="st0" d="M142.38,103.17c-0.351-0.134-0.742,0.043-0.876,0.393c-0.132,0.35,0.045,0.74,0.394,0.875
			c0.543,0.206,1.012,0.616,1.346,1.15c0.341,0.54,0.537,1.207,0.537,1.926v0.072c0,0.01-0.002,0.019-0.002,0.024h-7.591
			c0-0.007,0-0.017,0-0.024v-0.072c0-0.726,0.202-1.396,0.543-1.938c0.34-0.537,0.816-0.945,1.364-1.148
			c0.353-0.129,0.531-0.518,0.401-0.87c-0.128-0.351-0.516-0.531-0.868-0.401c-0.829,0.308-1.543,0.911-2.041,1.7
			c-0.475,0.75-0.756,1.672-0.756,2.659v0.072c0,0.357,0.132,0.691,0.345,0.939c0.234,0.272,0.568,0.441,0.94,0.441h7.736
			c0.374,0,0.705-0.169,0.941-0.441c0.213-0.248,0.347-0.582,0.347-0.939v-0.072c0-0.981-0.274-1.896-0.745-2.641
			C143.903,104.088,143.2,103.484,142.38,103.17L142.38,103.17z"/>
	</g>
</g>
</svg>
