<?xml version="1.0" encoding="iso-8859-1"?>
<!-- Generator: Adobe Illustrator 20.0.0, SVG Export Plug-In . SVG Version: 6.00 Build 0)  -->
<svg version="1.1" id="Layer_1" xmlns="http://www.w3.org/2000/svg" xmlns:xlink="http://www.w3.org/1999/xlink" x="0px" y="0px"
	 width="40px" height="40px" viewBox="82.5 258.084 40 40" style="enable-background:new 82.5 258.084 40 40;" xml:space="preserve"
	>
<style type="text/css">
	.st0{fill:#009797;}
	.st1{fill:#009898;}
	.st2{fill:#029696;}
	.st3{fill:#009797;stroke:#009797;stroke-width:0.1864;stroke-linecap:round;stroke-linejoin:round;stroke-miterlimit:10;}
</style>
<g>
	<path class="st1" d="M115.803,263.188h-5.818v-1.224c0-0.406-0.328-0.736-0.735-0.736h-2.798v-2.347
		c0-0.406-0.328-0.736-0.734-0.736h-6.666c-0.406,0-0.734,0.33-0.734,0.736v2.347h-2.799c-0.406,0-0.734,0.33-0.734,0.736v1.224
		h-6.02c-0.835,0-1.513,0.679-1.513,1.513v31.6c0,0.834,0.678,1.513,1.513,1.513h27.039c0.835,0,1.513-0.679,1.513-1.513v-31.6
		C117.315,263.866,116.638,263.188,115.803,263.188z M96.253,262.699h2.798c0.407,0,0.735-0.33,0.735-0.735v-2.348h5.194v2.348
		c0,0.405,0.33,0.735,0.736,0.735h2.798v2.67H96.253V262.699z M115.536,296.031H89.03v-31.063h5.753v1.138
		c0,0.405,0.328,0.734,0.734,0.734h13.731c0.407,0,0.735-0.329,0.735-0.734v-1.138h5.552V296.031z"/>
	<rect x="101.226" y="286.739" class="st1" width="9.726" height="1.483"/>
	<path class="st1" d="M97.999,284.994l-2.814,3.224l-1.266-1.3c-0.285-0.294-0.755-0.299-1.049-0.014
		c-0.293,0.286-0.3,0.755-0.016,1.049l1.828,1.876c0.14,0.145,0.332,0.225,0.531,0.225c0.008,0,0.014,0,0.021-0.001
		c0.207-0.005,0.402-0.097,0.538-0.253l3.344-3.83c0.27-0.308,0.238-0.777-0.07-1.046C98.737,284.653,98.268,284.686,97.999,284.994
		z"/>
	<rect x="101.226" y="280.036" class="st1" width="9.726" height="1.483"/>
	<path class="st1" d="M97.999,278.292l-2.814,3.224l-1.266-1.3c-0.285-0.294-0.755-0.299-1.049-0.015
		c-0.293,0.286-0.3,0.755-0.016,1.049l1.828,1.877c0.14,0.143,0.332,0.225,0.531,0.225c0.008,0,0.014,0,0.021-0.001
		c0.207-0.005,0.402-0.098,0.538-0.254l3.344-3.829c0.27-0.309,0.238-0.777-0.07-1.047
		C98.737,277.952,98.268,277.983,97.999,278.292z"/>
	<rect x="101.226" y="273.333" class="st1" width="9.726" height="1.483"/>
	<path class="st1" d="M97.999,271.589l-2.814,3.225l-1.266-1.301c-0.285-0.293-0.755-0.3-1.049-0.015
		c-0.293,0.286-0.3,0.755-0.016,1.049l1.828,1.878c0.14,0.143,0.332,0.224,0.531,0.224c0.008,0,0.014,0,0.021,0
		c0.207-0.006,0.402-0.099,0.538-0.254l3.344-3.831c0.27-0.308,0.238-0.777-0.07-1.046C98.737,271.247,98.269,271.28,97.999,271.589
		z"/>
	<circle class="st1" cx="102.351" cy="262.121" r="0.924"/>
</g>
</svg>
