<?xml version="1.0" encoding="iso-8859-1"?>
<!-- Generator: Adobe Illustrator 19.1.0, SVG Export Plug-In . SVG Version: 6.00 Build 0)  -->
<svg version="1.1" id="Layer_1" xmlns="http://www.w3.org/2000/svg" xmlns:xlink="http://www.w3.org/1999/xlink" x="0px" y="0px"
	 viewBox="-120.374 -29.083 40 37.917" style="enable-background:new -120.374 -29.083 40 37.917;" xml:space="preserve">
<style type="text/css">
	.st0{fill:#009797;}
	.st1{fill:#009898;}
	.st2{fill:#009797;stroke:#009797;stroke-width:0.3403;stroke-linecap:round;stroke-linejoin:round;stroke-miterlimit:10;}
	.st3{fill:#009797;stroke:#009797;stroke-width:0.3391;stroke-linecap:round;stroke-linejoin:round;stroke-miterlimit:10;}
</style>
<g>
	<path class="st0" d="M-100.389,8.834c-10.561,0-19.153-8.505-19.153-18.959c0-10.452,8.592-18.958,19.153-18.958
		c10.561,0,19.153,8.506,19.153,18.958C-81.236,0.329-89.828,8.834-100.389,8.834z M-100.389-27.155
		c-9.486,0-17.205,7.64-17.205,17.03c0,9.392,7.719,17.03,17.205,17.03c9.488,0,17.205-7.639,17.205-17.03
		C-83.184-19.515-90.901-27.155-100.389-27.155z"/>
	<g>
		<path class="st0" d="M-94.998-7.462c0.407,0.405,0.97,0.655,1.592,0.655c0.623,0,1.186-0.25,1.592-0.651
			c0.409-0.405,0.662-0.964,0.662-1.582c0-0.613-0.253-1.173-0.662-1.576c-0.409-0.404-0.972-0.654-1.592-0.654
			c-0.624,0-1.187,0.25-1.592,0.651c-0.409,0.404-0.662,0.964-0.662,1.581C-95.66-8.425-95.407-7.868-94.998-7.462z M-93.406-5.197
			c-1.071,0-2.041-0.432-2.743-1.126c-0.701-0.695-1.137-1.657-1.137-2.715c0-1.058,0.435-2.017,1.137-2.713
			c0.705-0.696,1.675-1.128,2.743-1.128c1.069,0,2.04,0.43,2.741,1.125c0.704,0.695,1.138,1.656,1.138,2.714
			c0,1.056-0.434,2.017-1.138,2.713C-91.369-5.631-92.339-5.197-93.406-5.197z"/>
	</g>
	<g>
		<path class="st0" d="M-95.525-4.527l-0.091,0.051l0,0c-0.765,0.438-1.295,0.992-1.628,1.632c-0.261,0.497-0.405,1.054-0.453,1.659
			h8.581c-0.048-0.606-0.194-1.163-0.453-1.663c-0.333-0.636-0.863-1.19-1.629-1.628h0.002l-0.096-0.055l0.807-1.387l0.098,0.056
			h0.004c1.046,0.598,1.782,1.375,2.255,2.282c0.503,0.964,0.697,2.062,0.641,3.234l-0.034,0.771h-0.774h-10.221h-0.774
			l-0.036-0.767c-0.055-1.176,0.137-2.271,0.641-3.236c0.472-0.907,1.207-1.686,2.255-2.284l0.008-0.004l0.097-0.056L-95.525-4.527z
			"/>
	</g>
	<g>
		<path class="st0" d="M-102.075-20.713c0.407,0.404,0.97,0.655,1.592,0.655c0.623,0,1.186-0.25,1.593-0.652
			c0.409-0.404,0.663-0.963,0.663-1.581c0-0.615-0.254-1.172-0.663-1.577c-0.408-0.403-0.973-0.653-1.593-0.653
			c-0.624,0-1.188,0.25-1.592,0.651c-0.409,0.403-0.663,0.962-0.663,1.58C-102.738-21.675-102.484-21.118-102.075-20.713z
			 M-100.484-18.449c-1.07,0-2.039-0.431-2.743-1.127c-0.702-0.694-1.138-1.655-1.138-2.713c0-1.056,0.436-2.016,1.138-2.71
			c0.706-0.697,1.676-1.13,2.743-1.13c1.069,0,2.039,0.43,2.743,1.126c0.702,0.695,1.137,1.655,1.137,2.713
			c0,1.058-0.436,2.016-1.137,2.712C-98.447-18.882-99.417-18.449-100.484-18.449z"/>
	</g>
	<g>
		<path class="st0" d="M-102.603-17.778l-0.091,0.051v0.001c-0.765,0.438-1.296,0.991-1.629,1.63
			c-0.259,0.498-0.405,1.056-0.453,1.659h8.581c-0.048-0.604-0.194-1.163-0.453-1.662c-0.333-0.638-0.864-1.191-1.629-1.628
			l0.003-0.001l-0.095-0.053l0.809-1.389l0.095,0.055h0.004c1.046,0.597,1.782,1.374,2.256,2.28
			c0.502,0.966,0.696,2.062,0.643,3.234l-0.036,0.77h-0.774h-10.223h-0.772l-0.036-0.767c-0.058-1.175,0.137-2.271,0.639-3.235
			c0.473-0.907,1.209-1.684,2.257-2.283l0.006-0.003l0.097-0.056L-102.603-17.778z"/>
	</g>
	<g>
		<path class="st0" d="M-109.154-7.462c0.407,0.405,0.972,0.655,1.593,0.655c0.623,0,1.186-0.25,1.592-0.651
			c0.409-0.405,0.662-0.964,0.662-1.582c0-0.613-0.253-1.173-0.66-1.576c-0.409-0.404-0.972-0.654-1.594-0.654
			c-0.623,0-1.188,0.25-1.593,0.651c-0.409,0.404-0.663,0.964-0.663,1.581C-109.816-8.425-109.563-7.868-109.154-7.462z
			 M-107.561-5.197c-1.069,0-2.04-0.432-2.741-1.126c-0.704-0.695-1.138-1.657-1.138-2.715c0-1.058,0.434-2.017,1.136-2.713
			c0.706-0.696,1.676-1.128,2.743-1.128c1.071,0,2.041,0.43,2.742,1.125c0.702,0.695,1.137,1.656,1.137,2.714
			c0,1.056-0.435,2.017-1.137,2.713C-105.524-5.63-106.493-5.197-107.561-5.197z"/>
	</g>
	<g>
		<path class="st0" d="M-109.681-4.527l-0.091,0.051l0,0c-0.765,0.438-1.295,0.992-1.629,1.632
			c-0.259,0.497-0.403,1.054-0.451,1.659h8.581c-0.05-0.606-0.194-1.163-0.455-1.663c-0.332-0.636-0.862-1.19-1.627-1.628l0,0
			l-0.093-0.055l0.807-1.387l0.097,0.056h0.002c1.048,0.598,1.784,1.375,2.256,2.282c0.504,0.964,0.696,2.062,0.642,3.234
			l-0.034,0.771h-0.776h-10.221h-0.772l-0.037-0.767c-0.056-1.176,0.138-2.272,0.639-3.237c0.474-0.908,1.21-1.686,2.258-2.284
			l0.005-0.004l0.098-0.055L-109.681-4.527z"/>
	</g>
</g>
</svg>
