<?xml version="1.0" encoding="iso-8859-1"?>
<!-- Generator: Adobe Illustrator 19.1.0, SVG Export Plug-In . SVG Version: 6.00 Build 0)  -->
<svg version="1.1" id="Layer_1" xmlns="http://www.w3.org/2000/svg" xmlns:xlink="http://www.w3.org/1999/xlink" x="0px" y="0px"
	 viewBox="-120.374 -150.374 40 40" style="enable-background:new -120.374 -150.374 40 40;" xml:space="preserve">
<style type="text/css">
	.st0{fill:#009797;}
	.st1{fill:#009898;}
	.st2{fill:#009797;stroke:#009797;stroke-width:0.3403;stroke-linecap:round;stroke-linejoin:round;stroke-miterlimit:10;}
	.st3{fill:#009797;stroke:#009797;stroke-width:0.3391;stroke-linecap:round;stroke-linejoin:round;stroke-miterlimit:10;}
</style>
<g>
	<g>
		<path class="st0" d="M-94.747-147.694c-0.828,0.83-1.344,1.975-1.344,3.241c0,1.268,0.516,2.415,1.344,3.245
			c0.83,0.828,1.976,1.343,3.24,1.343v-0.004c1.266,0,2.41-0.514,3.24-1.344c0.83-0.829,1.344-1.974,1.344-3.24
			c0-1.266-0.514-2.411-1.344-3.241c-0.83-0.83-1.975-1.343-3.24-1.343c-1.27,0-2.412,0.512-3.24,1.339V-147.694z M-97.429-144.453
			c0-1.636,0.664-3.117,1.733-4.189l0.003,0.002c1.073-1.074,2.557-1.737,4.188-1.737c1.637,0,3.118,0.663,4.188,1.734
			c1.069,1.072,1.735,2.554,1.735,4.189c0,1.637-0.666,3.117-1.735,4.188c-1.07,1.074-2.554,1.736-4.188,1.736v-0.003
			c-1.636,0-3.117-0.665-4.189-1.736C-96.765-141.341-97.429-142.819-97.429-144.453z"/>
	</g>
	<g>
		<path class="st0" d="M-103.773-138.627c-0.84,0.841-1.359,2.002-1.359,3.284c0,1.286,0.52,2.447,1.359,3.288
			c0.842,0.84,2.002,1.36,3.285,1.36v-0.002c1.283,0,2.443-0.52,3.285-1.361c0.842-0.842,1.361-2.001,1.361-3.285
			c0-1.282-0.52-2.443-1.361-3.284c-0.84-0.841-2.002-1.361-3.285-1.361c-1.285,0-2.445,0.521-3.285,1.357V-138.627z
			 M-106.41-135.343c0-1.636,0.662-3.115,1.732-4.188l0.002,0.001c1.074-1.073,2.555-1.736,4.188-1.736
			c1.637,0,3.117,0.663,4.189,1.735c1.072,1.073,1.734,2.553,1.734,4.188c0,1.638-0.662,3.117-1.734,4.189
			c-1.072,1.074-2.553,1.736-4.189,1.736v-0.002c-1.635,0-3.117-0.666-4.189-1.736C-105.747-132.229-106.41-133.709-106.41-135.343z
			"/>
	</g>
	<g>
		<path class="st0" d="M-100.527-132.418l-0.004-0.64c-0.525-0.008-0.922-0.139-1.189-0.393c-0.268-0.252-0.408-0.63-0.42-1.13
			l1.047-0.007c0.006,0.224,0.053,0.388,0.139,0.495c0.086,0.105,0.225,0.165,0.414,0.177l-0.01-1.147
			c-0.52-0.155-0.9-0.347-1.139-0.577c-0.239-0.23-0.359-0.521-0.361-0.872c-0.004-0.393,0.123-0.709,0.387-0.944
			c0.26-0.237,0.625-0.371,1.092-0.397l-0.004-0.379l0.406-0.003l0.004,0.377c0.461,0.004,0.822,0.121,1.079,0.353
			c0.258,0.234,0.391,0.562,0.401,0.985l-1.041,0.009c0-0.163-0.037-0.287-0.109-0.371c-0.074-0.087-0.182-0.132-0.322-0.137
			l0.01,1.027c0.566,0.192,0.969,0.406,1.203,0.644c0.236,0.233,0.355,0.539,0.357,0.911c0.004,0.381-0.136,0.695-0.412,0.946
			c-0.279,0.251-0.652,0.393-1.125,0.43l0.006,0.641L-100.527-132.418z M-100.132-133.918c0.141-0.017,0.25-0.066,0.331-0.148
			c0.08-0.083,0.119-0.186,0.119-0.309c-0.002-0.129-0.039-0.236-0.111-0.323c-0.074-0.089-0.191-0.163-0.348-0.228
			L-100.132-133.918z M-100.558-136.136l-0.006-0.88c-0.141,0.008-0.248,0.047-0.326,0.118c-0.074,0.074-0.113,0.17-0.113,0.289
			c0.002,0.106,0.035,0.197,0.102,0.268C-100.835-136.268-100.72-136.199-100.558-136.136z"/>
	</g>
	<g>
		<path class="st0" d="M-91.669-141.543l-0.004-0.64c-0.525-0.009-0.923-0.14-1.189-0.393c-0.266-0.252-0.405-0.63-0.42-1.13
			l1.045-0.01c0.007,0.227,0.056,0.391,0.142,0.496c0.089,0.107,0.226,0.166,0.414,0.179l-0.01-1.147
			c-0.521-0.155-0.9-0.348-1.14-0.577c-0.24-0.231-0.358-0.521-0.365-0.872c-0.002-0.395,0.128-0.708,0.39-0.945
			c0.263-0.236,0.625-0.37,1.095-0.399l-0.005-0.376l0.406-0.005l0.004,0.378c0.461,0.003,0.819,0.12,1.078,0.353
			c0.258,0.233,0.392,0.562,0.399,0.986l-1.039,0.008c0-0.163-0.039-0.287-0.11-0.371c-0.072-0.087-0.181-0.132-0.319-0.137
			l0.008,1.027c0.567,0.192,0.971,0.406,1.205,0.641c0.235,0.236,0.354,0.539,0.357,0.914c0.004,0.38-0.136,0.695-0.414,0.946
			c-0.276,0.25-0.651,0.394-1.125,0.43l0.008,0.641L-91.669-141.543z M-91.273-143.044c0.139-0.016,0.25-0.065,0.33-0.148
			c0.079-0.082,0.12-0.186,0.12-0.309c-0.002-0.128-0.041-0.235-0.112-0.322c-0.074-0.089-0.188-0.163-0.347-0.229L-91.273-143.044z
			 M-91.702-145.262l-0.006-0.88c-0.141,0.008-0.248,0.048-0.324,0.119c-0.075,0.074-0.114,0.17-0.112,0.288
			c0,0.107,0.035,0.196,0.102,0.269C-91.976-145.393-91.862-145.326-91.702-145.262z"/>
	</g>
	<g>
		<path class="st0" d="M-109.4-111.732h-10.102c-0.481,0-0.872-0.373-0.872-0.834v-15.281c0-0.461,0.391-0.834,0.872-0.834h10.1
			c0.481,0,0.873,0.373,0.873,0.834v15.281C-108.528-112.105-108.919-111.732-109.4-111.732z M-118.629-113.402h8.357v-13.609
			h-8.357V-113.402z"/>
	</g>
	<path class="st0" d="M-88.084-112.891c0.678-0.459,1.238-0.9,1.718-1.361c0.54-0.514,1.084-1.027,1.631-1.539l0.199-0.189
		c0.933-0.873,1.837-1.73,2.669-2.608c0.15-0.156,0.298-0.315,0.435-0.479c0.038-0.043,0.077-0.093,0.109-0.138
		c0.004-0.006,0.021-0.028,0.026-0.034c0.659-0.675,1.023-1.554,1.023-2.478c0-2.017-1.716-3.656-3.822-3.656
		c-0.805,0-1.769,0.48-2.959,1.461c-0.581,0.479-1.108,0.99-1.695,1.56l-0.049,0.047c-0.17,0.164-0.565,0.551-0.781,0.707
		c-0.031,0.02-0.062,0.027-0.105,0.021c-0.037-0.006-0.066-0.026-0.088-0.06c-1.905-3.038-6.363-4.315-8.85-4.807
		c-1.675-0.328-3.398-0.506-5.123-0.531c-0.125-0.002-0.251-0.002-0.379-0.002c-1.033,0-3.641,0.058-4.483,0.168v1.802
		c1.034-0.147,3.756-0.226,4.824-0.226c2.471,0,4.784,0.354,6.878,1.051c2.083,0.693,3.845,1.716,5.095,2.953
		c0.319,0.312,0.492,0.74,0.492,1.209c0,1.002-0.849,1.822-1.897,1.826l-0.067-0.01c-0.022-0.006-0.039-0.008-0.057-0.008h-0.127
		c-0.021,0.01-0.047,0.014-0.062,0.014c-0.629-0.045-1.282-0.201-1.837-0.35c-1.141-0.305-2.262-0.699-3.304-1.078l-0.087-0.033
		l-0.688,1.719l0.09,0.033c1.065,0.389,2.328,0.832,3.636,1.162c1.003,0.256,1.797,0.381,2.498,0.396l0.164,0.004
		c0.019-0.012,0.037-0.021,0.06-0.021c1.572-0.088,2.95-1.119,3.427-2.566c0.128-0.205,0.263-0.379,0.356-0.493
		c0.17-0.209,0.355-0.427,0.552-0.642c0.435-0.481,0.927-0.981,1.463-1.481c0.646-0.599,2.246-1.986,3.105-1.986
		c1.04,0,1.892,0.818,1.897,1.824c0.002,0.479-0.186,0.979-0.502,1.332c-0.193,0.211-0.4,0.414-0.602,0.61l-0.026,0.025
		c-0.318,0.314-0.64,0.627-0.964,0.939c-0.526,0.506-1.058,1.014-1.588,1.514l-0.109,0.104c-0.526,0.494-1.056,0.988-1.572,1.488
		c-0.261,0.248-0.529,0.504-0.771,0.766l-0.045,0.041c-0.249,0.207-0.479,0.382-0.702,0.529c-1.883,1.266-4.299,1.963-6.806,1.963
		c-2.507,0-4.88-0.688-6.86-1.992l-0.033-0.019c-0.015-0.004-0.028-0.008-0.039-0.014c-1.35-0.775-4.434-1.246-5.79-1.365v1.832
		c1.008,0.117,3.698,0.504,4.813,1.186c2.37,1.447,5.105,2.213,7.909,2.213c2.818,0,5.396-0.752,7.66-2.233
		c0.011-0.008,0.021-0.015,0.037-0.019l0.064-0.049C-88.112-112.869-88.097-112.881-88.084-112.891z"/>
</g>
</svg>
