<?xml version="1.0" encoding="iso-8859-1"?>
<!-- Generator: Adobe Illustrator 19.1.0, SVG Export Plug-In . SVG Version: 6.00 Build 0)  -->
<svg version="1.1" id="Layer_1" xmlns="http://www.w3.org/2000/svg" xmlns:xlink="http://www.w3.org/1999/xlink" x="0px" y="0px"
	 viewBox="-58.5 -30.122 40 40" style="enable-background:new -58.5 -30.122 40 40;" xml:space="preserve">
<style type="text/css">
	.st0{fill:#009797;}
	.st1{fill:#009898;}
	.st2{fill:#009797;stroke:#009797;stroke-width:0.3403;stroke-linecap:round;stroke-linejoin:round;stroke-miterlimit:10;}
	.st3{fill:#009797;stroke:#009797;stroke-width:0.3391;stroke-linecap:round;stroke-linejoin:round;stroke-miterlimit:10;}
</style>
<g>
	<g>
		<path class="st0" d="M-33.867-22.222h4.613l-4.613-4.611V-22.222z M-27.276-20.583h-0.022h-7.387
			c-0.453,0-0.816-0.367-0.816-0.819v-7.403v-0.007c-0.002-0.452,0.363-0.819,0.816-0.819c0.229,0,0.436,0.094,0.585,0.246
			l7.403,7.404h0.002c0.318,0.32,0.318,0.839,0,1.159C-26.856-20.663-27.065-20.583-27.276-20.583L-27.276-20.583z"/>
	</g>
	<g>
		<g>
			<polygon class="st0" points="-29.743,-1.96 -29.743,1.347 -26.423,1.347 -26.423,2.849 -29.743,2.849 -29.743,6.146 
				-31.246,6.146 -31.246,2.849 -34.53,2.849 -34.53,1.347 -31.246,1.347 -31.246,-1.96 			"/>
		</g>
		<g>
			<path class="st0" d="M-36.089-3.518c1.438-1.435,3.422-2.324,5.614-2.324c2.19,0,4.175,0.891,5.612,2.327
				c1.438,1.434,2.324,3.419,2.324,5.608c0,2.192-0.889,4.178-2.324,5.612c-1.438,1.442-3.422,2.333-5.612,2.333
				c-2.194,0-4.18-0.891-5.616-2.329c-1.438-1.435-2.326-3.422-2.326-5.616C-38.418-0.094-37.53-2.081-36.089-3.518z M-30.475-4.342
				c-1.78,0-3.394,0.723-4.558,1.889c-1.164,1.161-1.885,2.77-1.885,4.549s0.721,3.39,1.887,4.555
				c1.166,1.166,2.777,1.889,4.556,1.889c1.777,0,3.39-0.72,4.55-1.886c1.166-1.164,1.887-2.775,1.887-4.558
				c0-1.775-0.723-3.386-1.887-4.549C-27.087-3.62-28.7-4.342-30.475-4.342z"/>
		</g>
	</g>
	<path class="st0" d="M-38.813,4.616h-13.943v-33.1h17.731l6.93,6.93v14.62c0.571,0.156,1.12,0.365,1.639,0.627v-15.585
		c0-0.21-0.08-0.419-0.237-0.58h-0.002l-7.404-7.403c-0.149-0.152-0.358-0.246-0.585-0.246h-18.891c-0.45,0-0.819,0.367-0.819,0.819
		V5.439c0,0.451,0.368,0.818,0.819,0.818h15.541C-38.347,5.741-38.61,5.192-38.813,4.616z"/>
</g>
</svg>
