<?xml version="1.0" encoding="iso-8859-1"?>
<!-- Generator: Adobe Illustrator 19.1.0, SVG Export Plug-In . SVG Version: 6.00 Build 0)  -->
<svg version="1.1" xmlns="http://www.w3.org/2000/svg" xmlns:xlink="http://www.w3.org/1999/xlink" x="0px" y="0px"
	 viewBox="0 0 40 26.041" style="enable-background:new 0 0 40 26.041;" xml:space="preserve">
<style type="text/css">
	.st0{display:none;opacity:0.25;}
	.st1{display:inline;}
	.st2{fill:#009999;}
	.st3{fill:none;stroke:#009999;stroke-width:2;stroke-miterlimit:10;}
	.st4{fill:none;stroke:#009999;stroke-miterlimit:10;}
	.st5{enable-background:new    ;}
</style>
<g id="Backgrounds" class="st0">
	<rect x="-20" y="-20" class="st1" width="80" height="80"/>
</g>
<g id="Icons">
	<path class="st2" d="M38.125,4.165H37.5V3.646c0-0.172-0.071-0.336-0.196-0.454C36.137,2.088,32.781,0,28.436,0
		C24.517,0,21.43,1.678,20,2.821C18.569,1.678,15.481,0,11.563,0c-4.344,0-7.7,2.088-8.868,3.192C2.571,3.31,2.5,3.474,2.5,3.646
		v0.519H1.875C0.841,4.165,0,5.006,0,6.04v18.125c0,1.034,0.841,1.875,1.875,1.875h36.25c1.034,0,1.875-0.841,1.875-1.875V6.04
		C40,5.006,39.159,4.165,38.125,4.165z M3.75,3.927C4.804,3.044,7.737,1.25,11.563,1.25c3.847,0,6.766,1.792,7.812,2.673v18.589
		c-2.275-1.055-5.348-1.67-8.461-1.67c-2.909,0-5.357,0.454-7.164,1.322V3.927z M20.625,3.923c1.045-0.882,3.964-2.673,7.811-2.673
		c3.826,0,6.759,1.794,7.814,2.677v18.237c-1.806-0.867-4.254-1.322-7.164-1.322c-3.113,0-6.186,0.615-8.461,1.671V3.923z
		 M38.75,24.166c0,0.345-0.28,0.625-0.625,0.625H1.875c-0.345,0-0.625-0.28-0.625-0.625V6.04c0-0.345,0.28-0.625,0.625-0.625H2.5
		v17.816c0,0.23,0.126,0.441,0.329,0.551c0.113,0.061,0.24,0.081,0.363,0.067l0,0.004c0.043-0.005,4.338-0.468,8.37-0.468
		c4.008,0,7.659,0.762,7.702,0.77c0,0,0.223,0.032,0.736,0.032c0.512,0,0.698-0.029,0.735-0.036c0,0,3.694-0.765,7.703-0.765
		c4.031,0,8.327,0.462,8.37,0.467l0-0.004c0.124,0.013,0.251-0.006,0.364-0.067c0.202-0.109,0.329-0.319,0.329-0.55V5.415h0.625
		c0.345,0,0.625,0.28,0.625,0.625L38.75,24.166L38.75,24.166z"/>
</g>
</svg>
