<?xml version="1.0" encoding="iso-8859-1"?>
<!-- Generator: Adobe Illustrator 19.1.0, SVG Export Plug-In . SVG Version: 6.00 Build 0)  -->
<svg version="1.1" id="Layer_1" xmlns="http://www.w3.org/2000/svg" xmlns:xlink="http://www.w3.org/1999/xlink" x="0px" y="0px"
	 viewBox="-180.5 -150.374 40 40" style="enable-background:new -180.5 -150.374 40 40;" xml:space="preserve">
<style type="text/css">
	.st0{fill:#009797;}
	.st1{fill:#009898;}
	.st2{fill:#009797;stroke:#009797;stroke-width:0.3403;stroke-linecap:round;stroke-linejoin:round;stroke-miterlimit:10;}
	.st3{fill:#009797;stroke:#009797;stroke-width:0.3391;stroke-linecap:round;stroke-linejoin:round;stroke-miterlimit:10;}
</style>
<g>
	<path class="st0" d="M-150.755-115.939c-0.128,0-0.258-0.027-0.376-0.084l-3.192-1.469c-0.215-0.098-0.385-0.275-0.474-0.499
		l-1.448-3.657l-1.355,0.906c-0.227,0.15-0.509,0.193-0.77,0.113c-0.263-0.081-0.474-0.275-0.578-0.53l-0.834-2.011l-2.379-1.232
		c-1.587,0.295-3.396,0.739-3.75,0.981c-0.647,0.538-2.695,2.253-2.695,2.253c-0.131,0.108-0.291,0.18-0.459,0.201l-2.701,0.369
		c-0.656,0.973-1.61,1.519-2.679,1.519c-0.342,0-0.579-0.058-0.644-0.073c-1.644-0.582-1.731-2.75-1.71-3.498
		c-0.589-1.531-3.471-10.227-3.708-11.433c-0.369-1.876,1.762-2.98,2.006-3.1l5.27-2.505l0.62-2.741
		c0.105-0.46,0.533-0.773,0.998-0.714l1.055,0.123l2.455-3.197c0.17-0.223,0.432-0.355,0.711-0.359c0.003,0,0.007,0,0.011,0
		c0.275,0,0.533,0.125,0.708,0.339l1.127,1.394l0.358-1.247c0.04-0.135,0.107-0.259,0.199-0.363l2.229-2.508
		c0.208-0.232,0.516-0.341,0.819-0.296l5.122,0.795c0.279,0.044,0.523,0.214,0.66,0.464c0.139,0.25,0.156,0.55,0.047,0.813
		l-0.883,2.153l3.934,2.107l0.552-1.06l-0.211-0.812c-0.042-0.16-0.04-0.327,0.004-0.486l1.204-4.405
		c0.105-0.391,0.449-0.666,0.848-0.681c0.403-0.043,0.762,0.234,0.897,0.615l1.261,3.564l0.878,0.446
		c0.246,0.125,0.426,0.357,0.482,0.631l0.959,4.402l1.99,1.693c0.072,0.064,0.137,0.14,0.189,0.224
		c3.592,5.89,3.529,6.645,3.507,6.93c-0.013,0.171-0.011,0.563-0.011,1.069c0,2.986-0.085,5.938-0.525,6.733
		c-0.541,0.978-3.559,6.105-3.687,6.323c-0.124,0.21-0.327,0.363-0.561,0.425l-5.242,1.346
		C-150.605-115.949-150.68-115.939-150.755-115.939z M-153.236-119.031l2.566,1.18l4.562-1.172c0.691-1.176,3.017-5.133,3.469-5.949
		c0.29-0.573,0.29-4.816,0.29-5.822c0-0.496,0.002-0.896,0.011-1.125c-0.181-0.657-1.74-3.443-3.154-5.768l-2.115-1.8
		c-0.154-0.132-0.264-0.313-0.309-0.513l-0.93-4.278l-0.812-0.414c-0.211-0.107-0.373-0.292-0.451-0.517l-0.414-1.164l-0.367,1.346
		l0.238,0.918c0.059,0.226,0.029,0.466-0.078,0.671l-1.145,2.203c-0.232,0.454-0.789,0.63-1.236,0.388l-5.481-2.937
		c-0.418-0.224-0.599-0.736-0.418-1.18l0.755-1.839l-3.476-0.54l-1.758,1.978l-0.785,2.732c-0.094,0.332-0.362,0.583-0.695,0.651
		c-0.333,0.068-0.676-0.055-0.891-0.32l-1.504-1.856l-2.067,2.694c-0.196,0.256-0.504,0.396-0.827,0.352l-0.753-0.088l-0.538,2.372
		c-0.063,0.278-0.25,0.512-0.505,0.633l-5.663,2.692c-0.45,0.226-1.058,0.742-0.996,1.055c0.164,0.833,2.351,7.834,3.69,11.306
		c0.05,0.129,0.071,0.27,0.06,0.412c-0.052,0.705,0.107,1.631,0.383,1.789c0.021-0.002,0.068,0.004,0.134,0.004
		c0.539,0,0.982-0.322,1.317-0.959c0.138-0.264,0.394-0.443,0.685-0.483l2.875-0.392c0.533-0.445,1.975-1.652,2.511-2.099
		c0.738-0.612,3.375-1.151,4.882-1.42c0.194-0.035,0.395-0.004,0.572,0.088l2.953,1.528c0.193,0.101,0.345,0.267,0.43,0.47
		l0.536,1.292l1.368-0.914c0.229-0.152,0.515-0.193,0.775-0.109c0.264,0.084,0.475,0.279,0.576,0.541L-153.236-119.031z"/>
	<path class="st0" d="M-149.303-110.538c-0.296,0-0.566-0.185-0.675-0.47l-1.213-3.186c-0.08-0.214-0.061-0.449,0.058-0.646
		c0.114-0.194,0.313-0.322,0.536-0.35l3.137-0.361c0.223-0.024,0.446,0.056,0.604,0.219c0.156,0.164,0.227,0.395,0.195,0.619
		l-0.5,3.402c-0.051,0.334-0.314,0.59-0.646,0.623l-1.425,0.144C-149.254-110.538-149.279-110.538-149.303-110.538z
		 M-149.503-113.836l0.676,1.777l0.318-0.033l0.277-1.893L-149.503-113.836z"/>
</g>
</svg>
