<?xml version="1.0" encoding="iso-8859-1"?>
<!-- Generator: Adobe Illustrator 19.1.0, SVG Export Plug-In . SVG Version: 6.00 Build 0)  -->
<svg version="1.1" id="Layer_1" xmlns="http://www.w3.org/2000/svg" xmlns:xlink="http://www.w3.org/1999/xlink" x="0px" y="0px"
	 viewBox="-0.122 -209.333 40 37.5" style="enable-background:new -0.122 -209.333 40 37.5;" xml:space="preserve">
<style type="text/css">
	.st0{fill:#009797;}
	.st1{fill:#009898;}
	.st2{fill:#009797;stroke:#009797;stroke-width:0.3403;stroke-linecap:round;stroke-linejoin:round;stroke-miterlimit:10;}
	.st3{fill:#009797;stroke:#009797;stroke-width:0.3391;stroke-linecap:round;stroke-linejoin:round;stroke-miterlimit:10;}
</style>
<g>
	<g>
		<rect x="9.615" y="-178.145" class="st0" width="20.315" height="1.408"/>
	</g>
	<g>
		<path class="st0" d="M29.49-171.743H10.311c-0.425,0-0.786-0.317-0.838-0.74l-1.903-15.456c-3.81-1.036-6.444-4.465-6.444-8.444
			c0-4.828,3.926-8.754,8.752-8.754c0.808,0,1.607,0.11,2.38,0.328c1.548-2.775,4.443-4.483,7.639-4.483
			c3.199,0,6.095,1.708,7.643,4.483c0.771-0.218,1.572-0.328,2.381-0.328c4.826,0,8.753,3.926,8.753,8.754
			c0,3.979-2.634,7.408-6.441,8.444l-1.906,15.455C30.276-172.06,29.915-171.743,29.49-171.743z M11.059-173.43h17.685l1.887-15.294
			c0.044-0.35,0.3-0.637,0.646-0.718l0.271-0.062c3.203-0.754,5.44-3.581,5.44-6.878c0-3.896-3.168-7.067-7.064-7.067
			c-0.757,0-1.5,0.118-2.209,0.352l-0.327,0.108c-0.399,0.133-0.83-0.047-1.019-0.419l-0.155-0.308
			c-1.211-2.399-3.63-3.888-6.312-3.888c-2.681,0-5.1,1.49-6.311,3.888l-0.153,0.307c-0.189,0.374-0.623,0.554-1.018,0.423
			l-0.33-0.109c-0.71-0.234-1.454-0.353-2.208-0.353c-3.894,0-7.064,3.17-7.064,7.067c0,3.296,2.238,6.125,5.444,6.878l0.269,0.062
			c0.344,0.081,0.602,0.368,0.646,0.72L11.059-173.43z"/>
	</g>
</g>
</svg>
