<?xml version="1.0" encoding="iso-8859-1"?>
<!-- Generator: Adobe Illustrator 19.1.0, SVG Export Plug-In . SVG Version: 6.00 Build 0)  -->
<svg version="1.1" xmlns="http://www.w3.org/2000/svg" xmlns:xlink="http://www.w3.org/1999/xlink" x="0px" y="0px"
	 viewBox="0 0 40 32.232" style="enable-background:new 0 0 40 32.232;" xml:space="preserve">
<style type="text/css">
	.st0{display:none;opacity:0.25;}
	.st1{display:inline;}
	.st2{fill:#009999;}
	.st3{fill:#2B2B2B;}
	.st4{fill:#DDDDDD;}
	.st5{fill:#FFFFFF;}
</style>
<g id="Backgrounds" class="st0">
	<rect x="-20" y="-23.884" class="st1" width="80" height="80"/>
</g>
<g id="Icons">
	<path id="speech-circle-wide" class="st2" d="M4.682,32.232c-0.38,0-1.388,0-1.748-0.8c-0.521-1.155,0.222-1.78,0.622-2.116
		c0.115-0.097,0.251-0.209,0.399-0.359c1.106-1.114,1.658-2.326,1.916-3.084C2.13,23.048,0,19.173,0,15.149C0,6.796,8.972,0,20,0
		c5.291,0,10.273,1.542,14.034,4.343C37.881,7.208,40,11.046,40,15.15c0,8.351-8.972,15.146-20,15.146
		c-2.657,0-5.234-0.388-7.671-1.155C9.884,31.383,6.406,32.232,4.682,32.232z M20,1.996c-9.926,0-18.003,5.901-18.003,13.153
		c0,3.618,1.988,6.995,5.596,9.509c0.334,0.232,0.493,0.644,0.402,1.04c-0.173,0.76-0.75,2.675-2.426,4.462
		c1.692-0.257,4.189-1.18,5.769-2.845c0.269-0.283,0.679-0.382,1.048-0.257c2.4,0.824,4.96,1.241,7.612,1.241
		c9.927,0,18.003-5.898,18.003-13.149c0-3.457-1.832-6.726-5.162-9.206C29.423,3.399,24.863,1.996,20,1.996z"/>
</g>
</svg>
