<?xml version="1.0" encoding="iso-8859-1"?>
<!-- Generator: Adobe Illustrator 19.1.0, SVG Export Plug-In . SVG Version: 6.00 Build 0)  -->
<svg version="1.1" id="Layer_1" xmlns="http://www.w3.org/2000/svg" xmlns:xlink="http://www.w3.org/1999/xlink" x="0px" y="0px"
	 viewBox="-180.5 32.334 40 36.333" style="enable-background:new -180.5 32.334 40 36.333;" xml:space="preserve">
<style type="text/css">
	.st0{fill:#009797;}
	.st1{fill:#009898;}
	.st2{fill:#009797;stroke:#009797;stroke-width:0.3403;stroke-linecap:round;stroke-linejoin:round;stroke-miterlimit:10;}
	.st3{fill:#009797;stroke:#009797;stroke-width:0.3391;stroke-linecap:round;stroke-linejoin:round;stroke-miterlimit:10;}
</style>
<path class="st0" d="M-143.604,32.344h-8.39c-0.866,0-1.617,0.599-1.819,1.432c-0.155,0.029-0.294,0.107-0.411,0.172
	c-0.057,0.032-0.124,0.069-0.172,0.086c-0.029-0.038-0.066-0.086-0.104-0.141c-0.28-0.377-0.801-1.082-1.812-1.49l-0.142-0.059
	c-0.016-0.006-0.031-0.011-0.047-0.011h-0.417c-1.17-0.002-5.984-0.015-10.401-0.015c-3.004,0-4.85,0.004-5.641,0.015
	c-1.675,0.024-2.549,0.764-2.989,1.381c-0.938,1.319-0.803,2.764-0.717,3.269c-0.735,0.71-1.151,1.922-1.205,3.512
	c-0.023,0.625,0.112,1.086,0.325,1.568c-0.566,0.547-1.293,1.71-1.376,3.087c-0.074,1.174,0.241,2.009,0.536,2.52
	c-0.389,0.517-0.833,1.366-0.86,2.572c-0.072,3.504,3.307,4.679,5.112,4.81h5.477c0.106,0.314-0.036,0.647-0.134,0.826
	c-0.002,0.004-0.004,0.007-0.005,0.011c-0.172,0.208-1.844,2.296-2.996,5.72c-1.343,3.976,2.18,6.812,2.229,6.851l0.209,0.123
	c0.086,0.033,0.543,0.209,1.132,0.209c0.499,0,0.958-0.123,1.367-0.363c0.872-0.516,1.399-1.503,1.569-2.935
	c0.432-3.718,3.923-6.556,4.319-6.867l0.128-0.099c0.123-0.097,0.223-0.176,0.294-0.24c0.823-0.712,1.635-2.409,2.287-3.773
	c0.095-0.201,0.189-0.396,0.278-0.579c0.456-0.938,1.712-2.432,2.333-2.98c0.437-0.011,1.221-0.024,1.786-0.027
	c0.274,0.765,0.961,1.549,1.752,1.549h8.388c1.036,0,1.875-0.841,1.875-1.875l0.118-16.38
	C-141.729,33.184-142.57,32.344-143.604,32.344z M-143.722,50.649h-8.39c-0.026,0-0.048-0.021-0.048-0.049l0.118-16.382
	c0-0.028,0.023-0.05,0.049-0.05h8.389c0.028,0,0.049,0.021,0.049,0.05l-0.118,16.382C-143.674,50.628-143.693,50.649-143.722,50.649
	z M-170.064,62.19c0.95-2.821,2.313-4.683,2.723-5.207c0.422-0.589,0.923-1.906,0.126-3.102c-0.398-0.601-1.052-0.665-1.312-0.665
	c-0.065,0-0.129,0.004-0.176,0.01l-5.36,0.003c-0.14-0.011-3.413-0.296-3.358-2.95c0.022-1.178,0.681-1.745,0.754-1.805l0.783-0.577
	c0.03-0.021,0.047-0.055,0.05-0.091c0.002-0.036-0.012-0.071-0.039-0.095l-0.721-0.665c-0.005-0.005-0.588-0.538-0.511-1.787
	c0.085-1.394,1.144-2.115,1.142-2.115l1.145-0.478c0.038-0.017,0.065-0.051,0.071-0.093c0.007-0.04-0.008-0.082-0.038-0.109
	l-0.91-0.807c-0.071-0.079-0.417-0.506-0.352-1.211c0.041-0.424,0.234-1.849,0.929-2.396l0.883-0.337
	c0.04-0.016,0.07-0.051,0.076-0.094c0.007-0.042-0.008-0.085-0.04-0.111l-0.604-0.513c-0.134-0.448-0.168-1.515,0.337-2.225
	c0.287-0.402,0.785-0.603,1.525-0.611c0.805-0.012,2.669-0.017,5.542-0.017c3.879,0,8.497,0.011,10.136,0.015h0.419
	c0.458,0.195,0.925,0.434,1.095,0.561l0.02,0.036c0.161,0.306,0.589,1.119,1.895,1.126l-0.118,13.218
	c-0.839,0.008-2.062,0.034-2.062,0.034l-0.272,0.006c-0.027,0-0.054,0.011-0.073,0.027l-0.213,0.173
	c-0.175,0.146-2.289,2.226-3.053,3.792c-0.11,0.224-0.22,0.45-0.33,0.68c-0.624,1.298-1.269,2.643-1.792,3.093
	c-0.057,0.05-0.132,0.109-0.221,0.181l-0.132,0.105c-0.458,0.359-4.486,3.63-5.006,8.09c-0.098,0.819-0.332,1.362-0.678,1.571
	c-0.124,0.073-0.276,0.111-0.451,0.111c-0.126,0-0.241-0.02-0.322-0.039C-168.999,66.513-170.875,64.602-170.064,62.19z"/>
</svg>
