<?xml version="1.0" encoding="utf-8"?>
<!-- Generator: Adobe Illustrator 20.0.0, SVG Export Plug-In . SVG Version: 6.00 Build 0)  -->
<svg version="1.1" id="Layer_1" xmlns="http://www.w3.org/2000/svg" xmlns:xlink="http://www.w3.org/1999/xlink" x="0px" y="0px"
	 width="40px" height="40px" viewBox="0 0 40 40" enable-background="new 0 0 40 40" xml:space="preserve">
<g>
	<g>
		<g>
			<path fill="#179796" d="M20.4,29.3c-2.7,0-4.9-1-6.2-2.5c-0.2-0.2-0.3-0.4-0.3-0.7c0-0.5,0.4-1.1,1-1.1c0.3,0,0.5,0.1,0.7,0.3
				c1.2,1.2,2.9,1.9,4.7,1.9c2.7,0,4.4-1.4,4.4-3.5c0-2.4-1.9-3.3-4.7-3.3c-0.8,0-2.1,0.2-2.1-1.1c0-0.6,0.5-1,1-1
				c2.8,0,5.5-0.4,5.5-3.1c0-2.1-1.9-3.2-4.2-3.2c-1.8,0-3.2,0.6-4.4,1.7c-0.2,0.2-0.4,0.3-0.6,0.3c-0.5,0-1-0.4-1-1
				c0-0.3,0.1-0.5,0.3-0.7c1.5-1.4,3.4-2.4,5.9-2.4c3.6,0,6.4,1.8,6.4,5c0,2.7-2.3,4.1-4.1,4.4c1.7,0.1,4.4,1.6,4.4,4.6
				C27.1,27,24.5,29.3,20.4,29.3z"/>
			<path fill="#179796" d="M20.4,29.5c-2.5,0-4.8-0.9-6.3-2.5c-0.2-0.2-0.3-0.5-0.3-0.8c0-0.6,0.5-1.3,1.2-1.3
				c0.3,0,0.6,0.1,0.8,0.3c1.2,1.2,2.8,1.9,4.6,1.9c2.6,0,4.2-1.3,4.2-3.4c0-2.6-2.5-3.2-4.5-3.2c-0.1,0-0.2,0-0.3,0
				c-0.5,0-1,0-1.4-0.2c-0.4-0.2-0.6-0.6-0.6-1.1c0-0.7,0.5-1.2,1.2-1.2c2.6,0,5.3-0.3,5.3-2.9c0-2.1-2-3.1-4-3.1
				c-1.7,0-3,0.5-4.3,1.7c-0.2,0.2-0.5,0.3-0.7,0.3c-0.6,0-1.2-0.5-1.2-1.2c0-0.3,0.1-0.6,0.4-0.8c1.6-1.6,3.7-2.4,6.1-2.4
				c3.9,0,6.6,2.1,6.6,5.2c0,2.3-1.6,3.8-3.4,4.4c1.7,0.5,3.7,2,3.7,4.7C27.2,27.2,24.5,29.5,20.4,29.5z M14.9,25.2
				c-0.5,0-0.8,0.5-0.8,0.9c0,0.2,0.1,0.4,0.2,0.6c1.4,1.6,3.6,2.4,6.1,2.4c3.9,0,6.5-2.1,6.5-5.3c0-2.8-2.5-4.3-4.2-4.5
				c-0.1,0-0.2-0.1-0.2-0.2c0-0.1,0.1-0.2,0.1-0.2c1.5-0.3,3.9-1.4,3.9-4.2c0-2.9-2.5-4.9-6.2-4.9c-2.3,0-4.2,0.8-5.8,2.3
				c-0.2,0.1-0.3,0.4-0.3,0.6c0,0.5,0.4,0.8,0.8,0.8c0.2,0,0.4-0.1,0.5-0.2c1.4-1.2,2.8-1.8,4.6-1.8c2.6,0,4.4,1.4,4.4,3.4
				c0,2.9-2.9,3.3-5.7,3.3c-0.5,0-0.8,0.4-0.8,0.8c0,0.4,0.1,0.6,0.4,0.8c0.4,0.2,0.9,0.2,1.3,0.2c0.1,0,0.2,0,0.3,0
				c3.1,0,4.9,1.2,4.9,3.5c0,2.3-1.8,3.7-4.6,3.7c-1.9,0-3.6-0.7-4.9-1.9C15.3,25.3,15.1,25.2,14.9,25.2z"/>
		</g>
	</g>
	<path fill="#179796" d="M20.1,39.5c-10.9,0-19.8-8.9-19.8-19.8S9.2,0,20.1,0C31,0,39.9,8.8,39.9,19.8S31,39.5,20.1,39.5z M20.1,2.2
		c-9.7,0-17.5,7.9-17.5,17.5s7.9,17.5,17.5,17.5c9.7,0,17.5-7.9,17.5-17.5S29.8,2.2,20.1,2.2z"/>
</g>
</svg>
