<?xml version="1.0" encoding="iso-8859-1"?>
<!-- Generator: Adobe Illustrator 19.1.0, SVG Export Plug-In . SVG Version: 6.00 Build 0)  -->
<svg version="1.1" id="Layer_1" xmlns="http://www.w3.org/2000/svg" xmlns:xlink="http://www.w3.org/1999/xlink" x="0px" y="0px"
	 viewBox="180.256 -30.122 40 40" style="enable-background:new 180.256 -30.122 40 40;" xml:space="preserve">
<style type="text/css">
	.st0{fill:#009797;}
	.st1{fill:#009898;}
	.st2{fill:#009797;stroke:#009797;stroke-width:0.3403;stroke-linecap:round;stroke-linejoin:round;stroke-miterlimit:10;}
	.st3{fill:#009797;stroke:#009797;stroke-width:0.3391;stroke-linecap:round;stroke-linejoin:round;stroke-miterlimit:10;}
</style>
<g>
	<path class="st0" d="M180.256,9.878h12.492V4.294c-0.008-0.564-0.274-1.09-0.756-1.483c-0.415-0.34-0.956-0.541-1.486-0.546
		l-0.057-0.004h-7.864c-0.594,0-1.178,0.199-1.602,0.55c-0.476,0.393-0.727,0.917-0.727,1.521V9.878z M181.966,4.332
		c0-0.079,0.037-0.151,0.107-0.209c0.118-0.098,0.301-0.153,0.512-0.153l7.892-0.006c0.153,0.002,0.307,0.065,0.434,0.169
		c0.026,0.022,0.05,0.042,0.067,0.061h0.063l0.005,0.155l-0.005,0.008v3.812h-9.075V4.332H181.966z"/>
	<path class="st0" d="M189.152,0.21c0.67-0.886,1.071-2.067,1.071-3.156c0-1.053-0.36-1.957-1.04-2.613
		c-0.671-0.646-1.623-1.004-2.679-1.004c-1.059,0-2.011,0.358-2.683,1.004c-0.68,0.654-1.039,1.558-1.039,2.613
		c0,1.093,0.4,2.274,1.072,3.158c0.722,0.951,1.663,1.474,2.649,1.474c0.96,0,1.877-0.495,2.593-1.399L189.152,0.21z M187.796-0.817
		l-0.041,0.051c-0.38,0.48-0.821,0.743-1.25,0.743c-0.448,0-0.907-0.281-1.296-0.792c-0.449-0.593-0.718-1.389-0.718-2.13
		c0-0.583,0.177-1.063,0.512-1.385c0.351-0.338,0.883-0.525,1.502-0.525c0.616,0,1.147,0.188,1.498,0.525
		c0.334,0.322,0.511,0.802,0.511,1.385C188.514-2.206,188.246-1.411,187.796-0.817z"/>
	<path class="st0" d="M194.002,9.878h12.494V4.29c-0.009-0.562-0.276-1.086-0.759-1.479c-0.415-0.34-0.957-0.541-1.486-0.546
		l-0.056-0.004h-7.864c-0.594,0-1.177,0.199-1.603,0.55c-0.476,0.393-0.727,0.917-0.727,1.521L194.002,9.878L194.002,9.878z
		 M195.71,4.332c0-0.077,0.039-0.151,0.107-0.207c0.119-0.1,0.304-0.155,0.514-0.155l7.89-0.006
		c0.153,0.002,0.309,0.065,0.435,0.169c0.027,0.022,0.052,0.042,0.069,0.061h0.061l0.002,0.155l-0.004,0.008v3.812h-9.076V4.332
		H195.71z"/>
	<path class="st0" d="M202.93-5.559c-0.672-0.646-1.623-1.004-2.68-1.004c-1.06,0-2.012,0.358-2.684,1.004
		c-0.682,0.656-1.04,1.558-1.04,2.613c0,1.091,0.4,2.272,1.072,3.158c0.724,0.951,1.664,1.474,2.651,1.474
		c0.963,0,1.882-0.5,2.598-1.406l0.051-0.068c0.67-0.886,1.071-2.068,1.071-3.157C203.97-3.999,203.61-4.903,202.93-5.559z
		 M201.543-0.817l-0.044,0.051c-0.379,0.48-0.822,0.743-1.249,0.743c-0.446,0-0.906-0.281-1.297-0.792
		c-0.448-0.593-0.717-1.389-0.717-2.13c0-0.586,0.177-1.063,0.513-1.385c0.351-0.338,0.883-0.525,1.501-0.525
		c0.614,0,1.149,0.188,1.499,0.525c0.334,0.322,0.511,0.802,0.511,1.385C202.26-2.206,201.99-1.411,201.543-0.817z"/>
	<path class="st0" d="M207.747,9.878h12.494V4.29c-0.01-0.562-0.279-1.086-0.761-1.479c-0.414-0.34-0.955-0.541-1.484-0.546
		l-0.053-0.004h-7.868c-0.595,0-1.178,0.199-1.601,0.55c-0.479,0.391-0.73,0.917-0.73,1.521v5.546H207.747z M209.456,4.332
		c0-0.079,0.038-0.151,0.107-0.209c0.118-0.098,0.302-0.153,0.512-0.153l7.893-0.006c0.152,0.002,0.307,0.065,0.434,0.169
		c0.026,0.022,0.05,0.042,0.067,0.061h0.061l0.004,0.151l-0.004,0.01v3.814h-9.076V4.332H209.456z"/>
	<path class="st0" d="M216.675-5.559c-0.671-0.646-1.624-1.004-2.679-1.004c-1.058,0-2.011,0.358-2.683,1.004
		c-0.68,0.656-1.04,1.558-1.04,2.613c0,1.091,0.401,2.272,1.071,3.158c0.724,0.951,1.664,1.474,2.651,1.474
		c0.961,0,1.879-0.497,2.594-1.401l0.055-0.075c0.669-0.886,1.069-2.065,1.069-3.156C217.714-4.001,217.354-4.903,216.675-5.559z
		 M215.289-0.817l-0.043,0.051c-0.38,0.48-0.822,0.743-1.25,0.743c-0.448,0-0.908-0.281-1.295-0.792
		c-0.45-0.593-0.72-1.389-0.72-2.13c0-0.583,0.177-1.063,0.513-1.385c0.351-0.338,0.885-0.525,1.502-0.525s1.147,0.188,1.497,0.525
		c0.334,0.322,0.511,0.802,0.511,1.385C216.004-2.206,215.737-1.409,215.289-0.817z"/>
	<g>
		<rect x="190.627" y="-19.167" class="st0" width="10.718" height="1.357"/>
	</g>
	<g>
		<rect x="186.729" y="-24.04" class="st0" width="4.873" height="1.358"/>
	</g>
	<g>
		<path class="st0" d="M216.872-10.267h-33.01c-0.496,0-0.899-0.404-0.899-0.901v-18.055c0-0.497,0.403-0.9,0.899-0.9h33.01
			c0.498,0,0.9,0.403,0.9,0.9v18.055C217.772-10.67,217.37-10.267,216.872-10.267z M184.765-12.067h31.207v-16.254h-31.207V-12.067z
			"/>
	</g>
</g>
</svg>
