<?xml version="1.0" encoding="utf-8"?>
<!-- Generator: Adobe Illustrator 20.0.0, SVG Export Plug-In . SVG Version: 6.00 Build 0)  -->
<svg version="1.1" id="Layer_1" xmlns="http://www.w3.org/2000/svg" xmlns:xlink="http://www.w3.org/1999/xlink" x="0px" y="0px"
	 width="40px" height="40px" viewBox="0 0 40 40" enable-background="new 0 0 40 40" xml:space="preserve">
<g>
	<g>
		<g>
			<path fill="#179796" d="M20,29.1c-5.3,0-7.3-4.6-7.3-9.7c0-5.1,2.4-9.8,7.7-9.8c2.1,0,3.5,0.6,4.8,1.8c0.2,0.2,0.3,0.5,0.3,0.7
				c0,0.6-0.5,1-1,1c-0.3,0-0.5-0.1-0.7-0.3c-0.8-0.7-1.8-1.2-3.3-1.2c-3.7,0-5.3,3.7-5.3,7.4c0,0.3,0,0.5,0,0.7
				c0.8-1.3,2.9-2.9,5.4-2.9c3.4,0,6.2,2,6.2,6C26.6,26.2,24.1,29.1,20,29.1z M19.9,18.9c-1.9,0-3.7,1.2-4.7,2.8
				c0.2,2.4,1.5,5.2,4.8,5.2c2.9,0,4.3-2.2,4.3-4C24.2,20.2,22.3,18.9,19.9,18.9z"/>
			<path fill="#179796" d="M20,29.3c-4.7,0-7.5-3.7-7.5-9.9c0-4.6,2.1-9.9,7.9-9.9c2.1,0,3.6,0.6,4.9,1.9c0.2,0.2,0.3,0.5,0.3,0.8
				c0,0.7-0.6,1.2-1.2,1.2c-0.3,0-0.6-0.1-0.8-0.3c-0.9-0.8-1.9-1.2-3.2-1.2c-3.6,0-5.1,3.6-5.1,7.2c0,0.1,0,0.2,0,0.2
				c0.9-1.2,2.9-2.6,5.2-2.6c3.9,0,6.4,2.4,6.4,6.2C26.8,26.1,24.4,29.3,20,29.3z M20.4,9.8c-5.5,0-7.5,5.2-7.5,9.6
				c0,6,2.7,9.6,7.1,9.6c4.2,0,6.5-3,6.5-6c0-3.6-2.4-5.9-6-5.9c-2.5,0-4.5,1.7-5.2,2.9c0,0.1-0.1,0.1-0.2,0.1
				c-0.1,0-0.1-0.1-0.1-0.2c0-0.3,0-0.5,0-0.8c0-3.8,1.7-7.6,5.5-7.6c1.4,0,2.5,0.4,3.5,1.3c0.2,0.1,0.4,0.2,0.6,0.2
				c0.5,0,0.9-0.4,0.9-0.9c0-0.2,0-0.4-0.2-0.6C23.8,10.3,22.3,9.8,20.4,9.8z M19.9,27.2c-3.3,0-4.7-2.8-4.9-5.4c0,0,0-0.1,0-0.1
				c1.1-1.8,3-2.9,4.9-2.9c2.8,0,4.5,1.6,4.5,4.3C24.4,25,22.8,27.2,19.9,27.2z M15.3,21.8c0.1,1.3,0.8,5,4.6,5c2.7,0,4.2-2,4.2-3.8
				c0-2.4-1.6-3.9-4.2-3.9C18.1,19.1,16.4,20.2,15.3,21.8z"/>
		</g>
	</g>
	<path fill="#179796" d="M20,39.6c-10.9,0-19.8-8.9-19.8-19.8C0.2,8.9,9.1,0,20,0s19.8,8.9,19.8,19.8C39.8,30.7,30.9,39.6,20,39.6z
		 M20,2.2c-9.7,0-17.5,7.9-17.5,17.5S10.3,37.3,20,37.3s17.5-7.9,17.5-17.5S29.7,2.2,20,2.2z"/>
</g>
</svg>
