<?xml version="1.0" encoding="iso-8859-1"?>
<!-- Generator: Adobe Illustrator 19.1.0, SVG Export Plug-In . SVG Version: 6.00 Build 0)  -->
<svg version="1.1" id="Layer_1" xmlns="http://www.w3.org/2000/svg" xmlns:xlink="http://www.w3.org/1999/xlink" x="0px" y="0px"
	 viewBox="-60.248 32.501 40 33.333" style="enable-background:new -60.248 32.501 40 33.333;" xml:space="preserve">
<style type="text/css">
	.st0{fill:#009797;}
	.st1{fill:#009898;}
	.st2{fill:#009797;stroke:#009797;stroke-width:0.3403;stroke-linecap:round;stroke-linejoin:round;stroke-miterlimit:10;}
	.st3{fill:#009797;stroke:#009797;stroke-width:0.3391;stroke-linecap:round;stroke-linejoin:round;stroke-miterlimit:10;}
</style>
<g>
	<g>
		<g>
			<path class="st0" d="M-34.803,51.547c1.513-1.514,3.601-2.448,5.906-2.448c2.306,0,4.395,0.935,5.905,2.448
				c1.515,1.51,2.447,3.599,2.447,5.902c0,2.308-0.933,4.396-2.447,5.908c-1.512,1.516-3.601,2.452-5.905,2.452
				c-2.309,0-4.397-0.935-5.91-2.448c-1.514-1.512-2.445-3.601-2.445-5.912C-37.254,55.148-36.318,53.057-34.803,51.547z
				 M-28.895,50.678c-1.875,0-3.571,0.76-4.795,1.984c-1.226,1.225-1.983,2.916-1.983,4.787c0,1.875,0.758,3.567,1.985,4.795
				c1.226,1.227,2.92,1.985,4.793,1.985c1.873,0,3.564-0.758,4.789-1.983c1.226-1.225,1.983-2.92,1.983-4.797
				c0-1.869-0.76-3.562-1.983-4.785C-25.332,51.438-27.023,50.678-28.895,50.678z"/>
		</g>
		<g>
			<polygon class="st0" points="-28.124,53.187 -28.124,56.662 -24.635,56.662 -24.635,58.244 -28.124,58.244 -28.124,61.714 
				-29.706,61.714 -29.706,58.244 -33.163,58.244 -33.163,56.662 -29.706,56.662 -29.706,53.187 			"/>
		</g>
		<g>
			<path class="st0" d="M-49.038,39.751c-0.45-0.45-1.074-0.728-1.761-0.728s-1.31,0.278-1.759,0.728
				c-0.45,0.451-0.729,1.072-0.729,1.76s0.279,1.311,0.729,1.76c0.451,0.451,1.072,0.728,1.759,0.728s1.31-0.276,1.761-0.728
				c0.45-0.449,0.728-1.072,0.728-1.76S-48.588,40.2-49.038,39.751z M-50.799,37.767c1.033,0,1.968,0.42,2.647,1.098
				c0.678,0.678,1.097,1.611,1.097,2.646c0,1.034-0.419,1.97-1.097,2.647c-0.677,0.678-1.612,1.098-2.647,1.098
				c-1.035,0-1.971-0.42-2.646-1.098c-0.679-0.678-1.098-1.613-1.098-2.647c0-1.034,0.419-1.968,1.098-2.646
				C-52.769,38.187-51.832,37.767-50.799,37.767z"/>
		</g>
		<g>
			<path class="st0" d="M-47.724,47.183h-6.149c-0.23,0-0.442,0.096-0.596,0.25c-0.154,0.155-0.25,0.365-0.25,0.598v3.298
				c0,0.229,0.095,0.441,0.25,0.599c0.154,0.151,0.366,0.248,0.596,0.248h6.149c0.231,0,0.443-0.097,0.596-0.248
				c0.154-0.156,0.249-0.368,0.249-0.599V48.03c0-0.232-0.094-0.442-0.249-0.598C-47.281,47.28-47.493,47.183-47.724,47.183z
				 M-53.735,45.935h5.873c0.597,0,1.139,0.244,1.532,0.637c0.395,0.393,0.639,0.936,0.639,1.535v3.147
				c0,0.596-0.245,1.139-0.639,1.533c-0.393,0.393-0.935,0.637-1.532,0.637h-5.873c-0.596,0-1.138-0.244-1.531-0.637
				c-0.393-0.396-0.637-0.938-0.637-1.533v-3.149c0-0.599,0.245-1.142,0.637-1.533C-54.873,46.179-54.331,45.935-53.735,45.935z"/>
		</g>
		<g>
			<rect x="-43.456" y="40.54" class="st0" width="11.062" height="1.58"/>
		</g>
		<g>
			<rect x="-43.456" y="46.071" class="st0" width="11.062" height="1.58"/>
		</g>
		<g>
			<path class="st0" d="M-37.002,53.183h-6.454v-1.58h7.398C-36.423,52.095-36.739,52.625-37.002,53.183z"/>
		</g>
	</g>
	<path class="st0" d="M-37.297,61.518h-21.375V34.155h33.414v14.695c0.556,0.234,1.082,0.522,1.576,0.854V34.081
		c0-0.828-0.674-1.502-1.502-1.502h-33.562c-0.83,0-1.503,0.674-1.503,1.502v27.51c0,0.829,0.673,1.503,1.503,1.503h22.414
		C-36.702,62.605-37.027,62.076-37.297,61.518z"/>
	<g>
		<path class="st0" d="M-34.803,51.547c1.513-1.514,3.601-2.448,5.906-2.448c2.306,0,4.395,0.935,5.905,2.448
			c1.515,1.51,2.447,3.599,2.447,5.902c0,2.308-0.933,4.396-2.447,5.908c-1.512,1.516-3.601,2.452-5.905,2.452
			c-2.309,0-4.397-0.935-5.91-2.448c-1.514-1.512-2.445-3.601-2.445-5.912C-37.254,55.148-36.318,53.057-34.803,51.547z
			 M-28.895,50.678c-1.875,0-3.571,0.76-4.795,1.984c-1.226,1.225-1.983,2.916-1.983,4.787c0,1.875,0.758,3.567,1.985,4.795
			c1.226,1.227,2.92,1.985,4.793,1.985c1.873,0,3.564-0.758,4.789-1.983c1.226-1.225,1.983-2.92,1.983-4.797
			c0-1.869-0.76-3.562-1.983-4.785C-25.332,51.438-27.023,50.678-28.895,50.678z"/>
	</g>
</g>
</svg>
