<?xml version="1.0" encoding="iso-8859-1"?>
<!-- Generator: Adobe Illustrator 19.1.0, SVG Export Plug-In . SVG Version: 6.00 Build 0)  -->
<svg version="1.1" id="Layer_1" xmlns="http://www.w3.org/2000/svg" xmlns:xlink="http://www.w3.org/1999/xlink" x="0px" y="0px"
	 viewBox="-0.122 -150.374 40 40" style="enable-background:new -0.122 -150.374 40 40;" xml:space="preserve">
<style type="text/css">
	.st0{fill:#009797;}
	.st1{fill:#009898;}
	.st2{fill:#009797;stroke:#009797;stroke-width:0.3403;stroke-linecap:round;stroke-linejoin:round;stroke-miterlimit:10;}
	.st3{fill:#009797;stroke:#009797;stroke-width:0.3391;stroke-linecap:round;stroke-linejoin:round;stroke-miterlimit:10;}
</style>
<g>
	<path class="st0" d="M24.895-118.012h-2.283v-3.742c0-0.441-0.358-0.801-0.801-0.801H3.387c-0.441,0-0.8,0.359-0.8,0.801v3.742
		H0.678c-0.441,0-0.8,0.357-0.8,0.799v5.954c0,0.441,0.358,0.801,0.8,0.801h24.218c0.441,0,0.801-0.359,0.801-0.801v-5.954
		C25.696-117.654,25.337-118.012,24.895-118.012z M4.187-120.955h16.826v2.941H4.187V-120.955z M24.097-112.058H1.478v-4.354h22.619
		V-112.058z"/>
	<path class="st0" d="M22.352-144.248l-6.665-2.889c-0.224-0.09-0.498,0.018-0.582,0.231c-0.047,0.116-0.047,0.247,0.002,0.36
		c0.045,0.104,0.127,0.185,0.225,0.224l6.255,2.708L14.88-128.09c-0.088,0.227,0.006,0.48,0.213,0.576
		c0.068,0.049,0.156,0.049,0.195,0.049c0.176,0,0.358-0.125,0.405-0.27l6.887-15.932c0.047-0.114,0.045-0.244-0.002-0.356
		C22.534-144.127,22.452-144.208,22.352-144.248z"/>
	<path class="st0" d="M39.905-130.816c-0.074-0.193-0.229-0.348-0.418-0.424l-16.131-6.974l2.11-4.877
		c0.591-1.378-0.053-2.993-1.432-3.601l-7.707-3.329c-0.652-0.295-1.424-0.305-2.103-0.036c-0.658,0.265-1.191,0.785-1.5,1.466
		l-7.362,16.976c-0.59,1.379,0.053,2.994,1.434,3.599l7.678,3.332c0.346,0.156,0.704,0.231,1.1,0.231
		c0.324,0,0.65-0.051,1.033-0.166c0.66-0.264,1.191-0.784,1.5-1.467l2.102-4.856l16.169,6.99l0.045,0.018
		c0.076,0.027,0.148,0.056,0.25,0.056c0.26,0,0.574-0.146,0.693-0.461l2.539-5.904C39.983-130.435,39.983-130.628,39.905-130.816z
		 M21.608-138.15l-2.538,5.905c-0.01,0.027-0.008,0.056-0.017,0.083l-2.368,5.469c-0.103,0.264-0.353,0.504-0.654,0.623
		c-0.26,0.104-0.608,0.09-0.913-0.029l-7.71-3.332c-0.597-0.256-0.885-0.973-0.63-1.569l7.364-17.01
		c0.108-0.27,0.354-0.505,0.655-0.625c0.147-0.058,0.289-0.086,0.429-0.086c0.142,0,0.266,0.042,0.424,0.096l7.773,3.353
		c0.289,0.124,0.516,0.357,0.635,0.657c0.121,0.3,0.119,0.625-0.006,0.913l-2.339,5.403
		C21.675-138.252,21.632-138.208,21.608-138.15z M22.763-136.84l15.449,6.709l-1.955,4.486l-15.449-6.678L22.763-136.84z"/>
</g>
</svg>
