<?xml version="1.0" encoding="utf-8"?>
<!-- Generator: Adobe Illustrator 25.2.3, SVG Export Plug-In . SVG Version: 6.00 Build 0)  -->
<svg version="1.1" id="Layer_1" xmlns="http://www.w3.org/2000/svg" xmlns:xlink="http://www.w3.org/1999/xlink" x="0px" y="0px"
	 viewBox="0 0 73 65" style="enable-background:new 0 0 73 65;" xml:space="preserve">
<style type="text/css">
	.st0{fill:#009999;}
	.st1{fill:#FFFFFF;filter:url(#Adobe_OpacityMaskFilter);}
	.st2{mask:url(#path-1-outside-1_1_);fill:none;stroke:#009999;stroke-width:0.2;}
	.st3{fill:#FFFFFF;filter:url(#Adobe_OpacityMaskFilter_1_);}
	.st4{mask:url(#path-1-outside-1_2_);fill:none;stroke:#009999;stroke-width:0.2;}
	.st5{fill:#FFFFFF;filter:url(#Adobe_OpacityMaskFilter_2_);}
	.st6{mask:url(#path-1-outside-1_3_);fill:none;stroke:#009999;stroke-width:0.2;}
</style>
<path class="st0" d="M17.7,61.2l1.1,0.4c3.1,1.1,6.3,1.9,9.5,2.5c6.1,1,12.4,1.1,18.4,0.2c2.8-0.4,5.6-1.1,8.4-1.9l1.1-0.3V43.6
	c0-5-2-9.7-5.7-13.2c-2.4-2.4-5.5-4.1-8.9-4.9c-0.1,0-0.2-0.1-0.2-0.2c0-0.1,0.1-0.2,0.1-0.2c1.7-0.6,3.2-1.6,4.4-2.8
	c2.4-2.4,3.8-5.5,3.8-8.9c0-3.3-1.3-6.5-3.8-8.9c-2.4-2.4-5.7-3.7-9.1-3.7c-3.4,0-6.6,1.3-9.1,3.7c-2.4,2.4-3.8,5.5-3.8,8.9
	c0,3.3,1.3,6.5,3.8,8.9c1.3,1.2,2.7,2.2,4.4,2.8c0.1,0,0.2,0.1,0.2,0.2c0,0.1-0.1,0.2-0.2,0.2c-3.4,0.8-6.5,2.5-8.9,4.9
	c-3.6,3.5-5.6,8.2-5.6,13.2V61.2z M30.1,20c-1.8-1.8-2.8-4.1-2.8-6.6c0-2.5,1-4.9,2.8-6.6C32,5,34.4,4,36.9,4c2.6,0,5,1,6.8,2.8
	c1.8,1.8,2.8,4.1,2.8,6.6c0,2.5-1,4.8-2.8,6.6c-1.8,1.8-4.2,2.7-6.8,2.7C34.4,22.7,32,21.8,30.1,20z M20.9,43.6
	c0-4.2,1.7-8.1,4.7-11c3-2.9,7-4.6,11.3-4.6c4.3,0,8.3,1.6,11.3,4.6c3,2.9,4.7,6.8,4.7,11v15.8c0,0.1-0.1,0.2-0.2,0.2
	c-2.1,0.6-4.4,1.1-6.6,1.4c-2.7,0.4-5.4,0.6-8.1,0.6c-3.1,0-6.2-0.3-9.2-0.8c-2.6-0.4-5.2-1.1-7.7-1.9c-0.1,0-0.2-0.1-0.2-0.2
	L20.9,43.6z"/>
<path class="st0" d="M72.2,53.7C72.2,53.6,72.2,53.6,72.2,53.7c0-8.1,0-19.1-9-21.9c-0.1,0-0.2-0.1-0.2-0.2c0-0.1,0-0.2,0.1-0.2
	c0.7-0.4,1.3-0.9,1.8-1.3c1.8-1.7,2.7-4,2.7-6.4c0-2.4-1-4.7-2.7-6.4c-1.7-1.7-4.1-2.6-6.5-2.6c-2.5,0-4.8,0.9-6.5,2.6
	c-1.8,1.7-2.7,4-2.7,6.4c0,2.4,1,4.7,2.7,6.4c0.8,0.8,1.8,1.4,2.9,1.9c0.1,0,0.1,0.1,0.1,0.1l0.8,2.6c0.4-0.1,0.8-0.2,1.3-0.3
	c0.5-0.1,1-0.1,1.5-0.1c2.8,0,5,0.8,6.7,2.4c3.9,3.8,3.9,11.4,3.9,17V54c0,0.1,0,0.1-0.1,0.2l0,0c-0.9,0.9-1.9,1.6-3.2,2
	c-1.4,0.5-3.1,0.8-5.9,1.1l0.3,3.2c3.1-0.3,5.1-0.7,6.7-1.3c2-0.7,3.6-1.8,5-3.4l0.4-1.1c0-0.3,0-0.5,0-0.7c0,0,0,0,0,0
	c0,0,0,0,0-0.1C72.2,53.7,72.2,53.7,72.2,53.7z M58.5,29.5c-1.6,0-3.1-0.6-4.2-1.7c-1.1-1.1-1.7-2.6-1.7-4.1c0-1.5,0.6-3,1.8-4.1
	c1.1-1.1,2.6-1.7,4.2-1.7c1.6,0,3.1,0.6,4.2,1.7c1.1,1.1,1.8,2.6,1.8,4.1c0,1.5-0.6,3-1.8,4.1C61.6,28.9,60.1,29.5,58.5,29.5z"/>
<path class="st0" d="M16.1,34.4c0.4,0.1,0.8,0.2,1.3,0.3l0.8-2.6c0-0.1,0.1-0.1,0.1-0.1c1.1-0.5,2-1.1,2.9-1.9
	c1.8-1.7,2.7-4,2.7-6.4c0-2.4-1-4.7-2.7-6.4c-1.8-1.7-4.1-2.6-6.5-2.6c-2.5,0-4.8,0.9-6.5,2.6c-1.8,1.7-2.7,4-2.7,6.4
	c0,2.4,1,4.6,2.7,6.4c0.5,0.5,1,0.9,1.8,1.3c0.1,0,0.1,0.1,0.1,0.2c0,0.1-0.1,0.2-0.2,0.2c-9,2.8-9,13.8-9,21.9c0,0,0,0,0,0.1
	c0,0,0,0.1,0,0.1c0,0,0,0,0,0c0,0,0,0,0,0c0,0,0,0,0,0c0,0,0,0,0,0c0,0.2,0,0.5,0,0.8l0.4,1.1c1.4,1.6,2.9,2.7,4.9,3.4
	c1.7,0.6,4,1.1,7.1,1.4l0-3.2c-2.8-0.3-4.6-0.6-6-1.1c-1.3-0.5-2.3-1.1-3.2-2h0c0,0-0.1-0.1-0.1-0.2v-0.3c0-5.5,0-13.1,3.9-17
	c1.6-1.6,3.9-2.4,6.7-2.4C15.1,34.3,15.6,34.3,16.1,34.4z M8.7,23.7c0-1.6,0.6-3,1.7-4.1c1.1-1.1,2.6-1.7,4.2-1.7
	c1.6,0,3.1,0.6,4.2,1.7c1.1,1.1,1.8,2.6,1.8,4.1c0,1.6-0.6,3-1.7,4.1c-1.1,1.1-2.6,1.7-4.2,1.7c-1.6,0-3.1-0.6-4.2-1.7
	C9.3,26.7,8.7,25.2,8.7,23.7z"/>
<defs>
	<filter id="Adobe_OpacityMaskFilter" filterUnits="userSpaceOnUse" x="17.6" y="0.7" width="38.7" height="64.2">
		<feColorMatrix  type="matrix" values="1 0 0 0 0  0 1 0 0 0  0 0 1 0 0  0 0 0 1 0"/>
	</filter>
</defs>
<mask maskUnits="userSpaceOnUse" x="17.6" y="0.7" width="38.7" height="64.2" id="path-1-outside-1_1_">
	<rect x="-0.1" y="-0.2" class="st1" width="73" height="66"/>
	<path d="M17.7,61.2l1.1,0.4c3.1,1.1,6.3,1.9,9.5,2.5c6.1,1,12.4,1.1,18.4,0.2c2.8-0.4,5.6-1.1,8.4-1.9l1.1-0.3V43.6
		c0-5-2-9.7-5.7-13.2c-2.4-2.4-5.5-4.1-8.9-4.9c-0.1,0-0.2-0.1-0.2-0.2c0-0.1,0.1-0.2,0.1-0.2c1.7-0.6,3.2-1.6,4.4-2.8
		c2.4-2.4,3.8-5.5,3.8-8.9c0-3.3-1.3-6.5-3.8-8.9c-2.4-2.4-5.7-3.7-9.1-3.7c-3.4,0-6.6,1.3-9.1,3.7c-2.4,2.4-3.8,5.5-3.8,8.9
		c0,3.3,1.3,6.5,3.8,8.9c1.3,1.2,2.7,2.2,4.4,2.8c0.1,0,0.2,0.1,0.2,0.2c0,0.1-0.1,0.2-0.2,0.2c-3.4,0.8-6.5,2.5-8.9,4.9
		c-3.6,3.5-5.6,8.2-5.6,13.2V61.2z M30.1,20c-1.8-1.8-2.8-4.1-2.8-6.6c0-2.5,1-4.9,2.8-6.6C32,5,34.4,4,36.9,4c2.6,0,5,1,6.8,2.8
		c1.8,1.8,2.8,4.1,2.8,6.6c0,2.5-1,4.8-2.8,6.6c-1.8,1.8-4.2,2.7-6.8,2.7C34.4,22.7,32,21.8,30.1,20z M20.9,43.6
		c0-4.2,1.7-8.1,4.7-11c3-2.9,7-4.6,11.3-4.6c4.3,0,8.3,1.6,11.3,4.6c3,2.9,4.7,6.8,4.7,11v15.8c0,0.1-0.1,0.2-0.2,0.2
		c-2.1,0.6-4.4,1.1-6.6,1.4c-2.7,0.4-5.4,0.6-8.1,0.6c-3.1,0-6.2-0.3-9.2-0.8c-2.6-0.4-5.2-1.1-7.7-1.9c-0.1,0-0.2-0.1-0.2-0.2
		L20.9,43.6z"/>
	<path d="M72.2,53.7C72.2,53.6,72.2,53.6,72.2,53.7c0-8.1,0-19.1-9-21.9c-0.1,0-0.2-0.1-0.2-0.2c0-0.1,0-0.2,0.1-0.2
		c0.7-0.4,1.3-0.9,1.8-1.3c1.8-1.7,2.7-4,2.7-6.4c0-2.4-1-4.7-2.7-6.4c-1.7-1.7-4.1-2.6-6.5-2.6c-2.5,0-4.8,0.9-6.5,2.6
		c-1.8,1.7-2.7,4-2.7,6.4c0,2.4,1,4.7,2.7,6.4c0.8,0.8,1.8,1.4,2.9,1.9c0.1,0,0.1,0.1,0.1,0.1l0.8,2.6c0.4-0.1,0.8-0.2,1.3-0.3
		c0.5-0.1,1-0.1,1.5-0.1c2.8,0,5,0.8,6.7,2.4c3.9,3.8,3.9,11.4,3.9,17V54c0,0.1,0,0.1-0.1,0.2l0,0c-0.9,0.9-1.9,1.6-3.2,2
		c-1.4,0.5-3.1,0.8-5.9,1.1l0.3,3.2c3.1-0.3,5.1-0.7,6.7-1.3c2-0.7,3.6-1.8,5-3.4l0.4-1.1c0-0.3,0-0.5,0-0.7c0,0,0,0,0,0
		c0,0,0,0,0-0.1C72.2,53.7,72.2,53.7,72.2,53.7z M58.5,29.5c-1.6,0-3.1-0.6-4.2-1.7c-1.1-1.1-1.7-2.6-1.7-4.1c0-1.5,0.6-3,1.8-4.1
		c1.1-1.1,2.6-1.7,4.2-1.7c1.6,0,3.1,0.6,4.2,1.7c1.1,1.1,1.8,2.6,1.8,4.1c0,1.5-0.6,3-1.8,4.1C61.6,28.9,60.1,29.5,58.5,29.5z"/>
	<path d="M16.1,34.4c0.4,0.1,0.8,0.2,1.3,0.3l0.8-2.6c0-0.1,0.1-0.1,0.1-0.1c1.1-0.5,2-1.1,2.9-1.9c1.8-1.7,2.7-4,2.7-6.4
		c0-2.4-1-4.7-2.7-6.4c-1.8-1.7-4.1-2.6-6.5-2.6c-2.5,0-4.8,0.9-6.5,2.6c-1.8,1.7-2.7,4-2.7,6.4c0,2.4,1,4.6,2.7,6.4
		c0.5,0.5,1,0.9,1.8,1.3c0.1,0,0.1,0.1,0.1,0.2c0,0.1-0.1,0.2-0.2,0.2c-9,2.8-9,13.8-9,21.9c0,0,0,0,0,0.1c0,0,0,0.1,0,0.1
		c0,0,0,0,0,0c0,0,0,0,0,0c0,0,0,0,0,0c0,0,0,0,0,0c0,0.2,0,0.5,0,0.8l0.4,1.1c1.4,1.6,2.9,2.7,4.9,3.4c1.7,0.6,4,1.1,7.1,1.4l0-3.2
		c-2.8-0.3-4.6-0.6-6-1.1c-1.3-0.5-2.3-1.1-3.2-2h0c0,0-0.1-0.1-0.1-0.2v-0.3c0-5.5,0-13.1,3.9-17c1.6-1.6,3.9-2.4,6.7-2.4
		C15.1,34.3,15.6,34.3,16.1,34.4z M8.7,23.7c0-1.6,0.6-3,1.7-4.1c1.1-1.1,2.6-1.7,4.2-1.7c1.6,0,3.1,0.6,4.2,1.7
		c1.1,1.1,1.8,2.6,1.8,4.1c0,1.6-0.6,3-1.7,4.1c-1.1,1.1-2.6,1.7-4.2,1.7c-1.6,0-3.1-0.6-4.2-1.7C9.3,26.7,8.7,25.2,8.7,23.7z"/>
</mask>
<path class="st2" d="M17.7,61.2l1.1,0.4c3.1,1.1,6.3,1.9,9.5,2.5c6.1,1,12.4,1.1,18.4,0.2c2.8-0.4,5.6-1.1,8.4-1.9l1.1-0.3V43.6
	c0-5-2-9.7-5.7-13.2c-2.4-2.4-5.5-4.1-8.9-4.9c-0.1,0-0.2-0.1-0.2-0.2c0-0.1,0.1-0.2,0.1-0.2c1.7-0.6,3.2-1.6,4.4-2.8
	c2.4-2.4,3.8-5.5,3.8-8.9c0-3.3-1.3-6.5-3.8-8.9c-2.4-2.4-5.7-3.7-9.1-3.7c-3.4,0-6.6,1.3-9.1,3.7c-2.4,2.4-3.8,5.5-3.8,8.9
	c0,3.3,1.3,6.5,3.8,8.9c1.3,1.2,2.7,2.2,4.4,2.8c0.1,0,0.2,0.1,0.2,0.2c0,0.1-0.1,0.2-0.2,0.2c-3.4,0.8-6.5,2.5-8.9,4.9
	c-3.6,3.5-5.6,8.2-5.6,13.2V61.2z M30.1,20c-1.8-1.8-2.8-4.1-2.8-6.6c0-2.5,1-4.9,2.8-6.6C32,5,34.4,4,36.9,4c2.6,0,5,1,6.8,2.8
	c1.8,1.8,2.8,4.1,2.8,6.6c0,2.5-1,4.8-2.8,6.6c-1.8,1.8-4.2,2.7-6.8,2.7C34.4,22.7,32,21.8,30.1,20z M20.9,43.6
	c0-4.2,1.7-8.1,4.7-11c3-2.9,7-4.6,11.3-4.6c4.3,0,8.3,1.6,11.3,4.6c3,2.9,4.7,6.8,4.7,11v15.8c0,0.1-0.1,0.2-0.2,0.2
	c-2.1,0.6-4.4,1.1-6.6,1.4c-2.7,0.4-5.4,0.6-8.1,0.6c-3.1,0-6.2-0.3-9.2-0.8c-2.6-0.4-5.2-1.1-7.7-1.9c-0.1,0-0.2-0.1-0.2-0.2
	L20.9,43.6z"/>
<defs>
	<filter id="Adobe_OpacityMaskFilter_1_" filterUnits="userSpaceOnUse" x="49.1" y="14.6" width="23.2" height="46">
		<feColorMatrix  type="matrix" values="1 0 0 0 0  0 1 0 0 0  0 0 1 0 0  0 0 0 1 0"/>
	</filter>
</defs>
<mask maskUnits="userSpaceOnUse" x="49.1" y="14.6" width="23.2" height="46" id="path-1-outside-1_2_">
	<rect x="-0.1" y="-0.2" class="st3" width="73" height="66"/>
	<path d="M17.7,61.2l1.1,0.4c3.1,1.1,6.3,1.9,9.5,2.5c6.1,1,12.4,1.1,18.4,0.2c2.8-0.4,5.6-1.1,8.4-1.9l1.1-0.3V43.6
		c0-5-2-9.7-5.7-13.2c-2.4-2.4-5.5-4.1-8.9-4.9c-0.1,0-0.2-0.1-0.2-0.2c0-0.1,0.1-0.2,0.1-0.2c1.7-0.6,3.2-1.6,4.4-2.8
		c2.4-2.4,3.8-5.5,3.8-8.9c0-3.3-1.3-6.5-3.8-8.9c-2.4-2.4-5.7-3.7-9.1-3.7c-3.4,0-6.6,1.3-9.1,3.7c-2.4,2.4-3.8,5.5-3.8,8.9
		c0,3.3,1.3,6.5,3.8,8.9c1.3,1.2,2.7,2.2,4.4,2.8c0.1,0,0.2,0.1,0.2,0.2c0,0.1-0.1,0.2-0.2,0.2c-3.4,0.8-6.5,2.5-8.9,4.9
		c-3.6,3.5-5.6,8.2-5.6,13.2V61.2z M30.1,20c-1.8-1.8-2.8-4.1-2.8-6.6c0-2.5,1-4.9,2.8-6.6C32,5,34.4,4,36.9,4c2.6,0,5,1,6.8,2.8
		c1.8,1.8,2.8,4.1,2.8,6.6c0,2.5-1,4.8-2.8,6.6c-1.8,1.8-4.2,2.7-6.8,2.7C34.4,22.7,32,21.8,30.1,20z M20.9,43.6
		c0-4.2,1.7-8.1,4.7-11c3-2.9,7-4.6,11.3-4.6c4.3,0,8.3,1.6,11.3,4.6c3,2.9,4.7,6.8,4.7,11v15.8c0,0.1-0.1,0.2-0.2,0.2
		c-2.1,0.6-4.4,1.1-6.6,1.4c-2.7,0.4-5.4,0.6-8.1,0.6c-3.1,0-6.2-0.3-9.2-0.8c-2.6-0.4-5.2-1.1-7.7-1.9c-0.1,0-0.2-0.1-0.2-0.2
		L20.9,43.6z"/>
	<path d="M72.2,53.7C72.2,53.6,72.2,53.6,72.2,53.7c0-8.1,0-19.1-9-21.9c-0.1,0-0.2-0.1-0.2-0.2c0-0.1,0-0.2,0.1-0.2
		c0.7-0.4,1.3-0.9,1.8-1.3c1.8-1.7,2.7-4,2.7-6.4c0-2.4-1-4.7-2.7-6.4c-1.7-1.7-4.1-2.6-6.5-2.6c-2.5,0-4.8,0.9-6.5,2.6
		c-1.8,1.7-2.7,4-2.7,6.4c0,2.4,1,4.7,2.7,6.4c0.8,0.8,1.8,1.4,2.9,1.9c0.1,0,0.1,0.1,0.1,0.1l0.8,2.6c0.4-0.1,0.8-0.2,1.3-0.3
		c0.5-0.1,1-0.1,1.5-0.1c2.8,0,5,0.8,6.7,2.4c3.9,3.8,3.9,11.4,3.9,17V54c0,0.1,0,0.1-0.1,0.2l0,0c-0.9,0.9-1.9,1.6-3.2,2
		c-1.4,0.5-3.1,0.8-5.9,1.1l0.3,3.2c3.1-0.3,5.1-0.7,6.7-1.3c2-0.7,3.6-1.8,5-3.4l0.4-1.1c0-0.3,0-0.5,0-0.7c0,0,0,0,0,0
		c0,0,0,0,0-0.1C72.2,53.7,72.2,53.7,72.2,53.7z M58.5,29.5c-1.6,0-3.1-0.6-4.2-1.7c-1.1-1.1-1.7-2.6-1.7-4.1c0-1.5,0.6-3,1.8-4.1
		c1.1-1.1,2.6-1.7,4.2-1.7c1.6,0,3.1,0.6,4.2,1.7c1.1,1.1,1.8,2.6,1.8,4.1c0,1.5-0.6,3-1.8,4.1C61.6,28.9,60.1,29.5,58.5,29.5z"/>
	<path d="M16.1,34.4c0.4,0.1,0.8,0.2,1.3,0.3l0.8-2.6c0-0.1,0.1-0.1,0.1-0.1c1.1-0.5,2-1.1,2.9-1.9c1.8-1.7,2.7-4,2.7-6.4
		c0-2.4-1-4.7-2.7-6.4c-1.8-1.7-4.1-2.6-6.5-2.6c-2.5,0-4.8,0.9-6.5,2.6c-1.8,1.7-2.7,4-2.7,6.4c0,2.4,1,4.6,2.7,6.4
		c0.5,0.5,1,0.9,1.8,1.3c0.1,0,0.1,0.1,0.1,0.2c0,0.1-0.1,0.2-0.2,0.2c-9,2.8-9,13.8-9,21.9c0,0,0,0,0,0.1c0,0,0,0.1,0,0.1
		c0,0,0,0,0,0c0,0,0,0,0,0c0,0,0,0,0,0c0,0,0,0,0,0c0,0.2,0,0.5,0,0.8l0.4,1.1c1.4,1.6,2.9,2.7,4.9,3.4c1.7,0.6,4,1.1,7.1,1.4l0-3.2
		c-2.8-0.3-4.6-0.6-6-1.1c-1.3-0.5-2.3-1.1-3.2-2h0c0,0-0.1-0.1-0.1-0.2v-0.3c0-5.5,0-13.1,3.9-17c1.6-1.6,3.9-2.4,6.7-2.4
		C15.1,34.3,15.6,34.3,16.1,34.4z M8.7,23.7c0-1.6,0.6-3,1.7-4.1c1.1-1.1,2.6-1.7,4.2-1.7c1.6,0,3.1,0.6,4.2,1.7
		c1.1,1.1,1.8,2.6,1.8,4.1c0,1.6-0.6,3-1.7,4.1c-1.1,1.1-2.6,1.7-4.2,1.7c-1.6,0-3.1-0.6-4.2-1.7C9.3,26.7,8.7,25.2,8.7,23.7z"/>
</mask>
<path class="st4" d="M72.2,53.7C72.2,53.6,72.2,53.6,72.2,53.7c0-8.1,0-19.1-9-21.9c-0.1,0-0.2-0.1-0.2-0.2c0-0.1,0-0.2,0.1-0.2
	c0.7-0.4,1.3-0.9,1.8-1.3c1.8-1.7,2.7-4,2.7-6.4c0-2.4-1-4.7-2.7-6.4c-1.7-1.7-4.1-2.6-6.5-2.6c-2.5,0-4.8,0.9-6.5,2.6
	c-1.8,1.7-2.7,4-2.7,6.4c0,2.4,1,4.7,2.7,6.4c0.8,0.8,1.8,1.4,2.9,1.9c0.1,0,0.1,0.1,0.1,0.1l0.8,2.6c0.4-0.1,0.8-0.2,1.3-0.3
	c0.5-0.1,1-0.1,1.5-0.1c2.8,0,5,0.8,6.7,2.4c3.9,3.8,3.9,11.4,3.9,17V54c0,0.1,0,0.1-0.1,0.2l0,0c-0.9,0.9-1.9,1.6-3.2,2
	c-1.4,0.5-3.1,0.8-5.9,1.1l0.3,3.2c3.1-0.3,5.1-0.7,6.7-1.3c2-0.7,3.6-1.8,5-3.4l0.4-1.1c0-0.3,0-0.5,0-0.7c0,0,0,0,0,0
	c0,0,0,0,0-0.1C72.2,53.7,72.2,53.7,72.2,53.7z M58.5,29.5c-1.6,0-3.1-0.6-4.2-1.7c-1.1-1.1-1.7-2.6-1.7-4.1c0-1.5,0.6-3,1.8-4.1
	c1.1-1.1,2.6-1.7,4.2-1.7c1.6,0,3.1,0.6,4.2,1.7c1.1,1.1,1.8,2.6,1.8,4.1c0,1.5-0.6,3-1.8,4.1C61.6,28.9,60.1,29.5,58.5,29.5z"/>
<defs>
	<filter id="Adobe_OpacityMaskFilter_2_" filterUnits="userSpaceOnUse" x="0.8" y="14.6" width="23.2" height="46.1">
		<feColorMatrix  type="matrix" values="1 0 0 0 0  0 1 0 0 0  0 0 1 0 0  0 0 0 1 0"/>
	</filter>
</defs>
<mask maskUnits="userSpaceOnUse" x="0.8" y="14.6" width="23.2" height="46.1" id="path-1-outside-1_3_">
	<rect x="-0.1" y="-0.2" class="st5" width="73" height="66"/>
	<path d="M17.7,61.2l1.1,0.4c3.1,1.1,6.3,1.9,9.5,2.5c6.1,1,12.4,1.1,18.4,0.2c2.8-0.4,5.6-1.1,8.4-1.9l1.1-0.3V43.6
		c0-5-2-9.7-5.7-13.2c-2.4-2.4-5.5-4.1-8.9-4.9c-0.1,0-0.2-0.1-0.2-0.2c0-0.1,0.1-0.2,0.1-0.2c1.7-0.6,3.2-1.6,4.4-2.8
		c2.4-2.4,3.8-5.5,3.8-8.9c0-3.3-1.3-6.5-3.8-8.9c-2.4-2.4-5.7-3.7-9.1-3.7c-3.4,0-6.6,1.3-9.1,3.7c-2.4,2.4-3.8,5.5-3.8,8.9
		c0,3.3,1.3,6.5,3.8,8.9c1.3,1.2,2.7,2.2,4.4,2.8c0.1,0,0.2,0.1,0.2,0.2c0,0.1-0.1,0.2-0.2,0.2c-3.4,0.8-6.5,2.5-8.9,4.9
		c-3.6,3.5-5.6,8.2-5.6,13.2V61.2z M30.1,20c-1.8-1.8-2.8-4.1-2.8-6.6c0-2.5,1-4.9,2.8-6.6C32,5,34.4,4,36.9,4c2.6,0,5,1,6.8,2.8
		c1.8,1.8,2.8,4.1,2.8,6.6c0,2.5-1,4.8-2.8,6.6c-1.8,1.8-4.2,2.7-6.8,2.7C34.4,22.7,32,21.8,30.1,20z M20.9,43.6
		c0-4.2,1.7-8.1,4.7-11c3-2.9,7-4.6,11.3-4.6c4.3,0,8.3,1.6,11.3,4.6c3,2.9,4.7,6.8,4.7,11v15.8c0,0.1-0.1,0.2-0.2,0.2
		c-2.1,0.6-4.4,1.1-6.6,1.4c-2.7,0.4-5.4,0.6-8.1,0.6c-3.1,0-6.2-0.3-9.2-0.8c-2.6-0.4-5.2-1.1-7.7-1.9c-0.1,0-0.2-0.1-0.2-0.2
		L20.9,43.6z"/>
	<path d="M72.2,53.7C72.2,53.6,72.2,53.6,72.2,53.7c0-8.1,0-19.1-9-21.9c-0.1,0-0.2-0.1-0.2-0.2c0-0.1,0-0.2,0.1-0.2
		c0.7-0.4,1.3-0.9,1.8-1.3c1.8-1.7,2.7-4,2.7-6.4c0-2.4-1-4.7-2.7-6.4c-1.7-1.7-4.1-2.6-6.5-2.6c-2.5,0-4.8,0.9-6.5,2.6
		c-1.8,1.7-2.7,4-2.7,6.4c0,2.4,1,4.7,2.7,6.4c0.8,0.8,1.8,1.4,2.9,1.9c0.1,0,0.1,0.1,0.1,0.1l0.8,2.6c0.4-0.1,0.8-0.2,1.3-0.3
		c0.5-0.1,1-0.1,1.5-0.1c2.8,0,5,0.8,6.7,2.4c3.9,3.8,3.9,11.4,3.9,17V54c0,0.1,0,0.1-0.1,0.2l0,0c-0.9,0.9-1.9,1.6-3.2,2
		c-1.4,0.5-3.1,0.8-5.9,1.1l0.3,3.2c3.1-0.3,5.1-0.7,6.7-1.3c2-0.7,3.6-1.8,5-3.4l0.4-1.1c0-0.3,0-0.5,0-0.7c0,0,0,0,0,0
		c0,0,0,0,0-0.1C72.2,53.7,72.2,53.7,72.2,53.7z M58.5,29.5c-1.6,0-3.1-0.6-4.2-1.7c-1.1-1.1-1.7-2.6-1.7-4.1c0-1.5,0.6-3,1.8-4.1
		c1.1-1.1,2.6-1.7,4.2-1.7c1.6,0,3.1,0.6,4.2,1.7c1.1,1.1,1.8,2.6,1.8,4.1c0,1.5-0.6,3-1.8,4.1C61.6,28.9,60.1,29.5,58.5,29.5z"/>
	<path d="M16.1,34.4c0.4,0.1,0.8,0.2,1.3,0.3l0.8-2.6c0-0.1,0.1-0.1,0.1-0.1c1.1-0.5,2-1.1,2.9-1.9c1.8-1.7,2.7-4,2.7-6.4
		c0-2.4-1-4.7-2.7-6.4c-1.8-1.7-4.1-2.6-6.5-2.6c-2.5,0-4.8,0.9-6.5,2.6c-1.8,1.7-2.7,4-2.7,6.4c0,2.4,1,4.6,2.7,6.4
		c0.5,0.5,1,0.9,1.8,1.3c0.1,0,0.1,0.1,0.1,0.2c0,0.1-0.1,0.2-0.2,0.2c-9,2.8-9,13.8-9,21.9c0,0,0,0,0,0.1c0,0,0,0.1,0,0.1
		c0,0,0,0,0,0c0,0,0,0,0,0c0,0,0,0,0,0c0,0,0,0,0,0c0,0.2,0,0.5,0,0.8l0.4,1.1c1.4,1.6,2.9,2.7,4.9,3.4c1.7,0.6,4,1.1,7.1,1.4l0-3.2
		c-2.8-0.3-4.6-0.6-6-1.1c-1.3-0.5-2.3-1.1-3.2-2h0c0,0-0.1-0.1-0.1-0.2v-0.3c0-5.5,0-13.1,3.9-17c1.6-1.6,3.9-2.4,6.7-2.4
		C15.1,34.3,15.6,34.3,16.1,34.4z M8.7,23.7c0-1.6,0.6-3,1.7-4.1c1.1-1.1,2.6-1.7,4.2-1.7c1.6,0,3.1,0.6,4.2,1.7
		c1.1,1.1,1.8,2.6,1.8,4.1c0,1.6-0.6,3-1.7,4.1c-1.1,1.1-2.6,1.7-4.2,1.7c-1.6,0-3.1-0.6-4.2-1.7C9.3,26.7,8.7,25.2,8.7,23.7z"/>
</mask>
<path class="st6" d="M16.1,34.4c0.4,0.1,0.8,0.2,1.3,0.3l0.8-2.6c0-0.1,0.1-0.1,0.1-0.1c1.1-0.5,2-1.1,2.9-1.9
	c1.8-1.7,2.7-4,2.7-6.4c0-2.4-1-4.7-2.7-6.4c-1.8-1.7-4.1-2.6-6.5-2.6c-2.5,0-4.8,0.9-6.5,2.6c-1.8,1.7-2.7,4-2.7,6.4
	c0,2.4,1,4.6,2.7,6.4c0.5,0.5,1,0.9,1.8,1.3c0.1,0,0.1,0.1,0.1,0.2c0,0.1-0.1,0.2-0.2,0.2c-9,2.8-9,13.8-9,21.9c0,0,0,0,0,0.1
	c0,0,0,0.1,0,0.1c0,0,0,0,0,0c0,0,0,0,0,0c0,0,0,0,0,0c0,0,0,0,0,0c0,0.2,0,0.5,0,0.8l0.4,1.1c1.4,1.6,2.9,2.7,4.9,3.4
	c1.7,0.6,4,1.1,7.1,1.4l0-3.2c-2.8-0.3-4.6-0.6-6-1.1c-1.3-0.5-2.3-1.1-3.2-2h0c0,0-0.1-0.1-0.1-0.2v-0.3c0-5.5,0-13.1,3.9-17
	c1.6-1.6,3.9-2.4,6.7-2.4C15.1,34.3,15.6,34.3,16.1,34.4z M8.7,23.7c0-1.6,0.6-3,1.7-4.1c1.1-1.1,2.6-1.7,4.2-1.7
	c1.6,0,3.1,0.6,4.2,1.7c1.1,1.1,1.8,2.6,1.8,4.1c0,1.6-0.6,3-1.7,4.1c-1.1,1.1-2.6,1.7-4.2,1.7c-1.6,0-3.1-0.6-4.2-1.7
	C9.3,26.7,8.7,25.2,8.7,23.7z"/>
</svg>
