<?xml version="1.0" encoding="iso-8859-1"?>
<!-- Generator: Adobe Illustrator 19.1.0, SVG Export Plug-In . SVG Version: 6.00 Build 0)  -->
<svg version="1.1" xmlns="http://www.w3.org/2000/svg" xmlns:xlink="http://www.w3.org/1999/xlink" x="0px" y="0px"
	 viewBox="0 0 40 36.624" style="enable-background:new 0 0 40 36.624;" xml:space="preserve">
<style type="text/css">
	.st0{display:none;opacity:0.25;}
	.st1{display:inline;}
	.st2{fill:#009999;}
	.st3{fill:#2B2B2B;}
	.st4{fill:#DDDDDD;}
	.st5{fill:#FFFFFF;}
</style>
<g id="Backgrounds" class="st0">
	<rect x="-20" y="-20" class="st1" width="80" height="80"/>
</g>
<g id="Icons">
	<path id="speech-circle" class="st2" d="M4.713,36.624c-0.382,0-1.397,0-1.758-0.802c-0.521-1.157,0.224-1.783,0.625-2.12
		c0.116-0.097,0.253-0.211,0.403-0.361c1.171-1.179,1.723-2.45,1.968-3.213C2.161,26.831,0,22.301,0,17.601
		C0,7.896,8.972,0,19.999,0C31.027,0,40,7.896,40,17.601s-8.973,17.601-20.001,17.601c-2.742,0-5.394-0.478-7.888-1.424
		C9.663,35.841,6.337,36.624,4.713,36.624z M19.999,1.993c-9.928,0-18.006,7.002-18.006,15.608c0,4.362,2.029,8.41,5.714,11.398
		c0.291,0.236,0.425,0.616,0.347,0.982c-0.129,0.605-0.683,2.676-2.472,4.574c1.491-0.225,3.903-0.978,5.629-2.647
		c0.285-0.275,0.706-0.357,1.073-0.205c2.422,1,5.019,1.507,7.716,1.507c9.93,0,18.007-7.002,18.007-15.609
		S29.929,1.993,19.999,1.993z"/>
</g>
</svg>
