<?xml version="1.0" encoding="iso-8859-1"?>
<!-- Generator: Adobe Illustrator 19.1.0, SVG Export Plug-In . SVG Version: 6.00 Build 0)  -->
<svg version="1.1" id="Layer_1" xmlns="http://www.w3.org/2000/svg" xmlns:xlink="http://www.w3.org/1999/xlink" x="0px" y="0px"
	 viewBox="180.256 -150.374 40 40" style="enable-background:new 180.256 -150.374 40 40;" xml:space="preserve">
<style type="text/css">
	.st0{fill:#009797;}
	.st1{fill:#009898;}
	.st2{fill:#009797;stroke:#009797;stroke-width:0.3403;stroke-linecap:round;stroke-linejoin:round;stroke-miterlimit:10;}
	.st3{fill:#009797;stroke:#009797;stroke-width:0.3391;stroke-linecap:round;stroke-linejoin:round;stroke-miterlimit:10;}
</style>
<g>
	<path class="st0" d="M214.179-145.277c-0.513-0.326-1.107-0.509-1.73-0.509c-0.231,0-0.459,0.024-0.686,0.074
		c-0.223,0.05-0.442,0.123-0.658,0.223c-0.801,0.369-1.381,1.032-1.664,1.806c-0.284,0.767-0.274,1.645,0.097,2.45
		c0.261,0.567,0.679,1.033,1.188,1.355c0.508,0.327,1.106,0.512,1.727,0.512c0.232,0,0.463-0.026,0.688-0.074
		c0.22-0.049,0.439-0.122,0.652-0.223c0.803-0.371,1.383-1.032,1.668-1.804c0.283-0.77,0.275-1.649-0.096-2.452
		C215.102-144.483,214.685-144.95,214.179-145.277z M214.263-141.905c-0.172,0.465-0.521,0.863-1.004,1.085
		c-0.121,0.057-0.254,0.103-0.394,0.133c-0.138,0.028-0.27,0.043-0.414,0.043c-0.381,0-0.74-0.108-1.047-0.303
		c-0.304-0.196-0.556-0.477-0.714-0.82c-0.221-0.482-0.225-1.014-0.053-1.48c0.172-0.462,0.52-0.861,1.004-1.086
		c0.125-0.056,0.256-0.099,0.39-0.13c0.135-0.029,0.272-0.044,0.418-0.044c0.381,0,0.741,0.11,1.045,0.304
		c0.308,0.194,0.554,0.476,0.711,0.818C214.429-142.901,214.433-142.373,214.263-141.905z"/>
	<path class="st0" d="M220.214-141.167c-0.025-0.107-0.062-0.216-0.107-0.318c-0.002-0.006-0.004-0.011-0.006-0.017
		c-0.086-0.179-0.201-0.337-0.344-0.472c-0.007-0.004-0.013-0.008-0.018-0.013c-0.154-0.144-0.33-0.253-0.523-0.324l-0.205-0.075
		c-0.052-0.018-0.084-0.066-0.082-0.119c0.002-0.105,0-0.213-0.004-0.319c-0.007-0.108-0.013-0.219-0.021-0.328
		c-0.006-0.053,0.023-0.103,0.07-0.125l0.199-0.092c0.006-0.003,0.012-0.005,0.018-0.007c0.373-0.174,0.66-0.487,0.809-0.884
		c0.145-0.393,0.127-0.821-0.047-1.205c-0.004-0.005-0.006-0.011-0.008-0.016l-0.414-0.902c-0.004-0.005-0.006-0.01-0.008-0.016
		c-0.178-0.382-0.492-0.674-0.889-0.821c-0.39-0.143-0.822-0.127-1.203,0.048c-0.002,0.001-0.008,0.002-0.013,0.006l-0.192,0.088
		c-0.049,0.02-0.104,0.011-0.144-0.027c-0.075-0.078-0.155-0.155-0.233-0.229l-0.031-0.027c-0.068-0.062-0.139-0.124-0.211-0.184
		c-0.041-0.034-0.057-0.091-0.037-0.141l0.07-0.187c0-0.008,0.002-0.015,0.006-0.022c0.072-0.194,0.105-0.398,0.096-0.607
		c-0.008-0.205-0.055-0.402-0.137-0.584c-0.004-0.005-0.006-0.01-0.008-0.016c-0.092-0.195-0.211-0.363-0.359-0.497
		c-0.154-0.145-0.332-0.254-0.531-0.328l-0.959-0.354c-0.175-0.064-0.355-0.096-0.538-0.096l-0.065,0.002
		c-0.209,0.007-0.41,0.054-0.601,0.139c-0.192,0.09-0.36,0.213-0.504,0.367c-0.139,0.15-0.246,0.327-0.319,0.524
		c-0.002,0.008-0.006,0.016-0.011,0.023l-0.069,0.187c-0.02,0.049-0.066,0.081-0.117,0.081h-0.002h-0.055
		c-0.089,0-0.177,0.002-0.267,0.004c-0.106,0.004-0.215,0.012-0.324,0.021c-0.051,0.015-0.105-0.023-0.125-0.071l-0.094-0.2
		c-0.002-0.003-0.002-0.006-0.004-0.009c-0.181-0.381-0.494-0.671-0.888-0.815c-0.387-0.142-0.813-0.128-1.188,0.039
		c-0.004,0.004-0.011,0.007-0.019,0.01l-0.924,0.425c-0.006,0.003-0.012,0.006-0.018,0.007c-0.379,0.181-0.666,0.494-0.811,0.886
		c-0.146,0.392-0.129,0.818,0.045,1.201c0.002,0.005,0.004,0.01,0.006,0.015l0.09,0.19c0.025,0.049,0.014,0.107-0.025,0.145
		c-0.08,0.075-0.154,0.154-0.229,0.234c-0.068,0.071-0.133,0.147-0.197,0.223c-0.035,0.04-0.111,0.073-0.156,0.056l-0.209-0.077
		c-0.176-0.064-0.359-0.097-0.547-0.097l-0.063,0.001c-0.209,0.009-0.411,0.058-0.602,0.144c-0.004,0.003-0.01,0.005-0.014,0.006
		c-0.184,0.089-0.346,0.209-0.482,0.359c-0.141,0.15-0.248,0.328-0.322,0.527l-0.354,0.957c-0.146,0.395-0.129,0.824,0.05,1.209
		c0.176,0.384,0.491,0.676,0.891,0.824l0.203,0.074c0.051,0.018,0.084,0.065,0.084,0.118c-0.002,0.107,0,0.214,0.004,0.322
		c0.004,0.109,0.012,0.218,0.021,0.327c0.004,0.053-0.024,0.103-0.073,0.124l-0.199,0.092c-0.385,0.181-0.678,0.497-0.822,0.891
		c-0.145,0.396-0.127,0.823,0.047,1.203c0.004,0.011,0.008,0.022,0.01,0.034l0.412,0.885c0.006,0.009,0.01,0.019,0.014,0.029
		c0.181,0.377,0.492,0.665,0.883,0.81c0.388,0.143,0.822,0.128,1.203-0.047l0.203-0.094c0.019-0.008,0.035-0.012,0.053-0.012
		c0.033,0,0.066,0.013,0.091,0.038c0.075,0.078,0.153,0.154,0.235,0.228c0.078,0.076,0.162,0.146,0.242,0.215
		c0.041,0.034,0.055,0.09,0.037,0.14l-0.076,0.205c-0.145,0.393-0.129,0.821,0.047,1.207c0.181,0.387,0.496,0.681,0.892,0.826
		l0.959,0.354c0.383,0.142,0.827,0.117,1.205-0.058c0.383-0.176,0.684-0.496,0.827-0.88l0.074-0.207
		c0.019-0.049,0.064-0.082,0.117-0.082h0.002h0.053c0.088,0,0.179-0.002,0.267-0.005c0.108-0.005,0.219-0.011,0.33-0.021
		c0.055,0.003,0.103,0.024,0.123,0.073l0.092,0.2c0.002,0.003,0.004,0.006,0.004,0.009c0.179,0.38,0.492,0.669,0.888,0.814
		c0.391,0.143,0.823,0.126,1.205-0.047c0.004-0.002,0.006-0.004,0.01-0.005l0.918-0.423c0.006-0.003,0.012-0.005,0.018-0.006
		c0.377-0.178,0.664-0.492,0.811-0.886c0.146-0.398,0.129-0.827-0.049-1.208l-0.09-0.2c-0.023-0.048-0.012-0.104,0.025-0.141
		c0.078-0.078,0.156-0.159,0.23-0.238c0.069-0.077,0.143-0.157,0.209-0.237c0.032-0.041,0.088-0.06,0.139-0.038l0.195,0.07
		c0.014,0.003,0.026,0.009,0.039,0.018c0.325,0.113,0.799,0.106,1.176-0.068c0.385-0.176,0.686-0.494,0.826-0.875
		c0.004-0.008,0.008-0.016,0.012-0.022l0.34-0.931c0.002-0.005,0.002-0.01,0.004-0.016c0.035-0.095,0.061-0.179,0.074-0.258
		c0.016-0.097,0.025-0.188,0.025-0.274c0-0.003,0-0.005,0-0.007c0-0.003,0-0.005,0-0.008
		C220.25-140.936,220.236-141.05,220.214-141.167z M218.912-140.812c0,0.014-0.004,0.036-0.008,0.047
		c-0.002,0.013-0.004,0.022-0.011,0.033l-0.344,0.932c-0.002,0.009-0.004,0.018-0.008,0.025c-0.022,0.052-0.068,0.097-0.127,0.124
		c-0.041,0.018-0.078,0.025-0.115,0.025c-0.008,0-0.021-0.001-0.035-0.004c-0.018-0.001-0.035-0.005-0.051-0.014l-1.229-0.455
		l-0.298,0.433c-0.137,0.201-0.291,0.396-0.461,0.58c-0.176,0.188-0.358,0.361-0.547,0.514l-0.401,0.326l0.553,1.203
		c0.026,0.058,0.029,0.124,0.006,0.188c-0.016,0.049-0.051,0.092-0.098,0.121c-0.009,0.008-0.019,0.014-0.027,0.018l-0.926,0.425
		c-0.002,0.001-0.004,0.002-0.008,0.002c-0.005,0.003-0.013,0.006-0.018,0.008c-0.051,0.017-0.107,0.015-0.162-0.002
		c-0.061-0.021-0.108-0.064-0.139-0.124c-0.002-0.005-0.006-0.011-0.008-0.017l-0.547-1.188l-0.508,0.093
		c-0.248,0.045-0.498,0.072-0.742,0.081c-0.25,0.006-0.502,0.001-0.748-0.025l-0.52-0.055l-0.459,1.247
		c-0.023,0.057-0.068,0.1-0.136,0.127c-0.03,0.017-0.071,0.027-0.11,0.027c-0.015,0-0.054-0.006-0.066-0.011l-0.961-0.357
		c-0.061-0.021-0.111-0.067-0.137-0.126c-0.027-0.054-0.029-0.125-0.006-0.19l0.459-1.242l-0.431-0.294
		c-0.198-0.135-0.396-0.291-0.584-0.465c-0.187-0.174-0.357-0.356-0.508-0.542l-0.326-0.404l-1.203,0.553
		c-0.062,0.03-0.131,0.03-0.191,0.005c-0.051-0.018-0.096-0.057-0.125-0.104c-0.006-0.011-0.012-0.021-0.017-0.034l-0.411-0.896
		c-0.007-0.007-0.011-0.015-0.013-0.021c-0.024-0.058-0.024-0.121-0.004-0.184c0.023-0.062,0.064-0.109,0.117-0.135l1.213-0.559
		l-0.095-0.511c-0.047-0.243-0.073-0.491-0.082-0.737c-0.012-0.233-0.002-0.479,0.025-0.747l0.057-0.52l-1.25-0.462
		c-0.061-0.02-0.11-0.068-0.137-0.132c-0.025-0.046-0.029-0.112-0.006-0.178l0.353-0.962c0.015-0.031,0.029-0.063,0.06-0.09
		c0.013-0.014,0.031-0.028,0.056-0.04c0.004-0.002,0.008-0.004,0.012-0.006c0.031-0.017,0.066-0.024,0.1-0.024h0.002
		c0.033,0,0.062,0.006,0.092,0.018l1.244,0.46l0.295-0.432c0.135-0.199,0.291-0.396,0.465-0.583
		c0.174-0.188,0.353-0.354,0.541-0.508l0.404-0.327l-0.548-1.193c0-0.002-0.002-0.004-0.002-0.006
		c-0.033-0.064-0.035-0.137-0.011-0.2c0.019-0.046,0.052-0.086,0.093-0.113c0.002-0.001,0.004-0.003,0.006-0.004
		c0.008-0.006,0.017-0.011,0.022-0.015l0.931-0.428c0.008-0.004,0.015-0.006,0.021-0.008c0.055-0.019,0.117-0.019,0.168,0.002
		c0.07,0.03,0.107,0.071,0.127,0.106c0.008,0.009,0.013,0.02,0.017,0.03l0.549,1.191l0.513-0.093
		c0.243-0.046,0.493-0.074,0.741-0.082c0.234-0.011,0.477-0.001,0.742,0.026l0.521,0.058l0.453-1.231
		c0.002-0.006,0.004-0.013,0.006-0.019c0.01-0.025,0.026-0.062,0.061-0.093c0.006-0.011,0.033-0.026,0.051-0.036
		c0.048-0.021,0.08-0.03,0.111-0.03c0.036,0,0.067,0.007,0.098,0.021l0.953,0.349c0.031,0.015,0.054,0.025,0.074,0.043
		c0.03,0.03,0.047,0.053,0.057,0.068c0.009,0.013,0.013,0.026,0.017,0.04c0.006,0.02,0.014,0.043,0.016,0.065
		c0,0.049-0.008,0.08-0.021,0.108c-0.002,0.002-0.002,0.005-0.004,0.007l-0.453,1.23l0.433,0.295
		c0.205,0.142,0.401,0.298,0.582,0.465c0.196,0.184,0.362,0.36,0.506,0.541l0.328,0.403l1.202-0.554
		c0.005-0.002,0.009-0.003,0.013-0.005c0.006-0.002,0.013-0.004,0.019-0.006c0.055-0.015,0.108-0.013,0.162,0.006
		c0.053,0.019,0.096,0.057,0.125,0.107c0.004,0.006,0.008,0.013,0.012,0.019l0.422,0.917c0.004,0.005,0.006,0.01,0.008,0.015
		c0.023,0.053,0.025,0.119,0.004,0.181c-0.018,0.056-0.055,0.101-0.105,0.131c-0.006,0.005-0.014,0.01-0.02,0.013l-1.205,0.553
		l0.097,0.508c0.043,0.245,0.069,0.495,0.08,0.745c0.008,0.249-0.002,0.498-0.027,0.742l-0.059,0.52l1.25,0.462
		c0.028,0.012,0.057,0.023,0.079,0.045c0.011,0.009,0.018,0.018,0.022,0.028c0.009,0.009,0.017,0.02,0.023,0.032
		c0.006,0.008,0.01,0.017,0.014,0.025c0.002,0.005,0.011,0.03,0.013,0.035c0.006,0.039,0.008,0.051,0.008,0.06
		C218.914-140.822,218.914-140.817,218.912-140.812z"/>
	<path class="st0" d="M199.081-131.658c-1.228-0.788-2.677-1.231-4.187-1.231c-0.559,0-1.108,0.061-1.649,0.182
		c-0.539,0.117-1.068,0.295-1.59,0.532h-0.002c-1.941,0.896-3.34,2.5-4.027,4.362c-0.688,1.861-0.666,3.984,0.227,5.932v0.002
		c0.631,1.367,1.642,2.496,2.869,3.283c1.228,0.785,2.673,1.228,4.183,1.228v0.004c0.559,0,1.111-0.062,1.654-0.183h0.004
		c0.537-0.116,1.068-0.295,1.584-0.532c1.943-0.896,3.34-2.498,4.029-4.363c0.688-1.86,0.664-3.985-0.23-5.93
		C201.314-129.746,200.307-130.874,199.081-131.658z M200.684-122.989c-0.547,1.48-1.656,2.754-3.203,3.467
		c-0.403,0.186-0.823,0.328-1.258,0.422v0.002c-0.431,0.094-0.871,0.141-1.318,0.141v0.005c-1.2,0-2.353-0.354-3.332-0.979
		c-0.975-0.625-1.776-1.52-2.276-2.613l-0.002,0.002c-0.711-1.547-0.727-3.238-0.178-4.723c0.547-1.482,1.657-2.756,3.2-3.468l0,0
		c0.404-0.186,0.826-0.327,1.261-0.421c0.428-0.097,0.869-0.144,1.316-0.144c1.203,0,2.354,0.352,3.328,0.974
		c0.977,0.627,1.779,1.525,2.281,2.615C201.214-126.165,201.232-124.473,200.684-122.989z"/>
	<path class="st0" d="M208.526-123.41c-0.246-0.229-0.533-0.406-0.851-0.521v-0.002l-0.896-0.33c0.02-0.371,0.024-0.742,0.01-1.115
		c-0.014-0.373-0.045-0.746-0.094-1.119l0.865-0.396h0.002h0.002c0.639-0.295,1.098-0.821,1.325-1.436
		c0.226-0.612,0.218-1.312-0.075-1.95h-0.002l-0.822-1.791v-0.002c-0.297-0.641-0.824-1.103-1.439-1.328
		c-0.611-0.226-1.311-0.219-1.953,0.076l-0.863,0.399c-0.25-0.276-0.512-0.542-0.787-0.797c-0.272-0.253-0.561-0.491-0.854-0.716
		l0.332-0.899c0.115-0.315,0.168-0.647,0.156-0.979c-0.016-0.337-0.092-0.666-0.232-0.976h-0.002
		c-0.143-0.305-0.342-0.576-0.584-0.802c-0.244-0.227-0.533-0.404-0.848-0.522l-0.004-0.004l-1.85-0.683
		c-0.316-0.116-0.65-0.167-0.982-0.154c-0.33,0.012-0.658,0.09-0.967,0.23h-0.002c-0.308,0.142-0.58,0.342-0.808,0.588h-0.004
		c-0.228,0.244-0.401,0.531-0.519,0.85l-0.334,0.896c-0.364-0.021-0.735-0.024-1.108-0.009c-0.375,0.015-0.748,0.045-1.121,0.096
		l-0.398-0.867v-0.002c-0.293-0.641-0.822-1.102-1.436-1.328c-0.615-0.227-1.314-0.219-1.953,0.076l-1.789,0.825v0.002
		c-0.643,0.294-1.102,0.821-1.328,1.436c-0.227,0.61-0.217,1.309,0.078,1.95v0.002l0.398,0.868
		c-0.281,0.251-0.549,0.515-0.803,0.788c-0.25,0.271-0.49,0.557-0.713,0.85l-0.898-0.334c-0.316-0.116-0.65-0.167-0.984-0.153
		c-0.334,0.013-0.66,0.092-0.969,0.231c-0.309,0.145-0.58,0.344-0.809,0.589c-0.226,0.242-0.402,0.529-0.519,0.848l-0.687,1.85
		v0.002c-0.241,0.658-0.192,1.357,0.08,1.951c0.271,0.594,0.775,1.084,1.435,1.328h0.002l0.896,0.332
		c-0.021,0.369-0.022,0.736-0.01,1.109c0.017,0.373,0.045,0.746,0.096,1.123l-0.864,0.395h-0.003
		c-0.641,0.299-1.102,0.826-1.328,1.437c-0.223,0.611-0.215,1.308,0.076,1.947h-0.002v0.002l0.004,0.004l0.824,1.793
		c0.295,0.64,0.822,1.103,1.438,1.326c0.611,0.229,1.311,0.221,1.951-0.076l0.869-0.399c0.248,0.278,0.512,0.545,0.785,0.795
		c0.27,0.254,0.557,0.492,0.854,0.72l-0.332,0.899c-0.244,0.657-0.197,1.356,0.078,1.95c0.273,0.595,0.773,1.084,1.436,1.328
		l1.851,0.687c0.645,0.235,1.346,0.181,1.944-0.094c0.598-0.277,1.096-0.772,1.334-1.421l0.332-0.898
		c0.367,0.021,0.738,0.023,1.108,0.011c0.373-0.015,0.746-0.045,1.119-0.097l0.399,0.867h0.002v0.004
		c0.296,0.64,0.82,1.099,1.435,1.324c0.608,0.228,1.309,0.219,1.945-0.074l0.004-0.002l1.793-0.824
		c0.642-0.293,1.103-0.819,1.33-1.437c0.225-0.612,0.217-1.311-0.078-1.95v-0.002l-0.398-0.867c0.278-0.252,0.545-0.515,0.797-0.789
		c0.254-0.271,0.492-0.558,0.717-0.851l0.881,0.324l0.014,0.01c0.645,0.238,1.348,0.181,1.947-0.094
		c0.6-0.276,1.1-0.772,1.338-1.418l-0.003-0.002l0.002-0.004l0.683-1.85c0.116-0.314,0.168-0.648,0.155-0.98
		c-0.012-0.334-0.09-0.666-0.231-0.971C208.971-122.912,208.772-123.184,208.526-123.41z M207.698-121.199l-0.678,1.834
		l-0.004,0.014c-0.09,0.234-0.279,0.422-0.512,0.529c-0.229,0.105-0.494,0.129-0.729,0.041l-0.002,0.002l-0.004-0.002l-1.459-0.541
		l-0.578-0.215l-0.352,0.514c-0.281,0.412-0.597,0.807-0.939,1.178c-0.343,0.371-0.709,0.717-1.104,1.037l-0.48,0.387l0.26,0.56
		l0.652,1.412h0.002c0.109,0.239,0.109,0.508,0.023,0.741c-0.084,0.232-0.26,0.433-0.502,0.543h0.002l-1.789,0.824h-0.002
		c-0.242,0.111-0.508,0.111-0.742,0.025c-0.23-0.084-0.428-0.26-0.539-0.498h-0.002v-0.004l-0.65-1.41l-0.26-0.559l-0.603,0.111
		c-0.504,0.092-1.004,0.146-1.502,0.166c-0.504,0.02-1.006,0-1.508-0.054l-0.615-0.067l-0.213,0.584l-0.541,1.463
		c-0.086,0.232-0.275,0.418-0.51,0.524c-0.232,0.104-0.498,0.134-0.734,0.046l-1.85-0.687c-0.246-0.093-0.437-0.277-0.539-0.503
		c-0.104-0.225-0.121-0.491-0.031-0.739l0.541-1.463l0.213-0.576l-0.512-0.354c-0.412-0.283-0.808-0.596-1.18-0.938
		c-0.369-0.342-0.714-0.709-1.031-1.103l-0.387-0.478l-0.562,0.258l-1.414,0.652c-0.238,0.111-0.507,0.113-0.738,0.027
		c-0.231-0.086-0.432-0.26-0.543-0.502l-0.819-1.785v-0.002l-0.004-0.004c-0.111-0.242-0.113-0.508-0.027-0.742
		c0.086-0.232,0.258-0.434,0.498-0.543h0.002h0.002l-0.002-0.002l1.41-0.646l0.565-0.256l-0.11-0.607
		c-0.095-0.5-0.146-1.002-0.166-1.5c-0.021-0.502-0.002-1.004,0.053-1.508l0.066-0.615l-0.58-0.215l-1.466-0.539v0.002l-0.002-0.002
		c-0.245-0.092-0.437-0.277-0.539-0.504c-0.104-0.223-0.122-0.488-0.028-0.738l0.684-1.851c0.043-0.121,0.111-0.229,0.195-0.32
		c0.084-0.093,0.186-0.166,0.307-0.222c0.117-0.054,0.242-0.084,0.365-0.089c0.123-0.005,0.25,0.017,0.377,0.062l1.459,0.541
		l0.578,0.214l0.352-0.513c0.281-0.411,0.596-0.806,0.938-1.174c0.341-0.371,0.709-0.719,1.104-1.037l0.48-0.386l-0.258-0.56
		l-0.652-1.41v-0.003v-0.001c-0.109-0.241-0.111-0.507-0.025-0.741c0.086-0.231,0.258-0.431,0.5-0.542h-0.001l1.791-0.825
		c0.238-0.112,0.507-0.113,0.738-0.027c0.233,0.086,0.433,0.261,0.545,0.503h0.002l0.646,1.41l0.258,0.56l0.607-0.11
		c0.5-0.093,1.002-0.148,1.502-0.168c0.5-0.019,1.004-0.001,1.506,0.055l0.613,0.065l0.217-0.582l0.539-1.461
		c0.045-0.124,0.113-0.232,0.197-0.324l-0.002-0.001c0.082-0.089,0.188-0.162,0.309-0.219v-0.002
		c0.117-0.054,0.24-0.082,0.363-0.087c0.123-0.004,0.25,0.017,0.377,0.062l1.85,0.684v-0.001c0.123,0.045,0.232,0.112,0.322,0.197
		c0.092,0.082,0.164,0.184,0.219,0.303v0.003c0.056,0.119,0.086,0.242,0.09,0.363c0.005,0.125-0.016,0.254-0.061,0.38l-0.539,1.46
		l-0.216,0.58l0.513,0.349c0.414,0.283,0.809,0.595,1.182,0.939c0.359,0.334,0.705,0.7,1.027,1.103l0.389,0.479l0.562-0.26
		l1.411-0.651c0.24-0.11,0.507-0.111,0.742-0.026c0.229,0.084,0.431,0.26,0.543,0.501l0.821,1.788v0.003v0.002
		c0.111,0.241,0.113,0.505,0.027,0.739c-0.084,0.231-0.258,0.431-0.5,0.543v0.002l-1.412,0.646l-0.563,0.258l0.112,0.609
		c0.097,0.502,0.152,1.002,0.171,1.496c0.018,0.504,0.002,1.006-0.054,1.51l-0.067,0.615l0.584,0.213l1.461,0.543h0.004
		c0.121,0.045,0.23,0.109,0.317,0.191c0.091,0.084,0.164,0.186,0.222,0.309c0.056,0.121,0.086,0.242,0.092,0.363
		C207.766-121.453,207.745-121.326,207.698-121.199z"/>
</g>
</svg>
