<?xml version="1.0" encoding="iso-8859-1"?>
<!-- Generator: Adobe Illustrator 20.0.0, SVG Export Plug-In . SVG Version: 6.00 Build 0)  -->
<svg version="1.1" id="Layer_1" xmlns="http://www.w3.org/2000/svg" xmlns:xlink="http://www.w3.org/1999/xlink" x="0px" y="0px"
	 width="40px" height="40px" viewBox="-192.5 258.084 40 40" style="enable-background:new -192.5 258.084 40 40;"
	 xml:space="preserve">
<style type="text/css">
	.st0{fill:#009797;}
	.st1{fill:#009898;}
	.st2{fill:#029696;}
	.st3{fill:#009797;stroke:#009797;stroke-width:0.1864;stroke-linecap:round;stroke-linejoin:round;stroke-miterlimit:10;}
</style>
<g id="Icons_8_">
	<path class="st0" d="M-160.508,298.041c-0.058,0-0.116-0.006-0.173-0.016c-0.25-0.05-25.029-5.144-31.811-32.003
		c-0.165-0.746,2.241-5.673,6.957-7.854c0.204-0.093,0.435-0.11,0.648-0.043c0.31,0.094,7.632,2.408,10.368,10.434
		c0.099,0.29,0.045,0.61-0.144,0.852l-1.22,1.57c-0.061,0.079-0.134,0.146-0.217,0.201c-0.988,0.654-2.028,1.243-3.098,1.757
		c0.663,2.3,3.413,9.577,12.145,11.852c0.914-2.373,1.272-2.802,1.725-2.876c0.118-0.087,0.308-0.241,0.456-0.362
		c0.55-0.449,1.174-0.959,1.754-1.176c0.129-0.048,0.272-0.073,0.424-0.073c1.8,0,8.688,4.364,10.042,10.241
		c0.041,0.176,0.028,0.357-0.035,0.526c-0.075,0.2-1.914,4.935-7.517,6.918C-160.302,298.023-160.405,298.041-160.508,298.041z
		 M-190.648,265.878c6.24,24.065,27.577,29.723,30.075,30.304c3.96-1.499,5.657-4.618,6.073-5.511
		c-1.284-4.765-6.891-8.208-8.113-8.524c-0.314,0.171-0.783,0.554-1.107,0.819c-0.343,0.278-0.592,0.482-0.82,0.607
		c-0.234,0.434-0.722,1.62-1.09,2.609c-0.159,0.425-0.605,0.67-1.049,0.573c-12.044-2.629-14.459-14.033-14.482-14.148
		c-0.084-0.418,0.134-0.838,0.524-1.011c1.18-0.523,2.325-1.145,3.407-1.852l0.82-1.056c-2.228-5.906-7.356-8.199-8.688-8.707
		C-188.515,261.711-190.217,264.953-190.648,265.878z"/>
</g>
</svg>
