<?xml version="1.0" encoding="iso-8859-1"?>
<!-- Generator: Adobe Illustrator 19.1.0, SVG Export Plug-In . SVG Version: 6.00 Build 0)  -->
<svg version="1.1" id="Layer_1" xmlns="http://www.w3.org/2000/svg" xmlns:xlink="http://www.w3.org/1999/xlink" x="0px" y="0px"
	 viewBox="-120.042 151.334 40 37.917" style="enable-background:new -120.042 151.334 40 37.917;" xml:space="preserve">
<style type="text/css">
	.st0{fill:#009797;}
	.st1{fill:#009898;}
	.st2{fill:#009797;stroke:#009797;stroke-width:0.3403;stroke-linecap:round;stroke-linejoin:round;stroke-miterlimit:10;}
	.st3{fill:#009797;stroke:#009797;stroke-width:0.3391;stroke-linecap:round;stroke-linejoin:round;stroke-miterlimit:10;}
</style>
<g>
	<g>
		<g>
			<path class="st0" d="M-91.73,158.45h4.48l-4.48-4.472V158.45z M-85.329,160.04h-0.022h-7.174c-0.439,0-0.793-0.356-0.793-0.793
				l0.06-7.241v-0.005c-0.002-0.438,0.354-0.794,0.793-0.794c0.222,0,0.423,0.091,0.569,0.237l7.13,7.241h0.002
				c0.308,0.31,0.308,0.812,0,1.123C-84.921,159.961-85.124,160.04-85.329,160.04L-85.329,160.04z"/>
		</g>
		<g>
			<path class="st0" d="M-92.795,152.796h-21.041l-0.06,34.864h27.771v-28.085L-92.795,152.796L-92.795,152.796z M-114.63,151.207
				h22.165c0.222,0,0.423,0.091,0.569,0.237l7.13,7.241h0.002c0.153,0.153,0.231,0.357,0.231,0.562l0,0v29.21
				c0,0.437-0.356,0.794-0.795,0.794h-29.362c-0.438,0-0.795-0.357-0.795-0.794l0.06-36.456
				C-115.426,151.564-115.068,151.207-114.63,151.207L-114.63,151.207z"/>
		</g>
		<g>
			<rect x="-110.422" y="177.538" class="st0" width="20.666" height="1.432"/>
		</g>
		<g>
			<rect x="-110.422" y="172.896" class="st0" width="20.666" height="1.433"/>
		</g>
		<g>
			<rect x="-100.293" y="168.312" class="st0" width="10.536" height="1.432"/>
		</g>
		<g>
			<rect x="-110.422" y="182.369" class="st0" width="20.666" height="1.432"/>
		</g>
	</g>
	<g>
		<path class="st0" d="M-106.806,165.098c0.253,0.243,0.581,0.356,0.851,0.356l0,0c0.334-0.02,0.649-0.125,0.872-0.342
			c0.195-0.189,0.337-0.477,0.376-0.89c0.004-0.026,0.006-0.088,0.01-0.156c0.002-0.099,0.004-0.198,0.004-0.266
			c0-0.017-0.002-0.03-0.002-0.046h0.004l0,0c0.001-0.502-0.129-0.805-0.336-0.973c-0.216-0.175-0.538-0.244-0.895-0.255
			c-0.007,0-0.016,0-0.022,0l0,0h-0.012c-0.367,0.008-0.704,0.076-0.926,0.256c-0.201,0.164-0.332,0.452-0.336,0.929
			c0,0.015,0.002,0.029,0.002,0.044h-0.002l0,0c0,0.059,0.002,0.188,0.008,0.311c0.001,0.069,0.004,0.13,0.006,0.156
			C-107.166,164.614-107.01,164.9-106.806,165.098z M-105.963,166.553c-0.516-0.002-1.133-0.212-1.606-0.665
			c-0.376-0.362-0.661-0.879-0.727-1.561c-0.006-0.05-0.01-0.138-0.013-0.229c-0.004-0.116-0.006-0.263-0.006-0.333h-0.002
			c-0.002-0.018,0-0.034,0.002-0.051c0.004-0.852,0.291-1.414,0.737-1.78c0.443-0.357,1.013-0.489,1.61-0.501v-0.002
			c0.026,0,0.049,0,0.072,0.003c0.576,0.018,1.125,0.154,1.556,0.502c0.457,0.371,0.746,0.948,0.739,1.829l-0.545-0.002l0.549,0.004
			c0,0.018-0.002,0.032-0.004,0.048c0,0.078-0.001,0.189-0.005,0.285c-0.002,0.092-0.006,0.179-0.014,0.229
			c-0.066,0.699-0.33,1.215-0.706,1.577c-0.438,0.423-1.015,0.619-1.605,0.646v0.001
			C-105.94,166.553-105.952,166.553-105.963,166.553z"/>
	</g>
	<g>
		<path class="st0" d="M-104.015,165.053c-0.285-0.108-0.602,0.033-0.71,0.317c-0.107,0.285,0.035,0.599,0.318,0.708
			c0.44,0.167,0.822,0.5,1.092,0.933c0.276,0.438,0.436,0.977,0.436,1.559v0.057c0,0.009-0.002,0.018-0.002,0.021h-6.152
			c0-0.005,0-0.013,0-0.021v-0.057c0-0.588,0.163-1.131,0.439-1.567c0.276-0.436,0.663-0.767,1.106-0.931
			c0.286-0.104,0.43-0.42,0.327-0.705c-0.104-0.284-0.419-0.429-0.704-0.324c-0.672,0.248-1.251,0.737-1.656,1.375
			c-0.383,0.609-0.613,1.356-0.613,2.154v0.058c0,0.291,0.108,0.56,0.279,0.761c0.192,0.221,0.462,0.357,0.764,0.357h6.27
			c0.304,0,0.574-0.137,0.764-0.357c0.171-0.201,0.279-0.47,0.279-0.761v-0.058c0-0.793-0.223-1.534-0.604-2.138
			C-102.78,165.795-103.349,165.307-104.015,165.053L-104.015,165.053z"/>
	</g>
	<g>
		<path class="st0" d="M-92.649,167.28l-2.004-5.595h1.228l1.416,4.141l1.372-4.141h1.201l-2.005,5.595H-92.649z M-96.144,165.223
			l1.095,0.347c-0.168,0.612-0.447,1.064-0.838,1.362c-0.391,0.295-0.888,0.443-1.489,0.443c-0.743,0-1.356-0.255-1.835-0.76
			c-0.479-0.509-0.717-1.204-0.717-2.081c0-0.932,0.24-1.656,0.723-2.171c0.481-0.513,1.112-0.771,1.898-0.771
			c0.686,0,1.241,0.201,1.669,0.606c0.256,0.237,0.447,0.582,0.575,1.03l-1.121,0.267c-0.064-0.291-0.203-0.52-0.415-0.688
			c-0.21-0.169-0.466-0.251-0.766-0.251c-0.414,0-0.753,0.148-1.01,0.447c-0.259,0.296-0.388,0.777-0.388,1.443
			c0,0.708,0.125,1.212,0.382,1.511c0.253,0.302,0.584,0.451,0.993,0.451c0.299,0,0.559-0.097,0.774-0.287
			C-96.396,165.932-96.239,165.633-96.144,165.223z"/>
	</g>
</g>
</svg>
