<?xml version="1.0" encoding="utf-8"?>
<!-- Generator: Adobe Illustrator 20.0.0, SVG Export Plug-In . SVG Version: 6.00 Build 0)  -->
<svg version="1.1" id="Layer_1" xmlns="http://www.w3.org/2000/svg" xmlns:xlink="http://www.w3.org/1999/xlink" x="0px" y="0px"
	 width="40px" height="40px" viewBox="0 0 40 40" enable-background="new 0 0 40 40" xml:space="preserve">
<g>
	<g>
		<g>
			<path fill="#179796" d="M20.2,29.4c-2.7,0-4.7-0.8-6.1-2.4c-0.2-0.2-0.3-0.5-0.3-0.7c0-0.5,0.4-1.1,1-1.1c0.3,0,0.5,0.1,0.7,0.3
				c1.2,1.2,2.7,1.8,4.6,1.8c2.6,0,4.4-1.8,4.4-4c0-2.5-1.8-4.1-4.3-4.1c-1.4,0-2.8,0.5-3.9,1.4c-0.3,0.2-0.6,0.4-1,0.4
				c-0.7,0-1.2-0.5-1.2-1.2v-7.9c0-0.9,0.8-1.7,1.7-1.7h9c0.6,0,1,0.5,1,1.1c0,0.6-0.5,1-1,1h-8.4v6.6c0.9-0.9,2.5-1.7,4.4-1.7
				c3.1,0,6,2.2,6,6C26.9,27.1,23.9,29.4,20.2,29.4z"/>
			<path fill="#179796" d="M20.2,29.6c-2.7,0-4.7-0.8-6.2-2.4c-0.2-0.2-0.3-0.5-0.3-0.9c0-0.6,0.5-1.3,1.2-1.3
				c0.3,0,0.6,0.1,0.9,0.3c1.2,1.2,2.7,1.8,4.5,1.8c2.4,0,4.2-1.6,4.2-3.9c0-2.3-1.7-3.9-4.2-3.9c-1.4,0-2.8,0.5-3.8,1.3
				c-0.3,0.3-0.7,0.4-1.1,0.4c-0.8,0-1.4-0.6-1.4-1.3v-7.9c0-1,0.8-1.9,1.9-1.9h9c0.7,0,1.2,0.6,1.2,1.3c0,0.7-0.5,1.2-1.2,1.2h-8.2
				v6c0.9-0.8,2.4-1.5,4.2-1.5c4.1,0,6.2,3.1,6.2,6.2C27,27,24.2,29.6,20.2,29.6z M14.8,25.4c-0.5,0-0.8,0.5-0.8,0.9
				c0,0.3,0.1,0.5,0.2,0.6c1.5,1.6,3.4,2.3,6,2.3c3.8,0,6.5-2.5,6.5-6.1c0-4-3-5.9-5.8-5.9c-2,0-3.5,0.9-4.3,1.6
				c0,0.1-0.1,0.1-0.2,0c-0.1,0-0.1-0.1-0.1-0.2v-6.6c0-0.1,0.1-0.2,0.2-0.2h8.4c0.5,0,0.8-0.4,0.8-0.8c0-0.5-0.4-0.9-0.8-0.9h-9
				c-0.8,0-1.5,0.7-1.5,1.5v7.9c0,0.6,0.5,1,1,1c0.3,0,0.6-0.1,0.9-0.3c1.1-0.9,2.5-1.4,4-1.4c2.7,0,4.5,1.7,4.5,4.3
				c0,2.4-1.9,4.2-4.5,4.2c-2,0-3.5-0.6-4.8-1.9C15.2,25.5,15,25.4,14.8,25.4z"/>
		</g>
	</g>
	<path fill="#179796" d="M19.9,39.6C9,39.6,0.1,30.7,0.1,19.8C0.1,8.9,9,0,19.9,0s19.8,8.9,19.8,19.8C39.7,30.7,30.8,39.6,19.9,39.6
		z M19.9,2.2c-9.7,0-17.5,7.9-17.5,17.5s7.9,17.5,17.5,17.5s17.5-7.9,17.5-17.5S29.5,2.2,19.9,2.2z"/>
</g>
</svg>
