<?xml version="1.0" encoding="iso-8859-1"?>
<!-- Generator: Adobe Illustrator 19.1.0, SVG Export Plug-In . SVG Version: 6.00 Build 0)  -->
<svg version="1.1" xmlns="http://www.w3.org/2000/svg" xmlns:xlink="http://www.w3.org/1999/xlink" x="0px" y="0px"
	 viewBox="0 0 40 39.949" style="enable-background:new 0 0 40 39.949;" xml:space="preserve">
<style type="text/css">
	.st0{display:none;opacity:0.25;}
	.st1{display:inline;}
	.st2{fill:#009999;}
	.st3{fill:#DDDDDD;}
	.st4{fill:#FFFFFF;}
	.st5{fill:#332F2F;}
</style>
<g id="Backgrounds" class="st0">
	<rect x="-20" y="-20" class="st1" width="80" height="80"/>
</g>
<g id="Icons">
	<path id="cross" class="st2" d="M38.483,31.146L27.108,19.826L38.095,8.786c2.007-2.017,1.999-5.279-0.018-7.286
		c-2.017-2.007-5.279-1.999-7.286,0.018l0,0L19.804,12.556L9.096,1.901C7.079-0.106,3.817-0.098,1.81,1.919
		s-1.999,5.279,0.018,7.286L12.537,19.86L1.55,30.901c-2.034,1.989-2.071,5.251-0.081,7.285c1.989,2.034,5.251,2.071,7.285,0.081
		c0.033-0.032,0.065-0.064,0.097-0.097l10.987-11.041l11.374,11.319c2.017,2.008,5.279,2.001,7.286-0.016
		C40.506,36.416,40.499,33.154,38.483,31.146z"/>
</g>
</svg>
