<?xml version="1.0" encoding="iso-8859-1"?>
<!-- Generator: Adobe Illustrator 19.1.0, SVG Export Plug-In . SVG Version: 6.00 Build 0)  -->
<svg version="1.1" id="Layer_1" xmlns="http://www.w3.org/2000/svg" xmlns:xlink="http://www.w3.org/1999/xlink" x="0px" y="0px"
	 viewBox="-181 -30.122 40 40" style="enable-background:new -181 -30.122 40 40;" xml:space="preserve">
<style type="text/css">
	.st0{fill:#009797;}
	.st1{fill:#009898;}
	.st2{fill:#009797;stroke:#009797;stroke-width:0.3403;stroke-linecap:round;stroke-linejoin:round;stroke-miterlimit:10;}
	.st3{fill:#009797;stroke:#009797;stroke-width:0.3391;stroke-linecap:round;stroke-linejoin:round;stroke-miterlimit:10;}
</style>
<g>
	<path class="st0" d="M-147.905,9.878h-25.92c-0.842,0-1.527-0.686-1.527-1.527v-34.27c0-0.842,0.685-1.527,1.527-1.527h8.308v-1.15
		c-0.001-0.842,0.685-1.527,1.527-1.527h6.197c0.844,0,1.527,0.685,1.527,1.527v1.15h8.359c0.843,0,1.525,0.685,1.525,1.527v34.27
		C-146.38,9.192-147.064,9.878-147.905,9.878z M-173.653,8.177h25.574v-33.923h-9.036c-0.469,0-0.85-0.381-0.85-0.85v-1.827h-5.854
		v1.827c0,0.469-0.379,0.85-0.85,0.85h-8.984V8.177z"/>
	<path class="st0" d="M-166.014-12.701h-3.806c-0.744,0-1.352-0.606-1.352-1.351v-3.737c0-0.745,0.607-1.35,1.352-1.35h3.807
		c0.744,0,1.352,0.605,1.352,1.35v3.737C-164.662-13.307-165.27-12.701-166.014-12.701z M-169.621-14.25h3.408v-3.338h-3.408V-14.25
		z"/>
	<path class="st0" d="M-166.014-3.764h-3.806c-0.744,0-1.352-0.605-1.352-1.351v-3.737c0-0.744,0.607-1.351,1.352-1.351h3.807
		c0.744,0,1.352,0.604,1.352,1.351v3.737C-164.662-4.369-165.27-3.764-166.014-3.764z M-169.621-5.312h3.408V-8.65h-3.408V-5.312z"
		/>
	<g>
		<rect x="-162.264" y="-16.642" class="st0" width="10.583" height="1.5"/>
	</g>
	<g>
		<rect x="-162.264" y="-7.809" class="st0" width="10.583" height="1.5"/>
	</g>
	<g>
		<rect x="-162.264" y="1.025" class="st0" width="10.583" height="1.5"/>
	</g>
	<path class="st0" d="M-168.803,4.543c-0.195,0-0.385-0.074-0.527-0.208l-1.844-1.72c-0.314-0.291-0.33-0.781-0.039-1.094
		c0.291-0.315,0.781-0.332,1.096-0.039l1.262,1.178l3.66-4.125c0.285-0.321,0.775-0.35,1.096-0.064
		c0.321,0.284,0.348,0.773,0.064,1.094l-4.188,4.719c-0.139,0.156-0.334,0.25-0.543,0.26
		C-168.777,4.543-168.791,4.543-168.803,4.543z"/>
</g>
</svg>
