<?xml version="1.0" encoding="iso-8859-1"?>
<!-- Generator: Adobe Illustrator 19.1.0, SVG Export Plug-In . SVG Version: 6.00 Build 0)  -->
<svg version="1.1" id="Layer_1" xmlns="http://www.w3.org/2000/svg" xmlns:xlink="http://www.w3.org/1999/xlink" x="0px" y="0px"
	 viewBox="180.256 33.917 40 30.083" style="enable-background:new 180.256 33.917 40 30.083;" xml:space="preserve">
<style type="text/css">
	.st0{fill:#009797;}
	.st1{fill:#009898;}
	.st2{fill:#009797;stroke:#009797;stroke-width:0.3403;stroke-linecap:round;stroke-linejoin:round;stroke-miterlimit:10;}
	.st3{fill:#009797;stroke:#009797;stroke-width:0.3391;stroke-linecap:round;stroke-linejoin:round;stroke-miterlimit:10;}
</style>
<g>
	<path class="st0" d="M218.741,60.367l-36.975,0.006c-0.832,0-1.511-0.691-1.511-1.54V35.458c0-0.85,0.679-1.541,1.511-1.541
		l36.975-0.006c0.834,0,1.509,0.691,1.509,1.541v23.375C220.25,59.676,219.575,60.367,218.741,60.367z M181.938,58.658l36.631-0.006
		V35.627l-36.631,0.006V58.658z"/>
	<g>
		<polygon class="st0" points="197.707,42.665 197.707,51.623 204.915,47.113 		"/>
		<path class="st0" d="M197.533,52.302c-0.083,0-0.166-0.021-0.241-0.062c-0.156-0.091-0.253-0.261-0.253-0.443v-8.956
			c0-0.183,0.097-0.351,0.253-0.439c0.154-0.09,0.346-0.087,0.499,0.008l7.207,4.447c0.146,0.091,0.238,0.254,0.238,0.431
			c0.002,0.177-0.091,0.339-0.236,0.433l-7.207,4.511C197.714,52.276,197.625,52.302,197.533,52.302z M198.028,43.736v7.16
			l5.76-3.607L198.028,43.736z"/>
	</g>
	<path class="st0" d="M208.388,63.942h-16.084c-0.464,0-0.841-0.386-0.841-0.858c0-0.474,0.377-0.857,0.841-0.857h16.084
		c0.468,0,0.843,0.385,0.843,0.857C209.23,63.557,208.855,63.942,208.388,63.942z"/>
</g>
</svg>
