<?xml version="1.0" encoding="iso-8859-1"?>
<!-- Generator: Adobe Illustrator 20.0.0, SVG Export Plug-In . SVG Version: 6.00 Build 0)  -->
<svg version="1.1" id="Layer_1" xmlns="http://www.w3.org/2000/svg" xmlns:xlink="http://www.w3.org/1999/xlink" x="0px" y="0px"
	 width="40px" height="38.167px" viewBox="-137.5 258.084 40 38.167" style="enable-background:new -137.5 258.084 40 38.167;"
	 xml:space="preserve">
<style type="text/css">
	.st0{fill:#009797;}
	.st1{fill:#009898;}
	.st2{fill:#029696;}
	.st3{fill:#009797;stroke:#009797;stroke-width:0.1864;stroke-linecap:round;stroke-linejoin:round;stroke-miterlimit:10;}
</style>
<g id="Icons_9_">
	<g id="shield">
		<path class="st0" d="M-117.656,296.065c-0.375,0-1.091-0.038-1.677-0.291c-0.123-0.055-1.165-0.52-2.365-1.194
			c-9.477-5.336-14.759-14.704-15.702-27.845l-0.099-1.36c-0.016-0.78,0.218-1.428,0.655-1.871c0.546-0.557,1.394-0.754,2.266-0.518
			l1.487,0.229c4.827,0.723,9.046-0.373,12.382-3.23l1.068-0.925c0.48-0.605,1.207-0.976,1.985-0.976
			c0.75,0,1.454,0.346,1.991,0.976l1.068,0.93c3.338,2.857,7.56,3.951,12.42,3.219l1.432-0.217c0.803-0.242,1.725-0.061,2.277,0.502
			c0.43,0.438,0.67,1.09,0.659,1.789l-0.104,1.453c-0.942,13.141-6.226,22.51-15.705,27.844c-1.052,0.592-1.98,1.022-2.33,1.18
			C-116.565,296.026-117.281,296.065-117.656,296.065z M-135.31,264.685c-0.171,0-0.231,0.061-0.251,0.08
			c-0.073,0.074-0.146,0.25-0.142,0.528l0.097,1.311c0.896,12.502,5.873,21.385,14.79,26.406c1.126,0.633,2.094,1.065,2.201,1.112
			c0.148,0.064,0.492,0.142,0.958,0.142c0.465,0,0.807-0.077,0.959-0.143c0.338-0.152,1.208-0.557,2.196-1.111
			c8.919-5.02,13.895-13.903,14.792-26.405l0.102-1.401c0.001-0.207-0.078-0.38-0.147-0.451c-0.084-0.085-0.28-0.098-0.509-0.031
			c-0.017,0.006-0.128,0.031-0.146,0.035l-1.499,0.23c-5.387,0.817-10.115-0.424-13.865-3.636l-1.128-0.982
			c-0.04-0.035-0.076-0.072-0.109-0.113c-0.39-0.48-0.904-0.479-1.288-0.002l-0.153,0.162l-1.086,0.935
			c-3.74,3.202-8.453,4.444-13.822,3.642l-1.545-0.236c-0.04-0.006-0.08-0.016-0.119-0.026
			C-135.128,264.7-135.224,264.685-135.31,264.685z"/>
	</g>
</g>
</svg>
