<?xml version="1.0" encoding="iso-8859-1"?>
<!-- Generator: Adobe Illustrator 20.0.0, SVG Export Plug-In . SVG Version: 6.00 Build 0)  -->
<svg version="1.1" id="Layer_1" xmlns="http://www.w3.org/2000/svg" xmlns:xlink="http://www.w3.org/1999/xlink" x="0px" y="0px"
	 width="40px" height="27.583px" viewBox="-27.5 319.001 40 27.583" style="enable-background:new -27.5 319.001 40 27.583;"
	 xml:space="preserve">
<style type="text/css">
	.st0{fill:#009797;}
	.st1{fill:#009898;}
	.st2{fill:#029696;}
	.st3{fill:#009797;stroke:#009797;stroke-width:0.1864;stroke-linecap:round;stroke-linejoin:round;stroke-miterlimit:10;}
</style>
<path class="st0" d="M12.006,328.825l-19.144-9.543c-0.25-0.126-0.545-0.126-0.795,0l-18.999,9.472
	c-0.294,0.147-0.483,0.443-0.494,0.771c-0.011,0.329,0.16,0.636,0.444,0.8l3.932,2.278c-0.013,0.053-0.029,0.105-0.029,0.162v4.161
	l-1.793,7.095c-0.081,0.319,0.059,0.655,0.344,0.822c0.089,0.052,0.913,0.515,2.193,0.515c1.357,0,2.215-0.722,2.309-0.805
	c0.21-0.185,0.298-0.473,0.228-0.744l-1.793-6.886v-3.476l2.171,1.258h-0.193v5.326c0,0.072,0.009,0.146,0.026,0.215
	c0.062,0.253,1.646,6.189,11.766,6.189c10.05,0,12.091-5.378,12.173-5.607c0.035-0.096,0.052-0.198,0.052-0.301v-5.793l7.644-4.335
	c0.288-0.163,0.461-0.471,0.452-0.8C12.49,329.271,12.3,328.973,12.006,328.825z M-22.335,343.871c-0.376,0-0.694-0.056-0.935-0.122
	l0.946-3.741l0.95,3.65C-21.604,343.766-21.933,343.871-22.335,343.871z M2.619,340.345c-0.351,0.737-2.467,4.308-10.441,4.308
	c-8.104,0-9.788-4.083-10.008-4.749v-4.276l9.778,5.665c0.138,0.081,0.293,0.12,0.447,0.12c0.152,0,0.303-0.038,0.44-0.116
	l9.784-5.55V340.345z M-7.6,339.492l-11.448-6.633l10.149-2.052c0.391,0.28,0.939,0.459,1.551,0.459c1.185,0,2.147-0.66,2.147-1.474
	c0-0.814-0.961-1.473-2.147-1.473c-0.982,0-1.8,0.455-2.056,1.072l-11.586,2.342l-3.664-2.123l17.118-8.535l17.246,8.598
	L-7.6,339.492z"/>
</svg>
