<?xml version="1.0" encoding="iso-8859-1"?>
<!-- Generator: Adobe Illustrator 19.1.0, SVG Export Plug-In . SVG Version: 6.00 Build 0)  -->
<svg version="1.1" id="Layer_1" xmlns="http://www.w3.org/2000/svg" xmlns:xlink="http://www.w3.org/1999/xlink" x="0px" y="0px"
	 viewBox="60.004 -208.833 40 36.5" style="enable-background:new 60.004 -208.833 40 36.5;" xml:space="preserve">
<style type="text/css">
	.st0{fill:#009797;}
	.st1{fill:#009898;}
	.st2{fill:#009797;stroke:#009797;stroke-width:0.3403;stroke-linecap:round;stroke-linejoin:round;stroke-miterlimit:10;}
	.st3{fill:#009797;stroke:#009797;stroke-width:0.3391;stroke-linecap:round;stroke-linejoin:round;stroke-miterlimit:10;}
</style>
<g>
	<g>
		<path class="st0" d="M86.024-183.935c-0.131,0.164-0.188,0.369-0.162,0.578c0.024,0.209,0.13,0.392,0.291,0.519l8.396,6.594
			c0.136,0.111,0.305,0.169,0.479,0.169c0.245,0,0.469-0.108,0.615-0.297c0.129-0.163,0.186-0.365,0.161-0.572
			c-0.022-0.208-0.129-0.394-0.291-0.521l-8.396-6.598C86.789-184.323,86.279-184.261,86.024-183.935z"/>
		<path class="st0" d="M72.935-184.066l-8.376,6.6c-0.336,0.267-0.395,0.759-0.129,1.094c0.148,0.189,0.371,0.297,0.612,0.297
			c0.178,0,0.346-0.059,0.483-0.17l8.374-6.597c0.336-0.27,0.393-0.761,0.127-1.095C73.771-184.261,73.263-184.323,72.935-184.066z"
			/>
		<rect x="72.408" y="-200.804" class="st0" width="9.025" height="1.426"/>
		<rect x="76.215" y="-188.196" class="st0" width="7.63" height="1.425"/>
		<rect x="72.408" y="-192.03" class="st0" width="10.093" height="1.426"/>
		<rect x="83.829" y="-192.03" class="st0" width="3.85" height="1.426"/>
		<rect x="72.408" y="-196.22" class="st0" width="15.189" height="1.426"/>
	</g>
	<path class="st0" d="M96.803-172.25H63.191c-0.792,0-1.438-0.645-1.438-1.439v-24.544c0-0.792,0.646-1.438,1.438-1.438h2.502v1.551
		h-2.39v24.317H96.69v-24.317h-2.226v-1.551h2.338c0.793,0,1.438,0.645,1.438,1.438v24.544
		C98.241-172.895,97.596-172.25,96.803-172.25z"/>
	<path class="st0" d="M95.655-194.121c-0.251-0.329-0.769-0.398-1.096-0.148l-1.078,0.822v0.002l-1.628,1.236l-10.506,7.999
		c-0.185,0.15-0.83,0.578-1.335,0.578c-0.464,0-1.066-0.401-1.326-0.615l-10.463-7.963l-1.56-1.186l-1.148-0.873
		c-0.329-0.253-0.835-0.184-1.09,0.149c-0.128,0.165-0.181,0.371-0.152,0.578c0.027,0.206,0.133,0.389,0.3,0.514l13.136,9.997
		c0.115,0.095,1.164,0.958,2.304,0.958c1.184,0,2.259-0.875,2.298-0.909l13.193-10.046c0.166-0.124,0.273-0.306,0.303-0.513
		C95.835-193.747,95.782-193.953,95.655-194.121z"/>
	<path class="st0" d="M92.693-191.04c-0.428,0-0.775-0.348-0.775-0.776v-15.382H68.245v15.326c0,0.428-0.346,0.775-0.775,0.775
		c-0.428,0-0.775-0.348-0.775-0.775v-15.439c0.002-0.793,0.646-1.438,1.438-1.438h23.899c0.793,0,1.437,0.645,1.437,1.438v15.496
		C93.469-191.388,93.123-191.04,92.693-191.04z"/>
</g>
</svg>
