<?xml version="1.0" encoding="utf-8"?>
<!-- Generator: Adobe Illustrator 25.2.3, SVG Export Plug-In . SVG Version: 6.00 Build 0)  -->
<svg version="1.1" id="Layer_1" xmlns="http://www.w3.org/2000/svg" xmlns:xlink="http://www.w3.org/1999/xlink" x="0px" y="0px"
	 viewBox="0 0 75 75" style="enable-background:new 0 0 75 75;" xml:space="preserve">
<style type="text/css">
	.st0{clip-path:url(#SVGID_2_);}
	.st1{fill:#009999;}
</style>
<g>
	<defs>
		<rect id="SVGID_1_" width="75" height="75"/>
	</defs>
	<clipPath id="SVGID_2_">
		<use xlink:href="#SVGID_1_"  style="overflow:visible;"/>
	</clipPath>
	<g class="st0">
		<path class="st1" d="M74.7,58.9l-4.4-12.7c2.1-4.3,3.2-9.1,3.2-13.9c0-8.4-3.2-16.2-9.1-22.2c-5.9-6-13.7-9.4-22.1-9.5
			c-8.7-0.1-16.8,3.2-22.9,9.3c-5.9,5.9-9.2,13.7-9.3,22C4.4,36.2,1,43.1,1,50.3c0,3.4,0.8,6.8,2.2,9.9l-3,8.7
			c-0.5,1.5-0.1,3.1,1,4.3C2,74,3,74.4,4.1,74.4c0.5,0,0.9-0.1,1.4-0.2l8.7-3c3.1,1.5,6.5,2.2,9.9,2.2c0,0,0,0,0,0
			c7.4,0,14.3-3.5,18.6-9.5c4.5-0.1,9-1.2,13.1-3.2l12.7,4.4c0.5,0.2,1.1,0.3,1.6,0.3c1.3,0,2.5-0.5,3.4-1.4
			C74.9,62.6,75.3,60.6,74.7,58.9z M24.1,68.9C24.1,68.9,24.1,68.9,24.1,68.9c-3,0-6-0.7-8.7-2.2c-0.5-0.3-1.2-0.3-1.8-0.1l-9,3.1
			l3.1-9C8,60.2,7.9,59.6,7.6,59c-1.4-2.7-2.1-5.7-2.2-8.7c0-4.9,1.9-9.5,5.2-12.9c1.1,6.6,4.2,12.6,9.1,17.4
			c4.8,4.7,10.9,7.8,17.4,8.7C33.7,67,29,68.9,24.1,68.9z M70.4,60.8c-0.1,0.1-0.3,0.2-0.4,0.1l-13.6-4.7c-0.2-0.1-0.5-0.1-0.7-0.1
			c-0.4,0-0.7,0.1-1,0.3c-3.9,2-8.3,3.1-12.7,3.1c0,0,0,0,0,0c-14.8,0-27-12-27.2-26.8c-0.1-7.4,2.7-14.4,8-19.7
			c5.3-5.3,12.2-8.1,19.7-8c14.8,0.2,26.8,12.5,26.8,27.3c0,4.4-1.1,8.8-3.1,12.7c-0.3,0.5-0.3,1.2-0.1,1.8l4.7,13.6
			C70.6,60.5,70.5,60.6,70.4,60.8z"/>
		<path class="st1" d="M55.2,20.4H28.6c-1.2,0-2.2,1-2.2,2.2c0,1.2,1,2.2,2.2,2.2h26.6c1.2,0,2.2-1,2.2-2.2
			C57.4,21.4,56.4,20.4,55.2,20.4z"/>
		<path class="st1" d="M55.2,29.6H28.6c-1.2,0-2.2,1-2.2,2.2c0,1.2,1,2.2,2.2,2.2h26.6c1.2,0,2.2-1,2.2-2.2
			C57.4,30.6,56.4,29.6,55.2,29.6z"/>
		<path class="st1" d="M45,38.8H28.6c-1.2,0-2.2,1-2.2,2.2c0,1.2,1,2.2,2.2,2.2H45c1.2,0,2.2-1,2.2-2.2S46.2,38.8,45,38.8z"/>
	</g>
</g>
</svg>
