<?xml version="1.0" encoding="utf-8"?>
<!-- Generator: Adobe Illustrator 20.0.0, SVG Export Plug-In . SVG Version: 6.00 Build 0)  -->
<svg version="1.1" id="Layer_1" xmlns="http://www.w3.org/2000/svg" xmlns:xlink="http://www.w3.org/1999/xlink" x="0px" y="0px"
	 width="40px" height="40px" viewBox="0 0 40 40" enable-background="new 0 0 40 40" xml:space="preserve">
<g>
	<g>
		<g>
			<path fill="#179796" d="M26.1,12.8l-7.6,16.9c-0.2,0.4-0.6,0.7-1.1,0.7c-0.7,0-1.2-0.6-1.2-1.2c0-0.1,0.1-0.3,0.1-0.5l7-15.3H14
				c-0.6,0-1-0.5-1-1.1c0-0.6,0.5-1,1-1h11.1c0.5,0,1.1,0.4,1.1,1.1C26.2,12.5,26.1,12.7,26.1,12.8z"/>
			<path fill="#179796" d="M17.4,30.5c-0.8,0-1.4-0.6-1.4-1.3c0-0.1,0-0.3,0.1-0.5L23,13.5h-9c-0.7,0-1.2-0.6-1.2-1.3
				c0-0.7,0.5-1.2,1.2-1.2h11.1c0.6,0,1.3,0.5,1.3,1.3c0,0.2,0,0.3-0.1,0.5l-7.6,16.9C18.5,30.2,18,30.5,17.4,30.5z M14,11.4
				c-0.5,0-0.8,0.4-0.8,0.8c0,0.5,0.4,0.9,0.8,0.9h9.3c0.1,0,0.1,0,0.1,0.1c0,0.1,0,0.1,0,0.2l-7,15.3c-0.1,0.2-0.1,0.3-0.1,0.4
				c0,0.5,0.4,1,1,1c0.4,0,0.8-0.2,0.9-0.6l7.6-16.9c0-0.1,0.1-0.2,0.1-0.3c0-0.6-0.5-0.9-0.9-0.9H14z"/>
		</g>
	</g>
	<path fill="#179796" d="M19.8,40C8.9,40,0,31.2,0,20.2C0,9.3,8.9,0.5,19.8,0.5c10.9,0,19.8,8.9,19.8,19.8
		C39.6,31.2,30.7,40,19.8,40z M19.8,2.7c-9.7,0-17.5,7.9-17.5,17.5c0,9.7,7.9,17.5,17.5,17.5s17.5-7.9,17.5-17.5
		C37.4,10.6,29.5,2.7,19.8,2.7z"/>
</g>
</svg>
