<?xml version="1.0" encoding="iso-8859-1"?>
<!-- Generator: Adobe Illustrator 19.1.0, SVG Export Plug-In . SVG Version: 6.00 Build 0)  -->
<svg version="1.1" id="Layer_1" xmlns="http://www.w3.org/2000/svg" xmlns:xlink="http://www.w3.org/1999/xlink" x="0px" y="0px"
	 viewBox="-120.374 211.5 40 37.333" style="enable-background:new -120.374 211.5 40 37.333;" xml:space="preserve">
<style type="text/css">
	.st0{fill:#009797;}
	.st1{fill:#009898;}
	.st2{fill:#009797;stroke:#009797;stroke-width:0.3403;stroke-linecap:round;stroke-linejoin:round;stroke-miterlimit:10;}
	.st3{fill:#009797;stroke:#009797;stroke-width:0.3391;stroke-linecap:round;stroke-linejoin:round;stroke-miterlimit:10;}
</style>
<g>
	<path class="st0" d="M-104.891,221.96c0.213,2.207,1.102,4.123,2.57,5.541c1.521,1.466,3.633,2.343,5.653,2.348h0.002l0.039-0.002
		c0.01,0,0.02-0.003,0.03-0.005c2.285-0.112,4.244-0.899,5.671-2.274c1.422-1.371,2.258-3.258,2.483-5.607
		c0.021-0.205,0.034-0.572,0.041-0.846c0.017-0.488,0.022-1.064,0.026-1.338c0.021-2.889-0.83-5.055-2.53-6.437
		c-1.357-1.102-3.267-1.692-5.662-1.751c-0.029-0.003-0.06-0.004-0.108-0.004c-0.011,0-0.023,0-0.035,0.003
		c-2.427,0.052-4.349,0.642-5.715,1.752c-1.703,1.384-2.555,3.548-2.533,6.437c0.004,0.273,0.012,0.85,0.025,1.336
		C-104.919,221.532-104.906,221.802-104.891,221.96z M-96.663,213.437c0.006,0.002,0.01,0.004,0.014,0.004
		c0.012,0.004,0.021,0.004,0.031,0.004c1.984,0.051,3.512,0.5,4.543,1.338c1.244,1.009,1.865,2.688,1.848,4.988
		c-0.002,0.25-0.012,0.797-0.025,1.291c-0.012,0.358-0.022,0.603-0.035,0.724c-0.184,1.895-0.83,3.391-1.924,4.444
		c-1.09,1.053-2.627,1.66-4.442,1.758c-0.005,0-0.007,0-0.011,0c-1.551,0-3.184-0.684-4.368-1.825
		c-1.145-1.104-1.84-2.618-2.01-4.377c-0.012-0.132-0.025-0.396-0.035-0.724c-0.016-0.494-0.025-1.041-0.025-1.291
		c-0.018-2.302,0.604-3.979,1.85-4.988c1.041-0.848,2.585-1.297,4.591-1.338L-96.663,213.437z"/>
	<path class="st0" d="M-82.564,233.345c-1.523-2.35-3.72-4.149-6.178-5.064c-0.396-0.167-0.88-0.056-1.149,0.268
		c-0.004,0.008-0.01,0.015-0.014,0.021c-0.758,0.904-1.7,1.611-2.798,2.102c-1.123,0.502-2.393,0.773-3.775,0.805
		c-0.928,0.01-1.871-0.133-2.803-0.457c-0.938-0.327-1.836-0.818-2.6-1.424c-0.2-0.156-0.401-0.334-0.602-0.524
		c-0.174-0.164-0.347-0.345-0.51-0.53c-0.251-0.326-0.717-0.459-1.11-0.32c-0.006,0.003-0.012,0.006-0.016,0.009
		c-2.063,0.737-3.932,2.073-5.407,3.864c-0.026,0.031-0.035,0.072-0.022,0.111c0.01,0.036,0.04,0.065,0.08,0.08
		c0.543,0.174,1.072,0.397,1.569,0.668c0.05,0.028,0.117,0.018,0.157-0.027c1.052-1.188,2.332-2.129,3.708-2.725
		c0.063,0.064,0.126,0.125,0.193,0.189c0.233,0.221,0.48,0.436,0.735,0.639c0.936,0.742,2.035,1.342,3.174,1.734
		c1.158,0.4,2.337,0.599,3.499,0.564c1.651-0.037,3.179-0.365,4.539-0.973c1.155-0.516,2.172-1.225,3.025-2.107
		c1.864,0.834,3.478,2.242,4.669,4.08c1.34,2.061,2.047,4.498,2.047,7.045v0.234c0,0.396-0.134,0.764-0.374,1.035
		c-0.206,0.23-0.468,0.357-0.737,0.357h-20.274c-0.057,0-0.106,0.032-0.122,0.086c-0.174,0.555-0.406,1.092-0.687,1.596
		c-0.021,0.039-0.019,0.084,0.004,0.121c0.022,0.035,0.063,0.059,0.107,0.059h20.971c0.837,0,1.617-0.357,2.193-1.006
		c0.547-0.611,0.847-1.408,0.847-2.248v-0.234C-80.225,238.477-81.033,235.702-82.564,233.345z"/>
	<path class="st0" d="M-109.769,237.929l-3.617,3.492l-1.262-1.305c-0.344-0.359-0.957-0.371-1.312-0.025
		c-0.178,0.172-0.279,0.402-0.285,0.65c-0.004,0.248,0.088,0.482,0.26,0.66l1.865,1.932l0.043,0.049
		c0.178,0.185,0.414,0.283,0.668,0.283c0.244,0,0.473-0.092,0.648-0.26c0.006-0.006,0.01-0.012,0.014-0.018l4.266-4.119
		c0.369-0.355,0.379-0.943,0.025-1.312C-108.8,237.598-109.414,237.587-109.769,237.929z"/>
	<path class="st0" d="M-106.457,234.794c-1.539-1.541-3.586-2.389-5.766-2.389c-2.178,0-4.225,0.848-5.763,2.389
		c-1.54,1.539-2.388,3.586-2.388,5.767c0,2.178,0.848,4.226,2.389,5.767c1.539,1.539,3.585,2.387,5.763,2.387
		c2.18,0,4.227-0.848,5.766-2.387c1.541-1.543,2.389-3.591,2.389-5.767C-104.068,238.382-104.916,236.335-106.457,234.794z
		 M-112.222,246.852c-1.68,0-3.26-0.654-4.447-1.843c-1.189-1.189-1.843-2.77-1.843-4.448c0-1.683,0.654-3.263,1.843-4.449
		c1.189-1.188,2.77-1.844,4.447-1.844c1.68,0,3.26,0.653,4.449,1.844c1.189,1.191,1.844,2.771,1.844,4.449
		c0,1.679-0.654,3.26-1.844,4.448C-108.96,246.197-110.541,246.852-112.222,246.852z"/>
</g>
</svg>
