<?xml version="1.0" encoding="iso-8859-1"?>
<!-- Generator: Adobe Illustrator 19.1.0, SVG Export Plug-In . SVG Version: 6.00 Build 0)  -->
<svg version="1.1" id="Layer_1" xmlns="http://www.w3.org/2000/svg" xmlns:xlink="http://www.w3.org/1999/xlink" x="0px" y="0px"
	 viewBox="-120.374 -208.083 40 34.5" style="enable-background:new -120.374 -208.083 40 34.5;" xml:space="preserve">
<style type="text/css">
	.st0{fill:#009797;}
	.st1{fill:#009898;}
	.st2{fill:#009797;stroke:#009797;stroke-width:0.3403;stroke-linecap:round;stroke-linejoin:round;stroke-miterlimit:10;}
	.st3{fill:#009797;stroke:#009797;stroke-width:0.3391;stroke-linecap:round;stroke-linejoin:round;stroke-miterlimit:10;}
</style>
<path class="st0" d="M-80.763-195.277l-12.146-12.365c-0.155-0.159-0.368-0.248-0.588-0.248c-0.002,0-0.002,0-0.002,0
	c-0.22,0-0.433,0.089-0.588,0.247l-2.844,2.887c-0.317,0.32-0.317,0.837-0.001,1.159l0.447,0.455
	c-0.627,0.401-2.306,1.485-4.17,2.752c-1.035-1.36-2.403-2.681-3.208-3.416c0.201-0.318,0.179-0.737-0.096-1.015l-2.844-2.886
	c-0.154-0.158-0.367-0.247-0.588-0.247c0,0,0,0-0.002,0c-0.221,0-0.434,0.089-0.588,0.248l-12.146,12.364
	c-0.316,0.322-0.316,0.838,0.001,1.16l2.841,2.885c0.156,0.157,0.368,0.247,0.589,0.247c0,0,0,0,0.002,0
	c0.212,0,0.416-0.086,0.57-0.236c0.581,0.81,1.812,2.494,3.318,4.383c-0.594,0.517-1.842,1.759-1.934,3.181
	c-0.051,0.711,0.203,1.374,0.736,1.92c0.065,0.068,6.251,6.322,7.012,6.993l-0.018,0.014c0.084,0.11,0.859,1.081,2.275,1.203
	c0.108,0.015,0.223,0.015,0.323,0.015c1.172,0,2.422-0.584,3.717-1.725c0.588,0.434,0.951,0.685,0.962,0.691
	c0.01,0.008,1.201,0.773,2.535,0.773c0.417,0,0.801-0.074,1.171-0.231c0.748-0.322,1.268-0.985,1.541-1.964
	c0.613-0.187,2.315-0.865,2.828-2.768c0.957-0.177,2.153-1.062,2.517-3.024c0.008,0,0.018,0,0.027,0
	c0.533,0,2.313-0.146,2.839-2.027c0.312-1.119-0.015-2.077-0.473-2.797c1.001-0.88,2.151-2.458,2.14-4.461
	c0.126,0.074,0.264,0.126,0.412,0.126c0.223,0,0.434-0.089,0.59-0.247l2.842-2.884C-80.446-194.438-80.446-194.955-80.763-195.277z
	 M-109.246-179.106c-0.599-0.601-1.212-1.216-1.783-1.789l1.812-1.812c0.295,0.315,0.591,0.625,0.884,0.919
	c0.294,0.295,0.593,0.584,0.893,0.871L-109.246-179.106z M-110.206-183.794l-1.857,1.861c-0.345-0.347-0.649-0.656-0.888-0.895
	c-0.248-0.248-0.346-0.484-0.322-0.789c0.048-0.772,0.866-1.665,1.39-2.141C-111.341-185.102-110.776-184.44-110.206-183.794z
	 M-106.363-179.92c0.564,0.511,1.127,1.002,1.671,1.462l-1.966,1.945c-0.409-0.409-0.947-0.948-1.552-1.553L-106.363-179.92z
	 M-103.555-177.518c0.596,0.483,1.155,0.923,1.65,1.302c-0.906,0.749-1.775,1.163-2.529,1.163c-0.048,0-0.095-0.002-0.142-0.006
	c-0.386-0.027-0.738-0.168-1.041-0.418L-103.555-177.518z M-104.87-202.732c0.803,0.733,2.07,1.954,3.01,3.17
	c-2.21,1.534-4.392,3.152-5.122,4.033c-0.65,0.789-2.084,2.783-1.321,4.264c0.462,0.916,1.586,1.316,3.347,1.189
	c3.027-0.235,4.188-1.659,4.619-2.558c0.686,0.289,1.915,0.722,3.12,0.722c0.879,0,1.597-0.229,2.144-0.682l6.777,6.328
	c0.411,0.48,0.828,1.203,0.6,2.016c-0.216,0.787-0.882,0.952-1.402,0.952c-0.113,0-0.229-0.02-0.347-0.037l-6.562-6.579
	c-0.021-0.021-0.052-0.033-0.083-0.033c-0.031,0-0.06,0.012-0.081,0.033l-0.874,0.873c-0.046,0.046-0.046,0.12,0,0.165l6.815,6.83
	c-0.144,1.414-1.223,1.746-1.762,1.814l-6.84-6.857c-0.02-0.023-0.052-0.035-0.083-0.035c-0.03,0-0.06,0.012-0.082,0.035
	l-0.874,0.872c-0.046,0.044-0.046,0.118,0,0.165l6.787,6.803c-0.282,1.172-1.262,1.642-1.79,1.802l-6.781-6.798
	c-0.045-0.044-0.118-0.046-0.164,0l-0.875,0.87c-0.021,0.021-0.035,0.052-0.035,0.084c0,0.031,0.012,0.06,0.035,0.081l6.777,6.797
	c-0.147,0.511-0.386,0.86-0.706,1.008c-0.156,0.072-0.344,0.105-0.559,0.105c-0.705,0-1.498-0.383-1.737-0.527
	c-0.045-0.029-4.64-3.248-8.367-6.99c-3.27-3.28-6.905-8.286-7.788-9.526L-104.87-202.732z M-87.714-187.769
	c-0.087-0.078-0.167-0.144-0.229-0.194l-7.225-6.737c-0.024-0.023-0.054-0.034-0.095-0.029c-0.033,0.004-0.063,0.024-0.083,0.053
	l-0.393,0.629c-0.278,0.437-0.779,0.658-1.486,0.658c-1.419,0-3.183-0.896-3.204-0.908l-0.79-0.407
	c-0.033-0.018-0.073-0.019-0.107,0.001c-0.033,0.018-0.057,0.051-0.061,0.088l-0.112,0.876c-0.012,0.08-0.296,1.944-3.561,2.184
	c-1.029,0.082-1.768-0.073-1.94-0.395c-0.199-0.383,0.13-1.416,1.147-2.651c1.253-1.502,8.107-6.006,10.418-7.47l9.217,9.38
	c0,0.009-0.01,0.016-0.008,0.024C-85.679-190.476-87.048-188.408-87.714-187.769z M-116.695-193.057l-1.682-1.708l10.986-11.185
	l1.683,1.709L-116.695-193.057z M-84.193-192.992l-10.989-11.184l1.683-1.708l10.985,11.185L-84.193-192.992z"/>
</svg>
