<?xml version="1.0" encoding="iso-8859-1"?>
<!-- Generator: Adobe Illustrator 20.0.0, SVG Export Plug-In . SVG Version: 6.00 Build 0)  -->
<svg version="1.1" id="Layer_1" xmlns="http://www.w3.org/2000/svg" xmlns:xlink="http://www.w3.org/1999/xlink" x="0px" y="0px"
	 width="40px" height="40px" viewBox="-27.5 258.084 40 40" style="enable-background:new -27.5 258.084 40 40;"
	 xml:space="preserve">
<style type="text/css">
	.st0{fill:#009797;}
	.st1{fill:#009898;}
	.st2{fill:#029696;}
	.st3{fill:#009797;stroke:#009797;stroke-width:0.1864;stroke-linecap:round;stroke-linejoin:round;stroke-miterlimit:10;}
</style>
<g>
	<path class="st0" d="M1.826,275.662c-0.298-4.973-4.508-8.848-9.637-8.848c-5.321,0-9.652,4.219-9.652,9.404
		c0,0.317,0.018,0.641,0.053,0.977c0.227,2.327,1.19,4.122,2.212,6.026c1.098,2.042,2.232,4.152,2.384,7.115l0.011,3.001
		c0,2.617,2.179,4.746,4.856,4.746c2.678,0,4.858-2.129,4.858-4.746l-0.001-2.522l0.026-0.475c0.159-2.941,1.299-4.954,2.509-7.091
		c1.08-1.903,2.1-3.702,2.341-6.039c0.02-0.191,0.057-0.832,0.057-0.995l-0.001-0.392C1.843,275.77,1.837,275.715,1.826,275.662z
		 M-7.947,296.327c-1.709,0-3.1-1.342-3.1-2.989l0-2.048h6.22l-0.018,2.048C-4.846,294.985-6.237,296.327-7.947,296.327z
		 M0.04,277.03c-0.204,1.972-1.136,3.613-2.126,5.36c-1.199,2.117-2.426,4.314-2.69,7.436h-6.322
		c-0.256-3.134-1.468-5.419-2.555-7.439c-0.934-1.74-1.816-3.385-2.009-5.369c-0.029-0.278-0.045-0.541-0.045-0.799
		c0-4.218,3.542-7.648,7.895-7.648c4.23,0,7.695,3.204,7.889,7.293c0.002,0.03,0.004,0.059,0.009,0.086l0.001,0.27
		C0.087,276.35,0.056,276.873,0.04,277.03z"/>
	<path class="st0" d="M-19.726,276.023c0-0.403-0.328-0.731-0.732-0.731h-4.249c-0.404,0-0.732,0.328-0.732,0.731
		c0,0.404,0.328,0.733,0.732,0.733h4.249C-20.054,276.756-19.726,276.428-19.726,276.023z"/>
	<path class="st0" d="M9.225,275.292H4.976c-0.404,0-0.732,0.328-0.732,0.731c0,0.404,0.328,0.733,0.732,0.733h4.248
		c0.404,0,0.732-0.328,0.732-0.733C9.956,275.62,9.629,275.292,9.225,275.292z"/>
	<path class="st0" d="M-7.741,264.039c0.404,0,0.732-0.328,0.732-0.733v-4.249c0-0.404-0.328-0.732-0.732-0.732
		c-0.404,0-0.732,0.328-0.732,0.732v4.249C-8.473,263.711-8.145,264.039-7.741,264.039z"/>
	<path class="st0" d="M-1.717,265.664c0.115,0.066,0.242,0.099,0.367,0.099c0.253,0,0.498-0.131,0.634-0.364l2.137-3.675
		c0.203-0.349,0.085-0.796-0.265-1c-0.35-0.202-0.798-0.085-1.001,0.265l-2.137,3.675C-2.185,265.012-2.066,265.46-1.717,265.664z"
		/>
	<path class="st0" d="M7.435,283.642l-3.712-2.07c-0.354-0.197-0.8-0.07-0.996,0.284c-0.196,0.352-0.07,0.799,0.283,0.995
		l3.712,2.069c0.113,0.064,0.236,0.092,0.356,0.092c0.257,0,0.506-0.136,0.64-0.376C7.915,284.283,7.789,283.838,7.435,283.642z"/>
	<path class="st0" d="M-22.92,268.406l3.713,2.068c0.112,0.062,0.234,0.092,0.355,0.092c0.256,0,0.506-0.136,0.639-0.376
		c0.197-0.353,0.071-0.799-0.283-0.995l-3.713-2.067c-0.352-0.198-0.799-0.071-0.996,0.282
		C-23.4,267.765-23.274,268.209-22.92,268.406z"/>
	<path class="st0" d="M-14.825,265.437c0.135,0.233,0.379,0.36,0.631,0.36c0.126,0,0.253-0.032,0.371-0.101
		c0.348-0.205,0.464-0.654,0.258-1.003l-2.158-3.661c-0.204-0.347-0.653-0.463-1.002-0.259c-0.348,0.205-0.464,0.654-0.258,1.002
		L-14.825,265.437z"/>
	<path class="st0" d="M-19.103,281.787l-3.673,2.135c-0.35,0.203-0.469,0.651-0.265,1c0.135,0.234,0.381,0.364,0.633,0.364
		c0.125,0,0.251-0.031,0.368-0.1l3.673-2.134c0.35-0.204,0.469-0.652,0.265-1.001C-18.304,281.702-18.754,281.585-19.103,281.787z"
		/>
	<path class="st0" d="M3.617,270.263l3.674-2.137c0.35-0.203,0.468-0.651,0.265-1c-0.204-0.351-0.651-0.468-1.001-0.266
		l-3.674,2.137c-0.349,0.204-0.467,0.652-0.265,1.001c0.137,0.234,0.381,0.364,0.633,0.364
		C3.375,270.362,3.502,270.33,3.617,270.263z"/>
</g>
</svg>
