<?xml version="1.0" encoding="iso-8859-1"?>
<!-- Generator: Adobe Illustrator 19.1.0, SVG Export Plug-In . SVG Version: 6.00 Build 0)  -->
<svg version="1.1" id="Layer_1" xmlns="http://www.w3.org/2000/svg" xmlns:xlink="http://www.w3.org/1999/xlink" x="0px" y="0px"
	 viewBox="120.13 -90.248 40 40" style="enable-background:new 120.13 -90.248 40 40;" xml:space="preserve">
<style type="text/css">
	.st0{fill:#009797;}
	.st1{fill:#009898;}
	.st2{fill:#009797;stroke:#009797;stroke-width:0.3403;stroke-linecap:round;stroke-linejoin:round;stroke-miterlimit:10;}
	.st3{fill:#009797;stroke:#009797;stroke-width:0.3391;stroke-linecap:round;stroke-linejoin:round;stroke-miterlimit:10;}
</style>
<g>
	<path class="st0" d="M133.333-81.619c-0.259-0.26-0.646-0.334-0.978-0.191c-0.336,0.141-0.551,0.466-0.547,0.833
		c0.002,0.067,0.024,6.785-4.234,11.043l-6.422,6.422c-0.66,0.66-1.022,1.537-1.022,2.469c0,0.932,0.362,1.809,1.022,2.465
		l0.299,0.301c-0.19,0.264-0.293,0.576-0.293,0.905c0,0.412,0.16,0.798,0.451,1.089l2.295,2.294c0.541,0.544,1.393,0.595,1.992,0.16
		l0.301,0.298c0.658,0.66,1.535,1.023,2.468,1.023c0.931,0,1.807-0.363,2.464-1.023l1.206-1.203l4.036,4.036
		c0.291,0.29,0.679,0.45,1.089,0.45c0.413,0,0.8-0.16,1.091-0.45l1.185-1.187c0.6-0.601,0.6-1.578-0.002-2.182l-4.051-4l1.871-1.889
		c4.285-4.284,10.687-4.564,10.753-4.566c0.355-0.017,0.668-0.238,0.797-0.566c0.131-0.329,0.053-0.705-0.197-0.958L133.333-81.619z
		 M132.295-72.312c-0.169,0.168-0.264,0.393-0.264,0.63c0,0.238,0.094,0.464,0.264,0.632l7.312,7.316
		c-1.242,0.715-2.358,1.562-3.316,2.521l-2.53,2.553c-0.348,0.349-0.348,0.914,0,1.263c0.07,0.071,0.152,0.129,0.237,0.17
		c0.014,0.027,0.031,0.053,0.051,0.074l4.25,4.182l-0.84,0.842l-4.494-4.495c-0.169-0.168-0.398-0.251-0.631-0.251
		c-0.232,0-0.463,0.083-0.631,0.251l-1.834,1.836c-0.643,0.642-1.768,0.642-2.411,0l-0.917-0.918c-0.348-0.349-0.913-0.349-1.262,0
		l-0.287,0.287l-1.948-1.95l0.286-0.288c0.169-0.17,0.262-0.394,0.262-0.634c0-0.236-0.093-0.462-0.262-0.629l-0.918-0.916
		c-0.321-0.323-0.499-0.751-0.499-1.205c0-0.454,0.177-0.883,0.499-1.205l1.208-1.207l6.506,6.461
		c0.337,0.333,0.923,0.334,1.262-0.006c0.168-0.169,0.261-0.394,0.259-0.631c0-0.239-0.095-0.463-0.264-0.629l-6.502-6.459
		l3.954-3.952c3.282-3.281,4.308-7.674,4.625-10.298l12.876,12.879c-1.317,0.221-3.132,0.654-5.052,1.507l-7.73-7.728
		c-0.167-0.169-0.392-0.261-0.631-0.261C132.685-72.572,132.462-72.479,132.295-72.312z"/>
	<path class="st0" d="M155.114-85.233c-3.324-3.324-7.981-5.139-12.779-5.008c-0.492,0.014-0.882,0.426-0.868,0.918
		c0.009,0.244,0.11,0.47,0.287,0.633c0.175,0.162,0.399,0.25,0.631,0.233c4.324-0.111,8.497,1.516,11.468,4.485
		c2.973,2.973,4.606,7.153,4.484,11.47c-0.012,0.49,0.378,0.902,0.895,0.917c0.485,0,0.877-0.381,0.892-0.867
		C160.257-77.257,158.433-81.916,155.114-85.233z"/>
	<path class="st0" d="M142.358-82.454c-0.491,0-0.893,0.4-0.893,0.892c0,0.492,0.4,0.893,0.893,0.893
		c1.414,0,4.068,0.286,5.986,2.204c1.92,1.921,2.205,4.575,2.205,5.988c0,0.491,0.401,0.892,0.895,0.892
		c0.492,0,0.892-0.4,0.892-0.892c0-1.688-0.355-4.875-2.728-7.25C147.233-82.1,144.048-82.454,142.358-82.454z"/>
	<path class="st0" d="M142.577-86.35l-0.232,0.001c-0.492,0.008-0.886,0.415-0.878,0.906c0.009,0.484,0.408,0.879,0.908,0.879
		c3.329-0.079,6.53,1.154,8.726,3.345c2.227,2.229,3.444,5.405,3.344,8.713c-0.014,0.493,0.377,0.905,0.894,0.919
		c0.487,0,0.879-0.38,0.892-0.865c0.114-3.801-1.293-7.456-3.867-10.029C149.897-84.94,146.333-86.35,142.577-86.35z"/>
</g>
</svg>
