<?xml version="1.0" encoding="iso-8859-1"?>
<!-- Generator: Adobe Illustrator 19.1.0, SVG Export Plug-In . SVG Version: 6.00 Build 0)  -->
<svg version="1.1" id="Layer_1" xmlns="http://www.w3.org/2000/svg" xmlns:xlink="http://www.w3.org/1999/xlink" x="0px" y="0px"
	 viewBox="-60.248 212.167 40 36.5" style="enable-background:new -60.248 212.167 40 36.5;" xml:space="preserve">
<style type="text/css">
	.st0{fill:#009797;}
	.st1{fill:#009898;}
	.st2{fill:#009797;stroke:#009797;stroke-width:0.3403;stroke-linecap:round;stroke-linejoin:round;stroke-miterlimit:10;}
	.st3{fill:#009797;stroke:#009797;stroke-width:0.3391;stroke-linecap:round;stroke-linejoin:round;stroke-miterlimit:10;}
</style>
<g>
	<path class="st0" d="M-22.259,215.918c0.126,0,0.23-0.104,0.23-0.23v-1.116c0-0.127-0.104-0.23-0.23-0.23h-17.08v-2.003
		c0-0.127-0.102-0.229-0.229-0.229h-1.115c-0.126,0-0.23,0.102-0.23,0.229v2.003h-17.354c-0.126,0-0.229,0.104-0.229,0.23v1.116
		c0,0.127,0.103,0.23,0.23,0.23h3.395v21.873h-3.395c-0.127-0.002-0.23,0.103-0.23,0.228v1.118c0,0.128,0.103,0.23,0.23,0.23h14.283
		l-3.801,8.458c-0.024,0.058-0.028,0.12-0.007,0.177c0.021,0.057,0.062,0.104,0.118,0.131l1.012,0.474
		c0.033,0.014,0.065,0.021,0.097,0.021c0.087,0,0.17-0.05,0.209-0.133l2.379-5.42h7.705l2.383,5.414
		c0.024,0.056,0.072,0.099,0.129,0.119c0.025,0.011,0.054,0.015,0.081,0.015c0.032,0,0.065-0.007,0.096-0.021l1.01-0.476
		c0.117-0.054,0.165-0.19,0.11-0.305l-3.806-8.453h14.008c0.126,0,0.23-0.103,0.23-0.23v-1.118c0-0.125-0.104-0.229-0.23-0.229
		h-3.122v-21.871H-22.259z M-38.009,239.367l0.998,2.13h-6.227l0.997-2.13H-38.009z M-26.958,215.918v21.873h-26.338v-21.873
		H-26.958z"/>
	<path class="st0" d="M-40.366,235.308c4.46,0,8.09-3.628,8.09-8.088c0-4.461-3.629-8.09-8.09-8.09c-4.459,0-8.089,3.63-8.089,8.09
		C-48.455,231.68-44.826,235.308-40.366,235.308z M-40.366,220.569c0.259,0,0.513,0.018,0.764,0.046l-1.877,7.121
		c-0.013,0.048-0.004,0.1,0.026,0.139c0.031,0.039,0.078,0.062,0.127,0.062h7.57c-0.361,3.33-3.186,5.932-6.61,5.932
		c-3.666,0-6.649-2.984-6.649-6.651C-47.015,223.553-44.031,220.569-40.366,220.569z M-39.665,226.5l1.457-5.565
		c2.391,0.823,4.171,2.971,4.452,5.565H-39.665z"/>
</g>
</svg>
