<?xml version="1.0" encoding="iso-8859-1"?>
<!-- Generator: Adobe Illustrator 20.0.0, SVG Export Plug-In . SVG Version: 6.00 Build 0)  -->
<svg version="1.1" id="Layer_1" xmlns="http://www.w3.org/2000/svg" xmlns:xlink="http://www.w3.org/1999/xlink" x="0px" y="0px"
	 width="40px" height="36.333px" viewBox="27.5 -341.216 40 36.333" style="enable-background:new 27.5 -341.216 40 36.333;"
	 xml:space="preserve">
<style type="text/css">
	.st0{fill:#009797;}
	.st1{fill:#009898;}
	.st2{fill:#029696;}
	.st3{fill:#009797;stroke:#009797;stroke-width:0.1864;stroke-linecap:round;stroke-linejoin:round;stroke-miterlimit:10;}
</style>
<path class="st0" d="M30.623-304.787h8.391c0.866,0,1.617-0.599,1.819-1.432c0.155-0.029,0.294-0.107,0.411-0.172
	c0.057-0.032,0.125-0.069,0.172-0.086c0.029,0.038,0.066,0.086,0.104,0.141c0.28,0.377,0.802,1.082,1.812,1.49l0.143,0.06
	c0.016,0.006,0.031,0.011,0.047,0.011h0.418c1.17,0.002,5.984,0.015,10.401,0.015c3.004,0,4.851-0.004,5.642-0.015
	c1.675-0.025,2.549-0.764,2.988-1.381c0.938-1.319,0.803-2.764,0.717-3.269c0.736-0.71,1.152-1.922,1.205-3.512
	c0.024-0.625-0.111-1.086-0.324-1.568c0.566-0.547,1.293-1.71,1.377-3.087c0.074-1.174-0.241-2.009-0.537-2.52
	c0.39-0.517,0.834-1.366,0.86-2.572c0.072-3.504-3.307-4.679-5.112-4.81H55.68c-0.107-0.314,0.035-0.647,0.134-0.826
	c0.002-0.004,0.003-0.007,0.005-0.011c0.172-0.208,1.845-2.296,2.996-5.72c1.344-3.975-2.18-6.812-2.229-6.85l-0.209-0.123
	c-0.086-0.033-0.543-0.209-1.133-0.209c-0.498,0-0.957,0.123-1.367,0.363c-0.871,0.516-1.398,1.503-1.568,2.935
	c-0.432,3.718-3.924,6.556-4.318,6.867l-0.129,0.099c-0.123,0.097-0.223,0.176-0.295,0.24c-0.822,0.712-1.635,2.409-2.286,3.773
	c-0.095,0.201-0.189,0.396-0.278,0.579c-0.457,0.938-1.712,2.432-2.334,2.98c-0.437,0.011-1.221,0.025-1.785,0.027
	c-0.274-0.765-0.961-1.549-1.752-1.549h-8.388c-1.036,0-1.875,0.841-1.875,1.875l-0.118,16.38
	C28.748-305.627,29.59-304.787,30.623-304.787z M30.741-323.093h8.39c0.026,0,0.049,0.021,0.049,0.049l-0.118,16.382
	c0,0.028-0.022,0.05-0.05,0.05h-8.389c-0.027,0-0.049-0.021-0.049-0.05l0.117-16.382C30.693-323.071,30.713-323.093,30.741-323.093z
	 M57.084-334.634c-0.95,2.821-2.314,4.683-2.723,5.207c-0.423,0.589-0.924,1.906-0.127,3.102c0.398,0.601,1.053,0.665,1.312,0.665
	c0.065,0,0.129-0.004,0.177-0.01l5.359-0.003c0.141,0.011,3.412,0.296,3.358,2.95c-0.022,1.178-0.681,1.745-0.755,1.805
	l-0.783,0.577c-0.029,0.021-0.047,0.055-0.049,0.091c-0.002,0.036,0.012,0.071,0.038,0.095l0.722,0.665
	c0.005,0.005,0.588,0.538,0.51,1.787c-0.084,1.394-1.144,2.115-1.142,2.115l-1.146,0.478c-0.037,0.017-0.064,0.051-0.07,0.093
	c-0.008,0.04,0.008,0.082,0.037,0.109l0.91,0.807c0.07,0.079,0.417,0.506,0.352,1.211c-0.041,0.424-0.234,1.849-0.93,2.396
	l-0.883,0.337c-0.039,0.016-0.07,0.051-0.076,0.094c-0.007,0.042,0.008,0.085,0.04,0.111l0.604,0.513
	c0.134,0.448,0.168,1.515-0.337,2.225c-0.287,0.402-0.785,0.603-1.525,0.611c-0.805,0.012-2.668,0.017-5.542,0.017
	c-3.88,0-8.497-0.011-10.136-0.015h-0.418c-0.459-0.195-0.926-0.434-1.096-0.561l-0.02-0.036c-0.162-0.306-0.59-1.119-1.896-1.126
	l0.118-13.218c0.839-0.008,2.061-0.034,2.061-0.034l0.272-0.006c0.026,0,0.054-0.011,0.073-0.027l0.213-0.173
	c0.176-0.147,2.289-2.226,3.053-3.792c0.11-0.224,0.221-0.45,0.33-0.68c0.623-1.298,1.27-2.642,1.791-3.093
	c0.058-0.05,0.133-0.109,0.222-0.181l0.132-0.105c0.459-0.359,4.486-3.63,5.007-8.09c0.099-0.819,0.331-1.362,0.678-1.571
	c0.124-0.073,0.276-0.111,0.451-0.111c0.126,0,0.241,0.02,0.322,0.039C56.018-338.956,57.894-337.045,57.084-334.634z"/>
</svg>
