<?xml version="1.0" encoding="iso-8859-1"?>
<!-- Generator: Adobe Illustrator 20.0.0, SVG Export Plug-In . SVG Version: 6.00 Build 0)  -->
<svg version="1.1" id="Layer_1" xmlns="http://www.w3.org/2000/svg" xmlns:xlink="http://www.w3.org/1999/xlink" x="0px" y="0px"
	 width="40px" height="35.416px" viewBox="137.5 203.751 40 35.416" style="enable-background:new 137.5 203.751 40 35.416;"
	 xml:space="preserve">
<style type="text/css">
	.st0{fill:#009797;}
	.st1{fill:#009898;}
	.st2{fill:#029696;}
	.st3{fill:#009797;stroke:#009797;stroke-width:0.1864;stroke-linecap:round;stroke-linejoin:round;stroke-miterlimit:10;}
</style>
<g>
	<path class="st0" d="M177.408,206.164l-1.04-1.878c-0.099-0.18-0.27-0.311-0.469-0.358c-0.199-0.048-0.411-0.01-0.582,0.104
		c-6.666,4.461-10.898,9.513-13.433,12.545l-5.871-4.599c-0.269-0.21-0.648-0.208-0.915,0.006l-2.839,2.289
		c-0.161,0.131-0.261,0.323-0.272,0.53c-0.011,0.207,0.064,0.41,0.21,0.557l11.111,11.301c0.14,0.142,0.328,0.219,0.523,0.219
		c0.049,0,0.099-0.004,0.148-0.016c0.243-0.05,0.445-0.22,0.536-0.452c1.568-4.016,6.021-12.615,12.769-19.372
		C177.517,206.807,177.566,206.451,177.408,206.164z M163.575,224.834l-9.762-9.926l1.754-1.412l5.971,4.676
		c0.311,0.244,0.76,0.197,1.016-0.105l0.438-0.523c2.396-2.866,6.352-7.598,12.482-11.841l0.383,0.692
		C169.685,212.718,165.441,220.487,163.575,224.834z"/>
	<path class="st0" d="M170.778,217.28c0.886,1.509,1.645,2.898,1.77,3.329c-0.008,0.205-0.01,0.557-0.01,0.992
		c0,0.89,0,3.6-0.254,4.116c-0.408,0.725-2.492,4.218-3.132,5.294l-4.098,1.035l-2.288-1.037l-1.56-3.875
		c-0.099-0.249-0.304-0.437-0.559-0.517c-0.255-0.081-0.532-0.041-0.754,0.105l-1.184,0.778l-0.46-1.091
		c-0.081-0.193-0.228-0.352-0.415-0.447l-2.679-1.366c-0.172-0.088-0.367-0.118-0.557-0.083c-1.371,0.238-3.773,0.725-4.452,1.28
		c-0.48,0.395-1.771,1.456-2.265,1.862l-2.591,0.35c-0.283,0.038-0.53,0.209-0.664,0.46c-0.293,0.548-0.676,0.825-1.143,0.825
		c-0.048,0-0.089-0.004-0.104-0.004c-0.2-0.131-0.355-0.888-0.308-1.534c0.011-0.135-0.009-0.268-0.06-0.393
		c-1.213-3.099-3.194-8.288-3.342-9.029c-0.045-0.226,0.445-0.668,0.871-0.879l5.136-2.403c0.247-0.116,0.428-0.34,0.489-0.605
		l0.476-2.068l0.634,0.073c0.309,0.034,0.611-0.092,0.802-0.335l1.976-2.535l1.386,1.042c0.222,0.165,0.506,0.219,0.771,0.145
		c0.266-0.073,0.482-0.267,0.586-0.523l0.645-1.584l1.595-1.769l3.048,0.467l-0.655,1.574c-0.177,0.424-0.001,0.912,0.406,1.127
		l4.972,2.624c0.208,0.109,0.449,0.131,0.678,0.062c0.224-0.068,0.412-0.225,0.522-0.434l1.037-1.967
		c0.104-0.197,0.131-0.426,0.073-0.641l-0.21-0.807l0.278-1.01l0.313,0.867c0.076,0.216,0.234,0.392,0.438,0.493l0.263,0.132
		l1.435-1.269l-0.583-0.291l-1.137-3.163c-0.132-0.364-0.48-0.606-0.869-0.586c-0.387,0.014-0.719,0.275-0.823,0.649l-1.092,3.934
		c-0.042,0.151-0.044,0.312-0.004,0.463l0.186,0.705l-0.462,0.875l-3.469-1.831l0.78-1.874c0.105-0.251,0.088-0.537-0.045-0.776
		c-0.135-0.237-0.371-0.401-0.641-0.442l-4.644-0.711c-0.295-0.042-0.593,0.062-0.793,0.284l-2.021,2.24
		c-0.069,0.075-0.125,0.164-0.165,0.26l-0.269,0.661l-1.16-0.873c-0.388-0.292-0.936-0.217-1.234,0.164l-2.207,2.83l-0.927-0.107
		c-0.449-0.048-0.864,0.242-0.967,0.683l-0.557,2.419l-4.754,2.226c-0.226,0.109-2.194,1.112-1.85,2.831
		c0.214,1.08,2.817,7.761,3.36,9.152c-0.017,0.689,0.073,2.639,1.593,3.167c0.062,0.016,0.284,0.069,0.602,0.069
		c0.98,0,1.857-0.49,2.462-1.358l2.423-0.325c0.165-0.023,0.319-0.09,0.447-0.195l2.438-2.007c0.325-0.214,1.939-0.604,3.36-0.865
		l2.121,1.082l0.749,1.775c0.102,0.245,0.308,0.43,0.561,0.507c0.253,0.076,0.525,0.037,0.746-0.107l1.17-0.77l1.287,3.198
		c0.085,0.212,0.249,0.384,0.456,0.478l2.896,1.312c0.117,0.053,0.241,0.079,0.368,0.079c0.072,0,0.145-0.008,0.217-0.027
		l4.754-1.201c0.229-0.059,0.424-0.204,0.544-0.406c0.117-0.193,2.854-4.773,3.344-5.647c0.406-0.723,0.484-2.312,0.483-4.988
		c0-0.449-0.002-0.796,0.01-0.946c0.022-0.256,0.061-0.836-2.348-4.846L170.778,217.28z"/>
</g>
<g>
	<path class="st0" d="M166.581,239.172c-0.278,0-0.532-0.174-0.632-0.438l-1.137-2.984c-0.076-0.2-0.057-0.42,0.055-0.605
		c0.106-0.184,0.295-0.302,0.502-0.328l2.937-0.338c0.21-0.022,0.42,0.052,0.565,0.207c0.148,0.152,0.213,0.367,0.182,0.578
		l-0.467,3.187c-0.048,0.312-0.295,0.551-0.604,0.583l-1.338,0.135C166.628,239.172,166.602,239.172,166.581,239.172z
		 M166.393,236.083l0.634,1.665l0.297-0.031l0.259-1.771L166.393,236.083z"/>
</g>
</svg>
