<?xml version="1.0" encoding="iso-8859-1"?>
<!-- Generator: Adobe Illustrator 20.0.0, SVG Export Plug-In . SVG Version: 6.00 Build 0)  -->
<svg version="1.1" id="Layer_1" xmlns="http://www.w3.org/2000/svg" xmlns:xlink="http://www.w3.org/1999/xlink" x="0px" y="0px"
	 width="40px" height="37.417px" viewBox="-82.5 313.084 40 37.417" style="enable-background:new -82.5 313.084 40 37.417;"
	 xml:space="preserve">
<style type="text/css">
	.st0{fill:#009797;}
	.st1{fill:#009898;}
	.st2{fill:#029696;}
	.st3{fill:#009797;stroke:#009797;stroke-width:0.1864;stroke-linecap:round;stroke-linejoin:round;stroke-miterlimit:10;}
</style>
<g>
	<path class="st0" d="M-43.265,324.981c-0.294-0.138-0.644-0.09-0.892,0.119l-6.553,5.546v-4.907c0-0.325-0.189-0.621-0.485-0.758
		c-0.295-0.138-0.643-0.09-0.892,0.119l-6.553,5.546v-4.907c0-0.325-0.189-0.621-0.485-0.758c-0.294-0.138-0.643-0.09-0.892,0.119
		l-6.554,5.546v-4.907c0-0.331-0.196-0.631-0.499-0.765c-0.302-0.133-0.655-0.075-0.901,0.146l-5.605,5.096l-2.161-11.344
		c-0.075-0.395-0.42-0.682-0.822-0.682h-2.439c-0.402,0-0.747,0.287-0.821,0.682l-2.44,12.811c-0.01,0.052-0.015,0.105-0.015,0.157
		v17.691c0,0.462,0.375,0.836,0.837,0.836h37.821c0.462,0,0.837-0.374,0.837-0.836v-23.793
		C-42.78,325.414-42.969,325.118-43.265,324.981z M-77.251,319.866l0.406,2.134h-1.868l0.406-2.134H-77.251z M-80.602,347.831h5.746
		v0.863h-5.746V347.831z M-44.454,348.694H-73.38v-1.602c0-0.408-0.331-0.738-0.738-0.738h-6.484v-14.436l1.627-8.541h2.393
		l1.64,8.607c0.015,0.087,0.049,0.172,0.093,0.252v12.895h1.378v-12.749l5.228-4.752v4.819c0,0.326,0.189,0.623,0.485,0.76
		c0.296,0.138,0.643,0.089,0.892-0.121l6.553-5.545v4.906c0,0.326,0.189,0.623,0.485,0.76c0.296,0.138,0.643,0.089,0.892-0.121
		l6.553-5.545v4.906c0,0.326,0.189,0.623,0.485,0.76c0.296,0.138,0.644,0.089,0.892-0.121l6.553-5.545V348.694z"/>
	<path class="st0" d="M-77.779,317.61c0.408,0,0.738-0.33,0.738-0.738v-1.221c0-0.602,0.49-1.091,1.092-1.091
		c0.46,0,1.021,0.603,1.219,0.894c0.107,0.158,1.079,1.546,2.442,1.546c1.364,0,2.336-1.388,2.441-1.544
		c0.2-0.293,0.76-0.895,1.219-0.895c0.459,0,1.021,0.603,1.219,0.894c0.106,0.158,1.079,1.546,2.442,1.546
		c1.364,0,2.336-1.388,2.442-1.546c0.189-0.28,0.756-0.894,1.218-0.894c0.407,0,0.738-0.33,0.738-0.738
		c0-0.408-0.331-0.738-0.738-0.738c-1.364,0-2.336,1.388-2.442,1.544c-0.199,0.292-0.76,0.896-1.218,0.896
		c-0.459,0-1.019-0.604-1.217-0.894c-0.106-0.159-1.08-1.546-2.444-1.546c-1.364,0-2.336,1.388-2.441,1.544
		c-0.199,0.292-0.76,0.896-1.218,0.896c-0.458,0-1.019-0.604-1.217-0.894c-0.106-0.159-1.08-1.546-2.444-1.546
		c-1.416,0-2.568,1.152-2.568,2.567v1.221C-78.517,317.28-78.186,317.61-77.779,317.61z"/>
	<rect x="-78.517" y="340.381" class="st0" width="1.476" height="1.22"/>
	<rect x="-78.517" y="342.821" class="st0" width="1.476" height="1.22"/>
	<rect x="-78.517" y="337.94" class="st0" width="1.476" height="1.221"/>
	<rect x="-78.517" y="335.501" class="st0" width="1.476" height="1.22"/>
	<path class="st0" d="M-69.848,339.241h3.661c0.38,0,0.689-0.309,0.689-0.69v-2.439c0-0.381-0.309-0.689-0.689-0.689h-3.661
		c-0.38,0-0.689,0.309-0.689,0.689v2.439C-70.537,338.933-70.229,339.241-69.848,339.241z M-69.159,336.8h2.282v1.062h-2.282V336.8z
		"/>
	<path class="st0" d="M-69.848,344.12h3.661c0.38,0,0.689-0.307,0.689-0.688v-2.441c0-0.381-0.309-0.689-0.689-0.689h-3.661
		c-0.38,0-0.689,0.309-0.689,0.689v2.441C-70.537,343.814-70.229,344.12-69.848,344.12z M-69.159,341.681h2.282v1.061h-2.282
		V341.681z"/>
	<path class="st0" d="M-63.748,339.241h3.661c0.38,0,0.689-0.309,0.689-0.69v-2.439c0-0.381-0.309-0.689-0.689-0.689h-3.661
		c-0.38,0-0.689,0.309-0.689,0.689v2.439C-64.437,338.933-64.128,339.241-63.748,339.241z M-63.058,336.8h2.282v1.062h-2.282V336.8z
		"/>
	<path class="st0" d="M-63.748,344.12h3.661c0.38,0,0.689-0.307,0.689-0.688v-2.441c0-0.381-0.309-0.689-0.689-0.689h-3.661
		c-0.38,0-0.689,0.309-0.689,0.689v2.441C-64.437,343.814-64.128,344.12-63.748,344.12z M-63.058,341.681h2.282v1.061h-2.282
		V341.681z"/>
	<path class="st0" d="M-57.648,339.241h3.661c0.38,0,0.689-0.309,0.689-0.69v-2.439c0-0.381-0.309-0.689-0.689-0.689h-3.661
		c-0.38,0-0.689,0.309-0.689,0.689v2.439C-58.337,338.933-58.028,339.241-57.648,339.241z M-56.959,336.8h2.282v1.062h-2.282V336.8z
		"/>
	<path class="st0" d="M-57.648,344.12h3.661c0.38,0,0.689-0.307,0.689-0.688v-2.441c0-0.381-0.309-0.689-0.689-0.689h-3.661
		c-0.38,0-0.689,0.309-0.689,0.689v2.441C-58.337,343.814-58.028,344.12-57.648,344.12z M-56.959,341.681h2.282v1.061h-2.282
		V341.681z"/>
	<path class="st0" d="M-52.236,336.111v2.439c0,0.382,0.309,0.69,0.689,0.69h3.661c0.38,0,0.689-0.309,0.689-0.69v-2.439
		c0-0.381-0.309-0.689-0.689-0.689h-3.661C-51.928,335.422-52.236,335.731-52.236,336.111z M-50.858,336.8h2.282v1.062h-2.282V336.8
		z"/>
	<path class="st0" d="M-51.547,344.12h3.661c0.38,0,0.689-0.307,0.689-0.688v-2.441c0-0.381-0.309-0.689-0.689-0.689h-3.661
		c-0.381,0-0.689,0.309-0.689,0.689v2.441C-52.236,343.814-51.928,344.12-51.547,344.12z M-50.858,341.681h2.282v1.061h-2.282
		V341.681z"/>
	<rect x="-70.593" y="346.355" class="st0" width="23.458" height="1.477"/>
</g>
</svg>
