<?xml version="1.0" encoding="utf-8"?>
<!-- Generator: Adobe Illustrator 20.0.0, SVG Export Plug-In . SVG Version: 6.00 Build 0)  -->
<svg version="1.1" id="Layer_1" xmlns="http://www.w3.org/2000/svg" xmlns:xlink="http://www.w3.org/1999/xlink" x="0px" y="0px"
	 width="40px" height="40px" viewBox="0 0 40 40" enable-background="new 0 0 40 40" xml:space="preserve">
<g>
	<g>
		<g>
			<path fill="#179796" d="M25.3,28.9H14c-0.5,0-1.1-0.5-1.1-1.1c0-0.3,0.1-0.7,0.4-0.9c6.6-5.1,10.3-8.4,10.3-11.6
				c0-2.4-2-3.5-3.9-3.5c-1.9,0-3.4,0.7-4.6,1.8c-0.2,0.2-0.5,0.3-0.7,0.3c-0.5,0-1.1-0.5-1.1-1c0-0.3,0.1-0.5,0.3-0.7
				c1.6-1.6,3.7-2.4,6-2.4c3.1,0,6.3,1.8,6.3,5.6c0,3.9-3.9,7.4-9.2,11.5h8.4c0.6,0,1,0.5,1,1C26.3,28.5,25.8,28.9,25.3,28.9z"/>
			<path fill="#179796" d="M25.3,29.1H14c-0.6,0-1.3-0.5-1.3-1.3c0-0.4,0.2-0.8,0.5-1c6.8-5.3,10.2-8.5,10.2-11.5
				c0-2.4-2-3.3-3.8-3.3c-1.8,0-3.3,0.6-4.4,1.7c-0.2,0.2-0.5,0.3-0.8,0.3c-0.6,0-1.3-0.5-1.3-1.2c0-0.3,0.1-0.6,0.3-0.9
				c1.5-1.5,3.7-2.4,6.2-2.4c3.1,0,6.5,1.8,6.5,5.7c0,3.9-4,7.5-8.8,11.3h7.9c0.7,0,1.2,0.5,1.2,1.2C26.5,28.6,25.9,29.1,25.3,29.1z
				 M19.7,11.7c2,0,4.1,1.1,4.1,3.6c0,3.2-3.3,6.3-10.4,11.8c-0.2,0.2-0.4,0.4-0.4,0.7c0,0.6,0.5,1,0.9,1h11.3
				c0.5,0,0.8-0.4,0.8-0.9c0-0.5-0.4-0.8-0.8-0.8h-8.4c-0.1,0-0.1,0-0.2-0.1c0-0.1,0-0.1,0.1-0.2c5-3.9,9.1-7.5,9.1-11.4
				c0-3.7-3.2-5.4-6.2-5.4c-2.3,0-4.4,0.8-5.9,2.3c-0.1,0.1-0.2,0.4-0.2,0.6c0,0.5,0.5,0.9,0.9,0.9c0.2,0,0.4-0.1,0.6-0.2
				C16.2,12.3,17.8,11.7,19.7,11.7z"/>
		</g>
	</g>
	<g>
		<path fill="#179796" d="M38.5,39.8h-37c-0.7,0-1.3-0.6-1.3-1.3V1.6c0-0.7,0.6-1.3,1.3-1.3h37c0.7,0,1.3,0.6,1.3,1.3v36.9
			C39.8,39.2,39.2,39.8,38.5,39.8z M2.1,37.9h35.8V2.2H2.1V37.9z"/>
	</g>
</g>
</svg>
