<?xml version="1.0" encoding="iso-8859-1"?>
<!-- Generator: Adobe Illustrator 20.0.0, SVG Export Plug-In . SVG Version: 6.00 Build 0)  -->
<svg version="1.1" id="Layer_1" xmlns="http://www.w3.org/2000/svg" xmlns:xlink="http://www.w3.org/1999/xlink" x="0px" y="0px"
	 width="40px" height="40px" viewBox="-137.5 203.084 40 40" style="enable-background:new -137.5 203.084 40 40;"
	 xml:space="preserve">
<style type="text/css">
	.st0{fill:#009797;}
	.st1{fill:#009898;}
	.st2{fill:#029696;}
	.st3{fill:#009797;stroke:#009797;stroke-width:0.1864;stroke-linecap:round;stroke-linejoin:round;stroke-miterlimit:10;}
</style>
<g>
	<g>
		<path class="st0" d="M-98.979,242.733h-36.971c-0.725,0-1.315-0.591-1.315-1.316v-36.885c0-0.725,0.59-1.314,1.315-1.314h36.971
			c0.725,0,1.315,0.59,1.315,1.314v36.885C-97.664,242.143-98.254,242.733-98.979,242.733z M-135.365,240.833h35.801v-35.715
			h-35.801V240.833z"/>
	</g>
	<g>
		<path class="st3" d="M-126.308,218.576c0-0.523,0.402-0.925,0.924-0.925h6.083c0.462,0,0.834,0.373,0.834,0.836
			c0,0.461-0.373,0.834-0.834,0.834h-5.173v2.848h4.502c0.462,0,0.835,0.373,0.835,0.835c0,0.462-0.373,0.835-0.835,0.835h-4.502
			v3.414c0,0.506-0.402,0.909-0.909,0.909c-0.522,0-0.924-0.403-0.924-0.909V218.576z"/>
		<path class="st3" d="M-117.272,218.487c0-0.508,0.402-0.91,0.924-0.91c0.507,0,0.909,0.402,0.909,0.91v3.503h4.979v-3.503
			c0-0.508,0.402-0.91,0.909-0.91c0.522,0,0.924,0.402,0.924,0.91v8.766c0,0.506-0.402,0.909-0.924,0.909
			c-0.507,0-0.909-0.403-0.909-0.909v-3.563h-4.979v3.563c0,0.506-0.402,0.909-0.909,0.909c-0.522,0-0.924-0.403-0.924-0.909
			V218.487z"/>
	</g>
</g>
</svg>
