<?xml version="1.0" encoding="utf-8"?>
<!-- Generator: Adobe Illustrator 20.0.0, SVG Export Plug-In . SVG Version: 6.00 Build 0)  -->
<svg version="1.1" id="Layer_1" xmlns="http://www.w3.org/2000/svg" xmlns:xlink="http://www.w3.org/1999/xlink" x="0px" y="0px"
	 width="40px" height="40px" viewBox="0 0 40 40" enable-background="new 0 0 40 40" xml:space="preserve">
<g>
	<g>
		<g>
			<path fill="#179796" d="M20.6,29c-0.7,0-1.2-0.5-1.2-1.2V13l-2.5,2.6c-0.2,0.2-0.4,0.3-0.7,0.3c-0.5,0-1-0.4-1-1
				c0-0.3,0.1-0.5,0.3-0.7l4-4.1c0.2-0.3,0.6-0.4,0.9-0.4c0.7,0,1.3,0.5,1.3,1.3v16.8C21.8,28.5,21.3,29,20.6,29z"/>
			<path fill="#179796" d="M20.6,29.2c-0.8,0-1.3-0.6-1.3-1.3V13.5l-2.2,2.3c-0.2,0.2-0.5,0.3-0.8,0.3c-0.6,0-1.2-0.5-1.2-1.2
				c0-0.3,0.1-0.6,0.3-0.8l4-4.1c0.2-0.3,0.6-0.4,1.1-0.4c0.8,0,1.5,0.7,1.5,1.5v16.8C21.9,28.6,21.3,29.2,20.6,29.2z M19.4,12.9
				C19.4,12.9,19.5,12.9,19.4,12.9c0.1,0,0.2,0.1,0.2,0.2v14.8c0,0.6,0.4,1,1,1c0.6,0,1-0.4,1-1V11.1c0-0.6-0.5-1.1-1.2-1.1
				c-0.2,0-0.6,0.1-0.8,0.3l-4,4.1c-0.2,0.2-0.2,0.4-0.2,0.6c0,0.5,0.4,0.8,0.8,0.8c0.2,0,0.4-0.1,0.6-0.2l2.5-2.6
				C19.3,12.9,19.4,12.9,19.4,12.9z"/>
		</g>
	</g>
	<g>
		<path fill="#179796" d="M38.5,39.8h-37c-0.7,0-1.3-0.6-1.3-1.3V1.6c0-0.7,0.6-1.3,1.3-1.3h37c0.7,0,1.3,0.6,1.3,1.3v36.9
			C39.8,39.2,39.2,39.8,38.5,39.8z M2.1,37.9h35.8V2.2H2.1V37.9z"/>
	</g>
</g>
</svg>
