<?xml version="1.0" encoding="utf-8"?>
<!-- Generator: Adobe Illustrator 20.0.0, SVG Export Plug-In . SVG Version: 6.00 Build 0)  -->
<svg version="1.1" id="Layer_1" xmlns="http://www.w3.org/2000/svg" xmlns:xlink="http://www.w3.org/1999/xlink" x="0px" y="0px"
	 width="40px" height="40px" viewBox="0 0 40 40" enable-background="new 0 0 40 40" xml:space="preserve">
<g>
	<g>
		<g>
			<path fill="#179796" d="M25.1,24.2h-1.8V28c0,0.7-0.5,1.2-1.2,1.2c-0.7,0-1.2-0.5-1.2-1.2v-3.8h-8c-0.6,0-1.2-0.5-1.2-1.3
				c0-0.3,0.1-0.5,0.2-0.8l7.6-11.4c0.4-0.5,1-0.9,1.7-0.9c1.1,0,2,0.9,2,2v10.2h1.8c0.5,0,1,0.5,1,1C26.1,23.7,25.7,24.2,25.1,24.2
				z M20.9,12.3l-6.6,9.9h6.6V12.3z"/>
			<path fill="#179796" d="M22.1,29.3c-0.8,0-1.3-0.6-1.3-1.3v-3.6h-7.8c-0.7,0-1.3-0.5-1.3-1.5c0-0.3,0.1-0.6,0.3-0.9l7.6-11.4
				c0.4-0.6,1.1-1,1.8-1c1.2,0,2.2,1,2.2,2.2v10h1.7c0.6,0,1.2,0.5,1.2,1.2c0,0.7-0.5,1.2-1.2,1.2h-1.7V28
				C23.5,28.7,22.9,29.3,22.1,29.3z M21.3,10.1c-0.6,0-1.2,0.3-1.6,0.8l-7.6,11.4C12,22.4,12,22.7,12,22.9c0,0.7,0.5,1.1,1,1.1h8
				c0.1,0,0.2,0.1,0.2,0.2V28c0,0.6,0.4,1,1,1c0.6,0,1-0.4,1-1v-3.8c0-0.1,0.1-0.2,0.2-0.2h1.8c0.4,0,0.8-0.4,0.8-0.8
				c0-0.5-0.4-0.9-0.8-0.9h-1.8c-0.1,0-0.2-0.1-0.2-0.2V11.9C23.1,10.9,22.2,10.1,21.3,10.1z M20.9,22.3h-6.6c-0.1,0-0.1,0-0.2-0.1
				c0-0.1,0-0.1,0-0.2l6.6-9.9c0-0.1,0.1-0.1,0.2-0.1c0.1,0,0.1,0.1,0.1,0.2v9.9C21.1,22.2,21,22.3,20.9,22.3z M14.6,21.9h6.1v-9.1
				L14.6,21.9z"/>
		</g>
	</g>
	<g>
		<path fill="#179796" d="M38.6,39.8h-37c-0.7,0-1.3-0.6-1.3-1.3V1.6c0-0.7,0.6-1.3,1.3-1.3h37c0.7,0,1.3,0.6,1.3,1.3v36.9
			C39.9,39.2,39.3,39.8,38.6,39.8z M2.2,37.9H38V2.2H2.2V37.9z"/>
	</g>
</g>
</svg>
