<?xml version="1.0" encoding="utf-8"?>
<!-- Generator: Adobe Illustrator 20.0.0, SVG Export Plug-In . SVG Version: 6.00 Build 0)  -->
<svg version="1.1" id="Layer_1" xmlns="http://www.w3.org/2000/svg" xmlns:xlink="http://www.w3.org/1999/xlink" x="0px" y="0px"
	 width="40px" height="40px" viewBox="0 0 40 40" enable-background="new 0 0 40 40" xml:space="preserve">
<g>
	<g>
		<g>
			<path fill="#179796" d="M19.7,29.2c-2.7,0-4.9-1-6.2-2.5c-0.2-0.2-0.3-0.4-0.3-0.7c0-0.5,0.4-1.1,1-1.1c0.3,0,0.5,0.1,0.7,0.3
				c1.2,1.2,2.9,1.9,4.7,1.9c2.7,0,4.4-1.4,4.4-3.5c0-2.4-1.9-3.3-4.7-3.3c-0.8,0-2.1,0.2-2.1-1.1c0-0.6,0.5-1,1-1
				c2.8,0,5.5-0.4,5.5-3.1c0-2.1-1.9-3.2-4.2-3.2c-1.8,0-3.2,0.6-4.4,1.7c-0.2,0.2-0.4,0.3-0.6,0.3c-0.5,0-1-0.4-1-1
				c0-0.3,0.1-0.5,0.3-0.7c1.5-1.4,3.4-2.4,5.9-2.4c3.6,0,6.4,1.8,6.4,5c0,2.7-2.3,4.1-4.1,4.4c1.7,0.1,4.4,1.6,4.4,4.6
				C26.3,26.9,23.8,29.2,19.7,29.2z"/>
			<path fill="#179796" d="M19.7,29.4c-2.5,0-4.8-0.9-6.3-2.5C13.1,26.6,13,26.3,13,26c0-0.6,0.5-1.3,1.2-1.3c0.3,0,0.6,0.1,0.8,0.3
				c1.2,1.2,2.8,1.9,4.6,1.9c2.6,0,4.2-1.3,4.2-3.4c0-2.6-2.5-3.2-4.5-3.2c-0.1,0-0.2,0-0.3,0c-0.5,0-1,0-1.4-0.2
				C17.2,20,17,19.7,17,19.1c0-0.7,0.5-1.2,1.2-1.2c2.6,0,5.3-0.3,5.3-2.9c0-2.1-2-3.1-4-3.1c-1.7,0-3,0.5-4.3,1.7
				c-0.2,0.2-0.5,0.3-0.7,0.3c-0.6,0-1.2-0.5-1.2-1.2c0-0.3,0.1-0.6,0.4-0.8c1.6-1.6,3.7-2.4,6.1-2.4c3.9,0,6.6,2.1,6.6,5.2
				c0,2.3-1.6,3.8-3.4,4.4c1.7,0.5,3.7,2,3.7,4.7C26.5,27.1,23.8,29.4,19.7,29.4z M14.2,25.1c-0.5,0-0.8,0.5-0.8,0.9
				c0,0.2,0.1,0.4,0.2,0.6c1.4,1.6,3.6,2.4,6.1,2.4c3.9,0,6.5-2.1,6.5-5.3c0-2.8-2.5-4.3-4.2-4.5c-0.1,0-0.2-0.1-0.2-0.2
				s0.1-0.2,0.1-0.2c1.5-0.3,3.9-1.4,3.9-4.2c0-2.9-2.5-4.9-6.2-4.9c-2.3,0-4.2,0.8-5.8,2.3c-0.2,0.1-0.3,0.4-0.3,0.6
				c0,0.5,0.4,0.8,0.8,0.8c0.2,0,0.4-0.1,0.5-0.2c1.4-1.2,2.8-1.8,4.6-1.8c2.6,0,4.4,1.4,4.4,3.4c0,2.9-2.9,3.3-5.7,3.3
				c-0.5,0-0.8,0.4-0.8,0.8c0,0.4,0.1,0.6,0.4,0.8c0.4,0.2,0.9,0.2,1.3,0.2c0.1,0,0.2,0,0.3,0c3.1,0,4.9,1.2,4.9,3.5
				c0,2.3-1.8,3.7-4.6,3.7c-1.9,0-3.6-0.7-4.9-1.9C14.6,25.2,14.4,25.1,14.2,25.1z"/>
		</g>
	</g>
	<g>
		<path fill="#179796" d="M38.5,39.8h-37c-0.7,0-1.3-0.6-1.3-1.3V1.6c0-0.7,0.6-1.3,1.3-1.3h37c0.7,0,1.3,0.6,1.3,1.3v36.9
			C39.8,39.2,39.2,39.8,38.5,39.8z M2.1,37.9h35.8V2.2H2.1V37.9z"/>
	</g>
</g>
</svg>
