<?xml version="1.0" encoding="iso-8859-1"?>
<!-- Generator: Adobe Illustrator 20.0.0, SVG Export Plug-In . SVG Version: 6.00 Build 0)  -->
<svg version="1.1" id="Layer_1" xmlns="http://www.w3.org/2000/svg" xmlns:xlink="http://www.w3.org/1999/xlink" x="0px" y="0px"
	 width="40px" height="35.75px" viewBox="27.5 204.751 40 35.75" style="enable-background:new 27.5 204.751 40 35.75;"
	 xml:space="preserve">
<style type="text/css">
	.st0{fill:#009797;}
	.st1{fill:#009898;}
	.st2{fill:#029696;}
	.st3{fill:#009797;stroke:#009797;stroke-width:0.1864;stroke-linecap:round;stroke-linejoin:round;stroke-miterlimit:10;}
</style>
<g>
	<path class="st0" d="M48.814,235.438c-0.242,0-0.479-0.096-0.651-0.273l-14.39-14.633c-0.181-0.184-0.275-0.436-0.26-0.693
		c0.014-0.258,0.137-0.496,0.338-0.658l3.678-2.963c0.331-0.268,0.803-0.27,1.137-0.01l7.637,5.983
		c2.861-3.317,9.393-10.297,18.389-16.315c0.211-0.143,0.473-0.189,0.723-0.129c0.248,0.061,0.461,0.223,0.584,0.445l1.346,2.432
		c0.197,0.358,0.135,0.801-0.152,1.088c-8.221,8.232-15.164,19.1-17.525,25.145c-0.113,0.289-0.364,0.502-0.668,0.562
		C48.937,235.432,48.875,235.438,48.814,235.438z M35.783,219.969l12.719,12.934c2.771-6.252,9.277-16.207,16.912-23.992
		l-0.53-0.959c-9.028,6.203-15.393,13.275-17.754,16.086c-0.317,0.379-0.876,0.434-1.263,0.133l-7.756-6.076L35.783,219.969z"/>
	<path class="st0" d="M61.178,219.631v18.854H29.466v-31.633h30.279c0.582-0.451,1.562-1.191,2.509-1.842
		c-0.138-0.051-0.282-0.088-0.438-0.088h-32.99c-0.711,0-1.289,0.578-1.289,1.289v32.914c0,0.711,0.578,1.289,1.289,1.289h32.99
		c0.712,0,1.291-0.578,1.291-1.289v-21.887C62.543,217.822,61.83,218.639,61.178,219.631z"/>
</g>
</svg>
