<?xml version="1.0" encoding="iso-8859-1"?>
<!-- Generator: Adobe Illustrator 20.0.0, SVG Export Plug-In . SVG Version: 6.00 Build 0)  -->
<svg version="1.1" id="Layer_1" xmlns="http://www.w3.org/2000/svg" xmlns:xlink="http://www.w3.org/1999/xlink" x="0px" y="0px"
	 width="40px" height="40px" viewBox="-192.5 203.084 40 40" style="enable-background:new -192.5 203.084 40 40;"
	 xml:space="preserve">
<style type="text/css">
	.st0{fill:#009797;}
	.st1{fill:#009898;}
	.st2{fill:#029696;}
	.st3{fill:#009797;stroke:#009797;stroke-width:0.1864;stroke-linecap:round;stroke-linejoin:round;stroke-miterlimit:10;}
</style>
<g>
	<g>
		<path class="st0" d="M-154,242.733h-36.971c-0.725,0-1.315-0.591-1.315-1.316v-36.885c0-0.725,0.59-1.314,1.315-1.314H-154
			c0.725,0,1.315,0.59,1.315,1.314v36.885C-152.685,242.143-153.274,242.733-154,242.733z M-190.386,240.833h35.801v-35.715h-35.801
			V240.833z"/>
	</g>
	<g>
		<path class="st3" d="M-184.953,218.576c0-0.523,0.402-0.925,0.924-0.925h6.083c0.462,0,0.835,0.373,0.835,0.836
			c0,0.461-0.373,0.834-0.835,0.834h-5.173v2.848h4.502c0.462,0,0.835,0.373,0.835,0.835c0,0.462-0.373,0.835-0.835,0.835h-4.502
			v3.414c0,0.506-0.402,0.909-0.909,0.909c-0.522,0-0.924-0.403-0.924-0.909V218.576z"/>
		<path class="st3" d="M-176.186,226.925c-0.208-0.149-0.357-0.402-0.357-0.701c0-0.477,0.387-0.85,0.864-0.85
			c0.253,0,0.418,0.074,0.537,0.164c0.865,0.686,1.789,1.073,2.922,1.073c1.133,0,1.848-0.536,1.848-1.311v-0.029
			c0-0.746-0.417-1.148-2.355-1.596c-2.222-0.537-3.474-1.193-3.474-3.115v-0.03c0-1.789,1.491-3.026,3.563-3.026
			c1.312,0,2.37,0.343,3.31,0.969c0.208,0.119,0.402,0.373,0.402,0.73c0,0.477-0.388,0.85-0.865,0.85
			c-0.179,0-0.328-0.045-0.477-0.134c-0.805-0.523-1.58-0.79-2.4-0.79c-1.074,0-1.7,0.551-1.7,1.237v0.03
			c0,0.805,0.477,1.162,2.49,1.639c2.206,0.537,3.339,1.328,3.339,3.057v0.029c0,1.953-1.536,3.116-3.727,3.116
			C-173.681,228.236-175.023,227.789-176.186,226.925z"/>
		<path class="st3" d="M-167.537,226.925c-0.208-0.149-0.358-0.402-0.358-0.701c0-0.477,0.388-0.85,0.865-0.85
			c0.253,0,0.417,0.074,0.537,0.164c0.865,0.686,1.789,1.073,2.922,1.073c1.133,0,1.848-0.536,1.848-1.311v-0.029
			c0-0.746-0.417-1.148-2.355-1.596c-2.221-0.537-3.473-1.193-3.473-3.115v-0.03c0-1.789,1.491-3.026,3.563-3.026
			c1.312,0,2.37,0.343,3.31,0.969c0.209,0.119,0.402,0.373,0.402,0.73c0,0.477-0.388,0.85-0.865,0.85
			c-0.179,0-0.328-0.045-0.477-0.134c-0.805-0.523-1.58-0.79-2.4-0.79c-1.074,0-1.7,0.551-1.7,1.237v0.03
			c0,0.805,0.477,1.162,2.49,1.639c2.206,0.537,3.339,1.328,3.339,3.057v0.029c0,1.953-1.536,3.116-3.727,3.116
			C-165.032,228.236-166.374,227.789-167.537,226.925z"/>
	</g>
</g>
</svg>
