<?xml version="1.0" encoding="iso-8859-1"?>
<!-- Generator: Adobe Illustrator 19.1.0, SVG Export Plug-In . SVG Version: 6.00 Build 0)  -->
<svg version="1.1" id="Layer_1" xmlns="http://www.w3.org/2000/svg" xmlns:xlink="http://www.w3.org/1999/xlink" x="0px" y="0px"
	 viewBox="-179.917 -89.25 40 37.584" style="enable-background:new -179.917 -89.25 40 37.584;" xml:space="preserve">
<style type="text/css">
	.st0{fill:#009797;}
	.st1{fill:#009898;}
	.st2{fill:#009797;stroke:#009797;stroke-width:0.3403;stroke-linecap:round;stroke-linejoin:round;stroke-miterlimit:10;}
	.st3{fill:#009797;stroke:#009797;stroke-width:0.3391;stroke-linecap:round;stroke-linejoin:round;stroke-miterlimit:10;}
</style>
<g>
	<g>
		<path class="st0" d="M-144.555-54.515h-24.771c-0.402,0-0.728-0.326-0.728-0.727v-30.481c0-0.403,0.326-0.728,0.728-0.728h24.771
			c0.401,0,0.728,0.326,0.728,0.728v30.48C-143.827-54.841-144.153-54.515-144.555-54.515z M-168.599-55.969h23.315v-29.027h-23.315
			V-55.969z"/>
	</g>
	<g>
		<path class="st0" d="M-149.135-51.627h-23.08v-1.455h22.351v-2.16h1.457v2.887C-148.407-51.954-148.732-51.627-149.135-51.627z"/>
	</g>
	<g>
		<path class="st0" d="M-158.146-71.925h-6.773c-0.355,0-0.642-0.288-0.642-0.642v-5.775c0-0.354,0.287-0.642,0.642-0.642h6.773
			c0.355,0,0.641,0.287,0.641,0.642v5.775C-157.505-72.213-157.791-71.925-158.146-71.925z M-164.278-73.209h5.49V-77.7h-5.489
			L-164.278-73.209L-164.278-73.209z"/>
	</g>
	<g>
		<path class="st0" d="M-149.135-71.925h-6.701c-0.355,0-0.644-0.288-0.644-0.642v-5.775c0-0.354,0.289-0.642,0.644-0.642h6.701
			c0.354,0,0.641,0.287,0.641,0.642v5.775C-148.494-72.213-148.781-71.925-149.135-71.925z M-155.196-73.209h5.419V-77.7h-5.419
			V-73.209z"/>
	</g>
	<g>
		<path class="st0" d="M-158.146-63.841h-6.773c-0.355,0-0.642-0.288-0.642-0.64v-5.777c0-0.355,0.287-0.641,0.642-0.641h6.773
			c0.355,0,0.641,0.286,0.641,0.641v5.776C-157.505-64.128-157.791-63.841-158.146-63.841z M-164.278-65.123h5.49v-4.492h-5.489
			L-164.278-65.123L-164.278-65.123z"/>
	</g>
	<g>
		<path class="st0" d="M-149.135-63.841h-6.701c-0.355,0-0.644-0.288-0.644-0.64v-5.777c0-0.355,0.289-0.641,0.644-0.641h6.701
			c0.354,0,0.641,0.286,0.641,0.641v5.776C-148.494-64.128-148.781-63.841-149.135-63.841z M-155.196-65.123h5.419v-4.492h-5.419
			V-65.123z"/>
	</g>
	<g>
		<rect x="-165.496" y="-82.448" class="st0" width="11.393" height="1.284"/>
	</g>
	<g>
		<rect x="-165.496" y="-61.659" class="st0" width="5.04" height="1.283"/>
	</g>
	<g>
		<rect x="-159.301" y="-61.659" class="st0" width="10.744" height="1.283"/>
	</g>
	<g>
		<rect x="-153.526" y="-59.348" class="st0" width="4.968" height="1.283"/>
	</g>
	<g>
		<rect x="-165.496" y="-59.348" class="st0" width="10.812" height="1.283"/>
	</g>
	<g>
		<path class="st0" d="M-172.214-51.627c-1.993,0-3.616-1.623-3.616-3.615c0-1.992,1.623-3.616,3.616-3.616
			c1.992,0,3.615,1.624,3.615,3.616h-1.456c0-1.193-0.968-2.161-2.159-2.161c-1.192,0-2.16,0.967-2.16,2.161
			c0,1.191,0.968,2.16,2.16,2.16V-51.627z"/>
	</g>
	<g>
		<path class="st0" d="M-174.374-55.242h-1.457v-30.48c0-1.994,1.623-3.615,3.616-3.615c1.992,0,3.615,1.622,3.615,3.615h-1.456
			c0-1.191-0.968-2.162-2.159-2.162c-1.192,0-2.16,0.969-2.16,2.162L-174.374-55.242L-174.374-55.242z"/>
	</g>
</g>
</svg>
