<?xml version="1.0" encoding="iso-8859-1"?>
<!-- Generator: Adobe Illustrator 20.0.0, SVG Export Plug-In . SVG Version: 6.00 Build 0)  -->
<svg version="1.1" id="Layer_1" xmlns="http://www.w3.org/2000/svg" xmlns:xlink="http://www.w3.org/1999/xlink" x="0px" y="0px"
	 width="40px" height="40px" viewBox="-82.5 203.084 40 40" style="enable-background:new -82.5 203.084 40 40;"
	 xml:space="preserve">
<style type="text/css">
	.st0{fill:#009797;}
	.st1{fill:#009898;}
	.st2{fill:#029696;}
	.st3{fill:#009797;stroke:#009797;stroke-width:0.1864;stroke-linecap:round;stroke-linejoin:round;stroke-miterlimit:10;}
</style>
<g>
	<g>
		<path class="st3" d="M-77.083,219.741c0-0.441,0.351-0.807,0.806-0.807h0.169c0.39,0,0.611,0.195,0.832,0.469l4.55,5.889v-5.59
			c0-0.43,0.351-0.78,0.78-0.78c0.442,0,0.794,0.351,0.794,0.78v7.645c0,0.441-0.338,0.793-0.78,0.793h-0.065
			c-0.377,0-0.611-0.195-0.832-0.481l-4.68-6.058v5.771c0,0.43-0.351,0.78-0.78,0.78c-0.442,0-0.793-0.35-0.793-0.78V219.741z"/>
		<path class="st3" d="M-67.697,227.073c-0.182-0.13-0.312-0.352-0.312-0.611c0-0.416,0.338-0.74,0.754-0.74
			c0.221,0,0.364,0.064,0.468,0.143c0.754,0.598,1.56,0.936,2.548,0.936c0.988,0,1.612-0.467,1.612-1.144v-0.026
			c0-0.649-0.364-1-2.054-1.391c-1.937-0.469-3.029-1.04-3.029-2.717v-0.026c0-1.56,1.3-2.64,3.107-2.64
			c1.144,0,2.067,0.3,2.886,0.846c0.182,0.104,0.351,0.324,0.351,0.637c0,0.416-0.338,0.741-0.754,0.741
			c-0.156,0-0.286-0.039-0.416-0.116c-0.702-0.455-1.378-0.689-2.093-0.689c-0.936,0-1.482,0.48-1.482,1.078v0.027
			c0,0.701,0.416,1.014,2.171,1.43c1.924,0.468,2.912,1.156,2.912,2.664v0.027c0,1.703-1.339,2.717-3.25,2.717
			C-65.513,228.218-66.683,227.827-67.697,227.073z"/>
		<path class="st3" d="M-60.586,220.015c-0.039-0.092-0.065-0.209-0.065-0.312c0-0.441,0.377-0.78,0.819-0.78
			c0.39,0,0.689,0.247,0.793,0.585l2.093,6.254l2.054-6.227c0.13-0.377,0.403-0.638,0.806-0.638h0.117
			c0.403,0,0.689,0.261,0.806,0.638l2.054,6.227l2.093-6.267c0.117-0.325,0.39-0.572,0.78-0.572c0.429,0,0.793,0.339,0.793,0.767
			c0,0.104-0.039,0.234-0.078,0.326l-2.691,7.539c-0.143,0.404-0.442,0.664-0.832,0.664h-0.156c-0.39,0-0.676-0.248-0.819-0.664
			l-2.028-5.94l-2.028,5.94c-0.143,0.416-0.442,0.664-0.832,0.664h-0.156c-0.39,0-0.676-0.248-0.832-0.664L-60.586,220.015z"/>
	</g>
	<path class="st0" d="M-62.492,242.847c-10.816,0-19.616-8.801-19.616-19.617c0-10.816,8.8-19.615,19.616-19.615
		s19.616,8.799,19.616,19.615C-42.876,234.046-51.675,242.847-62.492,242.847z M-62.492,205.515
		c-9.769,0-17.716,7.947-17.716,17.715c0,9.77,7.947,17.717,17.716,17.717s17.716-7.947,17.716-17.717
		C-44.776,213.462-52.723,205.515-62.492,205.515z"/>
</g>
</svg>
