<?xml version="1.0" encoding="iso-8859-1"?>
<!-- Generator: Adobe Illustrator 19.1.0, SVG Export Plug-In . SVG Version: 6.00 Build 0)  -->
<svg version="1.1" id="Layer_1" xmlns="http://www.w3.org/2000/svg" xmlns:xlink="http://www.w3.org/1999/xlink" x="0px" y="0px"
	 viewBox="-0.122 91.563 40 36.437" style="enable-background:new -0.122 91.563 40 36.437;" xml:space="preserve">
<style type="text/css">
	.st0{fill:#009797;}
	.st1{fill:#009898;}
	.st2{fill:#009797;stroke:#009797;stroke-width:0.3403;stroke-linecap:round;stroke-linejoin:round;stroke-miterlimit:10;}
	.st3{fill:#009797;stroke:#009797;stroke-width:0.3391;stroke-linecap:round;stroke-linejoin:round;stroke-miterlimit:10;}
</style>
<g>
	<path class="st0" d="M13.832,102.981c0.235,2.411,1.207,4.505,2.811,6.056c1.661,1.603,3.969,2.562,6.178,2.565l0.044-0.002
		c0.013,0,0.022-0.002,0.034-0.004c2.495-0.124,4.639-0.983,6.196-2.487c1.552-1.5,2.466-3.562,2.715-6.129
		c0.018-0.181,0.031-0.508,0.046-0.922c0.018-0.535,0.023-1.163,0.027-1.464c0.023-3.155-0.907-5.521-2.767-7.03
		c-1.485-1.208-3.57-1.852-6.188-1.916c-0.031-0.003-0.064-0.005-0.115-0.005c-0.017-0.001-0.027,0-0.04,0.003
		c-2.652,0.056-4.753,0.7-6.248,1.918c-1.86,1.509-2.79,3.875-2.765,7.03c0.002,0.301,0.012,0.927,0.027,1.462
		C13.803,102.525,13.817,102.812,13.832,102.981z M22.823,93.665c0.007,0.003,0.011,0.004,0.017,0.005v0.001
		c0.012,0.002,0.024,0.004,0.035,0.004c2.165,0.054,3.836,0.544,4.964,1.463c1.359,1.101,2.039,2.935,2.019,5.45
		c-0.002,0.273-0.012,0.871-0.028,1.411c-0.01,0.283-0.021,0.628-0.037,0.789c-0.202,2.07-0.909,3.704-2.104,4.858
		c-1.192,1.15-2.87,1.811-4.857,1.92c-0.004,0-0.007,0-0.011,0c-1.694,0-3.477-0.745-4.771-1.994
		c-1.252-1.206-2.012-2.86-2.197-4.784c-0.014-0.136-0.027-0.408-0.037-0.789c-0.019-0.54-0.028-1.137-0.03-1.411
		c-0.019-2.516,0.661-4.35,2.02-5.452c1.143-0.927,2.83-1.418,5.018-1.462L22.823,93.665z"/>
	<path class="st0" d="M6.046,119.892h1.693c0-0.812,0-2.946,0-2.946h2.744v-1.687H7.739c0,0,0-2.135,0-2.947H6.05
		c-0.004,0.812,0,2.947,0,2.947s-1.836,0-2.745,0v1.695c0.909-0.01,2.745-0.01,2.745-0.01S6.05,119.08,6.046,119.892z"/>
	<path class="st0" d="M37.509,115.356c-0.869-1.388-1.948-2.593-3.161-3.572c0-0.001,0.002-0.001,0.002-0.003
		c-0.004-0.036-0.023-0.07-0.052-0.096c-1.08-0.849-2.213-1.497-3.372-1.924c-0.004-0.003-0.01-0.007-0.017-0.009
		c-0.414-0.152-0.907-0.005-1.167,0.342c-0.179,0.212-0.36,0.409-0.542,0.59c-0.215,0.211-0.422,0.399-0.632,0.573
		c-0.805,0.66-1.752,1.199-2.738,1.556c-0.036,0.013-0.072,0.02-0.108,0.032c-0.887,0.277-1.842,0.438-2.858,0.463
		c-1.013-0.025-1.963-0.184-2.847-0.459c-0.04-0.014-0.08-0.021-0.119-0.036c-0.988-0.358-1.935-0.896-2.742-1.556
		c-0.209-0.172-0.417-0.36-0.632-0.573c-0.179-0.179-0.362-0.375-0.537-0.583c-0.264-0.354-0.753-0.501-1.169-0.349
		c-0.004,0.002-0.011,0.005-0.015,0.007c-0.96,0.355-1.903,0.87-2.812,1.519c-1.34-1.335-3.116-2.068-5.007-2.068
		c-1.898,0-3.683,0.74-5.025,2.085c-1.34,1.338-2.079,3.124-2.079,5.025c0,1.895,0.739,3.681,2.081,5.023
		c1.054,1.055,2.382,1.73,3.822,1.976c-0.017,0.285-0.023,0.551-0.023,0.81v0.257c0,0.917,0.317,1.788,0.893,2.456
		c0.61,0.709,1.43,1.098,2.312,1.098h5.718h16.368h5.721c0.878,0,1.7-0.389,2.313-1.098c0.573-0.668,0.891-1.541,0.891-2.456v-0.257
		C39.971,120.962,39.119,117.931,37.509,115.356z M30.314,125.904H15.414H8.961c-0.284,0-0.561-0.14-0.778-0.392
		c-0.253-0.297-0.394-0.697-0.394-1.129v-0.257c0-0.246,0.012-0.5,0.024-0.755c1.583-0.184,3.05-0.885,4.194-2.029
		c1.343-1.344,2.083-3.128,2.083-5.023c0-1.2-0.297-2.353-0.851-3.378c0.525-0.371,1.063-0.71,1.621-0.971
		c0.903,0.967,1.976,1.74,3.19,2.302c0.472,0.219,0.973,0.394,1.484,0.546c1.083,0.355,2.187,0.53,3.262,0.517
		c0.011,0,0.02,0.002,0.033,0.002c0.077,0.002,0.155,0.002,0.233,0.002c1.052,0,2.116-0.185,3.167-0.531
		c0.498-0.15,0.984-0.322,1.447-0.535c1.214-0.562,2.286-1.335,3.188-2.304c1.961,0.912,3.659,2.452,4.917,4.459
		c1.409,2.253,2.154,4.913,2.154,7.699v0.257c0,0.434-0.141,0.834-0.393,1.129c-0.22,0.252-0.493,0.392-0.777,0.392H30.314z
		 M6.984,110.834c1.464,0,2.84,0.57,3.878,1.606c1.036,1.037,1.607,2.414,1.607,3.88c0,1.463-0.572,2.841-1.607,3.877
		c-1.034,1.035-2.41,1.607-3.878,1.607c-1.468,0-2.844-0.573-3.878-1.607C2.07,119.16,1.5,117.783,1.5,116.319
		c0-1.465,0.571-2.843,1.606-3.88C4.145,111.403,5.52,110.834,6.984,110.834z"/>
</g>
</svg>
